<svg xmlns="http://www.w3.org/2000/svg" xmlns:xlink="http://www.w3.org/1999/xlink" width="130" zoomAndPan="magnify" viewBox="0 0 97.5 131.999998" height="176" preserveAspectRatio="xMidYMid meet" version="1.0"><defs><clipPath id="6e76d91c4f"><path d="M 3 17.324219 L 97.003906 17.324219 L 97.003906 131.664062 L 3 131.664062 Z M 3 17.324219 " clip-rule="nonzero"/></clipPath><clipPath id="5b91e6db21"><path d="M 8 21 L 97.003906 21 L 97.003906 131.664062 L 8 131.664062 Z M 8 21 " clip-rule="nonzero"/></clipPath><clipPath id="5daa9f14a4"><path d="M 48 114 L 87 114 L 87 131.664062 L 48 131.664062 Z M 48 114 " clip-rule="nonzero"/></clipPath><clipPath id="902b74e7dc"><path d="M 36 31 L 97.003906 31 L 97.003906 98 L 36 98 Z M 36 31 " clip-rule="nonzero"/></clipPath><clipPath id="1868613055"><path d="M 89 48 L 97.003906 48 L 97.003906 121 L 89 121 Z M 89 48 " clip-rule="nonzero"/></clipPath><clipPath id="03674465fa"><path d="M 89 76 L 97.003906 76 L 97.003906 121 L 89 121 Z M 89 76 " clip-rule="nonzero"/></clipPath><clipPath id="381a3b25e5"><path d="M 84 33 L 97.003906 33 L 97.003906 41 L 84 41 Z M 84 33 " clip-rule="nonzero"/></clipPath></defs><g clip-path="url(#6e76d91c4f)"><path fill="#c49306" d="M 128.535156 82.632812 C 128.769531 85.023438 128.839844 87.382812 128.738281 89.472656 C 128.082031 104.363281 120.636719 116.660156 109.230469 125.992188 L 102.546875 131.464844 L 102.882812 123.617188 C 100.101562 125.804688 96.9375 127.675781 93.820312 129.242188 C 93.027344 132.125 91.460938 135.15625 89.914062 137.363281 C 84.726562 144.773438 76.65625 148.882812 67.949219 150.722656 L 67.15625 150.890625 L 66.367188 150.722656 C 57.65625 148.882812 49.589844 144.773438 44.402344 137.363281 C 42.851562 135.15625 41.285156 132.125 40.492188 129.242188 C 37.378906 127.675781 34.226562 125.804688 31.433594 123.617188 L 31.769531 131.464844 L 25.082031 125.992188 C 13.695312 116.660156 6.25 104.363281 5.578125 89.472656 C 5.492188 87.382812 5.542969 85.023438 5.777344 82.632812 L 3.992188 84.25 L 4.550781 74.800781 C 5.207031 63.597656 9.398438 53.40625 17.789062 45.824219 C 20.382812 43.484375 23.988281 40.957031 27.492188 39.324219 C 27.742188 35.164062 28.871094 30.496094 31.160156 27.363281 C 33.941406 23.523438 38.945312 22.476562 43.457031 23.152344 C 45.765625 20.640625 48.679688 18.804688 52.164062 18.234375 C 53.511719 18.015625 55.113281 17.980469 56.578125 18.25 C 60.234375 17.324219 63.855469 17.945312 67.15625 19.597656 C 70.457031 17.945312 74.097656 17.324219 77.734375 18.25 C 79.199219 17.980469 80.800781 18.015625 82.164062 18.234375 C 85.632812 18.804688 88.546875 20.640625 90.875 23.152344 C 95.386719 22.476562 100.371094 23.523438 103.167969 27.363281 C 105.441406 30.496094 106.585938 35.164062 106.824219 39.324219 C 110.328125 40.957031 113.933594 43.484375 116.527344 45.824219 C 124.914062 53.40625 129.125 63.597656 129.78125 74.800781 L 130.335938 84.25 Z M 128.535156 82.632812 " fill-opacity="1" fill-rule="evenodd"/></g><g clip-path="url(#5b91e6db21)"><path fill="#070202" d="M 67.15625 24.0625 C 69.800781 22.324219 73.539062 20.828125 77.632812 22.257812 C 77.632812 22.257812 84.050781 20.019531 89.371094 27.464844 C 89.371094 27.464844 96.75 25.140625 100.035156 29.636719 C 103.304688 34.132812 102.984375 41.96875 102.984375 41.96875 C 102.984375 41.96875 124.375 48.859375 125.90625 75.035156 C 125.90625 75.035156 123.667969 73.015625 122.25 72.355469 C 122.25 72.355469 134.296875 100.453125 106.789062 122.992188 C 106.789062 122.992188 107.042969 116.910156 106.015625 114.433594 C 106.015625 114.433594 103.707031 120.296875 90.417969 126.597656 C 90.417969 126.597656 88.378906 142.464844 67.15625 146.929688 C 45.933594 142.464844 43.894531 126.597656 43.894531 126.597656 C 30.605469 120.296875 28.296875 114.433594 28.296875 114.433594 C 27.273438 116.910156 27.539062 122.992188 27.539062 122.992188 C 0.0195312 100.453125 12.0625 72.355469 12.0625 72.355469 C 10.664062 73.015625 8.40625 75.035156 8.40625 75.035156 C 9.957031 48.859375 31.332031 41.96875 31.332031 41.96875 C 31.332031 41.96875 31.011719 34.132812 34.296875 29.636719 C 37.5625 25.140625 44.941406 27.464844 44.941406 27.464844 C 50.261719 20.019531 56.679688 22.257812 56.679688 22.257812 C 60.773438 20.828125 64.511719 22.324219 67.15625 24.0625 Z M 67.15625 24.0625 " fill-opacity="1" fill-rule="evenodd"/></g><path fill="#fefefe" d="M 79.265625 62.636719 C 79.265625 62.636719 82.367188 62.265625 85.382812 59.488281 C 85.382812 59.488281 85.886719 61.222656 84.355469 62.636719 C 82.820312 64.050781 79.789062 63.597656 79.265625 62.636719 Z M 79.265625 62.636719 " fill-opacity="1" fill-rule="evenodd"/><g clip-path="url(#5daa9f14a4)"><path fill="#d19f0f" d="M 83.898438 114.824219 C 83.898438 114.824219 85.078125 119.945312 82.636719 125.722656 C 82.636719 125.722656 83.867188 125.839844 86.308594 123.347656 C 86.308594 123.347656 84.808594 135.476562 67.15625 139.703125 C 49.503906 135.476562 48.003906 123.347656 48.003906 123.347656 C 50.464844 125.839844 51.679688 125.722656 51.679688 125.722656 C 49.234375 119.945312 50.414062 114.824219 50.414062 114.824219 C 51.59375 120.835938 51.59375 124.257812 56.511719 128.417969 C 55.703125 126.109375 55.585938 123.566406 55.585938 123.566406 C 57.1875 129.292969 63.097656 131.316406 63.097656 131.316406 C 61.445312 131.5 58.71875 131.027344 58.71875 131.027344 C 61.515625 132.933594 64.445312 134.007812 67.15625 134.582031 C 69.871094 134.007812 72.816406 132.933594 75.59375 131.027344 C 75.59375 131.027344 72.867188 131.5 71.214844 131.316406 C 71.214844 131.316406 77.128906 129.292969 78.730469 123.566406 C 78.730469 123.566406 78.609375 126.109375 77.800781 128.417969 C 82.71875 124.257812 82.71875 120.835938 83.898438 114.824219 Z M 83.898438 114.824219 " fill-opacity="1" fill-rule="evenodd"/></g><g clip-path="url(#902b74e7dc)"><path fill="#fad39b" d="M 85.835938 39.878906 C 90.234375 34.335938 94.257812 32.835938 97.222656 40.992188 C 102.089844 25.410156 77.769531 31.996094 85.835938 39.878906 Z M 37.089844 40.992188 C 40.070312 32.835938 44.082031 34.335938 48.476562 39.878906 C 58.011719 32.484375 32.003906 24.699219 37.089844 40.992188 Z M 67.15625 46.667969 C 67.15625 46.667969 66.5 46.433594 65.539062 45.625 C 63.265625 44.394531 58.464844 42.507812 50.160156 42.238281 C 49.808594 42.21875 49.453125 42.21875 49.117188 42.203125 C 47.535156 42.289062 44.519531 42.960938 42.886719 46.667969 C 42.886719 46.667969 49.757812 47.121094 51.914062 49.734375 C 51.914062 49.734375 43.105469 48.152344 40.324219 51.433594 C 37.546875 54.734375 37.714844 57.632812 37.714844 57.632812 C 37.714844 57.632812 38.792969 60.246094 42.144531 60.867188 C 42.144531 60.867188 44.820312 57.0625 47.097656 57.011719 C 49.351562 56.941406 50.5 60.027344 53.226562 60.867188 C 55.957031 61.726562 60.722656 60.867188 60.722656 60.867188 C 60.722656 60.867188 60.386719 63.191406 57.253906 64.289062 C 54.136719 65.367188 53.277344 69.558594 53.277344 69.558594 C 53.277344 69.558594 52.535156 65.871094 53.511719 64.625 C 53.511719 64.625 49.472656 64.84375 47.265625 63.3125 C 45.042969 61.777344 42.480469 61.558594 40.324219 64.742188 C 38.167969 67.910156 38 71.617188 40.664062 73.601562 C 43.339844 75.589844 48.796875 78.707031 48.796875 78.707031 C 48.796875 78.707031 46.574219 76.550781 46.472656 74.511719 C 46.472656 74.511719 49.082031 74.800781 49.925781 77.410156 C 50.785156 80.023438 49.082031 81.21875 48.226562 82.515625 C 47.367188 83.828125 46.472656 92.773438 52.992188 95.992188 C 59.527344 99.191406 57.117188 94.375 61.09375 92.605469 C 65.070312 90.835938 65.070312 87.148438 63.703125 84.082031 C 62.339844 81.015625 58.246094 78.992188 57.320312 76.785156 C 56.378906 74.5625 58.53125 75.386719 60.4375 76.5 C 62.105469 77.460938 61.414062 78.167969 67.15625 78.859375 C 72.917969 78.167969 72.210938 77.460938 73.878906 76.5 C 75.78125 75.386719 77.9375 74.5625 76.992188 76.785156 C 76.066406 78.992188 71.972656 81.015625 70.609375 84.082031 C 69.246094 87.148438 69.246094 90.835938 73.21875 92.605469 C 77.195312 94.375 74.785156 99.191406 81.324219 95.992188 C 87.859375 92.773438 86.949219 83.828125 86.089844 82.515625 C 85.246094 81.21875 83.527344 80.023438 84.386719 77.410156 C 85.246094 74.800781 87.859375 74.511719 87.859375 74.511719 C 87.738281 76.550781 85.515625 78.707031 85.515625 78.707031 C 85.515625 78.707031 90.972656 75.589844 93.652344 73.601562 C 96.3125 71.617188 96.144531 67.910156 93.988281 64.742188 C 91.832031 61.558594 89.273438 61.777344 87.050781 63.3125 C 84.84375 64.84375 80.800781 64.625 80.800781 64.625 C 81.777344 65.871094 81.035156 69.558594 81.035156 69.558594 C 81.035156 69.558594 80.175781 65.367188 77.0625 64.289062 C 73.929688 63.191406 73.589844 60.867188 73.589844 60.867188 C 73.589844 60.867188 78.359375 61.726562 81.085938 60.867188 C 83.816406 60.027344 84.960938 56.941406 87.234375 57.011719 C 89.507812 57.0625 92.171875 60.867188 92.171875 60.867188 C 95.519531 60.246094 96.601562 57.632812 96.601562 57.632812 C 96.601562 57.632812 96.769531 54.734375 93.988281 51.433594 C 91.210938 48.152344 82.398438 49.734375 82.398438 49.734375 C 84.554688 47.121094 91.429688 46.667969 91.429688 46.667969 C 89.8125 42.960938 86.777344 42.289062 85.195312 42.203125 C 84.859375 42.21875 84.507812 42.21875 84.167969 42.238281 C 75.847656 42.507812 71.046875 44.394531 68.789062 45.625 C 67.8125 46.433594 67.15625 46.667969 67.15625 46.667969 Z M 67.15625 46.667969 " fill-opacity="1" fill-rule="evenodd"/></g><path fill="#fad39b" d="M 67.15625 106.230469 C 65.726562 106.132812 63.6875 106.351562 62.441406 108.070312 C 60.351562 110.933594 58.332031 113.070312 55.316406 111.554688 C 55.316406 111.554688 55.789062 119.203125 60.4375 121.542969 C 60.4375 121.542969 59.273438 118.394531 59.578125 116.136719 C 59.578125 116.136719 59.339844 120.347656 67.15625 122.992188 C 74.972656 120.347656 74.734375 116.136719 74.734375 116.136719 C 75.054688 118.394531 73.878906 121.542969 73.878906 121.542969 C 78.542969 119.203125 79 111.554688 79 111.554688 C 75.984375 113.070312 73.960938 110.933594 71.871094 108.070312 C 70.625 106.351562 68.589844 106.132812 67.15625 106.230469 Z M 67.15625 106.230469 " fill-opacity="1" fill-rule="evenodd"/><path fill="#fefefe" d="M 55.046875 62.636719 C 55.046875 62.636719 51.945312 62.265625 48.933594 59.488281 C 48.933594 59.488281 48.425781 61.222656 49.960938 62.636719 C 51.492188 64.050781 54.542969 63.597656 55.046875 62.636719 Z M 55.046875 62.636719 " fill-opacity="1" fill-rule="evenodd"/><path fill="#d19f0f" d="M 46.472656 74.511719 C 46.472656 74.511719 49.082031 74.800781 49.925781 77.410156 C 50.785156 80.019531 49.082031 81.21875 48.226562 82.515625 C 47.367188 83.828125 46.472656 92.773438 52.992188 95.992188 C 59.527344 99.191406 57.117188 94.375 61.09375 92.605469 C 65.070312 90.835938 65.070312 87.148438 63.703125 84.082031 C 63.519531 83.675781 63.300781 83.289062 63.03125 82.902344 C 63.03125 82.902344 64.730469 85.75 59.679688 89.320312 C 54.625 92.910156 50.867188 88.292969 49.792969 84.890625 C 48.695312 81.488281 52.925781 81.539062 52.519531 75.859375 C 52.132812 70.167969 46.960938 70.066406 46.960938 70.066406 C 47.820312 70.6875 48.105469 72.777344 48.105469 72.777344 C 47.347656 71.917969 44.972656 71.53125 42.429688 70.671875 C 39.871094 69.8125 39.820312 65.566406 39.820312 65.566406 C 38.167969 68.53125 38.21875 71.785156 40.660156 73.601562 C 43.339844 75.589844 48.796875 78.707031 48.796875 78.707031 C 48.796875 78.707031 46.574219 76.550781 46.472656 74.511719 Z M 46.472656 74.511719 " fill-opacity="1" fill-rule="evenodd"/><path fill="#d19f0f" d="M 37.714844 57.632812 C 37.714844 57.632812 38.792969 60.246094 42.144531 60.867188 C 42.144531 60.867188 44.820312 57.0625 47.097656 57.011719 C 49.351562 56.941406 50.5 60.027344 53.226562 60.867188 C 55.957031 61.726562 60.722656 60.867188 60.722656 60.867188 C 60.722656 60.867188 60.722656 60.882812 60.722656 60.917969 C 61.75 59.320312 61.851562 57.632812 61.851562 57.632812 C 56.546875 59.957031 52.875 57.144531 47.820312 53.84375 C 42.765625 50.558594 37.714844 57.632812 37.714844 57.632812 Z M 37.714844 57.632812 " fill-opacity="1" fill-rule="evenodd"/><path fill="#d19f0f" d="M 87.859375 74.511719 C 87.859375 74.511719 85.246094 74.800781 84.386719 77.410156 C 83.527344 80.019531 85.246094 81.21875 86.089844 82.515625 C 86.949219 83.828125 87.859375 92.773438 81.324219 95.992188 C 74.785156 99.191406 77.195312 94.375 73.21875 92.605469 C 69.246094 90.835938 69.246094 87.148438 70.609375 84.082031 C 70.796875 83.675781 71.015625 83.289062 71.285156 82.902344 C 71.285156 82.902344 69.582031 85.75 74.636719 89.320312 C 79.6875 92.910156 83.445312 88.292969 84.539062 84.890625 C 85.617188 81.488281 81.390625 81.539062 81.792969 75.859375 C 82.199219 70.167969 87.371094 70.066406 87.371094 70.066406 C 86.492188 70.6875 86.207031 72.777344 86.207031 72.777344 C 86.964844 71.917969 89.339844 71.53125 91.902344 70.671875 C 94.445312 69.8125 94.492188 65.566406 94.492188 65.566406 C 96.160156 68.53125 96.09375 71.785156 93.652344 73.601562 C 90.972656 75.589844 85.515625 78.707031 85.515625 78.707031 C 85.515625 78.707031 87.738281 76.550781 87.859375 74.511719 Z M 87.859375 74.511719 " fill-opacity="1" fill-rule="evenodd"/><path fill="#d19f0f" d="M 96.601562 57.632812 C 96.601562 57.632812 95.519531 60.246094 92.171875 60.867188 C 92.171875 60.867188 89.507812 57.0625 87.234375 57.011719 C 84.960938 56.941406 83.816406 60.027344 81.085938 60.867188 C 78.359375 61.726562 73.589844 60.867188 73.589844 60.867188 C 73.589844 60.867188 73.589844 60.882812 73.609375 60.917969 C 72.5625 59.320312 72.460938 57.632812 72.460938 57.632812 C 77.769531 59.957031 81.441406 57.144531 86.492188 53.84375 C 91.546875 50.558594 96.601562 57.632812 96.601562 57.632812 Z M 96.601562 57.632812 " fill-opacity="1" fill-rule="evenodd"/><path fill="#d19f0f" d="M 64.75 114.605469 C 63.316406 118.917969 67.15625 122.992188 67.15625 122.992188 C 74.972656 120.347656 74.734375 116.136719 74.734375 116.136719 C 75.054688 118.394531 73.878906 121.542969 73.878906 121.542969 C 77.550781 119.691406 78.628906 114.554688 78.914062 112.464844 C 78.390625 114.839844 76.015625 116.492188 76.015625 116.492188 C 75.847656 114.148438 73.792969 112.769531 73.792969 112.769531 C 74.246094 114.488281 72.125 117.234375 72.242188 114.605469 C 72.34375 111.960938 69.648438 110.191406 67.847656 110.964844 C 66.027344 111.722656 67.15625 117.234375 67.15625 117.234375 C 65.894531 116.792969 64.75 114.605469 64.75 114.605469 Z M 64.75 114.605469 " fill-opacity="1" fill-rule="evenodd"/><path fill="#fefefe" d="M 58.484375 98.078125 C 58.484375 98.078125 58.785156 99.847656 60.066406 101.195312 C 60.066406 101.195312 61.007812 99.78125 61.480469 98.347656 C 61.96875 96.933594 62.238281 97.574219 62.625 97.320312 C 63.011719 97.070312 67.15625 97.320312 67.15625 97.320312 C 67.15625 97.320312 71.300781 97.070312 71.6875 97.320312 C 72.074219 97.574219 72.363281 96.933594 72.832031 98.347656 C 73.320312 99.78125 74.265625 101.195312 74.265625 101.195312 C 75.527344 99.847656 75.832031 98.078125 75.832031 98.078125 C 74.113281 96.277344 73.929688 95.0625 73.472656 94.59375 C 73.035156 94.136719 71.234375 93.867188 69.769531 93.9375 C 66.886719 94.085938 67.425781 94.085938 64.5625 93.9375 C 63.097656 93.867188 61.277344 94.136719 60.839844 94.59375 C 60.386719 95.0625 60.199219 96.277344 58.484375 98.078125 Z M 58.484375 98.078125 " fill-opacity="1" fill-rule="evenodd"/><path fill="#fefefe" d="M 58.972656 108.253906 C 58.972656 108.253906 57.875 106.621094 58.972656 103.097656 C 58.972656 103.097656 60.097656 103.992188 60.4375 104.785156 C 60.757812 105.59375 62.289062 104.800781 62.691406 104.160156 C 63.097656 103.503906 66.28125 103.417969 67.15625 103.488281 C 68.03125 103.417969 71.234375 103.503906 71.621094 104.160156 C 72.023438 104.800781 73.558594 105.59375 73.894531 104.785156 C 74.214844 103.992188 75.34375 103.097656 75.34375 103.097656 C 76.4375 106.621094 75.34375 108.253906 75.34375 108.253906 C 74.652344 108.691406 73.339844 107.546875 72.582031 106.722656 C 70.878906 104.886719 69.96875 104.835938 67.15625 104.816406 C 64.34375 104.835938 63.433594 104.886719 61.75 106.722656 C 60.976562 107.546875 59.660156 108.691406 58.972656 108.253906 Z M 58.972656 108.253906 " fill-opacity="1" fill-rule="evenodd"/><path fill="#d19f0f" d="M 67.15625 29.417969 C 67.15625 29.417969 70.425781 25.070312 74.449219 24.988281 C 74.449219 24.988281 71.804688 27.378906 71.300781 29.636719 C 71.300781 29.636719 73.320312 26.503906 76.132812 25.492188 C 78.949219 24.484375 83.816406 26.523438 85.464844 29.402344 C 85.464844 29.402344 75.746094 30.511719 73.386719 37.640625 C 73.386719 37.640625 73.371094 32.570312 76.304688 29.335938 C 76.304688 29.335938 73.054688 28.726562 71.402344 34.996094 C 69.734375 41.261719 68.300781 41.292969 67.15625 41.292969 C 66.011719 41.292969 64.578125 41.261719 62.929688 34.996094 C 61.261719 28.726562 58.011719 29.335938 58.011719 29.335938 C 60.941406 32.570312 60.925781 37.640625 60.925781 37.640625 C 58.582031 30.511719 48.847656 29.402344 48.847656 29.402344 C 50.5 26.523438 55.367188 24.484375 58.179688 25.492188 C 61.007812 26.503906 63.011719 29.636719 63.011719 29.636719 C 62.523438 27.378906 59.878906 24.988281 59.878906 24.988281 C 63.890625 25.070312 67.15625 29.417969 67.15625 29.417969 Z M 67.15625 29.417969 " fill-opacity="1" fill-rule="evenodd"/><g clip-path="url(#1868613055)"><path fill="#c49306" d="M 103.84375 48.738281 C 103.84375 48.738281 114.539062 51.601562 119.035156 68.972656 C 119.035156 68.972656 116.578125 66.410156 112.703125 64.488281 C 112.703125 64.488281 121.058594 72.792969 119.035156 88.207031 C 116.996094 103.605469 109.332031 112.484375 109.332031 112.484375 C 109.332031 112.484375 110.191406 99.308594 107.007812 92.25 C 107.007812 92.25 106.199219 108.707031 89.003906 120.515625 C 89.003906 120.515625 97.375 101.195312 94.78125 88.207031 C 94.78125 88.207031 99.277344 93.09375 99.414062 98.027344 C 99.414062 98.027344 102.765625 86.136719 100.726562 76.636719 C 100.726562 76.636719 108.960938 80.914062 111.136719 86.589844 C 111.136719 86.589844 113.8125 71.953125 103.40625 58.660156 C 103.40625 58.660156 108.761719 58.964844 111.726562 60.765625 C 110.648438 55.949219 107.464844 51.65625 103.84375 48.738281 Z M 103.84375 48.738281 " fill-opacity="1" fill-rule="evenodd"/></g><path fill="#c49306" d="M 30.488281 48.738281 C 30.488281 48.738281 19.777344 51.601562 15.296875 68.972656 C 15.296875 68.972656 17.753906 66.410156 21.613281 64.488281 C 21.613281 64.488281 13.257812 72.792969 15.296875 88.207031 C 17.316406 103.605469 24.980469 112.484375 24.980469 112.484375 C 24.980469 112.484375 24.121094 99.308594 27.304688 92.25 C 27.304688 92.25 28.113281 108.707031 45.3125 120.515625 C 45.3125 120.515625 36.9375 101.195312 39.535156 88.207031 C 39.535156 88.207031 35.035156 93.09375 34.902344 98.027344 C 34.902344 98.027344 31.550781 86.136719 33.605469 76.636719 C 33.605469 76.636719 25.351562 80.914062 23.175781 86.589844 C 23.175781 86.589844 20.5 71.953125 30.925781 58.660156 C 30.925781 58.660156 25.570312 58.964844 22.605469 60.765625 C 23.667969 55.949219 26.851562 51.65625 30.488281 48.738281 Z M 30.488281 48.738281 " fill-opacity="1" fill-rule="evenodd"/><path fill="#d6d4d1" d="M 62.421875 97.386719 C 61.953125 96.96875 62.105469 95.25 61.734375 95.265625 C 61.363281 95.28125 60.824219 95.972656 60.890625 97.253906 C 60.941406 98.535156 60.066406 101.195312 60.066406 101.195312 C 60.066406 101.195312 61.007812 99.78125 61.480469 98.347656 C 61.867188 97.1875 62.136719 97.40625 62.421875 97.386719 Z M 62.421875 97.386719 " fill-opacity="1" fill-rule="evenodd"/><path fill="#d6d4d1" d="M 71.890625 97.386719 C 72.363281 96.96875 72.210938 95.25 72.582031 95.265625 C 72.949219 95.28125 73.488281 95.972656 73.4375 97.253906 C 73.371094 98.535156 74.265625 101.195312 74.265625 101.195312 C 74.265625 101.195312 73.320312 99.78125 72.832031 98.347656 C 72.445312 97.1875 72.191406 97.40625 71.890625 97.386719 Z M 71.890625 97.386719 " fill-opacity="1" fill-rule="evenodd"/><path fill="#013333" d="M 49.925781 59.6875 C 49.925781 59.6875 49.910156 61.558594 51.425781 62.230469 C 52.941406 62.890625 54.324219 61.675781 54.324219 61.675781 C 54.324219 61.675781 53.160156 61.761719 49.925781 59.6875 Z M 49.925781 59.6875 " fill-opacity="1" fill-rule="evenodd"/><path fill="#013333" d="M 84.269531 59.6875 C 84.269531 59.6875 84.285156 61.558594 82.769531 62.230469 C 81.238281 62.890625 79.875 61.675781 79.875 61.675781 C 79.875 61.675781 81.035156 61.761719 84.269531 59.6875 Z M 84.269531 59.6875 " fill-opacity="1" fill-rule="evenodd"/><path fill="#d19f0f" d="M 42.886719 46.667969 C 42.886719 46.667969 49.757812 47.121094 51.914062 49.734375 C 51.914062 49.734375 54.761719 51.453125 56.898438 51.703125 C 56.898438 51.703125 56.511719 47.070312 52.117188 45.554688 C 47.734375 44.023438 45.414062 43.398438 43.796875 45.050781 C 43.457031 45.523438 43.15625 46.042969 42.886719 46.667969 Z M 42.886719 46.667969 " fill-opacity="1" fill-rule="evenodd"/><path fill="#d19f0f" d="M 91.429688 46.667969 C 91.429688 46.667969 84.554688 47.121094 82.398438 49.734375 C 82.398438 49.734375 79.554688 51.453125 77.414062 51.703125 C 77.414062 51.703125 77.800781 47.070312 82.199219 45.554688 C 86.59375 44.023438 88.902344 43.398438 90.519531 45.050781 C 90.855469 45.523438 91.160156 46.042969 91.429688 46.667969 Z M 91.429688 46.667969 " fill-opacity="1" fill-rule="evenodd"/><g clip-path="url(#03674465fa)"><path fill="#916916" d="M 99.414062 98.027344 C 99.277344 93.09375 94.78125 88.207031 94.78125 88.207031 C 97.375 101.195312 89.003906 120.515625 89.003906 120.515625 C 89.003906 120.515625 97.003906 107.125 97.441406 100.523438 C 97.441406 100.523438 99.042969 102.8125 98.890625 105.574219 C 98.890625 105.574219 107.496094 90.9375 100.726562 76.636719 C 102.765625 86.136719 99.414062 98.027344 99.414062 98.027344 Z M 99.414062 98.027344 " fill-opacity="1" fill-rule="evenodd"/></g><path fill="#916916" d="M 34.902344 98.027344 C 35.035156 93.09375 39.535156 88.207031 39.535156 88.207031 C 36.9375 101.195312 45.3125 120.515625 45.3125 120.515625 C 45.3125 120.515625 37.308594 107.125 36.871094 100.523438 C 36.871094 100.523438 35.273438 102.8125 35.425781 105.574219 C 35.425781 105.574219 26.832031 90.9375 33.605469 76.636719 C 31.550781 86.136719 34.902344 98.027344 34.902344 98.027344 Z M 34.902344 98.027344 " fill-opacity="1" fill-rule="evenodd"/><path fill="#916916" d="M 20.71875 92.957031 C 20.71875 92.957031 13.914062 73.046875 30.925781 58.660156 C 20.5 71.953125 23.179688 86.589844 23.179688 86.589844 C 23.179688 86.589844 21.003906 89.421875 20.71875 92.957031 Z M 20.71875 92.957031 " fill-opacity="1" fill-rule="evenodd"/><path fill="#d19f0f" d="M 50.160156 38.007812 C 49.351562 36.511719 47.347656 33.796875 43.375 33.542969 C 37.847656 33.207031 37.089844 40.992188 37.089844 40.992188 C 40.070312 32.835938 44.082031 34.335938 48.476562 39.878906 C 49.285156 39.257812 49.824219 38.632812 50.160156 38.007812 Z M 50.160156 38.007812 " fill-opacity="1" fill-rule="evenodd"/><g clip-path="url(#381a3b25e5)"><path fill="#d19f0f" d="M 84.355469 37.65625 C 85.164062 36.140625 86.964844 33.796875 90.941406 33.542969 C 96.480469 33.207031 97.222656 40.992188 97.222656 40.992188 C 94.257812 32.835938 90.234375 34.335938 85.835938 39.878906 C 85.042969 39.257812 84.609375 38.394531 84.355469 37.65625 Z M 84.355469 37.65625 " fill-opacity="1" fill-rule="evenodd"/></g></svg>