<svg xmlns="http://www.w3.org/2000/svg" xmlns:xlink="http://www.w3.org/1999/xlink" width="130" zoomAndPan="magnify" viewBox="0 0 97.5 131.999998" height="176" preserveAspectRatio="xMidYMid meet" version="1.0"><defs><clipPath id="2adb5bafce"><path d="M 3 43 L 97.003906 43 L 97.003906 131.664062 L 3 131.664062 Z M 3 43 " clip-rule="nonzero"/></clipPath><clipPath id="dd938f42fd"><path d="M 0 41.222656 L 97.003906 41.222656 L 97.003906 131.664062 L 0 131.664062 Z M 0 41.222656 " clip-rule="nonzero"/></clipPath><clipPath id="6b7bfc76fe"><path d="M 29 13.191406 L 97.003906 13.191406 L 97.003906 131.664062 L 29 131.664062 Z M 29 13.191406 " clip-rule="nonzero"/></clipPath><clipPath id="da2ebec435"><path d="M 33 70 L 97.003906 70 L 97.003906 128 L 33 128 Z M 33 70 " clip-rule="nonzero"/></clipPath><clipPath id="ff5270150d"><path d="M 33 70 L 97.003906 70 L 97.003906 125 L 33 125 Z M 33 70 " clip-rule="nonzero"/></clipPath><clipPath id="1096263f0b"><path d="M 35 17 L 96 17 L 96 131.664062 L 35 131.664062 Z M 35 17 " clip-rule="nonzero"/></clipPath><clipPath id="26f6ba32d0"><path d="M 35 16 L 97.003906 16 L 97.003906 131.664062 L 35 131.664062 Z M 35 16 " clip-rule="nonzero"/></clipPath><clipPath id="59704e3d8b"><path d="M 32 15 L 97.003906 15 L 97.003906 131.664062 L 32 131.664062 Z M 32 15 " clip-rule="nonzero"/></clipPath></defs><g clip-path="url(#2adb5bafce)"><path fill="#dbaf5a" d="M 67.214844 43.640625 C 45.667969 43.640625 24.765625 46.375 4.824219 51.484375 C 3.589844 51.800781 2.8125 53.023438 3.050781 54.269531 C 12.023438 100.835938 34.054688 142.785156 65.203125 176.191406 C 66.167969 177.226562 67.808594 177.230469 68.777344 176.199219 C 100.058594 142.820312 122.207031 100.855469 131.285156 54.246094 C 131.527344 53 130.75 51.773438 129.507812 51.457031 C 109.59375 46.363281 88.722656 43.640625 67.214844 43.640625 Z M 67.214844 43.640625 " fill-opacity="1" fill-rule="nonzero"/></g><g clip-path="url(#dd938f42fd)"><path fill="#96261a" d="M 132.332031 49.691406 C 133.554688 50.015625 134.324219 51.226562 134.097656 52.46875 C 125.226562 100.332031 102.632812 144.351562 68.746094 179.753906 C 67.785156 180.753906 66.179688 180.753906 65.222656 179.746094 C 31.472656 144.296875 9.003906 100.292969 0.238281 52.488281 C 0.0117188 51.246094 0.78125 50.039062 2.003906 49.714844 C 23.207031 44.078125 45.148438 41.222656 67.214844 41.222656 C 89.246094 41.222656 111.15625 44.070312 132.332031 49.691406 Z M 68.796875 172.609375 C 99.011719 139.6875 119.539062 99.585938 128.441406 56.074219 C 128.699219 54.796875 127.90625 53.542969 126.632812 53.230469 C 107.253906 48.472656 87.285156 46.058594 67.214844 46.058594 C 47.105469 46.058594 27.109375 48.476562 7.695312 53.253906 C 6.425781 53.566406 5.628906 54.816406 5.886719 56.09375 C 14.691406 99.550781 35.101562 139.640625 65.191406 172.601562 C 66.15625 173.660156 67.828125 173.664062 68.796875 172.609375 Z M 68.796875 172.609375 " fill-opacity="1" fill-rule="nonzero"/></g><g clip-path="url(#6b7bfc76fe)"><path fill="#bf1d1d" d="M 102.75 98.097656 C 101.546875 101.324219 98.089844 108.742188 91.253906 110.585938 C 91.175781 112.523438 91.140625 114.304688 91.148438 115.894531 C 94.339844 124.898438 93.261719 136.957031 93.128906 138.316406 L 92.953125 140.023438 L 91.5 140.921875 C 89.941406 141.890625 88.015625 142.738281 85.78125 143.441406 L 82.59375 144.4375 L 77.679688 145.203125 C 72.070312 146.007812 67.144531 146.019531 67.097656 146.019531 C 67.046875 146.019531 62.261719 146.007812 56.75 145.234375 L 52.324219 144.460938 C 48.324219 143.601562 45.082031 142.410156 42.679688 140.921875 L 41.230469 140.015625 L 41.058594 138.324219 C 41.003906 137.792969 39.726562 125.230469 43.039062 115.886719 C 43.046875 114.269531 43.011719 112.488281 42.929688 110.570312 C 36.125 108.699219 32.683594 101.304688 31.484375 98.09375 C 29.828125 93.652344 28.011719 85.316406 31.660156 82.066406 C 31.246094 79.59375 31.882812 77.765625 32.492188 76.667969 C 30.636719 65.101562 34.277344 59.671875 36.253906 57.65625 C 37.960938 52.085938 42.445312 49.886719 44.710938 49.109375 C 45.617188 48.023438 46.707031 47.054688 47.953125 46.226562 C 48.464844 45.886719 49.011719 45.5625 49.582031 45.265625 L 48.835938 43.210938 C 47.378906 42.25 46.445312 40.832031 46.191406 39.160156 C 45.988281 37.8125 46.25 36.46875 46.921875 35.304688 C 45.226562 31.753906 42.820312 29.28125 42.792969 29.253906 L 37.878906 24.34375 L 44.78125 23.375 C 45.25 23.308594 45.714844 23.265625 46.171875 23.246094 C 46.445312 21.457031 48.070312 19.734375 51.75 17.222656 C 53.179688 16.246094 56.785156 13.910156 59.320312 13.363281 C 59.84375 13.25 60.382812 13.191406 60.925781 13.191406 C 63 13.191406 64.839844 14.011719 66.167969 14.835938 C 66.785156 14.644531 67.425781 14.550781 68.085938 14.550781 C 68.878906 14.550781 69.667969 14.683594 70.429688 14.957031 C 73.507812 13.902344 75.769531 13.34375 77.148438 13.289062 C 77.210938 13.285156 77.273438 13.285156 77.335938 13.285156 C 79.945312 13.285156 82.019531 15.3125 83.207031 19.011719 C 84.402344 19.703125 85.925781 20.878906 87.246094 22.832031 C 88.890625 25.253906 88.609375 29.296875 86.417969 34.851562 C 87.304688 36.117188 87.679688 37.644531 87.449219 39.164062 C 87.199219 40.835938 86.265625 42.257812 84.804688 43.21875 L 84.140625 45.042969 C 86.292969 46.085938 88.082031 47.453125 89.46875 49.113281 C 91.734375 49.890625 96.21875 52.089844 97.929688 57.664062 C 99.902344 59.675781 103.546875 65.105469 101.691406 76.675781 C 102.367188 77.882812 102.921875 79.664062 102.527344 82.03125 C 106.242188 85.246094 104.414062 93.636719 102.75 98.097656 Z M 102.75 98.097656 " fill-opacity="1" fill-rule="nonzero"/></g><g clip-path="url(#da2ebec435)"><path fill="#ee3b3e" d="M 89.324219 99.832031 L 89.324219 76.425781 C 88.152344 75.976562 86.492188 75.464844 84.292969 75.085938 L 83.097656 74.882812 L 85.761719 71.722656 C 83.296875 71.859375 78.503906 72.238281 75.664062 73.246094 L 74.214844 73.757812 L 74.789062 72.335938 C 74.804688 72.289062 75.082031 71.613281 75.539062 70.8125 C 73.570312 71.433594 70.359375 72.613281 67.464844 74.449219 L 67.089844 74.6875 L 66.71875 74.449219 C 63.820312 72.613281 60.609375 71.433594 58.640625 70.8125 C 59.101562 71.613281 59.375 72.289062 59.390625 72.335938 L 59.960938 73.757812 L 58.511719 73.246094 C 55.671875 72.234375 50.882812 71.855469 48.417969 71.722656 L 51.078125 74.882812 L 49.886719 75.085938 C 47.679688 75.464844 46.015625 75.976562 44.84375 76.433594 L 44.84375 99.835938 C 44.992188 100.074219 45.140625 100.304688 45.285156 100.539062 C 45.722656 101.253906 46.144531 101.972656 46.566406 102.695312 C 46.570312 102.699219 46.570312 102.707031 46.578125 102.714844 C 47.164062 103.742188 47.726562 104.78125 48.269531 105.832031 C 49.355469 107.945312 50.34375 110.117188 51.132812 112.347656 C 50.128906 110.199219 48.941406 108.15625 47.667969 106.175781 C 47.367188 105.710938 47.058594 105.246094 46.746094 104.78125 C 46.988281 107.917969 47.242188 112.289062 47.199219 116.371094 C 47.523438 117.078125 49.34375 120.765625 53.128906 122.824219 C 52.828125 121.824219 52.515625 120.351562 52.382812 118.367188 L 52.238281 116.234375 L 53.613281 117.875 C 53.652344 117.921875 57.105469 122.050781 60.253906 124.402344 C 60.148438 123.773438 60.082031 123.027344 60.136719 122.253906 L 60.265625 120.445312 L 61.378906 121.878906 C 61.414062 121.921875 64.660156 126.070312 67.085938 127.449219 C 69.515625 126.070312 72.761719 121.921875 72.792969 121.878906 L 73.90625 120.445312 L 74.035156 122.253906 C 74.089844 123.027344 74.019531 123.773438 73.917969 124.402344 C 77.066406 122.050781 80.519531 117.921875 80.558594 117.875 L 81.929688 116.234375 L 81.785156 118.367188 C 81.65625 120.351562 81.339844 121.824219 81.042969 122.824219 C 84.824219 120.761719 86.644531 117.078125 86.972656 116.371094 C 86.929688 112.28125 87.183594 107.902344 87.425781 104.765625 C 87.109375 105.230469 86.796875 105.703125 86.492188 106.175781 C 85.210938 108.15625 84.027344 110.199219 83.027344 112.347656 C 83.816406 110.113281 84.800781 107.945312 85.886719 105.832031 C 86.433594 104.773438 87.003906 103.726562 87.59375 102.695312 C 87.59375 102.695312 87.59375 102.695312 87.59375 102.691406 C 88.011719 101.964844 88.433594 101.253906 88.875 100.539062 C 89.027344 100.304688 89.171875 100.070312 89.324219 99.832031 Z M 68.796875 85.824219 C 68.894531 85.109375 69.0625 84.40625 69.300781 83.730469 C 69.539062 83.058594 69.832031 82.402344 70.191406 81.78125 C 70.554688 81.164062 70.96875 80.570312 71.5 80.066406 C 71.34375 80.78125 71.148438 81.445312 70.9375 82.113281 C 70.726562 82.773438 70.511719 83.425781 70.285156 84.074219 L 69.597656 86.015625 C 69.347656 86.664062 69.132812 87.316406 68.824219 87.984375 C 68.699219 87.269531 68.703125 86.539062 68.796875 85.824219 Z M 65.753906 95.230469 C 66.199219 95.210938 66.644531 95.199219 67.089844 95.199219 C 67.539062 95.199219 67.984375 95.210938 68.429688 95.230469 L 68.722656 95.242188 L 68.882812 95.410156 C 69.390625 95.929688 69.882812 96.476562 70.34375 97.050781 C 70.578125 97.332031 70.796875 97.628906 71.015625 97.933594 C 71.234375 98.230469 71.4375 98.546875 71.625 98.875 C 71.28125 98.707031 70.953125 98.527344 70.640625 98.328125 C 70.324219 98.136719 70.015625 97.933594 69.714844 97.722656 C 69.191406 97.355469 68.691406 96.964844 68.207031 96.558594 C 67.835938 96.574219 67.460938 96.585938 67.089844 96.585938 C 66.722656 96.585938 66.347656 96.574219 65.980469 96.558594 C 65.492188 96.964844 64.996094 97.359375 64.472656 97.722656 C 64.171875 97.933594 63.863281 98.140625 63.546875 98.328125 C 63.230469 98.527344 62.902344 98.707031 62.558594 98.875 C 62.75 98.546875 62.953125 98.230469 63.167969 97.933594 C 63.378906 97.625 63.605469 97.335938 63.835938 97.046875 C 64.296875 96.472656 64.789062 95.933594 65.296875 95.40625 L 65.460938 95.238281 Z M 71.011719 104.421875 C 70.757812 104.695312 70.511719 104.886719 70.269531 105.0625 C 70.03125 105.234375 69.792969 105.382812 69.558594 105.523438 C 69.316406 105.660156 69.089844 105.789062 68.835938 105.914062 C 68.574219 106.042969 68.324219 106.179688 67.972656 106.324219 C 67.953125 105.953125 68.078125 105.605469 68.277344 105.316406 C 68.476562 105.03125 68.738281 104.792969 69.035156 104.625 C 69.328125 104.453125 69.648438 104.34375 69.980469 104.296875 C 70.320312 104.257812 70.667969 104.269531 71.011719 104.421875 Z M 66.207031 106.324219 C 65.855469 106.179688 65.601562 106.042969 65.347656 105.914062 C 65.09375 105.789062 64.859375 105.660156 64.625 105.523438 C 64.382812 105.382812 64.148438 105.238281 63.910156 105.0625 C 63.667969 104.882812 63.429688 104.695312 63.167969 104.421875 C 63.515625 104.269531 63.863281 104.257812 64.195312 104.296875 C 64.53125 104.34375 64.847656 104.453125 65.144531 104.625 C 65.441406 104.792969 65.699219 105.03125 65.902344 105.316406 C 66.105469 105.605469 66.230469 105.953125 66.207031 106.324219 Z M 63.992188 81.78125 C 64.351562 82.402344 64.644531 83.058594 64.882812 83.730469 C 65.121094 84.40625 65.289062 85.109375 65.382812 85.824219 C 65.480469 86.539062 65.484375 87.269531 65.355469 87.988281 C 65.054688 87.316406 64.835938 86.664062 64.585938 86.015625 L 63.898438 84.078125 C 63.671875 83.429688 63.453125 82.773438 63.246094 82.117188 C 63.039062 81.453125 62.835938 80.78125 62.683594 80.066406 C 63.214844 80.570312 63.628906 81.167969 63.992188 81.78125 Z M 50.535156 94.613281 L 49.941406 94.617188 L 48.769531 87.429688 C 48.375 87.230469 47.980469 87.027344 47.585938 86.808594 C 47.9375 86.878906 48.285156 86.949219 48.632812 87.03125 C 48.65625 87.035156 48.683594 87.042969 48.707031 87.046875 C 49.03125 87.121094 49.355469 87.1875 49.667969 87.289062 C 49.839844 87.34375 50.007812 87.390625 50.179688 87.441406 C 50.695312 87.597656 51.207031 87.757812 51.703125 87.953125 C 53.050781 88.4375 54.347656 89.058594 55.601562 89.746094 C 56.855469 90.453125 58.054688 91.246094 59.191406 92.136719 C 60.195312 92.9375 61.148438 93.78125 62.007812 94.777344 C 62.238281 94.617188 62.460938 94.449219 62.679688 94.261719 C 63.03125 93.980469 63.359375 93.65625 63.675781 93.320312 C 64 92.992188 64.292969 92.625 64.574219 92.25 C 64.855469 91.875 65.121094 91.480469 65.355469 91.066406 C 65.261719 91.539062 65.101562 91.996094 64.90625 92.445312 C 64.714844 92.894531 64.480469 93.320312 64.214844 93.738281 C 63.949219 94.148438 63.652344 94.546875 63.320312 94.917969 C 62.992188 95.296875 62.613281 95.621094 62.226562 95.945312 L 61.886719 96.230469 L 61.496094 95.855469 C 61.382812 95.746094 61.273438 95.640625 61.160156 95.53125 C 55.914062 94.59375 50.589844 94.617188 50.535156 94.613281 Z M 67.089844 120.886719 C 64.253906 120.886719 63.171875 118.78125 63.171875 118.78125 L 72.714844 118.277344 C 72.710938 118.277344 69.921875 120.886719 67.089844 120.886719 Z M 76.042969 114.546875 L 58.304688 115.027344 L 57.992188 117.125 L 57.792969 118.476562 L 56.777344 117.367188 C 56.289062 116.71875 55.847656 116.03125 55.507812 115.304688 C 55.164062 114.578125 54.871094 113.832031 54.652344 113.070312 C 54.429688 112.308594 54.257812 111.535156 54.132812 110.761719 C 54.007812 109.976562 53.925781 109.214844 53.910156 108.382812 L 53.890625 107.582031 L 54.695312 107.695312 L 57.453125 108.085938 C 58.371094 108.242188 59.292969 108.378906 60.207031 108.550781 C 62.039062 108.886719 63.867188 109.265625 65.675781 109.703125 C 67.488281 110.148438 69.289062 110.636719 71.0625 111.210938 C 71.953125 111.496094 72.839844 111.796875 73.714844 112.128906 C 74.597656 112.464844 75.449219 112.804688 76.335938 113.230469 L 78.914062 114.464844 Z M 85.410156 87.429688 L 84.238281 94.617188 L 83.644531 94.613281 C 83.601562 94.613281 78.269531 94.59375 73.023438 95.53125 C 72.910156 95.640625 72.800781 95.746094 72.6875 95.855469 L 72.296875 96.230469 L 71.957031 95.945312 C 71.574219 95.621094 71.1875 95.296875 70.863281 94.917969 C 70.53125 94.546875 70.230469 94.148438 69.964844 93.738281 C 69.703125 93.320312 69.46875 92.894531 69.277344 92.445312 C 69.082031 91.996094 68.921875 91.539062 68.824219 91.066406 C 69.0625 91.484375 69.328125 91.875 69.609375 92.25 C 69.890625 92.625 70.183594 92.992188 70.507812 93.320312 C 70.820312 93.65625 71.148438 93.980469 71.503906 94.261719 C 71.71875 94.445312 71.945312 94.617188 72.175781 94.777344 C 73.035156 93.78125 73.988281 92.9375 74.992188 92.136719 C 76.125 91.246094 77.328125 90.453125 78.578125 89.746094 C 79.839844 89.058594 81.136719 88.4375 82.480469 87.953125 C 82.984375 87.757812 83.492188 87.59375 84.003906 87.441406 C 84.175781 87.390625 84.34375 87.34375 84.515625 87.289062 C 84.828125 87.1875 85.152344 87.121094 85.472656 87.046875 C 85.5 87.042969 85.527344 87.035156 85.550781 87.03125 C 85.898438 86.949219 86.25 86.878906 86.59375 86.808594 C 86.203125 87.03125 85.804688 87.230469 85.410156 87.429688 Z M 99.789062 85.164062 C 99.480469 84.902344 99.0625 84.816406 98.574219 84.871094 C 97.964844 84.933594 97.238281 85.21875 96.464844 85.636719 C 94.433594 86.730469 92.089844 88.746094 90.710938 90.144531 L 90.710938 95.574219 C 90.867188 95.359375 91.019531 95.148438 91.179688 94.9375 C 91.800781 94.109375 92.484375 93.320312 93.207031 92.574219 C 93.828125 91.933594 94.488281 91.324219 95.1875 90.761719 C 95.300781 90.675781 95.410156 90.585938 95.527344 90.5 C 95.851562 90.25 96.191406 90.019531 96.550781 89.808594 C 97.085938 89.484375 97.65625 89.207031 98.242188 88.980469 C 97.691406 89.605469 97.132812 90.175781 96.585938 90.753906 C 96.585938 90.984375 96.582031 91.21875 96.574219 91.453125 C 96.554688 92.058594 96.488281 92.652344 96.40625 93.25 C 96.355469 93.542969 96.316406 93.839844 96.257812 94.132812 L 96.074219 95.011719 C 95.917969 95.589844 95.761719 96.167969 95.558594 96.730469 L 95.410156 97.152344 L 95.238281 97.5625 C 95.121094 97.839844 95.011719 98.117188 94.886719 98.386719 C 94.617188 98.921875 94.367188 99.457031 94.039062 99.953125 C 93.433594 100.972656 92.644531 101.875 91.800781 102.6875 C 92.363281 101.652344 92.929688 100.65625 93.363281 99.597656 C 93.828125 98.5625 94.207031 97.492188 94.488281 96.398438 C 94.777344 95.3125 94.972656 94.203125 95.089844 93.085938 C 95.117188 92.824219 95.132812 92.5625 95.148438 92.300781 C 94.8125 92.671875 94.488281 93.046875 94.175781 93.4375 C 93.542969 94.207031 92.9375 94.996094 92.355469 95.800781 C 91.789062 96.585938 91.226562 97.40625 90.710938 98.203125 L 90.710938 100.25 L 90.582031 100.433594 C 90.050781 101.109375 89.523438 101.808594 89.007812 102.515625 C 88.910156 103.609375 88.785156 105.101562 88.675781 106.816406 C 94.574219 106.363281 97.730469 99.609375 98.839844 96.640625 C 100.964844 90.957031 100.824219 86.046875 99.789062 85.164062 Z M 43.59375 100.4375 L 43.460938 100.253906 L 43.460938 98.113281 C 42.96875 97.351562 42.429688 96.5625 41.882812 95.804688 C 41.300781 95 40.695312 94.210938 40.0625 93.445312 C 39.75 93.054688 39.425781 92.675781 39.089844 92.304688 C 39.105469 92.566406 39.121094 92.828125 39.148438 93.089844 C 39.261719 94.203125 39.457031 95.316406 39.75 96.402344 C 40.03125 97.496094 40.410156 98.566406 40.875 99.605469 C 41.308594 100.660156 41.875 101.660156 42.433594 102.695312 C 41.59375 101.882812 40.804688 100.980469 40.199219 99.957031 C 39.871094 99.460938 39.621094 98.921875 39.347656 98.394531 C 39.222656 98.125 39.113281 97.84375 38.996094 97.570312 L 38.828125 97.15625 L 38.675781 96.734375 C 38.476562 96.171875 38.324219 95.597656 38.160156 95.015625 L 37.976562 94.140625 C 37.921875 93.84375 37.878906 93.550781 37.832031 93.253906 C 37.75 92.660156 37.683594 92.0625 37.664062 91.460938 C 37.65625 91.222656 37.652344 90.992188 37.652344 90.757812 C 37.105469 90.179688 36.546875 89.613281 35.996094 88.988281 C 36.582031 89.210938 37.148438 89.492188 37.6875 89.8125 C 38.042969 90.027344 38.382812 90.253906 38.710938 90.503906 C 38.824219 90.589844 38.9375 90.675781 39.046875 90.769531 C 39.746094 91.328125 40.410156 91.9375 41.03125 92.582031 C 41.753906 93.328125 42.433594 94.113281 43.058594 94.941406 C 43.199219 95.125 43.328125 95.308594 43.464844 95.492188 L 43.464844 90.089844 C 42.0625 88.683594 39.71875 86.671875 37.695312 85.605469 C 36.929688 85.199219 36.210938 84.925781 35.609375 84.871094 C 35.605469 84.871094 35.605469 84.871094 35.605469 84.871094 C 35.144531 84.832031 34.746094 84.917969 34.453125 85.171875 C 33.421875 86.054688 33.277344 90.960938 35.394531 96.644531 C 36.503906 99.609375 39.648438 106.332031 45.507812 106.820312 C 45.398438 105.121094 45.277344 103.632812 45.175781 102.542969 C 44.652344 101.820312 44.128906 101.121094 43.59375 100.4375 Z M 43.59375 100.4375 " fill-opacity="1" fill-rule="nonzero"/></g><g clip-path="url(#ff5270150d)"><path fill="#bf1d1d" d="M 68.824219 90.035156 C 68.824219 90.035156 68.039062 87.90625 69.222656 83.96875 C 70.40625 80.027344 73.890625 77.902344 73.890625 77.902344 C 71.941406 81.433594 70.792969 85.246094 70.792969 85.246094 C 71.683594 84.648438 72.574219 84.859375 72.574219 84.859375 C 70.308594 86.742188 68.824219 90.035156 68.824219 90.035156 Z M 61.738281 100.265625 L 65.753906 97.910156 L 63.75 100.265625 C 63.75 100.265625 65.457031 99.585938 67.089844 99.675781 L 67.089844 103.480469 C 67.089844 103.480469 64.371094 103.707031 63.171875 104.421875 L 66.210938 106.324219 C 66.210938 106.324219 67.117188 106.734375 67.980469 106.324219 C 68.84375 105.914062 69.765625 104.839844 69.765625 104.839844 L 71.019531 104.421875 C 71.019531 104.421875 70.953125 103.074219 69.5 101.625 C 69.5 101.625 70.207031 101.796875 71.234375 102.207031 C 71.234375 102.207031 70.960938 100.945312 68.734375 99.539062 C 68.734375 99.539062 70.855469 99.40625 72.714844 100.445312 C 72.714844 100.445312 72.632812 97.84375 68.730469 95.238281 L 66.730469 95.554688 L 65.464844 95.238281 C 65.460938 95.238281 62.28125 97.1875 61.738281 100.265625 Z M 62.078125 95.558594 C 62.078125 95.558594 64.757812 93.164062 65.355469 91.066406 C 65.355469 91.066406 65.96875 88.660156 65.148438 84.601562 C 65.148438 84.601562 64.9375 81.972656 61.128906 77.898438 C 61.128906 77.898438 63.816406 84.960938 63.050781 89.308594 C 63.050781 89.308594 62.625 86.585938 61.46875 84.855469 C 61.46875 84.855469 62.621094 90.546875 61.128906 91.519531 C 61.128906 91.519531 55.601562 87.777344 47.585938 86.808594 C 47.582031 86.808594 57.070312 89.511719 62.078125 95.558594 Z M 61.738281 118.277344 C 61.738281 118.277344 62.558594 121.839844 67.089844 121.839844 C 72.511719 121.839844 75.207031 117.289062 75.207031 117.289062 Z M 100.839844 86.320312 C 100.839844 86.320312 101.179688 83.90625 98.1875 84.027344 C 95.199219 84.144531 90.714844 88.902344 90.714844 88.902344 L 90.714844 95.574219 L 91.9375 94.953125 C 91.9375 94.953125 94.039062 86.046875 100.839844 86.320312 Z M 43.410156 95.574219 L 43.410156 88.902344 C 43.410156 88.902344 38.929688 84.144531 35.9375 84.027344 C 32.945312 83.90625 33.285156 86.320312 33.285156 86.320312 C 40.089844 86.046875 42.191406 94.953125 42.191406 94.953125 Z M 89.035156 102.261719 L 89.875 100.242188 L 89.6875 75.503906 L 84.65625 74.164062 L 86.597656 71.105469 L 75.546875 72.464844 L 76.429688 70.085938 L 74.386719 70.363281 C 73.097656 73.710938 72.714844 76.472656 72.714844 76.472656 C 75.117188 75.113281 80.441406 74.871094 80.441406 74.871094 C 76.976562 78.574219 75.75 85.539062 75.75 85.539062 C 78.269531 84.757812 82.6875 84.855469 82.6875 84.855469 C 75.476562 87.195312 72.417969 92.023438 72.417969 92.023438 C 71.125 92.296875 68.828125 91.066406 68.828125 91.066406 C 69.453125 93.164062 71.941406 95.199219 71.941406 95.199219 L 72.714844 94.878906 C 72.714844 94.878906 83.027344 91.550781 82.277344 94.265625 C 81.53125 96.984375 73.300781 97.730469 73.300781 97.730469 C 79.828125 99.355469 85.167969 98.203125 85.167969 98.203125 C 83.125 109.222656 78.953125 117.390625 73.929688 124.40625 C 73.929688 124.40625 76.023438 123.265625 76.296875 123.199219 C 76.566406 123.132812 80.441406 119.257812 80.644531 119.257812 C 80.851562 119.257812 81.9375 116.234375 81.9375 116.234375 L 80.164062 123.265625 C 80.164062 125.621094 84.519531 120.886719 84.519531 120.886719 L 87.511719 117.492188 L 87.988281 104.792969 L 88.300781 104.035156 L 88.300781 107.582031 L 90.351562 106.507812 C 89.855469 104.078125 90.714844 102.765625 90.714844 102.765625 L 90.710938 102.765625 C 93.191406 100 93.902344 95.832031 93.902344 95.832031 L 95.46875 94.804688 C 94.386719 99.804688 91.804688 102.6875 91.804688 102.6875 C 98.683594 99.429688 98.242188 88.980469 98.242188 88.980469 L 95.804688 90.730469 L 91.9375 94.949219 L 91.25 99.125 Z M 41.855469 94.628906 L 38.890625 91.519531 C 38.890625 91.519531 38.21875 96.921875 42.429688 102.6875 C 42.429688 102.6875 43.921875 104.128906 46.097656 105.171875 L 45.507812 102.6875 Z M 72.160156 111.578125 C 72.585938 111.660156 57.699219 106.820312 52.988281 106.324219 C 52.988281 106.324219 52.253906 113.691406 57.789062 118.476562 C 57.789062 118.476562 54.800781 113.210938 54.710938 108.503906 C 54.710938 108.503906 65.488281 110.304688 72.160156 111.578125 Z M 72.160156 111.578125 " fill-opacity="1" fill-rule="nonzero"/></g><g clip-path="url(#1096263f0b)"><path fill="#e5e3e3" d="M 52.808594 31.988281 L 51.5625 29.167969 L 51.046875 27.328125 C 50.863281 26.667969 50.375 24.789062 50.300781 23.859375 C 50.824219 22.714844 57.539062 18.007812 60.199219 17.429688 C 62.242188 16.984375 64.390625 18.597656 65.125 19.214844 C 64.972656 20.121094 64.890625 20.996094 64.84375 21.890625 C 64.800781 22.910156 64.800781 23.929688 64.847656 24.945312 C 64.910156 25.960938 64.984375 26.972656 65.148438 27.976562 C 65.304688 28.980469 65.53125 29.972656 65.855469 30.941406 L 65.890625 30.9375 C 65.9375 29.917969 65.921875 28.917969 65.933594 27.921875 C 65.929688 26.921875 65.949219 25.933594 65.988281 24.941406 C 66.019531 23.953125 66.09375 22.96875 66.183594 21.984375 C 66.269531 21.089844 66.378906 20.171875 66.519531 19.3125 C 68.027344 18.046875 69.601562 19.140625 69.78125 19.269531 L 70.085938 19.5 L 70.445312 19.367188 C 71.835938 18.851562 75.785156 17.507812 77.3125 17.445312 C 77.335938 17.445312 77.355469 17.453125 77.382812 17.453125 C 77.28125 18.820312 77.1875 21.976562 78.183594 24.308594 C 78.023438 24.753906 77.871094 25.199219 77.734375 25.648438 C 77.5 26.4375 77.292969 27.226562 77.160156 28.035156 C 77.015625 28.839844 76.957031 29.664062 76.972656 30.484375 C 77.289062 29.722656 77.5625 28.96875 77.851562 28.230469 C 78.136719 27.484375 78.425781 26.746094 78.75 26.019531 C 79.058594 25.292969 79.398438 24.585938 79.75 23.878906 C 80.015625 23.363281 80.296875 22.835938 80.578125 22.332031 C 81.289062 22.660156 82.640625 23.464844 83.789062 25.160156 C 84.871094 26.757812 83.296875 31.695312 81.898438 34.855469 C 76.65625 32.605469 67.234375 32.789062 66.835938 32.800781 C 66.613281 32.792969 63.972656 32.742188 60.75 33.007812 C 60.332031 32.277344 59.921875 31.496094 59.542969 30.71875 C 59.101562 29.8125 58.679688 28.890625 58.292969 27.949219 C 57.914062 27.007812 57.550781 26.058594 57.214844 25.089844 C 56.863281 24.132812 56.554688 23.148438 56.207031 22.15625 C 56.207031 23.203125 56.273438 24.253906 56.453125 25.285156 C 56.609375 26.320312 56.875 27.339844 57.171875 28.347656 C 57.46875 29.355469 57.84375 30.34375 58.269531 31.3125 C 58.550781 31.941406 58.851562 32.550781 59.195312 33.152344 C 56.4375 33.460938 53.480469 34.023438 51.34375 35.03125 C 49.972656 31.535156 47.929688 28.8125 46.726562 27.398438 C 46.78125 27.421875 50.824219 29.378906 52.808594 31.988281 Z M 94.992188 76.472656 L 90.714844 75.503906 L 90.714844 85.539062 C 91.648438 84.707031 93.796875 82.898438 95.808594 81.972656 C 95.808594 81.972656 94.515625 81.023438 92.410156 80.953125 C 92.40625 80.957031 92.40625 80.957031 94.992188 76.472656 Z M 45.34375 70.234375 L 46.890625 70.269531 C 47.171875 70.273438 53.179688 70.425781 57.421875 71.476562 C 57.152344 71.007812 56.8125 70.492188 56.425781 70.074219 L 54.890625 68.414062 L 57.09375 68.929688 C 57.316406 68.980469 62.429688 70.191406 67.089844 73.042969 C 71.753906 70.191406 76.867188 68.980469 77.089844 68.929688 L 79.292969 68.414062 L 77.757812 70.074219 C 77.375 70.492188 77.03125 71.007812 76.761719 71.480469 C 81.007812 70.425781 87.011719 70.273438 87.292969 70.269531 L 88.832031 70.234375 L 85.707031 73.945312 C 85.710938 73.941406 90.574219 72.328125 95.804688 69 C 95.804688 69 91.347656 67.710938 83.34375 68.117188 C 83.34375 68.117188 86.539062 66.757812 89.570312 66.757812 C 89.570312 66.757812 85.128906 66.011719 80.84375 67.164062 C 80.84375 67.164062 84.628906 63.496094 89.824219 61.867188 C 89.824219 61.867188 89.320312 60.644531 87.578125 58.742188 L 81.117188 61.390625 L 85.808594 56.300781 C 85.808594 56.300781 72.683594 60.984375 67.722656 69.335938 C 67.722656 69.335938 68.78125 61.390625 72.207031 54.191406 C 72.207031 54.191406 68.097656 56.300781 66.820312 60.167969 C 66.820312 60.167969 66.425781 52.292969 67.515625 47.878906 C 67.515625 47.878906 62.621094 48.625 60.644531 50.867188 C 60.644531 50.867188 59.320312 50.34375 56.917969 50.34375 C 54.601562 50.34375 51.285156 50.835938 47.191406 52.757812 L 46.910156 52.8125 C 46.679688 52.855469 41.265625 53.992188 40.019531 59.699219 L 39.960938 59.980469 L 39.726562 60.136719 C 39.679688 60.167969 34.265625 64.035156 36.851562 77.402344 L 36.933594 77.8125 L 36.605469 78.074219 C 36.546875 78.128906 35.699219 78.875 35.699219 80.511719 C 35.699219 81.324219 35.914062 82.367188 36.539062 83.65625 C 36.542969 83.65625 38.394531 83.347656 41.199219 83.65625 C 41.199219 83.65625 41.007812 80.703125 38.871094 78.710938 C 38.871094 78.710938 41.015625 78.382812 43.460938 79.78125 L 43.460938 75.507812 C 43.851562 75.335938 44.3125 75.144531 44.851562 74.949219 C 45.8125 74.609375 47.015625 74.25 48.480469 73.941406 Z M 72.710938 113.246094 C 72.023438 112.996094 71.332031 112.757812 70.636719 112.53125 C 68.894531 111.972656 67.128906 111.488281 65.34375 111.050781 C 63.566406 110.617188 61.765625 110.246094 59.960938 109.917969 C 59.058594 109.746094 58.148438 109.617188 57.242188 109.457031 L 55.34375 109.191406 C 55.378906 109.636719 55.433594 110.09375 55.503906 110.539062 C 55.617188 111.265625 55.78125 111.976562 55.980469 112.675781 C 56.179688 113.375 56.449219 114.050781 56.757812 114.699219 C 56.886719 114.96875 57.027344 115.234375 57.179688 115.488281 L 58.816406 111.574219 L 58.511719 113.628906 Z M 80.027344 124.816406 L 78.195312 125.492188 L 79.1875 123.808594 C 79.195312 123.796875 79.789062 122.742188 80.164062 120.4375 C 78.460938 122.300781 75.585938 125.222656 73.140625 126.578125 L 71.46875 127.511719 L 72.15625 125.722656 C 72.160156 125.710938 72.363281 125.171875 72.511719 124.390625 C 71.175781 125.902344 69.117188 128.03125 67.390625 128.859375 L 67.089844 129.003906 L 66.789062 128.859375 C 65.070312 128.03125 63.007812 125.902344 61.675781 124.390625 C 61.824219 125.171875 62.027344 125.714844 62.03125 125.722656 L 62.707031 127.503906 L 61.042969 126.578125 C 58.605469 125.226562 55.726562 122.300781 54.023438 120.4375 C 54.398438 122.742188 54.992188 123.800781 55 123.8125 L 55.953125 125.476562 L 54.15625 124.816406 C 52.136719 124.070312 50.539062 122.90625 49.300781 121.695312 C 48.0625 120.484375 47.191406 119.222656 46.636719 118.28125 C 44.339844 125.777344 45.011719 135.613281 45.175781 137.558594 C 46.972656 138.613281 49.367188 139.496094 52.316406 140.1875 C 52.257812 137.375 52.605469 135.363281 52.625 135.269531 L 53.074219 132.699219 L 53.960938 135.15625 C 54.867188 137.671875 56.003906 139.707031 56.859375 141.042969 C 62.265625 141.84375 67.046875 141.851562 67.09375 141.851562 C 67.136719 141.851562 71.769531 141.84375 77.066406 141.082031 C 78.539062 139.296875 80.59375 136.1875 82.347656 131.261719 L 83.277344 128.652344 L 83.6875 131.390625 C 83.703125 131.503906 84.015625 133.601562 83.84375 136.539062 C 84.066406 136.195312 84.277344 135.824219 84.460938 135.453125 L 85.671875 132.96875 L 85.785156 135.726562 C 85.785156 135.785156 85.832031 137.09375 85.582031 139.113281 C 86.890625 138.644531 88.035156 138.125 89.007812 137.558594 C 89.171875 135.613281 89.839844 125.777344 87.542969 118.277344 C 86.433594 120.164062 84.066406 123.320312 80.027344 124.816406 Z M 66.871094 39.46875 C 68.746094 39.441406 70.625 39.46875 72.507812 39.5 C 74.390625 39.542969 76.265625 39.625 78.183594 39.730469 C 76.382812 39.058594 74.488281 38.671875 72.589844 38.421875 C 70.6875 38.171875 68.773438 38.058594 66.855469 38.082031 C 64.964844 38.054688 63.027344 38.164062 61.136719 38.414062 C 59.238281 38.664062 57.34375 39.046875 55.542969 39.710938 C 57.457031 39.613281 59.339844 39.539062 61.21875 39.5 C 63.105469 39.46875 64.964844 39.445312 66.871094 39.46875 Z M 59.066406 45.5625 C 61.683594 42.863281 66.867188 42.832031 67.089844 42.832031 C 67.316406 42.832031 72.5 42.863281 75.117188 45.5625 C 75.765625 45.601562 77.355469 45.730469 79.273438 46.222656 L 79.921875 44.445312 C 76.753906 42.6875 72.164062 42.628906 72.164062 42.628906 C 73.296875 42.175781 74.160156 41.949219 74.160156 41.949219 C 63.554688 39.097656 58.882812 44.714844 58.882812 44.714844 C 55.894531 45.300781 54.417969 46.359375 54.417969 46.359375 C 56.546875 45.753906 58.363281 45.601562 59.066406 45.5625 Z M 59.066406 45.5625 " fill-opacity="1" fill-rule="nonzero"/></g><g clip-path="url(#26f6ba32d0)"><path fill="#c6baba" d="M 89.6875 74.164062 L 96.894531 75.792969 L 96.894531 83.058594 L 90.164062 87.335938 L 90.027344 84.484375 L 93.261719 82.109375 L 90.027344 82.109375 L 92.882812 77.351562 L 90.027344 76.675781 Z M 43.457031 75.507812 L 40.65625 73.890625 L 45.507812 73.042969 L 39.164062 71.105469 C 41.402344 70.523438 43.453125 70.25 45.347656 70.234375 L 47.050781 70.8125 L 57.863281 72.261719 L 57.425781 71.476562 C 50.527344 68.925781 43.039062 65.332031 43.039062 65.332031 C 47.121094 64.992188 52.898438 67.03125 52.898438 67.03125 C 50.078125 64.75 44.261719 60.578125 44.261719 60.578125 C 44.398438 57.792969 47.585938 55.621094 47.585938 55.621094 C 50.230469 61.734375 57.457031 65.765625 57.457031 65.765625 C 56.503906 64.703125 55.828125 61.867188 55.828125 61.867188 C 57.324219 64.515625 60.925781 66.890625 60.925781 66.890625 C 56.847656 61.050781 58.140625 53.238281 58.140625 53.238281 C 58.886719 58.402344 62.6875 63.34375 62.6875 63.34375 C 61.59375 59.929688 61.539062 55.546875 61.539062 55.546875 C 62.425781 54.390625 64.074219 53.644531 64.074219 53.644531 C 63.210938 61.117188 65.460938 67.90625 65.460938 67.90625 L 67.125 65.191406 C 66.722656 68.722656 67.527344 71.4375 67.527344 71.4375 C 69.363281 67.566406 79.15625 61.453125 79.15625 61.453125 C 77.113281 63.015625 75.210938 65.757812 75.210938 65.757812 C 77.046875 64.835938 81.601562 63.558594 81.601562 63.558594 C 73.238281 68.042969 67.097656 73.03125 67.097656 73.03125 L 74.394531 70.355469 L 77.179688 69.875 L 76.765625 71.472656 C 81.722656 68.382812 89.695312 69.398438 89.695312 69.398438 L 88.84375 70.226562 L 86.601562 71.507812 L 84.664062 74.15625 L 85.480469 74.628906 L 90.722656 73.546875 L 97.378906 68.925781 L 88.6875 54.867188 L 69.769531 45.429688 L 58.347656 47.191406 L 46.648438 52.152344 C 40.460938 54.457031 39.621094 59.28125 39.621094 59.28125 L 37.0625 62.066406 L 35.707031 66.414062 L 36.183594 69.671875 C 36.332031 74.765625 38.082031 78.160156 38.082031 78.160156 C 35.835938 80.675781 37.675781 84.019531 37.675781 84.019531 L 41.210938 84.847656 L 43.660156 81.148438 C 43.660156 81.148438 44.273438 76.9375 44.40625 76.734375 C 44.535156 76.539062 43.457031 75.507812 43.457031 75.507812 Z M 58.816406 111.578125 L 58.15625 114.210938 L 67.941406 113.667969 Z M 58.15625 114.707031 C 56.75 113.710938 55.339844 109.191406 55.339844 109.191406 L 54.710938 109.191406 C 54.710938 109.191406 55.347656 113.078125 55.339844 113.261719 C 55.339844 113.441406 57.246094 116.292969 57.246094 116.292969 Z M 85.402344 129.71875 C 85.402344 129.71875 84.789062 127 83.429688 124.828125 C 83.429688 124.828125 80.847656 131.347656 79.214844 133.929688 L 80.4375 128.566406 C 80.4375 128.566406 77.632812 135.085938 72.707031 136.988281 C 72.707031 136.988281 74.929688 135.019531 75.8125 131.960938 C 75.8125 131.960938 68.082031 134.339844 58.152344 132.367188 C 58.152344 132.367188 58.8125 134.542969 60.441406 137.597656 C 60.441406 137.597656 54.796875 134.675781 52.351562 126.390625 C 52.351562 126.390625 50.039062 131.28125 50.445312 137.597656 C 50.445312 137.597656 48.136719 133.792969 47.929688 130.941406 C 47.929688 130.941406 47.046875 134.605469 47.25 136.304688 C 47.25 136.304688 44.796875 131.273438 45.242188 125.707031 C 45.242188 125.707031 43.78125 129.105469 44.527344 138.070312 L 53.027344 141.125 L 53.367188 135.964844 L 56.429688 141.851562 L 66.765625 142.621094 L 77.304688 141.851562 L 80.433594 136.917969 L 83.015625 132.503906 L 83.289062 138.140625 L 84.851562 137.257812 L 85.578125 139.113281 C 85.578125 139.113281 88.117188 133.042969 87.980469 129.71875 C 87.980469 129.71875 88.386719 134.8125 87.574219 139.089844 L 89.75 137.800781 C 89.75 137.800781 90.632812 121.71875 87.539062 118.277344 C 87.546875 118.277344 86.925781 125.714844 85.402344 129.71875 Z M 80.160156 120.4375 L 76.699219 123.265625 L 73.09375 125.507812 L 73.296875 122.859375 L 70.578125 125.507812 L 67.089844 129.007812 C 68.839844 128.640625 70.785156 127.453125 70.785156 127.453125 L 70.113281 129.308594 C 76.316406 127.679688 80.160156 120.4375 80.160156 120.4375 Z M 60.921875 125.621094 L 56.433594 122.316406 L 54.023438 120.4375 C 54.023438 120.4375 57.566406 126.617188 64.027344 129.308594 L 63.046875 126.976562 C 63.046875 126.976562 64.960938 128.59375 67.089844 129.007812 L 61.015625 123.171875 Z M 61.195312 20.304688 C 62.28125 28.320312 65.441406 34.09375 65.441406 34.09375 L 67.117188 34.160156 C 67.46875 25.804688 69.152344 21.457031 69.152344 21.457031 C 69.152344 24.785156 70.714844 30.421875 70.714844 30.421875 C 70.714844 25.261719 71.257812 20.847656 71.257812 20.847656 L 74.929688 19.625 C 75.066406 22 76.558594 24.511719 76.558594 24.511719 C 74.859375 30.148438 75.675781 34.292969 75.675781 34.292969 L 76.695312 34.496094 C 77.785156 30.488281 80.472656 26.480469 80.472656 26.480469 L 81.59375 27.703125 C 81.457031 30.214844 79.351562 35.023438 79.351562 35.023438 L 82 36.058594 L 84.449219 29.265625 L 84.789062 25.257812 L 81.589844 22.136719 L 79.917969 21.457031 L 77.582031 16.429688 L 70.574219 18.671875 L 68.195312 17.992188 L 65.75 18.808594 L 61.121094 16.429688 L 56.089844 18.46875 L 55.535156 19.722656 C 59.105469 17.222656 61.195312 20.304688 61.195312 20.304688 Z M 51.46875 36.539062 L 63.574219 34.023438 C 63.574219 34.023438 57.382812 25.0625 56.429688 20.035156 C 56.429688 20.035156 53.03125 23.296875 57.316406 34.023438 L 55.535156 34.296875 C 55.535156 34.296875 51.988281 29.316406 50.296875 23.859375 L 49.628906 24.519531 L 50.308594 28.253906 L 45.957031 26.625 Z M 51.46875 36.539062 " fill-opacity="1" fill-rule="nonzero"/></g><path fill="#e5e3e3" d="M 51.140625 112.347656 C 50.636719 110.574219 49.171875 107.855469 47.730469 105.425781 C 47.730469 105.429688 47.847656 115.847656 50.035156 120.4375 L 46.574219 117.085938 L 46.097656 103.027344 L 47.730469 105.425781 C 46.007812 102.527344 44.320312 100.039062 44.320312 100.039062 L 44.320312 75.996094 C 47.574219 74.707031 51.085938 74.882812 51.085938 74.882812 C 48.457031 75.875 46.234375 77.421875 46.234375 77.421875 L 46.914062 99.496094 C 50.855469 108.664062 51.140625 112.347656 51.140625 112.347656 Z M 33.753906 87.339844 L 33.273438 87.679688 C 33.914062 103.976562 43.410156 106.816406 43.410156 106.816406 L 43.882812 106.507812 C 34.800781 99.734375 33.753906 87.339844 33.753906 87.339844 Z M 63.167969 103.027344 C 64.261719 102.550781 66.210938 102.347656 66.210938 102.347656 L 66.210938 100.582031 C 64.832031 100.988281 63.167969 103.027344 63.167969 103.027344 Z M 63.167969 103.027344 " fill-opacity="1" fill-rule="nonzero"/><g clip-path="url(#59704e3d8b)"><path fill="#2b2626" d="M 100.871094 83.898438 C 100.503906 83.585938 100.082031 83.378906 99.617188 83.28125 C 100.824219 79.996094 99.707031 78.019531 99.058594 77.226562 C 101.300781 64.941406 97.160156 60.234375 95.707031 59.003906 C 94.316406 53.414062 89.570312 51.695312 87.984375 51.269531 C 86.398438 49.109375 84.042969 47.488281 80.96875 46.4375 L 82.773438 41.484375 C 84.363281 40.773438 84.851562 39.632812 84.976562 38.792969 C 85.167969 37.496094 84.589844 36.183594 83.488281 35.382812 C 84.648438 32.722656 86.90625 26.785156 85.171875 24.226562 C 83.707031 22.058594 81.921875 21.097656 81.105469 20.742188 C 80.691406 19.113281 79.542969 15.691406 77.25 15.785156 C 75.535156 15.851562 71.925781 17.070312 70.324219 17.640625 C 69.160156 16.992188 67.445312 16.699219 65.902344 17.699219 C 64.824219 16.847656 62.386719 15.257812 59.847656 15.804688 C 58.128906 16.175781 55.265625 17.84375 53.160156 19.285156 C 48.550781 22.429688 48.605469 23.445312 48.628906 23.878906 C 48.664062 24.453125 48.820312 25.265625 48.980469 25.964844 C 48.078125 25.757812 46.777344 25.617188 45.128906 25.847656 L 43.191406 26.121094 L 44.574219 27.503906 C 44.609375 27.535156 47.933594 30.902344 49.804688 35.667969 C 48.917969 36.484375 48.496094 37.636719 48.667969 38.792969 C 48.796875 39.632812 49.28125 40.777344 50.871094 41.484375 L 52.730469 46.609375 C 51.480469 47.074219 50.339844 47.648438 49.335938 48.316406 C 48.078125 49.148438 47.019531 50.144531 46.195312 51.269531 C 44.605469 51.695312 39.863281 53.414062 38.472656 59.003906 C 37.023438 60.234375 32.882812 64.945312 35.125 77.226562 C 34.472656 78.023438 33.351562 80.003906 34.570312 83.296875 C 34.113281 83.398438 33.710938 83.601562 33.363281 83.902344 C 31.21875 85.726562 31.914062 92.109375 33.828125 97.226562 C 35.023438 100.4375 38.519531 107.894531 45.324219 108.476562 C 45.488281 111.398438 45.558594 114.039062 45.535156 116.339844 C 42.230469 125.175781 43.53125 137.945312 43.542969 138.074219 L 43.59375 138.546875 L 43.996094 138.800781 C 46.148438 140.136719 49.121094 141.222656 52.839844 142.019531 L 54.082031 142.28125 L 54.011719 141.019531 C 53.984375 140.476562 53.972656 139.925781 53.976562 139.371094 C 54.476562 140.347656 55.027344 141.300781 55.625 142.214844 L 55.863281 142.578125 L 56.292969 142.648438 C 61.957031 143.515625 67.039062 143.523438 67.089844 143.523438 C 67.136719 143.523438 71.988281 143.515625 77.492188 142.707031 L 77.878906 142.707031 L 78.171875 142.363281 C 79.222656 141.117188 80.726562 139.042969 82.203125 135.96875 C 82.167969 136.925781 82.082031 137.871094 81.949219 138.789062 L 81.503906 141.921875 L 83.644531 139.574219 L 83.675781 139.535156 C 83.714844 139.492188 83.78125 139.414062 83.875 139.308594 C 83.84375 139.527344 83.808594 139.75 83.773438 139.976562 L 83.519531 141.53125 L 85.027344 141.0625 C 87.0625 140.421875 88.796875 139.660156 90.179688 138.804688 L 90.589844 138.550781 L 90.636719 138.074219 C 90.769531 136.746094 91.835938 124.882812 88.648438 116.351562 C 88.621094 114.082031 88.691406 111.4375 88.851562 108.484375 C 95.695312 107.9375 99.207031 100.453125 100.40625 97.230469 C 102.320312 92.109375 103.015625 85.722656 100.871094 83.898438 Z M 98.585938 96.546875 C 97.535156 99.351562 94.527344 105.847656 88.976562 106.507812 C 89.039062 105.597656 89.105469 104.703125 89.175781 103.835938 C 92.328125 101.332031 93.128906 96.867188 93.328125 94.96875 C 93.722656 94.449219 94.058594 94.019531 94.390625 93.617188 C 94.523438 93.457031 94.660156 93.289062 94.804688 93.117188 C 94.6875 94.238281 94.488281 95.316406 94.214844 96.332031 C 93.949219 97.386719 93.574219 98.445312 93.105469 99.492188 C 92.738281 100.386719 92.277344 101.234375 91.792969 102.128906 L 90.699219 104.140625 L 91.996094 102.890625 C 92.980469 101.941406 93.726562 101.023438 94.273438 100.109375 C 94.546875 99.695312 94.769531 99.253906 94.984375 98.824219 L 95.144531 98.503906 C 95.226562 98.332031 95.296875 98.15625 95.371094 97.980469 C 95.410156 97.878906 95.453125 97.777344 95.5 97.671875 L 95.675781 97.242188 L 95.820312 96.820312 C 96.003906 96.308594 96.152344 95.78125 96.289062 95.269531 L 96.53125 94.183594 C 96.570312 93.980469 96.597656 93.78125 96.628906 93.582031 L 96.675781 93.285156 C 96.777344 92.578125 96.832031 91.996094 96.851562 91.460938 C 96.855469 91.261719 96.859375 91.0625 96.863281 90.863281 C 96.96875 90.746094 97.082031 90.632812 97.191406 90.515625 C 97.605469 90.085938 98.03125 89.636719 98.449219 89.164062 L 99.191406 88.316406 L 98.136719 88.722656 C 97.542969 88.949219 96.957031 89.234375 96.398438 89.570312 C 96.03125 89.789062 95.679688 90.027344 95.351562 90.277344 C 95.234375 90.363281 95.121094 90.453125 95.007812 90.542969 C 94.332031 91.082031 93.660156 91.699219 93 92.378906 C 92.269531 93.128906 91.59375 93.917969 90.984375 94.714844 L 90.984375 90.257812 C 92.347656 88.886719 94.601562 86.953125 96.589844 85.878906 C 97.386719 85.445312 98.066406 85.199219 98.601562 85.144531 C 99.03125 85.097656 99.367188 85.171875 99.601562 85.371094 C 100.414062 86.066406 100.785156 90.636719 98.585938 96.546875 Z M 86.066406 135.746094 L 85.910156 131.851562 L 84.214844 135.332031 C 84.199219 135.359375 84.183594 135.390625 84.171875 135.421875 C 84.21875 133.003906 83.96875 131.367188 83.964844 131.351562 L 83.390625 127.511719 L 82.085938 131.171875 C 80.355469 136.03125 78.335938 139.09375 76.917969 140.824219 C 71.679688 141.566406 67.140625 141.574219 67.09375 141.574219 C 67.046875 141.574219 62.367188 141.566406 57.023438 140.785156 C 56.226562 139.515625 55.113281 137.523438 54.226562 135.0625 L 52.984375 131.625 L 52.351562 135.222656 C 52.347656 135.242188 52.007812 137.109375 52.035156 139.835938 C 49.34375 139.179688 47.125 138.359375 45.441406 137.394531 C 45.269531 135.253906 44.703125 126.167969 46.730469 118.964844 C 47.421875 120.042969 48.21875 121.027344 49.105469 121.894531 C 50.578125 123.335938 52.246094 124.40625 54.058594 125.078125 L 56.574219 126.003906 L 55.238281 123.671875 C 55.234375 123.664062 54.824219 122.929688 54.472656 121.335938 C 56.332031 123.308594 58.773438 125.636719 60.90625 126.820312 L 63.238281 128.121094 L 62.289062 125.621094 C 62.289062 125.617188 62.257812 125.542969 62.214844 125.40625 C 63.554688 126.84375 65.222656 128.414062 66.667969 129.109375 L 67.089844 129.3125 L 67.515625 129.109375 C 68.957031 128.414062 70.632812 126.84375 71.96875 125.40625 C 71.933594 125.515625 71.90625 125.59375 71.894531 125.621094 L 70.933594 128.128906 L 73.277344 126.820312 C 75.410156 125.636719 77.851562 123.308594 79.710938 121.335938 C 79.363281 122.921875 78.953125 123.65625 78.945312 123.664062 L 77.554688 126.019531 L 80.125 125.074219 C 83.898438 123.675781 86.25 120.832031 87.453125 118.957031 C 89.480469 126.164062 88.914062 135.242188 88.742188 137.386719 C 87.921875 137.855469 86.972656 138.292969 85.914062 138.691406 C 86.074219 137.210938 86.074219 136.15625 86.066406 135.746094 Z M 36.78125 78.292969 L 37.242188 77.925781 L 37.128906 77.347656 C 34.609375 64.300781 39.839844 60.398438 39.882812 60.367188 L 40.214844 60.144531 L 40.300781 59.757812 C 41.507812 54.21875 46.746094 53.125 46.96875 53.082031 L 47.25 53.03125 L 47.316406 53.007812 C 50.6875 51.425781 53.917969 50.621094 56.925781 50.621094 C 59.234375 50.621094 60.535156 51.121094 60.546875 51.125 L 60.730469 51.199219 L 60.859375 51.050781 C 62.417969 49.28125 65.949219 48.460938 67.148438 48.226562 C 66.183594 52.679688 66.527344 59.871094 66.542969 60.183594 L 66.617188 61.679688 L 67.085938 60.257812 C 67.980469 57.542969 70.347656 55.699219 71.574219 54.898438 C 68.46875 61.832031 67.457031 69.222656 67.445312 69.300781 L 67.261719 70.652344 L 67.960938 69.480469 C 71.972656 62.730469 81.515625 58.347656 84.78125 57.003906 L 80.0625 62.125 L 87.5 59.074219 C 88.628906 60.328125 89.195312 61.265625 89.429688 61.703125 C 84.390625 63.382812 80.6875 66.925781 80.648438 66.964844 L 79.878906 67.710938 L 80.917969 67.433594 C 82.964844 66.882812 85.070312 66.773438 86.683594 66.808594 C 84.796875 67.203125 83.324219 67.820312 83.234375 67.859375 L 81.792969 68.476562 L 83.359375 68.394531 C 89.523438 68.082031 93.605469 68.792969 95.097656 69.117188 C 91.527344 71.316406 88.199219 72.707031 86.59375 73.320312 L 89.445312 69.941406 L 87.285156 69.988281 C 87.042969 69.996094 81.546875 70.140625 77.347656 71.054688 C 77.550781 70.753906 77.753906 70.484375 77.960938 70.261719 L 80.113281 67.9375 L 77.027344 68.660156 C 76.8125 68.710938 71.742188 69.914062 67.089844 72.71875 C 62.445312 69.917969 57.371094 68.710938 57.15625 68.660156 L 54.066406 67.9375 L 56.21875 70.261719 C 56.421875 70.484375 56.628906 70.75 56.832031 71.054688 C 52.632812 70.140625 47.136719 69.996094 46.894531 69.988281 L 44.734375 69.941406 L 47.964844 73.769531 C 46.824219 74.027344 45.746094 74.332031 44.753906 74.6875 C 44.273438 74.859375 43.8125 75.042969 43.34375 75.25 L 43.179688 75.324219 L 43.179688 79.308594 C 40.859375 78.136719 38.914062 78.417969 38.828125 78.433594 L 38.257812 78.519531 L 38.679688 78.914062 C 40.296875 80.417969 40.757812 82.53125 40.878906 83.339844 C 38.78125 83.136719 37.253906 83.28125 36.699219 83.347656 C 36.222656 82.3125 35.980469 81.355469 35.980469 80.503906 C 35.980469 79.039062 36.710938 78.355469 36.78125 78.292969 Z M 50.585938 23.917969 C 51.28125 22.726562 57.734375 18.25 60.257812 17.703125 C 62.089844 17.304688 64.089844 18.734375 64.824219 19.328125 C 64.699219 20.101562 64.617188 20.917969 64.566406 21.878906 C 64.519531 22.890625 64.523438 23.929688 64.574219 24.964844 C 64.636719 25.945312 64.707031 26.988281 64.875 28.023438 C 65.039062 29.085938 65.28125 30.097656 65.59375 31.03125 L 65.664062 31.242188 L 66.160156 31.195312 L 66.171875 30.953125 C 66.207031 30.214844 66.210938 29.480469 66.210938 28.765625 C 66.210938 28.484375 66.214844 28.207031 66.21875 27.921875 C 66.214844 26.9375 66.230469 25.9375 66.269531 24.957031 C 66.300781 24.074219 66.367188 23.136719 66.46875 22.015625 C 66.5625 21.042969 66.667969 20.207031 66.785156 19.464844 C 68.109375 18.433594 69.464844 19.382812 69.617188 19.496094 L 70.046875 19.816406 L 70.542969 19.632812 C 71.863281 19.144531 75.480469 17.910156 77.085938 17.746094 C 77.003906 19.179688 76.976562 22.097656 77.886719 24.324219 C 77.710938 24.816406 77.582031 25.207031 77.46875 25.574219 C 77.277344 26.230469 77.035156 27.097656 76.890625 27.992188 C 76.746094 28.777344 76.683594 29.617188 76.695312 30.496094 L 76.71875 31.832031 L 77.230469 30.597656 C 77.433594 30.113281 77.617188 29.628906 77.792969 29.160156 C 77.902344 28.886719 78.003906 28.609375 78.113281 28.335938 C 78.382812 27.628906 78.679688 26.875 79.003906 26.136719 C 79.296875 25.460938 79.625 24.761719 80.003906 24.015625 C 80.25 23.527344 80.480469 23.097656 80.695312 22.707031 C 81.414062 23.074219 82.5625 23.851562 83.558594 25.320312 C 84.4375 26.617188 83.328125 30.867188 81.753906 34.496094 C 77.257812 32.675781 70.015625 32.515625 67.632812 32.515625 C 67.140625 32.515625 66.855469 32.523438 66.84375 32.523438 C 66.816406 32.523438 64.1875 32.457031 60.902344 32.714844 C 60.527344 32.050781 60.152344 31.339844 59.792969 30.597656 C 59.3125 29.617188 58.910156 28.714844 58.550781 27.851562 C 58.121094 26.777344 57.78125 25.875 57.480469 25 C 57.277344 24.449219 57.085938 23.878906 56.902344 23.328125 C 56.761719 22.910156 56.621094 22.492188 56.472656 22.070312 L 55.933594 20.527344 L 55.933594 22.164062 C 55.933594 23.316406 56.011719 24.355469 56.183594 25.332031 C 56.320312 26.242188 56.546875 27.195312 56.910156 28.429688 C 57.1875 29.382812 57.550781 30.363281 58.015625 31.425781 C 58.253906 31.960938 58.496094 32.453125 58.753906 32.929688 C 56.917969 33.148438 55.300781 33.445312 53.917969 33.820312 L 51.828125 29.078125 L 51.3125 27.261719 C 51.097656 26.472656 50.671875 24.796875 50.585938 23.917969 Z M 72.511719 39.222656 C 71.058594 39.199219 69.707031 39.179688 68.371094 39.179688 C 67.871094 39.179688 67.371094 39.179688 66.875 39.1875 C 64.878906 39.164062 62.972656 39.1875 61.210938 39.21875 C 60.066406 39.242188 58.910156 39.277344 57.722656 39.328125 C 58.777344 39.0625 59.914062 38.851562 61.171875 38.6875 C 63.023438 38.441406 64.933594 38.332031 66.859375 38.355469 C 68.78125 38.335938 70.699219 38.453125 72.554688 38.699219 C 73.800781 38.859375 74.9375 39.070312 75.984375 39.339844 C 74.777344 39.285156 73.628906 39.246094 72.511719 39.222656 Z M 58.933594 44.984375 L 59.03125 44.964844 L 59.097656 44.890625 C 59.140625 44.835938 63.484375 39.78125 73.121094 41.980469 C 72.820312 42.082031 72.457031 42.210938 72.0625 42.371094 L 70.765625 42.890625 L 72.160156 42.910156 C 72.207031 42.910156 76.519531 42.980469 79.578125 44.574219 L 79.097656 45.894531 C 77.425781 45.484375 76.007812 45.339844 75.238281 45.292969 C 72.519531 42.589844 67.3125 42.554688 67.089844 42.554688 C 66.867188 42.554688 61.664062 42.585938 58.945312 45.289062 C 58.523438 45.3125 57.785156 45.378906 56.863281 45.527344 C 57.441406 45.332031 58.132812 45.140625 58.933594 44.984375 Z M 90.992188 84.925781 L 90.992188 75.851562 L 94.566406 76.660156 L 91.9375 81.21875 L 92.402344 81.230469 C 93.714844 81.277344 94.703125 81.675781 95.226562 81.949219 C 93.589844 82.796875 91.945312 84.105469 90.992188 84.925781 Z M 84.878906 107.117188 C 84.085938 108.523438 83.339844 109.851562 82.761719 112.28125 L 82.132812 114.9375 L 83.285156 112.464844 C 84.191406 110.519531 85.320312 108.511719 86.734375 106.328125 C 86.847656 106.152344 86.960938 105.976562 87.078125 105.800781 C 86.867188 108.707031 86.664062 112.597656 86.699219 116.308594 C 86.335938 117.085938 84.707031 120.238281 81.496094 122.242188 C 81.785156 121.09375 81.976562 119.800781 82.070312 118.386719 L 82.269531 115.398438 L 80.347656 117.703125 C 80.316406 117.738281 77.253906 121.398438 74.289062 123.773438 C 74.347656 123.234375 74.355469 122.722656 74.320312 122.238281 L 74.140625 119.703125 L 72.578125 121.714844 C 72.546875 121.753906 69.433594 125.71875 67.089844 127.132812 C 64.867188 125.789062 61.949219 122.144531 61.605469 121.710938 L 60.046875 119.703125 L 59.867188 122.234375 C 59.828125 122.726562 59.839844 123.238281 59.894531 123.765625 C 56.921875 121.390625 53.867188 117.734375 53.832031 117.695312 L 51.910156 115.394531 L 52.109375 118.386719 C 52.207031 119.800781 52.402344 121.09375 52.6875 122.238281 C 49.464844 120.234375 47.847656 117.078125 47.484375 116.304688 C 47.519531 112.636719 47.316406 108.738281 47.109375 105.820312 C 47.222656 105.988281 47.328125 106.15625 47.441406 106.324219 C 48.851562 108.511719 49.980469 110.519531 50.890625 112.460938 L 52.046875 114.929688 L 51.414062 112.277344 C 50.640625 109.046875 50.054688 108.152344 49.371094 107.113281 C 49.105469 106.710938 48.828125 106.292969 48.527344 105.699219 C 47.992188 104.660156 47.417969 103.609375 46.832031 102.574219 L 46.808594 102.535156 C 46.445312 101.90625 46.003906 101.160156 45.527344 100.386719 C 45.394531 100.171875 45.265625 99.960938 45.128906 99.75 L 45.128906 76.617188 C 46.558594 76.082031 48.175781 75.660156 49.941406 75.355469 L 51.613281 75.070312 L 49.054688 72.035156 C 51.691406 72.203125 55.875 72.597656 58.425781 73.507812 L 60.453125 74.222656 L 59.65625 72.226562 C 59.652344 72.222656 59.5 71.832031 59.222656 71.285156 C 61.285156 71.976562 64.050781 73.078125 66.570312 74.679688 L 67.089844 75.007812 L 67.617188 74.679688 C 70.136719 73.078125 72.902344 71.976562 74.96875 71.285156 C 74.691406 71.835938 74.535156 72.222656 74.535156 72.226562 L 73.730469 74.222656 L 75.761719 73.503906 C 78.3125 72.59375 82.496094 72.199219 85.132812 72.035156 L 82.574219 75.066406 L 84.246094 75.355469 C 86.019531 75.65625 87.632812 76.082031 89.046875 76.613281 L 89.046875 99.742188 C 88.910156 99.957031 88.777344 100.171875 88.648438 100.382812 C 88.257812 101.011719 87.859375 101.679688 87.363281 102.542969 L 87.324219 102.613281 C 86.730469 103.65625 86.164062 104.695312 85.648438 105.695312 C 85.386719 106.210938 85.128906 106.671875 84.878906 107.117188 Z M 35.582031 85.144531 C 36.105469 85.1875 36.769531 85.421875 37.558594 85.84375 C 39.523438 86.882812 41.792969 88.816406 43.183594 90.199219 L 43.183594 94.636719 C 42.589844 93.867188 41.933594 93.105469 41.226562 92.378906 C 40.570312 91.703125 39.894531 91.085938 39.222656 90.546875 C 39.105469 90.453125 38.992188 90.363281 38.878906 90.277344 C 38.550781 90.027344 38.199219 89.789062 37.828125 89.570312 C 37.273438 89.238281 36.691406 88.953125 36.09375 88.726562 L 35.035156 88.320312 L 35.785156 89.167969 C 36.203125 89.644531 36.628906 90.089844 37.042969 90.519531 L 37.371094 90.867188 C 37.371094 91.0625 37.375 91.265625 37.382812 91.464844 C 37.402344 92.003906 37.453125 92.582031 37.554688 93.292969 L 37.601562 93.582031 C 37.632812 93.785156 37.664062 93.984375 37.703125 94.191406 L 37.894531 95.085938 L 37.941406 95.257812 C 38.082031 95.773438 38.230469 96.304688 38.414062 96.820312 L 38.566406 97.257812 L 38.738281 97.675781 C 38.785156 97.777344 38.824219 97.878906 38.867188 97.980469 C 38.9375 98.15625 39.011719 98.328125 39.097656 98.511719 L 39.253906 98.820312 C 39.46875 99.25 39.691406 99.691406 39.960938 100.09375 C 40.511719 101.023438 41.257812 101.933594 42.238281 102.886719 L 43.535156 104.140625 L 42.449219 102.132812 C 41.960938 101.234375 41.5 100.390625 41.128906 99.484375 C 40.664062 98.445312 40.289062 97.382812 40.019531 96.324219 C 39.75 95.316406 39.550781 94.234375 39.433594 93.117188 C 39.582031 93.289062 39.71875 93.457031 39.847656 93.617188 C 40.148438 93.980469 40.457031 94.367188 40.785156 94.792969 C 40.972656 96.75 41.753906 101.339844 45.011719 103.882812 C 45.082031 104.738281 45.148438 105.617188 45.207031 106.5 C 39.691406 105.808594 36.699219 99.332031 35.65625 96.539062 C 33.449219 90.628906 33.820312 86.0625 34.628906 85.371094 C 34.851562 85.183594 35.167969 85.109375 35.582031 85.144531 Z M 53.859375 33.832031 C 52.976562 34.074219 52.1875 34.351562 51.5 34.652344 C 50.40625 31.976562 48.933594 29.761719 47.808594 28.292969 C 49.152344 29.070312 51.308594 30.476562 52.589844 32.15625 Z M 65.335938 94.964844 L 65.09375 95.210938 C 64.535156 95.789062 64.050781 96.332031 63.617188 96.867188 L 63.617188 96.871094 C 63.410156 97.132812 63.164062 97.441406 62.941406 97.765625 C 62.730469 98.054688 62.523438 98.371094 62.316406 98.734375 L 61.859375 99.519531 L 62.679688 99.125 C 63.03125 98.949219 63.363281 98.769531 63.6875 98.566406 C 63.984375 98.386719 64.292969 98.183594 64.632812 97.949219 C 65.074219 97.640625 65.535156 97.28125 66.074219 96.839844 C 66.414062 96.851562 66.75 96.863281 67.089844 96.867188 C 67.429688 96.863281 67.769531 96.855469 68.109375 96.839844 C 68.613281 97.257812 69.085938 97.621094 69.550781 97.949219 C 69.84375 98.152344 70.148438 98.355469 70.488281 98.5625 C 70.816406 98.769531 71.148438 98.949219 71.503906 99.125 L 72.324219 99.519531 L 71.867188 98.730469 C 71.660156 98.367188 71.453125 98.050781 71.242188 97.765625 C 71.007812 97.433594 70.78125 97.140625 70.5625 96.871094 C 70.117188 96.320312 69.617188 95.761719 69.085938 95.214844 L 68.851562 94.96875 L 68.445312 94.949219 C 67.527344 94.90625 66.644531 94.90625 65.746094 94.949219 Z M 68.703125 88.921875 L 69.078125 88.101562 C 69.308594 87.597656 69.492188 87.105469 69.667969 86.625 C 69.730469 86.453125 69.792969 86.285156 69.855469 86.113281 L 70.546875 84.164062 C 70.75 83.582031 70.964844 82.933594 71.203125 82.195312 C 71.402344 81.554688 71.613281 80.859375 71.769531 80.125 L 71.964844 79.234375 L 71.308594 79.863281 C 70.820312 80.328125 70.386719 80.890625 69.949219 81.640625 C 69.589844 82.261719 69.285156 82.933594 69.035156 83.636719 C 68.792969 84.320312 68.617188 85.046875 68.519531 85.785156 C 68.414062 86.570312 68.421875 87.324219 68.546875 88.03125 Z M 62.921875 118.910156 C 62.96875 119.003906 64.117188 121.164062 67.085938 121.164062 C 69.996094 121.164062 72.78125 118.59375 72.898438 118.484375 L 73.457031 117.964844 L 62.722656 118.53125 Z M 86.542969 86.539062 C 86.179688 86.605469 85.824219 86.683594 85.488281 86.757812 L 85.457031 86.761719 C 85.433594 86.765625 85.414062 86.769531 85.40625 86.773438 C 85.328125 86.792969 85.242188 86.8125 85.164062 86.828125 C 84.917969 86.886719 84.671875 86.941406 84.433594 87.019531 C 84.34375 87.046875 84.257812 87.070312 84.167969 87.101562 L 83.925781 87.171875 C 83.292969 87.359375 82.816406 87.519531 82.382812 87.6875 C 81.132812 88.140625 79.839844 88.730469 78.4375 89.503906 C 77.152344 90.230469 75.933594 91.042969 74.816406 91.914062 C 73.695312 92.808594 72.859375 93.582031 72.128906 94.402344 C 71.96875 94.28125 71.820312 94.164062 71.675781 94.046875 C 71.375 93.804688 71.070312 93.511719 70.707031 93.125 C 70.363281 92.773438 70.058594 92.382812 69.832031 92.082031 C 69.539062 91.691406 69.289062 91.316406 69.066406 90.925781 L 68.203125 89.425781 L 68.550781 91.121094 C 68.640625 91.5625 68.792969 92.015625 69.019531 92.554688 C 69.199219 92.972656 69.429688 93.40625 69.730469 93.886719 C 70.015625 94.324219 70.324219 94.734375 70.652344 95.09375 C 71 95.5 71.410156 95.847656 71.777344 96.160156 L 72.308594 96.605469 L 72.878906 96.054688 C 72.96875 95.964844 73.058594 95.878906 73.152344 95.789062 C 78.234375 94.890625 83.421875 94.886719 83.640625 94.890625 L 84.472656 94.894531 L 85.660156 87.613281 C 86.011719 87.4375 86.375 87.25 86.730469 87.050781 L 88.234375 86.214844 Z M 73.808594 111.875 C 72.847656 111.507812 71.878906 111.1875 71.144531 110.949219 C 69.523438 110.425781 67.753906 109.933594 65.734375 109.4375 C 64.007812 109.015625 62.210938 108.636719 60.253906 108.28125 C 59.660156 108.167969 59.058594 108.070312 58.472656 107.976562 C 58.148438 107.921875 57.820312 107.871094 57.492188 107.816406 L 53.601562 107.261719 L 53.625 108.390625 C 53.644531 109.15625 53.714844 109.902344 53.851562 110.808594 C 53.980469 111.601562 54.160156 112.386719 54.382812 113.152344 C 54.589844 113.882812 54.875 114.625 55.253906 115.425781 C 55.570312 116.105469 55.996094 116.796875 56.546875 117.539062 L 57.976562 119.097656 L 58.542969 115.300781 L 80.066406 114.71875 L 76.453125 112.984375 C 75.523438 112.53125 74.632812 112.183594 73.808594 111.875 Z M 71.1875 113.007812 L 58.789062 113.347656 L 58.765625 110.988281 L 57.144531 114.855469 C 57.097656 114.761719 57.054688 114.675781 57.007812 114.582031 C 56.671875 113.871094 56.425781 113.222656 56.25 112.601562 C 56.042969 111.890625 55.886719 111.183594 55.777344 110.5 C 55.726562 110.167969 55.683594 109.839844 55.652344 109.519531 L 57.195312 109.734375 C 57.546875 109.796875 57.898438 109.851562 58.25 109.910156 C 58.796875 110 59.359375 110.089844 59.910156 110.195312 C 61.863281 110.550781 63.621094 110.921875 65.277344 111.324219 C 67.234375 111.804688 68.957031 112.285156 70.554688 112.796875 C 70.765625 112.871094 70.980469 112.941406 71.1875 113.007812 Z M 69.953125 104.023438 L 69.949219 104.023438 C 69.578125 104.074219 69.222656 104.195312 68.898438 104.382812 C 68.570312 104.566406 68.277344 104.832031 68.050781 105.160156 C 67.796875 105.527344 67.675781 105.933594 67.699219 106.34375 L 67.722656 106.734375 L 68.082031 106.585938 C 68.335938 106.476562 68.542969 106.375 68.722656 106.285156 C 68.800781 106.246094 68.878906 106.207031 68.960938 106.167969 C 69.195312 106.050781 69.40625 105.933594 69.625 105.808594 L 69.703125 105.761719 C 69.980469 105.597656 70.210938 105.449219 70.4375 105.285156 C 70.71875 105.078125 70.957031 104.882812 71.214844 104.613281 L 71.488281 104.328125 L 71.128906 104.167969 C 70.78125 104.015625 70.40625 103.96875 69.953125 104.023438 Z M 65.289062 104.382812 C 64.957031 104.191406 64.605469 104.070312 64.230469 104.019531 C 63.777344 103.96875 63.402344 104.015625 63.058594 104.167969 L 62.695312 104.328125 L 62.96875 104.613281 C 63.253906 104.914062 63.523438 105.121094 63.746094 105.285156 C 63.984375 105.460938 64.222656 105.617188 64.484375 105.765625 C 64.722656 105.90625 64.964844 106.039062 65.222656 106.167969 C 65.292969 106.199219 65.359375 106.234375 65.429688 106.269531 C 65.617188 106.363281 65.832031 106.472656 66.097656 106.585938 L 66.460938 106.734375 L 66.484375 106.34375 C 66.503906 105.933594 66.386719 105.527344 66.128906 105.15625 C 65.90625 104.835938 65.613281 104.570312 65.289062 104.382812 Z M 61.304688 96.054688 L 61.871094 96.605469 L 62.40625 96.160156 C 62.824219 95.804688 63.195312 95.480469 63.527344 95.101562 C 63.859375 94.726562 64.171875 94.316406 64.449219 93.882812 C 64.75 93.417969 64.980469 92.980469 65.164062 92.554688 C 65.394531 92.011719 65.542969 91.558594 65.628906 91.121094 L 65.96875 89.425781 L 65.113281 90.929688 C 64.898438 91.3125 64.648438 91.691406 64.351562 92.085938 C 64.125 92.386719 63.820312 92.777344 63.472656 93.132812 C 63.128906 93.5 62.816406 93.800781 62.503906 94.054688 C 62.355469 94.179688 62.207031 94.296875 62.054688 94.40625 C 61.324219 93.589844 60.484375 92.816406 59.363281 91.921875 C 58.25 91.046875 57.027344 90.234375 55.738281 89.507812 C 54.347656 88.742188 53.054688 88.148438 51.808594 87.699219 C 51.304688 87.5 50.789062 87.34375 50.257812 87.179688 L 49.753906 87.03125 C 49.507812 86.945312 49.253906 86.890625 49.007812 86.835938 L 48.78125 86.785156 C 48.761719 86.78125 48.742188 86.773438 48.722656 86.769531 L 48.664062 87.042969 L 48.691406 86.765625 C 48.339844 86.683594 47.980469 86.609375 47.632812 86.546875 L 45.949219 86.226562 L 47.445312 87.0625 C 47.796875 87.253906 48.15625 87.4375 48.515625 87.625 L 49.703125 94.902344 L 50.511719 94.898438 C 50.515625 94.898438 50.542969 94.898438 50.589844 94.898438 C 51.894531 94.90625 56.480469 94.992188 61.027344 95.796875 C 61.121094 95.878906 61.210938 95.96875 61.304688 96.054688 Z M 62.980469 82.199219 C 63.175781 82.816406 63.390625 83.460938 63.632812 84.164062 L 64.324219 86.113281 C 64.390625 86.292969 64.457031 86.46875 64.523438 86.644531 C 64.695312 87.121094 64.878906 87.605469 65.101562 88.101562 L 65.472656 88.921875 L 65.628906 88.035156 C 65.757812 87.328125 65.765625 86.570312 65.660156 85.789062 C 65.5625 85.050781 65.390625 84.328125 65.148438 83.640625 C 64.898438 82.933594 64.59375 82.261719 64.234375 81.636719 C 63.785156 80.882812 63.351562 80.316406 62.875 79.863281 L 62.222656 79.242188 L 62.410156 80.125 C 62.566406 80.859375 62.777344 81.550781 62.980469 82.199219 Z M 62.980469 82.199219 " fill-opacity="1" fill-rule="nonzero"/></g></svg>