<svg xmlns="http://www.w3.org/2000/svg" xmlns:xlink="http://www.w3.org/1999/xlink" width="130" zoomAndPan="magnify" viewBox="0 0 97.5 131.999998" height="176" preserveAspectRatio="xMidYMid meet" version="1.0"><defs><clipPath id="e7c1506a0b"><path d="M 6.347656 30.828125 L 90.667969 30.828125 L 90.667969 118.875 L 6.347656 118.875 Z M 6.347656 30.828125 " clip-rule="nonzero"/></clipPath><clipPath id="948c2af930"><path d="M 24 13.191406 L 73 13.191406 L 73 96.761719 L 24 96.761719 Z M 24 13.191406 " clip-rule="nonzero"/></clipPath></defs><path fill="#dbaf5a" d="M 48.546875 32.355469 C 35.019531 32.355469 21.894531 34.078125 9.375 37.300781 C 8.601562 37.503906 8.113281 38.273438 8.261719 39.058594 C 13.898438 68.445312 27.726562 94.914062 47.285156 115.996094 C 47.886719 116.648438 48.917969 116.648438 49.523438 116 C 69.164062 94.9375 83.070312 68.457031 88.765625 39.046875 C 88.921875 38.257812 88.433594 37.484375 87.652344 37.285156 C 75.152344 34.070312 62.046875 32.355469 48.546875 32.355469 Z M 48.546875 32.355469 " fill-opacity="1" fill-rule="nonzero"/><g clip-path="url(#e7c1506a0b)"><path fill="#96261a" d="M 89.425781 36.171875 C 90.195312 36.375 90.675781 37.136719 90.53125 37.921875 C 84.964844 68.125 70.78125 95.902344 49.507812 118.242188 C 48.902344 118.875 47.894531 118.871094 47.292969 118.238281 C 26.105469 95.867188 12 68.101562 6.5 37.933594 C 6.355469 37.152344 6.839844 36.390625 7.605469 36.1875 C 20.917969 32.628906 34.691406 30.828125 48.546875 30.828125 C 62.378906 30.828125 76.132812 32.625 89.425781 36.171875 Z M 49.539062 113.734375 C 68.507812 92.960938 81.394531 67.652344 86.980469 40.199219 C 87.144531 39.390625 86.648438 38.601562 85.847656 38.402344 C 73.679688 35.402344 61.144531 33.878906 48.546875 33.878906 C 35.921875 33.878906 23.367188 35.40625 11.179688 38.417969 C 10.382812 38.617188 9.882812 39.40625 10.042969 40.210938 C 15.570312 67.632812 28.382812 92.929688 47.273438 113.730469 C 47.878906 114.398438 48.929688 114.398438 49.539062 113.734375 Z M 49.539062 113.734375 " fill-opacity="1" fill-rule="nonzero"/></g><g clip-path="url(#948c2af930)"><path fill="#bf1d1d" d="M 70.949219 66.617188 C 70.195312 68.644531 68.023438 73.3125 63.726562 74.472656 C 63.675781 75.691406 63.652344 76.8125 63.660156 77.8125 C 65.667969 83.480469 64.988281 91.066406 64.902344 91.921875 L 64.792969 92.996094 L 63.878906 93.5625 C 62.898438 94.167969 61.691406 94.703125 60.285156 95.144531 L 58.28125 95.773438 L 55.195312 96.253906 C 51.667969 96.761719 48.570312 96.765625 48.539062 96.765625 C 48.507812 96.765625 45.5 96.761719 42.035156 96.273438 L 39.253906 95.789062 C 36.738281 95.246094 34.703125 94.496094 33.191406 93.558594 L 32.28125 92.992188 L 32.171875 91.925781 C 32.136719 91.59375 31.335938 83.6875 33.417969 77.808594 C 33.425781 76.792969 33.402344 75.671875 33.347656 74.464844 C 29.074219 73.285156 26.910156 68.632812 26.15625 66.613281 C 25.113281 63.820312 23.972656 58.574219 26.265625 56.527344 C 26.003906 54.972656 26.40625 53.820312 26.789062 53.132812 C 25.621094 45.855469 27.910156 42.4375 29.152344 41.167969 C 30.226562 37.664062 33.042969 36.277344 34.46875 35.789062 C 35.039062 35.105469 35.722656 34.496094 36.507812 33.976562 C 36.828125 33.761719 37.171875 33.558594 37.53125 33.371094 L 37.0625 32.078125 C 36.144531 31.476562 35.558594 30.582031 35.402344 29.53125 C 35.273438 28.683594 35.433594 27.835938 35.859375 27.105469 C 34.792969 24.871094 33.28125 23.316406 33.265625 23.296875 L 30.171875 20.210938 L 34.515625 19.597656 C 34.808594 19.558594 35.097656 19.53125 35.386719 19.515625 C 35.558594 18.394531 36.582031 17.308594 38.894531 15.726562 C 39.792969 15.113281 42.058594 13.644531 43.652344 13.300781 C 43.980469 13.226562 44.320312 13.191406 44.664062 13.191406 C 45.964844 13.191406 47.121094 13.707031 47.957031 14.226562 C 48.34375 14.105469 48.746094 14.046875 49.164062 14.046875 C 49.660156 14.046875 50.15625 14.132812 50.636719 14.304688 C 52.570312 13.640625 53.992188 13.285156 54.859375 13.25 C 54.898438 13.25 54.9375 13.25 54.976562 13.25 C 56.617188 13.25 57.917969 14.523438 58.667969 16.851562 C 59.417969 17.289062 60.375 18.027344 61.207031 19.257812 C 62.238281 20.78125 62.0625 23.324219 60.6875 26.820312 C 61.242188 27.617188 61.480469 28.578125 61.335938 29.535156 C 61.175781 30.585938 60.589844 31.480469 59.671875 32.082031 L 59.253906 33.234375 C 60.609375 33.890625 61.730469 34.75 62.605469 35.792969 C 64.027344 36.28125 66.847656 37.667969 67.921875 41.171875 C 69.160156 42.441406 71.453125 45.855469 70.285156 53.136719 C 70.710938 53.894531 71.058594 55.015625 70.8125 56.507812 C 73.148438 58.527344 72 63.808594 70.949219 66.617188 Z M 70.949219 66.617188 " fill-opacity="1" fill-rule="nonzero"/></g><path fill="#ee3b3e" d="M 62.511719 67.707031 L 62.511719 52.980469 C 61.777344 52.695312 60.730469 52.375 59.351562 52.136719 L 58.597656 52.007812 L 60.273438 50.019531 C 58.722656 50.105469 55.710938 50.34375 53.925781 50.976562 L 53.015625 51.300781 L 53.375 50.40625 C 53.386719 50.375 53.558594 49.949219 53.847656 49.445312 C 52.609375 49.835938 50.59375 50.578125 48.773438 51.734375 L 48.535156 51.882812 L 48.300781 51.734375 C 46.480469 50.578125 44.464844 49.835938 43.226562 49.445312 C 43.515625 49.949219 43.6875 50.375 43.695312 50.40625 L 44.054688 51.300781 L 43.144531 50.976562 C 41.359375 50.339844 38.347656 50.101562 36.796875 50.019531 L 38.472656 52.007812 L 37.722656 52.136719 C 36.335938 52.375 35.289062 52.695312 34.550781 52.984375 L 34.550781 67.707031 C 34.648438 67.859375 34.738281 68.003906 34.828125 68.152344 C 35.105469 68.601562 35.371094 69.050781 35.636719 69.507812 C 35.636719 69.511719 35.640625 69.515625 35.644531 69.519531 C 36.011719 70.167969 36.363281 70.820312 36.707031 71.480469 C 37.390625 72.8125 38.007812 74.179688 38.503906 75.582031 C 37.875 74.230469 37.128906 72.945312 36.328125 71.699219 C 36.136719 71.40625 35.945312 71.113281 35.75 70.820312 C 35.898438 72.792969 36.058594 75.546875 36.03125 78.113281 C 36.234375 78.558594 37.378906 80.878906 39.761719 82.175781 C 39.574219 81.542969 39.375 80.617188 39.289062 79.371094 L 39.199219 78.027344 L 40.066406 79.058594 C 40.089844 79.089844 42.261719 81.6875 44.242188 83.167969 C 44.171875 82.769531 44.132812 82.300781 44.167969 81.816406 L 44.246094 80.675781 L 44.945312 81.578125 C 44.96875 81.605469 47.007812 84.214844 48.535156 85.082031 C 50.0625 84.214844 52.101562 81.605469 52.121094 81.578125 L 52.820312 80.675781 L 52.902344 81.816406 C 52.9375 82.300781 52.894531 82.769531 52.828125 83.167969 C 54.808594 81.6875 56.980469 79.089844 57.003906 79.058594 L 57.863281 78.027344 L 57.773438 79.371094 C 57.691406 80.617188 57.492188 81.542969 57.304688 82.175781 C 59.683594 80.875 60.828125 78.558594 61.035156 78.113281 C 61.007812 75.539062 61.167969 72.785156 61.320312 70.8125 C 61.121094 71.105469 60.921875 71.402344 60.730469 71.699219 C 59.929688 72.945312 59.183594 74.230469 58.554688 75.582031 C 59.050781 74.175781 59.671875 72.8125 60.351562 71.480469 C 60.695312 70.816406 61.054688 70.15625 61.425781 69.507812 C 61.6875 69.050781 61.953125 68.601562 62.230469 68.152344 C 62.324219 68.003906 62.417969 67.855469 62.511719 67.707031 Z M 49.609375 58.894531 C 49.671875 58.441406 49.777344 58 49.925781 57.574219 C 50.074219 57.152344 50.261719 56.738281 50.484375 56.347656 C 50.714844 55.960938 50.972656 55.585938 51.308594 55.269531 C 51.210938 55.71875 51.085938 56.136719 50.953125 56.558594 C 50.820312 56.972656 50.6875 57.382812 50.542969 57.792969 L 50.113281 59.011719 C 49.957031 59.421875 49.820312 59.832031 49.625 60.253906 C 49.546875 59.800781 49.550781 59.339844 49.609375 58.894531 Z M 47.695312 64.808594 C 47.976562 64.796875 48.257812 64.789062 48.535156 64.789062 C 48.820312 64.789062 49.097656 64.796875 49.378906 64.808594 L 49.5625 64.820312 L 49.664062 64.921875 C 49.980469 65.25 50.289062 65.59375 50.582031 65.957031 C 50.730469 66.132812 50.867188 66.320312 51.003906 66.511719 C 51.140625 66.699219 51.269531 66.898438 51.386719 67.105469 C 51.171875 67 50.964844 66.886719 50.765625 66.761719 C 50.570312 66.640625 50.375 66.511719 50.1875 66.378906 C 49.855469 66.148438 49.542969 65.902344 49.238281 65.648438 C 49.003906 65.65625 48.769531 65.664062 48.535156 65.664062 C 48.304688 65.664062 48.070312 65.65625 47.839844 65.648438 C 47.53125 65.902344 47.21875 66.148438 46.890625 66.378906 C 46.703125 66.511719 46.507812 66.640625 46.308594 66.761719 C 46.109375 66.886719 45.902344 67 45.6875 67.105469 C 45.808594 66.898438 45.933594 66.699219 46.070312 66.511719 C 46.203125 66.316406 46.347656 66.136719 46.488281 65.953125 C 46.78125 65.59375 47.089844 65.253906 47.410156 64.921875 L 47.511719 64.816406 Z M 51.003906 70.59375 C 50.839844 70.765625 50.6875 70.886719 50.535156 70.996094 C 50.386719 71.105469 50.238281 71.199219 50.085938 71.289062 C 49.9375 71.375 49.792969 71.457031 49.632812 71.535156 C 49.46875 71.613281 49.3125 71.699219 49.09375 71.792969 C 49.078125 71.558594 49.15625 71.339844 49.28125 71.15625 C 49.40625 70.976562 49.574219 70.828125 49.757812 70.722656 C 49.941406 70.613281 50.144531 70.542969 50.355469 70.515625 C 50.566406 70.492188 50.785156 70.5 51.003906 70.59375 Z M 47.980469 71.792969 C 47.761719 71.699219 47.601562 71.613281 47.441406 71.535156 C 47.28125 71.457031 47.132812 71.375 46.984375 71.289062 C 46.835938 71.199219 46.6875 71.105469 46.539062 70.996094 C 46.386719 70.882812 46.234375 70.765625 46.070312 70.59375 C 46.289062 70.5 46.507812 70.492188 46.71875 70.515625 C 46.929688 70.542969 47.128906 70.613281 47.3125 70.722656 C 47.5 70.828125 47.664062 70.976562 47.789062 71.15625 C 47.917969 71.339844 47.996094 71.558594 47.980469 71.792969 Z M 46.589844 56.347656 C 46.8125 56.738281 47 57.152344 47.148438 57.574219 C 47.300781 58 47.40625 58.441406 47.464844 58.894531 C 47.527344 59.339844 47.527344 59.800781 47.445312 60.253906 C 47.257812 59.832031 47.121094 59.421875 46.964844 59.015625 L 46.53125 57.792969 C 46.386719 57.382812 46.25 56.972656 46.121094 56.558594 C 45.988281 56.140625 45.863281 55.71875 45.765625 55.269531 C 46.097656 55.585938 46.359375 55.960938 46.589844 56.347656 Z M 38.128906 64.421875 L 37.757812 64.425781 L 37.019531 59.902344 C 36.773438 59.777344 36.523438 59.648438 36.277344 59.511719 C 36.496094 59.554688 36.714844 59.601562 36.933594 59.652344 C 36.949219 59.65625 36.96875 59.660156 36.980469 59.660156 C 37.183594 59.710938 37.390625 59.75 37.585938 59.8125 C 37.691406 59.847656 37.800781 59.878906 37.90625 59.910156 C 38.230469 60.007812 38.550781 60.109375 38.863281 60.230469 C 39.710938 60.539062 40.527344 60.925781 41.316406 61.359375 C 42.101562 61.804688 42.859375 62.304688 43.570312 62.863281 C 44.203125 63.367188 44.800781 63.898438 45.34375 64.527344 C 45.484375 64.425781 45.625 64.320312 45.765625 64.203125 C 45.984375 64.023438 46.191406 63.820312 46.390625 63.609375 C 46.59375 63.402344 46.777344 63.171875 46.953125 62.9375 C 47.132812 62.699219 47.296875 62.453125 47.445312 62.191406 C 47.386719 62.488281 47.285156 62.777344 47.164062 63.058594 C 47.042969 63.339844 46.898438 63.609375 46.730469 63.871094 C 46.5625 64.128906 46.375 64.378906 46.167969 64.613281 C 45.960938 64.851562 45.722656 65.058594 45.480469 65.261719 L 45.265625 65.441406 L 45.019531 65.203125 C 44.949219 65.136719 44.878906 65.070312 44.808594 65 C 41.511719 64.410156 38.164062 64.425781 38.128906 64.421875 Z M 48.535156 80.953125 C 46.753906 80.953125 46.074219 79.628906 46.074219 79.628906 L 52.070312 79.3125 C 52.070312 79.3125 50.316406 80.953125 48.535156 80.953125 Z M 54.164062 76.964844 L 43.015625 77.269531 L 42.816406 78.589844 L 42.691406 79.4375 L 42.054688 78.742188 C 41.746094 78.332031 41.46875 77.898438 41.257812 77.441406 C 41.039062 76.984375 40.855469 76.515625 40.71875 76.035156 C 40.578125 75.558594 40.46875 75.070312 40.390625 74.582031 C 40.3125 74.089844 40.261719 73.609375 40.25 73.085938 L 40.238281 72.582031 L 40.746094 72.652344 L 42.480469 72.902344 C 43.054688 73 43.636719 73.085938 44.210938 73.195312 C 45.363281 73.402344 46.507812 73.640625 47.648438 73.917969 C 48.785156 74.199219 49.917969 74.503906 51.035156 74.867188 C 51.59375 75.046875 52.148438 75.234375 52.699219 75.445312 C 53.253906 75.65625 53.792969 75.867188 54.347656 76.136719 L 55.96875 76.914062 Z M 60.050781 59.902344 L 59.316406 64.425781 L 58.941406 64.421875 C 58.914062 64.421875 55.5625 64.410156 52.265625 65 C 52.195312 65.070312 52.125 65.136719 52.054688 65.203125 L 51.808594 65.441406 L 51.597656 65.261719 C 51.355469 65.058594 51.113281 64.851562 50.910156 64.613281 C 50.699219 64.378906 50.511719 64.128906 50.34375 63.871094 C 50.179688 63.609375 50.03125 63.339844 49.910156 63.058594 C 49.789062 62.777344 49.6875 62.488281 49.625 62.191406 C 49.777344 62.453125 49.945312 62.699219 50.121094 62.9375 C 50.296875 63.171875 50.480469 63.402344 50.683594 63.609375 C 50.882812 63.820312 51.085938 64.023438 51.3125 64.203125 C 51.445312 64.316406 51.585938 64.425781 51.734375 64.527344 C 52.273438 63.898438 52.875 63.367188 53.503906 62.863281 C 54.214844 62.304688 54.972656 61.804688 55.757812 61.359375 C 56.550781 60.925781 57.367188 60.539062 58.210938 60.230469 C 58.527344 60.109375 58.847656 60.007812 59.167969 59.910156 C 59.277344 59.878906 59.382812 59.847656 59.488281 59.8125 C 59.6875 59.75 59.890625 59.710938 60.09375 59.660156 C 60.109375 59.660156 60.125 59.65625 60.140625 59.652344 C 60.359375 59.601562 60.578125 59.554688 60.796875 59.511719 C 60.550781 59.652344 60.300781 59.777344 60.050781 59.902344 Z M 69.089844 58.476562 C 68.894531 58.3125 68.632812 58.257812 68.328125 58.292969 C 67.945312 58.332031 67.488281 58.511719 67 58.773438 C 65.722656 59.464844 64.25 60.730469 63.386719 61.613281 L 63.386719 65.027344 C 63.480469 64.890625 63.578125 64.757812 63.675781 64.625 C 64.070312 64.105469 64.5 63.609375 64.953125 63.140625 C 65.34375 62.734375 65.757812 62.351562 66.199219 62 C 66.269531 61.945312 66.339844 61.886719 66.410156 61.832031 C 66.617188 61.675781 66.828125 61.53125 67.054688 61.398438 C 67.390625 61.195312 67.75 61.019531 68.117188 60.878906 C 67.773438 61.273438 67.421875 61.628906 67.078125 61.992188 C 67.078125 62.140625 67.074219 62.285156 67.070312 62.433594 C 67.058594 62.816406 67.015625 63.191406 66.964844 63.566406 C 66.933594 63.75 66.90625 63.9375 66.871094 64.121094 L 66.757812 64.671875 C 66.65625 65.039062 66.558594 65.398438 66.433594 65.753906 L 66.335938 66.019531 L 66.230469 66.28125 C 66.15625 66.453125 66.089844 66.625 66.011719 66.796875 C 65.839844 67.132812 65.683594 67.472656 65.476562 67.78125 C 65.09375 68.425781 64.597656 68.992188 64.070312 69.503906 C 64.421875 68.851562 64.777344 68.222656 65.050781 67.558594 C 65.34375 66.90625 65.582031 66.234375 65.757812 65.546875 C 65.941406 64.863281 66.0625 64.164062 66.136719 63.460938 C 66.152344 63.296875 66.164062 63.132812 66.171875 62.96875 C 65.960938 63.199219 65.757812 63.4375 65.5625 63.683594 C 65.164062 64.167969 64.785156 64.664062 64.417969 65.167969 C 64.0625 65.664062 63.707031 66.179688 63.386719 66.679688 L 63.386719 67.96875 L 63.300781 68.085938 C 62.96875 68.507812 62.636719 68.949219 62.3125 69.394531 C 62.25 70.082031 62.175781 71.019531 62.105469 72.101562 C 65.8125 71.816406 67.796875 67.566406 68.496094 65.699219 C 69.828125 62.121094 69.742188 59.03125 69.089844 58.476562 Z M 33.765625 68.085938 L 33.683594 67.972656 L 33.683594 66.625 C 33.375 66.144531 33.035156 65.648438 32.691406 65.171875 C 32.324219 64.667969 31.945312 64.171875 31.546875 63.6875 C 31.351562 63.441406 31.144531 63.203125 30.9375 62.972656 C 30.945312 63.136719 30.957031 63.300781 30.972656 63.464844 C 31.042969 64.164062 31.167969 64.863281 31.351562 65.550781 C 31.527344 66.238281 31.765625 66.910156 32.058594 67.5625 C 32.332031 68.226562 32.6875 68.855469 33.039062 69.507812 C 32.507812 68.996094 32.011719 68.429688 31.632812 67.785156 C 31.425781 67.472656 31.269531 67.132812 31.097656 66.800781 C 31.019531 66.632812 30.953125 66.457031 30.878906 66.28125 L 30.769531 66.023438 L 30.675781 65.757812 C 30.550781 65.402344 30.453125 65.042969 30.351562 64.675781 L 30.238281 64.125 C 30.203125 63.9375 30.175781 63.753906 30.144531 63.566406 C 30.09375 63.195312 30.050781 62.816406 30.039062 62.4375 C 30.035156 62.289062 30.03125 62.144531 30.03125 61.996094 C 29.6875 61.632812 29.335938 61.277344 28.992188 60.882812 C 29.359375 61.023438 29.714844 61.199219 30.054688 61.402344 C 30.277344 61.535156 30.492188 61.679688 30.699219 61.835938 C 30.769531 61.890625 30.839844 61.945312 30.910156 62.003906 C 31.347656 62.355469 31.765625 62.738281 32.15625 63.144531 C 32.609375 63.613281 33.039062 64.109375 33.429688 64.628906 C 33.519531 64.746094 33.601562 64.859375 33.683594 64.976562 L 33.683594 61.578125 C 32.804688 60.691406 31.332031 59.425781 30.058594 58.753906 C 29.578125 58.5 29.125 58.328125 28.746094 58.292969 C 28.453125 58.265625 28.207031 58.320312 28.019531 58.480469 C 27.371094 59.035156 27.28125 62.125 28.613281 65.703125 C 29.308594 67.566406 31.285156 71.796875 34.972656 72.105469 C 34.902344 71.035156 34.824219 70.097656 34.761719 69.410156 C 34.433594 68.957031 34.101562 68.515625 33.765625 68.085938 Z M 33.765625 68.085938 " fill-opacity="1" fill-rule="nonzero"/><path fill="#bf1d1d" d="M 49.625 61.542969 C 49.625 61.542969 49.132812 60.203125 49.878906 57.722656 C 50.621094 55.246094 52.808594 53.90625 52.808594 53.90625 C 51.585938 56.128906 50.863281 58.527344 50.863281 58.527344 C 51.425781 58.152344 51.984375 58.285156 51.984375 58.285156 C 50.558594 59.472656 49.625 61.542969 49.625 61.542969 Z M 45.171875 67.980469 L 47.699219 66.496094 L 46.4375 67.980469 C 46.4375 67.980469 47.511719 67.550781 48.535156 67.609375 L 48.535156 70 C 48.535156 70 46.828125 70.144531 46.074219 70.59375 L 47.984375 71.792969 C 47.984375 71.792969 48.550781 72.050781 49.097656 71.792969 C 49.640625 71.535156 50.21875 70.855469 50.21875 70.855469 L 51.003906 70.59375 C 51.003906 70.59375 50.964844 69.746094 50.050781 68.832031 C 50.050781 68.832031 50.496094 68.945312 51.140625 69.203125 C 51.140625 69.203125 50.96875 68.40625 49.570312 67.523438 C 49.570312 67.523438 50.902344 67.4375 52.074219 68.09375 C 52.074219 68.09375 52.019531 66.457031 49.566406 64.816406 L 48.3125 65.015625 L 47.515625 64.816406 C 47.511719 64.816406 45.515625 66.042969 45.171875 67.980469 Z M 45.386719 65.015625 C 45.386719 65.015625 47.070312 63.511719 47.445312 62.191406 C 47.445312 62.191406 47.832031 60.675781 47.316406 58.125 C 47.316406 58.125 47.183594 56.46875 44.789062 53.90625 C 44.789062 53.90625 46.476562 58.351562 45.996094 61.085938 C 45.996094 61.085938 45.730469 59.371094 45.003906 58.285156 C 45.003906 58.285156 45.726562 61.863281 44.789062 62.476562 C 44.789062 62.476562 41.3125 60.121094 36.277344 59.511719 C 36.273438 59.511719 42.238281 61.214844 45.386719 65.015625 Z M 45.171875 79.3125 C 45.171875 79.3125 45.6875 81.554688 48.535156 81.554688 C 51.945312 81.554688 53.636719 78.691406 53.636719 78.691406 Z M 69.75 59.203125 C 69.75 59.203125 69.964844 57.6875 68.085938 57.761719 C 66.203125 57.835938 63.386719 60.828125 63.386719 60.828125 L 63.386719 65.027344 L 64.15625 64.636719 C 64.15625 64.636719 65.476562 59.03125 69.75 59.203125 Z M 33.652344 65.027344 L 33.652344 60.828125 C 33.652344 60.828125 30.835938 57.835938 28.953125 57.761719 C 27.074219 57.6875 27.289062 59.203125 27.289062 59.203125 C 31.5625 59.03125 32.882812 64.636719 32.882812 64.636719 Z M 62.332031 69.234375 L 62.859375 67.964844 L 62.742188 52.398438 L 59.578125 51.554688 L 60.796875 49.632812 L 53.851562 50.488281 L 54.40625 48.992188 L 53.125 49.164062 C 52.3125 51.269531 52.070312 53.007812 52.070312 53.007812 C 53.582031 52.152344 56.929688 52 56.929688 52 C 54.75 54.328125 53.980469 58.710938 53.980469 58.710938 C 55.5625 58.222656 58.339844 58.285156 58.339844 58.285156 C 53.808594 59.753906 51.886719 62.792969 51.886719 62.792969 C 51.070312 62.964844 49.628906 62.191406 49.628906 62.191406 C 50.023438 63.511719 51.585938 64.789062 51.585938 64.789062 L 52.070312 64.589844 C 52.070312 64.589844 58.554688 62.496094 58.082031 64.203125 C 57.613281 65.914062 52.441406 66.382812 52.441406 66.382812 C 56.542969 67.40625 59.898438 66.683594 59.898438 66.683594 C 58.617188 73.617188 55.996094 78.753906 52.835938 83.167969 C 52.835938 83.167969 54.152344 82.449219 54.324219 82.410156 C 54.496094 82.367188 56.929688 79.929688 57.058594 79.929688 C 57.1875 79.929688 57.867188 78.027344 57.867188 78.027344 L 56.753906 82.449219 C 56.753906 83.933594 59.492188 80.953125 59.492188 80.953125 L 61.375 78.820312 L 61.671875 70.828125 L 61.871094 70.351562 L 61.871094 72.582031 L 63.15625 71.90625 C 62.847656 70.378906 63.386719 69.550781 63.386719 69.550781 C 64.945312 67.8125 65.390625 65.191406 65.390625 65.191406 L 66.375 64.542969 C 65.695312 67.691406 64.070312 69.503906 64.070312 69.503906 C 68.394531 67.453125 68.117188 60.878906 68.117188 60.878906 L 66.585938 61.980469 L 64.152344 64.632812 L 63.722656 67.261719 Z M 32.675781 64.429688 L 30.808594 62.476562 C 30.808594 62.476562 30.386719 65.875 33.035156 69.503906 C 33.035156 69.503906 33.972656 70.410156 35.339844 71.066406 L 34.96875 69.503906 Z M 51.722656 75.097656 C 51.992188 75.148438 42.632812 72.105469 39.671875 71.792969 C 39.671875 71.792969 39.210938 76.425781 42.691406 79.4375 C 42.691406 79.4375 40.8125 76.125 40.753906 73.164062 C 40.753906 73.164062 47.527344 74.296875 51.722656 75.097656 Z M 51.722656 75.097656 " fill-opacity="1" fill-rule="nonzero"/><path fill="#e5e3e3" d="M 39.558594 25.019531 L 38.777344 23.242188 L 38.449219 22.085938 C 38.335938 21.671875 38.027344 20.488281 37.984375 19.902344 C 38.3125 19.183594 42.535156 16.222656 44.207031 15.859375 C 45.488281 15.578125 46.839844 16.59375 47.300781 16.980469 C 47.207031 17.550781 47.15625 18.101562 47.125 18.664062 C 47.097656 19.308594 47.097656 19.949219 47.128906 20.585938 C 47.167969 21.226562 47.214844 21.863281 47.316406 22.496094 C 47.414062 23.125 47.558594 23.75 47.761719 24.359375 L 47.78125 24.355469 C 47.8125 23.714844 47.800781 23.085938 47.808594 22.457031 C 47.808594 21.832031 47.820312 21.207031 47.84375 20.585938 C 47.863281 19.960938 47.910156 19.34375 47.96875 18.722656 C 48.023438 18.160156 48.089844 17.582031 48.175781 17.042969 C 49.125 16.246094 50.117188 16.933594 50.226562 17.015625 L 50.421875 17.160156 L 50.644531 17.078125 C 51.519531 16.753906 54 15.90625 54.960938 15.867188 C 54.976562 15.867188 54.988281 15.871094 55.007812 15.871094 C 54.941406 16.730469 54.882812 18.71875 55.507812 20.1875 C 55.410156 20.46875 55.3125 20.746094 55.226562 21.027344 C 55.078125 21.523438 54.949219 22.023438 54.867188 22.53125 C 54.773438 23.039062 54.738281 23.558594 54.75 24.070312 C 54.945312 23.59375 55.117188 23.117188 55.300781 22.652344 C 55.480469 22.183594 55.660156 21.722656 55.863281 21.265625 C 56.0625 20.808594 56.273438 20.359375 56.496094 19.917969 C 56.660156 19.589844 56.835938 19.261719 57.015625 18.941406 C 57.460938 19.148438 58.3125 19.652344 59.03125 20.722656 C 59.710938 21.726562 58.722656 24.832031 57.84375 26.820312 C 54.550781 25.40625 48.625 25.523438 48.375 25.527344 C 48.238281 25.527344 46.574219 25.492188 44.550781 25.660156 C 44.289062 25.199219 44.03125 24.710938 43.792969 24.21875 C 43.515625 23.648438 43.25 23.070312 43.007812 22.476562 C 42.769531 21.886719 42.539062 21.285156 42.328125 20.679688 C 42.109375 20.074219 41.914062 19.457031 41.695312 18.832031 C 41.695312 19.488281 41.738281 20.152344 41.851562 20.800781 C 41.949219 21.453125 42.113281 22.09375 42.300781 22.726562 C 42.488281 23.363281 42.726562 23.980469 42.992188 24.59375 C 43.167969 24.988281 43.355469 25.371094 43.574219 25.75 C 41.839844 25.945312 39.984375 26.296875 38.636719 26.933594 C 37.777344 24.734375 36.492188 23.019531 35.738281 22.128906 C 35.769531 22.144531 38.3125 23.375 39.558594 25.019531 Z M 66.078125 53.007812 L 63.386719 52.398438 L 63.386719 58.714844 C 63.972656 58.1875 65.324219 57.050781 66.589844 56.46875 C 66.589844 56.46875 65.777344 55.871094 64.453125 55.828125 C 64.449219 55.828125 64.449219 55.828125 66.078125 53.007812 Z M 34.867188 49.082031 L 35.839844 49.105469 C 36.015625 49.109375 39.792969 49.203125 42.460938 49.863281 C 42.289062 49.570312 42.078125 49.246094 41.832031 48.980469 L 40.867188 47.9375 L 42.253906 48.261719 C 42.394531 48.296875 45.605469 49.058594 48.535156 50.851562 C 51.46875 49.058594 54.683594 48.296875 54.820312 48.261719 L 56.207031 47.9375 L 55.242188 48.980469 C 55 49.246094 54.785156 49.570312 54.613281 49.867188 C 57.285156 49.203125 61.058594 49.109375 61.238281 49.105469 L 62.203125 49.082031 L 60.238281 51.417969 C 60.242188 51.417969 63.300781 50.402344 66.585938 48.308594 C 66.585938 48.308594 63.785156 47.496094 58.753906 47.75 C 58.753906 47.75 60.761719 46.894531 62.667969 46.894531 C 62.667969 46.894531 59.875 46.425781 57.183594 47.152344 C 57.183594 47.152344 59.5625 44.84375 62.824219 43.816406 C 62.824219 43.816406 62.511719 43.050781 61.414062 41.851562 L 57.355469 43.519531 L 60.304688 40.316406 C 60.304688 40.316406 52.054688 43.261719 48.933594 48.519531 C 48.933594 48.519531 49.597656 43.519531 51.753906 38.988281 C 51.753906 38.988281 49.167969 40.316406 48.367188 42.75 C 48.367188 42.75 48.121094 37.792969 48.804688 35.015625 C 48.804688 35.015625 45.726562 35.484375 44.484375 36.898438 C 44.484375 36.898438 43.652344 36.566406 42.144531 36.566406 C 40.683594 36.566406 38.601562 36.875 36.027344 38.085938 L 35.851562 38.121094 C 35.707031 38.148438 32.300781 38.863281 31.519531 42.457031 L 31.484375 42.628906 L 31.335938 42.730469 C 31.304688 42.75 27.90625 45.183594 29.527344 53.59375 L 29.578125 53.851562 L 29.375 54.015625 C 29.335938 54.050781 28.804688 54.519531 28.804688 55.550781 C 28.804688 56.0625 28.9375 56.71875 29.332031 57.527344 C 29.335938 57.527344 30.5 57.332031 32.261719 57.527344 C 32.261719 57.527344 32.140625 55.667969 30.800781 54.417969 C 30.800781 54.417969 32.148438 54.210938 33.683594 55.089844 L 33.683594 52.402344 C 33.929688 52.292969 34.21875 52.171875 34.558594 52.050781 C 35.160156 51.835938 35.917969 51.609375 36.839844 51.417969 Z M 52.070312 76.148438 C 51.636719 75.988281 51.203125 75.839844 50.765625 75.695312 C 49.671875 75.34375 48.558594 75.042969 47.4375 74.765625 C 46.320312 74.492188 45.1875 74.261719 44.054688 74.050781 C 43.488281 73.945312 42.914062 73.863281 42.347656 73.761719 L 41.152344 73.59375 C 41.175781 73.875 41.210938 74.164062 41.253906 74.445312 C 41.324219 74.902344 41.429688 75.347656 41.554688 75.789062 C 41.679688 76.230469 41.847656 76.652344 42.042969 77.0625 C 42.121094 77.230469 42.210938 77.398438 42.308594 77.558594 L 43.335938 75.09375 L 43.144531 76.386719 Z M 56.667969 83.425781 L 55.515625 83.851562 L 56.140625 82.792969 C 56.144531 82.785156 56.519531 82.121094 56.753906 80.671875 C 55.683594 81.84375 53.875 83.683594 52.339844 84.535156 L 51.289062 85.121094 L 51.71875 83.996094 C 51.722656 83.992188 51.851562 83.652344 51.945312 83.160156 C 51.105469 84.113281 49.8125 85.449219 48.726562 85.972656 L 48.535156 86.0625 L 48.347656 85.972656 C 47.265625 85.449219 45.96875 84.113281 45.132812 83.160156 C 45.226562 83.652344 45.355469 83.992188 45.355469 83.996094 L 45.78125 85.117188 L 44.734375 84.535156 C 43.203125 83.683594 41.394531 81.84375 40.324219 80.671875 C 40.558594 82.121094 40.933594 82.789062 40.9375 82.792969 L 41.535156 83.84375 L 40.40625 83.425781 C 39.136719 82.957031 38.132812 82.226562 37.355469 81.464844 C 36.578125 80.699219 36.03125 79.90625 35.679688 79.316406 C 34.238281 84.03125 34.65625 90.222656 34.761719 91.445312 C 35.890625 92.109375 37.394531 92.664062 39.25 93.097656 C 39.214844 91.328125 39.429688 90.0625 39.441406 90.003906 L 39.726562 88.386719 L 40.285156 89.933594 C 40.851562 91.515625 41.566406 92.796875 42.105469 93.636719 C 45.503906 94.140625 48.507812 94.148438 48.539062 94.148438 C 48.566406 94.148438 51.480469 94.140625 54.804688 93.660156 C 55.734375 92.539062 57.023438 90.582031 58.125 87.484375 L 58.710938 85.839844 L 58.96875 87.5625 C 58.980469 87.632812 59.175781 88.953125 59.066406 90.804688 C 59.207031 90.585938 59.339844 90.355469 59.457031 90.121094 L 60.21875 88.554688 L 60.289062 90.292969 C 60.289062 90.328125 60.316406 91.152344 60.160156 92.421875 C 60.984375 92.128906 61.703125 91.800781 62.3125 91.445312 C 62.417969 90.222656 62.835938 84.03125 61.394531 79.3125 C 60.695312 80.5 59.207031 82.484375 56.667969 83.425781 Z M 48.398438 29.722656 C 49.578125 29.707031 50.757812 29.726562 51.941406 29.746094 C 53.125 29.773438 54.304688 29.824219 55.507812 29.890625 C 54.375 29.46875 53.1875 29.222656 51.992188 29.066406 C 50.800781 28.90625 49.59375 28.839844 48.390625 28.851562 C 47.203125 28.835938 45.984375 28.90625 44.792969 29.0625 C 43.601562 29.21875 42.410156 29.460938 41.277344 29.878906 C 42.480469 29.816406 43.664062 29.769531 44.847656 29.742188 C 46.03125 29.722656 47.203125 29.710938 48.398438 29.722656 Z M 43.492188 33.558594 C 45.136719 31.863281 48.398438 31.84375 48.535156 31.84375 C 48.679688 31.84375 51.9375 31.863281 53.582031 33.558594 C 53.988281 33.582031 54.988281 33.664062 56.195312 33.972656 L 56.601562 32.855469 C 54.609375 31.75 51.726562 31.714844 51.726562 31.714844 C 52.4375 31.429688 52.980469 31.285156 52.980469 31.285156 C 46.3125 29.492188 43.375 33.027344 43.375 33.027344 C 41.5 33.394531 40.570312 34.058594 40.570312 34.058594 C 41.910156 33.679688 43.050781 33.582031 43.492188 33.558594 Z M 43.492188 33.558594 " fill-opacity="1" fill-rule="nonzero"/><path fill="#c6baba" d="M 62.738281 51.554688 L 67.269531 52.578125 L 67.269531 57.152344 L 63.039062 59.84375 L 62.953125 58.050781 L 64.988281 56.554688 L 62.953125 56.554688 L 64.75 53.5625 L 62.953125 53.136719 Z M 33.679688 52.402344 L 31.921875 51.382812 L 34.96875 50.851562 L 30.980469 49.632812 C 32.386719 49.265625 33.679688 49.09375 34.871094 49.082031 L 35.941406 49.445312 L 42.738281 50.359375 L 42.460938 49.863281 C 38.125 48.261719 33.417969 46 33.417969 46 C 35.984375 45.785156 39.617188 47.066406 39.617188 47.066406 C 37.84375 45.632812 34.1875 43.007812 34.1875 43.007812 C 34.273438 41.253906 36.277344 39.886719 36.277344 39.886719 C 37.9375 43.734375 42.480469 46.269531 42.480469 46.269531 C 41.882812 45.601562 41.457031 43.816406 41.457031 43.816406 C 42.398438 45.484375 44.664062 46.980469 44.664062 46.980469 C 42.097656 43.304688 42.910156 38.390625 42.910156 38.390625 C 43.378906 41.636719 45.769531 44.746094 45.769531 44.746094 C 45.082031 42.597656 45.046875 39.84375 45.046875 39.84375 C 45.605469 39.113281 46.640625 38.644531 46.640625 38.644531 C 46.097656 43.347656 47.511719 47.621094 47.511719 47.621094 L 48.558594 45.910156 C 48.304688 48.132812 48.808594 49.839844 48.808594 49.839844 C 49.964844 47.402344 56.121094 43.558594 56.121094 43.558594 C 54.835938 44.542969 53.640625 46.265625 53.640625 46.265625 C 54.796875 45.683594 57.660156 44.882812 57.660156 44.882812 C 52.402344 47.703125 48.539062 50.84375 48.539062 50.84375 L 53.128906 49.160156 L 54.878906 48.855469 L 54.617188 49.863281 C 57.734375 47.917969 62.746094 48.558594 62.746094 48.558594 L 62.210938 49.078125 L 60.800781 49.882812 L 59.582031 51.550781 L 60.097656 51.847656 L 63.390625 51.167969 L 67.578125 48.261719 L 62.109375 39.414062 L 50.21875 33.476562 L 43.039062 34.585938 L 35.6875 37.703125 C 31.796875 39.15625 31.269531 42.191406 31.269531 42.191406 L 29.660156 43.945312 L 28.808594 46.679688 L 29.109375 48.730469 C 29.199219 51.933594 30.300781 54.070312 30.300781 54.070312 C 28.890625 55.652344 30.046875 57.757812 30.046875 57.757812 L 32.269531 58.277344 L 33.808594 55.949219 C 33.808594 55.949219 34.191406 53.300781 34.277344 53.171875 C 34.359375 53.050781 33.679688 52.402344 33.679688 52.402344 Z M 43.335938 75.097656 L 42.921875 76.753906 L 49.070312 76.414062 Z M 42.921875 77.066406 C 42.039062 76.4375 41.152344 73.597656 41.152344 73.597656 L 40.753906 73.597656 C 40.753906 73.597656 41.15625 76.042969 41.152344 76.15625 C 41.148438 76.269531 42.351562 78.066406 42.351562 78.066406 Z M 60.046875 86.511719 C 60.046875 86.511719 59.660156 84.800781 58.808594 83.433594 C 58.808594 83.433594 57.183594 87.539062 56.15625 89.160156 L 56.925781 85.785156 C 56.925781 85.785156 55.164062 89.886719 52.066406 91.085938 C 52.066406 91.085938 53.464844 89.847656 54.019531 87.921875 C 54.019531 87.921875 49.160156 89.417969 42.917969 88.179688 C 42.917969 88.179688 43.332031 89.546875 44.359375 91.46875 C 44.359375 91.46875 40.808594 89.632812 39.269531 84.417969 C 39.269531 84.417969 37.820312 87.492188 38.074219 91.46875 C 38.074219 91.46875 36.621094 89.074219 36.492188 87.28125 C 36.492188 87.28125 35.9375 89.585938 36.066406 90.65625 C 36.066406 90.65625 34.523438 87.488281 34.804688 83.988281 C 34.804688 83.988281 33.886719 86.125 34.355469 91.765625 L 39.695312 93.691406 L 39.910156 90.441406 L 41.835938 94.148438 L 48.332031 94.628906 L 54.957031 94.148438 L 56.921875 91.039062 L 58.546875 88.261719 L 58.71875 91.808594 L 59.703125 91.253906 L 60.15625 92.421875 C 60.15625 92.421875 61.753906 88.605469 61.667969 86.511719 C 61.667969 86.511719 61.921875 89.714844 61.410156 92.410156 L 62.78125 91.597656 C 62.78125 91.597656 63.335938 81.476562 61.390625 79.3125 C 61.394531 79.3125 61.003906 83.992188 60.046875 86.511719 Z M 56.753906 80.671875 L 54.578125 82.449219 L 52.3125 83.859375 L 52.4375 82.195312 L 50.730469 83.859375 L 48.535156 86.066406 C 49.636719 85.832031 50.859375 85.085938 50.859375 85.085938 L 50.4375 86.253906 C 54.335938 85.230469 56.753906 80.671875 56.753906 80.671875 Z M 44.660156 83.933594 L 41.839844 81.855469 L 40.324219 80.671875 C 40.324219 80.671875 42.550781 84.558594 46.609375 86.253906 L 45.996094 84.785156 C 45.996094 84.785156 47.199219 85.804688 48.535156 86.066406 L 44.71875 82.394531 Z M 44.832031 17.667969 C 45.515625 22.710938 47.5 26.34375 47.5 26.34375 L 48.554688 26.382812 C 48.773438 21.128906 49.832031 18.394531 49.832031 18.394531 C 49.832031 20.484375 50.816406 24.03125 50.816406 24.03125 C 50.816406 20.785156 51.15625 18.007812 51.15625 18.007812 L 53.464844 17.238281 C 53.550781 18.734375 54.488281 20.3125 54.488281 20.3125 C 53.421875 23.863281 53.933594 26.46875 53.933594 26.46875 L 54.574219 26.597656 C 55.257812 24.074219 56.949219 21.554688 56.949219 21.554688 L 57.652344 22.320312 C 57.566406 23.902344 56.242188 26.929688 56.242188 26.929688 L 57.910156 27.578125 L 59.449219 23.304688 L 59.660156 20.785156 L 57.652344 18.820312 L 56.601562 18.390625 L 55.128906 15.230469 L 50.726562 16.640625 L 49.230469 16.210938 L 47.695312 16.726562 L 44.785156 15.230469 L 41.621094 16.511719 L 41.273438 17.300781 C 43.515625 15.730469 44.832031 17.667969 44.832031 17.667969 Z M 38.71875 27.882812 L 46.324219 26.300781 C 46.324219 26.300781 42.4375 20.660156 41.835938 17.496094 C 41.835938 17.496094 39.699219 19.550781 42.390625 26.300781 L 41.273438 26.472656 C 41.273438 26.472656 39.042969 23.335938 37.980469 19.90625 L 37.5625 20.316406 L 37.988281 22.667969 L 35.253906 21.644531 Z M 38.71875 27.882812 " fill-opacity="1" fill-rule="nonzero"/><path fill="#e5e3e3" d="M 38.511719 75.582031 C 38.195312 74.464844 37.273438 72.753906 36.367188 71.226562 C 36.367188 71.226562 36.441406 77.78125 37.816406 80.671875 L 35.640625 78.5625 L 35.339844 69.714844 L 36.367188 71.226562 C 35.285156 69.402344 34.222656 67.835938 34.222656 67.835938 L 34.222656 52.710938 C 36.269531 51.898438 38.476562 52.007812 38.476562 52.007812 C 36.824219 52.632812 35.425781 53.605469 35.425781 53.605469 L 35.855469 67.496094 C 38.332031 73.261719 38.511719 75.582031 38.511719 75.582031 Z M 27.582031 59.847656 L 27.277344 60.058594 C 27.683594 70.316406 33.652344 72.101562 33.652344 72.101562 L 33.949219 71.90625 C 28.238281 67.644531 27.582031 59.847656 27.582031 59.847656 Z M 46.070312 69.714844 C 46.757812 69.417969 47.984375 69.289062 47.984375 69.289062 L 47.984375 68.179688 C 47.117188 68.433594 46.070312 69.714844 46.070312 69.714844 Z M 46.070312 69.714844 " fill-opacity="1" fill-rule="nonzero"/><path fill="#2b2626" d="M 69.769531 57.679688 C 69.539062 57.484375 69.277344 57.355469 68.980469 57.292969 C 69.742188 55.226562 69.039062 53.980469 68.632812 53.480469 C 70.039062 45.753906 67.4375 42.789062 66.523438 42.015625 C 65.652344 38.5 62.667969 37.417969 61.671875 37.148438 C 60.675781 35.792969 59.191406 34.769531 57.261719 34.109375 L 58.394531 30.992188 C 59.394531 30.546875 59.699219 29.828125 59.777344 29.296875 C 59.898438 28.484375 59.535156 27.660156 58.84375 27.15625 C 59.574219 25.480469 60.992188 21.742188 59.902344 20.132812 C 58.980469 18.769531 57.859375 18.164062 57.34375 17.941406 C 57.085938 16.917969 56.363281 14.761719 54.921875 14.824219 C 53.84375 14.863281 51.578125 15.632812 50.570312 15.992188 C 49.839844 15.582031 48.757812 15.398438 47.789062 16.027344 C 47.113281 15.492188 45.578125 14.488281 43.984375 14.835938 C 42.902344 15.070312 41.105469 16.121094 39.78125 17.023438 C 36.882812 19.003906 36.917969 19.644531 36.933594 19.917969 C 36.953125 20.277344 37.054688 20.789062 37.152344 21.226562 C 36.585938 21.097656 35.769531 21.011719 34.734375 21.15625 L 33.515625 21.328125 L 34.382812 22.195312 C 34.40625 22.214844 36.492188 24.335938 37.671875 27.332031 C 37.113281 27.847656 36.847656 28.574219 36.957031 29.300781 C 37.035156 29.828125 37.34375 30.546875 38.339844 30.996094 L 39.511719 34.21875 C 38.722656 34.511719 38.007812 34.871094 37.378906 35.292969 C 36.585938 35.816406 35.921875 36.441406 35.402344 37.152344 C 34.402344 37.417969 31.421875 38.5 30.546875 42.015625 C 29.636719 42.792969 27.035156 45.753906 28.441406 53.484375 C 28.035156 53.984375 27.328125 55.230469 28.09375 57.300781 C 27.808594 57.367188 27.554688 57.496094 27.335938 57.683594 C 25.988281 58.832031 26.425781 62.847656 27.628906 66.066406 C 28.378906 68.085938 30.578125 72.78125 34.855469 73.144531 C 34.957031 74.984375 35.003906 76.644531 34.988281 78.09375 C 32.910156 83.652344 33.726562 91.6875 33.734375 91.769531 L 33.765625 92.066406 L 34.019531 92.226562 C 35.371094 93.066406 37.242188 93.75 39.578125 94.25 L 40.359375 94.417969 L 40.316406 93.621094 C 40.296875 93.28125 40.289062 92.933594 40.292969 92.585938 C 40.609375 93.199219 40.953125 93.796875 41.328125 94.375 L 41.480469 94.605469 L 41.75 94.648438 C 45.3125 95.191406 48.503906 95.199219 48.535156 95.199219 C 48.566406 95.199219 51.617188 95.191406 55.074219 94.683594 L 55.316406 94.683594 L 55.5 94.46875 C 56.164062 93.683594 57.109375 92.378906 58.039062 90.445312 C 58.015625 91.046875 57.960938 91.640625 57.878906 92.21875 L 57.597656 94.191406 L 58.941406 92.710938 L 58.960938 92.6875 C 58.988281 92.660156 59.027344 92.613281 59.085938 92.546875 C 59.066406 92.683594 59.046875 92.824219 59.023438 92.964844 L 58.863281 93.945312 L 59.8125 93.648438 C 61.089844 93.246094 62.179688 92.769531 63.050781 92.230469 L 63.308594 92.070312 L 63.335938 91.769531 C 63.421875 90.933594 64.089844 83.46875 62.085938 78.101562 C 62.070312 76.671875 62.113281 75.007812 62.214844 73.152344 C 66.515625 72.804688 68.722656 68.097656 69.480469 66.070312 C 70.679688 62.847656 71.121094 58.828125 69.769531 57.679688 Z M 68.332031 65.636719 C 67.675781 67.402344 65.785156 71.492188 62.296875 71.90625 C 62.332031 71.335938 62.375 70.769531 62.417969 70.226562 C 64.402344 68.648438 64.902344 65.839844 65.027344 64.644531 C 65.277344 64.320312 65.488281 64.046875 65.699219 63.796875 C 65.78125 63.695312 65.867188 63.589844 65.957031 63.480469 C 65.882812 64.1875 65.757812 64.867188 65.585938 65.503906 C 65.417969 66.167969 65.183594 66.835938 64.890625 67.492188 C 64.660156 68.054688 64.371094 68.589844 64.0625 69.152344 L 63.378906 70.417969 L 64.191406 69.628906 C 64.8125 69.03125 65.28125 68.457031 65.621094 67.878906 C 65.796875 67.621094 65.933594 67.34375 66.070312 67.074219 L 66.171875 66.871094 C 66.222656 66.761719 66.265625 66.652344 66.3125 66.539062 C 66.339844 66.476562 66.367188 66.414062 66.394531 66.347656 L 66.503906 66.078125 L 66.597656 65.8125 C 66.710938 65.488281 66.804688 65.15625 66.890625 64.835938 L 67.042969 64.152344 C 67.066406 64.023438 67.085938 63.898438 67.105469 63.773438 L 67.132812 63.585938 C 67.199219 63.140625 67.230469 62.777344 67.242188 62.441406 C 67.246094 62.3125 67.25 62.1875 67.25 62.0625 C 67.320312 61.988281 67.390625 61.917969 67.457031 61.84375 C 67.71875 61.574219 67.984375 61.292969 68.246094 60.996094 L 68.714844 60.460938 L 68.050781 60.714844 C 67.679688 60.859375 67.308594 61.039062 66.960938 61.25 C 66.726562 61.386719 66.507812 61.539062 66.300781 61.695312 C 66.226562 61.75 66.15625 61.804688 66.085938 61.863281 C 65.660156 62.203125 65.238281 62.589844 64.824219 63.015625 C 64.363281 63.488281 63.9375 63.984375 63.558594 64.488281 L 63.558594 61.679688 C 64.414062 60.820312 65.828125 59.601562 67.082031 58.925781 C 67.582031 58.65625 68.007812 58.5 68.34375 58.464844 C 68.613281 58.4375 68.824219 58.484375 68.972656 58.605469 C 69.484375 59.046875 69.71875 61.917969 68.332031 65.636719 Z M 60.464844 90.304688 L 60.367188 87.851562 L 59.300781 90.042969 C 59.292969 90.0625 59.28125 90.082031 59.273438 90.101562 C 59.304688 88.578125 59.144531 87.550781 59.144531 87.539062 L 58.785156 85.125 L 57.964844 87.425781 C 56.875 90.484375 55.605469 92.410156 54.714844 93.5 C 51.421875 93.964844 48.566406 93.972656 48.539062 93.972656 C 48.507812 93.972656 45.570312 93.964844 42.210938 93.476562 C 41.707031 92.675781 41.007812 91.421875 40.449219 89.875 L 39.667969 87.710938 L 39.269531 89.972656 C 39.269531 89.988281 39.054688 91.160156 39.074219 92.878906 C 37.378906 92.464844 35.988281 91.949219 34.929688 91.339844 C 34.820312 89.992188 34.464844 84.277344 35.738281 79.746094 C 36.171875 80.421875 36.675781 81.042969 37.230469 81.589844 C 38.15625 82.496094 39.203125 83.167969 40.34375 83.589844 L 41.925781 84.175781 L 41.085938 82.707031 C 41.082031 82.703125 40.824219 82.238281 40.605469 81.238281 C 41.773438 82.480469 43.308594 83.941406 44.648438 84.6875 L 46.117188 85.503906 L 45.519531 83.933594 C 45.519531 83.929688 45.5 83.882812 45.472656 83.796875 C 46.3125 84.703125 47.363281 85.691406 48.269531 86.128906 L 48.535156 86.257812 L 48.804688 86.128906 C 49.710938 85.691406 50.761719 84.703125 51.601562 83.796875 C 51.582031 83.867188 51.566406 83.914062 51.558594 83.933594 L 50.953125 85.511719 L 52.425781 84.6875 C 53.765625 83.941406 55.300781 82.480469 56.46875 81.238281 C 56.25 82.234375 55.992188 82.699219 55.988281 82.703125 L 55.113281 84.183594 L 56.730469 83.589844 C 59.101562 82.710938 60.578125 80.917969 61.335938 79.738281 C 62.609375 84.273438 62.253906 89.988281 62.144531 91.335938 C 61.632812 91.632812 61.035156 91.90625 60.367188 92.160156 C 60.46875 91.226562 60.46875 90.5625 60.464844 90.304688 Z M 29.484375 54.152344 L 29.773438 53.921875 L 29.703125 53.558594 C 28.121094 45.351562 31.40625 42.894531 31.433594 42.875 L 31.644531 42.734375 L 31.695312 42.492188 C 32.453125 39.007812 35.75 38.316406 35.886719 38.292969 L 36.066406 38.257812 L 36.105469 38.246094 C 38.226562 37.246094 40.257812 36.742188 42.144531 36.742188 C 43.597656 36.742188 44.414062 37.058594 44.425781 37.058594 L 44.539062 37.105469 L 44.617188 37.011719 C 45.597656 35.898438 47.820312 35.382812 48.574219 35.238281 C 47.964844 38.039062 48.183594 42.5625 48.191406 42.761719 L 48.238281 43.699219 L 48.535156 42.804688 C 49.097656 41.097656 50.585938 39.9375 51.355469 39.433594 C 49.402344 43.796875 48.765625 48.449219 48.757812 48.496094 L 48.644531 49.347656 L 49.082031 48.609375 C 51.605469 44.363281 57.605469 41.605469 59.65625 40.757812 L 56.691406 43.980469 L 61.367188 42.0625 C 62.074219 42.847656 62.433594 43.441406 62.578125 43.714844 C 59.410156 44.769531 57.085938 47.003906 57.058594 47.027344 L 56.574219 47.496094 L 57.226562 47.320312 C 58.515625 46.972656 59.839844 46.90625 60.851562 46.925781 C 59.667969 47.175781 58.742188 47.566406 58.6875 47.589844 L 57.777344 47.976562 L 58.761719 47.925781 C 62.636719 47.726562 65.203125 48.175781 66.140625 48.378906 C 63.898438 49.761719 61.804688 50.640625 60.796875 51.027344 L 62.585938 48.898438 L 61.230469 48.929688 C 61.078125 48.933594 57.625 49.023438 54.984375 49.601562 C 55.109375 49.410156 55.242188 49.242188 55.367188 49.101562 L 56.722656 47.636719 L 54.78125 48.09375 C 54.648438 48.125 51.460938 48.882812 48.535156 50.644531 C 45.617188 48.882812 42.425781 48.125 42.292969 48.09375 L 40.351562 47.636719 L 41.703125 49.101562 C 41.832031 49.242188 41.960938 49.40625 42.089844 49.597656 C 39.449219 49.023438 35.996094 48.933594 35.84375 48.929688 L 34.484375 48.898438 L 36.515625 51.308594 C 35.796875 51.46875 35.121094 51.660156 34.496094 51.886719 C 34.191406 51.992188 33.902344 52.109375 33.609375 52.238281 L 33.507812 52.285156 L 33.507812 54.792969 C 32.046875 54.054688 30.824219 54.234375 30.769531 54.242188 L 30.414062 54.296875 L 30.679688 54.542969 C 31.695312 55.492188 31.984375 56.820312 32.0625 57.328125 C 30.742188 57.203125 29.78125 57.292969 29.433594 57.332031 C 29.132812 56.683594 28.980469 56.082031 28.980469 55.546875 C 28.980469 54.625 29.4375 54.191406 29.484375 54.152344 Z M 38.160156 19.941406 C 38.601562 19.191406 42.65625 16.375 44.242188 16.03125 C 45.394531 15.78125 46.648438 16.679688 47.113281 17.054688 C 47.035156 17.539062 46.984375 18.054688 46.949219 18.65625 C 46.921875 19.296875 46.921875 19.945312 46.953125 20.597656 C 46.992188 21.214844 47.039062 21.875 47.144531 22.523438 C 47.246094 23.191406 47.398438 23.828125 47.597656 24.414062 L 47.640625 24.546875 L 47.953125 24.519531 L 47.957031 24.367188 C 47.980469 23.902344 47.984375 23.4375 47.984375 22.992188 C 47.984375 22.8125 47.988281 22.640625 47.988281 22.460938 C 47.988281 21.839844 47.996094 21.210938 48.023438 20.59375 C 48.039062 20.039062 48.082031 19.449219 48.144531 18.742188 C 48.207031 18.132812 48.269531 17.605469 48.34375 17.140625 C 49.179688 16.492188 50.03125 17.085938 50.125 17.15625 L 50.394531 17.359375 L 50.707031 17.242188 C 51.535156 16.9375 53.8125 16.160156 54.820312 16.058594 C 54.769531 16.957031 54.75 18.792969 55.324219 20.195312 C 55.210938 20.503906 55.132812 20.75 55.058594 20.984375 C 54.9375 21.394531 54.785156 21.941406 54.695312 22.503906 C 54.605469 22.996094 54.566406 23.527344 54.574219 24.078125 L 54.589844 24.917969 L 54.910156 24.144531 C 55.039062 23.839844 55.152344 23.535156 55.265625 23.238281 C 55.332031 23.066406 55.398438 22.894531 55.464844 22.71875 C 55.636719 22.273438 55.820312 21.800781 56.027344 21.335938 C 56.210938 20.910156 56.414062 20.472656 56.652344 20 C 56.808594 19.695312 56.953125 19.425781 57.085938 19.175781 C 57.539062 19.410156 58.261719 19.898438 58.890625 20.824219 C 59.441406 21.640625 58.742188 24.3125 57.753906 26.597656 C 54.925781 25.453125 50.375 25.351562 48.875 25.351562 C 48.566406 25.351562 48.390625 25.355469 48.378906 25.355469 C 48.363281 25.355469 46.710938 25.3125 44.648438 25.476562 C 44.410156 25.058594 44.175781 24.609375 43.949219 24.144531 C 43.648438 23.523438 43.394531 22.960938 43.167969 22.414062 C 42.898438 21.742188 42.683594 21.171875 42.496094 20.621094 C 42.367188 20.273438 42.25 19.914062 42.132812 19.566406 C 42.042969 19.304688 41.957031 19.042969 41.863281 18.777344 L 41.523438 17.808594 L 41.523438 18.835938 C 41.523438 19.5625 41.574219 20.214844 41.679688 20.828125 C 41.765625 21.402344 41.90625 22.003906 42.136719 22.777344 C 42.3125 23.378906 42.539062 23.996094 42.832031 24.664062 C 42.980469 25 43.132812 25.3125 43.296875 25.609375 C 42.144531 25.75 41.125 25.933594 40.253906 26.171875 L 38.941406 23.1875 L 38.621094 22.046875 C 38.484375 21.546875 38.214844 20.492188 38.160156 19.941406 Z M 51.945312 29.570312 C 51.03125 29.554688 50.183594 29.542969 49.34375 29.542969 C 49.027344 29.542969 48.714844 29.542969 48.398438 29.546875 C 47.144531 29.535156 45.949219 29.550781 44.839844 29.566406 C 44.121094 29.582031 43.394531 29.605469 42.648438 29.636719 C 43.308594 29.46875 44.027344 29.335938 44.816406 29.234375 C 45.980469 29.078125 47.179688 29.007812 48.390625 29.027344 C 49.601562 29.011719 50.804688 29.085938 51.972656 29.242188 C 52.753906 29.34375 53.46875 29.476562 54.125 29.644531 C 53.371094 29.609375 52.648438 29.585938 51.945312 29.570312 Z M 43.410156 33.195312 L 43.472656 33.183594 L 43.511719 33.136719 C 43.539062 33.101562 46.269531 29.921875 52.328125 31.304688 C 52.136719 31.367188 51.910156 31.453125 51.660156 31.550781 L 50.847656 31.878906 L 51.722656 31.890625 C 51.753906 31.890625 54.460938 31.933594 56.386719 32.9375 L 56.085938 33.765625 C 55.035156 33.511719 54.140625 33.421875 53.660156 33.390625 C 51.949219 31.6875 48.675781 31.667969 48.535156 31.667969 C 48.398438 31.667969 45.125 31.6875 43.417969 33.386719 C 43.152344 33.402344 42.6875 33.441406 42.109375 33.539062 C 42.472656 33.414062 42.90625 33.292969 43.410156 33.195312 Z M 63.5625 58.328125 L 63.5625 52.617188 L 65.804688 53.125 L 64.152344 55.992188 L 64.445312 56.003906 C 65.273438 56.03125 65.890625 56.28125 66.222656 56.453125 C 65.191406 56.988281 64.160156 57.8125 63.5625 58.328125 Z M 59.71875 72.289062 C 59.21875 73.175781 58.75 74.011719 58.386719 75.539062 L 57.992188 77.210938 L 58.71875 75.65625 C 59.285156 74.433594 59.996094 73.167969 60.882812 71.792969 C 60.953125 71.683594 61.027344 71.574219 61.101562 71.460938 C 60.96875 73.289062 60.839844 75.738281 60.863281 78.074219 C 60.632812 78.5625 59.609375 80.546875 57.59375 81.804688 C 57.773438 81.085938 57.894531 80.273438 57.953125 79.382812 L 58.078125 77.5 L 56.871094 78.949219 C 56.851562 78.972656 54.925781 81.277344 53.0625 82.769531 C 53.097656 82.429688 53.101562 82.109375 53.082031 81.804688 L 52.96875 80.210938 L 51.984375 81.476562 C 51.964844 81.5 50.007812 83.992188 48.535156 84.882812 C 47.140625 84.039062 45.304688 81.746094 45.089844 81.472656 L 44.109375 80.207031 L 43.996094 81.804688 C 43.972656 82.109375 43.980469 82.433594 44.011719 82.765625 C 42.144531 81.273438 40.222656 78.972656 40.203125 78.945312 L 38.996094 77.5 L 39.121094 79.378906 C 39.183594 80.273438 39.300781 81.085938 39.484375 81.804688 C 37.457031 80.542969 36.441406 78.558594 36.214844 78.070312 C 36.234375 75.761719 36.105469 73.3125 35.976562 71.472656 C 36.046875 71.582031 36.117188 71.683594 36.183594 71.792969 C 37.070312 73.167969 37.78125 74.433594 38.351562 75.652344 L 39.082031 77.207031 L 38.683594 75.535156 C 38.195312 73.503906 37.828125 72.941406 37.398438 72.289062 C 37.230469 72.035156 37.058594 71.769531 36.867188 71.398438 C 36.53125 70.746094 36.171875 70.082031 35.800781 69.429688 L 35.789062 69.40625 C 35.558594 69.011719 35.28125 68.539062 34.984375 68.054688 C 34.898438 67.921875 34.816406 67.789062 34.734375 67.65625 L 34.734375 53.101562 C 35.628906 52.765625 36.644531 52.496094 37.757812 52.308594 L 38.808594 52.125 L 37.199219 50.21875 C 38.859375 50.320312 41.484375 50.570312 43.089844 51.140625 L 44.363281 51.59375 L 43.863281 50.335938 C 43.863281 50.335938 43.765625 50.089844 43.589844 49.742188 C 44.890625 50.179688 46.625 50.875 48.210938 51.878906 L 48.535156 52.085938 L 48.867188 51.878906 C 50.453125 50.875 52.191406 50.179688 53.488281 49.742188 C 53.3125 50.089844 53.21875 50.335938 53.214844 50.335938 L 52.710938 51.59375 L 53.988281 51.140625 C 55.589844 50.570312 58.21875 50.320312 59.878906 50.214844 L 58.269531 52.125 L 59.320312 52.304688 C 60.433594 52.496094 61.449219 52.761719 62.339844 53.097656 L 62.339844 67.652344 C 62.25 67.785156 62.167969 67.917969 62.089844 68.054688 C 61.839844 68.449219 61.59375 68.867188 61.277344 69.414062 L 61.257812 69.457031 C 60.882812 70.113281 60.527344 70.765625 60.203125 71.394531 C 60.035156 71.71875 59.875 72.007812 59.71875 72.289062 Z M 28.730469 58.464844 C 29.058594 58.492188 29.476562 58.640625 29.972656 58.90625 C 31.207031 59.558594 32.636719 60.777344 33.507812 61.644531 L 33.507812 64.4375 C 33.136719 63.953125 32.722656 63.476562 32.28125 63.019531 C 31.867188 62.589844 31.441406 62.203125 31.019531 61.863281 C 30.945312 61.804688 30.875 61.75 30.800781 61.695312 C 30.597656 61.539062 30.375 61.386719 30.144531 61.25 C 29.792969 61.039062 29.425781 60.863281 29.050781 60.71875 L 28.386719 60.460938 L 28.859375 60.996094 C 29.121094 61.296875 29.386719 61.578125 29.648438 61.847656 L 29.855469 62.066406 C 29.855469 62.191406 29.859375 62.316406 29.863281 62.441406 C 29.875 62.78125 29.90625 63.144531 29.96875 63.59375 L 30 63.773438 C 30.019531 63.902344 30.039062 64.027344 30.066406 64.15625 L 30.183594 64.71875 L 30.214844 64.828125 C 30.304688 65.152344 30.394531 65.488281 30.511719 65.8125 L 30.605469 66.085938 L 30.714844 66.351562 C 30.742188 66.414062 30.769531 66.476562 30.796875 66.539062 C 30.839844 66.652344 30.886719 66.761719 30.941406 66.875 L 31.039062 67.070312 C 31.175781 67.339844 31.3125 67.617188 31.484375 67.871094 C 31.828125 68.457031 32.296875 69.03125 32.914062 69.628906 L 33.730469 70.417969 L 33.046875 69.152344 C 32.742188 68.589844 32.453125 68.058594 32.214844 67.488281 C 31.925781 66.835938 31.6875 66.164062 31.519531 65.5 C 31.351562 64.863281 31.226562 64.183594 31.152344 63.480469 C 31.246094 63.589844 31.332031 63.695312 31.414062 63.796875 C 31.601562 64.023438 31.792969 64.269531 32 64.535156 C 32.117188 65.765625 32.609375 68.65625 34.660156 70.253906 C 34.703125 70.792969 34.746094 71.347656 34.78125 71.902344 C 31.3125 71.464844 29.433594 67.390625 28.777344 65.636719 C 27.390625 61.917969 27.625 59.042969 28.132812 58.605469 C 28.269531 58.488281 28.46875 58.441406 28.730469 58.464844 Z M 40.222656 26.179688 C 39.664062 26.332031 39.167969 26.503906 38.738281 26.695312 C 38.050781 25.011719 37.121094 23.617188 36.417969 22.691406 C 37.261719 23.183594 38.617188 24.066406 39.421875 25.125 Z M 47.433594 64.644531 L 47.28125 64.800781 C 46.929688 65.164062 46.625 65.503906 46.355469 65.839844 L 46.355469 65.84375 C 46.222656 66.007812 46.070312 66.203125 45.929688 66.40625 C 45.796875 66.585938 45.667969 66.789062 45.535156 67.015625 L 45.246094 67.511719 L 45.761719 67.261719 C 45.984375 67.152344 46.195312 67.039062 46.398438 66.910156 C 46.585938 66.796875 46.78125 66.671875 46.992188 66.519531 C 47.269531 66.328125 47.558594 66.101562 47.898438 65.824219 C 48.109375 65.832031 48.324219 65.839844 48.535156 65.839844 C 48.75 65.839844 48.960938 65.832031 49.175781 65.824219 C 49.492188 66.085938 49.792969 66.316406 50.085938 66.519531 C 50.265625 66.648438 50.457031 66.777344 50.671875 66.910156 C 50.878906 67.039062 51.089844 67.152344 51.308594 67.261719 L 51.824219 67.507812 L 51.539062 67.011719 C 51.410156 66.785156 51.277344 66.585938 51.144531 66.40625 C 51 66.199219 50.855469 66.011719 50.71875 65.84375 C 50.441406 65.496094 50.125 65.144531 49.792969 64.800781 L 49.640625 64.644531 L 49.386719 64.632812 C 48.8125 64.605469 48.257812 64.605469 47.691406 64.632812 Z M 49.550781 60.839844 L 49.785156 60.324219 C 49.929688 60.007812 50.046875 59.699219 50.15625 59.398438 C 50.195312 59.289062 50.234375 59.183594 50.273438 59.074219 L 50.710938 57.847656 C 50.835938 57.480469 50.972656 57.074219 51.121094 56.609375 C 51.246094 56.207031 51.378906 55.769531 51.480469 55.304688 L 51.601562 54.746094 L 51.1875 55.140625 C 50.882812 55.433594 50.609375 55.789062 50.332031 56.261719 C 50.109375 56.652344 49.914062 57.074219 49.761719 57.515625 C 49.605469 57.945312 49.496094 58.402344 49.433594 58.867188 C 49.367188 59.363281 49.375 59.835938 49.453125 60.28125 Z M 45.914062 79.710938 C 45.945312 79.769531 46.667969 81.128906 48.535156 81.128906 C 50.363281 81.128906 52.113281 79.511719 52.1875 79.441406 L 52.539062 79.117188 L 45.792969 79.472656 Z M 60.765625 59.339844 C 60.535156 59.386719 60.3125 59.433594 60.101562 59.480469 L 60.082031 59.484375 C 60.066406 59.484375 60.054688 59.488281 60.050781 59.488281 C 60 59.503906 59.945312 59.515625 59.894531 59.523438 C 59.742188 59.558594 59.589844 59.59375 59.4375 59.644531 C 59.382812 59.660156 59.328125 59.675781 59.269531 59.695312 L 59.117188 59.742188 C 58.722656 59.859375 58.421875 59.960938 58.148438 60.066406 C 57.363281 60.351562 56.550781 60.722656 55.671875 61.207031 C 54.859375 61.664062 54.09375 62.175781 53.394531 62.726562 C 52.691406 63.289062 52.164062 63.773438 51.703125 64.289062 C 51.601562 64.214844 51.511719 64.140625 51.417969 64.066406 C 51.230469 63.914062 51.039062 63.730469 50.808594 63.484375 C 50.59375 63.265625 50.402344 63.019531 50.261719 62.832031 C 50.078125 62.585938 49.917969 62.347656 49.777344 62.105469 L 49.234375 61.160156 L 49.453125 62.226562 C 49.511719 62.503906 49.605469 62.789062 49.75 63.125 C 49.863281 63.390625 50.007812 63.664062 50.195312 63.964844 C 50.375 64.242188 50.570312 64.5 50.777344 64.726562 C 50.992188 64.980469 51.253906 65.199219 51.480469 65.394531 L 51.816406 65.675781 L 52.175781 65.332031 C 52.230469 65.273438 52.289062 65.21875 52.347656 65.164062 C 55.542969 64.597656 58.800781 64.59375 58.941406 64.597656 L 59.464844 64.601562 L 60.210938 60.019531 C 60.429688 59.90625 60.660156 59.789062 60.882812 59.664062 L 61.828125 59.136719 Z M 52.757812 75.28125 C 52.15625 75.054688 51.546875 74.851562 51.085938 74.703125 C 50.066406 74.371094 48.953125 74.0625 47.683594 73.75 C 46.597656 73.484375 45.46875 73.246094 44.242188 73.023438 C 43.867188 72.953125 43.488281 72.890625 43.117188 72.832031 C 42.914062 72.796875 42.710938 72.765625 42.503906 72.730469 L 40.058594 72.378906 L 40.074219 73.089844 C 40.085938 73.574219 40.128906 74.042969 40.214844 74.613281 C 40.296875 75.113281 40.410156 75.605469 40.546875 76.085938 C 40.679688 76.546875 40.859375 77.015625 41.09375 77.519531 C 41.292969 77.945312 41.5625 78.378906 41.910156 78.847656 L 42.808594 79.828125 L 43.164062 77.4375 L 56.691406 77.074219 L 54.421875 75.980469 C 53.835938 75.699219 53.277344 75.476562 52.757812 75.28125 Z M 51.113281 75.996094 L 43.320312 76.210938 L 43.304688 74.726562 L 42.285156 77.160156 C 42.253906 77.101562 42.226562 77.046875 42.199219 76.988281 C 41.988281 76.539062 41.832031 76.132812 41.722656 75.742188 C 41.59375 75.292969 41.492188 74.847656 41.425781 74.417969 C 41.394531 74.210938 41.367188 74.003906 41.347656 73.800781 L 42.316406 73.9375 C 42.539062 73.976562 42.757812 74.011719 42.980469 74.046875 C 43.320312 74.105469 43.675781 74.160156 44.023438 74.226562 C 45.25 74.449219 46.355469 74.683594 47.398438 74.9375 C 48.625 75.238281 49.710938 75.542969 50.714844 75.863281 C 50.847656 75.910156 50.984375 75.953125 51.113281 75.996094 Z M 50.335938 70.34375 L 50.332031 70.34375 C 50.101562 70.375 49.878906 70.453125 49.675781 70.570312 C 49.46875 70.683594 49.285156 70.851562 49.140625 71.058594 C 48.980469 71.289062 48.90625 71.546875 48.917969 71.800781 L 48.933594 72.050781 L 49.160156 71.953125 C 49.320312 71.886719 49.449219 71.824219 49.5625 71.765625 C 49.613281 71.742188 49.660156 71.714844 49.710938 71.691406 C 49.859375 71.617188 49.992188 71.546875 50.128906 71.464844 L 50.179688 71.4375 C 50.355469 71.335938 50.5 71.242188 50.640625 71.136719 C 50.816406 71.007812 50.96875 70.882812 51.128906 70.714844 L 51.300781 70.535156 L 51.074219 70.433594 C 50.855469 70.339844 50.621094 70.308594 50.335938 70.34375 Z M 47.402344 70.570312 C 47.195312 70.449219 46.972656 70.375 46.738281 70.339844 C 46.453125 70.308594 46.21875 70.339844 46 70.433594 L 45.773438 70.535156 L 45.945312 70.714844 C 46.125 70.902344 46.292969 71.035156 46.433594 71.140625 C 46.582031 71.246094 46.734375 71.34375 46.898438 71.441406 C 47.050781 71.527344 47.199219 71.613281 47.363281 71.691406 C 47.40625 71.714844 47.449219 71.734375 47.492188 71.757812 C 47.613281 71.816406 47.746094 71.886719 47.914062 71.953125 L 48.140625 72.050781 L 48.15625 71.800781 C 48.167969 71.546875 48.09375 71.289062 47.933594 71.054688 C 47.792969 70.855469 47.609375 70.6875 47.402344 70.570312 Z M 44.898438 65.332031 L 45.257812 65.675781 L 45.59375 65.394531 C 45.855469 65.171875 46.089844 64.96875 46.296875 64.730469 C 46.507812 64.496094 46.703125 64.238281 46.878906 63.964844 C 47.066406 63.667969 47.210938 63.394531 47.324219 63.125 C 47.472656 62.785156 47.5625 62.5 47.617188 62.222656 L 47.832031 61.160156 L 47.292969 62.105469 C 47.15625 62.34375 47 62.582031 46.8125 62.832031 C 46.671875 63.023438 46.480469 63.265625 46.261719 63.492188 C 46.046875 63.722656 45.847656 63.910156 45.652344 64.070312 C 45.558594 64.148438 45.46875 64.222656 45.371094 64.292969 C 44.910156 63.777344 44.382812 63.292969 43.679688 62.730469 C 42.980469 62.179688 42.210938 61.667969 41.402344 61.210938 C 40.527344 60.730469 39.714844 60.355469 38.929688 60.070312 C 38.613281 59.949219 38.289062 59.847656 37.957031 59.746094 L 37.640625 59.652344 C 37.484375 59.597656 37.324219 59.5625 37.171875 59.527344 L 37.027344 59.496094 C 37.015625 59.492188 37.003906 59.488281 36.988281 59.488281 L 36.953125 59.660156 L 36.96875 59.484375 C 36.75 59.433594 36.523438 59.386719 36.304688 59.347656 L 35.246094 59.148438 L 36.1875 59.671875 C 36.410156 59.792969 36.632812 59.910156 36.859375 60.023438 L 37.605469 64.605469 L 38.117188 64.601562 C 38.117188 64.601562 38.136719 64.601562 38.164062 64.601562 C 38.984375 64.605469 41.867188 64.660156 44.726562 65.167969 C 44.785156 65.21875 44.839844 65.277344 44.898438 65.332031 Z M 45.953125 56.609375 C 46.074219 57 46.210938 57.40625 46.363281 57.847656 L 46.796875 59.074219 C 46.839844 59.1875 46.882812 59.296875 46.921875 59.410156 C 47.03125 59.707031 47.144531 60.015625 47.285156 60.324219 L 47.519531 60.839844 L 47.617188 60.285156 C 47.699219 59.839844 47.703125 59.363281 47.636719 58.871094 C 47.578125 58.40625 47.46875 57.949219 47.316406 57.519531 C 47.160156 57.074219 46.96875 56.652344 46.742188 56.257812 C 46.457031 55.785156 46.1875 55.429688 45.886719 55.140625 L 45.476562 54.75 L 45.59375 55.304688 C 45.691406 55.769531 45.824219 56.203125 45.953125 56.609375 Z M 45.953125 56.609375 " fill-opacity="1" fill-rule="nonzero"/></svg>