<svg xmlns="http://www.w3.org/2000/svg" xmlns:xlink="http://www.w3.org/1999/xlink" width="130" zoomAndPan="magnify" viewBox="0 0 97.5 131.999998" height="176" preserveAspectRatio="xMidYMid meet" version="1.0"><defs><clipPath id="79e8b30b3b"><path d="M 6 18.339844 L 91.589844 18.339844 L 91.589844 113.847656 L 6 113.847656 Z M 6 18.339844 " clip-rule="nonzero"/></clipPath></defs><g clip-path="url(#79e8b30b3b)"><path fill="#1f7dd5" d="M 51.179688 113.824219 C 50.902344 113.828125 50.621094 113.828125 50.324219 113.828125 C 45.890625 113.828125 41.425781 113.574219 37.050781 113.066406 C 23.355469 111.476562 14.203125 107.886719 14.117188 107.851562 L 12.761719 107.3125 L 12.78125 105.820312 C 12.902344 97.65625 10.496094 84.800781 8.097656 77.085938 C 5.773438 69.621094 6.640625 61.902344 10.601562 54.761719 C 13.808594 48.972656 15.277344 42.507812 16.019531 30.910156 C 16.3125 26.308594 17.257812 22.898438 18.816406 20.765625 C 19.917969 19.261719 21.699219 18.363281 23.582031 18.363281 C 24.539062 18.363281 25.488281 18.601562 26.332031 19.046875 C 35.28125 23.78125 57.078125 43.566406 59.824219 46.074219 C 61.246094 46.941406 65.65625 49.683594 67.417969 51.441406 C 69.3125 53.328125 69.828125 57.738281 69.960938 60.382812 C 84.171875 76.925781 91.058594 103.765625 91.125 104.035156 L 91.589844 105.890625 L 89.8125 106.582031 C 78.199219 111.09375 65.765625 113.519531 52.847656 113.800781 Z M 51.179688 113.824219 " fill-opacity="1" fill-rule="nonzero"/></g><path fill="#eaeaea" d="M 59.929688 64.804688 C 57.789062 61.046875 54.183594 56.367188 49.457031 51.203125 C 49.457031 51.203125 49.457031 51.203125 49.457031 51.199219 C 49.457031 51.199219 49.457031 51.199219 49.453125 51.199219 C 49.894531 52.917969 50.472656 55.433594 50.472656 56.707031 C 50.472656 58.730469 47.960938 64.542969 47.855469 64.792969 L 46.628906 67.617188 L 46.984375 64.558594 C 46.988281 64.523438 47.417969 60.765625 46.988281 58.109375 C 46.578125 55.578125 45.5 48.011719 45.339844 46.871094 C 41.285156 42.765625 36.902344 38.746094 33.171875 35.710938 C 33.128906 36.84375 33.082031 38.789062 33.199219 39.960938 C 33.386719 41.796875 31.113281 47.367188 30.855469 47.996094 L 29.796875 50.558594 L 29.980469 47.792969 C 29.984375 47.726562 30.410156 41.113281 29.636719 39.003906 C 28.910156 37.027344 29.386719 33.910156 29.5625 32.941406 C 28.320312 32.058594 27.296875 31.425781 26.527344 31.066406 C 24.820312 30.273438 23.246094 30.132812 21.847656 30.65625 C 19.726562 31.441406 18.628906 33.503906 18.441406 33.890625 L 18.441406 33.894531 C 17.609375 44.191406 16.039062 50.363281 12.898438 56.027344 C 9.296875 62.527344 8.503906 69.542969 10.609375 76.3125 C 13.035156 84.113281 15.476562 97.097656 15.414062 105.539062 C 17.035156 106.144531 25.332031 109.074219 37.386719 110.46875 C 41.710938 110.96875 46.84375 111.300781 52.550781 111.191406 C 52.554688 111.191406 52.554688 111.191406 52.554688 111.191406 C 61.550781 109.523438 68.109375 105.511719 72.050781 99.265625 C 72.53125 98.507812 72.960938 97.730469 73.347656 96.941406 C 69.660156 86.699219 64.136719 72.183594 59.929688 64.804688 Z M 38.679688 45.542969 C 39.320312 45.800781 39.90625 46.210938 40.398438 46.699219 L 40.738281 47.085938 C 40.859375 47.21875 40.945312 47.363281 41.046875 47.503906 C 41.25 47.785156 41.394531 48.09375 41.539062 48.402344 C 41.621094 48.550781 41.667969 48.714844 41.722656 48.875 C 41.773438 49.035156 41.824219 49.195312 41.867188 49.359375 C 41.933594 49.6875 41.988281 50.019531 42.007812 50.355469 C 41.796875 50.082031 41.632812 49.804688 41.457031 49.535156 C 41.363281 49.402344 41.269531 49.269531 41.183594 49.140625 C 38.226562 49.59375 37.777344 45.898438 37.769531 45.820312 C 37.425781 45.625 37.0625 45.445312 36.667969 45.292969 C 37.335938 45.160156 38.039062 45.292969 38.679688 45.542969 Z M 60.441406 97.390625 C 51.976562 99.617188 44.742188 100.363281 38.851562 100.363281 C 34.46875 100.363281 30.832031 99.949219 27.992188 99.429688 C 20.75 98.109375 17.066406 95.886719 16.910156 95.792969 L 16.75 95.691406 L 16.707031 95.507812 C 14.8125 87.464844 14.140625 84.773438 13.738281 83.164062 C 13.226562 81.105469 13.117188 80.679688 11.453125 73.101562 C 9.644531 64.863281 13.113281 61.097656 16.339844 59.394531 C 18.121094 58.449219 20.191406 58.003906 22.320312 58.097656 C 29.238281 58.40625 35.566406 60.644531 41.136719 64.75 C 45.578125 68.023438 49.542969 72.488281 52.921875 78.011719 C 58.660156 87.402344 60.75 96.757812 60.773438 96.851562 L 60.863281 97.28125 Z M 59.585938 96.675781 C 45.324219 100.332031 34.671875 99.71875 28.214844 98.546875 C 22.3125 97.480469 18.765625 95.761719 17.714844 95.199219 L 19.1875 91.359375 L 21.761719 96.328125 L 24.4375 91.945312 L 27.414062 97.652344 L 30.246094 92.707031 L 33.039062 98.492188 L 36.5625 93.160156 L 39.992188 98.609375 L 43.652344 93.269531 L 47.222656 98.425781 L 50.613281 92.851562 L 53.914062 97.457031 L 56.574219 92.261719 Z M 54.003906 87.328125 L 54.003906 82.625 L 49.703125 82.089844 L 49.441406 76.433594 L 44.277344 76.910156 L 43.554688 70.21875 L 37.511719 72.265625 L 35.066406 65.058594 L 30.03125 69.539062 L 26.808594 62.257812 L 22.371094 68.773438 L 18.390625 61.507812 L 16.355469 68.953125 L 13.152344 65.375 L 13.152344 70.636719 L 11.894531 69.601562 C 11.648438 64.1875 14.285156 61.511719 16.773438 60.195312 C 18.40625 59.332031 20.316406 58.917969 22.285156 59.003906 C 37.53125 59.683594 46.933594 69.964844 52.132812 78.464844 C 54.132812 81.734375 55.6875 84.996094 56.855469 87.859375 Z M 54.003906 87.328125 " fill-opacity="1" fill-rule="nonzero"/><path fill="#1b3067" d="M 66.84375 54.792969 L 68.179688 61.816406 C 75.679688 70.558594 77.351562 76.601562 77.351562 76.601562 L 77.351562 93.035156 L 73.882812 95.757812 C 75.046875 84.535156 68.359375 70.386719 68.359375 70.386719 L 72.1875 73.332031 C 68.046875 66.113281 62.714844 62.746094 62.714844 62.746094 C 67.039062 60.261719 65.566406 53.292969 65.566406 53.292969 C 66.863281 53.609375 66.84375 54.792969 66.84375 54.792969 Z M 33.546875 80.996094 C 32.863281 82.539062 31.605469 85.566406 30.820312 88.59375 C 30.820312 88.59375 28.90625 83.289062 30.261719 77.699219 C 30.058594 77.523438 29.851562 77.355469 29.648438 77.1875 C 29.179688 78.199219 27.53125 81.878906 26.570312 85.5625 C 26.570312 85.5625 24.6875 80.339844 25.980469 74.804688 C 25.75 74.6875 25.511719 74.582031 25.277344 74.476562 C 24.574219 76.109375 23.460938 78.882812 22.734375 81.65625 C 22.734375 81.65625 21.398438 77.941406 21.753906 73.457031 C 21.585938 73.433594 21.421875 73.410156 21.253906 73.394531 C 16.839844 72.9375 13.75 75.132812 12.972656 75.757812 C 14.042969 80.632812 14.1875 81.195312 14.625 82.949219 C 15 84.460938 15.617188 86.925781 17.257812 93.867188 L 19.066406 89.144531 L 21.828125 94.484375 L 24.5 90.101562 L 27.453125 95.757812 L 30.320312 90.753906 L 32.238281 94.734375 C 34.046875 89.625 35.746094 85.328125 36.148438 84.304688 C 35.285156 83.105469 34.417969 82.003906 33.546875 80.996094 Z M 55.78125 45.242188 L 51.976562 45.242188 L 59.589844 49.011719 Z M 18.574219 32.011719 C 18.574219 32.011719 20.28125 26.707031 23.132812 26.558594 C 25.980469 26.414062 29.71875 29.285156 29.71875 29.285156 C 29.71875 29.285156 27.65625 25.996094 24.148438 24.371094 C 24.148438 24.371094 27.160156 24.988281 29.183594 26.5625 C 29.183594 26.5625 28.253906 23.328125 25.734375 21.707031 L 24.558594 20.554688 C 24.558594 20.554688 20.90625 20.464844 19.835938 23.351562 C 18.765625 26.238281 18.234375 28.636719 18.234375 28.636719 Z M 48.085938 49.726562 L 48.085938 49.609375 L 48.066406 49.542969 L 48.101562 49.414062 C 48.117188 49.367188 48.488281 48.136719 49.511719 46.472656 C 49.761719 46.0625 49.851562 45.582031 49.769531 45.113281 L 48.847656 39.824219 L 48.84375 39.824219 C 47.796875 38.910156 46.703125 37.964844 45.570312 36.996094 C 46.398438 39.4375 47.695312 43.59375 47.332031 44.679688 C 46.976562 45.734375 46.480469 46.472656 46.242188 46.789062 C 46.425781 48.082031 47.480469 55.476562 47.882812 57.96875 C 48.082031 59.191406 48.109375 60.609375 48.078125 61.820312 C 48.804688 59.914062 49.558594 57.683594 49.558594 56.707031 C 49.558594 54.984375 48.339844 50.523438 48.132812 49.777344 Z M 33.832031 27.363281 C 33.105469 26.800781 32.390625 26.257812 31.699219 25.746094 L 31.695312 25.746094 C 32.703125 30.703125 32.371094 31.015625 32.1875 31.1875 C 31.878906 31.480469 30.804688 32.621094 30.484375 32.957031 C 30.359375 33.625 29.808594 36.835938 30.488281 38.695312 C 30.984375 40.046875 31.039062 42.910156 30.996094 45.082031 C 31.683594 43.171875 32.378906 40.9375 32.292969 40.050781 C 32.113281 38.261719 32.292969 34.910156 32.296875 34.769531 L 32.304688 34.652344 L 32.367188 34.554688 C 32.378906 34.535156 33.5625 32.597656 34.082031 30.984375 C 34.199219 30.617188 34.246094 30.210938 34.246094 29.804688 C 34.246094 28.757812 33.945312 27.714844 33.832031 27.363281 Z M 33.832031 27.363281 " fill-opacity="1" fill-rule="nonzero"/><path fill="#979797" d="M 73.96875 96.765625 C 73.96875 96.765625 71 107.542969 60.863281 110.324219 C 50.730469 113.105469 42.578125 110.945312 42.578125 110.945312 C 52.855469 111.800781 60.019531 106.0625 60.019531 106.0625 C 58.59375 106.476562 55.507812 106.535156 55.507812 106.535156 C 58.238281 105.882812 61.144531 102.628906 61.144531 102.628906 C 55.507812 106.535156 48.503906 106.417969 48.503906 106.417969 C 59.1875 103.457031 60.863281 97.28125 60.863281 97.28125 L 60.707031 96.859375 L 48.207031 99.457031 L 50.613281 92.851562 L 56.457031 90.785156 L 59.679688 94.089844 L 58.121094 89.894531 L 57.585938 88.675781 L 54.695312 89.066406 L 44.277344 76.910156 L 47.972656 75.386719 C 46.84375 71.242188 45.308594 69.628906 45.308594 69.628906 C 48.398438 71.695312 51.824219 76.890625 54.367188 81.324219 L 54.203125 80.953125 L 51.296875 75.503906 C 57.886719 84.382812 62.714844 92.679688 62.714844 92.679688 C 59.589844 82.730469 55.78125 78.585938 55.78125 78.585938 C 57.558594 72.902344 56.855469 69.230469 56.855469 69.230469 C 59.269531 73.492188 62.714844 81.546875 62.714844 81.546875 C 59.828125 68.042969 51.976562 54.03125 51.976562 54.03125 L 56.160156 58.449219 L 60.554688 64.847656 L 67.558594 80.65625 Z M 38.652344 106.425781 C 44.347656 105.835938 49.800781 102.636719 49.800781 102.636719 C 29.253906 106.191406 18.234375 100.136719 18.234375 100.136719 C 29.390625 112.910156 44.707031 106.425781 44.707031 106.425781 C 41.976562 106.664062 38.652344 106.425781 38.652344 106.425781 Z M 39.335938 59.753906 C 39.335938 59.753906 32.597656 53.222656 27.253906 50.566406 C 27.253906 50.566406 29.703125 50.988281 33.347656 52.171875 C 33.347656 52.171875 28.445312 45.441406 20.488281 45.078125 C 20.488281 45.078125 20.253906 38.433594 22.625 37.722656 C 25 37.015625 27.253906 38.316406 27.253906 38.316406 C 27.253906 38.316406 24.242188 32.761719 18.269531 35.777344 L 17.433594 39.691406 L 15.207031 49.726562 L 12.222656 56.300781 L 10.339844 59.988281 L 10.339844 62.246094 C 10.339844 62.246094 13.601562 53.8125 21.082031 53.289062 C 28.5625 52.765625 39.335938 59.753906 39.335938 59.753906 Z M 39.335938 59.753906 " fill-opacity="1" fill-rule="nonzero"/><path fill="#0d1016" d="M 89.660156 104.402344 C 89.59375 104.128906 82.667969 77.183594 68.476562 60.972656 C 68.429688 59.714844 68.136719 54.289062 66.351562 52.507812 C 64.59375 50.757812 59.566406 47.683594 58.914062 47.285156 C 56.367188 44.960938 34.492188 25.074219 25.625 20.378906 C 23.714844 19.367188 21.3125 19.914062 20.039062 21.652344 C 18.648438 23.550781 17.804688 26.695312 17.527344 31.003906 C 16.773438 42.847656 15.253906 49.484375 11.921875 55.492188 C 8.167969 62.265625 7.34375 69.578125 9.542969 76.640625 C 11.976562 84.464844 14.417969 97.527344 14.296875 105.84375 L 14.289062 106.292969 L 14.707031 106.457031 C 14.789062 106.492188 23.71875 109.996094 37.226562 111.566406 C 41.539062 112.066406 45.945312 112.320312 50.324219 112.320312 C 51.078125 112.320312 51.769531 112.3125 52.429688 112.300781 L 52.441406 112.34375 L 52.675781 112.296875 C 65.464844 112.03125 77.777344 109.636719 89.265625 105.175781 L 89.800781 104.96875 Z M 37.40625 110.269531 C 25.65625 108.910156 17.453125 106.078125 15.613281 105.402344 C 15.644531 96.945312 13.195312 83.96875 10.796875 76.253906 C 8.710938 69.535156 9.496094 62.578125 13.070312 56.125 C 16.246094 50.398438 17.804688 44.175781 18.632812 33.945312 C 18.867188 33.484375 19.933594 31.582031 21.914062 30.84375 C 23.261719 30.339844 24.785156 30.476562 26.441406 31.25 C 27.167969 31.589844 28.144531 32.191406 29.339844 33.035156 C 29.15625 34.101562 28.730469 37.128906 29.445312 39.074219 C 30.207031 41.148438 29.78125 47.714844 29.777344 47.78125 L 29.515625 51.765625 L 31.039062 48.074219 C 31.300781 47.4375 33.589844 41.824219 33.398438 39.941406 C 33.292969 38.871094 33.328125 37.125 33.359375 36.121094 C 36.988281 39.101562 41.261719 43.027344 45.148438 46.964844 C 45.394531 48.726562 46.402344 55.757812 46.785156 58.140625 C 47.214844 60.78125 46.789062 64.496094 46.78125 64.535156 L 46.269531 68.945312 L 48.035156 64.871094 C 48.304688 64.25 50.667969 58.71875 50.667969 56.707031 C 50.667969 55.605469 50.253906 53.625 49.835938 51.925781 C 54.28125 56.835938 57.703125 61.3125 59.75 64.90625 C 63.886719 72.164062 69.300781 86.308594 73.121094 96.933594 C 72.746094 97.699219 72.324219 98.449219 71.875 99.164062 C 67.96875 105.355469 61.460938 109.335938 52.53125 110.992188 C 47.488281 111.089844 42.394531 110.84375 37.40625 110.269531 Z M 25.007812 21.535156 C 26.394531 22.269531 28.214844 23.453125 30.417969 25.050781 C 30.949219 27.5625 31.320312 29.894531 31.296875 30.507812 C 30.949219 30.847656 30.296875 31.535156 29.976562 31.875 C 28.765625 31.03125 27.761719 30.421875 26.996094 30.0625 C 25.808594 29.511719 24.667969 29.234375 23.582031 29.234375 C 22.84375 29.234375 22.132812 29.359375 21.453125 29.613281 C 20.480469 29.976562 19.59375 30.585938 18.816406 31.421875 C 18.824219 31.308594 18.828125 31.199219 18.835938 31.085938 C 19.097656 27.027344 19.855469 24.113281 21.097656 22.421875 C 21.988281 21.210938 23.667969 20.824219 25.007812 21.535156 Z M 35.28125 28.746094 C 37.851562 30.773438 40.789062 33.191406 44.027344 35.941406 C 45.324219 39.558594 46.300781 43.066406 46.300781 44.117188 C 46.300781 44.242188 46.289062 44.300781 46.277344 44.328125 C 46.097656 44.875 45.867188 45.320312 45.675781 45.636719 C 41.648438 41.582031 37.269531 37.589844 33.605469 34.640625 C 33.984375 33.972656 34.734375 32.585938 35.140625 31.324219 C 35.371094 30.613281 35.417969 29.75 35.28125 28.746094 Z M 49.339844 46.367188 C 48.285156 48.085938 47.914062 49.347656 47.914062 49.359375 L 47.855469 49.542969 L 47.886719 49.640625 L 47.890625 49.808594 L 47.953125 49.878906 C 48.21875 50.835938 49.363281 55.070312 49.363281 56.707031 C 49.363281 57.363281 48.984375 58.753906 48.292969 60.679688 C 48.28125 59.632812 48.210938 58.714844 48.085938 57.9375 C 47.6875 55.460938 46.625 48.035156 46.457031 46.84375 C 46.695312 46.519531 47.179688 45.78125 47.53125 44.746094 C 47.867188 43.738281 46.933594 40.453125 45.996094 37.621094 C 46.957031 38.445312 47.835938 39.207031 48.667969 39.933594 L 49.578125 45.152344 C 49.644531 45.566406 49.5625 46 49.339844 46.367188 Z M 33.894531 30.921875 C 33.425781 32.371094 32.40625 34.105469 32.199219 34.449219 L 32.109375 34.589844 L 32.097656 34.785156 C 32.058594 35.617188 31.933594 38.453125 32.09375 40.070312 C 32.152344 40.652344 31.839844 41.976562 31.210938 43.859375 C 31.207031 41.917969 31.097656 39.761719 30.679688 38.625 C 30.03125 36.863281 30.535156 33.792969 30.671875 33.050781 L 30.773438 32.945312 C 31.191406 32.503906 32.0625 31.585938 32.328125 31.335938 C 32.574219 31.109375 32.902344 30.800781 32 26.21875 C 32.601562 26.667969 33.1875 27.121094 33.664062 27.488281 C 33.792969 27.90625 34.050781 28.855469 34.050781 29.808594 C 34.046875 30.230469 33.996094 30.605469 33.894531 30.921875 Z M 73.898438 95.203125 C 70.160156 84.894531 64.933594 71.339844 60.894531 64.257812 C 57.960938 59.109375 52.984375 53.347656 49.289062 49.390625 C 49.359375 49.207031 49.476562 48.914062 49.648438 48.546875 C 49.878906 48.054688 50.148438 47.554688 50.457031 47.050781 C 50.847656 46.417969 50.992188 45.660156 50.863281 44.925781 L 50.230469 41.300781 C 52.507812 43.296875 54.4375 45.019531 55.679688 46.136719 C 56.921875 47.253906 57.746094 48.003906 57.996094 48.230469 L 58.085938 48.3125 L 58.171875 48.375 C 58.226562 48.40625 63.679688 51.703125 65.417969 53.4375 C 66.597656 54.613281 67.117188 58.847656 67.167969 61.238281 L 67.171875 61.480469 L 67.332031 61.664062 C 69.984375 64.671875 72.570312 68.28125 75.019531 72.402344 C 75.375 73.785156 78.015625 85.039062 73.898438 95.203125 Z M 54.828125 51.585938 C 55.078125 52.324219 57.367188 58.828125 60.628906 59.191406 C 60.769531 59.207031 60.914062 59.214844 61.054688 59.214844 C 63.574219 59.214844 64.738281 56.605469 65 55.226562 L 65.097656 54.707031 L 54.363281 50.210938 Z M 37.582031 45.945312 C 37.648438 46.375 37.964844 47.996094 39.089844 48.851562 C 39.648438 49.277344 40.320312 49.445312 41.085938 49.355469 C 41.152344 49.453125 41.222656 49.550781 41.289062 49.644531 C 41.332031 49.710938 41.375 49.777344 41.414062 49.84375 C 41.546875 50.054688 41.683594 50.269531 41.847656 50.480469 L 42.246094 50.992188 L 42.207031 50.347656 C 42.1875 50.046875 42.144531 49.730469 42.058594 49.304688 C 42.011719 49.140625 41.964844 48.976562 41.910156 48.8125 L 41.882812 48.730469 C 41.835938 48.59375 41.789062 48.449219 41.71875 48.320312 C 41.566406 47.996094 41.414062 47.675781 41.207031 47.394531 C 41.183594 47.359375 41.164062 47.324219 41.136719 47.289062 C 41.0625 47.179688 40.984375 47.0625 40.890625 46.957031 L 40.539062 46.5625 C 40.011719 46.035156 39.390625 45.617188 38.75 45.359375 C 37.988281 45.058594 37.273438 44.96875 36.625 45.097656 L 35.949219 45.230469 L 36.589844 45.480469 C 36.925781 45.609375 37.25 45.761719 37.582031 45.945312 Z M 53.09375 77.910156 C 49.703125 72.363281 45.722656 67.878906 41.257812 64.585938 C 35.65625 60.457031 29.289062 58.207031 22.335938 57.898438 C 20.164062 57.800781 18.0625 58.257812 16.25 59.214844 C 12.960938 60.957031 9.425781 64.785156 11.257812 73.148438 C 12.925781 80.738281 13.03125 81.164062 13.542969 83.210938 L 13.582031 83.363281 C 13.992188 85.007812 14.675781 87.757812 16.511719 95.554688 L 16.574219 95.816406 L 16.808594 95.964844 C 17.207031 96.203125 20.894531 98.339844 27.957031 99.628906 C 31.355469 100.246094 35.019531 100.5625 38.851562 100.5625 C 45.703125 100.5625 52.984375 99.558594 60.492188 97.585938 L 61.101562 97.429688 L 60.96875 96.8125 C 60.949219 96.71875 58.847656 87.324219 53.09375 77.910156 Z M 59.257812 96.550781 C 57.445312 97.011719 55.691406 97.402344 54 97.730469 L 56.601562 92.65625 Z M 21.78125 96.691406 L 24.425781 92.355469 L 27.410156 98.074219 L 30.234375 93.140625 L 33.011719 98.902344 L 36.558594 93.535156 L 39.988281 98.980469 L 43.652344 93.625 L 47.21875 98.773438 C 39.039062 99.691406 32.648438 99.148438 28.25 98.351562 C 25.621094 97.875 23.457031 97.265625 21.78125 96.691406 Z M 21.714844 96.667969 C 19.832031 96.019531 18.574219 95.417969 17.96875 95.105469 L 19.21875 91.851562 Z M 22.273438 59.207031 C 37.429688 59.882812 46.78125 70.113281 51.960938 78.574219 C 52.71875 79.8125 53.445312 81.101562 54.136719 82.441406 L 49.894531 81.914062 L 49.628906 76.210938 L 44.457031 76.691406 L 43.726562 69.945312 L 37.640625 72.007812 L 35.15625 64.703125 L 30.101562 69.207031 L 26.84375 61.84375 L 22.390625 68.390625 L 18.328125 60.976562 L 16.257812 68.546875 L 12.949219 64.847656 L 12.949219 70.210938 L 12.089844 69.503906 C 11.875 64.164062 14.5625 61.589844 16.863281 60.375 C 18.46875 59.527344 20.339844 59.121094 22.273438 59.207031 Z M 54.207031 87.164062 L 54.207031 82.578125 C 55.035156 84.1875 55.808594 85.863281 56.527344 87.59375 Z M 21.234375 73.59375 C 21.335938 73.601562 21.4375 73.613281 21.539062 73.628906 C 21.234375 78.019531 22.53125 81.683594 22.546875 81.722656 L 22.765625 82.332031 L 22.929688 81.703125 C 23.605469 79.109375 24.621094 76.519531 25.378906 74.742188 C 25.511719 74.800781 25.632812 74.859375 25.746094 74.910156 C 24.527344 80.386719 26.363281 85.578125 26.378906 85.628906 L 26.601562 86.238281 L 26.761719 85.609375 C 27.648438 82.214844 29.136719 78.785156 29.71875 77.507812 C 29.820312 77.589844 29.929688 77.679688 30.035156 77.769531 C 28.738281 83.3125 30.609375 88.605469 30.628906 88.65625 L 30.847656 89.265625 L 31.007812 88.640625 C 31.75 85.808594 32.902344 82.96875 33.597656 81.367188 C 34.371094 82.269531 35.148438 83.261719 35.917969 84.328125 C 35.414062 85.601562 33.863281 89.554688 32.207031 94.210938 L 30.332031 90.320312 L 27.457031 95.335938 L 24.507812 89.683594 L 21.835938 94.0625 L 19.03125 88.644531 L 17.296875 93.175781 C 15.839844 87.023438 15.234375 84.582031 14.867188 83.109375 L 14.804688 82.867188 C 14.378906 81.152344 14.234375 80.566406 13.1875 75.832031 C 14.136719 75.109375 17.082031 73.164062 21.234375 73.59375 Z M 53.875 97.753906 C 51.554688 98.203125 49.34375 98.53125 47.25 98.769531 L 50.628906 93.21875 Z M 53.875 97.753906 " fill-opacity="1" fill-rule="nonzero"/></svg>