<svg xmlns="http://www.w3.org/2000/svg" xmlns:xlink="http://www.w3.org/1999/xlink" width="130" zoomAndPan="magnify" viewBox="0 0 97.5 131.999998" height="176" preserveAspectRatio="xMidYMid meet" version="1.0"><defs><clipPath id="c99b7a412f"><path d="M 12 10.035156 L 97.003906 10.035156 L 97.003906 131.664062 L 12 131.664062 Z M 12 10.035156 " clip-rule="nonzero"/></clipPath><clipPath id="2ca00d9efd"><path d="M 15 15 L 97.003906 15 L 97.003906 131.664062 L 15 131.664062 Z M 15 15 " clip-rule="nonzero"/></clipPath><clipPath id="4bbcbaa7e2"><path d="M 63 68 L 97.003906 68 L 97.003906 96 L 63 96 Z M 63 68 " clip-rule="nonzero"/></clipPath><clipPath id="32d1697974"><path d="M 87 71 L 97.003906 71 L 97.003906 93 L 87 93 Z M 87 71 " clip-rule="nonzero"/></clipPath><clipPath id="ec9a0bd8f6"><path d="M 19 103 L 97.003906 103 L 97.003906 131.664062 L 19 131.664062 Z M 19 103 " clip-rule="nonzero"/></clipPath><clipPath id="e7d1c797d5"><path d="M 24 15 L 97.003906 15 L 97.003906 63 L 24 63 Z M 24 15 " clip-rule="nonzero"/></clipPath></defs><g clip-path="url(#c99b7a412f)"><path fill="#a6bae8" d="M 80.695312 10.035156 C 79.769531 13.605469 78.601562 17.683594 76.683594 20.351562 C 74.765625 23.019531 72.402344 24.609375 69.648438 25.777344 C 66.683594 27.039062 63.328125 27.667969 59.855469 28.117188 C 53.148438 28.988281 45.960938 29.105469 40.179688 31.476562 C 40.179688 31.476562 40.449219 30.097656 40.871094 28.777344 C 41.257812 27.457031 41.949219 26.109375 41.949219 26.109375 C 34.371094 28.746094 27.816406 33.753906 24.222656 40.171875 C 20.898438 46.199219 19.640625 53.722656 21.644531 61.25 C 12.183594 67.308594 9.789062 82.929688 15.449219 95.070312 C 16.796875 97.921875 18.113281 100.050781 17.515625 102.238281 C 15.179688 110.605469 15.238281 117.949219 17.453125 125.207031 C 19.308594 131.234375 22.15625 135.96875 27.816406 141.007812 C 33.472656 146.046875 39.3125 149.882812 47.339844 153.992188 C 47.339844 153.992188 53.777344 157.019531 62.070312 158.789062 C 67.011719 159.746094 70.84375 160.019531 75.484375 159.957031 C 76.5625 156.78125 77.941406 153.421875 79.378906 150.78125 C 81.085938 147.632812 82.882812 145.085938 84.4375 143.136719 C 85.875 145.804688 87.914062 147.964844 90.398438 149.824219 C 90.816406 146.675781 91.804688 143.4375 93.121094 140.886719 C 97.585938 132.28125 109.082031 127.15625 104.230469 102.507812 C 103.753906 100.078125 104.949219 97.832031 106.238281 95.101562 C 111.839844 83.136719 109.59375 67.816406 100.488281 61.578125 C 104.53125 52.914062 105.011719 44.007812 103.183594 36.722656 C 101.359375 29.40625 97.136719 22.929688 92.671875 18.582031 C 88.210938 14.175781 85.367188 12.464844 80.695312 10.035156 Z M 80.695312 10.035156 " fill-opacity="1" fill-rule="nonzero"/></g><g clip-path="url(#2ca00d9efd)"><path fill="#000000" d="M 82.761719 15.132812 C 75.875 39.8125 43.746094 25.839844 35.0625 39.8125 C 34.910156 36.691406 36.167969 32.855469 36.167969 32.855469 C 26.855469 37.59375 20.925781 50.425781 25.6875 62.960938 C 16.226562 66.585938 12.871094 81.609375 18.5 93.632812 C 19.757812 96.300781 21.707031 99.691406 20.746094 103.136719 C 16.105469 119.75 22.335938 133.75 32.726562 140.46875 C 32.726562 140.46875 31.378906 136.570312 31.46875 133.511719 C 43.566406 156.960938 73.121094 156.601562 73.121094 156.601562 C 73.121094 156.601562 77.761719 143.585938 86.027344 136.421875 C 86.027344 136.421875 85.847656 140.257812 88.691406 143.167969 C 92.046875 130.273438 106.179688 129.554688 100.96875 103.136719 C 100.28125 99.628906 101.957031 96.300781 103.214844 93.632812 C 108.84375 81.609375 105.488281 66.558594 96.027344 62.960938 C 107.105469 43.230469 97.855469 23.949219 82.761719 15.132812 Z M 82.761719 15.132812 " fill-opacity="1" fill-rule="nonzero"/></g><path fill="#ffffff" d="M 39.640625 83.859375 C 37.367188 82.300781 37.90625 80.949219 35.929688 79.988281 C 37.667969 79 39.761719 79.601562 41.769531 81.007812 C 43.773438 82.417969 45.871094 84.21875 48.148438 84.699219 C 45.511719 85.476562 41.917969 85.445312 39.640625 83.859375 Z M 39.640625 83.859375 " fill-opacity="1" fill-rule="nonzero"/><path fill="#a9bbe3" d="M 57.578125 81.847656 C 55.09375 86.617188 48.085938 83.4375 43.65625 80.019531 C 39.195312 76.601562 34.371094 75.972656 30.628906 78.28125 C 35.660156 80.171875 33.5625 84.878906 39.253906 85.988281 C 39.253906 85.988281 37.667969 86.617188 36.46875 88.625 C 36.46875 88.625 42.515625 86.796875 49.316406 88.234375 C 48.507812 89.015625 47.847656 89.976562 47.398438 91.054688 C 47.160156 91.683594 46.980469 92.34375 46.917969 93.035156 C 45.183594 93.183594 43.027344 93.574219 40.871094 94.351562 C 38.234375 95.3125 31.4375 97.289062 27.066406 94.144531 C 27.066406 94.144531 29.160156 93.691406 29.789062 92.972656 C 26.109375 91.144531 21.707031 84.488281 24.492188 77.589844 C 27.246094 70.695312 34.074219 71.203125 34.074219 71.203125 C 33.59375 70.304688 31.707031 69.675781 31.707031 69.675781 C 44.972656 66.105469 60.453125 74.742188 57.578125 81.847656 Z M 57.578125 81.847656 " fill-opacity="1" fill-rule="nonzero"/><path fill="#8094b4" d="M 30.628906 78.25 C 30.628906 78.25 24.582031 83.828125 29.820312 92.941406 C 29.191406 93.664062 27.097656 94.113281 27.097656 94.113281 C 31.46875 97.230469 38.265625 95.28125 40.898438 94.324219 C 43.054688 93.542969 45.210938 93.183594 46.949219 93.003906 C 47.007812 92.3125 47.160156 91.652344 47.429688 91.023438 C 47.847656 89.976562 48.507812 89.015625 49.34375 88.207031 C 47.9375 87.90625 46.53125 87.757812 45.242188 87.695312 C 45.242188 87.695312 45.210938 87.695312 45.210938 87.695312 C 45.121094 87.695312 45.0625 87.695312 44.972656 87.695312 C 44.941406 87.695312 44.882812 87.695312 44.851562 87.695312 C 44.792969 87.695312 44.734375 87.695312 44.644531 87.695312 C 44.582031 87.695312 44.523438 87.695312 44.492188 87.695312 C 44.433594 87.695312 44.375 87.695312 44.3125 87.695312 C 44.253906 87.695312 44.195312 87.695312 44.132812 87.695312 C 44.074219 87.695312 44.042969 87.695312 43.984375 87.695312 C 43.953125 87.695312 43.925781 87.695312 43.894531 87.695312 C 43.863281 87.695312 43.835938 87.695312 43.804688 87.695312 C 43.746094 87.695312 43.683594 87.695312 43.625 87.695312 C 43.566406 87.695312 43.503906 87.695312 43.445312 87.695312 C 43.414062 87.695312 43.414062 87.695312 43.386719 87.695312 C 42.847656 87.695312 42.308594 87.726562 41.828125 87.757812 C 41.796875 87.757812 41.769531 87.757812 41.738281 87.757812 C 41.707031 87.757812 41.679688 87.757812 41.648438 87.757812 C 41.558594 87.757812 41.46875 87.757812 41.378906 87.785156 C 41.347656 87.785156 41.347656 87.785156 41.320312 87.785156 C 41.199219 87.785156 41.109375 87.816406 40.988281 87.816406 C 38.296875 88.085938 36.527344 88.625 36.527344 88.625 C 37.726562 86.585938 39.3125 85.988281 39.3125 85.988281 C 33.535156 84.847656 35.660156 80.140625 30.628906 78.25 Z M 30.628906 78.25 " fill-opacity="1" fill-rule="nonzero"/><path fill="#8094b4" d="M 37.996094 68.835938 C 35.898438 68.835938 33.773438 69.105469 31.707031 69.644531 C 48.804688 68.296875 57.878906 78.25 55.242188 81.460938 C 52.578125 84.667969 47.457031 79.691406 46.261719 75.882812 C 46.261719 75.882812 46.351562 78.070312 47.007812 79.898438 C 43.925781 78.101562 40.539062 75.882812 37.308594 75.851562 C 32.964844 75.851562 30.628906 78.25 30.628906 78.25 C 34.371094 75.941406 39.195312 76.570312 43.65625 79.988281 C 48.058594 83.378906 54.972656 86.527344 57.519531 81.96875 C 57.609375 81.757812 57.699219 81.519531 57.789062 81.25 C 59.316406 75.402344 48.984375 68.777344 37.996094 68.835938 Z M 37.996094 68.835938 " fill-opacity="1" fill-rule="nonzero"/><path fill="#8094b4" d="M 33.804688 71.175781 C 33.984375 71.175781 34.101562 71.175781 34.101562 71.175781 C 34.101562 71.175781 26.4375 72.195312 25.328125 80.558594 C 24.25 88.894531 29.820312 92.941406 29.820312 92.941406 C 26.136719 91.113281 21.734375 84.457031 24.519531 77.5625 C 26.917969 71.535156 32.457031 71.175781 33.804688 71.175781 Z M 33.804688 71.175781 " fill-opacity="1" fill-rule="nonzero"/><path fill="#ffffff" d="M 82.222656 83.859375 C 84.5 82.300781 83.960938 80.949219 85.9375 79.988281 C 84.199219 79 82.101562 79.601562 80.097656 81.007812 C 78.089844 82.417969 75.996094 84.21875 73.71875 84.699219 C 76.324219 85.476562 79.917969 85.445312 82.222656 83.859375 Z M 82.222656 83.859375 " fill-opacity="1" fill-rule="nonzero"/><g clip-path="url(#4bbcbaa7e2)"><path fill="#a9bbe3" d="M 83.839844 68.835938 C 72.492188 68.777344 61.859375 75.882812 64.285156 81.847656 C 66.5625 86.195312 72.582031 83.917969 77.011719 80.890625 C 75.304688 76.632812 72.851562 73.722656 72.851562 73.722656 C 72.851562 73.722656 76.773438 75.703125 79.019531 79.449219 C 83.242188 76.542969 87.734375 76.09375 91.238281 78.28125 C 86.207031 80.171875 88.300781 84.878906 82.613281 85.988281 C 82.613281 85.988281 84.199219 86.617188 85.398438 88.625 C 85.398438 88.625 83.269531 87.964844 80.097656 87.757812 C 79.738281 89.015625 79.109375 90.363281 78.210938 91.773438 C 78.511719 90.394531 78.601562 89.015625 78.539062 87.695312 C 76.742188 87.667969 74.675781 87.785156 72.582031 88.234375 C 73.390625 89.015625 74.046875 89.976562 74.496094 91.054688 C 74.738281 91.683594 74.917969 92.34375 74.976562 93.035156 C 76.714844 93.183594 78.871094 93.574219 81.027344 94.351562 C 83.660156 95.3125 90.457031 97.289062 94.828125 94.171875 C 94.828125 94.171875 92.734375 93.722656 92.105469 93.003906 C 95.789062 91.175781 100.191406 84.519531 97.40625 77.621094 C 94.648438 70.726562 87.824219 71.234375 87.824219 71.234375 C 88.300781 70.335938 90.1875 69.707031 90.1875 69.707031 C 88.0625 69.074219 85.9375 68.835938 83.839844 68.835938 Z M 83.839844 68.835938 " fill-opacity="1" fill-rule="nonzero"/></g><path fill="#8094b4" d="M 91.238281 78.25 C 86.207031 80.140625 88.300781 84.847656 82.613281 85.957031 C 82.613281 85.957031 84.199219 86.585938 85.398438 88.59375 C 85.398438 88.59375 83.269531 87.9375 80.097656 87.726562 C 79.738281 88.984375 79.109375 90.335938 78.210938 91.742188 C 78.511719 90.363281 78.601562 88.984375 78.539062 87.667969 C 76.742188 87.636719 74.675781 87.757812 72.582031 88.207031 C 73.390625 88.984375 74.046875 89.945312 74.496094 91.023438 C 74.738281 91.652344 74.917969 92.3125 74.976562 93.003906 C 76.714844 93.152344 78.871094 93.542969 81.027344 94.324219 C 83.660156 95.28125 90.457031 97.261719 94.828125 94.144531 C 94.828125 94.144531 92.734375 93.691406 92.105469 92.972656 C 97.253906 83.828125 91.238281 78.25 91.238281 78.25 Z M 91.238281 78.25 " fill-opacity="1" fill-rule="nonzero"/><path fill="#8094b4" d="M 83.839844 68.835938 C 72.492188 68.777344 61.859375 75.882812 64.285156 81.847656 C 66.5625 86.195312 72.582031 83.917969 77.011719 80.890625 C 76.683594 80.078125 76.355469 79.332031 75.996094 78.640625 C 73.539062 81.039062 68.148438 83.410156 66.5625 80.949219 C 65.035156 78.3125 73.839844 67.15625 90.128906 69.644531 C 88.0625 69.074219 85.9375 68.835938 83.839844 68.835938 Z M 83.839844 68.835938 " fill-opacity="1" fill-rule="nonzero"/><path fill="#8094b4" d="M 84.558594 75.851562 C 82.640625 75.851562 80.367188 76.332031 77.730469 77.652344 C 78.179688 78.191406 78.628906 78.789062 79.019531 79.421875 C 83.242188 76.511719 87.734375 76.0625 91.238281 78.25 C 91.238281 78.25 88.902344 75.851562 84.558594 75.851562 Z M 84.558594 75.851562 " fill-opacity="1" fill-rule="nonzero"/><g clip-path="url(#32d1697974)"><path fill="#8094b4" d="M 88.0625 71.175781 C 87.882812 71.175781 87.761719 71.175781 87.761719 71.175781 C 87.761719 71.175781 95.429688 72.195312 96.535156 80.558594 C 97.613281 88.894531 92.046875 92.941406 92.046875 92.941406 C 95.726562 91.113281 100.128906 84.457031 97.34375 77.5625 C 94.917969 71.535156 89.410156 71.175781 88.0625 71.175781 Z M 88.0625 71.175781 " fill-opacity="1" fill-rule="nonzero"/></g><path fill="#8094b4" d="M 60.933594 114.292969 C 59.824219 114.292969 58.71875 114.320312 57.699219 114.351562 C 66.980469 114.773438 73.179688 116.839844 75.996094 118.039062 C 73.628906 121.816406 68.238281 127.304688 57.699219 128.265625 C 58.71875 128.355469 59.824219 128.414062 60.933594 128.414062 C 73.628906 128.414062 79.859375 122.207031 82.460938 118.070312 C 79.320312 116.722656 72.042969 114.292969 60.933594 114.292969 Z M 60.933594 114.292969 " fill-opacity="1" fill-rule="nonzero"/><path fill="#a9bbe3" d="M 54.824219 88.777344 C 50.390625 88.777344 47.339844 94.503906 51.769531 98.160156 C 51.769531 98.160156 49.765625 97.949219 48.207031 95.972656 C 48.207031 95.972656 42.816406 97.679688 39.195312 106.347656 C 37.847656 109.585938 37.515625 112.644531 38.746094 115.402344 C 41.976562 114.023438 49.523438 111.503906 60.902344 111.503906 C 64.105469 111.503906 67.011719 111.714844 69.617188 112.042969 C 69.855469 108.445312 69.707031 105.355469 69.707031 105.355469 C 69.707031 105.355469 71.503906 108.414062 71.53125 112.3125 C 77.074219 113.183594 80.964844 114.5625 83.0625 115.429688 C 84.320312 112.644531 83.988281 109.613281 82.613281 106.375 C 78.988281 97.710938 73.597656 96 73.597656 96 C 72.042969 97.980469 70.035156 98.191406 70.035156 98.191406 C 74.46875 94.53125 71.414062 88.804688 66.980469 88.804688 C 62.550781 88.804688 60.902344 92.074219 60.902344 92.074219 C 60.902344 92.074219 59.285156 88.777344 54.824219 88.777344 Z M 66.773438 90.84375 C 68.269531 90.84375 69.496094 91.652344 69.796875 92.851562 C 70.214844 94.382812 69.019531 96.03125 67.132812 96.511719 C 65.453125 96.960938 63.746094 96.332031 63.148438 95.042969 C 63.089844 94.921875 63.058594 94.800781 63.027344 94.683594 C 63.027344 94.652344 63.027344 94.652344 63.027344 94.621094 C 63.027344 94.59375 63.027344 94.59375 63.027344 94.5625 C 63.027344 94.53125 63.027344 94.53125 63.027344 94.503906 C 63 94.292969 62.96875 94.082031 63 93.902344 C 63 93.871094 63 93.871094 63 93.84375 C 63 93.753906 63.027344 93.664062 63.027344 93.542969 C 63.027344 93.542969 63.027344 93.511719 63.027344 93.511719 C 63.089844 93.242188 63.179688 93.003906 63.328125 92.761719 C 63.328125 92.761719 63.328125 92.734375 63.359375 92.734375 C 63.359375 92.703125 63.386719 92.703125 63.386719 92.671875 C 63.386719 92.644531 63.417969 92.613281 63.449219 92.613281 C 63.476562 92.582031 63.476562 92.554688 63.507812 92.554688 C 64.015625 91.832031 64.824219 91.292969 65.753906 91.023438 C 66.082031 90.933594 66.441406 90.875 66.800781 90.875 C 66.742188 90.84375 66.773438 90.84375 66.773438 90.84375 Z M 55.0625 90.84375 C 55.09375 90.84375 55.125 90.84375 55.125 90.84375 C 55.484375 90.84375 55.8125 90.90625 56.171875 90.996094 C 57.429688 91.324219 58.449219 92.222656 58.777344 93.273438 C 58.777344 93.273438 58.777344 93.242188 58.777344 93.242188 C 58.777344 93.214844 58.777344 93.214844 58.746094 93.183594 C 58.746094 93.214844 58.746094 93.214844 58.777344 93.242188 C 58.777344 93.273438 58.808594 93.332031 58.808594 93.363281 C 58.808594 93.394531 58.835938 93.453125 58.835938 93.484375 C 58.835938 93.511719 58.835938 93.511719 58.835938 93.542969 C 58.835938 93.542969 58.835938 93.542969 58.835938 93.511719 C 58.835938 93.574219 58.867188 93.632812 58.867188 93.691406 C 58.898438 93.992188 58.898438 94.324219 58.808594 94.59375 C 58.386719 96.121094 56.5625 96.929688 54.675781 96.453125 C 52.789062 95.941406 51.621094 94.292969 52.007812 92.792969 C 52.339844 91.652344 53.566406 90.84375 55.0625 90.84375 Z M 56.023438 90.933594 C 56.050781 90.933594 56.050781 90.933594 56.082031 90.933594 C 56.050781 90.964844 56.050781 90.933594 56.023438 90.933594 Z M 58.089844 92.132812 C 58.117188 92.164062 58.179688 92.222656 58.207031 92.253906 C 58.179688 92.195312 58.148438 92.164062 58.089844 92.132812 Z M 58.269531 92.3125 C 58.269531 92.34375 58.296875 92.34375 58.296875 92.375 C 58.296875 92.402344 58.328125 92.402344 58.328125 92.433594 C 58.328125 92.402344 58.296875 92.402344 58.296875 92.375 C 58.296875 92.34375 58.269531 92.34375 58.269531 92.3125 Z M 58.417969 92.492188 C 58.417969 92.523438 58.449219 92.523438 58.449219 92.554688 C 58.417969 92.523438 58.417969 92.523438 58.417969 92.492188 Z M 58.449219 92.582031 C 58.476562 92.613281 58.476562 92.644531 58.507812 92.644531 C 58.476562 92.613281 58.476562 92.582031 58.449219 92.582031 Z M 58.507812 92.671875 C 58.507812 92.671875 58.507812 92.703125 58.539062 92.703125 C 58.539062 92.703125 58.507812 92.703125 58.507812 92.671875 Z M 58.539062 92.734375 C 58.539062 92.761719 58.566406 92.761719 58.566406 92.792969 C 58.566406 92.761719 58.566406 92.734375 58.539062 92.734375 Z M 58.597656 92.824219 C 58.628906 92.851562 58.628906 92.882812 58.65625 92.914062 C 58.628906 92.882812 58.597656 92.851562 58.597656 92.824219 Z M 58.65625 92.941406 C 58.65625 92.972656 58.6875 92.972656 58.6875 93.003906 C 58.65625 92.972656 58.65625 92.941406 58.65625 92.941406 Z M 58.6875 93.035156 C 58.6875 93.035156 58.6875 93.0625 58.71875 93.0625 C 58.71875 93.0625 58.6875 93.035156 58.6875 93.035156 Z M 58.71875 93.125 C 58.71875 93.152344 58.71875 93.152344 58.746094 93.183594 C 58.746094 93.152344 58.746094 93.125 58.71875 93.125 Z M 58.71875 93.125 " fill-opacity="1" fill-rule="nonzero"/><path fill="#8094b4" d="M 55.125 90.84375 C 55.484375 90.84375 55.8125 90.90625 56.171875 90.996094 C 58.058594 91.503906 59.226562 93.152344 58.835938 94.652344 C 58.417969 96.179688 56.589844 96.992188 54.703125 96.511719 C 52.816406 96 51.648438 94.351562 52.039062 92.851562 C 52.339844 91.742188 53.386719 90.996094 54.734375 90.875 C 50.660156 91.144531 49.855469 95.972656 51.769531 98.191406 C 51.769531 98.191406 50.691406 98.070312 49.523438 97.261719 C 49.496094 97.230469 49.433594 97.199219 49.40625 97.171875 C 49.375 97.140625 49.316406 97.109375 49.285156 97.082031 C 49.285156 97.082031 49.253906 97.082031 49.253906 97.050781 C 49.195312 97.019531 49.164062 96.992188 49.105469 96.929688 C 49.046875 96.902344 49.015625 96.839844 48.957031 96.8125 C 48.894531 96.75 48.867188 96.722656 48.804688 96.660156 C 48.777344 96.632812 48.746094 96.601562 48.714844 96.601562 C 48.6875 96.570312 48.65625 96.542969 48.625 96.511719 C 48.566406 96.453125 48.535156 96.390625 48.476562 96.363281 C 48.386719 96.242188 48.265625 96.121094 48.175781 96 C 48.175781 96 48.175781 96 48.148438 96 C 48.148438 96 48.148438 96 48.117188 96 C 48.058594 96.03125 47.9375 96.0625 47.726562 96.152344 C 47.667969 96.179688 47.578125 96.210938 47.519531 96.242188 C 47.488281 96.273438 47.457031 96.273438 47.398438 96.300781 C 47.398438 96.300781 47.367188 96.300781 47.367188 96.332031 C 47.308594 96.363281 47.21875 96.421875 47.128906 96.453125 C 47.128906 96.453125 47.097656 96.453125 47.097656 96.480469 C 47.070312 96.511719 47.007812 96.542969 46.980469 96.542969 C 46.949219 96.542969 46.949219 96.570312 46.917969 96.570312 C 45.121094 97.621094 41.707031 100.289062 39.164062 106.347656 C 37.816406 109.585938 37.488281 112.644531 38.714844 115.402344 C 39.523438 115.070312 40.570312 114.652344 41.886719 114.230469 C 41.167969 111.773438 41.589844 109.132812 42.757812 106.347656 C 44.464844 102.269531 46.558594 99.71875 48.296875 98.160156 C 49.703125 99.148438 51.710938 100.050781 54.164062 100.050781 C 59.375 100.050781 60.84375 97.410156 60.84375 97.410156 C 60.84375 97.410156 62.308594 100.050781 67.519531 100.050781 C 68.929688 100.050781 70.1875 99.75 71.265625 99.300781 C 72.851562 100.859375 74.707031 103.078125 76.054688 106.316406 C 77.101562 108.804688 77.523438 111.203125 77.101562 113.421875 C 79.738281 114.113281 81.683594 114.832031 82.972656 115.371094 C 84.230469 112.582031 83.898438 109.554688 82.523438 106.316406 C 80.007812 100.289062 76.625 97.621094 74.828125 96.542969 C 74.796875 96.511719 74.738281 96.480469 74.707031 96.480469 C 74.675781 96.453125 74.648438 96.453125 74.617188 96.421875 C 74.558594 96.390625 74.527344 96.363281 74.46875 96.332031 C 74.4375 96.300781 74.40625 96.300781 74.378906 96.273438 C 74.347656 96.242188 74.316406 96.242188 74.289062 96.210938 C 74.257812 96.210938 74.226562 96.179688 74.199219 96.179688 C 74.167969 96.152344 74.136719 96.152344 74.109375 96.152344 C 74.078125 96.121094 74.046875 96.121094 74.019531 96.089844 C 73.988281 96.089844 73.988281 96.0625 73.957031 96.0625 C 73.839844 96 73.75 95.972656 73.660156 95.941406 C 73.660156 95.941406 73.660156 95.941406 73.628906 95.941406 C 73.597656 95.941406 73.597656 95.941406 73.570312 95.910156 C 73.539062 95.910156 73.539062 95.910156 73.539062 95.910156 C 73.507812 95.941406 73.480469 95.972656 73.480469 96 C 73.449219 96.03125 73.417969 96.0625 73.417969 96.089844 C 73.390625 96.121094 73.359375 96.152344 73.359375 96.179688 C 73.328125 96.210938 73.300781 96.242188 73.300781 96.273438 C 73.300781 96.273438 73.269531 96.300781 73.269531 96.300781 C 73.238281 96.332031 73.238281 96.332031 73.210938 96.363281 C 73.179688 96.390625 73.148438 96.421875 73.121094 96.453125 C 73.089844 96.480469 73.058594 96.511719 73.03125 96.542969 C 73 96.570312 72.96875 96.601562 72.941406 96.601562 C 72.878906 96.660156 72.851562 96.691406 72.789062 96.75 C 72.730469 96.8125 72.699219 96.839844 72.640625 96.871094 C 72.582031 96.902344 72.550781 96.960938 72.492188 96.992188 C 72.429688 97.019531 72.402344 97.082031 72.339844 97.109375 C 72.3125 97.109375 72.3125 97.140625 72.28125 97.140625 C 71.953125 97.382812 71.621094 97.5625 71.292969 97.710938 C 71.203125 97.742188 71.113281 97.800781 71.054688 97.832031 C 71.023438 97.859375 70.964844 97.859375 70.933594 97.890625 C 70.90625 97.890625 70.84375 97.921875 70.816406 97.921875 C 70.816406 97.921875 70.816406 97.921875 70.785156 97.921875 C 70.636719 97.980469 70.515625 98.011719 70.394531 98.039062 C 70.367188 98.039062 70.367188 98.039062 70.335938 98.039062 C 70.304688 98.039062 70.304688 98.039062 70.277344 98.039062 C 70.214844 98.039062 70.1875 98.070312 70.125 98.070312 C 70.125 98.070312 70.097656 98.070312 70.097656 98.070312 C 70.007812 98.101562 69.945312 98.101562 69.945312 98.101562 C 71.863281 96.0625 71.054688 91.054688 66.980469 90.785156 C 68.328125 90.90625 69.40625 91.683594 69.675781 92.761719 C 70.097656 94.292969 68.898438 95.941406 67.011719 96.421875 C 65.125 96.929688 63.269531 96.089844 62.878906 94.5625 C 62.460938 93.03125 63.65625 91.382812 65.542969 90.90625 C 65.875 90.8125 66.234375 90.753906 66.59375 90.753906 C 63.449219 90.753906 61.652344 93.125 60.8125 94.621094 C 60.066406 93.214844 58.269531 90.84375 55.125 90.84375 Z M 55.125 90.84375 " fill-opacity="1" fill-rule="nonzero"/><path fill="#8094b4" d="M 43.054688 116.75 C 41.5 117.230469 40.300781 117.679688 39.402344 118.070312 C 40.988281 120.617188 43.925781 123.917969 48.867188 126.105469 C 45.480469 122.867188 43.804688 119.359375 43.054688 116.75 Z M 43.054688 116.75 " fill-opacity="1" fill-rule="nonzero"/><path fill="#a9bbe3" d="M 60.933594 114.292969 C 57.28125 114.292969 54.046875 114.5625 51.230469 114.953125 C 51.050781 116.722656 51.050781 118.460938 51.46875 119.808594 C 50.363281 118.21875 49.882812 116.628906 49.792969 115.191406 C 44.824219 116.03125 41.347656 117.261719 39.433594 118.070312 C 42.039062 122.238281 48.265625 128.414062 60.960938 128.414062 C 73.660156 128.414062 79.886719 122.207031 82.492188 118.070312 C 79.320312 116.722656 72.042969 114.292969 60.933594 114.292969 Z M 60.933594 114.292969 " fill-opacity="1" fill-rule="nonzero"/><g clip-path="url(#ec9a0bd8f6)"><path fill="#355782" d="M 100.9375 103.136719 C 102.765625 122.566406 94.109375 126.046875 90.21875 133.542969 C 88.660156 129.402344 89.648438 125.984375 89.648438 125.984375 C 85.15625 128.535156 81.207031 132.402344 78.152344 136.269531 C 74.945312 140.347656 72.730469 144.425781 71.921875 147.003906 C 69.289062 144.636719 67.429688 139.628906 67.429688 139.628906 C 66.441406 144.847656 68.058594 150.152344 68.058594 150.152344 C 60.09375 144.9375 57.640625 132.132812 57.640625 132.132812 C 56.203125 138.667969 59.4375 148.292969 61.140625 150.214844 C 54.164062 147.632812 44.164062 142.296875 36.378906 131.652344 C 34.132812 128.59375 32.066406 125.085938 30.300781 121.070312 C 28.054688 124.546875 28.054688 128.925781 28.054688 128.925781 C 23.5625 124.785156 19.308594 117.738281 20.71875 103.078125 C 16.105469 119.75 22.335938 133.75 32.726562 140.46875 C 32.726562 140.46875 31.378906 136.570312 31.46875 133.511719 C 31.707031 133.992188 31.976562 134.472656 32.246094 134.949219 C 44.792969 156.929688 73.121094 156.601562 73.121094 156.601562 C 73.121094 156.601562 75.996094 148.472656 81.296875 141.546875 C 82.703125 139.6875 84.289062 137.917969 86.027344 136.421875 C 86.027344 136.421875 85.847656 140.257812 88.691406 143.167969 C 92.015625 130.304688 106.148438 129.582031 100.9375 103.136719 Z M 100.9375 103.136719 " fill-opacity="1" fill-rule="nonzero"/></g><g clip-path="url(#e7d1c797d5)"><path fill="#355782" d="M 88.722656 33.605469 C 89.199219 37.980469 87.734375 43.738281 85.636719 48.476562 C 90.339844 43.558594 92.523438 39.03125 92.734375 33.273438 C 99.320312 41.910156 98.511719 55.101562 96.027344 62.960938 C 107.105469 43.230469 97.855469 23.949219 82.792969 15.132812 C 75.90625 39.8125 43.773438 25.839844 35.089844 39.8125 C 34.941406 36.691406 36.199219 32.855469 36.199219 32.855469 C 26.886719 37.59375 20.957031 50.425781 25.71875 62.960938 C 25.71875 62.960938 23.863281 49.226562 32.816406 38.941406 C 32.484375 40.5625 32.546875 44.128906 33.144531 46.347656 C 43.054688 29.585938 67.519531 44.25 82.550781 29.136719 C 80.515625 37.261719 74.289062 45.386719 67.96875 50.90625 C 76.113281 47.9375 85.785156 40.5625 88.722656 33.605469 " fill-opacity="1" fill-rule="nonzero"/></g><path fill="#241c1c" d="M 66.351562 96.871094 C 66.324219 96.902344 66.292969 96.902344 66.234375 96.929688 C 66.261719 96.902344 66.292969 96.902344 66.351562 96.871094 Z M 66.351562 96.871094 " fill-opacity="1" fill-rule="nonzero"/><path fill="#241c1c" d="M 66.5625 96.75 C 66.53125 96.78125 66.472656 96.78125 66.441406 96.8125 C 66.472656 96.8125 66.503906 96.78125 66.5625 96.75 Z M 66.5625 96.75 " fill-opacity="1" fill-rule="nonzero"/><path fill="#241c1c" d="M 66.710938 96.691406 C 66.683594 96.691406 66.652344 96.722656 66.621094 96.722656 C 66.652344 96.722656 66.683594 96.691406 66.710938 96.691406 Z M 66.710938 96.691406 " fill-opacity="1" fill-rule="nonzero"/><path fill="#241c1c" d="M 66.863281 96.601562 C 66.832031 96.601562 66.800781 96.632812 66.742188 96.660156 C 66.800781 96.632812 66.832031 96.632812 66.863281 96.601562 Z M 66.863281 96.601562 " fill-opacity="1" fill-rule="nonzero"/><path fill="#241c1c" d="M 67.160156 96.511719 C 67.160156 96.511719 67.132812 96.511719 67.101562 96.542969 C 67.132812 96.511719 67.160156 96.511719 67.160156 96.511719 Z M 67.160156 96.511719 " fill-opacity="1" fill-rule="nonzero"/><path fill="#241c1c" d="M 66.351562 96.871094 C 66.324219 96.902344 66.292969 96.902344 66.234375 96.929688 C 66.261719 96.902344 66.292969 96.902344 66.351562 96.871094 Z M 66.351562 96.871094 " fill-opacity="1" fill-rule="nonzero"/><path fill="#241c1c" d="M 66.5625 96.75 C 66.53125 96.78125 66.472656 96.78125 66.441406 96.8125 C 66.472656 96.8125 66.503906 96.78125 66.5625 96.75 Z M 66.5625 96.75 " fill-opacity="1" fill-rule="nonzero"/><path fill="#241c1c" d="M 66.710938 96.691406 C 66.683594 96.691406 66.652344 96.722656 66.621094 96.722656 C 66.652344 96.722656 66.683594 96.691406 66.710938 96.691406 Z M 66.710938 96.691406 " fill-opacity="1" fill-rule="nonzero"/><path fill="#241c1c" d="M 66.863281 96.601562 C 66.832031 96.601562 66.800781 96.632812 66.742188 96.660156 C 66.800781 96.632812 66.832031 96.632812 66.863281 96.601562 Z M 66.863281 96.601562 " fill-opacity="1" fill-rule="nonzero"/><path fill="#241c1c" d="M 67.160156 96.511719 C 67.160156 96.511719 67.132812 96.511719 67.101562 96.542969 C 67.132812 96.511719 67.160156 96.511719 67.160156 96.511719 Z M 67.160156 96.511719 " fill-opacity="1" fill-rule="nonzero"/></svg>