<svg xmlns="http://www.w3.org/2000/svg" xmlns:xlink="http://www.w3.org/1999/xlink" width="130" zoomAndPan="magnify" viewBox="0 0 97.5 131.999998" height="176" preserveAspectRatio="xMidYMid meet" version="1.0"><defs><clipPath id="77fedaa02b"><path d="M 9.699219 10.035156 L 97.003906 10.035156 L 97.003906 131.664062 L 9.699219 131.664062 Z M 9.699219 10.035156 " clip-rule="nonzero"/></clipPath><clipPath id="938eaadd6e"><path d="M 13 44 L 58 44 L 58 131.664062 L 13 131.664062 Z M 13 44 " clip-rule="nonzero"/></clipPath><clipPath id="d89a6e4228"><path d="M 23 13 L 97.003906 13 L 97.003906 131.664062 L 23 131.664062 Z M 23 13 " clip-rule="nonzero"/></clipPath><clipPath id="6b6759ba3a"><path d="M 27 17 L 97.003906 17 L 97.003906 131.664062 L 27 131.664062 Z M 27 17 " clip-rule="nonzero"/></clipPath><clipPath id="2e5a43b963"><path d="M 16 49 L 58 49 L 58 131.664062 L 16 131.664062 Z M 16 49 " clip-rule="nonzero"/></clipPath><clipPath id="c61f1a3083"><path d="M 11 12 L 97.003906 12 L 97.003906 131.664062 L 11 131.664062 Z M 11 12 " clip-rule="nonzero"/></clipPath></defs><g clip-path="url(#77fedaa02b)"><path fill="#1f7dd5" d="M 67.476562 139.421875 C 99.316406 139.421875 125.21875 113.519531 125.21875 81.683594 C 125.21875 62.460938 115.722656 44.632812 99.78125 33.847656 C 100.066406 31.910156 100.59375 30.492188 101.011719 29.601562 L 102.253906 28.761719 C 102.40625 28.644531 102.550781 28.519531 102.683594 28.382812 C 103.152344 27.898438 103.566406 27.355469 103.917969 26.773438 C 104.640625 25.609375 104.671875 24.167969 103.984375 22.941406 C 103.3125 21.730469 102.027344 20.980469 100.621094 20.980469 C 93.765625 20.980469 86.835938 22.519531 80.550781 25.445312 C 79.632812 25.230469 78.714844 25.042969 77.816406 24.875 C 77.3125 22.011719 77.511719 19.859375 77.75 18.605469 C 78.339844 18.222656 78.824219 17.691406 79.144531 17.066406 C 79.464844 16.445312 79.726562 15.746094 79.917969 15 C 80.28125 13.59375 79.867188 12.148438 78.808594 11.140625 C 78.0625 10.429688 77.09375 10.039062 76.078125 10.039062 C 75.675781 10.039062 75.273438 10.101562 74.886719 10.222656 C 68.792969 12.097656 62.882812 15.160156 57.726562 19.105469 C 57.585938 18.84375 57.464844 18.609375 57.371094 18.398438 C 57.46875 18.152344 57.539062 17.910156 57.585938 17.675781 C 57.648438 17.398438 57.675781 17.09375 57.667969 16.785156 C 57.660156 16.597656 57.648438 16.457031 57.628906 16.316406 L 57.605469 16.167969 C 57.53125 15.710938 57.433594 15.277344 57.289062 14.808594 C 57.226562 14.601562 57.15625 14.394531 57.082031 14.191406 C 56.839844 13.574219 56.496094 13.0625 56.046875 12.648438 C 55.328125 11.964844 54.351562 11.578125 53.308594 11.578125 C 53.117188 11.578125 52.925781 11.59375 52.734375 11.621094 C 52.121094 11.707031 51.527344 11.9375 51.023438 12.289062 C 50.828125 12.429688 50.554688 12.636719 50.304688 12.933594 L 50.300781 12.941406 C 50.238281 13.007812 50.152344 13.105469 50.0625 13.234375 L 49.425781 14.089844 C 47.824219 16.257812 46.359375 18.609375 45.066406 21.082031 C 45.046875 21.113281 45.03125 21.140625 45.019531 21.171875 C 43.289062 20.589844 41.714844 19.84375 40.335938 18.953125 C 39.335938 18.304688 38.609375 17.691406 38.113281 17.214844 C 38.125 16.511719 37.941406 15.800781 37.582031 15.179688 C 37.230469 14.5625 36.789062 13.964844 36.265625 13.398438 C 35.515625 12.578125 34.484375 12.121094 33.363281 12.121094 C 33.054688 12.121094 32.746094 12.15625 32.4375 12.230469 C 31.011719 12.574219 29.925781 13.613281 29.527344 15.007812 C 27.40625 22.449219 26.910156 30.464844 28.085938 38.214844 C 27.628906 38.929688 27.242188 39.722656 26.894531 40.625 C 15.832031 51.550781 9.746094 66.121094 9.746094 81.6875 C 9.742188 113.519531 35.644531 139.421875 67.476562 139.421875 Z M 67.476562 139.421875 " fill-opacity="1" fill-rule="nonzero"/></g><g clip-path="url(#938eaadd6e)"><path fill="#36e9fd" d="M 13.238281 81.683594 C 13.238281 107.886719 31.917969 129.808594 56.65625 134.839844 C 56.738281 133.996094 56.859375 133.167969 57.027344 132.367188 C 33.636719 127.382812 16.089844 106.597656 16.089844 81.722656 C 16.089844 69.652344 20.214844 58.554688 27.132812 49.75 L 27.132812 49.746094 C 27.394531 47.992188 27.730469 46.25 28.140625 44.523438 C 28.160156 44.441406 28.179688 44.363281 28.195312 44.289062 C 18.535156 54.402344 13.238281 67.59375 13.238281 81.683594 Z M 27.277344 81.683594 L 24.386719 87.050781 C 23.738281 85.648438 22.242188 83.714844 18.976562 83.714844 L 18.085938 83.714844 L 17.957031 81.683594 Z M 27.277344 81.683594 " fill-opacity="1" fill-rule="nonzero"/></g><g clip-path="url(#d89a6e4228)"><path fill="#617f84" d="M 27.648438 58.375 C 27.65625 57.871094 27.675781 57.359375 27.691406 56.851562 C 27.777344 54.824219 27.953125 52.800781 28.234375 50.789062 C 28.511719 48.78125 28.878906 46.78125 29.351562 44.804688 C 29.53125 44.015625 29.734375 43.242188 29.980469 42.492188 L 30.023438 42.453125 L 30.023438 42.363281 C 30.078125 42.21875 30.125 42.070312 30.175781 41.925781 C 30.519531 41.011719 30.953125 40.140625 31.546875 39.417969 C 32.136719 38.695312 32.886719 38.128906 33.75 37.738281 C 34.609375 37.34375 35.554688 37.113281 36.519531 37.019531 C 38.292969 36.839844 40.121094 37.101562 41.96875 37.414062 C 41.882812 37.925781 41.796875 38.433594 41.722656 38.949219 C 41.644531 39.605469 41.550781 40.253906 41.507812 40.910156 C 41.480469 41.566406 41.472656 42.222656 41.507812 42.882812 C 41.570312 43.542969 41.660156 44.199219 41.832031 44.851562 C 42.0625 44.210938 42.214844 43.574219 42.34375 42.9375 C 42.484375 42.300781 42.597656 41.667969 42.683594 41.035156 C 42.789062 40.398438 42.867188 39.765625 42.953125 39.128906 C 43.046875 38.496094 43.167969 37.867188 43.277344 37.238281 C 43.757812 34.71875 44.425781 32.238281 45.269531 29.820312 C 46.121094 27.40625 47.128906 25.046875 48.308594 22.773438 C 49.488281 20.5 50.839844 18.320312 52.34375 16.25 L 52.902344 15.472656 L 52.972656 15.375 C 53 15.335938 53 15.34375 53.011719 15.324219 C 53.035156 15.296875 53.058594 15.277344 53.082031 15.261719 C 53.128906 15.226562 53.191406 15.199219 53.253906 15.191406 C 53.378906 15.171875 53.53125 15.207031 53.617188 15.289062 C 53.664062 15.332031 53.699219 15.382812 53.726562 15.445312 C 53.785156 15.585938 53.832031 15.722656 53.878906 15.863281 C 53.96875 16.144531 54.042969 16.433594 54.089844 16.71875 L 54.109375 16.828125 C 54.109375 16.847656 54.113281 16.859375 54.113281 16.878906 C 54.117188 16.910156 54.113281 16.945312 54.109375 16.976562 C 54.101562 17.007812 54.089844 17.042969 54.078125 17.074219 C 54.058594 17.113281 54.058594 17.113281 54.007812 17.199219 C 53.667969 17.757812 53.308594 18.308594 52.984375 18.878906 C 51.648438 21.136719 50.460938 23.476562 49.445312 25.890625 C 48.429688 28.300781 47.554688 30.769531 46.839844 33.285156 C 46.125 35.792969 45.542969 38.359375 45.53125 40.992188 C 46.394531 38.507812 46.984375 36.011719 47.726562 33.542969 C 48.484375 31.082031 49.394531 28.671875 50.441406 26.320312 C 51.484375 23.980469 52.691406 21.71875 54.011719 19.535156 C 54.851562 21.492188 57.070312 25.414062 62.351562 29.058594 C 61.78125 29.492188 61.222656 29.925781 60.664062 30.363281 C 59.1875 31.527344 57.730469 32.714844 56.304688 33.949219 C 54.878906 35.171875 53.472656 36.421875 52.089844 37.699219 C 50.726562 38.996094 49.253906 40.183594 48.292969 41.890625 C 50.023438 40.980469 51.28125 39.601562 52.699219 38.378906 C 54.097656 37.132812 55.515625 35.917969 56.957031 34.726562 C 58.398438 33.535156 59.855469 32.363281 61.328125 31.21875 C 62.070312 30.644531 62.808594 30.078125 63.558594 29.519531 L 64.117188 29.101562 C 64.171875 29.058594 64.195312 29.050781 64.222656 29.03125 C 64.253906 29.007812 64.285156 28.996094 64.316406 28.976562 C 64.382812 28.953125 64.445312 28.929688 64.519531 28.921875 C 64.796875 28.871094 65.09375 28.976562 65.277344 29.183594 C 65.476562 29.410156 65.546875 29.699219 65.476562 29.976562 C 65.441406 30.113281 65.371094 30.238281 65.273438 30.339844 C 65.25 30.367188 65.222656 30.390625 65.195312 30.410156 L 65.058594 30.523438 L 64.789062 30.746094 C 64.058594 31.339844 63.332031 31.941406 62.613281 32.542969 C 61.171875 33.75 59.75 34.984375 58.359375 36.25 C 56.964844 37.511719 55.585938 38.789062 54.226562 40.089844 C 53.550781 40.742188 52.859375 41.375 52.226562 42.074219 C 51.589844 42.769531 50.992188 43.503906 50.496094 44.335938 C 51.335938 43.847656 52.074219 43.265625 52.789062 42.660156 C 53.503906 42.054688 54.167969 41.390625 54.855469 40.761719 C 56.234375 39.492188 57.625 38.246094 59.035156 37.015625 C 60.445312 35.789062 61.871094 34.582031 63.308594 33.382812 C 63.730469 33.03125 64.160156 32.6875 64.585938 32.339844 C 64.816406 34.425781 65.726562 39.058594 69.320312 44.117188 C 68.714844 44.242188 68.109375 44.371094 67.503906 44.488281 C 65.664062 44.839844 63.828125 45.175781 61.980469 45.492188 C 60.136719 45.804688 58.289062 46.089844 56.433594 46.34375 C 55.507812 46.484375 54.578125 46.578125 53.65625 46.75 C 52.730469 46.917969 51.8125 47.125 50.90625 47.460938 C 51.867188 47.605469 52.8125 47.605469 53.75 47.558594 C 54.6875 47.503906 55.621094 47.375 56.554688 47.265625 C 58.417969 47.035156 60.285156 46.78125 62.144531 46.503906 C 64 46.222656 65.855469 45.910156 67.703125 45.558594 C 68.628906 45.382812 69.550781 45.203125 70.472656 45.011719 L 70.816406 44.945312 L 70.988281 44.910156 C 71.023438 44.910156 71.058594 44.898438 71.097656 44.898438 C 71.238281 44.886719 71.378906 44.914062 71.507812 44.96875 C 71.765625 45.089844 71.945312 45.328125 71.992188 45.628906 C 72.039062 45.898438 71.933594 46.203125 71.714844 46.382812 C 71.664062 46.433594 71.601562 46.464844 71.542969 46.5 C 71.511719 46.511719 71.480469 46.53125 71.445312 46.539062 C 71.410156 46.550781 71.390625 46.558594 71.324219 46.574219 L 70.644531 46.742188 C 69.738281 46.96875 68.828125 47.179688 67.917969 47.390625 C 66.097656 47.804688 64.269531 48.191406 62.433594 48.550781 C 60.601562 48.910156 58.757812 49.238281 56.910156 49.53125 C 55.066406 49.851562 53.203125 49.953125 51.402344 50.710938 C 53.332031 51.050781 55.183594 50.664062 57.046875 50.429688 C 58.910156 50.171875 60.765625 49.875 62.621094 49.550781 C 64.476562 49.226562 66.320312 48.855469 68.15625 48.449219 C 68.851562 48.296875 69.542969 48.132812 70.234375 47.96875 C 70.09375 49.9375 69.984375 55.175781 72.152344 60.425781 C 69.679688 60.070312 67.222656 59.574219 64.800781 58.917969 C 62.324219 58.238281 59.878906 57.414062 57.496094 56.4375 C 55.117188 55.449219 52.808594 54.324219 50.34375 53.417969 C 52.390625 55.074219 54.742188 56.253906 57.136719 57.289062 C 59.539062 58.332031 62 59.21875 64.511719 59.960938 C 67.023438 60.707031 69.585938 61.269531 72.175781 61.667969 C 72.824219 61.777344 73.476562 61.84375 74.125 61.933594 C 74.230469 61.945312 74.230469 61.945312 74.269531 61.960938 C 74.300781 61.96875 74.332031 61.980469 74.363281 61.996094 C 74.390625 62.015625 74.417969 62.035156 74.445312 62.054688 C 74.457031 62.066406 74.472656 62.078125 74.480469 62.089844 L 74.550781 62.171875 C 74.742188 62.394531 74.914062 62.628906 75.078125 62.878906 C 75.15625 63.003906 75.230469 63.132812 75.304688 63.261719 C 75.335938 63.324219 75.355469 63.382812 75.355469 63.445312 C 75.367188 63.5625 75.300781 63.703125 75.203125 63.789062 C 75.15625 63.828125 75.101562 63.863281 75.039062 63.875 C 75.011719 63.878906 74.980469 63.890625 74.949219 63.886719 C 74.921875 63.886719 74.929688 63.890625 74.882812 63.886719 L 74.765625 63.878906 L 73.808594 63.824219 C 71.25 63.675781 68.707031 63.339844 66.199219 62.808594 C 63.691406 62.285156 61.230469 61.566406 58.820312 60.695312 C 56.414062 59.820312 54.074219 58.765625 51.820312 57.539062 C 51.265625 57.222656 50.703125 56.917969 50.152344 56.585938 C 49.605469 56.25 49.058594 55.914062 48.507812 55.59375 C 47.960938 55.253906 47.398438 54.945312 46.816406 54.648438 C 46.246094 54.339844 45.65625 54.058594 45.011719 53.832031 C 45.414062 54.378906 45.863281 54.863281 46.335938 55.328125 C 46.824219 55.773438 47.335938 56.1875 47.863281 56.582031 C 48.394531 56.960938 48.960938 57.296875 49.515625 57.652344 C 50.074219 57.996094 50.648438 58.3125 51.21875 58.644531 C 52.828125 59.539062 54.488281 60.347656 56.1875 61.074219 C 55.191406 62.410156 53.148438 65.535156 52.777344 69.195312 C 52.660156 70.347656 52.570312 71.90625 52.46875 73.546875 C 52.191406 78.117188 51.820312 84.285156 50.640625 86.394531 C 48.910156 85.992188 46.4375 85.34375 45.046875 84.605469 C 45.050781 84.554688 45.058594 84.5 45.0625 84.445312 C 45.175781 83.429688 45.285156 82.40625 45.378906 81.378906 C 45.464844 80.347656 45.53125 79.316406 45.570312 78.28125 C 45.613281 77.25 45.625 76.238281 45.691406 75.234375 C 45.757812 74.226562 45.875 73.238281 46.09375 72.273438 C 46.519531 70.339844 47.273438 68.484375 48.632812 66.914062 C 47.730469 67.4375 46.976562 68.230469 46.402344 69.121094 C 46.109375 69.5625 45.871094 70.042969 45.652344 70.527344 C 45.445312 71.019531 45.273438 71.523438 45.128906 72.035156 C 44.597656 74.089844 44.472656 76.199219 44.382812 78.234375 C 44.335938 79.246094 44.253906 80.257812 44.15625 81.273438 C 44.066406 82.285156 43.957031 83.300781 43.855469 84.320312 C 43.746094 85.335938 43.640625 86.363281 43.546875 87.386719 C 43.5 87.902344 43.464844 88.417969 43.429688 88.933594 L 43.382812 89.710938 L 43.363281 90.097656 L 43.355469 90.152344 C 43.355469 90.164062 43.355469 90.179688 43.351562 90.1875 C 43.347656 90.214844 43.339844 90.234375 43.328125 90.253906 C 43.308594 90.300781 43.28125 90.332031 43.257812 90.359375 C 43.25 90.367188 43.242188 90.371094 43.234375 90.378906 L 43.1875 90.410156 L 43.046875 90.492188 C 42.953125 90.550781 42.851562 90.59375 42.75 90.636719 C 42.65625 90.6875 42.550781 90.722656 42.445312 90.757812 C 42.027344 90.898438 41.574219 90.96875 41.121094 90.976562 C 40.210938 90.984375 39.285156 90.738281 38.484375 90.285156 C 37.699219 89.832031 37.011719 89.144531 36.476562 88.367188 C 35.933594 87.585938 35.542969 86.6875 35.25 85.757812 C 34.671875 83.894531 34.566406 81.875 34.46875 79.832031 C 34.421875 78.8125 34.367188 77.769531 34.261719 76.730469 C 34.15625 75.695312 34.011719 74.652344 33.746094 73.609375 C 33.484375 72.574219 33.082031 71.542969 32.484375 70.609375 C 32.328125 70.375 32.167969 70.148438 31.988281 69.933594 L 31.507812 69.34375 C 31.195312 68.957031 30.898438 68.554688 30.621094 68.144531 C 29.503906 66.503906 28.652344 64.691406 28.15625 62.777344 C 27.90625 61.824219 27.746094 60.84375 27.683594 59.863281 C 27.664062 59.613281 27.652344 59.371094 27.652344 59.125 C 27.640625 58.875 27.636719 58.628906 27.648438 58.375 Z M 37.59375 85.640625 C 37.796875 86.214844 38.171875 86.738281 38.632812 87.144531 C 39.085938 87.558594 39.679688 87.785156 40.269531 87.84375 C 40.039062 87.507812 39.8125 87.230469 39.613281 86.949219 C 40.035156 86.179688 40.921875 84.019531 38.121094 83.261719 C 38.03125 82.921875 37.933594 82.570312 37.824219 82.195312 C 37.5 82.707031 37.363281 83.289062 37.324219 83.875 C 37.292969 84.46875 37.382812 85.074219 37.59375 85.640625 Z M 33.574219 59.890625 C 33.617188 61.125 33.808594 62.355469 34.140625 63.554688 C 34.484375 64.753906 34.980469 65.917969 35.671875 66.96875 C 36.015625 67.492188 36.417969 67.976562 36.851562 68.425781 C 37.296875 68.859375 37.78125 69.257812 38.316406 69.5625 C 38.03125 69.15625 37.75 68.761719 37.496094 68.351562 C 37.789062 67.636719 38.574219 65.503906 38.703125 62.898438 C 38.835938 60.234375 35.492188 59.085938 34.335938 58.769531 C 34.191406 57.933594 34.050781 57.089844 33.917969 56.222656 C 33.601562 57.421875 33.535156 58.664062 33.574219 59.890625 Z M 23.640625 101.847656 C 26.367188 107.796875 30.269531 113.105469 35.085938 117.460938 C 35.257812 111.003906 36.402344 105.171875 38.339844 100.925781 C 40.953125 95.183594 45.082031 92.148438 50.269531 92.148438 C 62.726562 92.148438 71.042969 107.777344 72.785156 111.351562 C 74.171875 110.253906 75.554688 109.203125 76.886719 108.191406 C 78.949219 106.628906 80.890625 105.152344 82.597656 103.707031 C 83.578125 102.875 84.5625 101.933594 85.523438 100.898438 C 84.941406 99.484375 82.488281 93.917969 77.921875 88.441406 C 71.046875 80.199219 62.84375 75.992188 53.515625 75.925781 C 53.238281 80.191406 52.847656 84.488281 51.839844 86.660156 C 52.273438 86.75 52.542969 86.800781 52.558594 86.804688 L 53.9375 87.0625 L 52.800781 87.882812 C 50.570312 89.496094 47.445312 89.773438 45.5625 89.773438 C 45.175781 89.773438 44.84375 89.761719 44.578125 89.746094 L 44.578125 89.773438 L 44.554688 90.152344 L 44.546875 90.289062 C 44.542969 90.339844 44.53125 90.394531 44.523438 90.441406 C 44.5 90.539062 44.46875 90.640625 44.425781 90.738281 C 44.34375 90.929688 44.21875 91.109375 44.058594 91.253906 C 44.019531 91.289062 43.972656 91.324219 43.929688 91.359375 L 43.863281 91.40625 L 43.816406 91.429688 L 43.625 91.542969 C 43.5 91.621094 43.363281 91.683594 43.230469 91.738281 C 43.09375 91.804688 42.960938 91.855469 42.824219 91.898438 C 42.273438 92.089844 41.695312 92.179688 41.125 92.183594 C 39.984375 92.195312 38.863281 91.890625 37.878906 91.339844 C 36.886719 90.769531 36.09375 89.957031 35.46875 89.054688 C 34.84375 88.152344 34.402344 87.144531 34.082031 86.125 C 33.53125 84.351562 33.382812 82.53125 33.289062 80.761719 C 31.101562 83.453125 25.78125 90.898438 23.640625 101.847656 Z M 82.621094 28.339844 C 83.605469 28.617188 84.578125 28.925781 85.539062 29.257812 C 89.964844 27.609375 94.492188 26.554688 99.007812 26.125 L 99.042969 26.078125 L 99.34375 26.078125 L 99.34375 26.085938 C 99.535156 26.070312 99.726562 26.054688 99.917969 26.039062 L 99.96875 26.03125 C 100.050781 26.027344 100.128906 25.992188 100.179688 25.933594 C 100.449219 25.65625 100.703125 25.332031 100.925781 24.960938 C 101.011719 24.820312 100.957031 24.691406 100.929688 24.640625 C 100.898438 24.585938 100.804688 24.46875 100.621094 24.46875 C 94.476562 24.472656 88.289062 25.808594 82.621094 28.339844 Z M 57.925781 23.433594 C 58.410156 24.015625 58.964844 24.617188 59.59375 25.230469 C 64.59375 21.171875 70.03125 17.964844 75.777344 15.703125 C 75.886719 15.660156 75.976562 15.578125 76.027344 15.476562 C 76.238281 15.0625 76.40625 14.609375 76.53125 14.125 C 76.589844 13.886719 76.453125 13.726562 76.394531 13.667969 C 76.335938 13.609375 76.167969 13.480469 75.921875 13.554688 C 69.402344 15.566406 63.191406 18.976562 57.925781 23.433594 Z M 62.511719 27.664062 C 62.789062 27.867188 63.078125 28.070312 63.375 28.265625 L 63.453125 28.207031 C 63.492188 28.175781 63.574219 28.121094 63.636719 28.082031 C 63.703125 28.035156 63.78125 28 63.851562 27.964844 C 64.003906 27.898438 64.160156 27.84375 64.324219 27.816406 C 64.96875 27.699219 65.671875 27.933594 66.109375 28.433594 C 66.542969 28.902344 66.726562 29.625 66.550781 30.257812 C 66.464844 30.578125 66.296875 30.871094 66.070312 31.105469 C 66.015625 31.167969 65.949219 31.21875 65.890625 31.273438 L 65.753906 31.382812 L 65.746094 31.390625 C 65.789062 32.320312 66.140625 36.289062 68.808594 41.011719 C 70.230469 41.082031 75.613281 41.503906 82.035156 43.964844 C 88.828125 46.574219 98.046875 52.054688 103.421875 63.382812 C 107.988281 72.996094 108.539062 83.605469 105.070312 94.914062 C 101.519531 106.484375 95.09375 114.324219 93.207031 116.453125 C 84.339844 126.464844 81.066406 132.257812 80.003906 134.460938 C 103.894531 128.792969 121.722656 107.28125 121.722656 81.683594 C 121.722656 51.773438 97.386719 27.441406 67.480469 27.441406 C 65.816406 27.4375 64.15625 27.515625 62.511719 27.664062 Z M 62.511719 27.664062 " fill-opacity="1" fill-rule="nonzero"/></g><g clip-path="url(#6b6759ba3a)"><path fill="#bcc7ce" d="M 44.875 124.3125 C 44.847656 123.289062 44.839844 122.195312 44.863281 121.058594 C 42.074219 120.882812 39.570312 120.253906 37.578125 119.5625 C 39.84375 121.351562 42.285156 122.945312 44.875 124.3125 Z M 37.078125 109.445312 C 39.203125 110.566406 42.230469 111.832031 45.792969 112.378906 C 45.25 114.722656 44.992188 117.34375 44.894531 119.855469 C 41.386719 119.628906 38.347656 118.648438 36.277344 117.785156 C 36.332031 115.730469 36.515625 112.691406 37.078125 109.445312 Z M 41.167969 98.304688 C 42.5 100.84375 44.6875 104.101562 48.019531 106.804688 C 47.375 107.824219 46.777344 109.058594 46.289062 110.570312 C 46.222656 110.777344 46.164062 110.996094 46.097656 111.207031 C 42.453125 110.667969 39.382812 109.332031 37.3125 108.207031 C 38.023438 104.707031 39.207031 101.09375 41.167969 98.304688 Z M 50.273438 93.351562 C 50.554688 93.351562 50.832031 93.363281 51.105469 93.378906 C 50.921875 95.230469 50.910156 97.746094 51.605469 100.449219 C 51.585938 100.441406 51.570312 100.433594 51.550781 100.425781 C 51.28125 100.332031 51.019531 100.230469 50.75 100.140625 L 49.9375 99.910156 C 49.671875 99.828125 49.394531 99.773438 49.121094 99.71875 C 48.839844 99.664062 48.566406 99.617188 48.289062 99.574219 C 49.308594 100.054688 50.320312 100.472656 51.28125 101.011719 C 51.480469 101.101562 51.664062 101.203125 51.847656 101.308594 C 51.855469 101.335938 51.867188 101.359375 51.875 101.386719 L 51.949219 101.363281 C 52.207031 101.511719 52.460938 101.664062 52.722656 101.800781 C 53.046875 102.003906 53.378906 102.203125 53.699219 102.40625 C 52.414062 102.734375 50.453125 103.59375 48.714844 105.820312 C 45.351562 103.070312 43.21875 99.722656 41.976562 97.25 C 43.96875 94.898438 46.65625 93.351562 50.273438 93.351562 Z M 52.300781 93.507812 C 55.566406 94.007812 58.527344 95.660156 61.101562 97.800781 C 59.863281 99.230469 58.386719 101.320312 57.421875 103.96875 C 56.683594 103.355469 55.910156 102.78125 55.101562 102.261719 L 55.101562 102.203125 L 55.007812 102.203125 C 54.867188 102.113281 54.726562 102.019531 54.582031 101.933594 C 54.109375 101.617188 53.597656 101.375 53.105469 101.101562 C 53.058594 101.078125 53.015625 101.058594 52.972656 101.039062 L 53.019531 101.023438 C 52.117188 98.164062 52.105469 95.449219 52.300781 93.507812 Z M 62.011719 98.59375 C 64.375 100.738281 66.378906 103.25 67.957031 105.546875 C 66.417969 106.492188 64.476562 107.949219 62.808594 110.035156 C 62.542969 109.632812 62.265625 109.242188 61.980469 108.851562 C 61.648438 108.390625 61.296875 107.949219 60.941406 107.507812 C 60.574219 107.078125 60.207031 106.644531 59.816406 106.238281 C 59.359375 105.75 58.886719 105.28125 58.394531 104.828125 C 59.292969 102.136719 60.777344 100.015625 62.011719 98.59375 Z M 68.628906 106.542969 C 70.296875 109.09375 71.394531 111.25 71.816406 112.125 C 69.941406 113.632812 68.082031 115.238281 66.332031 116.953125 C 66.0625 116.179688 65.75 115.4375 65.414062 114.695312 C 64.945312 113.664062 64.425781 112.660156 63.847656 111.683594 C 63.734375 111.488281 63.617188 111.300781 63.5 111.109375 C 65.125 108.960938 67.09375 107.480469 68.628906 106.542969 Z M 61.074219 125.289062 C 66.367188 130.464844 71.097656 133.601562 74.546875 135.460938 C 72.230469 135.761719 69.871094 135.925781 67.476562 135.925781 C 64.1875 135.925781 60.96875 135.628906 57.84375 135.066406 C 58.15625 131.441406 59.335938 128.214844 61.074219 125.289062 Z M 68.824219 116.234375 C 74.742188 121.878906 79.910156 124.992188 83.410156 126.660156 C 80.097656 131.289062 78.894531 133.902344 78.535156 134.789062 C 77.890625 134.925781 77.238281 135.042969 76.582031 135.15625 C 73.117188 133.46875 67.808594 130.226562 61.730469 124.242188 C 63.648438 121.300781 66.125 118.667969 68.824219 116.234375 Z M 77.617188 109.148438 C 77.726562 109.066406 77.832031 108.984375 77.945312 108.898438 C 82.050781 112.710938 86.21875 115.734375 90.347656 117.898438 C 87.769531 120.910156 85.730469 123.488281 84.128906 125.667969 C 80.726562 124.074219 75.617188 121.035156 69.726562 115.429688 C 72.28125 113.203125 74.996094 111.136719 77.617188 109.148438 Z M 83.382812 104.625 C 84.367188 103.789062 85.324219 102.871094 86.246094 101.886719 C 90.144531 104.585938 94 106.695312 97.742188 108.160156 C 95.910156 111.191406 94.007812 113.738281 92.308594 115.652344 C 91.910156 116.097656 91.53125 116.535156 91.15625 116.964844 C 87.09375 114.867188 82.976562 111.910156 78.914062 108.164062 C 80.507812 106.949219 82.011719 105.78125 83.382812 104.625 Z M 91.449219 95.019531 C 95.984375 97.542969 99.691406 98.703125 102.214844 99.234375 C 101.0625 102.082031 99.742188 104.734375 98.363281 107.113281 C 94.695312 105.691406 90.898438 103.636719 87.066406 100.992188 C 88.675781 99.164062 90.164062 97.144531 91.449219 95.019531 Z M 94.792969 88.113281 C 94.828125 88 94.871094 87.882812 94.910156 87.769531 C 99.269531 89.34375 102.71875 89.875 105.042969 90.015625 C 104.449219 92.828125 103.628906 95.539062 102.65625 98.097656 C 100.226562 97.609375 96.578125 96.496094 92.058594 93.984375 C 93.144531 92.070312 94.074219 90.09375 94.792969 88.113281 Z M 96.578125 80 C 96.925781 80.007812 97.269531 80.011719 97.601562 80.011719 C 101.257812 80.011719 104.078125 79.570312 106.015625 79.109375 C 106.136719 82.429688 105.851562 85.683594 105.273438 88.828125 C 103.03125 88.707031 99.636719 88.203125 95.285156 86.628906 C 95.902344 84.652344 96.398438 82.40625 96.578125 80 Z M 95.527344 71.011719 C 98.671875 70.226562 101.503906 69.183594 103.972656 67.914062 C 105.113281 71.25 105.738281 74.59375 105.960938 77.886719 C 103.929688 78.382812 100.804688 78.886719 96.640625 78.796875 C 96.707031 76.304688 96.40625 73.671875 95.527344 71.011719 Z M 98.324219 57.324219 C 99.804688 59.253906 101.167969 61.429688 102.339844 63.898438 C 102.792969 64.851562 103.199219 65.8125 103.5625 66.769531 C 101.113281 68.050781 98.28125 69.089844 95.117188 69.871094 C 94.742188 68.921875 94.289062 67.972656 93.75 67.027344 C 92.945312 65.617188 92.054688 64.335938 91.109375 63.167969 C 94.554688 60.988281 96.875 58.878906 98.324219 57.324219 Z M 88.667969 48.605469 C 91.714844 50.511719 94.816406 53.035156 97.566406 56.371094 C 96.160156 57.898438 93.839844 60.027344 90.316406 62.242188 C 88.335938 60.003906 86.148438 58.230469 83.976562 56.832031 C 86.433594 53.484375 87.859375 50.621094 88.667969 48.605469 Z M 77.738281 43.804688 C 78.976562 44.15625 80.289062 44.585938 81.644531 45.105469 C 83.5 45.820312 85.535156 46.753906 87.632812 47.972656 C 86.855469 49.9375 85.449219 52.808594 82.953125 56.195312 C 80.714844 54.867188 78.535156 53.921875 76.664062 53.261719 C 77.429688 49.898438 77.792969 46.722656 77.738281 43.804688 Z M 76.527344 43.480469 C 76.617188 46.359375 76.273438 49.519531 75.515625 52.878906 C 73.652344 52.289062 72.203125 52 71.480469 51.871094 C 71.34375 49.867188 71.4375 48.324219 71.496094 47.667969 L 71.59375 47.640625 C 71.640625 47.632812 71.734375 47.605469 71.808594 47.582031 C 71.886719 47.558594 71.960938 47.523438 72.035156 47.488281 C 72.183594 47.414062 72.324219 47.324219 72.445312 47.21875 C 72.949219 46.792969 73.210938 46.101562 73.105469 45.449219 C 73.015625 44.8125 72.574219 44.207031 71.96875 43.949219 C 71.671875 43.8125 71.335938 43.753906 71.011719 43.78125 C 70.925781 43.785156 70.847656 43.804688 70.769531 43.816406 L 70.648438 43.839844 C 70.261719 43.316406 69.898438 42.792969 69.570312 42.273438 C 70.9375 42.390625 73.445312 42.695312 76.527344 43.480469 Z M 74.351562 17.597656 C 73.996094 19.246094 73.625 22.421875 74.585938 26.691406 C 72.257812 26.390625 69.886719 26.234375 67.480469 26.234375 C 65.359375 26.234375 63.222656 26.355469 61.132812 26.601562 C 60.910156 26.417969 60.699219 26.234375 60.492188 26.050781 C 64.808594 22.566406 69.457031 19.730469 74.351562 17.597656 Z M 98.171875 27.425781 C 97.496094 28.675781 96.519531 30.96875 96.175781 34.257812 C 93.371094 32.554688 90.40625 31.09375 87.304688 29.90625 C 90.890625 28.671875 94.53125 27.84375 98.171875 27.425781 Z M 54.273438 18.328125 C 57.164062 25.152344 63.023438 29.03125 63.023438 29.03125 L 48.289062 41.886719 C 47.160156 41.28125 45.527344 40.992188 45.527344 40.992188 C 47.359375 27.328125 54.273438 18.328125 54.273438 18.328125 Z M 50.496094 44.324219 L 64.871094 31.195312 C 64.871094 31.195312 66.367188 39.335938 70.054688 44.324219 L 50.910156 47.449219 Z M 70.917969 47.289062 C 69.351562 53.730469 73.050781 61.167969 73.050781 61.167969 C 62.160156 60.386719 50.339844 53.414062 50.339844 53.414062 L 51.398438 50.707031 Z M 121.722656 90.976562 C 114.386719 123.765625 90.347656 130.859375 90.347656 130.859375 C 114.566406 116.597656 114.148438 74.726562 114.148438 74.726562 C 116.503906 82.195312 116.816406 90.972656 116.816406 90.972656 C 123.25 60.835938 105.042969 42.585938 105.042969 42.585938 C 126.613281 58.503906 121.722656 90.976562 121.722656 90.976562 Z M 59.777344 87.84375 C 60.601562 84.429688 60.488281 82.902344 60.488281 82.902344 C 66.144531 84.3125 69.566406 86.722656 69.566406 86.722656 C 66.292969 82.777344 59.777344 79.109375 59.777344 79.109375 C 75.042969 82.300781 82.625 99.945312 82.625 99.945312 C 73.222656 88.277344 59.777344 87.84375 59.777344 87.84375 Z M 36.519531 37.019531 C 36.519531 37.019531 31.84375 38.707031 31.292969 44.324219 C 30.746094 49.945312 30.351562 57.324219 30.351562 57.324219 C 30.351562 57.324219 31.058594 53.746094 32.628906 50 C 32.628906 50 29.976562 65.042969 33.066406 71.695312 L 29.097656 67.050781 L 27.054688 60.304688 L 27.636719 50.496094 L 30.035156 40.21875 L 32.625 37.015625 L 36.519531 37.015625 Z M 35.90625 93.273438 C 33.96875 96.117188 32.542969 99.378906 31.976562 102.777344 C 33.039062 100.984375 34.253906 99.5 36.105469 98.546875 C 34.199219 102.363281 32.921875 106.777344 33.050781 111.039062 C 30.84375 107.835938 28.726562 104.277344 27.277344 100.671875 C 27.984375 95.988281 29.640625 91.453125 32.113281 87.414062 C 33 89.792969 34.078125 91.511719 35.90625 93.273438 Z M 44.746094 87.496094 C 44.796875 86.957031 44.851562 86.414062 44.90625 85.875 C 46.589844 86.648438 49.121094 87.289062 50.757812 87.652344 C 48.523438 88.605469 45.828125 88.601562 44.667969 88.539062 C 44.6875 88.195312 44.714844 87.84375 44.746094 87.496094 Z M 44.746094 87.496094 " fill-opacity="1" fill-rule="nonzero"/></g><g clip-path="url(#2e5a43b963)"><path fill="#1f7dd5" d="M 16.085938 81.71875 C 16.085938 106.597656 33.632812 127.378906 57.027344 132.367188 C 57.1875 131.601562 57.378906 130.851562 57.613281 130.117188 C 47.15625 127.988281 37.507812 122.398438 30.394531 114.332031 C 23.070312 106.019531 18.707031 95.367188 18.117188 84.34375 L 18.085938 83.710938 L 17.957031 81.679688 L 27.277344 81.679688 L 24.386719 76.3125 C 23.738281 77.710938 22.246094 79.644531 18.980469 79.644531 L 18.089844 79.644531 L 18.121094 79.011719 C 18.605469 70.003906 21.550781 61.3125 26.644531 53.855469 C 26.738281 52.773438 26.855469 51.691406 27 50.617188 C 27.039062 50.324219 27.082031 50.035156 27.125 49.746094 C 20.214844 58.550781 16.085938 69.652344 16.085938 81.71875 Z M 16.085938 81.71875 " fill-opacity="1" fill-rule="nonzero"/></g><g clip-path="url(#c61f1a3083)"><path fill="#071e52" d="M 28.640625 41.734375 L 28.660156 41.679688 C 28.691406 41.585938 28.722656 41.492188 28.757812 41.394531 C 29.160156 40.324219 29.636719 39.4375 30.203125 38.695312 C 28.917969 30.980469 29.351562 22.984375 31.464844 15.558594 C 31.664062 14.871094 32.195312 14.359375 32.898438 14.1875 C 33.050781 14.152344 33.207031 14.136719 33.359375 14.136719 C 33.90625 14.136719 34.410156 14.359375 34.777344 14.761719 C 35.195312 15.214844 35.550781 15.691406 35.828125 16.179688 C 36.066406 16.59375 36.148438 17.078125 36.050781 17.539062 L 35.980469 17.902344 C 36.410156 18.402344 37.457031 19.492188 39.234375 20.640625 C 41.203125 21.914062 43.5 22.90625 46.058594 23.589844 C 46.308594 23.070312 46.574219 22.539062 46.851562 22.011719 C 48.097656 19.632812 49.507812 17.367188 51.039062 15.289062 L 51.703125 14.402344 C 51.722656 14.367188 51.761719 14.324219 51.796875 14.285156 L 51.828125 14.25 C 51.9375 14.117188 52.074219 14.015625 52.171875 13.945312 C 52.417969 13.773438 52.710938 13.660156 53.011719 13.617188 C 53.109375 13.601562 53.207031 13.597656 53.300781 13.597656 C 53.824219 13.597656 54.3125 13.789062 54.671875 14.132812 C 54.886719 14.332031 55.0625 14.585938 55.175781 14.882812 C 55.238281 15.050781 55.296875 15.222656 55.351562 15.394531 C 55.464844 15.769531 55.546875 16.117188 55.605469 16.46875 L 55.621094 16.601562 C 55.632812 16.675781 55.636719 16.75 55.640625 16.828125 C 55.644531 16.976562 55.632812 17.128906 55.601562 17.265625 C 55.574219 17.402344 55.53125 17.542969 55.464844 17.691406 C 55.414062 17.804688 55.332031 17.9375 55.261719 18.042969 C 55.21875 18.117188 55.167969 18.1875 55.117188 18.261719 C 55.351562 18.90625 55.949219 20.324219 57.21875 22.082031 C 62.59375 17.613281 68.898438 14.175781 75.492188 12.144531 C 75.679688 12.085938 75.878906 12.054688 76.074219 12.054688 C 76.570312 12.054688 77.046875 12.25 77.414062 12.601562 C 77.933594 13.097656 78.136719 13.800781 77.960938 14.488281 C 77.804688 15.089844 77.597656 15.648438 77.339844 16.144531 C 77.125 16.566406 76.761719 16.898438 76.3125 17.078125 C 76.210938 17.117188 76.109375 17.160156 75.996094 17.203125 C 75.683594 18.3125 74.957031 21.730469 76.113281 26.632812 C 77.628906 26.871094 79.195312 27.183594 80.769531 27.570312 C 86.960938 24.578125 93.824219 22.996094 100.621094 22.996094 C 101.289062 22.996094 101.902344 23.351562 102.21875 23.921875 C 102.539062 24.5 102.527344 25.175781 102.183594 25.726562 C 101.910156 26.179688 101.59375 26.597656 101.234375 26.964844 C 100.964844 27.238281 100.613281 27.421875 100.230469 27.484375 L 99.808594 27.574219 C 99.289062 28.394531 97.964844 30.851562 97.628906 34.84375 C 113.644531 45.1875 123.195312 62.683594 123.195312 81.683594 C 123.195312 112.40625 98.199219 137.402344 67.476562 137.402344 C 36.753906 137.402344 11.761719 112.40625 11.761719 81.683594 C 11.761719 66.496094 17.757812 52.3125 28.640625 41.734375 Z M 54.082031 20.351562 C 52.898438 23.898438 51.851562 27.515625 50.964844 31.128906 C 51.925781 29.644531 53.128906 28.175781 54.414062 26.925781 L 55.160156 26.203125 L 54.867188 27.203125 C 54.375 28.871094 54.191406 30.707031 54.332031 32.507812 L 54.34375 32.640625 L 54.246094 32.730469 C 53.324219 33.570312 52.453125 34.339844 51.605469 35.089844 C 49.726562 36.746094 45.527344 40.992188 45.527344 40.992188 C 45.542969 38.164062 45.933594 35.46875 46.578125 33.210938 C 47.28125 30.734375 48.160156 28.234375 49.191406 25.78125 C 50.179688 23.429688 51.375 21.0625 52.746094 18.742188 C 52.957031 18.371094 53.183594 18.007812 53.40625 17.65625 C 53.53125 17.457031 53.652344 17.257812 53.777344 17.054688 C 53.816406 16.988281 53.820312 16.988281 53.832031 16.957031 C 53.835938 16.949219 53.839844 16.9375 53.84375 16.921875 L 53.84375 16.871094 L 53.839844 16.851562 L 53.828125 16.765625 C 53.777344 16.492188 53.710938 16.214844 53.621094 15.945312 C 53.578125 15.808594 53.53125 15.675781 53.476562 15.546875 C 53.464844 15.519531 53.453125 15.5 53.429688 15.476562 C 53.417969 15.46875 53.378906 15.449219 53.328125 15.449219 C 53.316406 15.449219 53.308594 15.449219 53.292969 15.453125 C 53.28125 15.457031 53.265625 15.457031 53.261719 15.457031 L 53.242188 15.46875 L 53.21875 15.503906 L 53.199219 15.523438 L 52.5625 16.398438 C 51.050781 18.484375 49.703125 20.664062 48.550781 22.890625 C 47.414062 25.085938 46.394531 27.445312 45.527344 29.902344 C 44.6875 32.3125 44.019531 34.792969 43.546875 37.273438 C 43.511719 37.488281 43.472656 37.695312 43.4375 37.90625 C 43.363281 38.324219 43.285156 38.742188 43.222656 39.15625 C 43.140625 39.777344 43.054688 40.421875 42.953125 41.0625 C 42.867188 41.695312 42.757812 42.324219 42.609375 42.984375 C 42.453125 43.761719 42.292969 44.363281 42.085938 44.9375 L 41.789062 45.765625 L 41.566406 44.910156 C 41.417969 44.332031 41.316406 43.710938 41.238281 42.886719 C 41.203125 42.273438 41.203125 41.617188 41.238281 40.882812 C 41.269531 40.382812 41.332031 39.882812 41.394531 39.398438 C 41.417969 39.234375 41.4375 39.074219 41.457031 38.902344 C 41.515625 38.476562 41.589844 38.054688 41.660156 37.628906 C 40.386719 37.417969 39.046875 37.226562 37.734375 37.226562 C 37.324219 37.226562 36.925781 37.246094 36.550781 37.28125 C 35.570312 37.382812 34.664062 37.617188 33.867188 37.976562 C 33.027344 38.355469 32.320312 38.894531 31.761719 39.585938 C 31.246094 40.210938 30.808594 41.007812 30.4375 42.007812 C 30.410156 42.078125 30.320312 42.339844 30.304688 42.398438 L 30.222656 42.636719 C 30.015625 43.289062 29.816406 44.019531 29.625 44.863281 C 29.167969 46.792969 28.792969 48.792969 28.511719 50.820312 C 28.242188 52.769531 28.0625 54.800781 27.972656 56.855469 L 27.972656 56.886719 C 27.953125 57.382812 27.933594 57.875 27.929688 58.375 C 27.921875 58.628906 27.925781 58.867188 27.925781 59.113281 C 27.925781 59.355469 27.945312 59.601562 27.960938 59.832031 C 28.023438 60.789062 28.179688 61.753906 28.421875 62.695312 C 28.898438 64.539062 29.71875 66.3125 30.851562 67.980469 C 31.109375 68.363281 31.394531 68.753906 31.71875 69.160156 L 32.195312 69.75 C 32.382812 69.96875 32.539062 70.195312 32.710938 70.453125 C 33.277344 71.335938 33.710938 72.375 34.003906 73.535156 C 34.304688 74.6875 34.441406 75.832031 34.527344 76.695312 C 34.636719 77.742188 34.691406 78.808594 34.738281 79.8125 C 34.835938 81.785156 34.933594 83.820312 35.511719 85.667969 C 35.820312 86.65625 36.222656 87.507812 36.699219 88.203125 C 37.25 89 37.910156 89.632812 38.617188 90.039062 C 39.371094 90.460938 40.242188 90.695312 41.070312 90.695312 L 41.113281 90.695312 C 41.558594 90.691406 41.976562 90.621094 42.359375 90.488281 C 42.464844 90.457031 42.546875 90.425781 42.644531 90.378906 C 42.722656 90.34375 42.816406 90.304688 42.90625 90.25 L 43.042969 90.171875 L 43.078125 90.148438 L 43.089844 90.082031 L 43.109375 89.6875 L 43.15625 88.910156 C 43.191406 88.386719 43.230469 87.863281 43.273438 87.359375 C 43.363281 86.359375 43.464844 85.375 43.582031 84.289062 L 43.632812 83.816406 C 43.71875 82.972656 43.8125 82.097656 43.886719 81.238281 C 44 80.070312 44.070312 79.109375 44.113281 78.214844 C 44.207031 76.082031 44.335938 73.996094 44.867188 71.957031 C 45.011719 71.4375 45.1875 70.917969 45.398438 70.410156 C 45.585938 69.996094 45.839844 69.464844 46.171875 68.964844 C 46.808594 67.976562 48.109375 67.140625 48.992188 66.628906 C 48.992188 66.628906 46.832031 70.175781 46.355469 72.320312 C 46.210938 72.964844 46.101562 73.664062 46.027344 74.457031 C 46.152344 75.035156 47.300781 80.488281 47.269531 83.796875 C 47.703125 84.023438 49.105469 84.703125 50.878906 85.027344 C 51.664062 82.324219 51.972656 77.257812 52.199219 73.519531 L 52.203125 73.476562 C 52.300781 71.84375 52.394531 70.304688 52.511719 69.152344 C 52.855469 65.722656 54.617188 62.777344 55.769531 61.175781 C 54.144531 60.46875 52.574219 59.695312 51.085938 58.863281 C 50.875 58.738281 50.660156 58.621094 50.453125 58.496094 C 50.101562 58.296875 49.734375 58.085938 49.375 57.867188 C 49.214844 57.765625 49.050781 57.660156 48.886719 57.558594 C 48.496094 57.3125 48.09375 57.0625 47.707031 56.785156 C 47.09375 56.324219 46.601562 55.921875 46.15625 55.507812 C 45.578125 54.9375 45.160156 54.46875 44.804688 53.980469 L 44.28125 53.269531 L 45.113281 53.5625 C 45.6875 53.765625 46.253906 54.019531 46.949219 54.394531 C 47.554688 54.699219 48.128906 55.015625 48.65625 55.339844 C 49.21875 55.667969 49.78125 56.015625 50.304688 56.339844 C 50.660156 56.550781 51.023438 56.753906 51.378906 56.953125 C 51.574219 57.066406 51.773438 57.175781 51.964844 57.285156 C 54.191406 58.496094 56.535156 59.554688 58.925781 60.421875 C 61.398438 61.3125 63.867188 62.023438 66.269531 62.527344 C 68.738281 63.050781 71.285156 63.386719 73.835938 63.535156 L 74.796875 63.589844 L 74.894531 63.601562 C 74.90625 63.601562 74.925781 63.597656 74.945312 63.597656 C 74.949219 63.597656 74.957031 63.597656 74.960938 63.597656 L 75 63.589844 C 75 63.589844 75.015625 63.585938 75.042969 63.5625 C 75.082031 63.527344 75.101562 63.472656 75.097656 63.4375 C 75.097656 63.425781 75.09375 63.402344 75.078125 63.375 C 75.011719 63.25 74.9375 63.125 74.859375 63.007812 C 74.699219 62.753906 74.527344 62.527344 74.359375 62.332031 L 74.269531 62.230469 C 74.265625 62.222656 74.257812 62.222656 74.253906 62.21875 L 74.21875 62.203125 L 74.210938 62.195312 C 74.179688 62.1875 74.179688 62.1875 74.105469 62.179688 C 73.878906 62.148438 73.652344 62.121094 73.425781 62.089844 C 73.003906 62.035156 72.574219 61.980469 72.148438 61.910156 C 69.492188 61.5 66.898438 60.921875 64.449219 60.195312 C 61.898438 59.4375 59.410156 58.539062 57.046875 57.511719 C 54.894531 56.585938 52.570312 55.179688 50.359375 53.390625 C 50.359375 53.390625 53.542969 54.382812 55.015625 55.035156 C 55.867188 55.410156 56.746094 55.796875 57.617188 56.160156 C 59.921875 57.105469 62.367188 57.933594 64.890625 58.628906 C 67.0625 59.21875 69.363281 59.699219 71.742188 60.0625 C 70.253906 56.242188 69.917969 52.492188 69.914062 49.871094 C 68.511719 50.316406 62.835938 52.117188 62.835938 52.117188 C 62.945312 52.117188 63.054688 52.125 63.160156 52.125 C 63.816406 52.148438 64.492188 52.171875 65.125 52.171875 L 66 52.171875 L 65.277344 52.667969 C 64.027344 53.53125 62.839844 54.566406 61.554688 55.921875 L 61.433594 56.046875 L 61.269531 55.992188 C 59.585938 55.433594 57.878906 54.566406 56.242188 53.449219 C 56.675781 54.207031 57.398438 55.210938 57.398438 55.210938 C 56.398438 54.789062 52.984375 53.222656 51.195312 50.847656 L 50.984375 50.566406 L 51.308594 50.429688 C 52.6875 49.847656 54.117188 49.640625 55.496094 49.441406 C 55.949219 49.378906 56.417969 49.308594 56.882812 49.226562 C 58.679688 48.945312 60.53125 48.613281 62.394531 48.253906 C 64.417969 47.851562 66.210938 47.46875 67.871094 47.09375 C 68.617188 46.921875 69.601562 46.695312 70.59375 46.445312 L 71.277344 46.277344 C 71.3125 46.269531 71.328125 46.261719 71.34375 46.257812 L 71.402344 46.234375 C 71.414062 46.230469 71.441406 46.21875 71.441406 46.21875 C 71.484375 46.195312 71.519531 46.171875 71.554688 46.140625 C 71.691406 46.027344 71.769531 45.820312 71.738281 45.636719 C 71.707031 45.433594 71.585938 45.269531 71.414062 45.1875 C 71.339844 45.15625 71.257812 45.136719 71.179688 45.136719 C 71.167969 45.136719 71.152344 45.136719 71.140625 45.136719 L 71.117188 45.140625 L 71.105469 45.140625 C 71.085938 45.144531 71.0625 45.144531 71.042969 45.148438 L 70.890625 45.179688 L 70.546875 45.25 C 69.683594 45.425781 68.777344 45.605469 67.777344 45.792969 C 65.992188 46.136719 64.117188 46.453125 62.207031 46.738281 C 60.324219 47.023438 58.441406 47.28125 56.609375 47.503906 C 56.398438 47.53125 56.1875 47.554688 55.972656 47.582031 C 55.261719 47.667969 53.558594 47.6875 52.710938 47.703125 C 52.035156 47.710938 51.265625 47.515625 50.6875 47.433594 C 50.6875 47.433594 54.820312 46.261719 55.398438 46.1875 C 55.738281 46.140625 56.074219 46.097656 56.417969 46.046875 C 58.226562 45.792969 60.089844 45.503906 61.957031 45.191406 C 63.816406 44.875 65.667969 44.535156 67.46875 44.191406 C 67.90625 44.105469 68.339844 44.015625 68.773438 43.929688 L 68.878906 43.90625 C 65.910156 39.605469 64.84375 35.644531 64.460938 33.269531 C 63.121094 35.625 62.007812 38.113281 61.148438 40.675781 L 61.109375 40.796875 L 60.992188 40.839844 C 59.558594 41.417969 58.371094 41.964844 57.203125 42.777344 L 56.820312 43.039062 L 56.773438 42.578125 C 56.722656 42.035156 56.800781 41.5 56.929688 40.976562 C 56.496094 41.574219 56.144531 42.261719 55.875 43.027344 L 55.804688 43.21875 L 55.605469 43.210938 C 55.492188 43.207031 55.378906 43.203125 55.261719 43.203125 C 53.648438 43.203125 50.351562 44.453125 50.351562 44.453125 C 50.792969 43.714844 51.273438 42.699219 52.035156 41.867188 C 52.53125 41.320312 53.0625 40.8125 53.578125 40.316406 C 53.734375 40.167969 53.894531 40.019531 54.046875 39.867188 C 55.382812 38.59375 56.773438 37.300781 58.1875 36.027344 C 59.578125 34.761719 61.015625 33.515625 62.449219 32.316406 C 63.242188 31.648438 63.957031 31.058594 64.628906 30.515625 L 64.898438 30.292969 L 65.027344 30.1875 C 65.039062 30.175781 65.050781 30.167969 65.070312 30.152344 L 65.089844 30.128906 C 65.152344 30.0625 65.199219 29.976562 65.222656 29.886719 C 65.273438 29.695312 65.222656 29.496094 65.082031 29.34375 C 64.980469 29.230469 64.820312 29.15625 64.667969 29.15625 C 64.636719 29.15625 64.609375 29.160156 64.5625 29.167969 C 64.53125 29.171875 64.492188 29.183594 64.441406 29.203125 C 64.425781 29.210938 64.414062 29.21875 64.390625 29.230469 L 64.351562 29.257812 C 64.335938 29.265625 64.324219 29.273438 64.292969 29.296875 L 63.734375 29.714844 C 63.078125 30.203125 62.371094 30.742188 61.507812 31.410156 C 60.121094 32.488281 58.695312 33.632812 57.140625 34.914062 C 55.667969 36.136719 54.238281 37.363281 52.890625 38.5625 C 52.542969 38.867188 52.195312 39.183594 51.859375 39.488281 C 50.828125 40.433594 49.761719 41.410156 48.433594 42.109375 L 47.613281 42.542969 L 48.066406 41.738281 C 48.882812 40.289062 50.058594 39.203125 51.199219 38.152344 C 51.4375 37.929688 51.675781 37.707031 51.917969 37.480469 C 53.3125 36.195312 54.730469 34.929688 56.136719 33.726562 C 57.507812 32.542969 58.9375 31.367188 60.507812 30.132812 C 60.96875 29.769531 61.433594 29.410156 61.898438 29.050781 C 57.324219 25.839844 55.101562 22.429688 54.082031 20.351562 Z M 44.585938 121.3125 C 42.730469 121.175781 40.855469 120.839844 38.992188 120.296875 C 40.765625 121.605469 42.644531 122.796875 44.589844 123.851562 C 44.574219 123.015625 44.570312 122.164062 44.585938 121.3125 Z M 44.636719 119.5625 C 44.75 116.925781 45.03125 114.589844 45.464844 112.601562 C 42.085938 112.039062 39.210938 110.839844 37.289062 109.859375 C 36.789062 112.882812 36.613281 115.695312 36.5625 117.605469 C 38.453125 118.378906 41.320312 119.308594 44.636719 119.5625 Z M 51.222656 100.015625 C 50.761719 97.992188 50.617188 95.804688 50.808594 93.636719 C 50.640625 93.628906 50.457031 93.621094 50.273438 93.621094 C 47.105469 93.621094 44.425781 94.855469 42.304688 97.285156 C 43.46875 99.574219 45.492188 102.765625 48.675781 105.433594 C 50.15625 103.625 51.777344 102.746094 53.042969 102.320312 C 52.886719 102.222656 52.734375 102.132812 52.597656 102.042969 C 52.367188 101.921875 52.140625 101.789062 51.921875 101.660156 L 51.625 101.492188 C 51.488281 101.417969 51.332031 101.332031 51.15625 101.25 C 50.484375 100.878906 48.324219 99.671875 48.019531 99.527344 C 48.019531 99.527344 51.09375 99.96875 51.222656 100.015625 Z M 41.136719 98.828125 C 39.59375 101.164062 38.410156 104.265625 37.617188 108.0625 C 39.523438 109.078125 42.445312 110.351562 45.902344 110.898438 C 45.941406 110.761719 45.984375 110.621094 46.027344 110.484375 C 46.460938 109.140625 47.011719 107.921875 47.660156 106.859375 C 44.488281 104.238281 42.390625 101.121094 41.136719 98.828125 Z M 38.09375 100.816406 C 40.757812 94.96875 44.96875 91.875 50.273438 91.875 C 62.605469 91.875 70.976562 107.101562 72.882812 110.929688 C 74.09375 109.972656 75.304688 109.054688 76.472656 108.164062 L 76.726562 107.972656 C 78.570312 106.570312 80.664062 104.988281 82.425781 103.496094 C 83.355469 102.707031 84.289062 101.816406 85.203125 100.835938 C 84.472656 99.097656 82.050781 93.816406 77.714844 88.613281 C 70.957031 80.515625 62.902344 76.335938 53.773438 76.199219 C 53.503906 80.234375 53.128906 84.222656 52.226562 86.457031 C 52.378906 86.488281 52.613281 86.53125 52.613281 86.53125 C 52.613281 86.53125 52.613281 86.53125 52.609375 86.53125 L 54.609375 86.910156 L 52.957031 88.101562 C 50.621094 89.792969 47.320312 90.042969 45.5625 90.042969 C 45.3125 90.042969 45.070312 90.035156 44.832031 90.027344 L 44.824219 90.171875 L 44.8125 90.316406 C 44.804688 90.375 44.796875 90.433594 44.785156 90.503906 C 44.753906 90.632812 44.714844 90.746094 44.671875 90.847656 C 44.570312 91.078125 44.417969 91.289062 44.238281 91.453125 C 44.203125 91.484375 44.160156 91.519531 44.121094 91.546875 L 44.074219 91.585938 L 43.996094 91.636719 L 43.761719 91.773438 C 43.617188 91.863281 43.46875 91.925781 43.347656 91.980469 C 43.191406 92.054688 43.042969 92.105469 42.90625 92.152344 C 42.351562 92.34375 41.75 92.445312 41.125 92.449219 L 41.058594 92.449219 C 39.914062 92.449219 38.765625 92.144531 37.742188 91.570312 C 36.800781 91.035156 35.960938 90.238281 35.238281 89.207031 C 34.652344 88.355469 34.1875 87.371094 33.816406 86.199219 C 33.324219 84.605469 33.152344 83.007812 33.054688 81.480469 C 30.683594 84.53125 25.929688 91.640625 23.917969 101.8125 C 26.550781 107.527344 30.21875 112.589844 34.824219 116.859375 C 35.058594 110.613281 36.210938 104.933594 38.09375 100.816406 Z M 84.367188 56.761719 C 86.621094 58.242188 88.636719 59.960938 90.367188 61.890625 C 93.710938 59.761719 95.90625 57.746094 97.203125 56.359375 C 94.828125 53.523438 92.007812 51.050781 88.796875 49.007812 C 88.039062 50.835938 86.679688 53.566406 84.367188 56.761719 Z M 87.289062 48.09375 C 85.46875 47.046875 83.535156 46.128906 81.546875 45.363281 C 80.398438 44.921875 79.214844 44.523438 78.015625 44.171875 C 78.035156 46.9375 77.6875 49.933594 76.980469 53.089844 C 79.046875 53.832031 81.027344 54.757812 82.878906 55.839844 C 85.21875 52.628906 86.558594 49.894531 87.289062 48.09375 Z M 91.507812 63.238281 C 92.417969 64.382812 93.246094 65.605469 93.972656 66.871094 C 94.097656 67.015625 94.746094 67.816406 95.5 69.496094 C 98.367188 68.757812 100.960938 67.800781 103.214844 66.644531 C 102.871094 65.75 102.492188 64.867188 102.089844 64.015625 C 101.035156 61.796875 99.761719 59.6875 98.296875 57.746094 C 96.96875 59.140625 94.765625 61.144531 91.507812 63.238281 Z M 92.429688 93.878906 C 93.390625 94.402344 94.367188 94.898438 95.335938 95.34375 C 95.082031 93.476562 94.738281 91.691406 94.328125 90.023438 C 93.773438 91.324219 93.136719 92.621094 92.429688 93.878906 Z M 96.15625 71.128906 C 96.921875 73.269531 97.476562 75.757812 97.808594 78.535156 C 101.320312 78.515625 103.984375 78.070312 105.667969 77.675781 C 105.433594 74.453125 104.808594 71.300781 103.808594 68.300781 C 101.550781 69.4375 98.980469 70.386719 96.15625 71.128906 Z M 97.988281 80.28125 C 98.167969 82.453125 98.21875 84.800781 98.136719 87.265625 C 100.585938 87.972656 102.90625 88.402344 105.050781 88.539062 C 105.601562 85.464844 105.839844 82.410156 105.753906 79.449219 C 103.402344 79.976562 100.789062 80.257812 97.988281 80.28125 Z M 98.0625 89.0625 C 97.929688 91.332031 97.691406 93.730469 97.355469 96.207031 C 99.128906 96.90625 100.851562 97.4375 102.484375 97.78125 C 103.417969 95.285156 104.167969 92.761719 104.710938 90.265625 C 102.632812 90.117188 100.398438 89.710938 98.0625 89.0625 Z M 97.09375 97.980469 C 96.882812 99.339844 96.660156 100.636719 96.410156 101.941406 C 96.410156 101.941406 96.058594 99.78125 95.582031 97.363281 C 94.253906 96.792969 92.898438 96.128906 91.546875 95.386719 C 90.335938 97.355469 88.964844 99.222656 87.46875 100.941406 C 91.117188 103.4375 94.738281 105.398438 98.242188 106.777344 C 99.605469 104.402344 100.8125 101.9375 101.835938 99.4375 C 100.328125 99.097656 98.734375 98.609375 97.09375 97.980469 Z M 86.28125 102.246094 C 85.375 103.199219 84.460938 104.070312 83.554688 104.832031 C 82.230469 105.953125 80.753906 107.101562 79.339844 108.183594 C 83.238281 111.75 87.191406 114.589844 91.089844 116.625 C 91.421875 116.246094 91.757812 115.867188 92.105469 115.472656 C 93.882812 113.460938 95.691406 110.984375 97.339844 108.296875 C 93.746094 106.859375 90.027344 104.824219 86.28125 102.246094 Z M 77.925781 109.257812 C 77.878906 109.292969 77.832031 109.328125 77.78125 109.367188 C 75.378906 111.191406 72.664062 113.253906 70.132812 115.445312 C 75.871094 120.851562 80.824219 123.792969 84.042969 125.328125 C 85.722656 123.058594 87.695312 120.589844 89.921875 117.984375 C 85.933594 115.855469 81.902344 112.921875 77.925781 109.257812 Z M 71.476562 112.046875 C 71.035156 111.152344 70.03125 109.214844 68.542969 106.914062 C 67.195312 107.761719 65.367188 109.140625 63.828125 111.121094 C 63.914062 111.261719 64 111.398438 64.082031 111.542969 C 64.636719 112.476562 65.167969 113.5 65.660156 114.578125 C 65.964844 115.25 66.222656 115.871094 66.445312 116.460938 C 67.910156 115.046875 69.5625 113.597656 71.476562 112.046875 Z M 67.570312 105.464844 C 65.8125 102.933594 63.953125 100.757812 62.035156 98.984375 C 60.953125 100.265625 59.574219 102.246094 58.710938 104.746094 C 59.171875 105.175781 59.609375 105.609375 60.015625 106.046875 C 60.386719 106.4375 60.742188 106.851562 61.085938 107.257812 L 61.152344 107.335938 C 61.511719 107.785156 61.863281 108.226562 62.203125 108.6875 C 62.421875 108.988281 62.628906 109.285156 62.828125 109.574219 C 64.429688 107.660156 66.238281 106.304688 67.570312 105.464844 Z M 72.628906 47.421875 C 72.5 47.53125 72.347656 47.632812 72.144531 47.738281 L 72.105469 47.757812 C 72.03125 47.789062 71.960938 47.820312 71.890625 47.839844 C 71.84375 47.855469 71.796875 47.871094 71.753906 47.882812 C 71.703125 48.542969 71.636719 49.90625 71.738281 51.640625 C 72.464844 51.773438 73.734375 52.042969 75.316406 52.53125 C 76.007812 49.378906 76.328125 46.410156 76.261719 43.695312 C 73.628906 43.039062 71.4375 42.734375 70.105469 42.597656 C 70.316406 42.910156 70.535156 43.226562 70.765625 43.542969 C 70.835938 43.527344 70.914062 43.515625 70.988281 43.511719 C 71.050781 43.507812 71.109375 43.503906 71.167969 43.503906 C 71.484375 43.503906 71.800781 43.570312 72.078125 43.695312 C 72.761719 43.992188 73.265625 44.664062 73.375 45.402344 C 73.496094 46.140625 73.203125 46.9375 72.628906 47.421875 Z M 49.804688 87.714844 C 48.292969 87.351562 46.507812 86.855469 45.136719 86.28125 C 45.097656 86.667969 45.0625 87.058594 45.023438 87.445312 L 45.015625 87.519531 C 44.992188 87.773438 44.972656 88.027344 44.957031 88.28125 C 45.152344 88.289062 45.351562 88.292969 45.550781 88.292969 C 46.710938 88.292969 48.304688 88.183594 49.804688 87.714844 Z M 73.980469 18.058594 C 69.386719 20.109375 64.996094 22.800781 60.910156 26.058594 C 61.007812 26.144531 61.109375 26.230469 61.214844 26.316406 C 63.285156 26.082031 65.394531 25.964844 67.476562 25.964844 C 69.742188 25.964844 72.015625 26.101562 74.238281 26.375 C 73.445312 22.597656 73.691406 19.699219 73.980469 18.058594 Z M 75.679688 15.445312 C 75.726562 15.429688 75.761719 15.394531 75.785156 15.351562 C 75.984375 14.960938 76.148438 14.527344 76.269531 14.054688 C 76.277344 14.027344 76.296875 13.949219 76.210938 13.863281 C 76.191406 13.84375 76.140625 13.800781 76.070312 13.800781 C 76.050781 13.800781 76.027344 13.804688 76.003906 13.8125 C 73.875 14.46875 71.734375 15.296875 69.660156 16.261719 C 69.347656 16.429688 62.539062 20.195312 60.300781 24.3125 C 65.082031 20.566406 70.25 17.585938 75.679688 15.445312 Z M 99.347656 25.804688 L 99.425781 25.808594 C 99.582031 25.792969 99.738281 25.78125 99.886719 25.769531 L 99.945312 25.761719 C 99.964844 25.761719 99.976562 25.753906 99.984375 25.742188 C 100.242188 25.476562 100.480469 25.167969 100.691406 24.816406 C 100.691406 24.8125 100.703125 24.796875 100.691406 24.773438 C 100.683594 24.761719 100.664062 24.738281 100.617188 24.738281 C 99.628906 24.738281 98.59375 24.777344 97.527344 24.851562 C 95.714844 25.1875 90.234375 26.332031 87 28.441406 C 90.910156 27.113281 94.890625 26.246094 98.855469 25.859375 Z M 97.691406 27.757812 C 94.476562 28.164062 91.253906 28.890625 88.101562 29.921875 C 90.8125 31.007812 93.449219 32.3125 95.953125 33.804688 C 96.289062 31.097656 97.035156 29.085938 97.691406 27.757812 Z M 121.449219 81.683594 C 121.449219 81.375 121.445312 81.066406 121.441406 80.753906 C 121.441406 80.648438 121.4375 80.539062 121.433594 80.40625 C 121.421875 79.816406 121.402344 79.328125 121.375 78.859375 C 121.367188 78.675781 121.355469 78.488281 121.34375 78.304688 C 121.308594 77.707031 121.257812 77.070312 121.195312 76.417969 C 121.164062 76.121094 121.136719 75.824219 121.101562 75.519531 C 121.09375 75.453125 121.085938 75.390625 121.074219 75.316406 C 121.046875 75.078125 121.019531 74.839844 120.988281 74.613281 L 120.945312 74.308594 C 120.90625 74.027344 120.867188 73.746094 120.824219 73.472656 C 120.722656 72.789062 120.597656 72.078125 120.445312 71.300781 C 120.398438 71.0625 120.347656 70.824219 120.296875 70.578125 C 120.222656 70.21875 120.144531 69.863281 120.058594 69.503906 C 120.039062 69.414062 120.019531 69.324219 119.992188 69.226562 C 119.933594 68.972656 119.875 68.722656 119.808594 68.464844 C 119.734375 68.167969 119.65625 67.871094 119.578125 67.574219 L 119.5625 67.507812 C 119.550781 67.472656 119.542969 67.429688 119.523438 67.375 C 119.457031 67.128906 119.386719 66.886719 119.3125 66.632812 C 119.109375 65.925781 118.886719 65.222656 118.660156 64.546875 L 118.488281 64.042969 L 118.390625 63.761719 C 118.347656 63.636719 118.300781 63.511719 118.25 63.378906 C 118.203125 63.242188 118.152344 63.105469 118.101562 62.96875 C 118.046875 62.820312 117.992188 62.679688 117.933594 62.527344 C 117.75 62.035156 117.574219 61.601562 117.402344 61.1875 C 117.335938 61.023438 117.269531 60.863281 117.195312 60.691406 C 116.964844 60.140625 116.71875 59.585938 116.464844 59.039062 C 116.347656 58.792969 116.230469 58.546875 116.117188 58.304688 C 115.835938 57.71875 115.527344 57.113281 115.171875 56.441406 C 115.035156 56.179688 114.894531 55.925781 114.753906 55.667969 C 114.707031 55.582031 114.660156 55.496094 114.609375 55.40625 C 114.480469 55.175781 114.351562 54.949219 114.21875 54.71875 C 114.070312 54.46875 113.921875 54.214844 113.769531 53.960938 C 113.398438 53.339844 112.996094 52.703125 112.578125 52.066406 C 112.4375 51.855469 112.292969 51.640625 112.148438 51.433594 L 112.128906 51.398438 C 111.945312 51.128906 111.757812 50.859375 111.566406 50.59375 C 111.382812 50.324219 111.191406 50.0625 110.996094 49.800781 C 110.804688 49.539062 110.609375 49.277344 110.410156 49.015625 C 110.210938 48.753906 110.011719 48.496094 109.8125 48.242188 C 109.609375 47.988281 109.402344 47.734375 109.199219 47.484375 C 108.992188 47.234375 108.78125 46.984375 108.570312 46.730469 C 108.359375 46.484375 108.148438 46.238281 107.929688 45.996094 C 107.714844 45.75 107.5 45.507812 107.277344 45.269531 C 107.058594 45.027344 106.839844 44.789062 106.613281 44.554688 C 106.390625 44.316406 106.160156 44.085938 105.933594 43.855469 C 105.707031 43.625 105.476562 43.390625 105.242188 43.164062 C 105.007812 42.9375 104.777344 42.710938 104.539062 42.488281 C 104.332031 42.292969 104.128906 42.097656 103.910156 41.898438 C 103.847656 41.835938 103.777344 41.773438 103.699219 41.707031 C 103.5 41.523438 103.300781 41.34375 103.097656 41.167969 C 102.855469 40.953125 102.609375 40.742188 102.359375 40.527344 C 101.882812 40.121094 101.371094 39.703125 100.847656 39.289062 L 100.734375 39.199219 C 100.578125 39.082031 100.421875 38.957031 100.261719 38.835938 C 100.160156 38.757812 100.0625 38.679688 99.953125 38.601562 L 99.753906 38.453125 C 99.648438 38.371094 99.539062 38.292969 99.429688 38.210938 C 95.675781 36.085938 88.460938 32.613281 80.347656 31.964844 C 83.628906 33.03125 90.019531 35.230469 92.886719 37.085938 C 92.886719 37.085938 87.617188 36.738281 81.113281 36.738281 C 78.039062 36.738281 72.222656 36.789062 72.222656 36.789062 C 72.3125 36.734375 73.816406 35.757812 75.59375 35.023438 C 73.621094 35.203125 70.773438 35.554688 68.613281 36.210938 C 68.554688 36.679688 68.445312 38.199219 69.027344 40.75 C 70.765625 40.851562 75.964844 41.34375 82.132812 43.710938 C 88.96875 46.335938 98.257812 51.859375 103.667969 63.265625 C 108.257812 72.941406 108.820312 83.613281 105.332031 94.988281 C 101.765625 106.621094 95.304688 114.492188 93.414062 116.628906 C 85.144531 125.964844 81.75 131.644531 80.511719 134.054688 C 104.644531 128.0625 121.449219 106.609375 121.449219 81.683594 Z M 78.335938 134.550781 C 78.761719 133.542969 79.976562 131.019531 83 126.765625 C 79.671875 125.144531 74.609375 122.09375 68.816406 116.605469 C 65.949219 119.214844 63.742188 121.703125 62.078125 124.203125 C 68.046875 130.046875 73.261719 133.222656 76.617188 134.871094 C 77.246094 134.761719 77.808594 134.660156 78.335938 134.550781 Z M 67.476562 135.652344 C 69.535156 135.652344 71.617188 135.53125 73.675781 135.292969 C 69.457031 132.921875 65.242188 129.707031 61.132812 125.726562 C 59.429688 128.683594 58.445312 131.671875 58.136719 134.84375 C 61.207031 135.378906 64.347656 135.652344 67.476562 135.652344 Z M 60.714844 97.835938 C 58.03125 95.652344 55.285156 94.304688 52.546875 93.824219 C 52.394531 95.597656 52.414062 98.171875 53.261719 100.875 C 53.386719 100.945312 53.519531 101.015625 53.648438 101.085938 C 54.011719 101.277344 54.378906 101.472656 54.722656 101.699219 C 54.832031 101.761719 54.9375 101.832031 55.042969 101.898438 L 55.089844 101.929688 L 55.375 102.113281 C 56.035156 102.546875 56.679688 103.015625 57.304688 103.519531 C 58.082031 101.511719 59.226562 99.601562 60.714844 97.835938 Z M 56.414062 134.511719 C 56.566406 133.105469 56.851562 131.699219 57.261719 130.324219 C 46.867188 128.140625 37.261719 122.53125 30.191406 114.511719 C 22.824219 106.152344 18.441406 95.441406 17.847656 84.359375 L 17.796875 83.441406 L 18.972656 83.441406 C 22.089844 83.441406 23.65625 85.164062 24.390625 86.460938 L 26.964844 81.675781 L 24.390625 76.894531 C 23.65625 78.191406 22.089844 79.910156 18.980469 79.910156 L 17.800781 79.910156 L 17.847656 78.992188 C 18.332031 69.964844 21.28125 61.242188 26.378906 53.757812 C 26.476562 52.664062 26.59375 51.59375 26.734375 50.578125 C 26.988281 48.730469 27.3125 46.929688 27.699219 45.203125 C 18.542969 55.160156 13.507812 68.074219 13.507812 81.675781 C 13.511719 107.136719 31.535156 129.304688 56.414062 134.511719 Z M 37.796875 68.324219 C 38 68.640625 38.703125 70.332031 38.703125 70.332031 C 38.191406 70.035156 37.167969 69.113281 36.652344 68.613281 C 36.164062 68.101562 35.769531 67.609375 35.445312 67.113281 C 34.78125 66.101562 34.253906 64.929688 33.878906 63.628906 C 33.542969 62.414062 33.347656 61.160156 33.304688 59.898438 C 33.257812 58.464844 33.710938 55.847656 33.992188 54.765625 C 33.992188 54.765625 34.445312 57.796875 34.574219 58.554688 C 35.835938 58.925781 39.109375 60.152344 38.972656 62.90625 C 38.851562 65.378906 38.148438 67.4375 37.796875 68.324219 Z M 38.453125 87.347656 C 37.941406 86.902344 37.546875 86.324219 37.339844 85.738281 C 37.121094 85.144531 37.019531 84.496094 37.050781 83.855469 C 37.101562 83.136719 37.277344 82.546875 37.59375 82.046875 L 37.914062 81.542969 L 38.085938 82.117188 C 38.179688 82.441406 38.265625 82.746094 38.34375 83.042969 C 39.285156 83.324219 39.90625 83.804688 40.191406 84.460938 C 40.570312 85.355469 40.230469 86.335938 39.933594 86.925781 C 39.988281 87 40.046875 87.082031 40.105469 87.160156 C 40.230469 87.324219 40.359375 87.496094 40.492188 87.683594 L 40.824219 88.167969 L 40.238281 88.109375 C 39.554688 88.050781 38.917969 87.773438 38.453125 87.347656 Z M 96.4375 42.957031 C 96.4375 42.957031 92.382812 42.628906 89.472656 42.539062 C 91.09375 43.464844 94.542969 45.640625 97.765625 48.972656 C 97.765625 48.972656 84.277344 41.242188 75.140625 38.992188 C 75.140625 38.992188 87.765625 38.507812 96.4375 42.957031 Z M 96.4375 42.957031 " fill-opacity="1" fill-rule="nonzero"/></g></svg>