<svg xmlns="http://www.w3.org/2000/svg" xmlns:xlink="http://www.w3.org/1999/xlink" width="130" zoomAndPan="magnify" viewBox="0 0 97.5 131.999998" height="176" preserveAspectRatio="xMidYMid meet" version="1.0"><defs><clipPath id="027396897b"><path d="M 0 10.035156 L 97.003906 10.035156 L 97.003906 131.664062 L 0 131.664062 Z M 0 10.035156 " clip-rule="nonzero"/></clipPath><clipPath id="087584cbdd"><path d="M 12 14 L 97.003906 14 L 97.003906 123 L 12 123 Z M 12 14 " clip-rule="nonzero"/></clipPath><clipPath id="191ec03708"><path d="M 16 17 L 97.003906 17 L 97.003906 131.664062 L 16 131.664062 Z M 16 17 " clip-rule="nonzero"/></clipPath><clipPath id="bb51bf9a3c"><path d="M 16 17 L 97.003906 17 L 97.003906 44 L 16 44 Z M 16 17 " clip-rule="nonzero"/></clipPath><clipPath id="aa41e93acc"><path d="M 22 22 L 97.003906 22 L 97.003906 131.664062 L 22 131.664062 Z M 22 22 " clip-rule="nonzero"/></clipPath><clipPath id="d24b579dc8"><path d="M 7 40 L 97.003906 40 L 97.003906 131.664062 L 7 131.664062 Z M 7 40 " clip-rule="nonzero"/></clipPath><clipPath id="ed44561785"><path d="M 6 38 L 97.003906 38 L 97.003906 105 L 6 105 Z M 6 38 " clip-rule="nonzero"/></clipPath><clipPath id="142a527897"><path d="M 4 12 L 97.003906 12 L 97.003906 131.664062 L 4 131.664062 Z M 4 12 " clip-rule="nonzero"/></clipPath></defs><g clip-path="url(#027396897b)"><path fill="#36e9fd" d="M 62.621094 151.753906 C 42 141.527344 29.277344 131.878906 22.589844 121.386719 C 16.957031 112.546875 16.332031 103.902344 16.628906 96.492188 C 12.78125 95.847656 8.851562 95.015625 4.9375 94.023438 L 0.015625 92.777344 L 16.613281 66.90625 C 14.1875 50.082031 8.445312 42.386719 8.386719 42.3125 L 5.832031 39.101562 L 9.347656 36.933594 C 25.550781 26.957031 33.210938 12.191406 33.289062 12.042969 L 34.308594 10.035156 L 94.175781 10.035156 L 95.195312 12.042969 C 95.273438 12.191406 102.929688 26.960938 119.136719 36.941406 L 122.671875 39.101562 L 120.074219 42.347656 C 120.03125 42.402344 114.664062 49.625 112.105469 65.414062 L 117.828125 59.367188 C 118.695312 58.449219 119.917969 57.941406 121.269531 57.941406 C 122.113281 57.941406 123.011719 58.140625 123.945312 58.527344 C 125.308594 59.089844 126.789062 60.089844 128.109375 61.339844 C 129.433594 62.59375 130.511719 64.015625 131.148438 65.347656 C 132.800781 68.808594 131.179688 70.929688 130.644531 71.5 L 115.070312 87.96875 C 119.511719 93.703125 120.503906 97.945312 118.011719 100.582031 L 115.898438 102.816406 C 115.238281 103.519531 114.042969 104.367188 112.101562 104.367188 C 111.976562 104.367188 111.851562 104.363281 111.722656 104.355469 C 111.269531 109.488281 109.738281 116.773438 103.496094 124.789062 C 96.40625 133.902344 84.097656 142.722656 65.878906 151.753906 L 64.253906 152.554688 Z M 62.621094 151.753906 " fill-opacity="1" fill-rule="nonzero"/></g><g clip-path="url(#087584cbdd)"><path fill="#889baa" d="M 31.804688 115.828125 C 31.113281 117.101562 29.855469 119.535156 28.734375 122.351562 C 21.265625 112.875 20.625 103.941406 21.210938 94.296875 C 23.382812 94.585938 25.527344 94.824219 27.644531 94.988281 C 27.320312 100.449219 27.4375 104.824219 28.835938 109.222656 C 28.0625 110.664062 27.410156 112.171875 26.832031 113.71875 L 26.519531 114.5625 L 27.410156 114.773438 Z M 91.449219 14.507812 L 37.035156 14.507812 C 35.613281 17.113281 27.765625 30.570312 12.421875 40.28125 C 14.003906 42.601562 18.636719 50.46875 20.914062 65.480469 L 26.003906 57.546875 C 24.777344 52.121094 23.164062 47.179688 21.1875 42.863281 L 20.921875 42.277344 L 21.433594 41.886719 C 31.328125 34.332031 37.609375 25.777344 40.46875 21.34375 L 40.707031 20.976562 L 87.773438 20.976562 L 88.011719 21.34375 C 90.871094 25.773438 97.152344 34.332031 107.046875 41.886719 L 107.558594 42.277344 L 107.292969 42.863281 C 106.152344 45.363281 105.121094 48.089844 104.21875 50.996094 L 105.523438 51.308594 L 105.210938 52.160156 C 105.136719 52.367188 104.269531 54.6875 102.339844 58.164062 C 101.179688 63.472656 100.40625 69.226562 100.058594 75.277344 C 100.011719 76.078125 99.980469 76.894531 99.964844 77.746094 C 100.996094 78.425781 101.914062 79.101562 102.59375 79.621094 L 106.519531 75.472656 C 107.816406 53.875 114.152344 43.082031 116.054688 40.289062 C 100.71875 30.570312 92.871094 17.113281 91.449219 14.507812 Z M 91.449219 14.507812 " fill-opacity="1" fill-rule="nonzero"/></g><g clip-path="url(#191ec03708)"><path fill="#38485f" d="M 103.289062 75.460938 C 102.984375 80.597656 103.359375 85.402344 103.722656 90.046875 C 104.445312 99.253906 105.070312 107.207031 100.390625 115.59375 C 95.296875 124.734375 84.078125 133.703125 66.09375 143.003906 L 64.238281 143.964844 L 62.386719 143.003906 C 44.398438 133.703125 33.183594 124.734375 28.089844 115.59375 C 23.410156 107.207031 24.035156 99.253906 24.753906 90.050781 C 25.121094 85.402344 25.5 80.597656 25.195312 75.460938 C 24.296875 60.210938 20.921875 50.050781 18.25 44.210938 L 16.929688 41.34375 L 25.46875 43.34375 L 43.0625 25.128906 L 38.910156 17.808594 L 38.949219 17.742188 L 89.53125 17.742188 L 89.601562 17.847656 L 86.894531 22.59375 L 105.5625 42.777344 L 111.511719 41.425781 L 110.230469 44.214844 C 107.5625 50.050781 104.183594 60.210938 103.289062 75.460938 Z M 103.289062 75.460938 " fill-opacity="1" fill-rule="nonzero"/></g><g clip-path="url(#bb51bf9a3c)"><path fill="#012130" d="M 43.0625 25.125 L 25.472656 43.339844 L 16.933594 41.339844 L 16.902344 41.265625 L 19.476562 39.304688 C 24.765625 35.269531 28.984375 30.925781 32.160156 27.140625 L 35.296875 28.421875 L 33.644531 25.316406 C 34.011719 24.851562 34.363281 24.398438 34.699219 23.957031 L 36.34375 24.503906 L 35.757812 22.515625 C 36.558594 21.414062 37.226562 20.421875 37.765625 19.585938 L 38.917969 17.800781 Z M 109.007812 39.308594 C 99.515625 32.066406 93.480469 23.84375 90.722656 19.585938 L 89.601562 17.84375 L 86.894531 22.589844 L 105.5625 42.777344 L 111.511719 41.421875 L 111.578125 41.269531 Z M 109.007812 39.308594 " fill-opacity="1" fill-rule="nonzero"/></g><g clip-path="url(#aa41e93acc)"><path fill="#edf2f8" d="M 101.851562 97.207031 L 87.042969 92.019531 C 86.859375 92.800781 86.632812 93.539062 86.386719 94.292969 C 86.203125 94.808594 86.035156 95.328125 85.816406 95.828125 C 85.609375 96.332031 85.40625 96.835938 85.167969 97.328125 C 84.261719 99.304688 83.191406 101.203125 81.9375 102.972656 C 80.667969 104.726562 79.332031 106.433594 77.769531 107.925781 C 77.390625 108.304688 77.019531 108.695312 76.597656 109.035156 L 75.378906 110.085938 C 74.980469 110.441406 74.527344 110.738281 74.097656 111.058594 C 73.660156 111.371094 73.230469 111.6875 72.789062 111.988281 C 73.523438 111.203125 74.296875 110.476562 75.011719 109.695312 C 75.710938 108.894531 76.453125 108.148438 77.105469 107.3125 L 78.109375 106.09375 L 79.050781 104.828125 C 79.375 104.417969 79.664062 103.976562 79.953125 103.542969 C 80.242188 103.101562 80.554688 102.6875 80.816406 102.230469 L 81.625 100.886719 C 81.886719 100.429688 82.125 99.964844 82.375 99.507812 C 82.632812 99.050781 82.839844 98.574219 83.078125 98.109375 C 83.316406 97.644531 83.519531 97.164062 83.722656 96.683594 C 84.140625 95.730469 84.484375 94.75 84.828125 93.769531 C 85.136719 92.84375 85.410156 91.871094 85.605469 90.964844 L 83.386719 82.613281 C 81.042969 87.8125 77.378906 92.417969 72.820312 95.839844 C 74.097656 94.0625 75.3125 91.9375 76.191406 89.9375 C 72.792969 93.777344 68.382812 96.792969 63.671875 98.8125 C 64.355469 97.585938 64.902344 96.152344 64.976562 94.742188 C 66.722656 93.488281 68.304688 91.898438 69.621094 90.203125 C 67.75 91.664062 65.503906 93.023438 63.285156 93.945312 C 58.398438 97.964844 51.125 103.253906 43.324219 106.515625 L 54.929688 115.445312 L 54.019531 119.992188 L 59.929688 122.015625 L 59.050781 144.90625 C 60.710938 145.785156 62.4375 146.671875 64.242188 147.574219 C 68.230469 145.585938 71.847656 143.648438 75.140625 141.75 L 73.375 135.792969 L 76.164062 138.007812 L 73.71875 132.789062 L 75.925781 130.730469 C 75.925781 121.714844 81.378906 116.574219 81.378906 116.574219 C 79.246094 120.609375 78.773438 124.640625 78.773438 124.640625 C 82.648438 114.914062 92.207031 106.625 92.207031 106.625 C 94.179688 104.476562 96.292969 102.464844 98.609375 100.703125 C 96.632812 102.835938 94.734375 105.007812 92.921875 107.238281 C 91.105469 109.476562 89.386719 111.785156 87.925781 114.234375 C 86.472656 116.683594 85.203125 119.253906 84.480469 121.949219 C 84.300781 122.632812 84.164062 123.273438 84.070312 123.976562 L 83.816406 126.128906 L 83.292969 130.429688 L 83.253906 130.738281 L 83.019531 130.9375 L 80.5625 133.113281 C 80.859375 133.941406 81.136719 134.769531 81.398438 135.609375 C 81.597656 136.253906 81.785156 136.90625 81.96875 137.5625 C 102.558594 124.121094 106.675781 112.871094 107.34375 103.066406 C 104.777344 99.605469 102.355469 97.601562 101.851562 97.207031 Z M 71.519531 104.699219 C 70.945312 105.289062 70.367188 105.871094 69.753906 106.425781 C 68.246094 107.8125 66.566406 109.035156 64.8125 110.101562 C 64.363281 110.359375 63.917969 110.613281 63.464844 110.859375 C 63.003906 111.089844 62.535156 111.296875 62.066406 111.515625 L 61.363281 111.820312 C 61.125 111.914062 60.882812 112 60.636719 112.078125 C 60.148438 112.242188 59.664062 112.402344 59.171875 112.539062 C 59.589844 112.238281 60.011719 111.953125 60.433594 111.679688 L 61.066406 111.265625 L 61.675781 110.824219 C 62.082031 110.527344 62.503906 110.25 62.902344 109.957031 C 63.296875 109.644531 63.695312 109.347656 64.09375 109.050781 C 65.277344 108.128906 66.445312 107.1875 67.574219 106.199219 C 67.441406 106.238281 67.3125 106.277344 67.175781 106.320312 C 65.707031 106.75 64.214844 107.09375 62.710938 107.355469 C 61.960938 107.472656 61.210938 107.605469 60.453125 107.691406 L 59.324219 107.828125 L 58.183594 107.917969 C 57.429688 107.984375 56.667969 107.980469 55.910156 107.992188 C 55.152344 107.984375 54.390625 107.9375 53.636719 107.878906 L 58.085938 107.117188 C 59.5625 106.867188 61.019531 106.554688 62.464844 106.199219 C 63.902344 105.820312 65.328125 105.40625 66.726562 104.921875 C 67.078125 104.800781 67.425781 104.675781 67.769531 104.539062 C 68.117188 104.414062 68.460938 104.28125 68.804688 104.144531 C 69.472656 103.871094 70.160156 103.570312 70.765625 103.269531 C 71.515625 102.554688 72.253906 101.828125 72.984375 101.09375 C 74.398438 99.667969 75.78125 98.210938 77.1875 96.726562 C 76.335938 98.597656 75.1875 100.304688 73.9375 101.929688 C 73.1875 102.890625 72.375 103.8125 71.527344 104.691406 L 71.527344 104.695312 C 71.53125 104.691406 71.527344 104.699219 71.519531 104.699219 Z M 97.027344 121.554688 C 94.570312 124.914062 90.742188 127.644531 86.722656 128.714844 C 89.378906 126.25 92.148438 123.445312 94.140625 120.421875 C 92.390625 121.511719 90.457031 122.285156 88.441406 122.726562 C 93.386719 119.367188 97.597656 114.933594 100.695312 109.820312 C 100.886719 113.980469 99.484375 118.199219 97.027344 121.554688 Z M 52.382812 119.953125 C 50.515625 119.234375 48.359375 119.046875 46.433594 119.476562 C 46.289062 117.949219 46.171875 116.46875 46.027344 114.9375 C 45.476562 116.316406 45.042969 117.910156 44.644531 119.34375 C 43.699219 116.886719 43.074219 114.242188 42.871094 111.621094 C 42.621094 112.519531 42.476562 113.476562 42.230469 114.371094 C 40.492188 113.554688 38.726562 113.046875 36.839844 112.722656 C 37.066406 111.175781 37.5625 109.550781 38.226562 108.136719 C 37.433594 109.011719 36.609375 110.007812 35.8125 110.882812 C 36.558594 108.277344 37.8125 105.816406 39.464844 103.667969 L 38.433594 103.089844 L 38.929688 102.363281 C 39.253906 101.878906 39.527344 101.351562 39.753906 100.804688 L 38.476562 98.882812 C 37.570312 99.808594 36.691406 100.789062 35.855469 101.789062 C 34.804688 103.042969 33.816406 104.34375 32.886719 105.679688 C 31.945312 107.015625 31.109375 108.414062 30.332031 109.839844 C 29.703125 111 29.160156 112.199219 28.679688 113.421875 L 38.789062 115.84375 L 39.277344 115.960938 L 39.390625 116.449219 L 40.257812 120.308594 C 41.503906 120.429688 42.722656 120.597656 43.941406 120.816406 C 45.355469 121.054688 46.765625 121.351562 48.15625 121.703125 C 49.542969 122.0625 50.925781 122.46875 52.277344 122.972656 C 53.617188 123.488281 54.929688 124.097656 56.144531 124.859375 C 54.773438 124.4375 53.410156 124.078125 52.039062 123.75 C 50.769531 123.464844 49.5 123.203125 48.21875 122.976562 C 48.117188 125.0625 48.136719 127.152344 48.292969 129.234375 C 46.410156 128.449219 44.421875 127.523438 42.65625 126.496094 C 44.761719 129.546875 47.824219 132.113281 51.3125 133.355469 C 48.585938 133.550781 45.707031 133.253906 43.210938 132.125 C 45.078125 133.738281 47.253906 135.011719 49.613281 135.726562 C 49.65625 137.148438 49.742188 138.488281 50.058594 139.835938 C 52.347656 141.222656 54.804688 142.628906 57.460938 144.066406 L 58.261719 123.160156 L 52.160156 121.070312 Z M 126.480469 66.234375 C 126.464844 66.210938 126.445312 66.1875 126.425781 66.15625 C 126.371094 66.082031 126.3125 66.003906 126.253906 65.921875 C 126.214844 65.878906 126.179688 65.832031 126.144531 65.789062 C 126.097656 65.730469 126.050781 65.671875 125.996094 65.605469 C 125.945312 65.539062 125.882812 65.476562 125.828125 65.410156 C 125.789062 65.359375 125.75 65.316406 125.707031 65.273438 C 125.632812 65.191406 125.558594 65.109375 125.476562 65.023438 C 125.449219 64.996094 125.421875 64.960938 125.386719 64.933594 C 125.273438 64.816406 125.15625 64.699219 125.035156 64.582031 C 123.34375 62.976562 121.835938 62.394531 121.265625 62.394531 C 121.171875 62.394531 121.105469 62.410156 121.066406 62.4375 C 120.886719 62.738281 121.46875 64.417969 123.433594 66.277344 C 125.382812 68.128906 127.085938 68.621094 127.394531 68.425781 C 127.511719 68.210938 127.273438 67.351562 126.480469 66.234375 Z M 119.890625 64.292969 C 119.816406 64.148438 119.761719 64.007812 119.707031 63.875 L 118.167969 65.503906 C 118.191406 66.21875 118.324219 68.199219 119.160156 70.699219 C 120.027344 70.84375 122.101562 71.117188 124.878906 71.089844 L 126.027344 69.875 C 124.8125 69.46875 123.449219 68.535156 122.316406 67.460938 C 121.246094 66.445312 120.382812 65.316406 119.890625 64.292969 Z M 121.171875 75.007812 L 123.363281 72.691406 C 121.890625 72.652344 120.683594 72.535156 119.828125 72.429688 C 120.1875 73.265625 120.632812 74.128906 121.171875 75.007812 Z M 113.148438 70.8125 C 113.117188 71.886719 113.222656 76.136719 116.71875 79.71875 L 120.027344 76.226562 C 117.703125 72.589844 116.925781 69.140625 116.675781 67.085938 Z M 111.59375 72.457031 L 107.792969 76.472656 C 109.492188 77.316406 111.726562 77.507812 113.132812 77.53125 C 112.121094 75.609375 111.734375 73.785156 111.59375 72.457031 Z M 113.449219 79.152344 C 112.597656 79.152344 111.355469 79.097656 110.050781 78.855469 C 110.339844 80.164062 110.996094 82.367188 112.390625 84.292969 L 115.609375 80.890625 C 115.039062 80.316406 114.546875 79.726562 114.121094 79.136719 C 113.941406 79.148438 113.714844 79.152344 113.449219 79.152344 Z M 106.648438 77.6875 L 104.925781 79.503906 C 104.941406 80.449219 105.242188 83.914062 108.433594 88.476562 L 111.257812 85.488281 C 109.222656 82.8125 108.523438 79.664062 108.316406 78.421875 C 107.734375 78.230469 107.167969 77.988281 106.648438 77.6875 Z M 104.417969 86.382812 C 104.960938 86.898438 105.484375 87.304688 105.960938 87.625 C 104.332031 84.855469 103.691406 82.570312 103.449219 81.0625 L 102.054688 82.539062 C 101.875 82.835938 102.453125 84.519531 104.417969 86.382812 Z M 33.542969 95.296875 L 32.824219 95.28125 L 32.628906 93.082031 C 31.582031 93.046875 30.613281 92.914062 30.011719 92.816406 L 29.300781 94.410156 C 28.976562 99.375 28.988281 103.386719 29.957031 107.257812 C 30.464844 106.40625 30.996094 105.570312 31.566406 104.761719 C 32.523438 103.375 33.542969 102.039062 34.625 100.746094 C 35.566406 99.625 36.53125 98.550781 37.570312 97.503906 L 36.117188 95.316406 C 36.027344 95.316406 35.9375 95.320312 35.84375 95.320312 C 35.085938 95.324219 34.316406 95.3125 33.542969 95.296875 Z M 91.574219 75.542969 C 91.722656 75.386719 91.886719 75.265625 92.070312 75.164062 C 93.53125 74.382812 96.046875 75.398438 98.375 76.75 C 98.394531 76.214844 98.417969 75.691406 98.449219 75.175781 C 98.714844 70.667969 99.207031 66.320312 99.914062 62.195312 C 97.574219 65.796875 94.378906 70.011719 90.132812 74.234375 C 88.40625 75.953125 86.4375 77.71875 84.226562 79.472656 L 87.105469 90.328125 L 87.183594 90.355469 L 91.734375 85.539062 C 91.386719 85.050781 91.054688 84.566406 90.757812 84.09375 C 88.835938 81.027344 88.394531 78.90625 89.457031 77.78125 Z M 102.652344 50.613281 C 103.511719 47.839844 104.484375 45.203125 105.566406 42.777344 C 96.472656 35.730469 90.433594 27.996094 86.898438 22.59375 L 41.585938 22.59375 C 38.050781 28 32.011719 35.726562 22.925781 42.777344 C 24.640625 46.636719 26.082031 50.957031 27.222656 55.648438 L 40.078125 35.613281 Z M 102.652344 50.613281 " fill-opacity="1" fill-rule="nonzero"/></g><g clip-path="url(#d24b579dc8)"><path fill="#889baa" d="M 34.300781 93.691406 C 61.886719 94.132812 79.222656 82.78125 88.945312 73.136719 C 95.375 66.75 99.40625 60.265625 101.597656 56.101562 L 88.855469 53.773438 C 85.960938 59.546875 81.007812 63.160156 81.007812 63.160156 C 83.222656 59.886719 83.917969 54.828125 83.917969 54.828125 C 79.511719 64.171875 68.097656 70.878906 67.738281 71.089844 L 74.476562 69.277344 C 62.445312 77.894531 47.042969 80.460938 46.566406 80.535156 C 62.269531 74.109375 66.78125 59.679688 66.78125 59.679688 C 64.605469 63.316406 58.457031 67.355469 58.261719 67.480469 C 63.429688 61.679688 65.164062 53.878906 65.164062 53.878906 C 61.019531 62.953125 48.34375 68.011719 48.34375 68.011719 C 61.515625 54.40625 55.449219 40.960938 55.449219 40.960938 C 49.132812 48.882812 38.800781 49.785156 34.449219 49.785156 C 33.789062 49.785156 33.273438 49.761719 32.925781 49.742188 L 7.125 89.96875 C 14.308594 91.734375 21.316406 92.890625 27.980469 93.398438 L 33.230469 81.605469 Z M 66.835938 81.210938 C 68.703125 80.242188 70.566406 79.28125 72.339844 78.171875 C 73.246094 77.644531 74.121094 77.066406 75.007812 76.503906 C 75.867188 75.914062 76.746094 75.339844 77.582031 74.707031 C 79.285156 73.5 80.929688 72.195312 82.511719 70.824219 C 84.109375 69.46875 85.625 68.019531 87.105469 66.539062 C 90.039062 63.535156 92.792969 60.328125 95.132812 56.785156 C 94.28125 58.734375 93.15625 60.558594 91.972656 62.335938 C 90.757812 64.09375 89.445312 65.789062 88.03125 67.394531 C 85.203125 70.605469 82 73.503906 78.523438 76.019531 C 75.050781 78.53125 71.292969 80.65625 67.371094 82.355469 C 63.433594 84.035156 59.332031 85.304688 55.148438 86.046875 C 59.164062 84.652344 63.070312 83.074219 66.835938 81.210938 Z M 34.234375 61.890625 C 34.234375 61.890625 40.109375 62.3125 44.953125 59.78125 C 44.953125 59.78125 39.710938 60.40625 35.816406 58.515625 C 35.816406 58.515625 46.175781 57.566406 52.953125 53.664062 C 52.953125 53.664062 47.988281 66.742188 29.3125 70.117188 Z M 92.875 81.863281 C 92.011719 80.484375 91.449219 79.296875 91.1875 78.308594 L 90.636719 78.890625 C 90.339844 79.207031 90.492188 80.621094 92.132812 83.234375 C 93.753906 85.816406 96.324219 88.832031 99.375 91.71875 C 101.449219 93.6875 103.566406 95.421875 105.550781 96.800781 L 106.445312 95.683594 L 106.445312 95.679688 C 104.433594 94.261719 102.339844 92.527344 100.375 90.664062 C 97.230469 87.679688 94.566406 84.554688 92.875 81.863281 Z M 101.757812 85.808594 C 101.546875 85.53125 101.355469 85.242188 101.1875 84.960938 C 101.183594 84.949219 101.175781 84.945312 101.175781 84.945312 C 100.378906 83.585938 100.09375 82.257812 100.878906 81.421875 L 101.472656 80.800781 C 96.308594 76.84375 93.25 76.117188 92.746094 76.652344 C 92.445312 76.964844 92.601562 78.382812 94.238281 80.996094 C 95.859375 83.578125 98.433594 86.597656 101.480469 89.480469 C 101.871094 89.847656 102.25 90.199219 102.625 90.539062 C 105.417969 92.933594 109.402344 92.738281 109.402344 92.738281 C 105.75 91.078125 102.921875 87.472656 101.757812 85.808594 Z M 84.738281 84.714844 C 84.386719 83.574219 83.921875 82.144531 83.253906 81.15625 C 78.699219 84.988281 73.019531 87.8125 67.359375 89.648438 C 64.695312 90.511719 63.390625 93.078125 61.027344 94.585938 C 61.183594 97.378906 60.742188 100.203125 59.738281 102.816406 C 64.003906 101.59375 67.792969 99.523438 71.058594 96.515625 C 70.394531 97.84375 69.640625 99.230469 68.976562 100.5625 C 75.941406 97.273438 81.367188 91.648438 84.738281 84.714844 Z M 75.300781 109.9375 C 78.433594 108.308594 81.367188 106.015625 83.617188 103.296875 C 83.007812 105.039062 82.40625 106.714844 81.527344 108.332031 C 85.078125 105.15625 88.136719 101.023438 90 96.640625 C 94.144531 97.039062 98.316406 97.246094 102.484375 97.25 C 97.058594 95.242188 91.84375 93.183594 86.417969 91.179688 C 84.796875 98.460938 80.988281 105.113281 75.300781 109.9375 Z M 48.902344 106.386719 C 52.429688 108.878906 56.863281 109.792969 61.078125 108.847656 C 59.699219 110.78125 57.949219 112.488281 56.097656 113.972656 C 60.152344 114.160156 64.023438 112.835938 67.34375 110.5 C 70.660156 108.160156 73.058594 104.691406 74.246094 100.808594 C 66.300781 104.378906 57.613281 106.292969 48.902344 106.386719 Z M 53.164062 120.789062 C 53.140625 119.996094 52.898438 119.183594 52.875 118.394531 C 48.777344 114.113281 44.53125 109.71875 40.429688 105.4375 C 40.234375 103.496094 40.011719 101.515625 40.300781 99.585938 C 39.613281 99.039062 38.769531 98.691406 38.082031 98.144531 C 37.136719 99.199219 36.347656 100.011719 35.636719 101.238281 C 34.085938 103.898438 32.847656 106.738281 31.949219 109.683594 C 33.253906 108.097656 34.566406 106.542969 36.109375 105.191406 C 35.140625 107.691406 34.453125 110.371094 34.042969 113.019531 C 36.8125 113.769531 39.617188 114.617188 42.257812 115.734375 C 42.917969 117.878906 43.394531 119.984375 44.054688 122.125 C 44.816406 122.3125 45.382812 122.308594 46.144531 122.496094 C 47.453125 120.921875 49.25 120.324219 51.257812 120.714844 C 51.304688 121.140625 51.234375 121.613281 51.28125 122.035156 C 53.9375 122.730469 56.503906 123.519531 59.101562 124.394531 C 59.109375 123.699219 58.894531 123.253906 58.703125 122.589844 C 56.875 122.007812 54.992188 121.363281 53.164062 120.789062 Z M 54.597656 134.28125 C 52.769531 133.304688 51.226562 131.964844 49.847656 130.414062 C 49.75 127.886719 49.796875 125.347656 49.988281 122.824219 C 49.222656 122.738281 48.683594 122.417969 47.917969 122.328125 C 47.535156 123.179688 47.152344 124.199219 46.769531 125.050781 C 45.28125 124.800781 43.625 124.578125 42.117188 124.46875 C 41.761719 126.558594 41.519531 128.828125 41.164062 130.917969 C 43.171875 135.769531 47.257812 139.746094 52.085938 141.796875 C 51.46875 139.703125 51.414062 137.421875 51.59375 135.242188 C 52.648438 135.261719 53.710938 134.863281 54.597656 134.28125 Z M 95.21875 103.773438 C 90.253906 106.734375 85.695312 110.71875 82.179688 115.308594 C 82.1875 114.75 82.417969 114.210938 82.585938 113.679688 C 77.679688 117.054688 74.304688 122.820312 73.878906 128.765625 C 73.132812 129.449219 72.515625 130.027344 71.582031 130.417969 C 71.691406 131.800781 72.066406 133.214844 72.585938 134.5 C 71.773438 134.074219 71.203125 133.617188 70.390625 133.1875 C 70.773438 136.890625 71.867188 140.515625 73.59375 143.808594 C 74.996094 142.589844 76.578125 141.472656 78.269531 140.703125 C 77.757812 137.496094 78.230469 134.191406 79.171875 131.085938 C 80.113281 127.976562 81.519531 125.03125 82.917969 122.101562 C 84.671875 118.414062 86.441406 114.707031 88.832031 111.402344 C 90.746094 108.757812 93.1875 106.332031 95.21875 103.773438 Z M 85.460938 122.769531 C 86.714844 123.441406 87.972656 123.828125 89.363281 123.535156 C 88.109375 125.976562 86.296875 128.214844 84.332031 130.128906 C 89.925781 129.386719 95.003906 126.964844 98.378906 122.445312 C 101.757812 117.925781 102.960938 112.382812 100.6875 107.21875 C 97.191406 113.6875 91.851562 119.140625 85.460938 122.769531 Z M 104.863281 87.441406 C 105.074219 87.792969 105.402344 88.179688 105.800781 88.097656 C 106.0625 88.046875 106.242188 87.789062 106.292969 87.527344 C 106.34375 87.265625 106.285156 86.992188 106.222656 86.734375 C 105.753906 84.800781 104.96875 82.957031 104.121094 81.15625 C 103.898438 80.683594 103.222656 79.8125 102.660156 80.433594 C 102.324219 80.800781 102.714844 81.773438 102.808594 82.175781 C 103.234375 84.039062 103.875 85.804688 104.863281 87.441406 Z M 106.4375 76.917969 C 106.167969 77.574219 105.53125 77.910156 104.933594 78.292969 C 105.714844 78.867188 106.605469 79.300781 107.535156 79.566406 C 107.839844 82.472656 108.933594 85.335938 110.894531 87.507812 C 111.378906 86.832031 111.636719 86.171875 112.125 85.492188 C 110.550781 83.207031 109.503906 80.488281 109.164062 77.734375 C 108.34375 77.300781 107.351562 77.050781 106.4375 76.917969 Z M 112.992188 78.480469 C 112.09375 78.441406 111.195312 78.402344 110.296875 78.367188 C 110.105469 78.355469 109.90625 78.351562 109.746094 78.453125 C 109.605469 78.542969 109.519531 78.703125 109.480469 78.867188 C 109.328125 79.5 109.785156 80.160156 110.371094 80.445312 C 110.957031 80.726562 111.636719 80.722656 112.285156 80.679688 C 112.953125 80.632812 114.648438 80.597656 114.816406 79.738281 C 115 78.777344 113.632812 78.507812 112.992188 78.480469 Z M 112.222656 77.847656 C 112.550781 78.085938 113.058594 78.128906 113.335938 77.832031 C 113.644531 77.5 113.523438 76.96875 113.382812 76.539062 C 112.808594 74.757812 112.355469 72.84375 111.613281 71.128906 C 109.566406 72.128906 110.957031 75.28125 111.566406 76.839844 C 111.71875 77.214844 111.898438 77.605469 112.222656 77.847656 Z M 119.382812 74.976562 C 118.632812 71.699219 117.835938 68.742188 117.085938 65.464844 C 115.90625 66.359375 114.820312 67.371094 113.847656 68.488281 C 113.394531 69.011719 112.957031 69.566406 112.691406 70.203125 C 112.234375 71.308594 112.316406 72.582031 112.679688 73.722656 C 113.046875 74.863281 113.707031 76.082031 114.328125 77.109375 C 114.011719 75.066406 114.144531 72.964844 114.515625 70.929688 C 114.984375 72.667969 115.9375 74.277344 117.238281 75.519531 C 116.542969 73.6875 116.207031 71.714844 116.273438 69.753906 C 117.1875 71.566406 118.226562 73.3125 119.382812 74.976562 Z M 123.003906 72.003906 C 122.671875 71.871094 122.3125 71.84375 121.960938 71.820312 C 121.496094 71.789062 121.027344 71.757812 120.5625 71.726562 C 120.292969 71.707031 120.011719 71.691406 119.746094 71.765625 C 119.484375 71.839844 119.238281 72.027344 119.164062 72.289062 C 119.054688 72.683594 119.367188 73.082031 119.714844 73.300781 C 120.394531 73.738281 124.074219 74.292969 123.710938 72.742188 C 123.628906 72.398438 123.332031 72.136719 123.003906 72.003906 Z M 125.1875 68.375 C 122.964844 67.289062 121.066406 65.550781 119.78125 63.433594 C 119.691406 63.285156 118.832031 63.871094 118.761719 64.003906 C 118.558594 64.371094 118.71875 64.601562 118.855469 64.992188 C 119.132812 65.789062 119.578125 66.546875 120.058594 67.230469 C 121.039062 68.613281 122.359375 69.761719 123.878906 70.519531 C 124.390625 70.773438 124.949219 70.984375 125.511719 70.910156 C 126.074219 70.832031 126.621094 70.371094 126.609375 69.804688 C 126.59375 69.09375 125.824219 68.683594 125.1875 68.375 Z M 123.359375 66.640625 C 123.335938 66.007812 123.304688 65.3125 123.574219 64.71875 C 123.773438 64.273438 124.363281 63.890625 124.335938 63.363281 C 124.289062 62.367188 122.320312 61.785156 121.539062 61.582031 C 121.304688 61.523438 121.042969 61.476562 120.835938 61.597656 C 120.503906 61.78125 120.484375 62.246094 120.546875 62.621094 C 120.820312 64.289062 121.886719 65.808594 123.359375 66.640625 Z M 123.359375 66.640625 " fill-opacity="1" fill-rule="nonzero"/></g><g clip-path="url(#ed44561785)"><path fill="#38485f" d="M 42.507812 95.078125 C 51.144531 94.464844 58.667969 92.683594 65.171875 90.222656 C 60.933594 93.964844 52.941406 100.410156 44.117188 104.40625 L 40.730469 102.511719 C 42.171875 99.882812 42.457031 96.558594 42.507812 95.078125 Z M 101.976562 57.09375 C 102.28125 56.003906 102.542969 55.085938 102.847656 53.992188 C 84.355469 47.992188 65.339844 42.746094 46.40625 38.332031 C 42.378906 41.621094 38.167969 44.441406 33.558594 46.839844 C 32.679688 48.597656 31.738281 50.441406 30.859375 52.195312 C 36.511719 53.015625 42.367188 52.398438 47.722656 50.414062 C 46.1875 52.117188 44.007812 53.308594 41.8125 53.972656 C 44.375 54 46.941406 53.636719 49.40625 52.933594 C 44.125 55.410156 38.269531 56.753906 32.441406 56.589844 C 33.433594 58.277344 34.671875 59.542969 36.53125 60.160156 C 35.175781 60.535156 33.402344 60.585938 32.109375 60.03125 C 29.960938 64.679688 26.863281 68.972656 23.796875 73.066406 C 32.582031 73.375 41.753906 70.136719 48.261719 64.226562 C 47.183594 67.175781 45.199219 69.714844 42.765625 71.695312 C 48.296875 70.570312 53.703125 68.292969 58.242188 64.933594 C 56.695312 66.6875 55.1875 68.488281 53.640625 70.242188 C 56.113281 69.699219 58.378906 68.75 60.574219 67.480469 C 55.421875 74.074219 47.867188 79.117188 39.828125 81.441406 C 54.453125 83.050781 69.898438 77.140625 79.816406 66.269531 C 78.695312 66.585938 77.289062 67.058594 76.167969 67.375 C 77.257812 66.496094 78.445312 65.398438 79.535156 64.519531 C 79.675781 64.695312 79.742188 64.859375 79.882812 65.035156 C 83.878906 62.472656 87.390625 59.324219 90.300781 55.574219 C 90.75 55.675781 91.203125 55.769531 91.652344 55.859375 C 83.457031 68.398438 71.746094 78.609375 58.203125 84.996094 C 73.621094 80.816406 87.28125 70.273438 95.28125 56.4375 C 97.5 56.726562 99.734375 56.914062 101.976562 57.09375 Z M 39.722656 92.261719 C 39.265625 90.785156 39.105469 89.304688 38.648438 87.828125 C 38.050781 89.128906 37.550781 90.441406 36.957031 91.738281 C 36.160156 86.570312 35.667969 81.40625 34.875 76.238281 C 32.464844 80.34375 30.070312 84.472656 27.660156 88.574219 C 27.632812 86.535156 27.972656 84.347656 27.945312 82.308594 C 26.71875 84.371094 25.679688 86.175781 24.453125 88.234375 C 18.679688 89.488281 12.316406 90.054688 6.417969 89.734375 C 13.609375 92.480469 20.78125 94.28125 28.476562 94.390625 C 28.855469 93.367188 29.328125 92.386719 29.703125 91.367188 C 30.546875 91.332031 31.699219 91.457031 32.539062 91.425781 C 32.917969 92.378906 33.539062 93.496094 33.917969 94.453125 C 41.785156 94.355469 49.621094 93.234375 57.308594 91.542969 C 51.511719 92.5625 45.574219 92.910156 39.722656 92.261719 Z M 108.679688 91.058594 C 106.453125 89.273438 104.207031 87.472656 102.460938 85.21875 C 101.957031 84.570312 101.484375 83.855469 101.378906 83.039062 C 101.273438 82.222656 101.644531 81.296875 102.410156 81 C 101.800781 80.410156 101.363281 79.933594 100.664062 79.457031 C 99.351562 80.328125 98.894531 82.125 99.214844 83.664062 C 99.539062 85.207031 100.492188 86.542969 101.515625 87.734375 C 102.464844 88.835938 103.496094 89.871094 104.601562 90.816406 C 102.914062 90.386719 101.257812 89.597656 100.007812 88.382812 C 100.71875 89.96875 101.730469 91.542969 103.101562 92.609375 C 102.625 93.222656 101.984375 93.8125 101.507812 94.429688 C 103.324219 96.128906 105.089844 97.8125 106.902344 99.511719 C 108.484375 97.296875 110.042969 95.257812 111.625 93.042969 C 110.621094 92.5 109.578125 91.777344 108.679688 91.058594 Z M 108.679688 91.058594 " fill-opacity="1" fill-rule="nonzero"/></g><path fill="#36e9fd" d="M 41.558594 94.246094 C 50.207031 93.730469 58.984375 92.121094 67.0625 88.988281 C 66.308594 90.714844 64.761719 91.949219 63.199219 93.007812 C 61.636719 94.058594 60.066406 94.894531 58.859375 96.339844 C 55.703125 97.1875 52.347656 97.578125 49.132812 96.964844 C 49.847656 97.632812 50.605469 98.324219 51.511719 98.695312 C 48.148438 98.714844 44.785156 97.738281 41.957031 95.921875 C 41.835938 95.335938 41.679688 94.824219 41.558594 94.246094 Z M 7.125 89.96875 L 14.316406 82.613281 L 14.316406 86.042969 L 22.925781 70.925781 L 18.925781 74.996094 L 29.691406 54.792969 Z M 7.125 89.96875 " fill-opacity="1" fill-rule="nonzero"/><g clip-path="url(#142a527897)"><path fill="#012130" d="M 128.847656 66.449219 C 128.34375 65.390625 127.457031 64.234375 126.355469 63.1875 C 125.257812 62.144531 124.054688 61.324219 122.964844 60.875 C 121.050781 60.078125 120.078125 60.679688 119.671875 61.109375 L 108.652344 72.761719 C 110.535156 50.523438 118.015625 40.84375 118.09375 40.75 L 118.886719 39.761719 L 117.808594 39.101562 C 100.785156 28.617188 93.011719 13.34375 92.933594 13.1875 L 92.621094 12.574219 L 35.871094 12.574219 L 35.558594 13.1875 C 35.480469 13.34375 27.726562 28.605469 10.683594 39.097656 L 9.613281 39.757812 L 10.398438 40.746094 C 10.464844 40.828125 16.785156 48.992188 19.265625 67.484375 L 4.066406 91.171875 L 5.570312 91.550781 C 10.183594 92.722656 14.800781 93.65625 19.289062 94.328125 C 18.820312 101.941406 18.871094 110.808594 24.734375 120.007812 C 31.167969 130.097656 43.5625 139.457031 63.753906 149.464844 L 64.25 149.707031 L 64.746094 149.464844 C 82.617188 140.609375 94.636719 132.023438 101.488281 123.21875 C 108.074219 114.757812 109.195312 107.03125 109.355469 101.160156 C 111.601562 102.074219 113.15625 102.015625 114.046875 101.058594 L 116.160156 98.828125 C 118.367188 96.492188 114.394531 91.03125 111.683594 87.839844 L 128.792969 69.746094 C 129.195312 69.324219 129.742188 68.324219 128.847656 66.449219 Z M 115.179688 80.898438 L 112.425781 83.808594 C 111.375 82.25 110.785156 80.542969 110.457031 79.238281 C 111.636719 79.421875 112.714844 79.460938 113.445312 79.460938 C 113.640625 79.460938 113.816406 79.457031 113.96875 79.457031 C 114.339844 79.957031 114.746094 80.441406 115.179688 80.898438 Z M 108.3125 76.371094 L 111.371094 73.140625 C 111.535156 74.246094 111.890625 75.679688 112.621094 77.207031 C 111.457031 77.15625 109.738281 76.964844 108.3125 76.371094 Z M 83.539062 130.894531 L 84.121094 126.164062 L 84.375 124.019531 C 84.453125 123.40625 84.574219 122.8125 84.777344 122.027344 C 85.40625 119.679688 86.492188 117.25 88.191406 114.390625 C 89.46875 112.246094 91.046875 110.039062 93.160156 107.433594 C 94.917969 105.273438 96.824219 102.726562 98.835938 100.558594 C 98.835938 100.558594 94.152344 104.050781 91.992188 106.40625 C 91.613281 106.738281 83.871094 113.601562 79.625 122.011719 C 80.011719 120.539062 80.644531 118.621094 81.652344 116.722656 L 82.519531 115.074219 L 81.167969 116.355469 C 81.109375 116.40625 75.671875 121.640625 75.617188 130.601562 L 73.339844 132.71875 L 75.324219 136.953125 L 72.796875 134.945312 L 74.769531 141.605469 C 71.527344 143.472656 67.988281 145.363281 64.238281 147.230469 C 62.460938 146.339844 60.859375 145.519531 59.359375 144.726562 L 60.242188 121.800781 L 54.371094 119.789062 L 55.269531 115.324219 L 43.929688 106.597656 C 51.625 103.285156 58.761719 98.066406 63.445312 94.21875 C 64.855469 93.628906 66.316406 92.847656 67.714844 91.941406 C 66.785156 92.910156 65.796875 93.777344 64.796875 94.496094 L 64.675781 94.582031 L 64.667969 94.730469 C 64.589844 96.253906 63.9375 97.710938 63.402344 98.664062 L 62.960938 99.457031 L 63.796875 99.097656 C 68.101562 97.25 71.953125 94.675781 75.054688 91.589844 C 74.320312 93.007812 73.453125 94.425781 72.570312 95.65625 L 71.394531 97.296875 L 73.011719 96.082031 C 77.378906 92.800781 80.929688 88.464844 83.3125 83.511719 L 85.292969 90.96875 C 85.113281 91.792969 84.855469 92.726562 84.542969 93.664062 L 84.523438 93.714844 C 84.195312 94.65625 83.851562 95.628906 83.445312 96.558594 L 83.371094 96.734375 C 83.195312 97.140625 83.011719 97.566406 82.808594 97.964844 C 82.714844 98.144531 82.628906 98.320312 82.542969 98.503906 C 82.40625 98.785156 82.269531 99.078125 82.109375 99.355469 C 82.007812 99.539062 81.914062 99.722656 81.816406 99.910156 C 81.667969 100.183594 81.523438 100.460938 81.371094 100.726562 L 80.558594 102.070312 C 80.398438 102.351562 80.214844 102.617188 80.023438 102.898438 C 79.917969 103.054688 79.808594 103.210938 79.707031 103.371094 L 79.652344 103.449219 C 79.375 103.863281 79.113281 104.257812 78.808594 104.640625 L 77.878906 105.894531 L 76.871094 107.121094 C 76.457031 107.652344 75.992188 108.164062 75.539062 108.65625 C 75.289062 108.929688 75.035156 109.207031 74.792969 109.484375 C 74.414062 109.898438 74.007812 110.308594 73.613281 110.707031 C 73.269531 111.054688 72.914062 111.410156 72.570312 111.777344 L 70.667969 113.808594 L 72.96875 112.242188 C 73.367188 111.972656 73.765625 111.683594 74.152344 111.40625 L 74.292969 111.304688 C 74.414062 111.210938 74.539062 111.125 74.664062 111.03125 C 74.976562 110.808594 75.300781 110.578125 75.589844 110.316406 L 76.804688 109.273438 C 77.175781 108.96875 77.515625 108.628906 77.839844 108.300781 L 77.992188 108.148438 C 79.683594 106.535156 81.066406 104.71875 82.199219 103.148438 C 83.417969 101.425781 84.511719 99.507812 85.449219 97.460938 C 85.691406 96.964844 85.902344 96.453125 86.105469 95.949219 C 86.269531 95.578125 86.402344 95.191406 86.53125 94.824219 C 86.578125 94.679688 86.628906 94.542969 86.683594 94.390625 C 86.886719 93.769531 87.09375 93.109375 87.265625 92.421875 L 101.703125 97.480469 C 102.242188 97.910156 104.550781 99.84375 107.023438 103.164062 C 106.382812 112.296875 102.871094 123.453125 82.152344 137.078125 C 82.007812 136.566406 81.855469 136.039062 81.691406 135.519531 C 81.453125 134.757812 81.199219 134 80.917969 133.210938 Z M 51.335938 133.660156 L 52.808594 133.554688 L 51.421875 133.058594 C 48.535156 132.035156 45.855469 130.066406 43.765625 127.457031 C 45.046875 128.136719 46.503906 128.816406 48.179688 129.515625 L 48.644531 129.710938 L 48.609375 129.207031 C 48.464844 127.292969 48.433594 125.320312 48.519531 123.339844 C 49.570312 123.53125 50.703125 123.761719 51.972656 124.046875 C 53.453125 124.398438 54.792969 124.757812 56.0625 125.148438 L 57.859375 125.699219 L 57.175781 143.550781 C 54.773438 142.242188 52.476562 140.925781 50.335938 139.632812 C 50.058594 138.40625 49.972656 137.171875 49.925781 135.707031 L 49.921875 135.484375 L 49.707031 135.417969 C 48.070312 134.925781 46.453125 134.125 44.945312 133.074219 C 46.851562 133.625 49.027344 133.824219 51.335938 133.660156 Z M 56.3125 124.59375 C 55.179688 123.882812 53.894531 123.257812 52.386719 122.679688 C 51.183594 122.230469 49.863281 121.820312 48.234375 121.402344 C 46.808594 121.042969 45.382812 120.742188 44 120.507812 C 42.808594 120.300781 41.664062 120.140625 40.515625 120.023438 L 39.695312 116.382812 L 39.535156 115.707031 L 29.101562 113.203125 C 29.578125 112.03125 30.070312 110.972656 30.605469 109.988281 C 31.472656 108.402344 32.304688 107.050781 33.144531 105.855469 C 34.082031 104.507812 35.074219 103.207031 36.09375 101.984375 C 36.875 101.058594 37.65625 100.179688 38.433594 99.371094 L 39.40625 100.839844 C 39.1875 101.347656 38.945312 101.796875 38.675781 102.191406 L 37.992188 103.195312 L 39.007812 103.765625 C 37.4375 105.871094 36.234375 108.296875 35.515625 110.800781 L 35.152344 112.074219 L 36.039062 111.089844 C 36.441406 110.648438 36.859375 110.167969 37.261719 109.703125 C 36.925781 110.683594 36.675781 111.703125 36.535156 112.679688 L 36.492188 112.980469 L 36.785156 113.027344 C 38.753906 113.363281 40.488281 113.894531 42.101562 114.652344 L 42.429688 114.808594 L 42.527344 114.453125 C 42.617188 114.125 42.695312 113.789062 42.765625 113.453125 C 43.0625 115.464844 43.605469 117.507812 44.351562 119.453125 L 44.6875 120.328125 L 44.972656 119.292969 C 45.234375 118.351562 45.515625 117.324219 45.839844 116.347656 C 45.867188 116.640625 45.894531 116.929688 45.917969 117.21875 C 45.984375 117.980469 46.050781 118.738281 46.125 119.503906 L 46.160156 119.855469 L 46.5 119.777344 C 48.261719 119.386719 50.261719 119.523438 52.027344 120.152344 L 51.804688 121.269531 L 57.945312 123.371094 L 57.859375 125.558594 Z M 21.5 94.648438 C 23.515625 94.914062 25.46875 95.125 27.320312 95.273438 C 27.027344 100.421875 27.128906 104.785156 28.507812 109.191406 C 27.804688 110.503906 27.164062 111.949219 26.542969 113.613281 L 26.113281 114.78125 L 31.347656 116.035156 C 30.691406 117.253906 29.636719 119.332031 28.652344 121.738281 C 21.945312 113.023438 20.914062 104.863281 21.5 94.648438 Z M 91.265625 14.816406 C 92.898438 17.761719 100.6875 30.816406 115.625 40.371094 C 113.523438 43.558594 107.5 54.394531 106.222656 75.335938 L 102.566406 79.203125 C 101.996094 78.773438 101.199219 78.1875 100.28125 77.578125 C 100.296875 76.800781 100.328125 76.046875 100.375 75.289062 C 100.722656 69.300781 101.484375 63.574219 102.640625 58.269531 C 104.476562 54.945312 105.351562 52.683594 105.507812 52.261719 L 105.9375 51.082031 L 104.617188 50.765625 C 105.484375 48.011719 106.480469 45.394531 107.578125 42.988281 L 107.945312 42.179688 L 107.238281 41.640625 C 97.367188 34.105469 91.117188 25.582031 88.273438 21.175781 L 87.945312 20.664062 L 40.539062 20.664062 L 40.210938 21.175781 C 37.363281 25.582031 31.117188 34.105469 21.246094 41.640625 L 20.535156 42.179688 L 20.90625 42.992188 C 22.851562 47.234375 24.457031 52.109375 25.675781 57.488281 L 21.089844 64.628906 C 18.828125 50.476562 14.433594 42.769531 12.855469 40.375 C 27.800781 30.820312 35.589844 17.765625 37.21875 14.820312 L 91.265625 14.820312 Z M 103.257812 81.714844 C 103.507812 82.921875 104.007812 84.558594 104.984375 86.480469 C 104.867188 86.375 104.746094 86.269531 104.628906 86.160156 C 102.808594 84.429688 102.324219 83.003906 102.332031 82.691406 Z M 42.808594 95.367188 C 50.167969 94.820312 57.1875 93.382812 63.710938 91.085938 C 59.417969 94.75 52.101562 100.421875 44.132812 104.0625 L 41.152344 102.386719 C 42.425781 99.875 42.734375 96.832031 42.808594 95.367188 Z M 41.753906 22.902344 L 86.730469 22.902344 C 90.199219 28.175781 96.1875 35.855469 105.183594 42.875 C 104.195312 45.128906 103.273438 47.609375 102.445312 50.25 L 39.9375 35.257812 L 27.351562 54.875 C 26.253906 50.523438 24.898438 46.488281 23.304688 42.875 C 32.3125 35.839844 38.292969 28.164062 41.753906 22.902344 Z M 99.378906 63.558594 C 98.789062 67.28125 98.378906 71.175781 98.140625 75.15625 C 98.121094 75.511719 98.101562 75.871094 98.085938 76.230469 C 95.265625 74.664062 93.195312 74.214844 91.925781 74.894531 C 91.714844 75.003906 91.523438 75.148438 91.351562 75.324219 L 89.234375 77.566406 C 88.0625 78.800781 88.488281 81.050781 90.496094 84.253906 C 90.769531 84.695312 91.074219 85.136719 91.335938 85.507812 L 87.28125 89.796875 L 84.570312 79.585938 C 86.605469 77.964844 88.546875 76.238281 90.347656 74.453125 C 93.707031 71.113281 96.734375 67.457031 99.378906 63.558594 Z M 29.601562 94.484375 L 30.195312 93.15625 C 30.949219 93.269531 31.671875 93.34375 32.34375 93.378906 L 32.539062 95.578125 L 33.535156 95.597656 C 34.171875 95.609375 35.007812 95.625 35.84375 95.625 C 35.878906 95.625 35.914062 95.625 35.949219 95.625 L 37.171875 97.464844 C 36.257812 98.394531 35.347656 99.402344 34.382812 100.546875 C 33.3125 101.828125 32.277344 103.1875 31.308594 104.582031 C 30.90625 105.15625 30.5 105.769531 30.082031 106.445312 C 29.289062 102.796875 29.3125 98.996094 29.601562 94.484375 Z M 105.492188 96.378906 C 103.574219 95.027344 101.539062 93.34375 99.585938 91.492188 C 96.566406 88.636719 94.015625 85.640625 92.394531 83.066406 C 90.707031 80.386719 90.761719 79.238281 90.863281 79.101562 L 91.046875 78.90625 C 91.359375 79.8125 91.882812 80.859375 92.617188 82.027344 C 94.324219 84.746094 97.003906 87.894531 100.164062 90.886719 C 102.070312 92.695312 104.085938 94.367188 106.003906 95.742188 Z M 33.097656 50.058594 C 33.519531 50.082031 33.976562 50.089844 34.457031 50.089844 C 38.625 50.089844 48.898438 49.25 55.363281 41.566406 C 55.757812 42.65625 56.640625 45.542969 56.535156 49.40625 C 56.410156 53.964844 54.851562 60.851562 48.128906 67.796875 L 47.125 68.832031 L 48.464844 68.296875 C 48.582031 68.253906 59.058594 63.996094 64.097656 56.425781 C 63.152344 59.191406 61.269531 63.648438 58.039062 67.273438 L 56.523438 68.976562 L 58.4375 67.738281 C 58.492188 67.703125 62.859375 64.859375 65.621094 61.746094 C 63.679688 65.992188 58.214844 75.4375 46.457031 80.25 L 43.96875 81.269531 L 46.621094 80.84375 C 47.265625 80.738281 62.554688 78.199219 74.660156 69.53125 L 76.046875 68.539062 L 69.632812 70.261719 C 72.835938 68.136719 79.464844 63.226562 83.214844 56.828125 C 82.800781 58.574219 82.035156 61.101562 80.757812 62.988281 L 79.769531 64.457031 L 81.199219 63.414062 C 81.246094 63.375 86.121094 59.78125 89.03125 54.121094 L 101.128906 56.332031 C 98.851562 60.585938 94.894531 66.796875 88.730469 72.917969 C 79.109375 82.46875 61.917969 93.742188 34.589844 93.390625 L 33.4375 80.394531 L 27.789062 93.074219 C 21.355469 92.570312 14.574219 91.457031 7.617188 89.769531 Z M 94.503906 80.835938 C 92.820312 78.152344 92.871094 77.007812 92.972656 76.867188 C 93.246094 76.601562 95.828125 76.921875 101.015625 80.839844 L 100.660156 81.214844 C 99.855469 82.066406 99.941406 83.441406 100.90625 85.085938 L 100.921875 85.125 C 101.109375 85.433594 101.304688 85.730469 101.503906 85.992188 C 102.460938 87.359375 104.867188 90.484375 108.035156 92.371094 C 106.660156 92.21875 104.511719 91.75 102.832031 90.3125 C 102.457031 89.976562 102.082031 89.628906 101.699219 89.265625 C 98.667969 86.394531 96.113281 83.398438 94.503906 80.835938 Z M 106.707031 78.070312 C 107.117188 78.292969 107.566406 78.488281 108.046875 78.65625 C 108.285156 79.980469 108.984375 82.898438 110.855469 85.464844 L 108.476562 87.984375 C 105.65625 83.828125 105.28125 80.675781 105.242188 79.621094 Z M 113.453125 70.9375 L 116.457031 67.761719 C 116.792969 69.9375 117.632812 72.976562 119.632812 76.183594 L 116.71875 79.265625 C 113.664062 75.980469 113.429688 72.207031 113.453125 70.9375 Z M 122.667969 72.976562 L 121.226562 74.5 C 120.902344 73.945312 120.601562 73.375 120.332031 72.800781 C 121.101562 72.886719 121.886719 72.945312 122.667969 72.976562 Z M 121.347656 62.714844 C 121.867188 62.773438 123.242188 63.316406 124.832031 64.828125 C 124.945312 64.933594 125.054688 65.039062 125.164062 65.152344 L 125.246094 65.242188 C 125.324219 65.324219 125.402344 65.402344 125.480469 65.492188 C 125.515625 65.527344 125.542969 65.558594 125.589844 65.617188 L 125.648438 65.683594 C 125.683594 65.722656 125.71875 65.761719 125.753906 65.804688 L 126.230469 66.417969 C 126.832031 67.265625 127.050781 67.878906 127.097656 68.160156 C 126.625 68.105469 125.289062 67.625 123.640625 66.0625 C 121.988281 64.5 121.433594 63.175781 121.347656 62.714844 Z M 118.484375 65.625 L 119.613281 64.429688 C 120.125 65.496094 121.011719 66.652344 122.105469 67.6875 C 123.199219 68.726562 124.40625 69.550781 125.488281 70 L 124.75 70.78125 C 122.160156 70.800781 120.253906 70.5625 119.398438 70.425781 C 118.671875 68.183594 118.511719 66.402344 118.484375 65.625 Z M 67.492188 82.636719 C 71.46875 80.917969 75.242188 78.773438 78.707031 76.265625 C 82.230469 73.714844 85.445312 70.796875 88.261719 67.597656 C 89.648438 66.027344 90.984375 64.316406 92.230469 62.507812 C 93.296875 60.902344 94.382812 58.515625 95.289062 56.441406 C 95.289062 56.441406 90.179688 62.953125 86.894531 66.316406 C 85.160156 68.050781 83.707031 69.40625 82.316406 70.585938 C 80.703125 71.984375 79.054688 73.285156 77.398438 74.453125 C 76.792969 74.910156 76.15625 75.347656 75.535156 75.765625 C 75.300781 75.925781 75.070312 76.085938 74.847656 76.238281 L 74.226562 76.636719 C 73.5625 77.0625 72.878906 77.5 72.179688 77.90625 C 70.457031 78.984375 68.601562 79.945312 66.8125 80.875 L 66.703125 80.929688 C 63.15625 82.683594 59.449219 84.550781 55.152344 86.039062 C 55.148438 86.042969 63.417969 84.378906 67.492188 82.636719 Z M 71.660156 104.996094 L 71.867188 104.78125 C 72.738281 103.871094 73.5 102.996094 74.1875 102.113281 L 74.1875 102.109375 C 75.671875 100.183594 76.714844 98.507812 77.476562 96.847656 L 78.246094 95.160156 L 76.6875 96.800781 C 75.347656 98.210938 74.085938 99.539062 72.773438 100.863281 C 72.035156 101.605469 71.304688 102.324219 70.59375 103.003906 C 70.042969 103.273438 69.390625 103.5625 68.695312 103.847656 C 68.355469 103.984375 68.015625 104.117188 67.664062 104.242188 C 67.328125 104.375 66.988281 104.496094 66.632812 104.617188 C 65.398438 105.046875 64.046875 105.453125 62.402344 105.886719 C 60.875 106.261719 59.449219 106.558594 58.042969 106.800781 L 51.117188 107.992188 L 53.621094 108.179688 C 54.347656 108.234375 55.125 108.285156 55.921875 108.292969 L 56.355469 108.285156 C 56.964844 108.28125 57.597656 108.269531 58.214844 108.21875 L 59.367188 108.128906 L 60.492188 107.992188 C 61.0625 107.929688 61.628906 107.839844 62.179688 107.75 C 62.375 107.71875 62.570312 107.683594 62.769531 107.652344 C 63.941406 107.453125 65.121094 107.195312 66.296875 106.882812 C 65.582031 107.476562 64.800781 108.105469 63.914062 108.796875 C 63.523438 109.089844 63.121094 109.394531 62.726562 109.703125 C 62.507812 109.863281 62.285156 110.015625 62.0625 110.171875 C 61.875 110.300781 61.683594 110.433594 61.496094 110.570312 L 60.902344 111.003906 L 60.265625 111.417969 C 59.859375 111.683594 59.425781 111.972656 58.992188 112.289062 L 57.601562 113.304688 L 59.257812 112.835938 C 59.726562 112.703125 60.199219 112.550781 60.652344 112.398438 L 60.726562 112.375 C 61.003906 112.28125 61.25 112.195312 61.480469 112.105469 L 62.191406 111.796875 C 62.351562 111.71875 62.511719 111.648438 62.675781 111.574219 C 62.984375 111.429688 63.292969 111.289062 63.605469 111.132812 C 64.058594 110.886719 64.503906 110.632812 64.960938 110.367188 C 66.824219 109.242188 68.5 107.992188 69.953125 106.660156 C 70.492188 106.171875 71.03125 105.644531 71.660156 104.996094 Z M 53.238281 53.777344 L 53.546875 52.96875 L 52.796875 53.402344 C 46.160156 57.222656 35.890625 58.203125 35.789062 58.214844 L 34.683594 58.316406 L 35.683594 58.800781 C 38.285156 60.0625 41.421875 60.230469 43.3125 60.195312 C 38.957031 61.894531 34.308594 61.59375 34.257812 61.589844 L 34.070312 61.578125 L 28.703125 70.550781 L 29.371094 70.429688 C 48 67.058594 53.1875 53.910156 53.238281 53.777344 Z M 97.277344 121.734375 C 99.832031 118.246094 101.191406 113.894531 101.007812 109.804688 L 100.960938 108.789062 L 100.4375 109.660156 C 97.371094 114.71875 93.164062 119.148438 88.273438 122.472656 L 86.949219 123.371094 L 88.511719 123.027344 C 90.128906 122.675781 91.667969 122.117188 93.109375 121.363281 C 91.097656 124.109375 88.566406 126.578125 86.515625 128.484375 L 85.609375 129.328125 L 86.804688 129.011719 C 90.808594 127.949219 94.722656 125.230469 97.277344 121.734375 Z M 97.277344 121.734375 " fill-opacity="1" fill-rule="nonzero"/></g></svg>