<svg xmlns="http://www.w3.org/2000/svg" xmlns:xlink="http://www.w3.org/1999/xlink" width="130" zoomAndPan="magnify" viewBox="0 0 97.5 131.999998" height="176" preserveAspectRatio="xMidYMid meet" version="1.0"><defs><clipPath id="122e9db8a4"><path d="M 4.851562 19.199219 L 92 19.199219 L 92 112.472656 L 4.851562 112.472656 Z M 4.851562 19.199219 " clip-rule="nonzero"/></clipPath></defs><g clip-path="url(#122e9db8a4)"><path fill="#36e9fd" d="M 46.011719 111.945312 C 32.457031 105.253906 24.09375 98.941406 19.695312 92.074219 C 15.992188 86.289062 15.582031 80.628906 15.777344 75.78125 C 13.25 75.359375 10.667969 74.816406 8.09375 74.164062 L 4.855469 73.351562 L 15.769531 56.417969 C 14.175781 45.40625 10.398438 40.371094 10.359375 40.324219 L 8.679688 38.222656 L 10.992188 36.804688 C 21.644531 30.273438 26.679688 20.613281 26.730469 20.515625 L 27.398438 19.199219 L 66.753906 19.199219 L 67.421875 20.511719 C 67.472656 20.609375 72.507812 30.277344 83.160156 36.808594 L 85.484375 38.222656 L 83.777344 40.34375 C 83.75 40.382812 80.21875 45.109375 78.539062 55.441406 L 82.300781 51.484375 C 82.871094 50.882812 83.675781 50.550781 84.5625 50.550781 C 85.117188 50.550781 85.710938 50.679688 86.320312 50.933594 C 87.21875 51.304688 88.191406 51.957031 89.058594 52.777344 C 89.929688 53.597656 90.640625 54.527344 91.054688 55.398438 C 92.144531 57.664062 91.078125 59.050781 90.726562 59.425781 L 80.488281 70.203125 C 83.410156 73.957031 84.058594 76.730469 82.421875 78.457031 L 81.03125 79.921875 C 80.597656 80.382812 79.8125 80.933594 78.535156 80.933594 C 78.457031 80.933594 78.371094 80.933594 78.289062 80.925781 C 77.992188 84.285156 76.984375 89.054688 72.878906 94.300781 C 68.21875 100.265625 60.128906 106.035156 48.152344 111.945312 L 47.085938 112.472656 Z M 46.011719 111.945312 " fill-opacity="1" fill-rule="nonzero"/></g><path fill="#889baa" d="M 25.753906 88.4375 C 25.296875 89.269531 24.472656 90.859375 23.738281 92.707031 C 18.824219 86.503906 18.40625 80.65625 18.789062 74.34375 C 20.21875 74.535156 21.628906 74.6875 23.019531 74.796875 C 22.804688 78.371094 22.882812 81.234375 23.804688 84.113281 C 23.292969 85.054688 22.863281 86.042969 22.484375 87.054688 L 22.28125 87.609375 L 22.863281 87.746094 Z M 64.960938 22.125 L 29.195312 22.125 C 28.257812 23.832031 23.097656 32.636719 13.011719 38.996094 C 14.050781 40.511719 17.097656 45.660156 18.59375 55.484375 L 21.941406 50.292969 C 21.136719 46.742188 20.074219 43.507812 18.773438 40.683594 L 18.601562 40.300781 L 18.9375 40.042969 C 25.441406 35.101562 29.570312 29.503906 31.449219 26.601562 L 31.605469 26.359375 L 62.546875 26.359375 L 62.703125 26.601562 C 64.582031 29.5 68.710938 35.101562 75.214844 40.042969 L 75.550781 40.300781 L 75.375 40.683594 C 74.628906 42.320312 73.949219 44.105469 73.355469 46.003906 L 74.214844 46.210938 L 74.007812 46.769531 C 73.957031 46.902344 73.386719 48.421875 72.121094 50.699219 C 71.355469 54.171875 70.851562 57.9375 70.621094 61.894531 C 70.589844 62.421875 70.566406 62.957031 70.558594 63.511719 C 71.234375 63.957031 71.839844 64.398438 72.285156 64.742188 L 74.867188 62.023438 C 75.71875 47.890625 79.886719 40.828125 81.136719 39 C 71.054688 32.636719 65.894531 23.832031 64.960938 22.125 Z M 64.960938 22.125 " fill-opacity="1" fill-rule="nonzero"/><path fill="#38485f" d="M 72.742188 62.019531 C 72.542969 65.378906 72.792969 68.523438 73.027344 71.5625 C 73.503906 77.589844 73.914062 82.792969 70.835938 88.28125 C 67.492188 94.265625 60.117188 100.132812 48.292969 106.21875 L 47.074219 106.847656 L 45.855469 106.21875 C 34.035156 100.132812 26.660156 94.265625 23.3125 88.28125 C 20.234375 82.792969 20.648438 77.589844 21.121094 71.566406 C 21.359375 68.523438 21.609375 65.378906 21.410156 62.019531 C 20.820312 52.039062 18.601562 45.386719 16.84375 41.566406 L 15.976562 39.6875 L 21.589844 41 L 33.152344 29.078125 L 30.425781 24.285156 L 30.449219 24.246094 L 63.703125 24.246094 L 63.746094 24.3125 L 61.96875 27.417969 L 74.238281 40.628906 L 78.148438 39.742188 L 77.308594 41.566406 C 75.550781 45.386719 73.332031 52.039062 72.742188 62.019531 Z M 72.742188 62.019531 " fill-opacity="1" fill-rule="nonzero"/><path fill="#012130" d="M 33.15625 29.074219 L 21.59375 40.996094 L 15.980469 39.6875 L 15.960938 39.636719 L 17.652344 38.355469 C 21.128906 35.714844 23.902344 32.871094 25.988281 30.394531 L 28.050781 31.234375 L 26.964844 29.199219 C 27.207031 28.894531 27.4375 28.597656 27.65625 28.308594 L 28.738281 28.667969 L 28.355469 27.367188 C 28.878906 26.644531 29.316406 25.996094 29.671875 25.449219 L 30.429688 24.28125 Z M 76.503906 38.355469 C 70.265625 33.617188 66.296875 28.238281 64.484375 25.449219 L 63.746094 24.3125 L 61.96875 27.414062 L 74.238281 40.625 L 78.148438 39.742188 L 78.195312 39.640625 Z M 76.503906 38.355469 " fill-opacity="1" fill-rule="nonzero"/><path fill="#edf2f8" d="M 71.800781 76.25 L 62.0625 72.851562 C 61.945312 73.363281 61.792969 73.847656 61.632812 74.34375 C 61.511719 74.679688 61.402344 75.019531 61.257812 75.34375 C 61.121094 75.675781 60.988281 76.007812 60.832031 76.328125 C 60.238281 77.621094 59.53125 78.863281 58.710938 80.023438 C 57.875 81.171875 56.996094 82.289062 55.96875 83.261719 C 55.71875 83.511719 55.476562 83.765625 55.199219 83.988281 L 54.394531 84.675781 C 54.136719 84.910156 53.835938 85.105469 53.554688 85.3125 C 53.269531 85.519531 52.984375 85.726562 52.695312 85.921875 C 53.175781 85.410156 53.6875 84.933594 54.15625 84.421875 C 54.617188 83.898438 55.105469 83.410156 55.53125 82.863281 L 56.191406 82.066406 L 56.808594 81.234375 C 57.023438 80.96875 57.214844 80.679688 57.40625 80.394531 C 57.59375 80.105469 57.800781 79.835938 57.972656 79.535156 L 58.503906 78.65625 C 58.675781 78.359375 58.832031 78.054688 58.996094 77.753906 C 59.164062 77.457031 59.300781 77.144531 59.457031 76.839844 C 59.613281 76.535156 59.746094 76.222656 59.882812 75.90625 C 60.15625 75.28125 60.382812 74.640625 60.609375 74 C 60.8125 73.394531 60.992188 72.757812 61.117188 72.164062 L 59.660156 66.699219 C 58.121094 70.101562 55.710938 73.113281 52.714844 75.355469 C 53.554688 74.191406 54.355469 72.800781 54.933594 71.492188 C 52.699219 74.003906 49.800781 75.976562 46.703125 77.300781 C 47.152344 76.496094 47.511719 75.558594 47.558594 74.636719 C 48.707031 73.816406 49.746094 72.773438 50.613281 71.664062 C 49.382812 72.621094 47.90625 73.511719 46.449219 74.113281 C 43.234375 76.746094 38.453125 80.207031 33.328125 82.339844 L 40.953125 88.183594 L 40.355469 91.160156 L 44.242188 92.484375 L 43.664062 107.464844 C 44.753906 108.042969 45.890625 108.621094 47.078125 109.210938 C 49.699219 107.910156 52.074219 106.640625 54.238281 105.398438 L 53.078125 101.5 L 54.914062 102.949219 L 53.304688 99.535156 L 54.757812 98.1875 C 54.757812 92.289062 58.34375 88.925781 58.34375 88.925781 C 56.941406 91.5625 56.628906 94.203125 56.628906 94.203125 C 59.175781 87.835938 65.460938 82.414062 65.460938 82.414062 C 66.757812 81.007812 68.144531 79.691406 69.667969 78.539062 C 68.367188 79.933594 67.121094 81.355469 65.929688 82.816406 C 64.734375 84.277344 63.605469 85.789062 62.644531 87.390625 C 61.6875 88.996094 60.855469 90.679688 60.378906 92.441406 C 60.261719 92.890625 60.171875 93.308594 60.109375 93.769531 L 59.945312 95.175781 L 59.597656 97.992188 L 59.574219 98.191406 L 59.421875 98.324219 L 57.804688 99.746094 C 58 100.289062 58.179688 100.832031 58.355469 101.378906 C 58.484375 101.804688 58.609375 102.230469 58.730469 102.660156 C 72.265625 93.863281 74.96875 86.5 75.40625 80.082031 C 73.722656 77.820312 72.128906 76.507812 71.800781 76.25 Z M 51.859375 81.152344 C 51.484375 81.539062 51.101562 81.917969 50.699219 82.28125 C 49.707031 83.191406 48.605469 83.988281 47.449219 84.6875 C 47.15625 84.855469 46.863281 85.023438 46.566406 85.183594 C 46.265625 85.335938 45.953125 85.46875 45.648438 85.613281 L 45.183594 85.8125 C 45.027344 85.875 44.867188 85.929688 44.707031 85.984375 C 44.386719 86.085938 44.066406 86.195312 43.746094 86.285156 C 44.019531 86.085938 44.296875 85.898438 44.570312 85.71875 L 44.988281 85.449219 L 45.390625 85.160156 C 45.65625 84.964844 45.933594 84.785156 46.195312 84.59375 C 46.453125 84.390625 46.71875 84.195312 46.980469 84 C 47.757812 83.398438 48.527344 82.78125 49.269531 82.132812 C 49.179688 82.160156 49.09375 82.1875 49.003906 82.210938 C 48.039062 82.492188 47.058594 82.71875 46.070312 82.890625 C 45.578125 82.964844 45.082031 83.054688 44.585938 83.109375 L 43.84375 83.199219 L 43.09375 83.257812 C 42.597656 83.300781 42.097656 83.300781 41.601562 83.308594 C 41.101562 83.300781 40.601562 83.273438 40.105469 83.234375 L 43.03125 82.734375 C 44 82.570312 44.957031 82.367188 45.910156 82.132812 C 46.855469 81.886719 47.792969 81.613281 48.710938 81.296875 C 48.941406 81.21875 49.167969 81.136719 49.394531 81.046875 C 49.625 80.964844 49.851562 80.878906 50.074219 80.789062 C 50.511719 80.613281 50.96875 80.414062 51.367188 80.21875 C 51.855469 79.75 52.34375 79.273438 52.824219 78.792969 C 53.753906 77.859375 54.660156 76.90625 55.585938 75.9375 C 55.023438 77.160156 54.269531 78.277344 53.449219 79.339844 C 52.957031 79.96875 52.421875 80.570312 51.863281 81.148438 L 51.867188 81.148438 C 51.867188 81.148438 51.863281 81.152344 51.859375 81.152344 Z M 68.625 92.183594 C 67.011719 94.382812 64.496094 96.167969 61.851562 96.867188 C 63.601562 95.253906 65.417969 93.421875 66.730469 91.441406 C 65.578125 92.152344 64.308594 92.660156 62.984375 92.949219 C 66.234375 90.75 69.003906 87.851562 71.039062 84.503906 C 71.164062 87.226562 70.242188 89.988281 68.625 92.183594 Z M 39.28125 91.136719 C 38.054688 90.664062 36.636719 90.542969 35.371094 90.824219 C 35.273438 89.824219 35.199219 88.855469 35.101562 87.851562 C 34.742188 88.753906 34.457031 89.800781 34.195312 90.738281 C 33.574219 89.128906 33.160156 87.398438 33.027344 85.679688 C 32.863281 86.269531 32.769531 86.894531 32.609375 87.484375 C 31.464844 86.949219 30.304688 86.617188 29.0625 86.402344 C 29.210938 85.390625 29.539062 84.328125 29.976562 83.402344 C 29.453125 83.976562 28.910156 84.625 28.386719 85.199219 C 28.878906 83.492188 29.703125 81.882812 30.789062 80.476562 L 30.113281 80.101562 L 30.4375 79.621094 C 30.652344 79.308594 30.832031 78.960938 30.976562 78.605469 L 30.140625 77.34375 C 29.542969 77.949219 28.964844 78.59375 28.417969 79.246094 C 27.726562 80.066406 27.074219 80.917969 26.464844 81.792969 C 25.847656 82.667969 25.296875 83.582031 24.785156 84.515625 C 24.371094 85.277344 24.015625 86.0625 23.699219 86.863281 L 30.34375 88.445312 L 30.667969 88.523438 L 30.742188 88.84375 L 31.3125 91.367188 C 32.128906 91.445312 32.929688 91.558594 33.734375 91.699219 C 34.664062 91.855469 35.585938 92.050781 36.503906 92.28125 C 37.414062 92.515625 38.324219 92.78125 39.210938 93.113281 C 40.09375 93.449219 40.953125 93.847656 41.753906 94.34375 C 40.851562 94.070312 39.957031 93.835938 39.054688 93.621094 C 38.21875 93.433594 37.386719 93.261719 36.542969 93.113281 C 36.476562 94.480469 36.488281 95.847656 36.59375 97.210938 C 35.355469 96.695312 34.046875 96.089844 32.886719 95.417969 C 34.269531 97.414062 36.285156 99.09375 38.578125 99.90625 C 36.785156 100.035156 34.890625 99.839844 33.253906 99.101562 C 34.480469 100.15625 35.910156 100.988281 37.460938 101.457031 C 37.488281 102.390625 37.546875 103.265625 37.75 104.148438 C 39.257812 105.054688 40.875 105.976562 42.617188 106.914062 L 43.144531 93.234375 L 39.132812 91.863281 Z M 87.988281 55.980469 C 87.980469 55.964844 87.964844 55.945312 87.953125 55.929688 C 87.917969 55.878906 87.878906 55.828125 87.839844 55.777344 C 87.816406 55.746094 87.789062 55.714844 87.769531 55.6875 C 87.734375 55.648438 87.707031 55.609375 87.671875 55.566406 C 87.636719 55.523438 87.597656 55.480469 87.558594 55.441406 C 87.53125 55.40625 87.507812 55.378906 87.480469 55.347656 C 87.429688 55.296875 87.382812 55.242188 87.328125 55.1875 C 87.308594 55.167969 87.292969 55.148438 87.269531 55.125 C 87.195312 55.050781 87.117188 54.976562 87.039062 54.898438 C 85.925781 53.847656 84.933594 53.46875 84.5625 53.46875 C 84.5 53.46875 84.457031 53.476562 84.429688 53.496094 C 84.3125 53.691406 84.691406 54.789062 85.984375 56.007812 C 87.265625 57.21875 88.386719 57.539062 88.589844 57.414062 C 88.667969 57.273438 88.511719 56.710938 87.988281 55.980469 Z M 83.65625 54.707031 C 83.609375 54.613281 83.570312 54.523438 83.535156 54.433594 L 82.523438 55.5 C 82.539062 55.96875 82.628906 57.265625 83.175781 58.902344 C 83.746094 58.996094 85.109375 59.175781 86.9375 59.15625 L 87.691406 58.359375 C 86.890625 58.097656 85.996094 57.484375 85.25 56.78125 C 84.546875 56.117188 83.980469 55.378906 83.65625 54.707031 Z M 84.5 61.71875 L 85.941406 60.203125 C 84.972656 60.179688 84.175781 60.101562 83.617188 60.035156 C 83.851562 60.582031 84.144531 61.148438 84.5 61.71875 Z M 79.222656 58.976562 C 79.203125 59.679688 79.273438 62.460938 81.574219 64.804688 L 83.746094 62.515625 C 82.21875 60.136719 81.707031 57.882812 81.542969 56.535156 Z M 78.203125 60.050781 L 75.703125 62.679688 C 76.820312 63.234375 78.289062 63.355469 79.214844 63.371094 C 78.550781 62.113281 78.292969 60.921875 78.203125 60.050781 Z M 79.421875 64.433594 C 78.863281 64.433594 78.046875 64.398438 77.1875 64.238281 C 77.378906 65.09375 77.808594 66.535156 78.726562 67.796875 L 80.84375 65.570312 C 80.46875 65.195312 80.144531 64.808594 79.863281 64.421875 C 79.746094 64.429688 79.597656 64.433594 79.421875 64.433594 Z M 74.953125 63.472656 L 73.820312 64.664062 C 73.828125 65.28125 74.027344 67.546875 76.125 70.535156 L 77.984375 68.578125 C 76.644531 66.828125 76.183594 64.769531 76.050781 63.953125 C 75.664062 63.828125 75.292969 63.671875 74.953125 63.472656 Z M 73.484375 69.164062 C 73.84375 69.5 74.1875 69.769531 74.5 69.976562 C 73.429688 68.164062 73.007812 66.667969 72.851562 65.683594 L 71.933594 66.648438 C 71.816406 66.84375 72.195312 67.945312 73.484375 69.164062 Z M 26.898438 74.996094 L 26.425781 74.988281 L 26.292969 73.550781 C 25.605469 73.527344 24.972656 73.4375 24.574219 73.375 L 24.109375 74.417969 C 23.894531 77.667969 23.902344 80.292969 24.539062 82.828125 C 24.875 82.269531 25.222656 81.722656 25.597656 81.195312 C 26.226562 80.285156 26.898438 79.410156 27.605469 78.566406 C 28.226562 77.832031 28.859375 77.128906 29.542969 76.441406 L 28.589844 75.011719 C 28.53125 75.011719 28.472656 75.015625 28.410156 75.015625 C 27.910156 75.015625 27.40625 75.007812 26.898438 74.996094 Z M 65.042969 62.070312 C 65.140625 61.96875 65.25 61.886719 65.367188 61.824219 C 66.332031 61.3125 67.984375 61.976562 69.511719 62.859375 C 69.527344 62.511719 69.542969 62.167969 69.5625 61.828125 C 69.734375 58.878906 70.0625 56.035156 70.527344 53.335938 C 68.988281 55.691406 66.886719 58.453125 64.097656 61.214844 C 62.960938 62.339844 61.667969 63.496094 60.210938 64.640625 L 62.105469 71.746094 L 62.15625 71.765625 L 65.148438 68.613281 C 64.921875 68.292969 64.703125 67.976562 64.507812 67.667969 C 63.242188 65.660156 62.953125 64.273438 63.652344 63.535156 Z M 72.324219 45.757812 C 72.890625 43.941406 73.53125 42.214844 74.238281 40.625 C 68.261719 36.015625 64.292969 30.953125 61.96875 27.417969 L 32.183594 27.417969 C 29.859375 30.957031 25.890625 36.011719 19.917969 40.628906 C 21.042969 43.152344 21.992188 45.980469 22.742188 49.050781 L 31.195312 35.9375 Z M 72.324219 45.757812 " fill-opacity="1" fill-rule="nonzero"/><path fill="#889baa" d="M 27.394531 73.949219 C 45.527344 74.238281 56.925781 66.808594 63.3125 60.496094 C 67.542969 56.316406 70.191406 52.070312 71.632812 49.347656 L 63.253906 47.824219 C 61.351562 51.601562 58.097656 53.964844 58.097656 53.964844 C 59.554688 51.824219 60.007812 48.515625 60.007812 48.515625 C 57.113281 54.628906 49.609375 59.019531 49.375 59.15625 L 53.804688 57.972656 C 45.894531 63.609375 35.773438 65.289062 35.457031 65.339844 C 45.78125 61.132812 48.746094 51.691406 48.746094 51.691406 C 47.316406 54.070312 43.273438 56.710938 43.144531 56.792969 C 46.542969 52.996094 47.683594 47.894531 47.683594 47.894531 C 44.957031 53.832031 36.625 57.140625 36.625 57.140625 C 45.285156 48.238281 41.296875 39.441406 41.296875 39.441406 C 37.144531 44.621094 30.355469 45.214844 27.492188 45.214844 C 27.058594 45.214844 26.71875 45.199219 26.492188 45.1875 L 9.53125 71.511719 C 14.253906 72.667969 18.859375 73.421875 23.238281 73.757812 L 26.691406 66.039062 Z M 48.78125 65.78125 C 50.007812 65.148438 51.234375 64.519531 52.398438 63.789062 C 52.996094 63.445312 53.570312 63.070312 54.152344 62.699219 C 54.71875 62.3125 55.296875 61.9375 55.84375 61.523438 C 56.964844 60.734375 58.046875 59.882812 59.085938 58.980469 C 60.136719 58.097656 61.132812 57.148438 62.105469 56.175781 C 64.035156 54.210938 65.84375 52.113281 67.382812 49.792969 C 66.824219 51.070312 66.082031 52.265625 65.304688 53.429688 C 64.507812 54.578125 63.644531 55.6875 62.714844 56.738281 C 60.855469 58.839844 58.75 60.734375 56.464844 62.382812 C 54.179688 64.027344 51.710938 65.417969 49.132812 66.53125 C 46.546875 67.628906 43.851562 68.460938 41.097656 68.945312 C 43.738281 68.035156 46.304688 67 48.78125 65.78125 Z M 27.351562 53.136719 C 27.351562 53.136719 31.210938 53.414062 34.398438 51.757812 C 34.398438 51.757812 30.949219 52.164062 28.390625 50.929688 C 28.390625 50.929688 35.199219 50.304688 39.65625 47.753906 C 39.65625 47.753906 36.394531 56.3125 24.117188 58.519531 Z M 65.898438 66.207031 C 65.332031 65.304688 64.960938 64.527344 64.789062 63.882812 L 64.425781 64.261719 C 64.230469 64.46875 64.332031 65.394531 65.410156 67.105469 C 66.476562 68.792969 68.167969 70.769531 70.171875 72.65625 C 71.535156 73.945312 72.925781 75.082031 74.230469 75.980469 L 74.816406 75.253906 L 74.816406 75.25 C 73.496094 74.324219 72.121094 73.1875 70.828125 71.96875 C 68.761719 70.015625 67.011719 67.96875 65.898438 66.207031 Z M 71.738281 68.789062 C 71.597656 68.609375 71.472656 68.417969 71.359375 68.234375 C 71.359375 68.226562 71.355469 68.222656 71.355469 68.222656 C 70.828125 67.335938 70.644531 66.464844 71.160156 65.917969 L 71.550781 65.511719 C 68.152344 62.921875 66.144531 62.445312 65.8125 62.796875 C 65.617188 63.003906 65.71875 63.929688 66.792969 65.640625 C 67.859375 67.332031 69.550781 69.304688 71.554688 71.191406 C 71.8125 71.433594 72.0625 71.664062 72.304688 71.882812 C 74.144531 73.453125 76.761719 73.324219 76.761719 73.324219 C 74.363281 72.238281 72.5 69.878906 71.738281 68.789062 Z M 60.550781 68.074219 C 60.320312 67.328125 60.011719 66.390625 59.574219 65.746094 C 56.578125 68.253906 52.847656 70.101562 49.125 71.300781 C 47.375 71.867188 46.515625 73.546875 44.964844 74.53125 C 45.066406 76.359375 44.773438 78.210938 44.117188 79.921875 C 46.921875 79.121094 49.410156 77.765625 51.554688 75.796875 C 51.121094 76.664062 50.625 77.574219 50.1875 78.445312 C 54.765625 76.292969 58.332031 72.613281 60.550781 68.074219 Z M 54.34375 84.578125 C 56.40625 83.515625 58.332031 82.015625 59.8125 80.234375 C 59.414062 81.375 59.015625 82.472656 58.4375 83.53125 C 60.773438 81.453125 62.785156 78.746094 64.007812 75.878906 C 66.734375 76.140625 69.476562 76.273438 72.214844 76.277344 C 68.648438 74.964844 65.222656 73.617188 61.65625 72.304688 C 60.585938 77.070312 58.085938 81.425781 54.34375 84.578125 Z M 36.992188 82.257812 C 39.3125 83.886719 42.226562 84.488281 44.996094 83.867188 C 44.089844 85.132812 42.941406 86.25 41.722656 87.222656 C 44.390625 87.34375 46.933594 86.476562 49.117188 84.949219 C 51.296875 83.417969 52.871094 81.148438 53.652344 78.605469 C 48.429688 80.941406 42.71875 82.195312 36.992188 82.257812 Z M 39.792969 91.679688 C 39.777344 91.164062 39.621094 90.632812 39.605469 90.113281 C 36.910156 87.3125 34.117188 84.4375 31.425781 81.636719 C 31.296875 80.363281 31.148438 79.070312 31.339844 77.804688 C 30.886719 77.449219 30.332031 77.21875 29.882812 76.863281 C 29.257812 77.554688 28.742188 78.085938 28.273438 78.886719 C 27.253906 80.628906 26.4375 82.488281 25.847656 84.414062 C 26.707031 83.375 27.570312 82.359375 28.582031 81.476562 C 27.949219 83.109375 27.496094 84.863281 27.226562 86.597656 C 29.046875 87.089844 30.890625 87.644531 32.625 88.375 C 33.058594 89.777344 33.371094 91.15625 33.804688 92.554688 C 34.308594 92.679688 34.679688 92.675781 35.179688 92.800781 C 36.039062 91.769531 37.222656 91.378906 38.539062 91.632812 C 38.574219 91.910156 38.523438 92.222656 38.558594 92.496094 C 40.300781 92.953125 41.988281 93.46875 43.699219 94.042969 C 43.703125 93.585938 43.5625 93.296875 43.4375 92.859375 C 42.234375 92.480469 40.996094 92.058594 39.792969 91.679688 Z M 40.738281 100.511719 C 39.535156 99.871094 38.519531 98.996094 37.613281 97.980469 C 37.550781 96.328125 37.582031 94.667969 37.707031 93.015625 C 37.203125 92.957031 36.847656 92.75 36.347656 92.691406 C 36.09375 93.246094 35.84375 93.914062 35.589844 94.472656 C 34.613281 94.308594 33.523438 94.160156 32.53125 94.089844 C 32.300781 95.460938 32.140625 96.941406 31.90625 98.3125 C 33.226562 101.488281 35.910156 104.089844 39.085938 105.429688 C 38.679688 104.0625 38.644531 102.566406 38.761719 101.140625 C 39.457031 101.152344 40.152344 100.894531 40.738281 100.511719 Z M 67.4375 80.546875 C 64.175781 82.484375 61.179688 85.089844 58.867188 88.09375 C 58.875 87.730469 59.027344 87.378906 59.136719 87.03125 C 55.910156 89.238281 53.691406 93.011719 53.414062 96.902344 C 52.921875 97.347656 52.515625 97.730469 51.902344 97.984375 C 51.972656 98.886719 52.21875 99.8125 52.558594 100.65625 C 52.027344 100.375 51.652344 100.078125 51.117188 99.796875 C 51.371094 102.21875 52.085938 104.59375 53.222656 106.746094 C 54.144531 105.949219 55.183594 105.21875 56.296875 104.714844 C 55.960938 102.617188 56.273438 100.453125 56.890625 98.421875 C 57.511719 96.386719 58.433594 94.457031 59.351562 92.539062 C 60.507812 90.128906 61.667969 87.703125 63.242188 85.539062 C 64.5 83.808594 66.101562 82.21875 67.4375 80.546875 Z M 61.027344 92.980469 C 61.847656 93.417969 62.675781 93.671875 63.589844 93.476562 C 62.765625 95.078125 61.574219 96.539062 60.285156 97.792969 C 63.957031 97.308594 67.296875 95.722656 69.515625 92.765625 C 71.738281 89.808594 72.527344 86.179688 71.03125 82.800781 C 68.734375 87.035156 65.226562 90.605469 61.027344 92.980469 Z M 73.777344 69.859375 C 73.917969 70.085938 74.132812 70.34375 74.394531 70.289062 C 74.566406 70.253906 74.6875 70.085938 74.71875 69.914062 C 74.75 69.742188 74.710938 69.5625 74.671875 69.394531 C 74.363281 68.128906 73.847656 66.921875 73.289062 65.742188 C 73.144531 65.4375 72.699219 64.867188 72.332031 65.269531 C 72.109375 65.511719 72.367188 66.148438 72.429688 66.414062 C 72.707031 67.632812 73.128906 68.789062 73.777344 69.859375 Z M 74.8125 62.96875 C 74.636719 63.402344 74.21875 63.621094 73.824219 63.871094 C 74.339844 64.246094 74.921875 64.53125 75.535156 64.703125 C 75.734375 66.605469 76.453125 68.480469 77.742188 69.902344 C 78.0625 69.457031 78.230469 69.027344 78.550781 68.582031 C 77.519531 67.085938 76.828125 65.308594 76.605469 63.503906 C 76.066406 63.222656 75.414062 63.058594 74.8125 62.96875 Z M 79.121094 63.992188 C 78.53125 63.96875 77.941406 63.941406 77.347656 63.917969 C 77.226562 63.910156 77.09375 63.910156 76.988281 63.972656 C 76.894531 64.03125 76.839844 64.136719 76.8125 64.246094 C 76.714844 64.660156 77.011719 65.09375 77.398438 65.277344 C 77.785156 65.464844 78.230469 65.460938 78.65625 65.433594 C 79.097656 65.402344 80.210938 65.378906 80.320312 64.816406 C 80.441406 64.1875 79.542969 64.011719 79.121094 63.992188 Z M 78.617188 63.578125 C 78.832031 63.734375 79.164062 63.761719 79.347656 63.566406 C 79.550781 63.351562 79.472656 63.003906 79.378906 62.722656 C 79 61.558594 78.703125 60.304688 78.214844 59.179688 C 76.871094 59.835938 77.785156 61.898438 78.183594 62.917969 C 78.285156 63.164062 78.40625 63.421875 78.617188 63.578125 Z M 83.324219 61.699219 C 82.832031 59.554688 82.304688 57.621094 81.8125 55.476562 C 81.039062 56.058594 80.324219 56.722656 79.683594 57.457031 C 79.386719 57.796875 79.101562 58.160156 78.925781 58.578125 C 78.625 59.300781 78.679688 60.132812 78.917969 60.878906 C 79.15625 61.625 79.59375 62.425781 80 63.09375 C 79.792969 61.757812 79.878906 60.382812 80.121094 59.050781 C 80.429688 60.191406 81.058594 61.242188 81.914062 62.054688 C 81.457031 60.859375 81.234375 59.566406 81.277344 58.28125 C 81.878906 59.46875 82.5625 60.609375 83.324219 61.699219 Z M 85.703125 59.753906 C 85.484375 59.667969 85.25 59.652344 85.015625 59.632812 C 84.710938 59.613281 84.40625 59.59375 84.097656 59.574219 C 83.921875 59.5625 83.738281 59.550781 83.5625 59.601562 C 83.390625 59.648438 83.226562 59.769531 83.179688 59.941406 C 83.105469 60.199219 83.3125 60.460938 83.539062 60.605469 C 83.988281 60.890625 86.40625 61.253906 86.167969 60.238281 C 86.113281 60.011719 85.917969 59.839844 85.703125 59.753906 Z M 87.140625 57.378906 C 85.679688 56.667969 84.429688 55.53125 83.585938 54.144531 C 83.527344 54.050781 82.960938 54.429688 82.914062 54.519531 C 82.78125 54.761719 82.886719 54.910156 82.976562 55.167969 C 83.160156 55.6875 83.453125 56.183594 83.769531 56.628906 C 84.414062 57.535156 85.277344 58.289062 86.28125 58.785156 C 86.613281 58.949219 86.980469 59.089844 87.351562 59.039062 C 87.722656 58.988281 88.082031 58.6875 88.074219 58.3125 C 88.0625 57.847656 87.558594 57.582031 87.140625 57.378906 Z M 85.9375 56.246094 C 85.921875 55.828125 85.902344 55.375 86.078125 54.988281 C 86.210938 54.695312 86.597656 54.445312 86.578125 54.097656 C 86.546875 53.449219 85.253906 53.066406 84.742188 52.933594 C 84.585938 52.894531 84.414062 52.863281 84.277344 52.941406 C 84.058594 53.066406 84.046875 53.371094 84.089844 53.613281 C 84.269531 54.707031 84.96875 55.699219 85.9375 56.246094 Z M 85.9375 56.246094 " fill-opacity="1" fill-rule="nonzero"/><path fill="#38485f" d="M 32.789062 74.855469 C 38.464844 74.453125 43.410156 73.289062 47.6875 71.679688 C 44.902344 74.125 39.648438 78.34375 33.847656 80.960938 L 31.621094 79.71875 C 32.570312 78 32.753906 75.824219 32.789062 74.855469 Z M 71.878906 49.996094 C 72.082031 49.28125 72.253906 48.683594 72.453125 47.964844 C 60.296875 44.039062 47.800781 40.605469 35.351562 37.71875 C 32.703125 39.871094 29.9375 41.714844 26.90625 43.285156 C 26.328125 44.4375 25.710938 45.644531 25.132812 46.792969 C 28.847656 47.328125 32.695312 46.921875 36.21875 45.625 C 35.207031 46.738281 33.777344 47.519531 32.332031 47.953125 C 34.015625 47.972656 35.703125 47.734375 37.324219 47.273438 C 33.851562 48.894531 30.003906 49.777344 26.171875 49.667969 C 26.824219 50.769531 27.640625 51.597656 28.859375 52.003906 C 27.96875 52.25 26.804688 52.28125 25.953125 51.921875 C 24.542969 54.960938 22.503906 57.769531 20.492188 60.449219 C 26.265625 60.652344 32.292969 58.53125 36.570312 54.664062 C 35.863281 56.597656 34.558594 58.253906 32.957031 59.554688 C 36.59375 58.816406 40.148438 57.324219 43.132812 55.128906 C 42.117188 56.277344 41.125 57.453125 40.105469 58.601562 C 41.734375 58.246094 43.222656 57.625 44.664062 56.792969 C 41.277344 61.109375 36.3125 64.410156 31.027344 65.929688 C 40.640625 66.984375 50.792969 63.117188 57.316406 56 C 56.578125 56.207031 55.652344 56.519531 54.914062 56.726562 C 55.632812 56.148438 56.414062 55.433594 57.128906 54.859375 C 57.222656 54.972656 57.265625 55.078125 57.359375 55.191406 C 59.984375 53.515625 62.292969 51.457031 64.207031 49.003906 C 64.503906 49.070312 64.796875 49.128906 65.09375 49.1875 C 59.707031 57.394531 52.007812 64.078125 43.105469 68.257812 C 53.242188 65.523438 62.222656 58.621094 67.480469 49.566406 C 68.9375 49.757812 70.40625 49.878906 71.878906 49.996094 Z M 30.957031 73.011719 C 30.65625 72.046875 30.550781 71.078125 30.253906 70.113281 C 29.859375 70.960938 29.53125 71.820312 29.140625 72.671875 C 28.617188 69.285156 28.292969 65.910156 27.769531 62.527344 C 26.1875 65.210938 24.613281 67.914062 23.03125 70.597656 C 23.011719 69.265625 23.234375 67.832031 23.21875 66.5 C 22.410156 67.847656 21.726562 69.027344 20.921875 70.375 C 17.128906 71.199219 12.941406 71.570312 9.066406 71.359375 C 13.792969 73.15625 18.507812 74.335938 23.566406 74.40625 C 23.816406 73.738281 24.125 73.09375 24.375 72.425781 C 24.925781 72.402344 25.6875 72.488281 26.238281 72.464844 C 26.484375 73.089844 26.894531 73.820312 27.140625 74.445312 C 32.316406 74.382812 37.464844 73.648438 42.519531 72.542969 C 38.707031 73.207031 34.804688 73.4375 30.957031 73.011719 Z M 76.285156 72.222656 C 74.824219 71.058594 73.347656 69.878906 72.199219 68.402344 C 71.867188 67.980469 71.558594 67.511719 71.488281 66.976562 C 71.421875 66.441406 71.664062 65.835938 72.167969 65.640625 C 71.765625 65.257812 71.480469 64.945312 71.019531 64.632812 C 70.15625 65.203125 69.855469 66.378906 70.066406 67.386719 C 70.277344 68.394531 70.90625 69.269531 71.578125 70.050781 C 72.199219 70.769531 72.878906 71.449219 73.605469 72.066406 C 72.496094 71.785156 71.40625 71.269531 70.585938 70.472656 C 71.054688 71.511719 71.71875 72.542969 72.621094 73.238281 C 72.308594 73.640625 71.886719 74.027344 71.574219 74.433594 C 72.765625 75.542969 73.925781 76.644531 75.121094 77.757812 C 76.160156 76.308594 77.183594 74.972656 78.222656 73.523438 C 77.5625 73.167969 76.875 72.695312 76.285156 72.222656 Z M 76.285156 72.222656 " fill-opacity="1" fill-rule="nonzero"/><path fill="#36e9fd" d="M 32.164062 74.308594 C 37.851562 73.976562 43.621094 72.921875 48.929688 70.871094 C 48.433594 72 47.417969 72.808594 46.390625 73.5 C 45.363281 74.1875 44.332031 74.734375 43.539062 75.679688 C 41.464844 76.238281 39.257812 76.492188 37.144531 76.089844 C 37.613281 76.527344 38.113281 76.980469 38.707031 77.222656 C 36.5 77.234375 34.285156 76.597656 32.425781 75.40625 C 32.347656 75.023438 32.246094 74.691406 32.164062 74.308594 Z M 9.53125 71.511719 L 14.257812 66.699219 L 14.257812 68.945312 L 19.917969 59.046875 L 17.289062 61.710938 L 24.367188 48.492188 Z M 9.53125 71.511719 " fill-opacity="1" fill-rule="nonzero"/><path fill="#012130" d="M 89.546875 56.117188 C 89.210938 55.425781 88.628906 54.667969 87.90625 53.984375 C 87.183594 53.304688 86.394531 52.765625 85.679688 52.46875 C 84.417969 51.949219 83.78125 52.34375 83.511719 52.625 L 76.269531 60.25 C 77.507812 45.695312 82.425781 39.363281 82.476562 39.300781 L 82.996094 38.652344 L 82.289062 38.222656 C 71.097656 31.359375 65.988281 21.363281 65.9375 21.261719 L 65.730469 20.859375 L 28.425781 20.859375 L 28.222656 21.261719 C 28.171875 21.363281 23.074219 31.351562 11.871094 38.21875 L 11.164062 38.652344 L 11.683594 39.296875 C 11.726562 39.351562 15.878906 44.695312 17.511719 56.796875 L 7.519531 72.300781 L 8.507812 72.546875 C 11.539062 73.3125 14.574219 73.925781 17.527344 74.363281 C 17.21875 79.347656 17.253906 85.148438 21.109375 91.171875 C 25.335938 97.773438 33.484375 103.898438 46.753906 110.449219 L 47.082031 110.609375 L 47.40625 110.449219 C 59.15625 104.652344 67.054688 99.035156 71.558594 93.273438 C 75.890625 87.734375 76.625 82.675781 76.734375 78.835938 C 78.207031 79.433594 79.230469 79.398438 79.816406 78.769531 L 81.203125 77.308594 C 82.65625 75.78125 80.042969 72.207031 78.261719 70.117188 L 89.507812 58.277344 C 89.773438 58 90.132812 57.347656 89.546875 56.117188 Z M 80.5625 65.574219 L 78.75 67.480469 C 78.058594 66.460938 77.671875 65.34375 77.453125 64.488281 C 78.230469 64.609375 78.941406 64.636719 79.421875 64.636719 C 79.546875 64.636719 79.664062 64.632812 79.761719 64.632812 C 80.007812 64.960938 80.273438 65.277344 80.5625 65.574219 Z M 76.046875 62.613281 L 78.054688 60.5 C 78.164062 61.222656 78.398438 62.160156 78.878906 63.160156 C 78.113281 63.125 76.980469 63.003906 76.046875 62.613281 Z M 59.761719 98.296875 L 60.144531 95.199219 L 60.308594 93.796875 C 60.363281 93.394531 60.441406 93.003906 60.574219 92.492188 C 60.988281 90.957031 61.703125 89.367188 62.820312 87.496094 C 63.660156 86.089844 64.699219 84.644531 66.085938 82.941406 C 67.242188 81.527344 68.496094 79.863281 69.816406 78.441406 C 69.816406 78.441406 66.738281 80.730469 65.316406 82.269531 C 65.070312 82.488281 59.980469 86.976562 57.191406 92.480469 C 57.441406 91.515625 57.859375 90.265625 58.519531 89.019531 L 59.09375 87.945312 L 58.203125 88.78125 C 58.164062 88.816406 54.589844 92.238281 54.554688 98.101562 L 53.058594 99.488281 L 54.363281 102.257812 L 52.699219 100.949219 L 53.996094 105.304688 C 51.867188 106.527344 49.539062 107.765625 47.074219 108.988281 C 45.90625 108.40625 44.851562 107.867188 43.867188 107.347656 L 44.445312 92.34375 L 40.585938 91.027344 L 41.179688 88.105469 L 33.726562 82.394531 C 38.78125 80.226562 43.472656 76.8125 46.550781 74.292969 C 47.480469 73.90625 48.441406 73.394531 49.359375 72.800781 C 48.75 73.4375 48.101562 74.003906 47.441406 74.472656 L 47.359375 74.53125 L 47.355469 74.628906 C 47.304688 75.625 46.875 76.578125 46.527344 77.203125 L 46.234375 77.722656 L 46.78125 77.484375 C 49.613281 76.277344 52.148438 74.59375 54.183594 72.574219 C 53.699219 73.5 53.132812 74.429688 52.550781 75.234375 L 51.777344 76.308594 L 52.839844 75.511719 C 55.710938 73.363281 58.046875 70.527344 59.613281 67.285156 L 60.914062 72.164062 C 60.796875 72.707031 60.625 73.316406 60.421875 73.929688 L 60.410156 73.960938 C 60.191406 74.578125 59.964844 75.214844 59.699219 75.824219 L 59.648438 75.941406 C 59.535156 76.207031 59.414062 76.484375 59.28125 76.746094 C 59.21875 76.863281 59.164062 76.980469 59.105469 77.097656 C 59.015625 77.28125 58.925781 77.472656 58.824219 77.65625 C 58.753906 77.773438 58.691406 77.898438 58.628906 78.019531 C 58.53125 78.199219 58.433594 78.378906 58.335938 78.550781 L 57.800781 79.433594 C 57.695312 79.617188 57.578125 79.789062 57.453125 79.972656 C 57.378906 80.074219 57.308594 80.179688 57.242188 80.28125 L 57.207031 80.335938 C 57.023438 80.605469 56.851562 80.863281 56.652344 81.113281 L 56.039062 81.933594 L 55.378906 82.738281 C 55.105469 83.085938 54.800781 83.417969 54.503906 83.742188 C 54.335938 83.921875 54.171875 84.101562 54.011719 84.285156 C 53.761719 84.554688 53.496094 84.824219 53.234375 85.085938 C 53.011719 85.3125 52.777344 85.542969 52.550781 85.785156 L 51.300781 87.113281 L 52.8125 86.089844 C 53.074219 85.910156 53.335938 85.722656 53.589844 85.542969 L 53.683594 85.476562 C 53.761719 85.414062 53.84375 85.359375 53.925781 85.296875 C 54.132812 85.152344 54.34375 85 54.535156 84.828125 L 55.332031 84.144531 C 55.578125 83.945312 55.800781 83.722656 56.015625 83.511719 L 56.113281 83.410156 C 57.226562 82.355469 58.136719 81.164062 58.878906 80.136719 C 59.679688 79.011719 60.402344 77.753906 61.015625 76.414062 C 61.175781 76.089844 61.3125 75.753906 61.449219 75.425781 C 61.554688 75.183594 61.640625 74.929688 61.726562 74.6875 C 61.761719 74.59375 61.792969 74.503906 61.828125 74.40625 C 61.960938 74 62.097656 73.566406 62.210938 73.117188 L 71.703125 76.429688 C 72.054688 76.710938 73.574219 77.976562 75.199219 80.148438 C 74.777344 86.125 72.46875 93.425781 58.847656 102.34375 C 58.753906 102.007812 58.652344 101.664062 58.546875 101.320312 C 58.390625 100.824219 58.222656 100.328125 58.039062 99.8125 Z M 38.59375 100.105469 L 39.5625 100.035156 L 38.648438 99.710938 C 36.75 99.042969 34.992188 97.753906 33.617188 96.046875 C 34.460938 96.492188 35.417969 96.933594 36.519531 97.394531 L 36.824219 97.519531 L 36.800781 97.191406 C 36.707031 95.9375 36.683594 94.648438 36.742188 93.351562 C 37.429688 93.476562 38.179688 93.628906 39.011719 93.8125 C 39.984375 94.042969 40.867188 94.28125 41.699219 94.535156 L 42.882812 94.894531 L 42.433594 106.578125 C 40.855469 105.722656 39.34375 104.859375 37.933594 104.015625 C 37.753906 103.210938 37.695312 102.40625 37.667969 101.445312 L 37.664062 101.300781 L 37.523438 101.257812 C 36.445312 100.933594 35.382812 100.410156 34.394531 99.722656 C 35.644531 100.082031 37.078125 100.214844 38.59375 100.105469 Z M 41.863281 94.171875 C 41.121094 93.707031 40.277344 93.296875 39.285156 92.921875 C 38.492188 92.625 37.625 92.359375 36.554688 92.082031 C 35.617188 91.847656 34.679688 91.652344 33.769531 91.5 C 32.988281 91.363281 32.234375 91.257812 31.480469 91.183594 L 30.941406 88.796875 L 30.835938 88.355469 L 23.976562 86.71875 C 24.289062 85.949219 24.613281 85.257812 24.964844 84.613281 C 25.535156 83.574219 26.082031 82.691406 26.636719 81.910156 C 27.25 81.027344 27.902344 80.175781 28.574219 79.375 C 29.085938 78.769531 29.601562 78.195312 30.113281 77.667969 L 30.75 78.625 C 30.605469 78.957031 30.445312 79.253906 30.269531 79.507812 L 29.820312 80.167969 L 30.488281 80.539062 C 29.457031 81.917969 28.664062 83.507812 28.191406 85.144531 L 27.953125 85.980469 L 28.539062 85.335938 C 28.800781 85.042969 29.074219 84.730469 29.339844 84.429688 C 29.121094 85.070312 28.957031 85.734375 28.863281 86.375 L 28.835938 86.570312 L 29.027344 86.601562 C 30.320312 86.824219 31.464844 87.171875 32.523438 87.667969 L 32.738281 87.765625 L 32.800781 87.535156 C 32.859375 87.320312 32.910156 87.101562 32.957031 86.882812 C 33.15625 88.199219 33.511719 89.535156 34 90.808594 L 34.222656 91.378906 L 34.410156 90.703125 C 34.582031 90.089844 34.769531 89.414062 34.980469 88.777344 C 34.996094 88.964844 35.015625 89.15625 35.03125 89.347656 C 35.074219 89.84375 35.117188 90.339844 35.167969 90.84375 L 35.191406 91.070312 L 35.414062 91.019531 C 36.570312 90.761719 37.886719 90.855469 39.046875 91.265625 L 38.898438 91.996094 L 42.9375 93.375 L 42.882812 94.804688 Z M 18.980469 74.574219 C 20.304688 74.75 21.589844 74.886719 22.808594 74.984375 C 22.613281 78.351562 22.679688 81.207031 23.585938 84.09375 C 23.125 84.953125 22.703125 85.898438 22.296875 86.984375 L 22.011719 87.75 L 25.453125 88.570312 C 25.023438 89.367188 24.328125 90.730469 23.683594 92.304688 C 19.273438 86.597656 18.59375 81.261719 18.980469 74.574219 Z M 64.839844 22.328125 C 65.914062 24.257812 71.03125 32.800781 80.851562 39.054688 C 79.472656 41.140625 75.511719 48.230469 74.671875 61.933594 L 72.269531 64.464844 C 71.894531 64.183594 71.371094 63.804688 70.765625 63.402344 C 70.777344 62.894531 70.796875 62.402344 70.828125 61.90625 C 71.058594 57.984375 71.558594 54.238281 72.316406 50.765625 C 73.527344 48.589844 74.101562 47.109375 74.203125 46.835938 L 74.484375 46.0625 L 73.617188 45.855469 C 74.1875 44.054688 74.84375 42.339844 75.5625 40.765625 L 75.804688 40.234375 L 75.339844 39.882812 C 68.851562 34.953125 64.742188 29.375 62.875 26.488281 L 62.65625 26.15625 L 31.496094 26.15625 L 31.277344 26.488281 C 29.410156 29.375 25.300781 34.953125 18.8125 39.882812 L 18.347656 40.234375 L 18.589844 40.769531 C 19.867188 43.542969 20.921875 46.734375 21.722656 50.253906 L 18.710938 54.929688 C 17.226562 45.664062 14.335938 40.621094 13.296875 39.054688 C 23.121094 32.800781 28.242188 24.257812 29.3125 22.328125 Z M 72.722656 66.109375 C 72.890625 66.898438 73.214844 67.972656 73.859375 69.226562 C 73.78125 69.160156 73.703125 69.089844 73.625 69.019531 C 72.429688 67.886719 72.109375 66.953125 72.117188 66.75 Z M 32.988281 75.042969 C 37.824219 74.6875 42.441406 73.746094 46.726562 72.242188 C 43.90625 74.640625 39.097656 78.351562 33.859375 80.734375 L 31.898438 79.640625 C 32.734375 77.996094 32.9375 76.003906 32.988281 75.042969 Z M 32.292969 27.621094 L 61.859375 27.621094 C 64.140625 31.070312 68.074219 36.097656 73.988281 40.691406 C 73.339844 42.167969 72.734375 43.789062 72.1875 45.519531 L 31.101562 35.707031 L 22.824219 48.542969 C 22.105469 45.695312 21.214844 43.054688 20.167969 40.691406 C 26.085938 36.089844 30.019531 31.066406 32.292969 27.621094 Z M 70.171875 54.230469 C 69.785156 56.664062 69.515625 59.210938 69.359375 61.816406 C 69.347656 62.050781 69.335938 62.285156 69.324219 62.519531 C 67.46875 61.496094 66.109375 61.199219 65.273438 61.644531 C 65.136719 61.71875 65.007812 61.8125 64.894531 61.929688 L 63.503906 63.394531 C 62.734375 64.203125 63.015625 65.675781 64.335938 67.773438 C 64.515625 68.058594 64.714844 68.347656 64.886719 68.589844 L 62.222656 71.398438 L 60.4375 64.714844 C 61.777344 63.65625 63.054688 62.527344 64.238281 61.355469 C 66.445312 59.171875 68.4375 56.777344 70.171875 54.230469 Z M 24.304688 74.464844 L 24.695312 73.597656 C 25.191406 73.671875 25.664062 73.71875 26.109375 73.742188 L 26.238281 75.183594 L 26.890625 75.195312 C 27.308594 75.203125 27.859375 75.214844 28.410156 75.214844 C 28.433594 75.214844 28.453125 75.214844 28.480469 75.214844 L 29.28125 76.417969 C 28.683594 77.023438 28.082031 77.6875 27.449219 78.433594 C 26.746094 79.273438 26.066406 80.164062 25.429688 81.074219 C 25.164062 81.449219 24.898438 81.851562 24.621094 82.296875 C 24.101562 79.90625 24.117188 77.417969 24.304688 74.464844 Z M 74.191406 75.707031 C 72.929688 74.820312 71.59375 73.71875 70.308594 72.507812 C 68.324219 70.640625 66.648438 68.679688 65.582031 66.996094 C 64.472656 65.238281 64.507812 64.488281 64.574219 64.398438 L 64.699219 64.273438 C 64.902344 64.867188 65.246094 65.550781 65.726562 66.3125 C 66.851562 68.09375 68.613281 70.152344 70.691406 72.113281 C 71.945312 73.296875 73.269531 74.390625 74.527344 75.289062 Z M 26.601562 45.394531 C 26.878906 45.40625 27.179688 45.414062 27.496094 45.414062 C 30.238281 45.414062 36.992188 44.863281 41.242188 39.832031 C 41.5 40.546875 42.078125 42.4375 42.011719 44.964844 C 41.929688 47.949219 40.902344 52.457031 36.484375 57 L 35.824219 57.679688 L 36.707031 57.328125 C 36.78125 57.300781 43.667969 54.515625 46.980469 49.558594 C 46.359375 51.371094 45.121094 54.289062 43 56.660156 L 42 57.773438 L 43.261719 56.960938 C 43.296875 56.941406 46.167969 55.078125 47.980469 53.039062 C 46.707031 55.820312 43.113281 62 35.382812 65.152344 L 33.75 65.816406 L 35.492188 65.539062 C 35.917969 65.46875 45.96875 63.808594 53.925781 58.136719 L 54.835938 57.488281 L 50.621094 58.617188 C 52.726562 57.226562 57.085938 54.011719 59.550781 49.820312 C 59.277344 50.964844 58.773438 52.621094 57.933594 53.855469 L 57.28125 54.816406 L 58.222656 54.132812 C 58.253906 54.109375 61.457031 51.753906 63.371094 48.050781 L 71.324219 49.5 C 69.828125 52.28125 67.226562 56.347656 63.175781 60.355469 C 56.847656 66.601562 45.550781 73.980469 27.585938 73.75 L 26.828125 65.246094 L 23.113281 73.542969 C 18.886719 73.214844 14.425781 72.488281 9.855469 71.382812 Z M 66.96875 65.535156 C 65.863281 63.777344 65.894531 63.027344 65.964844 62.9375 C 66.140625 62.765625 67.839844 62.972656 71.25 65.539062 L 71.015625 65.78125 C 70.488281 66.339844 70.542969 67.238281 71.175781 68.316406 L 71.1875 68.339844 C 71.308594 68.542969 71.441406 68.738281 71.570312 68.910156 C 72.199219 69.804688 73.78125 71.847656 75.863281 73.082031 C 74.960938 72.984375 73.546875 72.675781 72.441406 71.738281 C 72.195312 71.515625 71.949219 71.289062 71.699219 71.050781 C 69.707031 69.171875 68.027344 67.214844 66.96875 65.535156 Z M 74.992188 63.726562 C 75.261719 63.871094 75.554688 64 75.871094 64.109375 C 76.027344 64.976562 76.488281 66.882812 77.71875 68.5625 L 76.152344 70.214844 C 74.300781 67.492188 74.054688 65.429688 74.027344 64.742188 Z M 79.425781 59.054688 L 81.398438 56.976562 C 81.621094 58.402344 82.171875 60.390625 83.488281 62.492188 L 81.570312 64.507812 C 79.5625 62.355469 79.410156 59.886719 79.425781 59.054688 Z M 85.480469 60.390625 L 84.535156 61.390625 C 84.320312 61.023438 84.121094 60.652344 83.945312 60.277344 C 84.453125 60.332031 84.96875 60.371094 85.480469 60.390625 Z M 84.617188 53.675781 C 84.957031 53.714844 85.859375 54.070312 86.90625 55.058594 C 86.980469 55.128906 87.050781 55.195312 87.125 55.273438 L 87.179688 55.328125 C 87.230469 55.382812 87.28125 55.433594 87.332031 55.496094 C 87.355469 55.515625 87.371094 55.535156 87.402344 55.574219 L 87.441406 55.617188 C 87.464844 55.644531 87.488281 55.671875 87.511719 55.695312 L 87.824219 56.097656 C 88.21875 56.652344 88.363281 57.054688 88.394531 57.238281 C 88.085938 57.203125 87.203125 56.890625 86.121094 55.867188 C 85.035156 54.84375 84.671875 53.976562 84.617188 53.675781 Z M 82.730469 55.578125 L 83.472656 54.796875 C 83.808594 55.496094 84.394531 56.253906 85.113281 56.929688 C 85.832031 57.609375 86.625 58.148438 87.335938 58.445312 L 86.851562 58.957031 C 85.148438 58.96875 83.894531 58.8125 83.332031 58.722656 C 82.855469 57.253906 82.75 56.089844 82.730469 55.578125 Z M 49.214844 66.714844 C 51.824219 65.585938 54.308594 64.183594 56.585938 62.542969 C 58.902344 60.875 61.011719 58.964844 62.867188 56.871094 C 63.777344 55.84375 64.65625 54.722656 65.472656 53.539062 C 66.175781 52.488281 66.886719 50.929688 67.484375 49.570312 C 67.484375 49.570312 64.125 53.832031 61.96875 56.03125 C 60.828125 57.167969 59.871094 58.054688 58.957031 58.824219 C 57.898438 59.742188 56.8125 60.59375 55.726562 61.359375 C 55.328125 61.65625 54.90625 61.941406 54.5 62.21875 C 54.34375 62.320312 54.195312 62.425781 54.046875 62.527344 L 53.640625 62.785156 C 53.203125 63.066406 52.753906 63.351562 52.292969 63.617188 C 51.160156 64.324219 49.941406 64.953125 48.765625 65.558594 L 48.695312 65.597656 C 46.363281 66.742188 43.925781 67.96875 41.101562 68.941406 C 41.097656 68.945312 46.535156 67.855469 49.214844 66.714844 Z M 51.953125 81.347656 L 52.089844 81.207031 C 52.660156 80.609375 53.164062 80.039062 53.617188 79.460938 L 53.617188 79.457031 C 54.589844 78.195312 55.273438 77.101562 55.777344 76.011719 L 56.28125 74.910156 L 55.257812 75.984375 C 54.378906 76.90625 53.546875 77.773438 52.683594 78.640625 C 52.199219 79.128906 51.71875 79.597656 51.253906 80.042969 C 50.890625 80.21875 50.460938 80.410156 50.003906 80.59375 C 49.78125 80.683594 49.558594 80.769531 49.324219 80.855469 C 49.105469 80.941406 48.878906 81.019531 48.648438 81.097656 C 47.835938 81.378906 46.949219 81.644531 45.867188 81.929688 C 44.863281 82.175781 43.925781 82.371094 43 82.527344 L 38.449219 83.304688 L 40.09375 83.429688 C 40.570312 83.464844 41.082031 83.5 41.609375 83.503906 L 41.890625 83.5 C 42.292969 83.496094 42.707031 83.488281 43.117188 83.457031 L 43.871094 83.398438 L 44.613281 83.308594 C 44.984375 83.269531 45.359375 83.207031 45.722656 83.148438 C 45.851562 83.128906 45.976562 83.105469 46.109375 83.085938 C 46.878906 82.953125 47.65625 82.785156 48.429688 82.582031 C 47.957031 82.96875 47.445312 83.382812 46.863281 83.832031 C 46.605469 84.027344 46.339844 84.222656 46.078125 84.429688 C 45.9375 84.53125 45.792969 84.632812 45.644531 84.734375 C 45.519531 84.816406 45.394531 84.90625 45.273438 84.992188 L 44.878906 85.277344 L 44.460938 85.550781 C 44.195312 85.722656 43.910156 85.910156 43.625 86.121094 L 42.710938 86.78125 L 43.800781 86.476562 C 44.105469 86.390625 44.417969 86.289062 44.71875 86.191406 L 44.765625 86.175781 C 44.949219 86.113281 45.109375 86.058594 45.261719 86 L 45.726562 85.796875 C 45.832031 85.746094 45.9375 85.699219 46.046875 85.652344 C 46.25 85.558594 46.453125 85.464844 46.65625 85.363281 C 46.957031 85.203125 47.25 85.035156 47.550781 84.863281 C 48.773438 84.125 49.875 83.308594 50.828125 82.433594 C 51.183594 82.117188 51.539062 81.773438 51.953125 81.347656 Z M 39.84375 47.828125 L 40.046875 47.296875 L 39.554688 47.582031 C 35.191406 50.082031 28.441406 50.722656 28.375 50.730469 L 27.648438 50.796875 L 28.304688 51.113281 C 30.011719 51.9375 32.074219 52.050781 33.316406 52.027344 C 30.457031 53.140625 27.398438 52.941406 27.367188 52.9375 L 27.242188 52.929688 L 23.714844 58.804688 L 24.15625 58.726562 C 36.398438 56.515625 39.8125 47.914062 39.84375 47.828125 Z M 68.789062 92.300781 C 70.472656 90.015625 71.367188 87.171875 71.242188 84.492188 L 71.214844 83.828125 L 70.867188 84.398438 C 68.855469 87.707031 66.089844 90.609375 62.875 92.78125 L 62.003906 93.371094 L 63.03125 93.148438 C 64.09375 92.917969 65.105469 92.550781 66.050781 92.058594 C 64.730469 93.855469 63.066406 95.472656 61.71875 96.71875 L 61.121094 97.269531 L 61.90625 97.0625 C 64.539062 96.367188 67.113281 94.589844 68.789062 92.300781 Z M 68.789062 92.300781 " fill-opacity="1" fill-rule="nonzero"/></svg>