<svg xmlns="http://www.w3.org/2000/svg" xmlns:xlink="http://www.w3.org/1999/xlink" width="130" zoomAndPan="magnify" viewBox="0 0 97.5 131.999998" height="176" preserveAspectRatio="xMidYMid meet" version="1.0"><defs><clipPath id="5489f5e19c"><path d="M 5.574219 10.035156 L 97.003906 10.035156 L 97.003906 131.664062 L 5.574219 131.664062 Z M 5.574219 10.035156 " clip-rule="nonzero"/></clipPath><clipPath id="a7893d7720"><path d="M 12 12 L 97.003906 12 L 97.003906 131.664062 L 12 131.664062 Z M 12 12 " clip-rule="nonzero"/></clipPath><clipPath id="a8591c902a"><path d="M 15 15 L 97.003906 15 L 97.003906 127 L 15 127 Z M 15 15 " clip-rule="nonzero"/></clipPath><clipPath id="1407fdfd07"><path d="M 9 10.035156 L 97.003906 10.035156 L 97.003906 131.664062 L 9 131.664062 Z M 9 10.035156 " clip-rule="nonzero"/></clipPath></defs><g clip-path="url(#5489f5e19c)"><path fill="#21224e" d="M 117.210938 41.625 C 116.359375 41 100.234375 29.21875 79.886719 24.277344 C 76.996094 19.273438 68.816406 11.578125 63.617188 10.136719 C 63.378906 10.070312 63.132812 10.035156 62.886719 10.035156 C 62.640625 10.035156 62.394531 10.070312 62.152344 10.136719 C 56.957031 11.578125 48.777344 19.273438 45.882812 24.277344 C 25.535156 29.21875 9.410156 41 8.5625 41.625 C 6.691406 43.011719 5.574219 45.226562 5.574219 47.554688 C 5.574219 52.773438 5.863281 99.109375 15.945312 118.4375 C 20.613281 127.386719 29.574219 134.789062 42.578125 140.4375 C 52.183594 144.605469 60.578125 146.28125 61.5 146.457031 C 61.957031 146.542969 62.421875 146.585938 62.886719 146.585938 C 63.351562 146.585938 63.816406 146.542969 64.269531 146.457031 C 65.195312 146.28125 73.589844 144.605469 83.195312 140.4375 C 96.199219 134.789062 105.160156 127.386719 109.828125 118.4375 C 119.90625 99.109375 120.199219 52.773438 120.199219 47.554688 C 120.199219 45.226562 119.082031 43.011719 117.210938 41.625 " fill-opacity="1" fill-rule="nonzero"/></g><g clip-path="url(#a7893d7720)"><path fill="#2e306c" d="M 54.933594 89.042969 L 54.769531 89.617188 C 54.679688 89.945312 54.597656 90.285156 54.53125 90.636719 L 54.457031 91.027344 L 54.40625 91.425781 C 54.359375 91.757812 54.324219 92.105469 54.292969 92.480469 L 54.28125 92.644531 L 54.261719 93.046875 C 54.234375 93.632812 54.222656 94.222656 54.230469 94.804688 L 54.242188 95.515625 L 53.554688 95.34375 C 51.0625 94.734375 48.8125 94.605469 47.367188 94.605469 L 47.152344 94.605469 L 47.09375 94.59375 C 46.839844 94.539062 46.597656 94.480469 46.371094 94.417969 L 46.292969 94.398438 C 46.203125 94.371094 46.117188 94.347656 46.03125 94.320312 L 45.632812 94.199219 L 45.664062 93.117188 L 45.664062 93.019531 L 45.707031 92.917969 C 45.804688 92.691406 45.914062 92.441406 46.03125 92.171875 L 46.144531 91.921875 L 46.132812 91.921875 L 46.492188 91.195312 C 46.753906 90.664062 47.003906 90.195312 47.242188 89.792969 L 47.4375 89.472656 L 48 88.699219 C 48.28125 88.363281 48.542969 88.136719 48.804688 88.007812 L 48.96875 87.925781 Z M 39.714844 65.09375 C 37.203125 65.507812 35.179688 66.339844 33.679688 67.570312 C 35.902344 68.070312 40.863281 69.53125 41.929688 72.761719 L 42.183594 73.535156 L 41.371094 73.476562 C 41.367188 73.476562 40.808594 73.4375 39.9375 73.4375 C 37.894531 73.4375 33.0625 73.667969 30.550781 75.699219 L 39.582031 84.488281 L 38.914062 84.839844 C 38.804688 84.898438 27.851562 90.6875 26.113281 97.472656 C 25.609375 99.445312 25.945312 101.335938 27.117188 103.089844 C 33.210938 112.238281 40.445312 113.660156 40.519531 113.671875 L 40.984375 113.757812 L 40.296875 131.476562 L 39.507812 131.015625 C 37.335938 129.738281 36.148438 128.800781 36.097656 128.761719 L 35.890625 128.597656 L 35.921875 125.378906 L 35.988281 118.234375 C 35.839844 118.238281 35.691406 118.238281 35.542969 118.238281 C 31.261719 118.238281 27.914062 117.054688 25.597656 114.714844 C 22.339844 111.425781 22.285156 107.015625 22.289062 106.523438 L 23.382812 106.53125 C 23.378906 106.808594 23.398438 112.273438 28.007812 115.246094 C 25.09375 111.269531 24.28125 104.113281 24.054688 100.816406 L 20.6875 106.097656 L 20.226562 105.382812 C 20.128906 105.230469 17.867188 101.609375 19.476562 94.324219 C 20.800781 88.324219 26.1875 86.328125 28.25 85.777344 C 25.472656 82.082031 19.394531 81.941406 19.332031 81.941406 L 18.691406 81.929688 L 18.800781 81.300781 C 18.8125 81.246094 19.726562 76.113281 21.53125 71.628906 C 21.675781 71.277344 21.816406 70.910156 21.964844 70.539062 L 21.976562 70.503906 C 21.976562 70.503906 21.996094 70.46875 22 70.464844 L 22.511719 69.121094 C 23.675781 66.054688 24.84375 62.746094 25.335938 61.332031 C 23.054688 61.453125 20.683594 63.09375 20.660156 63.113281 L 19.855469 62.425781 C 21.890625 58.257812 28.597656 54.121094 30.847656 52.816406 L 30.792969 52.453125 C 31.496094 52.347656 32.207031 52.296875 32.910156 52.296875 C 43.265625 52.296875 51.214844 63.636719 55.03125 70.398438 C 56.207031 72.488281 58.097656 74.121094 60.351562 74.996094 L 60.699219 75.132812 L 60.699219 76.339844 L 59.960938 76.058594 C 57.683594 75.199219 55.71875 73.59375 54.425781 71.539062 L 50.648438 65.53125 C 49.855469 65.359375 46.976562 64.792969 43.648438 64.792969 C 42.589844 64.792969 41.574219 64.851562 40.625 64.964844 L 40.304688 65.003906 L 40.300781 64.996094 Z M 33.710938 119.660156 L 34.082031 119.789062 L 34.003906 128.042969 L 33.152344 127.4375 C 33.003906 127.332031 32.859375 127.226562 32.714844 127.121094 L 32.492188 126.960938 C 32.425781 126.910156 32.167969 126.714844 32.167969 126.714844 C 31.695312 126.363281 31.285156 126.042969 30.910156 125.742188 C 30.859375 125.699219 30.53125 125.429688 30.53125 125.429688 C 30.402344 125.324219 30.269531 125.21875 30.140625 125.109375 C 30.09375 125.070312 29.828125 124.839844 29.828125 124.839844 C 29.679688 124.714844 29.535156 124.585938 29.386719 124.460938 C 29.339844 124.417969 29.289062 124.371094 29.242188 124.328125 L 29.078125 124.179688 C 28.9375 124.050781 28.792969 123.921875 28.652344 123.792969 C 28.601562 123.746094 28.324219 123.480469 28.324219 123.480469 C 28.191406 123.355469 28.0625 123.234375 27.933594 123.109375 L 27.902344 123.078125 C 27.664062 122.84375 27.445312 122.625 27.230469 122.40625 C 27.175781 122.351562 26.964844 122.121094 26.964844 122.121094 L 26.855469 122.011719 C 26.753906 121.902344 26.652344 121.796875 26.554688 121.6875 L 26.46875 121.589844 C 26.035156 121.117188 25.628906 120.648438 25.257812 120.195312 C 25.191406 120.113281 25.128906 120.035156 25.066406 119.957031 L 23.960938 118.558594 L 25.535156 118.964844 C 26.808594 119.292969 28.03125 119.339844 29.054688 119.339844 C 29.390625 119.339844 29.71875 119.332031 30.035156 119.328125 C 30.347656 119.324219 30.648438 119.320312 30.945312 119.320312 C 31.863281 119.320312 32.835938 119.359375 33.710938 119.660156 Z M 110.707031 99.148438 C 110.667969 99.523438 110.613281 99.914062 110.542969 100.378906 L 109.460938 100.363281 C 109.433594 100.140625 109.402344 99.917969 109.371094 99.699219 L 109.121094 98.390625 L 109.039062 98.089844 L 109.113281 98.410156 L 109.347656 99.679688 C 109.609375 101.480469 109.628906 103.25 109.410156 104.96875 L 109.402344 105.019531 L 109.34375 105.195312 L 108.28125 105 C 108.292969 104.589844 108.292969 104.179688 108.277344 103.78125 L 108.207031 102.617188 L 108.167969 102.328125 L 108.195312 102.605469 L 108.257812 103.765625 C 108.292969 105.375 108.152344 106.933594 107.84375 108.425781 L 107.722656 108.933594 L 107.6875 108.992188 C 106.523438 111.21875 105.277344 112.878906 104.4375 113.886719 C 103.714844 114.75 103.226562 115.207031 103.207031 115.226562 L 101.785156 116.5625 L 102.308594 114.683594 C 102.316406 114.648438 103.019531 112.070312 102.953125 109.53125 C 102.160156 112.324219 100.179688 116.300781 95.246094 117.753906 L 95.070312 117.394531 C 94.652344 117.5625 94.203125 117.695312 93.695312 117.808594 C 92.859375 117.988281 91.972656 118.078125 91.0625 118.078125 C 90.96875 118.078125 90.878906 118.078125 90.785156 118.074219 C 89.1875 118.042969 87.445312 117.757812 85.304688 117.179688 L 84.914062 117.078125 L 84.785156 113.757812 L 85.253906 113.671875 C 85.273438 113.667969 87.160156 113.308594 89.789062 111.765625 C 82.808594 110.332031 69.292969 104.84375 62.570312 100.074219 L 62.347656 99.917969 L 62.34375 99.925781 L 61.808594 99.515625 C 61.582031 99.34375 61.367188 99.175781 61.164062 99.007812 C 59.359375 97.523438 57.164062 96.394531 54.644531 95.640625 L 54.265625 95.527344 L 54.253906 95.132812 C 54.230469 94.25 54.242188 93.460938 54.289062 92.722656 C 54.371094 91.480469 54.539062 90.433594 54.808594 89.519531 L 54.949219 89.042969 L 56.457031 89.328125 C 56.789062 88.816406 57.542969 88.015625 59.003906 87.953125 C 59.078125 87.949219 59.15625 87.945312 59.242188 87.945312 C 60.132812 87.945312 61.503906 88.132812 63 88.457031 C 64.796875 88.847656 68.390625 89.792969 72.300781 91.761719 C 77.210938 94.234375 91.726562 96.207031 94.980469 96.625 C 94.902344 95.816406 94.664062 94.289062 93.960938 92.460938 C 93.851562 92.171875 93.015625 92.066406 92.34375 91.988281 C 91.261719 91.855469 90.035156 91.707031 89.410156 90.800781 C 88.90625 90.070312 88.941406 88.980469 88.976562 87.824219 C 89 87.132812 89.023438 86.417969 88.917969 85.828125 C 88.90625 85.757812 88.894531 85.691406 88.878906 85.625 L 88.765625 85.9375 L 88.199219 85.601562 C 87.894531 85.421875 87.636719 85.269531 87.425781 85.152344 L 86.757812 84.773438 L 87.332031 84.265625 C 87.703125 83.941406 88.09375 83.613281 88.46875 83.300781 C 88.6875 83.117188 88.90625 82.933594 89.125 82.746094 C 89.492188 82.4375 89.796875 82.164062 90.066406 81.90625 L 89.507812 81.257812 L 95.21875 75.699219 C 92.707031 73.667969 87.878906 73.4375 85.835938 73.4375 L 84.75 73.441406 L 85.28125 72.601562 C 85.410156 72.398438 85.539062 72.195312 85.675781 72 C 86.199219 71.265625 86.710938 70.628906 87.253906 70.046875 L 87.683594 69.601562 L 88.136719 69.160156 L 88.203125 69.101562 C 88.339844 68.980469 88.460938 68.878906 88.554688 68.753906 L 88.644531 68.640625 L 88.78125 68.585938 C 90.039062 68.085938 91.261719 67.761719 92.09375 67.574219 C 90.609375 66.351562 88.613281 65.523438 86.140625 65.105469 L 85.382812 64.980469 L 85.375 64.992188 L 85.058594 64.953125 C 84.132812 64.847656 83.148438 64.792969 82.121094 64.792969 C 78.789062 64.792969 75.914062 65.359375 75.125 65.53125 L 71.34375 71.539062 C 70.234375 73.304688 68.65625 74.722656 66.777344 75.644531 L 65.992188 76.027344 L 65.992188 74.765625 L 66.292969 74.613281 C 68.175781 73.675781 69.714844 72.21875 70.742188 70.398438 C 74.558594 63.636719 82.503906 52.296875 92.863281 52.296875 C 93.566406 52.296875 94.277344 52.347656 94.976562 52.453125 C 104.203125 53.816406 107.972656 60.09375 109.507812 65.113281 L 108.507812 65.539062 C 108.507812 65.539062 108.421875 65.382812 108.402344 65.347656 C 108.089844 64.796875 107.746094 64.261719 107.382812 63.746094 C 107.742188 64.277344 108.078125 64.816406 108.382812 65.355469 C 109.347656 67.078125 110.070312 68.914062 110.527344 70.8125 L 110.558594 70.945312 L 110.558594 70.992188 C 110.609375 71.859375 110.59375 72.382812 110.59375 72.40625 L 110.515625 74.503906 L 109.5625 72.636719 C 108.820312 71.191406 106.839844 67.847656 104.84375 66.09375 C 106.003906 68.246094 107.894531 72.046875 109.207031 76.078125 L 108.246094 76.460938 L 108.589844 77.25 L 109.042969 78.460938 L 109.441406 79.699219 C 109.941406 81.421875 110.246094 83.152344 110.347656 84.855469 L 110.410156 86.628906 L 109.621094 86.300781 C 108.996094 86.035156 106.738281 85.175781 103.855469 85.175781 C 103.554688 85.175781 103.257812 85.183594 102.957031 85.203125 C 104.957031 86.40625 108.339844 88.945312 109.929688 93.050781 C 110.667969 94.964844 110.933594 97.015625 110.707031 99.148438 Z M 89.816406 121.957031 L 88.9375 122.078125 L 88.949219 122.15625 L 89.042969 122.890625 C 89.144531 123.820312 89.195312 124.78125 89.199219 125.832031 C 89.195312 126.5 89.160156 127.171875 89.097656 127.828125 L 89.09375 127.847656 L 89.144531 127.816406 L 88.898438 129.332031 L 88.566406 129.5625 L 87.601562 130.21875 L 87.75 128.671875 L 87.757812 128.667969 L 87.796875 127.867188 C 87.804688 127.675781 87.808594 127.480469 87.8125 127.285156 C 87.796875 127.527344 87.785156 127.765625 87.773438 128 C 87.761719 128.132812 87.75 128.257812 87.742188 128.382812 L 87.710938 128.71875 L 87.730469 128.707031 C 87.730469 128.707031 87.570312 129.949219 87.5625 129.992188 L 87.527344 130.246094 L 87.3125 130.378906 C 86.992188 130.578125 86.644531 130.792969 86.261719 131.015625 L 85.476562 131.476562 L 85.0625 120.800781 L 85.386719 120.644531 C 86.996094 119.886719 88.222656 119.203125 88.96875 118.765625 L 89.78125 118.285156 Z M 15.433594 62.527344 C 14.886719 63.921875 14.449219 65.421875 14.140625 66.988281 L 13.058594 66.914062 C 12.414062 56.105469 12.398438 47.910156 12.398438 47.566406 L 12.398438 47.289062 L 12.617188 47.117188 C 12.617188 47.117188 12.785156 46.992188 13.109375 46.765625 C 13.214844 46.6875 13.339844 46.601562 13.476562 46.503906 L 13.800781 46.28125 C 14.035156 46.125 14.296875 45.941406 14.59375 45.746094 C 14.742188 45.644531 14.898438 45.542969 15.0625 45.433594 C 20.113281 42.097656 30.464844 35.9375 43.011719 32.132812 L 43.984375 31.839844 L 43.695312 32.8125 C 42.625 36.417969 41.117188 41.371094 39.453125 46.75 C 39.167969 47.675781 39.128906 48.65625 39.34375 49.597656 L 40.265625 50.308594 L 39.730469 51.25 C 37.644531 50.421875 35.5 50.003906 33.363281 50.003906 C 32.554688 50.003906 31.738281 50.0625 30.9375 50.1875 C 23.527344 51.300781 18.164062 55.566406 15.433594 62.527344 Z M 65.433594 48.914062 L 65.375 48.980469 L 63.429688 50.203125 L 63.429688 61.6875 L 62.644531 61.292969 C 62.261719 61.105469 53.28125 56.566406 52.898438 49.78125 L 53.957031 49.5625 C 53.972656 49.609375 54.347656 50.585938 55.277344 50.984375 C 55.117188 50.140625 54.691406 48.757812 53.546875 47.972656 L 53.230469 47.753906 L 53.328125 47.386719 C 53.34375 47.308594 53.828125 45.523438 55.953125 45.011719 L 56.273438 44.933594 L 57.800781 46.667969 C 58.007812 46.902344 58.304688 47.039062 58.613281 47.039062 L 58.644531 47.582031 L 58.648438 47.035156 C 59.152344 47.03125 59.578125 46.6875 59.695312 46.195312 C 59.84375 45.578125 60.167969 45.027344 60.640625 44.601562 L 61.496094 43.832031 L 62.335938 44.515625 L 61.746094 45.519531 C 61.566406 45.832031 61.566406 46.199219 61.746094 46.511719 C 61.921875 46.824219 62.242188 47.011719 62.601562 47.011719 L 63.148438 47.011719 C 63.511719 47.007812 63.835938 46.820312 64.015625 46.503906 C 64.195312 46.1875 64.195312 45.8125 64.011719 45.5 L 63.4375 44.515625 L 64.273438 43.832031 L 65.128906 44.601562 C 66.386719 45.730469 66.519531 47.625 65.433594 48.914062 Z M 83.59375 49.972656 C 83.519531 49.765625 83.453125 49.558594 83.390625 49.347656 C 83.347656 49.21875 83.308594 49.085938 83.265625 48.960938 C 83.234375 48.859375 83.199219 48.757812 83.167969 48.652344 L 82.867188 47.742188 L 79.882812 50.023438 L 78.5 51.085938 C 78.5 51.085938 78.285156 51.273438 78.1875 51.363281 L 78.1875 51.347656 L 77.328125 52.15625 C 73.625 55.65625 70.5625 59.714844 68.21875 64.222656 C 66.429688 67.671875 64.226562 70.183594 63.386719 71.078125 C 63.347656 71.042969 63.300781 71.003906 63.253906 70.960938 C 62.164062 69.964844 59.414062 67.253906 57.382812 63.558594 C 54.863281 58.972656 51.523438 54.832031 47.460938 51.253906 L 47.425781 51.21875 C 47.367188 50.84375 47.386719 50.457031 47.484375 50.089844 C 48.421875 46.605469 51.519531 35.058594 51.996094 32.6875 C 52.058594 32.371094 52.269531 31.773438 52.902344 30.71875 C 53.636719 29.496094 54.71875 28.035156 55.957031 26.609375 C 57.304688 25.054688 58.703125 23.679688 60 22.636719 C 61.171875 21.691406 62.226562 21.054688 63.050781 20.792969 L 63.429688 20.671875 L 63.429688 15.089844 C 66.90625 16.714844 70.476562 20.339844 73.253906 23.386719 C 73.664062 23.832031 74.046875 24.261719 74.394531 24.652344 C 75.324219 25.6875 75.996094 26.4375 76.4375 26.808594 C 76.464844 26.835938 76.628906 26.996094 76.957031 27.710938 C 77.351562 28.578125 77.851562 29.957031 78.445312 31.808594 C 80.085938 36.945312 81.96875 44.261719 82.703125 47.171875 L 82.710938 47.195312 L 82.71875 47.214844 C 82.9375 47.847656 83.125 48.414062 83.292969 48.945312 C 83.292969 48.945312 83.449219 49.449219 83.484375 49.570312 L 83.675781 50.207031 Z M 40.988281 49.359375 L 41.035156 49.542969 L 41.417969 49.835938 C 41.523438 49.914062 41.628906 50 41.730469 50.082031 L 42.835938 50.949219 L 42.765625 49.738281 C 42.757812 49.574219 42.753906 49.410156 42.753906 49.246094 C 42.761719 49.496094 42.777344 49.75 42.800781 50.007812 C 42.828125 50.265625 42.867188 50.546875 42.925781 50.863281 L 42.960938 51.0625 L 43.113281 51.191406 C 43.398438 51.421875 43.679688 51.660156 43.960938 51.902344 L 45.085938 52.863281 L 44.855469 51.402344 C 44.832031 51.261719 44.8125 51.121094 44.796875 50.980469 C 44.832031 51.175781 44.90625 51.609375 44.90625 51.609375 C 44.984375 52.003906 45.070312 52.40625 45.175781 52.84375 L 45.214844 53.007812 L 45.335938 53.121094 C 48.925781 56.398438 51.980469 60.015625 54.417969 63.878906 C 57.234375 68.347656 61.039062 71.613281 62.546875 72.8125 C 62.703125 72.9375 62.835938 73.039062 62.945312 73.125 C 63.160156 73.289062 63.28125 73.375 63.28125 73.375 L 63.628906 73.625 L 63.953125 73.347656 C 63.964844 73.339844 64.175781 73.160156 64.539062 72.824219 C 65.707031 71.730469 68.695312 68.742188 71.144531 64.628906 C 73.125 61.308594 75.53125 58.167969 78.296875 55.28125 L 78.460938 55.097656 C 78.460938 55.097656 78.445312 54.804688 78.445312 54.792969 C 78.421875 54.472656 78.386719 54.15625 78.355469 53.84375 C 78.339844 53.742188 78.332031 53.632812 78.320312 53.519531 C 78.34375 53.628906 78.363281 53.734375 78.378906 53.84375 L 78.394531 53.941406 L 78.550781 55.007812 L 79.316406 54.25 C 79.617188 53.953125 79.921875 53.660156 80.226562 53.371094 L 80.425781 53.1875 L 80.394531 52.917969 C 80.378906 52.765625 80.363281 52.617188 80.34375 52.460938 L 80.285156 52.078125 C 80.296875 52.113281 80.304688 52.148438 80.3125 52.183594 L 80.523438 53.085938 L 81.320312 52.367188 C 81.453125 52.246094 81.585938 52.128906 81.71875 52.011719 L 81.941406 51.816406 L 81.898438 51.519531 C 81.851562 51.203125 81.796875 50.890625 81.746094 50.578125 C 81.71875 50.429688 81.695312 50.285156 81.675781 50.136719 C 81.710938 50.28125 81.742188 50.429688 81.769531 50.570312 C 81.78125 50.621094 81.789062 50.671875 81.796875 50.722656 L 81.988281 51.765625 L 82.707031 51.164062 C 82.941406 50.964844 83.179688 50.773438 83.421875 50.578125 L 83.71875 50.335938 L 83.71875 50.332031 L 84.34375 49.847656 L 84.585938 49.65625 L 84.734375 49.542969 L 84.78125 49.359375 C 84.964844 48.664062 84.949219 47.929688 84.734375 47.242188 C 84.019531 44.921875 81.558594 36.945312 79.996094 31.621094 C 79.449219 29.75 79.0625 28.378906 78.84375 27.542969 C 78.792969 27.339844 78.75 27.164062 78.714844 27.019531 C 78.449219 25.863281 77.316406 24.246094 76.410156 23.089844 C 73.453125 19.3125 67.347656 13.457031 63.03125 12.261719 L 62.886719 12.222656 L 62.742188 12.261719 C 58.421875 13.457031 52.316406 19.3125 49.359375 23.089844 C 48.457031 24.246094 47.324219 25.863281 47.054688 27.019531 C 47.023438 27.164062 46.980469 27.339844 46.925781 27.542969 C 46.710938 28.382812 46.320312 29.753906 45.773438 31.621094 C 44.214844 36.941406 41.753906 44.921875 41.035156 47.242188 C 40.824219 47.929688 40.808594 48.664062 40.988281 49.359375 " fill-opacity="1" fill-rule="nonzero"/></g><path fill="#ffffff" d="M 72.554688 39.898438 L 72.179688 39.78125 C 72.140625 39.769531 71.777344 39.660156 71.25 39.660156 C 70.253906 39.660156 68.445312 40.058594 67.542969 42.75 L 67.339844 43.351562 L 67.964844 43.460938 C 67.980469 43.460938 68.371094 43.53125 68.910156 43.53125 C 69.773438 43.53125 70.96875 43.359375 71.765625 42.546875 C 72.3125 41.988281 72.582031 41.230469 72.5625 40.292969 Z M 58.949219 42.75 L 59.152344 43.351562 L 58.527344 43.460938 C 58.507812 43.460938 58.117188 43.53125 57.582031 43.53125 C 56.71875 43.53125 55.523438 43.359375 54.722656 42.546875 C 54.179688 41.988281 53.910156 41.230469 53.929688 40.292969 L 53.933594 39.898438 L 54.308594 39.78125 C 54.351562 39.769531 54.714844 39.660156 55.242188 39.660156 C 56.238281 39.660156 58.046875 40.058594 58.949219 42.75 " fill-opacity="1" fill-rule="nonzero"/><g clip-path="url(#a8591c902a)"><path fill="#6966a3" d="M 61.015625 15.394531 C 61.015625 15.394531 55.09375 18.609375 53.109375 21.0625 C 52.570312 21.730469 52.089844 22.425781 51.675781 23.089844 C 50.566406 24.867188 49.9375 26.394531 49.9375 26.394531 C 49.9375 26.394531 51.332031 24.855469 53.257812 22.84375 C 55.570312 20.425781 58.652344 17.332031 61.015625 15.394531 Z M 56.699219 36.464844 C 56.371094 37.167969 60.410156 40.097656 60.496094 39.808594 C 60.578125 39.519531 60.082031 36.507812 60.78125 36.753906 C 61.066406 36.855469 61.464844 38.042969 61.839844 39.425781 C 61.984375 39.957031 62.433594 40.222656 62.886719 40.222656 C 63.335938 40.222656 63.785156 39.957031 63.929688 39.425781 C 64.304688 38.042969 64.703125 36.855469 64.988281 36.753906 C 65.691406 36.507812 65.195312 39.519531 65.277344 39.808594 C 65.359375 40.097656 69.402344 37.167969 69.070312 36.464844 C 68.800781 35.886719 64.777344 32.035156 63.371094 30.695312 C 63.234375 30.566406 63.058594 30.503906 62.886719 30.503906 C 62.710938 30.503906 62.539062 30.566406 62.402344 30.695312 C 60.992188 32.035156 56.972656 35.886719 56.699219 36.464844 Z M 94.472656 92.265625 C 94.003906 91.046875 90.8125 91.867188 89.859375 90.492188 C 89.179688 89.507812 89.738281 87.320312 89.457031 85.734375 C 89.359375 85.171875 89.160156 84.6875 88.761719 84.355469 L 88.476562 85.132812 L 87.871094 86.792969 L 85.898438 92.171875 C 87.539062 92.203125 89.128906 92.5625 90.644531 93.0625 C 91.421875 93.328125 92.179688 93.632812 92.917969 93.976562 C 93.65625 94.324219 94.378906 94.699219 95.0625 95.144531 C 93.542969 94.566406 92.019531 94.050781 90.46875 93.652344 C 88.925781 93.253906 87.351562 92.960938 85.789062 92.957031 C 85.328125 92.953125 84.878906 92.914062 84.4375 92.863281 C 84.421875 92.863281 84.40625 92.871094 84.390625 92.871094 C 84.355469 92.871094 84.320312 92.871094 84.285156 92.863281 C 84.203125 92.84375 84.117188 92.828125 84.035156 92.8125 C 83.796875 92.777344 83.554688 92.746094 83.316406 92.707031 C 82.511719 92.582031 81.710938 92.441406 80.914062 92.285156 C 79.316406 91.980469 77.734375 91.644531 76.152344 91.292969 C 72.988281 90.59375 69.839844 89.847656 66.699219 89.0625 C 65.425781 88.75 64.15625 88.425781 62.886719 88.101562 C 61.082031 87.644531 59.28125 87.179688 57.480469 86.707031 C 56.539062 87.117188 55.890625 88.070312 55.507812 89.136719 C 55.441406 89.3125 55.386719 89.492188 55.332031 89.671875 L 56.746094 89.9375 C 56.746094 89.9375 57.253906 88.578125 59.03125 88.496094 C 59.757812 88.464844 61.128906 88.609375 62.886719 88.992188 C 65.40625 89.539062 68.714844 90.570312 72.054688 92.25 C 77.722656 95.101562 95.570312 97.25 95.570312 97.25 C 95.570312 97.25 95.570312 95.125 94.472656 92.265625 Z M 46.800781 89.84375 C 46.800781 89.847656 46.800781 89.851562 46.796875 89.859375 C 46.722656 90.121094 46.632812 90.382812 46.566406 90.648438 L 46.414062 91.433594 C 46.589844 91.425781 46.761719 91.417969 46.933594 91.429688 C 46.949219 91.433594 46.964844 91.433594 46.980469 91.4375 C 47.210938 90.96875 47.457031 90.5 47.714844 90.070312 C 47.546875 90.042969 47.378906 90.011719 47.214844 89.972656 C 47.078125 89.9375 46.9375 89.890625 46.800781 89.84375 Z M 46.210938 93.128906 C 46.304688 92.910156 46.410156 92.660156 46.53125 92.398438 C 46.453125 92.367188 46.375 92.335938 46.296875 92.300781 C 46.269531 92.578125 46.226562 92.851562 46.210938 93.128906 Z M 53.058594 88.65625 C 52.425781 88.550781 51.789062 88.457031 51.152344 88.367188 C 50.515625 88.289062 49.875 88.21875 49.230469 88.175781 C 48.90625 88.148438 48.585938 88.144531 48.261719 88.09375 C 48.101562 88.070312 47.941406 88.03125 47.78125 87.984375 C 47.753906 87.976562 47.730469 87.96875 47.707031 87.960938 C 47.613281 88.09375 47.527344 88.230469 47.449219 88.375 C 47.347656 88.554688 47.242188 88.734375 47.160156 88.925781 C 47.226562 88.921875 47.292969 88.921875 47.359375 88.921875 C 47.71875 88.933594 48.066406 88.996094 48.417969 89.050781 C 48.632812 88.792969 48.847656 88.597656 49.046875 88.496094 L 54.246094 89.46875 C 54.296875 89.285156 54.355469 89.101562 54.417969 88.917969 C 54.273438 88.90625 54.140625 88.871094 54 88.84375 C 53.691406 88.769531 53.371094 88.71875 53.058594 88.65625 Z M 50.894531 86.570312 C 50.4375 86.503906 49.980469 86.433594 49.527344 86.371094 C 49.460938 86.394531 49.386719 86.429688 49.320312 86.460938 C 49.210938 86.511719 49.105469 86.585938 48.996094 86.644531 L 48.691406 86.871094 C 48.632812 86.917969 48.574219 86.972656 48.515625 87.027344 C 48.777344 87.019531 49.039062 87.042969 49.304688 87.054688 C 49.972656 87.097656 50.644531 87.164062 51.308594 87.265625 C 51.976562 87.359375 52.636719 87.519531 53.289062 87.710938 C 53.609375 87.816406 53.933594 87.921875 54.246094 88.058594 C 54.394531 88.109375 54.539062 88.171875 54.671875 88.261719 C 54.796875 87.980469 54.945312 87.703125 55.113281 87.433594 L 51.828125 86.761719 Z M 16.941406 68.140625 L 17.480469 67.289062 L 18.046875 66.453125 C 18.242188 66.183594 18.441406 65.910156 18.644531 65.644531 L 19.273438 64.855469 L 19.929688 64.089844 C 20.15625 63.84375 20.371094 63.585938 20.628906 63.367188 C 20.894531 63.15625 21.1875 62.96875 21.546875 62.851562 C 21.46875 63.230469 21.316406 63.53125 21.140625 63.8125 C 20.972656 64.101562 20.761719 64.347656 20.5625 64.609375 L 19.984375 65.398438 L 19.429688 66.207031 C 19.257812 66.484375 19.078125 66.753906 18.894531 67.027344 L 18.382812 67.855469 L 17.890625 68.699219 L 17.527344 69.347656 C 18.835938 67.378906 20.675781 65.085938 22.421875 64.542969 C 22.421875 64.542969 17.09375 73.398438 15.859375 81.171875 C 16.316406 80.035156 16.808594 78.910156 17.339844 77.808594 L 17.914062 76.660156 L 18.523438 75.527344 L 19.15625 74.410156 C 19.378906 74.042969 19.597656 73.675781 19.824219 73.3125 L 20.523438 72.238281 L 21.246094 71.179688 C 21.5 70.832031 21.734375 70.476562 22.019531 70.152344 C 22.308594 69.839844 22.625 69.546875 23.019531 69.316406 C 24.566406 65.242188 26.097656 60.804688 26.097656 60.804688 C 23.390625 60.523438 20.347656 62.667969 20.347656 62.667969 C 22.707031 57.828125 31.789062 52.914062 31.839844 52.886719 C 31.519531 52.910156 31.199219 52.945312 30.875 52.992188 C 18.609375 54.808594 16.257812 65.53125 15.820312 70.207031 C 16.019531 69.804688 16.222656 69.410156 16.4375 69.019531 Z M 22.835938 106.503906 C 22.835938 106.503906 22.835938 106.511719 22.835938 106.527344 C 22.832031 107.039062 22.902344 115.144531 31.289062 117.210938 C 24.820312 114.867188 24.519531 99.074219 24.519531 99.074219 L 20.683594 105.085938 C 20.683594 105.085938 18.429688 101.589844 20.007812 94.441406 C 21.585938 87.296875 29.144531 86.132812 29.144531 86.132812 C 26.4375 81.507812 19.339844 81.394531 19.339844 81.394531 C 19.339844 81.394531 20.234375 76.316406 22.039062 71.832031 C 22.179688 71.480469 22.324219 71.113281 22.472656 70.738281 C 22.300781 71.042969 22.117188 71.332031 21.929688 71.625 L 21.28125 72.710938 L 20.65625 73.808594 C 20.460938 74.179688 20.253906 74.546875 20.050781 74.914062 L 19.460938 76.027344 C 19.082031 76.78125 18.707031 77.53125 18.34375 78.289062 C 17.628906 79.808594 16.96875 81.355469 16.386719 82.929688 L 15.957031 84.117188 C 15.855469 84.417969 15.75 84.71875 15.636719 85.019531 C 15.65625 85.316406 15.683594 85.605469 15.722656 85.890625 C 15.722656 85.890625 19.742188 83.960938 24.585938 84.875 C 24.585938 84.875 20.980469 86.449219 18.316406 89.835938 L 18.101562 90.410156 C 17.667969 91.671875 17.375 92.976562 17.203125 94.300781 L 17.109375 95.296875 L 17.050781 96.292969 L 17.046875 97.191406 L 17.046875 97.296875 C 17.0625 97.628906 17.078125 97.964844 17.085938 98.296875 L 17.175781 99.300781 L 17.316406 100.296875 C 17.378906 100.625 17.460938 100.949219 17.484375 101.292969 C 17.523438 101.628906 17.535156 101.976562 17.453125 102.367188 C 17.421875 102.335938 17.394531 102.304688 17.367188 102.273438 C 17.550781 102.777344 17.753906 103.269531 17.988281 103.75 L 18.398438 104.558594 L 18.859375 105.34375 C 18.878906 105.375 18.902344 105.410156 18.925781 105.441406 C 19.070312 105.660156 19.222656 105.875 19.34375 106.117188 C 19.492188 106.386719 19.621094 106.675781 19.679688 107.042969 C 19.554688 107.003906 19.445312 106.953125 19.335938 106.894531 C 19.144531 106.796875 18.972656 106.671875 18.808594 106.539062 C 18.574219 106.316406 18.386719 106.058594 18.183594 105.808594 L 17.625 105.027344 L 17.125 104.203125 C 16.6875 103.425781 16.320312 102.605469 16.03125 101.757812 C 17.246094 107.496094 20.121094 111.582031 21.753906 113.535156 C 22.464844 114.382812 22.9375 114.828125 22.9375 114.828125 C 22.9375 114.828125 21.496094 109.652344 22.835938 106.503906 Z M 92.304688 126.992188 C 92.789062 126.644531 93.269531 126.292969 93.742188 125.929688 C 96.503906 123.800781 99.011719 121.375 101.035156 118.625 C 98.363281 119.414062 94.753906 120.214844 92.238281 120.179688 Z M 26.871094 121.222656 C 26.460938 120.773438 26.0625 120.316406 25.679688 119.851562 C 26.0625 120.316406 26.460938 120.773438 26.871094 121.222656 Z M 103.476562 41.683594 C 103.289062 41.578125 103.101562 41.472656 102.910156 41.367188 C 102.5 41.144531 102.082031 40.914062 101.65625 40.6875 C 101.09375 40.386719 100.519531 40.082031 99.925781 39.773438 C 99.394531 39.5 98.851562 39.226562 98.296875 38.949219 C 98.296875 38.949219 98.292969 38.949219 98.292969 38.949219 C 96.027344 37.824219 93.554688 36.691406 90.921875 35.617188 C 90.265625 35.351562 89.597656 35.085938 88.921875 34.828125 C 87.566406 34.308594 86.175781 33.808594 84.753906 33.339844 C 84.042969 33.105469 83.324219 32.875 82.597656 32.65625 C 83.777344 36.625 85.367188 41.824219 86.839844 46.589844 C 87.171875 47.667969 87.199219 48.820312 86.914062 49.914062 L 86.160156 50.496094 C 86.058594 50.574219 85.957031 50.65625 85.855469 50.734375 C 87.917969 49.921875 90.101562 49.457031 92.410156 49.457031 C 93.242188 49.457031 94.085938 49.519531 94.917969 49.644531 C 102.53125 50.789062 108.039062 55.175781 110.847656 62.328125 C 111.472656 63.917969 111.890625 65.476562 112.167969 66.878906 C 112.828125 55.84375 112.828125 47.554688 112.828125 47.554688 C 112.828125 47.554688 109.28125 44.933594 103.476562 41.683594 Z M 25.398438 119.492188 C 25.492188 119.609375 25.582031 119.730469 25.679688 119.84375 C 25.582031 119.730469 25.492188 119.609375 25.398438 119.492188 " fill-opacity="1" fill-rule="nonzero"/></g><g clip-path="url(#1407fdfd07)"><path fill="#100f0d" d="M 82.976562 114.980469 C 83.019531 115.089844 83.117188 115.125 82.953125 115.511719 C 82.617188 115.761719 82.550781 115.664062 82.425781 115.636719 C 82.316406 115.597656 82.203125 115.554688 82.105469 115.492188 C 81.910156 115.371094 81.757812 115.203125 81.59375 115.042969 C 81.277344 114.71875 80.980469 114.375 80.714844 114.007812 C 80.453125 113.640625 80.226562 113.242188 80.046875 112.828125 L 79.917969 112.511719 L 79.8125 112.191406 C 79.78125 112.082031 79.734375 111.980469 79.738281 111.859375 C 79.753906 111.734375 79.792969 111.597656 79.933594 111.425781 C 80.363281 111.492188 80.453125 111.667969 80.554688 111.847656 L 80.898438 112.359375 C 81.132812 112.695312 81.371094 113.019531 81.613281 113.34375 C 81.859375 113.664062 82.117188 113.972656 82.398438 114.261719 L 82.609375 114.476562 C 82.683594 114.546875 82.753906 114.621094 82.8125 114.707031 C 82.878906 114.785156 82.929688 114.878906 82.976562 114.980469 Z M 53.855469 47.523438 C 53.855469 47.523438 54.25 45.980469 56.082031 45.539062 L 57.390625 47.03125 C 57.703125 47.386719 58.15625 47.589844 58.632812 47.582031 C 58.640625 47.582031 58.648438 47.582031 58.65625 47.582031 C 59.410156 47.574219 60.054688 47.050781 60.226562 46.320312 C 60.34375 45.832031 60.605469 45.371094 61.007812 45.007812 L 61.863281 44.238281 L 61.277344 45.246094 C 60.679688 46.265625 61.414062 47.554688 62.597656 47.558594 L 63.148438 47.558594 C 64.34375 47.550781 65.085938 46.253906 64.480469 45.222656 L 63.90625 44.238281 L 64.765625 45.007812 C 65.792969 45.933594 65.902344 47.507812 65.015625 48.5625 L 62.886719 49.902344 L 62.886719 49.898438 L 60.828125 48.609375 C 60.441406 48.394531 60.121094 48.140625 59.929688 47.851562 C 59.929688 47.851562 59.667969 50.121094 62.886719 50.617188 L 62.886719 60.804688 C 62.882812 60.804688 53.8125 56.308594 53.441406 49.75 C 53.441406 49.75 54.101562 51.5625 55.917969 51.6875 C 55.917969 51.6875 55.835938 48.882812 53.855469 47.523438 Z M 58.433594 42.921875 C 58.433594 42.921875 54.410156 43.621094 54.472656 40.300781 C 54.472656 40.300781 57.257812 39.425781 58.433594 42.921875 Z M 56.699219 36.464844 C 56.972656 35.886719 60.992188 32.035156 62.402344 30.695312 C 62.539062 30.566406 62.710938 30.503906 62.886719 30.503906 C 63.058594 30.503906 63.234375 30.566406 63.371094 30.695312 C 64.777344 32.035156 68.800781 35.886719 69.070312 36.464844 C 69.402344 37.167969 65.359375 40.097656 65.277344 39.808594 C 65.195312 39.519531 65.691406 36.507812 64.988281 36.753906 C 64.703125 36.855469 64.304688 38.042969 63.929688 39.425781 C 63.785156 39.957031 63.335938 40.222656 62.886719 40.222656 C 62.433594 40.222656 61.984375 39.957031 61.839844 39.425781 C 61.464844 38.042969 61.066406 36.855469 60.78125 36.753906 C 60.082031 36.507812 60.578125 39.519531 60.496094 39.808594 C 60.410156 40.097656 56.371094 37.167969 56.699219 36.464844 Z M 72.019531 40.300781 C 72.078125 43.621094 68.058594 42.921875 68.058594 42.921875 C 69.234375 39.425781 72.019531 40.300781 72.019531 40.300781 Z M 62.257812 64.578125 C 62.457031 64.660156 62.671875 64.695312 62.886719 64.695312 C 63.101562 64.695312 63.316406 64.660156 63.511719 64.578125 C 71.792969 61.261719 78.054688 50.320312 74.679688 40.863281 C 73.929688 38.761719 72.960938 36.960938 71.902344 35.425781 C 70.695312 34 69.410156 32.570312 68.203125 31.261719 C 68.222656 31.273438 68.242188 31.285156 68.261719 31.292969 C 69.578125 31.960938 70.792969 32.671875 71.421875 33.28125 C 73.238281 35.042969 76.242188 40.851562 76.242188 40.851562 C 76.242188 40.851562 76.242188 40.78125 76.1875 40.074219 C 76.15625 39.667969 76.105469 39.046875 76.03125 38.101562 C 75.820312 35.523438 73.957031 31.378906 73.957031 31.378906 L 75.613281 32.390625 C 75.613281 32.390625 75.382812 31.664062 75.03125 30.753906 C 74.597656 29.621094 73.976562 28.207031 73.367188 27.527344 C 73.148438 27.285156 72.78125 26.9375 72.332031 26.535156 C 70.484375 24.890625 67.234375 22.320312 67.234375 22.320312 C 67.234375 22.320312 67.234375 22.320312 69.433594 23.042969 C 71.632812 23.761719 74.253906 26.394531 74.253906 26.394531 C 74.253906 26.394531 74.210938 26.128906 72.6875 23.929688 C 72.457031 23.597656 72.070312 23.179688 71.582031 22.710938 C 68.84375 20.105469 62.886719 15.933594 62.886719 15.933594 L 62.886719 27.71875 C 62.886719 27.71875 61.507812 28.273438 59.636719 29.59375 C 56.921875 31.511719 53.167969 35.050781 51.09375 40.863281 C 47.714844 50.320312 53.980469 61.261719 62.257812 64.578125 Z M 93.742188 125.929688 C 93.269531 126.292969 92.789062 126.644531 92.304688 126.992188 L 92.238281 120.179688 C 94.753906 120.214844 98.363281 119.414062 101.035156 118.625 C 99.011719 121.375 96.503906 123.800781 93.742188 125.929688 Z M 32.816406 126.519531 C 32.707031 126.441406 32.601562 126.359375 32.496094 126.28125 C 32.078125 125.964844 31.660156 125.644531 31.253906 125.316406 C 31.164062 125.246094 31.078125 125.171875 30.988281 125.097656 C 30.824219 124.964844 30.65625 124.832031 30.492188 124.691406 C 30.414062 124.625 30.335938 124.554688 30.253906 124.484375 C 30.085938 124.339844 29.917969 124.199219 29.75 124.050781 C 29.671875 123.980469 29.59375 123.90625 29.515625 123.835938 C 29.351562 123.691406 29.183594 123.542969 29.023438 123.390625 C 28.945312 123.316406 28.867188 123.242188 28.785156 123.167969 C 28.628906 123.019531 28.46875 122.871094 28.3125 122.71875 C 28.296875 122.703125 28.28125 122.683594 28.265625 122.667969 C 28.050781 122.457031 27.835938 122.242188 27.625 122.027344 C 27.535156 121.933594 27.449219 121.839844 27.359375 121.746094 C 27.222656 121.601562 27.085938 121.460938 26.953125 121.316406 C 26.925781 121.285156 26.898438 121.253906 26.871094 121.222656 C 26.460938 120.773438 26.0625 120.316406 25.679688 119.851562 C 25.679688 119.847656 25.679688 119.847656 25.679688 119.84375 C 25.582031 119.730469 25.492188 119.609375 25.398438 119.492188 C 28.582031 120.316406 31.464844 119.464844 33.53125 120.179688 L 33.46875 126.992188 C 33.320312 126.886719 33.179688 126.785156 33.035156 126.679688 C 32.960938 126.628906 32.890625 126.574219 32.816406 126.519531 Z M 16.03125 101.757812 C 16.320312 102.605469 16.6875 103.425781 17.125 104.203125 L 17.625 105.027344 L 18.183594 105.808594 C 18.386719 106.058594 18.574219 106.316406 18.808594 106.539062 C 18.972656 106.671875 19.144531 106.796875 19.335938 106.894531 C 19.445312 106.953125 19.554688 107.003906 19.679688 107.042969 C 19.621094 106.675781 19.492188 106.386719 19.34375 106.117188 C 19.222656 105.875 19.070312 105.660156 18.925781 105.441406 C 18.902344 105.410156 18.878906 105.375 18.859375 105.34375 L 18.398438 104.558594 L 17.988281 103.75 C 17.753906 103.269531 17.550781 102.777344 17.367188 102.273438 C 17.394531 102.304688 17.421875 102.335938 17.453125 102.367188 C 17.535156 101.976562 17.523438 101.628906 17.484375 101.292969 C 17.460938 100.949219 17.378906 100.625 17.316406 100.296875 L 17.175781 99.300781 L 17.085938 98.296875 C 17.078125 97.964844 17.0625 97.628906 17.046875 97.296875 L 17.046875 97.191406 L 17.050781 96.292969 L 17.109375 95.296875 L 17.203125 94.300781 C 17.375 92.976562 17.667969 91.671875 18.101562 90.410156 L 18.316406 89.835938 C 20.980469 86.449219 24.585938 84.875 24.585938 84.875 C 19.742188 83.960938 15.722656 85.890625 15.722656 85.890625 C 15.683594 85.605469 15.65625 85.316406 15.636719 85.019531 C 15.75 84.71875 15.855469 84.417969 15.957031 84.117188 L 16.386719 82.929688 C 16.96875 81.355469 17.628906 79.808594 18.34375 78.289062 C 18.707031 77.53125 19.082031 76.78125 19.460938 76.027344 L 20.050781 74.914062 C 20.253906 74.546875 20.460938 74.179688 20.65625 73.808594 L 21.28125 72.710938 L 21.929688 71.625 C 22.117188 71.332031 22.300781 71.042969 22.472656 70.738281 C 22.714844 70.304688 22.921875 69.839844 23.03125 69.308594 C 23.027344 69.308594 23.023438 69.3125 23.019531 69.316406 C 22.625 69.546875 22.308594 69.839844 22.019531 70.152344 C 21.734375 70.476562 21.5 70.832031 21.246094 71.179688 L 20.523438 72.238281 L 19.824219 73.3125 C 19.597656 73.675781 19.378906 74.042969 19.15625 74.410156 L 18.523438 75.527344 L 17.914062 76.660156 L 17.339844 77.808594 C 16.808594 78.910156 16.316406 80.035156 15.859375 81.171875 C 17.09375 73.398438 22.421875 64.542969 22.421875 64.542969 C 20.675781 65.085938 18.835938 67.378906 17.527344 69.347656 L 17.890625 68.699219 L 18.382812 67.855469 L 18.894531 67.027344 C 19.078125 66.753906 19.257812 66.484375 19.429688 66.207031 L 19.984375 65.398438 L 20.5625 64.609375 C 20.761719 64.347656 20.972656 64.101562 21.140625 63.8125 C 21.316406 63.53125 21.46875 63.230469 21.546875 62.851562 C 21.1875 62.96875 20.894531 63.15625 20.628906 63.367188 C 20.371094 63.585938 20.15625 63.84375 19.929688 64.089844 L 19.273438 64.855469 L 18.644531 65.644531 C 18.441406 65.910156 18.242188 66.183594 18.046875 66.453125 L 17.480469 67.289062 L 16.941406 68.140625 L 16.4375 69.019531 C 16.222656 69.410156 16.019531 69.804688 15.820312 70.207031 C 16.257812 65.53125 18.609375 54.808594 30.875 52.992188 C 41.855469 51.367188 50.386719 63.28125 54.554688 70.667969 C 55.820312 72.90625 57.8125 74.597656 60.15625 75.507812 L 60.15625 86.296875 C 59.292969 86.066406 58.433594 85.839844 57.574219 85.609375 C 57.472656 85.578125 57.359375 85.582031 57.25 85.621094 L 57.246094 85.621094 C 56.734375 85.808594 56.273438 86.109375 55.882812 86.476562 C 55.496094 86.277344 55.082031 86.230469 54.683594 86.121094 C 54.117188 85.988281 53.550781 85.871094 52.980469 85.769531 C 51.84375 85.570312 50.695312 85.410156 49.554688 85.238281 L 49.535156 85.234375 C 49.46875 85.226562 49.398438 85.230469 49.332031 85.25 C 49.109375 85.316406 48.980469 85.378906 48.820312 85.457031 C 48.667969 85.53125 48.53125 85.621094 48.386719 85.703125 L 47.988281 85.988281 C 47.867188 86.09375 47.75 86.203125 47.628906 86.3125 C 47.539062 86.398438 47.457031 86.488281 47.375 86.578125 C 47.277344 86.53125 47.183594 86.488281 47.089844 86.460938 C 48.007812 84.492188 49.21875 83.035156 49.21875 83.035156 L 46.339844 83.625 C 46.339844 83.625 46.339844 83.625 46.164062 80.242188 C 46.015625 77.425781 43.75 72.734375 42.992188 71.238281 C 42.984375 70.699219 42.96875 70.152344 42.929688 69.601562 C 42.921875 69.398438 42.894531 69.183594 42.875 68.972656 C 42.84375 68.761719 42.800781 68.5 42.730469 68.304688 C 42.664062 68.097656 42.597656 67.886719 42.511719 67.699219 C 42.425781 67.503906 42.34375 67.308594 42.246094 67.125 C 41.875 66.378906 41.457031 65.679688 40.988281 65.015625 C 40.847656 64.816406 40.703125 64.621094 40.558594 64.421875 C 40.226562 63.96875 39.886719 63.515625 39.535156 63.078125 C 39.28125 62.765625 39.011719 62.46875 38.71875 62.191406 C 38.425781 61.910156 38.117188 61.644531 37.757812 61.425781 C 38.246094 62.589844 38.964844 63.554688 39.625 64.554688 C 39.832031 64.867188 40.03125 65.183594 40.21875 65.511719 C 40.617188 66.1875 41.003906 66.867188 41.308594 67.5625 C 41.394531 67.734375 41.457031 67.910156 41.523438 68.085938 C 41.597656 68.261719 41.644531 68.433594 41.695312 68.605469 C 41.757812 68.789062 41.769531 68.925781 41.792969 69.105469 C 41.804688 69.214844 41.8125 69.320312 41.820312 69.429688 C 41.59375 68.953125 41.316406 68.5 41 68.082031 L 40.707031 67.71875 L 40.394531 67.371094 C 40.285156 67.265625 40.1875 67.140625 40.046875 67.0625 C 39.898438 66.984375 39.730469 66.929688 39.492188 66.953125 C 39.417969 67.429688 39.585938 67.644531 39.75 67.882812 C 39.902344 68.125 40.046875 68.371094 40.1875 68.617188 C 40.460938 69.109375 40.703125 69.621094 40.925781 70.136719 C 41.140625 70.65625 41.320312 71.1875 41.453125 71.730469 L 41.546875 72.140625 C 41.570312 72.277344 41.601562 72.414062 41.644531 72.550781 C 41.679688 72.6875 41.738281 72.824219 41.800781 72.957031 C 41.828125 73.015625 41.84375 73.070312 41.875 73.128906 C 41.871094 73.554688 41.867188 73.980469 41.859375 74.40625 C 41.855469 74.664062 41.847656 74.917969 41.84375 75.171875 C 38.136719 74.222656 33.148438 75.683594 33.148438 75.683594 C 35.550781 76.699219 41.410156 85.792969 41.410156 85.792969 C 35.71875 85.675781 29.003906 96.910156 29.003906 96.910156 C 29.003906 96.910156 29.003906 96.910156 33.910156 95.964844 C 37.691406 95.230469 40.097656 95.628906 41 95.847656 C 40.976562 96.304688 40.953125 96.761719 40.933594 97.222656 C 40.652344 97.1875 40.371094 97.15625 40.089844 97.136719 C 39.164062 97.070312 38.230469 97.101562 37.3125 97.214844 C 36.394531 97.328125 35.484375 97.519531 34.605469 97.804688 C 33.722656 98.082031 32.871094 98.511719 32.230469 99.214844 C 33.164062 99.050781 33.984375 98.796875 34.828125 98.5625 C 35.671875 98.332031 36.535156 98.191406 37.402344 98.125 C 38.128906 98.066406 38.855469 98.074219 39.582031 98.125 C 39.296875 98.203125 39.011719 98.285156 38.734375 98.378906 C 37.464844 98.792969 36.246094 99.359375 35.097656 100.039062 C 33.953125 100.722656 32.867188 101.515625 31.90625 102.445312 C 31.671875 102.683594 31.445312 102.925781 31.21875 103.167969 C 31.003906 103.425781 30.792969 103.6875 30.589844 103.949219 C 30.398438 104.222656 30.214844 104.5 30.03125 104.773438 C 29.871094 105.066406 29.746094 105.390625 29.753906 105.785156 C 30.140625 105.65625 30.394531 105.453125 30.613281 105.222656 C 30.835938 104.992188 31.058594 104.765625 31.277344 104.539062 C 31.507812 104.320312 31.734375 104.101562 31.957031 103.878906 C 32.191406 103.671875 32.425781 103.460938 32.648438 103.242188 C 33.585938 102.40625 34.589844 101.640625 35.671875 101.003906 C 35.996094 100.8125 36.328125 100.632812 36.667969 100.460938 C 36.4375 100.671875 36.21875 100.894531 36.011719 101.121094 C 35.617188 101.554688 35.257812 102.023438 34.945312 102.511719 C 34.621094 102.996094 34.324219 103.515625 34.402344 104.191406 C 34.992188 103.863281 35.277344 103.421875 35.609375 102.992188 C 35.949219 102.570312 36.316406 102.171875 36.707031 101.800781 C 37.488281 101.058594 38.363281 100.429688 39.300781 99.925781 C 40.242188 99.429688 41.257812 99.066406 42.304688 98.863281 C 42.378906 98.847656 42.453125 98.835938 42.527344 98.824219 L 44.824219 98.796875 C 45.933594 98.78125 47.042969 98.859375 48.144531 99.015625 C 49.246094 99.171875 50.332031 99.417969 51.394531 99.746094 L 54.300781 100.6875 C 54.335938 100.746094 54.382812 100.796875 54.4375 100.839844 L 54.445312 100.84375 C 57.210938 102.847656 60.019531 104.796875 62.886719 106.664062 C 63.269531 106.914062 63.648438 107.167969 64.03125 107.410156 C 66.886719 109.238281 69.796875 110.984375 72.800781 112.570312 C 72.925781 112.6875 73.050781 112.800781 73.175781 112.914062 C 73.5 113.191406 73.816406 113.480469 74.175781 113.714844 C 74.355469 113.835938 74.546875 113.933594 74.742188 114.027344 C 74.941406 114.105469 75.089844 114.253906 75.472656 114.078125 C 75.5625 114.164062 75.652344 114.246094 75.753906 114.320312 C 75.878906 114.414062 76.019531 114.488281 76.15625 114.558594 C 75.734375 114.742188 75.335938 114.964844 74.910156 115.140625 C 74.140625 115.523438 73.335938 115.824219 72.554688 116.167969 C 70.964844 116.800781 69.339844 117.351562 67.691406 117.820312 C 66.109375 118.25 64.503906 118.589844 62.886719 118.867188 C 62.808594 118.878906 62.734375 118.894531 62.65625 118.90625 C 60.957031 119.179688 59.242188 119.371094 57.527344 119.5 C 54.085938 119.738281 50.628906 119.773438 47.175781 119.585938 C 45.449219 119.5 43.722656 119.367188 42.003906 119.179688 C 41.414062 119.113281 40.234375 118.976562 40.234375 118.976562 C 39.105469 118.851562 37.96875 118.753906 36.804688 118.773438 C 37.902344 119.253906 39.046875 119.53125 40.207031 119.734375 C 40.769531 119.832031 41.335938 119.914062 41.902344 119.992188 C 42.039062 120.011719 42.171875 120.027344 42.308594 120.042969 C 41.441406 120.035156 40.722656 120.023438 40.195312 120.015625 C 39.566406 120.003906 39.210938 119.996094 39.210938 119.996094 C 39.210938 119.996094 39.554688 120.140625 40.179688 120.386719 C 41.953125 121.085938 45.992188 122.613281 50.988281 124.128906 C 54.140625 125.085938 57.210938 125.640625 60.15625 125.894531 L 60.15625 133.878906 C 58.921875 133.796875 57.695312 133.675781 56.472656 133.511719 C 54.007812 133.1875 51.570312 132.652344 49.179688 131.972656 C 46.789062 131.285156 44.449219 130.410156 42.199219 129.34375 C 41.414062 128.972656 40.644531 128.570312 39.878906 128.160156 C 39.546875 127.980469 39.214844 127.800781 38.886719 127.621094 C 38.074219 127.171875 37.265625 126.714844 36.460938 126.246094 L 36.542969 117.671875 C 22.90625 118.246094 22.828125 107.109375 22.835938 106.527344 C 22.835938 106.511719 22.835938 106.503906 22.835938 106.503906 C 21.496094 109.652344 22.9375 114.828125 22.9375 114.828125 C 22.9375 114.828125 22.464844 114.382812 21.753906 113.535156 C 20.121094 111.582031 17.246094 107.496094 16.03125 101.757812 Z M 12.945312 47.554688 C 12.945312 47.554688 13.234375 47.339844 13.789062 46.953125 C 16.949219 44.757812 28.632812 37.0625 43.171875 32.65625 C 41.992188 36.625 40.40625 41.824219 38.933594 46.589844 C 38.597656 47.671875 38.570312 48.820312 38.859375 49.914062 L 39.933594 50.742188 C 37.871094 49.921875 35.675781 49.457031 33.363281 49.457031 C 32.527344 49.457031 31.683594 49.519531 30.851562 49.644531 C 23.242188 50.789062 17.730469 55.175781 14.925781 62.328125 C 14.300781 63.917969 13.882812 65.476562 13.601562 66.882812 C 12.957031 56.054688 12.945312 47.871094 12.945312 47.5625 C 12.945312 47.558594 12.945312 47.554688 12.945312 47.554688 Z M 47.589844 27.144531 C 47.789062 26.277344 48.605469 24.941406 49.789062 23.425781 C 53.007812 19.316406 58.96875 13.871094 62.886719 12.789062 C 66.804688 13.871094 72.765625 19.316406 75.980469 23.425781 C 77.167969 24.941406 77.984375 26.277344 78.183594 27.144531 C 78.21875 27.292969 78.261719 27.472656 78.316406 27.683594 C 78.550781 28.59375 78.964844 30.046875 79.472656 31.773438 C 81.011719 37.027344 83.402344 44.78125 84.214844 47.402344 C 84.394531 47.996094 84.410156 48.621094 84.253906 49.222656 C 84.171875 49.285156 84.089844 49.351562 84.007812 49.414062 C 83.945312 49.207031 83.878906 48.996094 83.816406 48.789062 C 83.632812 48.199219 83.4375 47.617188 83.234375 47.035156 C 83.132812 46.738281 83.03125 46.445312 82.921875 46.148438 C 82.605469 45.273438 82.25 44.417969 81.867188 43.570312 C 81.671875 43.148438 81.472656 42.726562 81.265625 42.3125 C 81.15625 42.105469 81.070312 41.890625 80.925781 41.703125 C 80.777344 41.515625 80.605469 41.335938 80.335938 41.207031 C 80.179688 41.78125 80.347656 42.203125 80.507812 42.632812 L 80.964844 43.933594 L 81.875 46.523438 C 82.117188 47.230469 82.355469 47.933594 82.589844 48.644531 C 82.640625 48.804688 82.695312 48.964844 82.746094 49.125 C 82.859375 49.46875 82.957031 49.8125 83.078125 50.152344 C 82.835938 50.347656 82.59375 50.546875 82.355469 50.746094 C 82.339844 50.652344 82.324219 50.558594 82.304688 50.464844 C 82.214844 50.015625 82.09375 49.570312 81.949219 49.132812 C 81.945312 49.125 81.945312 49.113281 81.9375 49.101562 C 81.863281 48.878906 81.78125 48.660156 81.691406 48.441406 C 81.644531 48.332031 81.617188 48.222656 81.53125 48.125 C 81.441406 48.027344 81.324219 47.941406 81.105469 47.886719 C 80.8125 48.214844 80.859375 48.433594 80.898438 48.65625 L 80.996094 49.332031 C 81.019531 49.492188 81.046875 49.648438 81.070312 49.804688 C 81.113281 50.09375 81.15625 50.382812 81.207031 50.667969 C 81.261719 50.980469 81.308594 51.289062 81.355469 51.601562 C 81.183594 51.753906 81.015625 51.90625 80.84375 52.058594 C 80.777344 51.78125 80.695312 51.507812 80.585938 51.246094 C 80.511719 51.066406 80.429688 50.890625 80.339844 50.71875 C 80.292969 50.636719 80.261719 50.550781 80.183594 50.480469 C 80.179688 50.480469 80.179688 50.476562 80.175781 50.472656 C 80.082031 50.40625 79.964844 50.347656 79.753906 50.339844 C 79.492188 50.636719 79.519531 50.796875 79.558594 50.960938 C 79.558594 50.972656 79.5625 50.980469 79.566406 50.988281 L 79.652344 51.511719 L 79.800781 52.542969 C 79.824219 52.683594 79.839844 52.828125 79.855469 52.972656 C 79.542969 53.265625 79.234375 53.5625 78.933594 53.863281 C 78.925781 53.828125 78.925781 53.792969 78.917969 53.757812 C 78.871094 53.429688 78.789062 53.101562 78.679688 52.785156 C 78.625 52.625 78.566406 52.46875 78.496094 52.316406 C 78.460938 52.242188 78.441406 52.160156 78.367188 52.09375 C 78.339844 52.070312 78.304688 52.050781 78.265625 52.027344 C 78.195312 51.992188 78.105469 51.964844 77.976562 51.949219 C 77.65625 52.203125 77.679688 52.355469 77.699219 52.511719 C 77.699219 52.523438 77.703125 52.539062 77.703125 52.554688 C 77.710938 52.699219 77.71875 52.839844 77.726562 52.980469 C 77.75 53.292969 77.777344 53.601562 77.8125 53.90625 C 77.84375 54.214844 77.878906 54.519531 77.898438 54.828125 C 77.902344 54.851562 77.902344 54.878906 77.902344 54.902344 C 75.152344 57.769531 72.71875 60.925781 70.675781 64.347656 C 68.273438 68.378906 65.367188 71.300781 64.164062 72.425781 C 63.808594 72.757812 63.601562 72.933594 63.601562 72.933594 C 63.601562 72.933594 63.484375 72.847656 63.277344 72.691406 C 63.167969 72.609375 63.039062 72.507812 62.886719 72.382812 C 61.347656 71.160156 57.640625 67.964844 54.878906 63.585938 C 52.335938 59.554688 49.21875 55.925781 45.707031 52.714844 C 45.609375 52.3125 45.523438 51.910156 45.445312 51.503906 C 45.332031 50.882812 45.222656 50.257812 45.128906 49.625 L 44.996094 48.675781 C 44.964844 48.359375 44.949219 48.042969 44.574219 47.71875 C 44.378906 47.878906 44.292969 48.042969 44.234375 48.210938 C 44.183594 48.375 44.191406 48.542969 44.175781 48.707031 L 44.160156 49.207031 L 44.160156 49.707031 C 44.171875 50.300781 44.222656 50.898438 44.316406 51.484375 C 44.035156 51.242188 43.75 51.003906 43.464844 50.769531 C 43.414062 50.496094 43.371094 50.222656 43.34375 49.949219 C 43.269531 49.148438 43.265625 48.34375 43.355469 47.539062 L 43.433594 46.9375 L 43.546875 46.335938 C 43.59375 46.140625 43.660156 45.949219 43.671875 45.734375 C 43.695312 45.523438 43.6875 45.304688 43.589844 45.027344 C 43.335938 45.144531 43.171875 45.316406 43.03125 45.5 C 42.910156 45.6875 42.84375 45.902344 42.757812 46.105469 L 42.550781 46.738281 L 42.394531 47.386719 C 42.234375 48.167969 42.175781 48.972656 42.222656 49.769531 C 42.066406 49.648438 41.910156 49.523438 41.75 49.402344 L 41.519531 49.222656 C 41.363281 48.621094 41.375 47.996094 41.558594 47.402344 C 42.367188 44.78125 44.757812 37.027344 46.300781 31.773438 C 46.804688 30.050781 47.21875 28.59375 47.453125 27.683594 C 47.507812 27.472656 47.554688 27.292969 47.589844 27.144531 Z M 48.292969 98.042969 C 47.664062 97.9375 47.027344 97.867188 46.390625 97.824219 L 46.300781 96.933594 C 46.335938 96.953125 46.363281 96.972656 46.398438 96.992188 C 46.761719 97.203125 47.160156 97.347656 47.554688 97.488281 C 48.351562 97.757812 49.171875 97.96875 50.003906 98.082031 C 50.421875 98.140625 50.84375 98.179688 51.257812 98.191406 L 52.449219 98.226562 C 52.832031 98.242188 53.203125 98.28125 53.558594 98.367188 C 53.6875 98.394531 53.808594 98.433594 53.933594 98.46875 C 53.980469 98.882812 54.039062 99.296875 54.101562 99.710938 L 51.675781 98.871094 C 50.574219 98.507812 49.441406 98.226562 48.292969 98.042969 Z M 53.996094 90.535156 C 53.652344 90.398438 53.304688 90.265625 52.953125 90.144531 C 52.230469 89.898438 51.496094 89.679688 50.75 89.511719 C 50.003906 89.332031 49.253906 89.191406 48.5 89.0625 C 48.472656 89.058594 48.445312 89.054688 48.417969 89.050781 C 48.066406 88.996094 47.71875 88.933594 47.359375 88.921875 C 47.292969 88.921875 47.226562 88.921875 47.160156 88.925781 C 47.242188 88.734375 47.347656 88.554688 47.449219 88.375 C 47.527344 88.230469 47.613281 88.09375 47.707031 87.960938 C 47.730469 87.96875 47.753906 87.976562 47.78125 87.984375 C 47.941406 88.03125 48.101562 88.070312 48.261719 88.09375 C 48.585938 88.144531 48.90625 88.148438 49.230469 88.175781 C 49.875 88.21875 50.515625 88.289062 51.152344 88.367188 C 51.789062 88.457031 52.425781 88.550781 53.058594 88.65625 C 53.371094 88.71875 53.691406 88.769531 54 88.84375 C 54.140625 88.871094 54.273438 88.90625 54.417969 88.917969 C 54.355469 89.101562 54.296875 89.285156 54.246094 89.46875 C 54.144531 89.824219 54.0625 90.179688 53.996094 90.535156 Z M 53.699219 95.367188 C 53.652344 95.355469 53.605469 95.34375 53.554688 95.335938 C 53.160156 95.234375 52.765625 95.140625 52.371094 95.050781 C 51.578125 94.871094 50.785156 94.703125 49.984375 94.5625 C 49.1875 94.410156 48.382812 94.277344 47.589844 94.136719 C 47.457031 94.117188 47.332031 94.085938 47.207031 94.058594 C 46.964844 94.007812 46.730469 93.949219 46.515625 93.890625 C 46.40625 93.859375 46.296875 93.832031 46.191406 93.796875 L 46.210938 93.132812 C 46.210938 93.132812 46.210938 93.128906 46.210938 93.128906 C 46.226562 92.851562 46.269531 92.578125 46.296875 92.300781 C 46.375 92.335938 46.453125 92.367188 46.53125 92.398438 C 46.601562 92.425781 46.671875 92.453125 46.746094 92.472656 C 47.085938 92.574219 47.4375 92.621094 47.785156 92.683594 C 48.480469 92.796875 49.179688 92.898438 49.882812 92.96875 C 50.582031 93.054688 51.289062 93.09375 51.996094 93.109375 C 52.347656 93.113281 52.703125 93.113281 53.054688 93.105469 C 53.234375 93.097656 53.410156 93.109375 53.585938 93.0625 C 53.628906 93.050781 53.671875 93.035156 53.714844 93.019531 C 53.6875 93.617188 53.675781 94.21875 53.6875 94.816406 C 53.6875 95 53.695312 95.183594 53.699219 95.367188 Z M 46.261719 95.867188 C 46.246094 95.863281 46.234375 95.859375 46.222656 95.859375 C 46.207031 95.539062 46.199219 95.21875 46.179688 94.902344 C 46.585938 95.089844 47.003906 95.167969 47.390625 95.242188 C 48.195312 95.386719 48.992188 95.527344 49.792969 95.65625 C 50.59375 95.796875 51.394531 95.910156 52.203125 96.007812 C 52.605469 96.058594 53.007812 96.101562 53.414062 96.144531 C 53.519531 96.15625 53.628906 96.171875 53.738281 96.175781 C 53.746094 96.320312 53.75 96.464844 53.761719 96.609375 C 53.785156 96.9375 53.8125 97.269531 53.84375 97.59375 C 53.832031 97.59375 53.820312 97.585938 53.8125 97.582031 C 53.398438 97.417969 52.96875 97.320312 52.550781 97.257812 C 52.132812 97.191406 51.71875 97.160156 51.324219 97.121094 C 50.933594 97.085938 50.554688 97.039062 50.167969 96.980469 C 49.40625 96.859375 48.652344 96.675781 47.921875 96.425781 C 47.554688 96.304688 47.199219 96.148438 46.832031 96.027344 C 46.648438 95.964844 46.457031 95.914062 46.261719 95.867188 Z M 48.3125 90.171875 C 49.046875 90.296875 49.777344 90.445312 50.503906 90.597656 L 52.6875 91.082031 L 53.78125 91.332031 C 53.808594 91.335938 53.835938 91.34375 53.863281 91.351562 C 53.816406 91.714844 53.777344 92.078125 53.75 92.4375 C 53.535156 92.332031 53.320312 92.308594 53.101562 92.285156 L 52.070312 92.136719 C 51.382812 92.042969 50.699219 91.949219 50.011719 91.867188 C 49.328125 91.773438 48.644531 91.683594 47.960938 91.574219 C 47.636719 91.527344 47.3125 91.460938 46.980469 91.4375 C 46.964844 91.433594 46.949219 91.433594 46.933594 91.429688 C 46.761719 91.417969 46.589844 91.425781 46.414062 91.433594 L 46.566406 90.648438 C 46.632812 90.382812 46.722656 90.121094 46.796875 89.859375 C 46.800781 89.851562 46.800781 89.847656 46.800781 89.84375 C 46.9375 89.890625 47.078125 89.9375 47.214844 89.972656 C 47.378906 90.011719 47.546875 90.042969 47.714844 90.070312 C 47.914062 90.105469 48.113281 90.136719 48.3125 90.171875 Z M 55.113281 87.433594 C 54.945312 87.703125 54.796875 87.980469 54.671875 88.261719 C 54.539062 88.171875 54.394531 88.109375 54.246094 88.058594 C 53.933594 87.921875 53.609375 87.816406 53.289062 87.710938 C 52.636719 87.519531 51.976562 87.359375 51.308594 87.265625 C 50.644531 87.164062 49.972656 87.097656 49.304688 87.054688 C 49.039062 87.042969 48.777344 87.019531 48.515625 87.027344 C 48.574219 86.972656 48.632812 86.917969 48.691406 86.871094 L 48.996094 86.644531 C 49.105469 86.585938 49.210938 86.511719 49.320312 86.460938 C 49.386719 86.429688 49.460938 86.394531 49.527344 86.371094 C 49.980469 86.433594 50.4375 86.503906 50.894531 86.570312 C 51.535156 86.664062 52.179688 86.753906 52.824219 86.832031 C 53.398438 86.902344 53.976562 86.949219 54.554688 86.988281 C 54.835938 86.996094 55.113281 87.03125 55.394531 87.03125 C 55.292969 87.164062 55.199219 87.296875 55.113281 87.433594 Z M 46.667969 87.492188 C 46.65625 87.507812 46.648438 87.523438 46.636719 87.539062 C 46.644531 87.523438 46.648438 87.507812 46.65625 87.488281 C 46.660156 87.488281 46.664062 87.492188 46.667969 87.492188 Z M 62.886719 135.105469 C 63.230469 135.109375 63.570312 135.117188 63.914062 135.117188 C 68.984375 135.109375 74.074219 134.457031 78.957031 133.019531 C 81.363281 132.304688 83.730469 131.414062 85.976562 130.277344 C 86 130.265625 86.027344 130.253906 86.054688 130.242188 C 86.386719 130.070312 86.71875 129.890625 87.050781 129.707031 C 87.039062 129.777344 87.03125 129.847656 87.023438 129.914062 C 86.707031 130.113281 86.359375 130.324219 85.984375 130.542969 C 85.984375 130.542969 75.269531 137.441406 62.886719 137.441406 C 50.503906 137.441406 39.785156 130.542969 39.785156 130.542969 C 37.621094 129.269531 36.4375 128.332031 36.4375 128.332031 L 36.457031 126.597656 C 36.632812 126.757812 36.816406 126.917969 37.003906 127.066406 C 37.492188 127.472656 38.007812 127.847656 38.535156 128.199219 C 38.960938 128.484375 39.402344 128.75 39.84375 129.007812 C 40.496094 129.386719 41.164062 129.742188 41.839844 130.082031 C 44.113281 131.210938 46.476562 132.148438 48.902344 132.902344 C 53.425781 134.289062 58.152344 135.015625 62.886719 135.105469 Z M 88.269531 128.996094 C 88.316406 128.96875 88.363281 128.9375 88.414062 128.910156 L 88.394531 129.015625 C 88.347656 129.046875 88.308594 129.074219 88.257812 129.109375 C 88.261719 129.070312 88.265625 129.035156 88.269531 128.996094 Z M 66.535156 126.003906 C 74.675781 125.582031 81.417969 123.117188 85.621094 121.140625 C 87.214844 120.386719 88.441406 119.707031 89.246094 119.234375 L 89.273438 121.964844 L 89.101562 121.335938 C 89.023438 121.09375 88.96875 120.847656 88.851562 120.621094 C 88.726562 120.394531 88.570312 120.179688 88.316406 119.996094 C 88.097656 120.582031 88.210938 121.042969 88.300781 121.519531 L 88.410156 122.238281 L 88.5 122.957031 C 88.605469 123.914062 88.648438 124.875 88.652344 125.835938 C 88.648438 126.484375 88.613281 127.132812 88.554688 127.777344 C 88.484375 127.816406 88.414062 127.855469 88.34375 127.894531 C 88.375 127.191406 88.351562 126.484375 88.289062 125.785156 L 88.226562 125.226562 L 88.140625 124.671875 C 88.105469 124.488281 88.089844 124.304688 88.015625 124.125 C 87.9375 123.945312 87.824219 123.773438 87.613281 123.617188 C 87.285156 124.03125 87.3125 124.382812 87.324219 124.742188 L 87.316406 125.824219 C 87.304688 126.542969 87.269531 127.253906 87.226562 127.96875 C 87.214844 128.148438 87.195312 128.332031 87.179688 128.511719 C 86.765625 128.726562 86.351562 128.929688 85.929688 129.128906 C 85.816406 129.183594 85.703125 129.238281 85.589844 129.292969 C 83.34375 130.351562 81.019531 131.238281 78.640625 131.945312 C 74.710938 133.105469 70.632812 133.746094 66.535156 133.945312 Z M 110.003906 100.296875 C 109.976562 100.066406 109.945312 99.839844 109.910156 99.613281 L 109.652344 98.269531 L 109.292969 96.949219 L 108.949219 95.976562 L 108.839844 95.660156 C 108.660156 95.242188 108.480469 94.824219 108.292969 94.410156 L 107.648438 93.207031 L 106.917969 92.054688 C 106.640625 91.695312 106.382812 91.320312 106.078125 90.984375 C 105.742188 90.671875 105.386719 90.378906 104.957031 90.167969 C 105.097656 90.636719 105.304688 91.027344 105.535156 91.398438 C 105.742188 91.789062 105.992188 92.140625 106.230469 92.503906 L 106.863281 93.636719 L 107.410156 94.8125 C 107.5625 95.21875 107.722656 95.617188 107.882812 96.019531 L 108.273438 97.25 L 108.519531 98.261719 L 108.578125 98.507812 L 108.808594 99.777344 C 109.054688 101.472656 109.085938 103.203125 108.867188 104.898438 C 108.855469 104.9375 108.839844 104.976562 108.828125 105.015625 C 108.839844 104.597656 108.839844 104.179688 108.824219 103.761719 L 108.75 102.5625 L 108.589844 101.371094 L 108.359375 100.191406 C 108.316406 100.023438 108.269531 99.855469 108.226562 99.6875 C 108.167969 99.46875 108.113281 99.25 108.054688 99.03125 L 107.667969 97.898438 L 107.214844 96.789062 C 107.039062 96.433594 106.878906 96.066406 106.664062 95.726562 C 106.429688 95.402344 106.164062 95.089844 105.816406 94.839844 C 105.828125 95.28125 105.925781 95.660156 106.054688 96.023438 C 106.15625 96.398438 106.316406 96.746094 106.457031 97.097656 L 106.824219 98.183594 L 107.117188 99.289062 C 107.191406 99.660156 107.277344 100.03125 107.359375 100.402344 L 107.539062 101.527344 L 107.652344 102.660156 L 107.710938 103.796875 C 107.746094 105.308594 107.617188 106.832031 107.308594 108.3125 L 107.207031 108.738281 C 106.082031 110.882812 104.878906 112.507812 104.019531 113.535156 C 103.308594 114.382812 102.832031 114.828125 102.832031 114.828125 C 102.832031 114.828125 104.234375 109.789062 102.988281 106.632812 C 102.964844 106.683594 102.941406 106.738281 102.917969 106.792969 C 102.792969 108.292969 101.847656 115.238281 95.09375 117.230469 C 95.09375 117.226562 95.097656 117.226562 95.105469 117.222656 C 95.515625 116.941406 95.902344 116.589844 96.132812 116.148438 C 95.765625 116.472656 95.339844 116.6875 94.910156 116.867188 C 94.480469 117.046875 94.03125 117.175781 93.578125 117.273438 C 92.671875 117.46875 91.734375 117.546875 90.796875 117.527344 C 88.996094 117.492188 87.203125 117.128906 85.445312 116.65625 C 85.367188 116.632812 85.289062 116.613281 85.214844 116.59375 C 82.011719 115.667969 78.902344 114.386719 75.894531 112.902344 C 75.507812 112.46875 75.160156 112.003906 74.835938 111.523438 C 74.523438 111.03125 74.226562 110.53125 73.957031 110.007812 C 73.824219 109.75 73.695312 109.484375 73.574219 109.214844 C 73.460938 108.941406 73.367188 108.667969 72.929688 108.464844 C 72.78125 108.65625 72.734375 108.832031 72.71875 109 C 72.710938 109.167969 72.761719 109.320312 72.792969 109.476562 L 72.914062 109.9375 L 73.0625 110.394531 C 73.234375 110.871094 73.445312 111.335938 73.695312 111.777344 C 73.621094 111.738281 73.542969 111.699219 73.464844 111.65625 C 73.019531 111.238281 72.585938 110.808594 72.183594 110.363281 C 71.652344 109.761719 71.164062 109.136719 70.777344 108.453125 C 70.585938 108.109375 70.417969 107.757812 70.277344 107.390625 C 70.148438 107.011719 70.066406 106.65625 69.664062 106.269531 C 69.484375 106.492188 69.421875 106.726562 69.402344 106.953125 C 69.390625 107.183594 69.445312 107.398438 69.488281 107.617188 C 69.585938 108.054688 69.726562 108.480469 69.910156 108.886719 C 70.089844 109.296875 70.304688 109.683594 70.550781 110.054688 C 68.753906 109.03125 66.984375 107.960938 65.238281 106.855469 C 65.226562 106.835938 65.21875 106.816406 65.210938 106.796875 C 65.125 106.613281 65.039062 106.433594 64.9375 106.269531 C 64.839844 106.101562 64.742188 105.933594 64.632812 105.773438 C 64.523438 105.613281 64.429688 105.445312 64.324219 105.28125 C 63.933594 104.621094 63.613281 103.921875 63.371094 103.203125 C 63.136719 102.488281 62.972656 101.753906 62.886719 101 C 62.882812 100.988281 62.882812 100.980469 62.882812 100.96875 C 62.839844 100.585938 62.816406 100.203125 62.804688 99.8125 C 62.804688 99.730469 62.804688 99.652344 62.804688 99.574219 C 62.804688 99.261719 62.777344 98.949219 62.523438 98.585938 C 62.332031 98.734375 62.222656 98.90625 62.136719 99.082031 C 62.128906 99.105469 62.117188 99.125 62.105469 99.148438 C 62.03125 99.347656 62.019531 99.558594 61.984375 99.765625 C 61.957031 99.972656 61.945312 100.183594 61.925781 100.394531 C 61.914062 100.605469 61.914062 100.816406 61.910156 101.027344 C 61.921875 101.875 62.046875 102.730469 62.3125 103.542969 C 62.460938 104.035156 62.660156 104.511719 62.886719 104.972656 C 62.976562 105.15625 63.070312 105.339844 63.171875 105.519531 C 63.078125 105.457031 62.980469 105.398438 62.886719 105.332031 C 60.3125 103.644531 57.78125 101.882812 55.28125 100.078125 C 55.085938 98.914062 54.949219 97.71875 54.867188 96.53125 C 54.832031 96.0625 54.8125 95.589844 54.800781 95.117188 C 54.777344 94.328125 54.785156 93.539062 54.832031 92.757812 C 54.902344 91.703125 55.042969 90.65625 55.332031 89.671875 C 55.386719 89.492188 55.441406 89.3125 55.507812 89.136719 C 55.890625 88.070312 56.539062 87.117188 57.480469 86.707031 C 59.28125 87.179688 61.082031 87.644531 62.886719 88.101562 C 64.15625 88.425781 65.425781 88.75 66.699219 89.0625 C 69.839844 89.847656 72.988281 90.59375 76.152344 91.292969 C 77.734375 91.644531 79.316406 91.980469 80.914062 92.285156 C 81.710938 92.441406 82.511719 92.582031 83.316406 92.707031 C 83.554688 92.746094 83.796875 92.777344 84.035156 92.8125 C 84.117188 92.828125 84.203125 92.84375 84.285156 92.863281 C 84.320312 92.871094 84.355469 92.871094 84.390625 92.871094 C 84.40625 92.871094 84.421875 92.863281 84.4375 92.863281 C 84.878906 92.914062 85.328125 92.953125 85.789062 92.957031 C 87.351562 92.960938 88.925781 93.253906 90.46875 93.652344 C 92.019531 94.050781 93.542969 94.566406 95.0625 95.144531 C 94.378906 94.699219 93.65625 94.324219 92.917969 93.976562 C 92.179688 93.632812 91.421875 93.328125 90.644531 93.0625 C 89.128906 92.5625 87.539062 92.203125 85.898438 92.171875 C 85.863281 92.171875 85.828125 92.167969 85.792969 92.167969 C 85.457031 92.160156 85.109375 92.128906 84.765625 92.089844 L 84.726562 91.359375 L 86.414062 87.046875 L 85.34375 87.632812 C 85.363281 87.585938 85.382812 87.535156 85.40625 87.488281 C 85.824219 86.632812 86.445312 85.851562 87.152344 85.167969 C 87.328125 85.003906 87.511719 84.839844 87.695312 84.675781 C 88.269531 84.167969 88.875 83.679688 89.480469 83.164062 C 89.878906 82.824219 90.277344 82.472656 90.65625 82.097656 C 90.84375 81.90625 91.042969 81.726562 91.195312 81.5 C 91.34375 81.269531 91.460938 81.011719 91.492188 80.691406 C 90.867188 80.828125 90.507812 81.15625 90.113281 81.480469 C 90.039062 81.539062 89.960938 81.59375 89.886719 81.652344 C 89.558594 81.902344 89.21875 82.152344 88.878906 82.398438 C 88.472656 82.695312 88.054688 82.992188 87.644531 83.308594 C 89.867188 80.226562 92.753906 76.640625 94.78125 75.683594 C 94.78125 75.683594 86.351562 74.308594 84.066406 76.9375 L 84.007812 76.785156 C 84.003906 76.625 83.996094 76.464844 83.988281 76.304688 C 84.046875 76.226562 84.082031 76.144531 84.132812 76.0625 C 84.238281 75.882812 84.335938 75.703125 84.417969 75.519531 C 84.511719 75.335938 84.589844 75.148438 84.664062 74.960938 L 84.910156 74.40625 C 85.15625 73.886719 85.433594 73.382812 85.742188 72.890625 C 85.867188 72.695312 85.992188 72.503906 86.125 72.308594 C 86.59375 71.652344 87.097656 71.015625 87.652344 70.417969 L 88.078125 69.980469 L 88.519531 69.550781 C 88.679688 69.410156 88.84375 69.269531 88.984375 69.09375 C 89.035156 69.027344 89.082031 68.957031 89.125 68.878906 C 90.921875 68.164062 92.695312 68.003906 92.695312 68.003906 C 92.695312 68.003906 87.96875 65.808594 85.550781 65.660156 C 85.695312 65.417969 85.839844 65.179688 85.992188 64.941406 C 86.070312 64.816406 86.152344 64.691406 86.230469 64.570312 C 86.507812 64.128906 86.789062 63.691406 87.078125 63.257812 C 87.457031 62.703125 87.84375 62.160156 88.011719 61.425781 C 87.316406 61.722656 86.867188 62.242188 86.429688 62.761719 C 85.984375 63.28125 85.558594 63.816406 85.148438 64.367188 C 85.140625 64.382812 85.128906 64.398438 85.121094 64.414062 C 84.328125 65.511719 83.601562 66.667969 83.109375 68.019531 C 83.054688 68.199219 82.992188 68.371094 82.949219 68.558594 L 82.894531 68.855469 L 82.863281 69.125 C 82.824219 69.484375 82.804688 69.832031 82.792969 70.175781 C 82.769531 70.867188 82.769531 71.546875 82.777344 72.226562 C 82.789062 73.585938 82.828125 74.941406 82.878906 76.292969 C 82.902344 76.871094 82.925781 77.449219 82.953125 78.03125 L 82.953125 85.484375 L 78.136719 90.101562 C 78.003906 90.195312 77.871094 90.292969 77.75 90.40625 C 77.667969 90.484375 77.589844 90.574219 77.519531 90.667969 C 77.132812 90.578125 76.742188 90.492188 76.355469 90.402344 C 73.210938 89.664062 70.082031 88.871094 66.949219 88.074219 C 66.8125 88.039062 66.675781 88.003906 66.535156 87.96875 L 66.535156 75.101562 C 68.476562 74.136719 70.121094 72.609375 71.21875 70.667969 C 75.386719 63.28125 83.917969 51.367188 94.898438 52.992188 C 103.78125 54.308594 107.460938 60.292969 108.984375 65.273438 C 108.949219 65.207031 108.914062 65.140625 108.875 65.074219 C 108.378906 64.199219 107.8125 63.363281 107.183594 62.578125 C 106.554688 61.792969 105.882812 61.042969 105.148438 60.359375 C 104.414062 59.675781 103.628906 59.046875 102.8125 58.472656 C 102 57.894531 101.132812 57.363281 100.085938 57.230469 C 100.765625 58.023438 101.558594 58.546875 102.324219 59.132812 C 103.085938 59.722656 103.800781 60.363281 104.46875 61.054688 C 105.136719 61.742188 105.769531 62.460938 106.34375 63.226562 C 106.914062 63.996094 107.4375 64.796875 107.910156 65.625 C 108.84375 67.289062 109.550781 69.085938 109.996094 70.941406 C 110.003906 70.96875 110.007812 70.996094 110.015625 71.023438 C 110.066406 71.878906 110.046875 72.386719 110.046875 72.386719 C 110.046875 72.386719 106.542969 65.535156 103.347656 64.542969 C 103.347656 64.542969 106.683594 70.082031 108.6875 76.246094 L 108.488281 75.828125 C 108.273438 75.4375 108.058594 75.046875 107.839844 74.660156 L 107.117188 73.535156 L 106.328125 72.460938 C 106.042969 72.117188 105.769531 71.765625 105.453125 71.453125 C 105.117188 71.15625 104.753906 70.886719 104.324219 70.691406 C 104.472656 71.148438 104.691406 71.527344 104.929688 71.886719 C 105.152344 72.261719 105.417969 72.597656 105.667969 72.945312 L 106.363281 74.019531 L 106.996094 75.136719 C 107.183594 75.523438 107.375 75.902344 107.570312 76.28125 L 108.082031 77.453125 L 108.53125 78.652344 L 108.921875 79.867188 C 109.398438 81.503906 109.699219 83.1875 109.804688 84.886719 L 109.835938 85.796875 C 108.941406 85.421875 105.371094 84.085938 101.183594 84.875 C 101.183594 84.875 107.191406 87.492188 109.417969 93.246094 C 110.070312 94.925781 110.398438 96.867188 110.164062 99.089844 C 110.121094 99.5 110.0625 99.902344 110.003906 100.296875 Z M 98.292969 38.949219 C 98.292969 38.949219 98.296875 38.949219 98.296875 38.949219 C 98.851562 39.226562 99.394531 39.5 99.925781 39.773438 C 100.519531 40.082031 101.09375 40.386719 101.65625 40.6875 C 102.082031 40.914062 102.5 41.144531 102.910156 41.367188 C 109.046875 44.761719 112.828125 47.554688 112.828125 47.554688 C 112.828125 47.554688 112.828125 55.84375 112.167969 66.878906 C 111.890625 65.476562 111.472656 63.917969 110.847656 62.328125 C 108.039062 55.175781 102.53125 50.789062 94.917969 49.644531 C 94.085938 49.519531 93.242188 49.457031 92.410156 49.457031 C 90.101562 49.457031 87.917969 49.921875 85.855469 50.734375 C 85.957031 50.65625 86.058594 50.574219 86.160156 50.496094 L 86.914062 49.914062 C 87.199219 48.820312 87.171875 47.667969 86.839844 46.589844 C 85.367188 41.824219 83.777344 36.625 82.597656 32.65625 C 88.40625 34.414062 93.757812 36.699219 98.292969 38.949219 Z M 115.019531 44.589844 C 114.230469 44.007812 99.832031 33.488281 81.375 28.457031 C 81.132812 27.585938 80.953125 26.921875 80.859375 26.523438 C 80.714844 25.878906 80.371094 25.113281 79.886719 24.277344 C 76.996094 19.273438 68.816406 11.578125 63.617188 10.136719 C 63.378906 10.070312 63.132812 10.035156 62.886719 10.035156 C 62.640625 10.035156 62.394531 10.070312 62.152344 10.136719 C 56.957031 11.578125 48.777344 19.273438 45.882812 24.277344 C 45.398438 25.113281 45.058594 25.878906 44.910156 26.523438 C 44.816406 26.921875 44.640625 27.585938 44.394531 28.457031 C 25.9375 33.492188 11.539062 44.007812 10.753906 44.589844 C 9.8125 45.285156 9.257812 46.386719 9.257812 47.554688 C 9.257812 48.996094 9.316406 73.398438 12.792969 94.285156 C 12.808594 96.601562 12.855469 98.46875 12.957031 99.441406 C 13.5 104.648438 15.320312 108.875 17.117188 111.90625 C 17.761719 113.664062 18.457031 115.285156 19.210938 116.734375 C 29.457031 136.375 60.863281 142.578125 62.195312 142.835938 C 62.421875 142.878906 62.65625 142.898438 62.886719 142.898438 C 63.117188 142.898438 63.347656 142.878906 63.578125 142.835938 C 64.910156 142.578125 96.3125 136.375 106.558594 116.734375 C 107.320312 115.277344 108.019531 113.640625 108.671875 111.867188 C 110.460938 108.839844 112.273438 104.628906 112.8125 99.441406 C 112.914062 98.46875 112.964844 96.601562 112.976562 94.285156 C 116.457031 73.398438 116.511719 48.996094 116.511719 47.554688 C 116.511719 46.386719 115.960938 45.285156 115.019531 44.589844 " fill-opacity="1" fill-rule="nonzero"/></g></svg>