<svg xmlns="http://www.w3.org/2000/svg" xmlns:xlink="http://www.w3.org/1999/xlink" width="130" zoomAndPan="magnify" viewBox="0 0 97.5 131.999998" height="176" preserveAspectRatio="xMidYMid meet" version="1.0"><defs><clipPath id="fa3f404a5f"><path d="M 8 24.0625 L 89 24.0625 L 89 107.632812 L 8 107.632812 Z M 8 24.0625 " clip-rule="nonzero"/></clipPath></defs><g clip-path="url(#fa3f404a5f)"><path fill="#c49306" d="M 87.023438 64.925781 C 87.171875 66.421875 87.214844 67.898438 87.152344 69.203125 C 86.738281 78.523438 82.066406 86.214844 74.90625 92.054688 L 70.707031 95.480469 L 70.917969 90.570312 C 69.171875 91.941406 67.183594 93.109375 65.226562 94.089844 C 64.730469 95.890625 63.746094 97.789062 62.773438 99.171875 C 59.515625 103.808594 54.453125 106.378906 48.984375 107.527344 L 48.488281 107.632812 L 47.992188 107.527344 C 42.523438 106.378906 37.457031 103.808594 34.199219 99.171875 C 33.226562 97.789062 32.242188 95.890625 31.746094 94.089844 C 29.789062 93.109375 27.8125 91.941406 26.058594 90.570312 L 26.269531 95.480469 L 22.070312 92.054688 C 14.921875 86.214844 10.246094 78.523438 9.824219 69.203125 C 9.769531 67.898438 9.800781 66.421875 9.949219 64.925781 L 8.828125 65.9375 L 9.179688 60.023438 C 9.589844 53.015625 12.222656 46.640625 17.492188 41.894531 C 19.121094 40.429688 21.382812 38.851562 23.582031 37.828125 C 23.742188 35.222656 24.449219 32.304688 25.886719 30.34375 C 27.632812 27.941406 30.773438 27.289062 33.609375 27.707031 C 35.054688 26.136719 36.886719 24.988281 39.074219 24.632812 C 39.921875 24.496094 40.925781 24.472656 41.847656 24.640625 C 44.140625 24.0625 46.414062 24.453125 48.488281 25.484375 C 50.558594 24.453125 52.84375 24.0625 55.128906 24.640625 C 56.046875 24.472656 57.054688 24.496094 57.910156 24.632812 C 60.089844 24.988281 61.917969 26.136719 63.378906 27.707031 C 66.210938 27.289062 69.34375 27.941406 71.097656 30.34375 C 72.523438 32.304688 73.242188 35.222656 73.390625 37.828125 C 75.59375 38.851562 77.855469 40.429688 79.484375 41.894531 C 84.75 46.640625 87.394531 53.015625 87.804688 60.023438 L 88.15625 65.9375 Z M 87.023438 64.925781 " fill-opacity="1" fill-rule="evenodd"/></g><path fill="#070202" d="M 48.488281 28.277344 C 50.148438 27.191406 52.496094 26.253906 55.066406 27.148438 C 55.066406 27.148438 59.09375 25.746094 62.4375 30.40625 C 62.4375 30.40625 67.066406 28.953125 69.128906 31.765625 C 71.183594 34.582031 70.980469 39.480469 70.980469 39.480469 C 70.980469 39.480469 84.410156 43.792969 85.375 60.171875 C 85.375 60.171875 83.96875 58.90625 83.078125 58.496094 C 83.078125 58.496094 90.640625 76.078125 73.371094 90.179688 C 73.371094 90.179688 73.53125 86.375 72.882812 84.824219 C 72.882812 84.824219 71.4375 88.492188 63.09375 92.433594 C 63.09375 92.433594 61.8125 102.363281 48.488281 105.15625 C 35.160156 102.363281 33.882812 92.433594 33.882812 92.433594 C 25.539062 88.492188 24.089844 84.824219 24.089844 84.824219 C 23.445312 86.375 23.613281 90.179688 23.613281 90.179688 C 6.332031 76.078125 13.894531 58.496094 13.894531 58.496094 C 13.015625 58.90625 11.601562 60.171875 11.601562 60.171875 C 12.574219 43.792969 25.992188 39.480469 25.992188 39.480469 C 25.992188 39.480469 25.792969 34.582031 27.855469 31.765625 C 29.90625 28.953125 34.539062 30.40625 34.539062 30.40625 C 37.878906 25.746094 41.910156 27.148438 41.910156 27.148438 C 44.480469 26.253906 46.828125 27.191406 48.488281 28.277344 Z M 48.488281 28.277344 " fill-opacity="1" fill-rule="evenodd"/><path fill="#fefefe" d="M 56.089844 52.414062 C 56.089844 52.414062 58.035156 52.183594 59.929688 50.445312 C 59.929688 50.445312 60.246094 51.53125 59.285156 52.414062 C 58.324219 53.300781 56.417969 53.015625 56.089844 52.414062 Z M 56.089844 52.414062 " fill-opacity="1" fill-rule="evenodd"/><path fill="#d19f0f" d="M 59 85.066406 C 59 85.066406 59.738281 88.273438 58.207031 91.886719 C 58.207031 91.886719 58.976562 91.960938 60.511719 90.402344 C 60.511719 90.402344 59.570312 97.988281 48.488281 100.636719 C 37.40625 97.988281 36.464844 90.402344 36.464844 90.402344 C 38.007812 91.960938 38.769531 91.886719 38.769531 91.886719 C 37.234375 88.273438 37.976562 85.066406 37.976562 85.066406 C 38.714844 88.832031 38.714844 90.96875 41.804688 93.574219 C 41.296875 92.128906 41.222656 90.539062 41.222656 90.539062 C 42.226562 94.121094 45.9375 95.386719 45.9375 95.386719 C 44.902344 95.503906 43.1875 95.207031 43.1875 95.207031 C 44.945312 96.398438 46.785156 97.074219 48.488281 97.429688 C 50.191406 97.074219 52.039062 96.398438 53.785156 95.207031 C 53.785156 95.207031 52.070312 95.503906 51.035156 95.386719 C 51.035156 95.386719 54.75 94.121094 55.753906 90.539062 C 55.753906 90.539062 55.679688 92.128906 55.171875 93.574219 C 58.257812 90.96875 58.257812 88.832031 59 85.066406 Z M 59 85.066406 " fill-opacity="1" fill-rule="evenodd"/><path fill="#fad39b" d="M 60.214844 38.175781 C 62.976562 34.707031 65.503906 33.769531 67.363281 38.871094 C 70.421875 29.121094 55.148438 33.242188 60.214844 38.175781 Z M 29.609375 38.871094 C 31.480469 33.769531 34 34.707031 36.757812 38.175781 C 42.746094 33.546875 26.417969 28.679688 29.609375 38.871094 Z M 48.488281 42.421875 C 48.488281 42.421875 48.074219 42.273438 47.472656 41.769531 C 46.042969 41 43.03125 39.820312 37.816406 39.652344 C 37.59375 39.640625 37.371094 39.640625 37.160156 39.628906 C 36.167969 39.683594 34.273438 40.105469 33.246094 42.421875 C 33.246094 42.421875 37.5625 42.707031 38.917969 44.339844 C 38.917969 44.339844 33.386719 43.351562 31.640625 45.40625 C 29.894531 47.472656 30 49.285156 30 49.285156 C 30 49.285156 30.679688 50.917969 32.78125 51.308594 C 32.78125 51.308594 34.464844 48.925781 35.890625 48.894531 C 37.308594 48.851562 38.027344 50.78125 39.742188 51.308594 C 41.453125 51.84375 44.449219 51.308594 44.449219 51.308594 C 44.449219 51.308594 44.234375 52.761719 42.269531 53.449219 C 40.3125 54.121094 39.773438 56.746094 39.773438 56.746094 C 39.773438 56.746094 39.308594 54.4375 39.921875 53.660156 C 39.921875 53.660156 37.382812 53.796875 35.996094 52.835938 C 34.601562 51.878906 32.996094 51.738281 31.640625 53.730469 C 30.289062 55.714844 30.179688 58.03125 31.851562 59.277344 C 33.535156 60.519531 36.960938 62.46875 36.960938 62.46875 C 36.960938 62.46875 35.5625 61.121094 35.5 59.84375 C 35.5 59.84375 37.140625 60.023438 37.667969 61.660156 C 38.207031 63.292969 37.140625 64.039062 36.601562 64.851562 C 36.0625 65.675781 35.5 71.269531 39.59375 73.285156 C 43.695312 75.285156 42.183594 72.273438 44.679688 71.164062 C 47.175781 70.058594 47.175781 67.75 46.320312 65.832031 C 45.460938 63.914062 42.894531 62.648438 42.3125 61.269531 C 41.71875 59.875 43.074219 60.394531 44.269531 61.089844 C 45.316406 61.691406 44.882812 62.132812 48.488281 62.566406 C 52.105469 62.132812 51.660156 61.691406 52.707031 61.089844 C 53.902344 60.394531 55.253906 59.875 54.664062 61.269531 C 54.082031 62.648438 51.511719 63.914062 50.65625 65.832031 C 49.800781 67.75 49.800781 70.058594 52.292969 71.164062 C 54.789062 72.273438 53.277344 75.285156 57.382812 73.285156 C 61.484375 71.269531 60.914062 65.675781 60.375 64.851562 C 59.84375 64.039062 58.765625 63.292969 59.304688 61.660156 C 59.84375 60.023438 61.484375 59.84375 61.484375 59.84375 C 61.410156 61.121094 60.015625 62.46875 60.015625 62.46875 C 60.015625 62.46875 63.441406 60.519531 65.121094 59.277344 C 66.792969 58.03125 66.6875 55.714844 65.335938 53.730469 C 63.980469 51.738281 62.371094 51.878906 60.976562 52.835938 C 59.589844 53.796875 57.054688 53.660156 57.054688 53.660156 C 57.667969 54.4375 57.203125 56.746094 57.203125 56.746094 C 57.203125 56.746094 56.660156 54.121094 54.707031 53.449219 C 52.738281 52.761719 52.527344 51.308594 52.527344 51.308594 C 52.527344 51.308594 55.519531 51.84375 57.234375 51.308594 C 58.945312 50.78125 59.664062 48.851562 61.09375 48.894531 C 62.519531 48.925781 64.191406 51.308594 64.191406 51.308594 C 66.296875 50.917969 66.972656 49.285156 66.972656 49.285156 C 66.972656 49.285156 67.078125 47.472656 65.335938 45.40625 C 63.589844 43.351562 58.058594 44.339844 58.058594 44.339844 C 59.410156 42.707031 63.726562 42.421875 63.726562 42.421875 C 62.710938 40.105469 60.808594 39.683594 59.8125 39.628906 C 59.601562 39.640625 59.378906 39.640625 59.167969 39.652344 C 53.945312 39.820312 50.929688 41 49.511719 41.769531 C 48.898438 42.273438 48.488281 42.421875 48.488281 42.421875 Z M 48.488281 42.421875 " fill-opacity="1" fill-rule="evenodd"/><path fill="#fad39b" d="M 48.488281 79.691406 C 47.589844 79.628906 46.308594 79.765625 45.527344 80.839844 C 44.214844 82.632812 42.945312 83.972656 41.054688 83.023438 C 41.054688 83.023438 41.347656 87.808594 44.269531 89.273438 C 44.269531 89.273438 43.539062 87.300781 43.726562 85.890625 C 43.726562 85.890625 43.582031 88.523438 48.488281 90.179688 C 53.394531 88.523438 53.246094 85.890625 53.246094 85.890625 C 53.445312 87.300781 52.707031 89.273438 52.707031 89.273438 C 55.636719 87.808594 55.921875 83.023438 55.921875 83.023438 C 54.027344 83.972656 52.757812 82.632812 51.449219 80.839844 C 50.664062 79.765625 49.386719 79.628906 48.488281 79.691406 Z M 48.488281 79.691406 " fill-opacity="1" fill-rule="evenodd"/><path fill="#fefefe" d="M 40.882812 52.414062 C 40.882812 52.414062 38.9375 52.183594 37.046875 50.445312 C 37.046875 50.445312 36.726562 51.53125 37.691406 52.414062 C 38.652344 53.300781 40.566406 53.015625 40.882812 52.414062 Z M 40.882812 52.414062 " fill-opacity="1" fill-rule="evenodd"/><path fill="#d19f0f" d="M 35.5 59.84375 C 35.5 59.84375 37.140625 60.023438 37.667969 61.660156 C 38.207031 63.292969 37.140625 64.039062 36.601562 64.851562 C 36.0625 65.675781 35.5 71.269531 39.59375 73.285156 C 43.695312 75.285156 42.183594 72.273438 44.679688 71.164062 C 47.175781 70.058594 47.175781 67.75 46.320312 65.832031 C 46.203125 65.578125 46.066406 65.335938 45.894531 65.09375 C 45.894531 65.09375 46.964844 66.875 43.792969 69.109375 C 40.621094 71.355469 38.261719 68.46875 37.585938 66.335938 C 36.898438 64.207031 39.550781 64.242188 39.296875 60.6875 C 39.054688 57.125 35.808594 57.0625 35.808594 57.0625 C 36.347656 57.453125 36.527344 58.757812 36.527344 58.757812 C 36.050781 58.222656 34.558594 57.980469 32.964844 57.441406 C 31.355469 56.90625 31.324219 54.25 31.324219 54.25 C 30.285156 56.105469 30.320312 58.136719 31.851562 59.277344 C 33.535156 60.519531 36.960938 62.46875 36.960938 62.46875 C 36.960938 62.46875 35.5625 61.121094 35.5 59.84375 Z M 35.5 59.84375 " fill-opacity="1" fill-rule="evenodd"/><path fill="#d19f0f" d="M 30 49.285156 C 30 49.285156 30.679688 50.917969 32.78125 51.308594 C 32.78125 51.308594 34.464844 48.925781 35.890625 48.894531 C 37.308594 48.851562 38.027344 50.78125 39.742188 51.308594 C 41.453125 51.84375 44.449219 51.308594 44.449219 51.308594 C 44.449219 51.308594 44.449219 51.316406 44.449219 51.339844 C 45.09375 50.339844 45.15625 49.285156 45.15625 49.285156 C 41.824219 50.738281 39.519531 48.980469 36.347656 46.914062 C 33.175781 44.855469 30 49.285156 30 49.285156 Z M 30 49.285156 " fill-opacity="1" fill-rule="evenodd"/><path fill="#d19f0f" d="M 61.484375 59.84375 C 61.484375 59.84375 59.84375 60.023438 59.304688 61.660156 C 58.765625 63.292969 59.84375 64.039062 60.375 64.851562 C 60.914062 65.675781 61.484375 71.269531 57.382812 73.285156 C 53.277344 75.285156 54.789062 72.273438 52.292969 71.164062 C 49.800781 70.058594 49.800781 67.75 50.65625 65.832031 C 50.773438 65.578125 50.910156 65.335938 51.078125 65.09375 C 51.078125 65.09375 50.011719 66.875 53.183594 69.109375 C 56.355469 71.355469 58.714844 68.46875 59.402344 66.335938 C 60.078125 64.207031 57.421875 64.242188 57.675781 60.6875 C 57.929688 57.125 61.179688 57.0625 61.179688 57.0625 C 60.628906 57.453125 60.449219 58.757812 60.449219 58.757812 C 60.925781 58.222656 62.414062 57.980469 64.023438 57.441406 C 65.621094 56.90625 65.652344 54.25 65.652344 54.25 C 66.699219 56.105469 66.65625 58.136719 65.121094 59.277344 C 63.441406 60.519531 60.015625 62.46875 60.015625 62.46875 C 60.015625 62.46875 61.410156 61.121094 61.484375 59.84375 Z M 61.484375 59.84375 " fill-opacity="1" fill-rule="evenodd"/><path fill="#d19f0f" d="M 66.972656 49.285156 C 66.972656 49.285156 66.296875 50.917969 64.191406 51.308594 C 64.191406 51.308594 62.519531 48.925781 61.09375 48.894531 C 59.664062 48.851562 58.945312 50.78125 57.234375 51.308594 C 55.519531 51.84375 52.527344 51.308594 52.527344 51.308594 C 52.527344 51.308594 52.527344 51.316406 52.539062 51.339844 C 51.882812 50.339844 51.820312 49.285156 51.820312 49.285156 C 55.148438 50.738281 57.453125 48.980469 60.628906 46.914062 C 63.800781 44.855469 66.972656 49.285156 66.972656 49.285156 Z M 66.972656 49.285156 " fill-opacity="1" fill-rule="evenodd"/><path fill="#d19f0f" d="M 46.976562 84.929688 C 46.078125 87.628906 48.488281 90.179688 48.488281 90.179688 C 53.394531 88.523438 53.246094 85.890625 53.246094 85.890625 C 53.445312 87.300781 52.707031 89.273438 52.707031 89.273438 C 55.011719 88.113281 55.6875 84.898438 55.867188 83.59375 C 55.542969 85.078125 54.050781 86.113281 54.050781 86.113281 C 53.945312 84.644531 52.652344 83.78125 52.652344 83.78125 C 52.9375 84.855469 51.609375 86.574219 51.679688 84.929688 C 51.746094 83.277344 50.050781 82.167969 48.921875 82.652344 C 47.777344 83.128906 48.488281 86.574219 48.488281 86.574219 C 47.695312 86.300781 46.976562 84.929688 46.976562 84.929688 Z M 46.976562 84.929688 " fill-opacity="1" fill-rule="evenodd"/><path fill="#fefefe" d="M 43.042969 74.589844 C 43.042969 74.589844 43.230469 75.699219 44.035156 76.539062 C 44.035156 76.539062 44.628906 75.65625 44.921875 74.757812 C 45.230469 73.875 45.398438 74.273438 45.644531 74.117188 C 45.886719 73.957031 48.488281 74.117188 48.488281 74.117188 C 48.488281 74.117188 51.089844 73.957031 51.332031 74.117188 C 51.574219 74.273438 51.753906 73.875 52.050781 74.757812 C 52.359375 75.65625 52.949219 76.539062 52.949219 76.539062 C 53.742188 75.699219 53.933594 74.589844 53.933594 74.589844 C 52.855469 73.464844 52.738281 72.703125 52.453125 72.410156 C 52.179688 72.125 51.046875 71.957031 50.125 72 C 48.316406 72.09375 48.65625 72.09375 46.859375 72 C 45.9375 71.957031 44.796875 72.125 44.523438 72.410156 C 44.234375 72.703125 44.121094 73.464844 43.042969 74.589844 Z M 43.042969 74.589844 " fill-opacity="1" fill-rule="evenodd"/><path fill="#fefefe" d="M 43.347656 80.957031 C 43.347656 80.957031 42.660156 79.933594 43.347656 77.730469 C 43.347656 77.730469 44.054688 78.289062 44.269531 78.785156 C 44.46875 79.292969 45.429688 78.796875 45.683594 78.394531 C 45.9375 77.984375 47.9375 77.933594 48.488281 77.972656 C 49.039062 77.933594 51.046875 77.984375 51.289062 78.394531 C 51.542969 78.796875 52.503906 79.292969 52.71875 78.785156 C 52.917969 78.289062 53.628906 77.730469 53.628906 77.730469 C 54.3125 79.933594 53.628906 80.957031 53.628906 80.957031 C 53.195312 81.230469 52.367188 80.515625 51.894531 79.996094 C 50.824219 78.847656 50.253906 78.816406 48.488281 78.808594 C 46.722656 78.816406 46.148438 78.847656 45.09375 79.996094 C 44.605469 80.515625 43.78125 81.230469 43.347656 80.957031 Z M 43.347656 80.957031 " fill-opacity="1" fill-rule="evenodd"/><path fill="#d19f0f" d="M 48.488281 31.628906 C 48.488281 31.628906 50.539062 28.910156 53.066406 28.859375 C 53.066406 28.859375 51.40625 30.355469 51.089844 31.765625 C 51.089844 31.765625 52.359375 29.808594 54.125 29.175781 C 55.890625 28.542969 58.945312 29.816406 59.984375 31.621094 C 59.984375 31.621094 53.882812 32.316406 52.398438 36.773438 C 52.398438 36.773438 52.390625 33.601562 54.230469 31.578125 C 54.230469 31.578125 52.1875 31.199219 51.152344 35.117188 C 50.105469 39.039062 49.207031 39.058594 48.488281 39.058594 C 47.769531 39.058594 46.871094 39.039062 45.832031 35.117188 C 44.785156 31.199219 42.746094 31.578125 42.746094 31.578125 C 44.585938 33.601562 44.574219 36.773438 44.574219 36.773438 C 43.105469 32.316406 36.992188 31.621094 36.992188 31.621094 C 38.027344 29.816406 41.085938 28.542969 42.851562 29.175781 C 44.628906 29.808594 45.886719 31.765625 45.886719 31.765625 C 45.578125 30.355469 43.917969 28.859375 43.917969 28.859375 C 46.4375 28.910156 48.488281 31.628906 48.488281 31.628906 Z M 48.488281 31.628906 " fill-opacity="1" fill-rule="evenodd"/><path fill="#c49306" d="M 71.519531 43.71875 C 71.519531 43.71875 78.234375 45.511719 81.058594 56.378906 C 81.058594 56.378906 79.515625 54.777344 77.082031 53.574219 C 77.082031 53.574219 82.328125 58.769531 81.058594 68.414062 C 79.78125 78.046875 74.96875 83.601562 74.96875 83.601562 C 74.96875 83.601562 75.507812 75.359375 73.507812 70.945312 C 73.507812 70.945312 73 81.242188 62.203125 88.628906 C 62.203125 88.628906 67.460938 76.539062 65.832031 68.414062 C 65.832031 68.414062 68.65625 71.472656 68.738281 74.558594 C 68.738281 74.558594 70.84375 67.117188 69.5625 61.171875 C 69.5625 61.171875 74.734375 63.851562 76.101562 67.402344 C 76.101562 67.402344 77.78125 58.242188 71.246094 49.925781 C 71.246094 49.925781 74.609375 50.117188 76.46875 51.246094 C 75.792969 48.230469 73.792969 45.542969 71.519531 43.71875 Z M 71.519531 43.71875 " fill-opacity="1" fill-rule="evenodd"/><path fill="#c49306" d="M 25.464844 43.71875 C 25.464844 43.71875 18.738281 45.511719 15.925781 56.378906 C 15.925781 56.378906 17.46875 54.777344 19.890625 53.574219 C 19.890625 53.574219 14.644531 58.769531 15.925781 68.414062 C 17.195312 78.046875 22.007812 83.601562 22.007812 83.601562 C 22.007812 83.601562 21.46875 75.359375 23.464844 70.945312 C 23.464844 70.945312 23.972656 81.242188 34.769531 88.628906 C 34.769531 88.628906 29.515625 76.539062 31.144531 68.414062 C 31.144531 68.414062 28.320312 71.472656 28.234375 74.558594 C 28.234375 74.558594 26.132812 67.117188 27.421875 61.171875 C 27.421875 61.171875 22.238281 63.851562 20.875 67.402344 C 20.875 67.402344 19.195312 58.242188 25.738281 49.925781 C 25.738281 49.925781 22.375 50.117188 20.515625 51.246094 C 21.183594 48.230469 23.179688 45.542969 25.464844 43.71875 Z M 25.464844 43.71875 " fill-opacity="1" fill-rule="evenodd"/><path fill="#d6d4d1" d="M 45.515625 74.160156 C 45.21875 73.894531 45.316406 72.820312 45.082031 72.832031 C 44.847656 72.839844 44.511719 73.273438 44.554688 74.074219 C 44.585938 74.875 44.035156 76.539062 44.035156 76.539062 C 44.035156 76.539062 44.628906 75.65625 44.921875 74.757812 C 45.167969 74.03125 45.335938 74.167969 45.515625 74.160156 Z M 45.515625 74.160156 " fill-opacity="1" fill-rule="evenodd"/><path fill="#d6d4d1" d="M 51.457031 74.160156 C 51.753906 73.894531 51.660156 72.820312 51.894531 72.832031 C 52.125 72.839844 52.464844 73.273438 52.433594 74.074219 C 52.390625 74.875 52.949219 76.539062 52.949219 76.539062 C 52.949219 76.539062 52.359375 75.65625 52.050781 74.757812 C 51.808594 74.03125 51.648438 74.167969 51.457031 74.160156 Z M 51.457031 74.160156 " fill-opacity="1" fill-rule="evenodd"/><path fill="#013333" d="M 37.667969 50.570312 C 37.667969 50.570312 37.660156 51.738281 38.609375 52.160156 C 39.5625 52.574219 40.429688 51.8125 40.429688 51.8125 C 40.429688 51.8125 39.699219 51.867188 37.667969 50.570312 Z M 37.667969 50.570312 " fill-opacity="1" fill-rule="evenodd"/><path fill="#013333" d="M 59.230469 50.570312 C 59.230469 50.570312 59.242188 51.738281 58.289062 52.160156 C 57.328125 52.574219 56.472656 51.8125 56.472656 51.8125 C 56.472656 51.8125 57.203125 51.867188 59.230469 50.570312 Z M 59.230469 50.570312 " fill-opacity="1" fill-rule="evenodd"/><path fill="#d19f0f" d="M 33.246094 42.421875 C 33.246094 42.421875 37.5625 42.707031 38.917969 44.339844 C 38.917969 44.339844 40.703125 45.417969 42.046875 45.574219 C 42.046875 45.574219 41.804688 42.675781 39.042969 41.726562 C 36.292969 40.769531 34.835938 40.378906 33.820312 41.410156 C 33.609375 41.707031 33.417969 42.03125 33.246094 42.421875 Z M 33.246094 42.421875 " fill-opacity="1" fill-rule="evenodd"/><path fill="#d19f0f" d="M 63.726562 42.421875 C 63.726562 42.421875 59.410156 42.707031 58.058594 44.339844 C 58.058594 44.339844 56.269531 45.417969 54.929688 45.574219 C 54.929688 45.574219 55.171875 42.675781 57.929688 41.726562 C 60.691406 40.769531 62.140625 40.378906 63.15625 41.410156 C 63.367188 41.707031 63.558594 42.03125 63.726562 42.421875 Z M 63.726562 42.421875 " fill-opacity="1" fill-rule="evenodd"/><path fill="#916916" d="M 68.738281 74.558594 C 68.65625 71.472656 65.832031 68.414062 65.832031 68.414062 C 67.460938 76.539062 62.203125 88.628906 62.203125 88.628906 C 62.203125 88.628906 67.226562 80.25 67.5 76.121094 C 67.5 76.121094 68.507812 77.550781 68.410156 79.28125 C 68.410156 79.28125 73.816406 70.121094 69.5625 61.171875 C 70.84375 67.117188 68.738281 74.558594 68.738281 74.558594 Z M 68.738281 74.558594 " fill-opacity="1" fill-rule="evenodd"/><path fill="#916916" d="M 77.65625 71.386719 C 77.65625 71.386719 81.917969 58.929688 71.246094 49.925781 C 77.78125 58.242188 76.101562 67.402344 76.101562 67.402344 C 76.101562 67.402344 77.464844 69.171875 77.65625 71.386719 Z M 77.65625 71.386719 " fill-opacity="1" fill-rule="evenodd"/><path fill="#916916" d="M 28.234375 74.558594 C 28.320312 71.472656 31.144531 68.414062 31.144531 68.414062 C 29.515625 76.539062 34.769531 88.628906 34.769531 88.628906 C 34.769531 88.628906 29.746094 80.25 29.472656 76.121094 C 29.472656 76.121094 28.46875 77.550781 28.5625 79.28125 C 28.5625 79.28125 23.171875 70.121094 27.421875 61.171875 C 26.132812 67.117188 28.234375 74.558594 28.234375 74.558594 Z M 28.234375 74.558594 " fill-opacity="1" fill-rule="evenodd"/><path fill="#916916" d="M 19.332031 71.386719 C 19.332031 71.386719 15.058594 58.929688 25.738281 49.925781 C 19.195312 58.242188 20.875 67.402344 20.875 67.402344 C 20.875 67.402344 19.511719 69.171875 19.332031 71.386719 Z M 19.332031 71.386719 " fill-opacity="1" fill-rule="evenodd"/><path fill="#d19f0f" d="M 37.816406 37.003906 C 37.308594 36.066406 36.050781 34.371094 33.554688 34.210938 C 30.085938 34 29.609375 38.871094 29.609375 38.871094 C 31.480469 33.769531 34 34.707031 36.757812 38.175781 C 37.265625 37.785156 37.605469 37.394531 37.816406 37.003906 Z M 37.816406 37.003906 " fill-opacity="1" fill-rule="evenodd"/><path fill="#d19f0f" d="M 59.285156 36.785156 C 59.792969 35.835938 60.925781 34.371094 63.417969 34.210938 C 66.898438 34 67.363281 38.871094 67.363281 38.871094 C 65.503906 33.769531 62.976562 34.707031 60.214844 38.175781 C 59.71875 37.785156 59.445312 37.246094 59.285156 36.785156 Z M 59.285156 36.785156 " fill-opacity="1" fill-rule="evenodd"/></svg>