<svg xmlns="http://www.w3.org/2000/svg" xmlns:xlink="http://www.w3.org/1999/xlink" width="130" zoomAndPan="magnify" viewBox="0 0 97.5 131.999998" height="176" preserveAspectRatio="xMidYMid meet" version="1.0"><defs><clipPath id="b08f68b2a2"><path d="M 0.304688 14.050781 L 97.003906 14.050781 L 97.003906 131.664062 L 0.304688 131.664062 Z M 0.304688 14.050781 " clip-rule="nonzero"/></clipPath><clipPath id="ad58c46aac"><path d="M 14 56 L 94 56 L 94 131.664062 L 14 131.664062 Z M 14 56 " clip-rule="nonzero"/></clipPath><clipPath id="90948e7272"><path d="M 2 46 L 97.003906 46 L 97.003906 131.664062 L 2 131.664062 Z M 2 46 " clip-rule="nonzero"/></clipPath></defs><g clip-path="url(#b08f68b2a2)"><path fill="#321614" d="M 4.695312 78.152344 C 7.503906 71.496094 11.527344 65.515625 16.652344 60.382812 C 21.777344 55.25 27.742188 51.21875 34.386719 48.402344 C 39.992188 46.03125 45.875 44.609375 51.929688 44.160156 C 52.875 37.148438 54.25 32.59375 56.113281 30.285156 C 60.683594 24.621094 70.378906 18.878906 70.789062 18.636719 L 78.570312 14.050781 L 74.289062 22.011719 C 74.261719 22.0625 73.304688 23.855469 72.085938 26.519531 C 77.941406 23.722656 84.929688 21.960938 85.296875 21.867188 L 94.054688 19.683594 L 87.699219 26.101562 C 87.59375 26.207031 77.230469 36.734375 74.40625 44.691406 C 74.140625 45.445312 73.898438 46.160156 73.679688 46.835938 C 75.078125 47.304688 76.464844 47.824219 77.835938 48.402344 C 84.480469 51.21875 90.449219 55.25 95.570312 60.382812 C 100.695312 65.515625 104.71875 71.496094 107.527344 78.152344 C 110.441406 85.046875 111.917969 92.371094 111.917969 99.917969 C 111.917969 107.460938 110.441406 114.785156 107.527344 121.679688 C 104.71875 128.339844 100.695312 134.316406 95.570312 139.449219 C 90.449219 144.582031 84.480469 148.613281 77.835938 151.429688 C 70.953125 154.347656 63.644531 155.824219 56.109375 155.824219 C 48.582031 155.824219 41.273438 154.347656 34.386719 151.429688 C 27.742188 148.613281 21.777344 144.582031 16.652344 139.449219 C 11.527344 134.316406 7.503906 128.339844 4.695312 121.679688 C 1.78125 114.785156 0.308594 107.460938 0.308594 99.917969 C 0.308594 92.371094 1.78125 85.046875 4.695312 78.152344 " fill-opacity="1" fill-rule="nonzero"/></g><path fill="#afb0a8" d="M 55.546875 48.339844 C 55.625 48.347656 55.699219 48.351562 55.773438 48.355469 C 55.972656 48.367188 56.171875 48.371094 56.367188 48.367188 C 56.578125 48.359375 56.785156 48.347656 56.988281 48.320312 C 56.894531 48.574219 56.800781 48.824219 56.707031 49.070312 C 56.652344 49.222656 56.597656 49.371094 56.542969 49.519531 C 56.515625 49.515625 56.484375 49.515625 56.457031 49.511719 C 56.304688 49.492188 56.160156 49.46875 56.015625 49.441406 C 55.824219 49.402344 55.640625 49.363281 55.460938 49.308594 C 55.371094 49.285156 55.285156 49.261719 55.203125 49.230469 C 55.066406 49.1875 54.9375 49.132812 54.808594 49.078125 C 54.550781 48.972656 54.296875 48.859375 54.058594 48.71875 L 53.953125 48.65625 C 53.972656 48.441406 53.996094 48.226562 54.015625 48.007812 C 54.515625 48.175781 55.03125 48.289062 55.546875 48.339844 Z M 33.773438 106.433594 C 33.699219 106.5 33.613281 106.570312 33.527344 106.636719 C 33.242188 106.84375 33.066406 106.890625 32.984375 106.898438 C 32.9375 106.902344 32.886719 106.90625 32.835938 106.90625 C 32.542969 106.90625 32.226562 106.828125 31.992188 106.75 L 32.15625 105.085938 Z M 36.570312 103.75 L 35.53125 104.699219 C 35.410156 104.589844 35.304688 104.445312 35.230469 104.320312 C 35.003906 103.941406 34.84375 103.457031 34.734375 103.023438 C 35.15625 103.230469 35.585938 103.414062 36.023438 103.570312 C 36.21875 103.640625 36.402344 103.699219 36.570312 103.75 Z M 38.898438 100.507812 C 38.984375 100.507812 39.074219 100.503906 39.160156 100.503906 L 39.371094 100.503906 C 39.476562 100.503906 39.582031 100.503906 39.683594 100.507812 L 38.617188 101.546875 L 38.621094 100.527344 C 38.703125 100.519531 38.792969 100.515625 38.898438 100.507812 Z M 27.386719 78.636719 C 27.242188 78.773438 27.101562 78.902344 26.980469 79.023438 L 26.5 78.136719 L 27.785156 78.28125 C 27.65625 78.390625 27.527344 78.507812 27.386719 78.636719 Z M 16.191406 78.277344 C 16.632812 77.917969 17.179688 77.710938 17.746094 77.683594 C 17.53125 78.648438 17.816406 79.867188 18.101562 80.734375 C 16.722656 80.144531 16.304688 78.890625 16.179688 78.285156 Z M 29.773438 105.882812 L 29.652344 106.238281 C 29.515625 106.234375 29.335938 106.21875 29.140625 106.171875 C 28.9375 106.121094 28.75 106.046875 28.589844 105.945312 C 28.574219 105.9375 28.5 105.882812 28.386719 105.714844 C 28.21875 105.46875 28.0625 105.113281 27.925781 104.746094 C 28.375 105.054688 28.875 105.382812 29.328125 105.644531 C 29.488281 105.738281 29.636719 105.816406 29.773438 105.882812 Z M 23.011719 78.332031 C 22.996094 79.125 23.210938 80.003906 23.429688 80.683594 C 22.128906 80.003906 21.441406 78.515625 21.125 77.574219 C 21.113281 77.546875 21.105469 77.519531 21.097656 77.492188 L 23.089844 77.679688 C 23.042969 77.882812 23.015625 78.097656 23.011719 78.332031 Z M 33.089844 79.371094 C 32.738281 79.839844 32.417969 80.164062 32.167969 80.382812 L 31.660156 78.6875 L 33.464844 78.835938 C 33.339844 79.027344 33.214844 79.203125 33.089844 79.371094 Z M 42.128906 97.3125 C 42.191406 97.308594 42.253906 97.304688 42.316406 97.300781 L 42.394531 97.296875 C 42.542969 97.289062 42.691406 97.28125 42.839844 97.277344 C 42.609375 97.527344 42.476562 97.671875 42.410156 97.753906 L 42.367188 97.796875 C 42.324219 97.84375 42.285156 97.886719 42.277344 97.898438 C 42.230469 97.953125 42.042969 98.148438 41.828125 98.363281 L 41.832031 97.34375 C 41.914062 97.332031 42.015625 97.320312 42.128906 97.3125 Z M 45.304688 94.121094 L 45.335938 94.117188 C 45.421875 94.105469 45.511719 94.09375 45.601562 94.085938 L 45.636719 94.082031 C 45.757812 94.070312 45.878906 94.058594 46 94.050781 C 45.960938 94.09375 45.742188 94.363281 45.742188 94.363281 C 45.683594 94.4375 45.628906 94.503906 45.589844 94.554688 C 45.578125 94.570312 45.484375 94.671875 45.46875 94.695312 C 45.382812 94.804688 45.21875 94.984375 45.035156 95.175781 L 45.039062 94.15625 C 45.121094 94.144531 45.210938 94.132812 45.304688 94.121094 Z M 42.511719 66.820312 C 42.46875 66.820312 42.429688 66.820312 42.390625 66.816406 C 42.722656 66.6875 43.101562 66.582031 43.476562 66.496094 C 43.183594 66.710938 42.859375 66.820312 42.511719 66.820312 Z M 37.023438 78.972656 C 37.699219 79.03125 38.351562 79.117188 38.78125 79.183594 C 38.742188 79.398438 38.679688 79.617188 38.59375 79.832031 C 38.429688 80.238281 38.214844 80.585938 38.019531 80.851562 Z M 43.058594 81.554688 C 42.859375 81.175781 42.574219 80.648438 42.3125 80.148438 C 42.207031 79.949219 42.117188 79.78125 42.042969 79.640625 C 42.804688 79.757812 43.628906 80.066406 44.101562 80.257812 C 44.019531 80.4375 43.925781 80.605469 43.820312 80.761719 C 43.570312 81.136719 43.285156 81.390625 43.058594 81.554688 Z M 54.199219 53.183594 C 54.199219 53.183594 54.148438 53.171875 54.148438 53.171875 C 54.171875 52.835938 54.195312 52.492188 54.222656 52.140625 C 54.257812 51.660156 54.296875 51.164062 54.339844 50.660156 C 54.523438 50.707031 54.710938 50.742188 54.894531 50.769531 C 54.925781 50.773438 54.957031 50.777344 54.988281 50.78125 C 55.046875 50.597656 55.105469 50.410156 55.164062 50.230469 C 55.355469 50.25 55.550781 50.261719 55.746094 50.261719 C 55.925781 50.261719 56.105469 50.253906 56.28125 50.234375 C 56.046875 50.886719 55.828125 51.492188 55.636719 52.042969 C 55.351562 52.859375 55.117188 53.550781 54.9375 54.082031 C 54.835938 54.019531 54.726562 53.960938 54.613281 53.914062 C 54.445312 53.839844 54.265625 53.777344 54.074219 53.734375 C 54.128906 53.554688 54.1875 53.375 54.242188 53.195312 C 54.226562 53.191406 54.210938 53.183594 54.199219 53.183594 Z M 48.730469 90.441406 C 48.925781 90.410156 49.128906 90.378906 49.324219 90.351562 C 49.320312 90.359375 49.320312 90.371094 49.316406 90.382812 C 49.175781 90.589844 49.058594 90.75 48.96875 90.867188 C 48.796875 91.089844 48.621094 91.304688 48.433594 91.511719 L 48.4375 90.496094 C 48.527344 90.476562 48.625 90.460938 48.730469 90.441406 Z M 60.332031 54.765625 C 61.085938 55.011719 61.863281 55.167969 62.644531 55.234375 C 62.90625 55.253906 63.167969 55.265625 63.421875 55.265625 C 63.863281 55.265625 64.296875 55.234375 64.710938 55.171875 L 64.789062 55.164062 C 64.855469 55.152344 64.921875 55.144531 64.988281 55.132812 C 65.09375 55.113281 65.1875 55.066406 65.269531 55.003906 C 65.328125 54.714844 65.390625 54.421875 65.453125 54.121094 C 65.347656 53.933594 65.152344 53.804688 64.933594 53.78125 C 64.871094 53.773438 64.808594 53.765625 64.75 53.757812 L 64.644531 53.746094 C 64.007812 53.667969 63.453125 53.5625 62.945312 53.429688 C 62.3125 53.261719 61.691406 53.042969 61.097656 52.773438 C 60.496094 52.503906 59.929688 52.1875 59.421875 51.835938 L 59.078125 51.589844 C 59.347656 50.84375 59.621094 50.097656 59.894531 49.371094 C 60.046875 48.96875 60.203125 48.558594 60.367188 48.140625 C 60.441406 47.949219 60.511719 47.761719 60.589844 47.570312 C 61.40625 48.113281 62.351562 48.488281 63.347656 48.664062 C 63.597656 48.710938 63.855469 48.742188 64.117188 48.765625 C 64.375 48.785156 64.648438 48.796875 64.921875 48.796875 C 65.101562 48.796875 65.277344 48.792969 65.453125 48.785156 C 65.773438 48.769531 66.097656 48.742188 66.421875 48.703125 C 66.5 48.691406 66.574219 48.679688 66.648438 48.667969 L 66.730469 48.65625 C 66.78125 48.460938 66.828125 48.261719 66.882812 48.058594 C 67.089844 48.027344 67.292969 47.984375 67.5 47.941406 C 67.652344 47.914062 67.804688 47.890625 67.957031 47.855469 C 68.347656 47.769531 68.734375 47.679688 69.121094 47.578125 C 69.183594 47.558594 69.21875 47.496094 69.203125 47.433594 C 69.1875 47.382812 69.140625 47.347656 69.085938 47.347656 C 68.601562 47.367188 68.121094 47.390625 67.640625 47.410156 C 67.441406 47.417969 67.242188 47.429688 67.046875 47.433594 C 67.097656 47.242188 67.152344 47.050781 67.203125 46.859375 C 67.148438 46.863281 67.089844 46.863281 67.035156 46.867188 C 66.949219 46.867188 66.867188 46.867188 66.785156 46.867188 L 66.3125 46.871094 C 66.1875 46.871094 66.0625 46.867188 65.9375 46.859375 L 65.859375 46.859375 C 65.730469 46.851562 65.597656 46.84375 65.464844 46.835938 C 65.035156 46.804688 64.644531 46.753906 64.273438 46.683594 C 64.113281 46.652344 63.953125 46.621094 63.800781 46.578125 C 63.734375 46.5625 63.671875 46.539062 63.609375 46.519531 L 63.5 46.480469 C 62.832031 46.265625 62.226562 45.945312 61.746094 45.550781 C 61.660156 45.480469 61.574219 45.40625 61.488281 45.324219 C 61.605469 45.039062 61.726562 44.757812 61.84375 44.46875 C 62.816406 42.164062 63.769531 40.109375 64.679688 38.355469 L 64.792969 38.457031 L 64.824219 38.480469 C 65.183594 38.773438 65.578125 39.050781 65.992188 39.300781 C 66.34375 39.515625 66.679688 39.695312 67.011719 39.847656 C 67.058594 39.867188 67.101562 39.886719 67.148438 39.902344 L 67.214844 39.933594 C 67.828125 40.199219 68.464844 40.402344 69.117188 40.542969 C 69.175781 40.367188 69.246094 40.191406 69.328125 40.007812 C 69.414062 40.027344 69.503906 40.046875 69.589844 40.0625 C 69.695312 40.082031 69.800781 40.089844 69.902344 40.105469 C 70.605469 40.199219 71.316406 40.21875 72.007812 40.125 C 72.070312 40.117188 72.117188 40.058594 72.105469 39.992188 C 72.101562 39.941406 72.058594 39.902344 72.007812 39.894531 C 71.390625 39.8125 70.789062 39.691406 70.210938 39.519531 C 70.058594 39.476562 69.910156 39.433594 69.761719 39.382812 C 69.726562 39.367188 69.691406 39.355469 69.660156 39.34375 C 69.75 39.179688 69.847656 39.011719 69.949219 38.847656 C 69.945312 38.84375 69.945312 38.84375 69.941406 38.84375 L 69.84375 38.808594 C 69.199219 38.582031 68.578125 38.292969 67.996094 37.953125 L 67.96875 37.9375 C 67.617188 37.726562 67.265625 37.484375 66.925781 37.21875 C 66.6875 37.035156 66.484375 36.863281 66.316406 36.710938 L 65.929688 36.335938 L 65.839844 36.238281 C 66.109375 35.777344 66.378906 35.34375 66.640625 34.9375 C 67.460938 33.667969 68.246094 32.675781 68.96875 32 C 69.109375 31.867188 69.25 31.746094 69.394531 31.632812 L 69.863281 31.769531 L 69.902344 31.78125 C 70.546875 31.976562 71.191406 32.222656 71.820312 32.515625 C 72.460938 32.816406 73.089844 33.167969 73.691406 33.558594 C 73.847656 33.660156 74.003906 33.769531 74.160156 33.878906 C 74.296875 33.746094 74.433594 33.609375 74.574219 33.476562 C 74.730469 33.585938 74.882812 33.703125 75.035156 33.820312 C 75.292969 34.019531 75.550781 34.222656 75.804688 34.433594 C 75.855469 34.472656 75.929688 34.46875 75.96875 34.417969 C 76.003906 34.378906 76.003906 34.320312 75.976562 34.277344 C 75.789062 34.007812 75.582031 33.753906 75.367188 33.503906 C 75.246094 33.363281 75.121094 33.21875 74.988281 33.082031 C 75.128906 32.953125 75.269531 32.828125 75.40625 32.699219 C 75.402344 32.695312 75.402344 32.691406 75.398438 32.691406 C 75.1875 32.46875 74.992188 32.277344 74.804688 32.105469 C 74.199219 31.554688 73.53125 31.058594 72.820312 30.632812 C 72.507812 30.445312 72.183594 30.269531 71.847656 30.105469 C 73.242188 29.351562 74.898438 28.597656 76.78125 27.859375 C 77.003906 28.035156 77.199219 28.210938 77.382812 28.390625 C 77.71875 28.71875 78.046875 29.085938 78.328125 29.410156 C 78.425781 29.523438 78.527344 29.640625 78.625 29.753906 L 78.695312 29.832031 C 78.839844 29.714844 78.984375 29.589844 79.128906 29.46875 C 79.253906 29.613281 79.378906 29.753906 79.507812 29.894531 C 79.582031 29.980469 79.660156 30.0625 79.738281 30.144531 C 79.785156 30.191406 79.859375 30.195312 79.90625 30.148438 C 79.941406 30.113281 79.949219 30.066406 79.933594 30.023438 C 79.890625 29.902344 79.839844 29.78125 79.792969 29.660156 C 79.714844 29.480469 79.640625 29.300781 79.558594 29.121094 C 79.710938 28.996094 79.859375 28.878906 80.011719 28.757812 C 79.957031 28.636719 79.898438 28.511719 79.835938 28.386719 C 79.574219 27.867188 79.304688 27.421875 79.015625 27.027344 C 79.707031 26.78125 80.421875 26.539062 81.148438 26.300781 C 81.253906 26.390625 81.355469 26.484375 81.453125 26.585938 L 81.476562 26.609375 C 81.582031 26.707031 81.679688 26.820312 81.796875 26.957031 C 81.859375 27.027344 81.921875 27.105469 82 27.191406 C 82.003906 27.191406 82.003906 27.191406 82.003906 27.191406 C 82.160156 27.074219 82.316406 26.953125 82.46875 26.835938 C 82.507812 26.851562 82.554688 26.84375 82.589844 26.816406 C 82.617188 26.792969 82.628906 26.757812 82.628906 26.722656 C 82.628906 26.722656 82.628906 26.71875 82.628906 26.714844 C 82.8125 26.578125 82.988281 26.445312 83.160156 26.316406 C 83.128906 26.113281 83.085938 25.914062 83.019531 25.71875 C 83.410156 25.601562 83.769531 25.496094 84.097656 25.402344 C 83.90625 25.609375 83.695312 25.835938 83.476562 26.078125 C 84.941406 24.988281 85.90625 24.320312 85.90625 24.320312 C 85.90625 24.320312 85.09375 25.140625 83.855469 26.503906 C 83.394531 27.007812 82.878906 27.589844 82.320312 28.230469 C 81.976562 28.625 81.617188 29.046875 81.246094 29.484375 C 80.695312 30.144531 80.117188 30.847656 79.53125 31.585938 C 79.136719 32.078125 78.742188 32.582031 78.351562 33.101562 C 77.761719 33.878906 77.171875 34.683594 76.601562 35.503906 C 76.21875 36.054688 75.847656 36.609375 75.484375 37.167969 C 74.402344 38.839844 73.429688 40.550781 72.6875 42.207031 C 72.453125 42.734375 72.242188 43.257812 72.058594 43.769531 L 72.042969 43.773438 L 71.503906 43.824219 C 70.78125 43.878906 70.050781 43.863281 69.324219 43.785156 C 69.117188 43.761719 68.910156 43.730469 68.699219 43.695312 C 68.515625 43.664062 68.328125 43.628906 68.140625 43.589844 C 68.195312 43.410156 68.253906 43.226562 68.3125 43.046875 C 68.292969 43.042969 68.277344 43.039062 68.257812 43.035156 C 67.933594 42.964844 67.617188 42.886719 67.320312 42.796875 C 67.238281 42.773438 67.15625 42.746094 67.070312 42.71875 L 67.007812 42.695312 C 66.613281 42.566406 66.21875 42.414062 65.835938 42.246094 C 65.660156 42.167969 65.488281 42.085938 65.316406 42.003906 C 65.222656 41.957031 65.121094 41.933594 65.015625 41.933594 C 64.753906 41.933594 64.519531 42.078125 64.402344 42.3125 C 64.269531 42.589844 64.335938 42.921875 64.5625 43.128906 C 64.753906 43.296875 64.96875 43.46875 65.238281 43.660156 C 65.636719 43.945312 66.070312 44.207031 66.535156 44.441406 L 66.574219 44.464844 C 66.601562 44.476562 66.628906 44.492188 66.660156 44.507812 C 66.984375 44.664062 67.328125 44.804688 67.707031 44.941406 C 67.71875 44.945312 67.726562 44.949219 67.738281 44.953125 C 67.789062 44.773438 67.84375 44.589844 67.894531 44.410156 C 68.074219 44.472656 68.253906 44.527344 68.433594 44.582031 C 68.675781 44.652344 68.914062 44.71875 69.160156 44.773438 C 69.941406 44.941406 70.75 45.019531 71.554688 45.011719 L 71.628906 45.003906 C 71.5 45.378906 71.378906 45.742188 71.265625 46.09375 C 71.183594 46.34375 71.105469 46.589844 71.027344 46.835938 C 70.980469 46.992188 70.933594 47.144531 70.886719 47.296875 C 70.757812 47.71875 70.636719 48.121094 70.527344 48.511719 C 70.5 48.601562 70.472656 48.691406 70.449219 48.78125 C 70.355469 49.113281 70.269531 49.429688 70.1875 49.738281 C 70.171875 49.804688 70.152344 49.875 70.136719 49.941406 C 70.042969 50.296875 69.960938 50.636719 69.882812 50.960938 C 69.882812 50.96875 69.878906 50.980469 69.875 50.992188 C 69.835938 51.160156 69.800781 51.320312 69.765625 51.476562 C 69.664062 51.929688 69.578125 52.339844 69.503906 52.722656 C 69.355469 52.796875 69.203125 52.871094 69.058594 52.953125 C 68.796875 53.089844 68.542969 53.25 68.289062 53.40625 C 68.222656 53.457031 68.152344 53.503906 68.082031 53.550781 C 67.902344 53.671875 67.726562 53.800781 67.554688 53.945312 C 67.503906 53.988281 67.5 54.066406 67.542969 54.117188 C 67.566406 54.148438 67.601562 54.160156 67.636719 54.160156 C 67.949219 54.152344 68.246094 54.109375 68.542969 54.066406 C 68.796875 54.019531 69.050781 53.972656 69.300781 53.914062 C 69.28125 54.058594 69.257812 54.195312 69.242188 54.324219 C 69.179688 54.800781 69.144531 55.171875 69.125 55.445312 C 69.117188 55.609375 69.109375 55.734375 69.105469 55.828125 C 69.105469 55.902344 69.105469 55.960938 69.105469 55.992188 C 69.105469 56.023438 69.105469 56.035156 69.105469 56.035156 C 69.105469 56.035156 69.097656 56.046875 69.089844 56.058594 C 69.089844 56.0625 69.085938 56.0625 69.085938 56.0625 C 69.074219 56.078125 69.054688 56.105469 69.035156 56.132812 C 69.03125 56.136719 69.027344 56.140625 69.023438 56.144531 C 69 56.175781 68.96875 56.210938 68.9375 56.253906 C 68.933594 56.257812 68.929688 56.261719 68.921875 56.269531 C 68.886719 56.3125 68.84375 56.363281 68.796875 56.417969 C 68.796875 56.417969 68.796875 56.421875 68.792969 56.421875 C 68.746094 56.476562 68.691406 56.539062 68.628906 56.601562 C 68.628906 56.605469 68.625 56.605469 68.625 56.609375 C 68.566406 56.671875 68.5 56.738281 68.429688 56.808594 C 68.421875 56.816406 68.417969 56.824219 68.40625 56.832031 C 68.339844 56.898438 68.265625 56.96875 68.1875 57.042969 C 68.179688 57.050781 68.167969 57.058594 68.160156 57.070312 C 68.078125 57.144531 67.996094 57.21875 67.902344 57.296875 C 67.898438 57.300781 67.890625 57.304688 67.886719 57.3125 C 67.699219 57.46875 67.488281 57.632812 67.257812 57.792969 C 67.25 57.796875 67.242188 57.804688 67.234375 57.8125 C 67.121094 57.886719 67.007812 57.964844 66.886719 58.035156 C 66.875 58.046875 66.859375 58.054688 66.847656 58.0625 C 66.847656 58.0625 66.84375 58.0625 66.84375 58.0625 C 66.804688 58.085938 66.765625 58.109375 66.726562 58.128906 C 66.640625 58.179688 66.558594 58.230469 66.46875 58.277344 C 66.460938 58.285156 66.445312 58.289062 66.433594 58.296875 C 66.164062 58.441406 65.871094 58.570312 65.558594 58.683594 C 65.554688 58.6875 65.546875 58.691406 65.539062 58.691406 C 65.40625 58.742188 65.261719 58.785156 65.117188 58.828125 C 65.105469 58.832031 65.089844 58.835938 65.078125 58.839844 C 65.058594 58.84375 65.042969 58.847656 65.023438 58.855469 C 64.921875 58.882812 64.8125 58.90625 64.707031 58.929688 C 64.652344 58.941406 64.597656 58.953125 64.542969 58.964844 C 64.535156 58.96875 64.527344 58.96875 64.519531 58.972656 C 64.519531 58.972656 64.519531 58.972656 64.519531 58.96875 C 64.550781 58.773438 64.589844 58.570312 64.625 58.367188 L 64.585938 58.375 C 64.585938 58.375 64.460938 58.402344 64.445312 58.40625 L 64.386719 58.417969 C 64.035156 58.480469 63.699219 58.511719 63.355469 58.511719 C 63.222656 58.511719 63.089844 58.507812 62.957031 58.496094 L 62.914062 58.492188 C 61.652344 58.398438 60.347656 57.898438 59.042969 57 C 58.566406 56.675781 58.082031 56.292969 57.605469 55.863281 C 57.730469 55.476562 57.964844 54.773438 58.28125 53.851562 C 58.9375 54.230469 59.625 54.539062 60.332031 54.765625 Z M 29.195312 101.554688 C 29.886719 101.921875 30.515625 102.210938 30.988281 102.417969 C 30.664062 102.644531 30.398438 102.757812 30.195312 102.757812 C 30.09375 102.757812 29.796875 102.753906 29.410156 101.996094 C 29.335938 101.851562 29.261719 101.703125 29.195312 101.554688 Z M 63.808594 99.039062 C 63.816406 99.019531 63.828125 98.996094 63.839844 98.976562 C 63.882812 98.878906 63.925781 98.785156 63.976562 98.695312 C 63.992188 98.664062 64.011719 98.632812 64.027344 98.601562 C 64.074219 98.519531 64.125 98.441406 64.171875 98.363281 C 64.191406 98.332031 64.210938 98.304688 64.230469 98.277344 C 64.367188 98.070312 64.519531 97.878906 64.679688 97.703125 C 64.695312 97.6875 64.710938 97.675781 64.722656 97.660156 C 64.796875 97.582031 64.867188 97.511719 64.945312 97.441406 C 64.957031 97.425781 64.96875 97.414062 64.984375 97.402344 C 65.257812 97.152344 65.550781 96.933594 65.851562 96.746094 L 66.21875 97.1875 C 67.261719 96.5625 68.402344 96.3125 69.007812 96.222656 L 71.078125 102.964844 L 70.90625 102.859375 L 71.804688 103.945312 L 72.066406 104.261719 L 71.78125 104.082031 L 69.460938 102.617188 L 63.808594 99.042969 C 63.808594 99.039062 63.808594 99.039062 63.808594 99.039062 Z M 76.550781 94.429688 C 76.617188 94.277344 76.691406 94.136719 76.765625 93.996094 C 76.78125 93.976562 76.792969 93.953125 76.804688 93.929688 C 76.882812 93.792969 76.96875 93.664062 77.058594 93.542969 C 77.066406 93.53125 77.078125 93.515625 77.085938 93.5 C 77.28125 93.238281 77.496094 93.003906 77.722656 92.792969 L 78.132812 93.191406 C 79.332031 92.101562 80.976562 91.730469 81.75 91.609375 L 83.816406 98.359375 L 82.8125 97.722656 L 84.808594 99.652344 L 76.808594 94.59375 Z M 85.917969 85.929688 C 85.925781 85.820312 85.933594 85.710938 85.949219 85.605469 C 85.953125 85.574219 85.957031 85.542969 85.960938 85.511719 C 85.976562 85.410156 85.992188 85.3125 86.015625 85.214844 C 86.019531 85.195312 86.023438 85.175781 86.027344 85.15625 C 86.050781 85.039062 86.082031 84.921875 86.117188 84.804688 C 86.121094 84.792969 86.125 84.78125 86.128906 84.769531 C 86.144531 84.71875 86.160156 84.667969 86.175781 84.617188 C 86.195312 84.566406 86.207031 84.515625 86.226562 84.46875 C 86.234375 84.445312 86.242188 84.425781 86.25 84.402344 C 86.289062 84.296875 86.332031 84.1875 86.375 84.085938 L 86.929688 84.238281 C 87.035156 84.003906 87.15625 83.769531 87.296875 83.535156 C 87.515625 83.179688 87.765625 82.828125 88.050781 82.496094 C 88.257812 82.25 88.453125 82.050781 88.601562 81.902344 L 94.203125 86.183594 L 94.054688 86.191406 L 95.761719 86.660156 L 90.886719 86.945312 L 89.59375 87.019531 L 88.308594 87.09375 L 86.628906 87.191406 L 86.011719 87.226562 C 85.984375 87.097656 85.964844 86.96875 85.945312 86.839844 C 85.941406 86.800781 85.9375 86.765625 85.933594 86.730469 C 85.925781 86.632812 85.917969 86.535156 85.914062 86.4375 C 85.910156 86.40625 85.910156 86.375 85.910156 86.339844 C 85.90625 86.21875 85.90625 86.09375 85.914062 85.972656 C 85.914062 85.957031 85.917969 85.945312 85.917969 85.929688 Z M 42.3125 91.554688 L 42.316406 90.128906 L 42.320312 88.699219 C 42.53125 88.640625 42.800781 88.589844 43.082031 88.539062 C 43.363281 88.492188 43.660156 88.449219 43.933594 88.414062 C 43.9375 88.414062 43.945312 88.414062 43.949219 88.414062 C 44.335938 88.363281 44.605469 88.792969 44.390625 89.121094 C 44.210938 89.394531 44.015625 89.679688 43.863281 89.875 C 43.476562 90.371094 43.054688 90.839844 42.597656 91.277344 Z M 56.085938 47.433594 C 56.148438 47.25 56.207031 47.070312 56.269531 46.890625 C 56.25 46.886719 56.226562 46.882812 56.203125 46.878906 L 56.082031 46.851562 C 56.007812 46.835938 55.933594 46.820312 55.863281 46.804688 C 55.472656 46.703125 55.101562 46.574219 54.757812 46.429688 C 54.800781 46.078125 54.84375 45.726562 54.886719 45.375 C 54.941406 44.953125 54.996094 44.53125 55.054688 44.113281 C 55.160156 43.378906 55.269531 42.667969 55.378906 41.992188 C 55.523438 42.039062 55.664062 42.082031 55.804688 42.117188 C 56.351562 42.253906 56.90625 42.328125 57.480469 42.335938 C 57.613281 42.335938 57.753906 42.332031 57.894531 42.324219 C 57.964844 42.128906 58.039062 41.929688 58.109375 41.738281 C 58.328125 41.71875 58.542969 41.679688 58.753906 41.628906 C 58.820312 41.617188 58.890625 41.601562 58.957031 41.585938 C 59.019531 41.566406 59.058594 41.5 59.039062 41.4375 C 59.027344 41.394531 58.988281 41.363281 58.941406 41.355469 C 58.917969 41.351562 58.890625 41.34375 58.863281 41.339844 C 58.671875 41.3125 58.480469 41.28125 58.292969 41.246094 C 58.363281 41.0625 58.429688 40.882812 58.5 40.703125 C 58.464844 40.699219 58.433594 40.695312 58.402344 40.6875 C 58.136719 40.636719 57.914062 40.585938 57.703125 40.527344 C 57.292969 40.414062 56.882812 40.269531 56.492188 40.097656 C 56.257812 39.992188 56.023438 39.878906 55.792969 39.75 C 56.046875 38.523438 56.316406 37.414062 56.605469 36.441406 C 56.867188 36.574219 57.132812 36.683594 57.398438 36.78125 C 57.996094 36.992188 58.613281 37.128906 59.238281 37.179688 C 59.421875 37.195312 59.609375 37.203125 59.789062 37.203125 C 59.816406 37.203125 59.84375 37.199219 59.871094 37.199219 C 59.953125 37.003906 60.03125 36.8125 60.105469 36.628906 C 60.324219 36.617188 60.539062 36.585938 60.75 36.550781 C 60.828125 36.535156 60.902344 36.527344 60.976562 36.511719 C 61.039062 36.496094 61.078125 36.433594 61.0625 36.367188 C 61.050781 36.320312 61.011719 36.285156 60.964844 36.28125 C 60.933594 36.273438 60.902344 36.269531 60.871094 36.261719 C 60.679688 36.230469 60.488281 36.199219 60.300781 36.15625 C 60.378906 35.972656 60.453125 35.796875 60.527344 35.625 C 60.488281 35.617188 60.453125 35.609375 60.417969 35.601562 C 60.101562 35.539062 59.832031 35.46875 59.582031 35.386719 C 59.125 35.238281 58.679688 35.050781 58.257812 34.828125 C 57.941406 34.660156 57.640625 34.472656 57.367188 34.273438 C 57.730469 33.410156 58.117188 32.722656 58.515625 32.230469 C 59.011719 31.613281 59.613281 30.957031 60.308594 30.273438 C 60.597656 30.523438 60.878906 30.738281 61.160156 30.921875 C 61.621094 31.222656 62.101562 31.449219 62.570312 31.605469 C 62.6875 31.449219 62.8125 31.289062 62.945312 31.128906 C 62.949219 31.128906 62.953125 31.132812 62.957031 31.132812 C 63.160156 31.1875 63.367188 31.226562 63.574219 31.253906 C 63.90625 31.296875 64.242188 31.300781 64.566406 31.242188 C 64.632812 31.230469 64.671875 31.167969 64.664062 31.105469 C 64.652344 31.058594 64.617188 31.023438 64.570312 31.011719 C 64.355469 30.960938 64.148438 30.894531 63.945312 30.820312 C 63.757812 30.75 63.578125 30.671875 63.40625 30.578125 C 63.53125 30.433594 63.660156 30.285156 63.792969 30.136719 C 63.75 30.117188 63.707031 30.097656 63.667969 30.078125 L 63.605469 30.046875 C 63.570312 30.027344 63.539062 30.011719 63.5 29.988281 C 63.144531 29.789062 62.792969 29.535156 62.453125 29.226562 C 62.292969 29.082031 62.132812 28.921875 61.960938 28.742188 C 62.898438 27.921875 63.949219 27.070312 65.09375 26.207031 C 65.167969 26.253906 65.246094 26.304688 65.324219 26.355469 C 65.589844 26.53125 65.859375 26.730469 66.125 26.941406 C 66.273438 27.0625 66.421875 27.1875 66.578125 27.324219 C 66.71875 27.191406 66.855469 27.058594 66.996094 26.933594 C 67.097656 27.019531 67.199219 27.109375 67.296875 27.203125 C 67.335938 27.238281 67.375 27.277344 67.414062 27.316406 C 67.640625 27.527344 67.859375 27.75 68.09375 27.980469 C 68.136719 28.027344 68.214844 28.027344 68.261719 27.980469 C 68.289062 27.949219 68.300781 27.902344 68.292969 27.867188 C 68.203125 27.519531 68.0625 27.1875 67.902344 26.871094 C 67.886719 26.839844 67.871094 26.808594 67.851562 26.773438 C 67.777344 26.636719 67.691406 26.503906 67.609375 26.367188 C 67.753906 26.238281 67.894531 26.109375 68.035156 25.984375 C 67.890625 25.769531 67.761719 25.589844 67.632812 25.433594 C 67.449219 25.207031 67.25 24.992188 67.035156 24.785156 C 68.417969 23.808594 69.6875 22.972656 70.640625 22.363281 C 70.464844 22.71875 70.269531 23.121094 70.058594 23.558594 C 69.921875 23.839844 69.78125 24.136719 69.628906 24.46875 L 69.53125 24.675781 C 70.164062 24.132812 70.566406 23.804688 70.566406 23.804688 C 70.433594 24.082031 70.292969 24.378906 70.148438 24.6875 C 70.144531 24.695312 70.144531 24.699219 70.140625 24.707031 C 70.09375 24.8125 70.042969 24.921875 69.992188 25.027344 C 69.894531 25.238281 69.796875 25.449219 69.695312 25.671875 C 69.691406 25.679688 69.6875 25.6875 69.6875 25.691406 C 69.613281 25.851562 69.542969 26.007812 69.46875 26.171875 C 69.460938 26.1875 69.457031 26.203125 69.449219 26.214844 C 69.371094 26.390625 69.292969 26.5625 69.214844 26.738281 C 69.140625 26.90625 69.066406 27.078125 68.992188 27.25 C 68.980469 27.28125 68.964844 27.3125 68.953125 27.339844 C 68.800781 27.691406 68.648438 28.046875 68.492188 28.414062 C 68.480469 28.449219 68.464844 28.484375 68.449219 28.519531 C 68.269531 28.636719 68.097656 28.75 67.925781 28.867188 C 65.125 30.800781 62.105469 35.75 58.695312 43.996094 C 58.6875 44.019531 58.675781 44.042969 58.667969 44.066406 C 58.492188 44.484375 58.324219 44.902344 58.160156 45.3125 C 57.988281 45.734375 57.824219 46.148438 57.664062 46.558594 C 57.527344 46.914062 57.390625 47.265625 57.257812 47.609375 C 57.214844 47.605469 57.167969 47.605469 57.125 47.601562 C 56.964844 47.585938 56.804688 47.5625 56.648438 47.535156 C 56.457031 47.507812 56.273438 47.472656 56.085938 47.433594 Z M 39.199219 94.933594 L 38.914062 95.207031 L 38.921875 92.351562 C 39.128906 92.292969 39.398438 92.25 39.683594 92.214844 C 39.695312 92.210938 39.703125 92.210938 39.710938 92.210938 C 40.003906 92.175781 40.3125 92.148438 40.59375 92.128906 C 41.164062 92.085938 41.628906 92.078125 41.628906 92.078125 C 41.421875 92.441406 40.738281 93.230469 40.480469 93.5625 C 40.457031 93.597656 40.386719 93.671875 40.359375 93.707031 C 40.125 94 39.46875 94.671875 39.199219 94.933594 Z M 32.5 100.128906 L 32.503906 98.703125 C 32.714844 98.644531 33.003906 98.613281 33.320312 98.601562 C 33.636719 98.589844 33.976562 98.59375 34.292969 98.601562 C 34.917969 98.625 35.441406 98.675781 35.441406 98.675781 L 32.496094 101.558594 Z M 37.164062 96.914062 C 37.179688 96.894531 37.277344 96.792969 37.289062 96.777344 C 37.417969 96.609375 38.429688 95.558594 38.535156 95.375 C 38.535156 95.375 38.042969 95.355469 37.441406 95.363281 C 37.148438 95.371094 36.828125 95.382812 36.53125 95.40625 C 36.519531 95.40625 36.511719 95.40625 36.503906 95.40625 C 36.203125 95.433594 35.921875 95.46875 35.714844 95.527344 L 35.707031 96.953125 L 35.703125 98.382812 L 35.984375 98.109375 C 36.121094 97.980469 37.046875 97.058594 37.164062 96.914062 " fill-opacity="1" fill-rule="nonzero"/><path fill="#ffffff" d="M 54.058594 48.71875 L 53.953125 48.65625 C 53.972656 48.441406 53.996094 48.226562 54.015625 48.007812 C 54.515625 48.175781 55.03125 48.289062 55.546875 48.339844 C 55.625 48.347656 55.699219 48.351562 55.773438 48.355469 C 55.695312 48.59375 55.617188 48.832031 55.539062 49.070312 C 55.511719 49.148438 55.488281 49.230469 55.460938 49.308594 C 55.371094 49.285156 55.285156 49.261719 55.203125 49.230469 C 55.066406 49.1875 54.9375 49.132812 54.808594 49.078125 C 54.550781 48.972656 54.296875 48.859375 54.058594 48.71875 Z M 65.566406 43.199219 C 65.953125 43.476562 66.363281 43.71875 66.789062 43.9375 C 66.828125 43.957031 66.867188 43.976562 66.90625 43.996094 C 67.226562 44.152344 67.558594 44.289062 67.894531 44.410156 C 67.816406 44.675781 67.742188 44.941406 67.664062 45.207031 C 67.546875 45.617188 67.433594 46.023438 67.320312 46.429688 C 67.230469 46.765625 67.136719 47.101562 67.046875 47.433594 C 66.929688 47.4375 66.808594 47.433594 66.6875 47.4375 C 66.5625 47.4375 66.433594 47.4375 66.308594 47.4375 C 66.152344 47.4375 65.996094 47.429688 65.839844 47.421875 C 65.703125 47.417969 65.5625 47.410156 65.425781 47.402344 C 65 47.371094 64.578125 47.320312 64.164062 47.238281 C 63.992188 47.207031 63.824219 47.171875 63.65625 47.125 C 63.542969 47.097656 63.433594 47.058594 63.324219 47.023438 C 62.617188 46.792969 61.949219 46.449219 61.390625 45.992188 C 61.195312 45.835938 61.015625 45.660156 60.855469 45.476562 C 60.84375 45.46875 60.835938 45.457031 60.828125 45.449219 C 60.988281 45.050781 61.15625 44.652344 61.324219 44.25 C 62.304688 41.925781 63.390625 39.554688 64.519531 37.441406 L 64.679688 37.601562 L 65.148438 38.015625 C 65.15625 38.023438 65.167969 38.03125 65.179688 38.039062 C 65.53125 38.324219 65.902344 38.582031 66.285156 38.816406 C 66.597656 39.003906 66.921875 39.179688 67.25 39.332031 C 67.3125 39.359375 67.375 39.386719 67.441406 39.414062 C 68.050781 39.679688 68.679688 39.878906 69.328125 40.007812 C 69.242188 40.199219 69.167969 40.390625 69.105469 40.574219 C 68.761719 41.585938 68.445312 42.59375 68.140625 43.589844 C 67.8125 43.519531 67.484375 43.441406 67.160156 43.34375 C 67.050781 43.308594 66.941406 43.273438 66.832031 43.234375 C 66.417969 43.097656 66.007812 42.941406 65.605469 42.761719 C 65.425781 42.683594 65.246094 42.597656 65.066406 42.511719 C 65.007812 42.484375 64.941406 42.507812 64.910156 42.566406 C 64.886719 42.613281 64.898438 42.667969 64.9375 42.703125 C 65.136719 42.878906 65.351562 43.042969 65.566406 43.199219 Z M 53.835938 49.90625 C 54.207031 50.046875 54.589844 50.152344 54.976562 50.207031 C 55.039062 50.21875 55.101562 50.222656 55.164062 50.230469 C 54.96875 50.835938 54.773438 51.445312 54.585938 52.0625 C 54.410156 52.617188 54.242188 53.175781 54.074219 53.734375 C 54.007812 53.722656 53.941406 53.703125 53.871094 53.691406 C 53.839844 53.6875 53.726562 53.671875 53.546875 53.652344 C 53.582031 53.152344 53.617188 52.632812 53.65625 52.097656 C 53.707031 51.394531 53.765625 50.660156 53.835938 49.90625 Z M 33.542969 79.714844 C 32.601562 80.964844 31.847656 81.296875 31.847656 81.296875 L 31.320312 79.519531 L 30.925781 78.207031 L 30.878906 78.050781 L 34.414062 78.347656 C 34.386719 78.398438 34.359375 78.445312 34.328125 78.492188 C 34.058594 78.976562 33.796875 79.378906 33.542969 79.714844 Z M 36.175781 78.582031 L 36.050781 78.347656 C 37.566406 78.390625 39.40625 78.703125 39.40625 78.703125 C 39.40625 78.738281 39.398438 78.769531 39.398438 78.800781 C 39.371094 79.253906 39.265625 79.671875 39.117188 80.042969 C 38.679688 81.140625 37.902344 81.84375 37.902344 81.84375 L 36.863281 79.875 Z M 57.980469 52.996094 L 58.457031 53.300781 C 59.105469 53.683594 59.796875 53.996094 60.507812 54.226562 C 61.21875 54.460938 61.949219 54.609375 62.6875 54.667969 C 63.339844 54.71875 63.988281 54.707031 64.628906 54.613281 C 64.710938 54.601562 64.796875 54.589844 64.882812 54.574219 C 64.945312 54.5625 64.988281 54.5 64.976562 54.4375 C 64.964844 54.386719 64.921875 54.347656 64.875 54.34375 C 64.773438 54.332031 64.675781 54.320312 64.578125 54.308594 C 63.972656 54.234375 63.378906 54.132812 62.804688 53.976562 C 62.136719 53.800781 61.484375 53.570312 60.863281 53.292969 C 60.242188 53.011719 59.648438 52.679688 59.09375 52.296875 L 58.835938 52.117188 L 58.683594 52.003906 L 58.40625 51.789062 C 58.691406 50.988281 59.011719 50.105469 59.367188 49.171875 C 59.519531 48.769531 59.675781 48.355469 59.839844 47.933594 C 59.996094 47.53125 60.15625 47.117188 60.324219 46.699219 C 60.328125 46.6875 60.332031 46.675781 60.335938 46.664062 C 60.351562 46.679688 60.367188 46.691406 60.386719 46.707031 C 60.476562 46.785156 60.570312 46.859375 60.667969 46.929688 C 61.5 47.542969 62.457031 47.933594 63.445312 48.105469 C 63.683594 48.148438 63.925781 48.179688 64.164062 48.199219 C 64.585938 48.234375 65.007812 48.238281 65.425781 48.21875 C 65.738281 48.203125 66.046875 48.175781 66.351562 48.140625 C 66.464844 48.125 66.574219 48.105469 66.6875 48.089844 C 66.753906 48.078125 66.816406 48.070312 66.882812 48.058594 C 66.820312 48.304688 66.757812 48.546875 66.695312 48.789062 C 66.6875 48.820312 66.679688 48.847656 66.671875 48.878906 C 66.566406 49.292969 66.464844 49.699219 66.367188 50.101562 C 66.125 51.101562 65.898438 52.070312 65.695312 53 C 65.691406 53.011719 65.6875 53.027344 65.683594 53.042969 C 65.320312 54.695312 65.019531 56.21875 64.769531 57.566406 C 64.679688 58.054688 64.59375 58.527344 64.519531 58.96875 C 64.507812 58.972656 64.496094 58.976562 64.484375 58.976562 C 64.128906 59.042969 63.75 59.078125 63.355469 59.078125 C 63.199219 59.078125 63.035156 59.070312 62.871094 59.058594 C 61.632812 58.96875 60.242188 58.511719 58.722656 57.46875 C 58.148438 57.078125 57.5625 56.605469 56.953125 56.035156 C 56.953125 56.035156 57.328125 54.851562 57.980469 52.992188 Z M 82.457031 25.824219 C 82.398438 25.664062 82.328125 25.511719 82.246094 25.359375 C 84.414062 24.691406 85.90625 24.320312 85.90625 24.320312 C 85.90625 24.320312 84.5625 25.25 82.628906 26.714844 C 82.625 26.414062 82.566406 26.109375 82.457031 25.824219 Z M 82.417969 26.808594 C 82.433594 26.820312 82.449219 26.832031 82.46875 26.835938 C 81.589844 27.503906 80.597656 28.28125 79.558594 29.121094 C 79.484375 28.960938 79.410156 28.800781 79.332031 28.644531 C 79.105469 28.191406 78.847656 27.75 78.535156 27.328125 C 78.390625 27.132812 78.234375 26.945312 78.070312 26.765625 C 79.195312 26.351562 80.28125 25.984375 81.269531 25.667969 C 81.273438 25.671875 81.277344 25.675781 81.285156 25.679688 C 81.480469 25.835938 81.675781 26.003906 81.859375 26.191406 C 82.054688 26.371094 82.214844 26.582031 82.410156 26.800781 Z M 67.710938 38.441406 C 67.699219 38.4375 67.691406 38.429688 67.679688 38.421875 C 67.292969 38.195312 66.929688 37.941406 66.578125 37.667969 C 66.351562 37.492188 66.132812 37.3125 65.925781 37.117188 L 65.527344 36.734375 L 65.152344 36.328125 L 65.144531 36.316406 C 65.480469 35.726562 65.820312 35.160156 66.164062 34.632812 C 66.164062 34.632812 66.164062 34.632812 66.164062 34.628906 C 66.96875 33.382812 67.785156 32.335938 68.582031 31.585938 C 68.8125 31.367188 69.039062 31.179688 69.269531 31.015625 L 69.484375 31.070312 L 70.007812 31.21875 C 70.027344 31.226562 70.046875 31.230469 70.070312 31.238281 C 70.746094 31.441406 71.410156 31.699219 72.058594 32.003906 C 72.722656 32.316406 73.371094 32.675781 73.996094 33.082031 C 74.191406 33.207031 74.382812 33.339844 74.574219 33.476562 C 72.484375 35.476562 70.652344 37.535156 69.660156 39.34375 C 68.976562 39.105469 68.324219 38.804688 67.710938 38.441406 Z M 72.53125 31.117188 C 71.910156 30.746094 71.257812 30.433594 70.582031 30.171875 C 72.457031 29.054688 74.695312 28.058594 76.875 27.214844 C 77.191406 27.453125 77.492188 27.703125 77.777344 27.984375 C 78.113281 28.308594 78.429688 28.667969 78.75 29.035156 C 78.875 29.179688 79.003906 29.324219 79.128906 29.46875 C 77.761719 30.589844 76.332031 31.820312 74.988281 33.082031 C 74.808594 32.890625 74.621094 32.703125 74.425781 32.523438 C 73.84375 31.996094 73.207031 31.527344 72.53125 31.117188 Z M 38.054688 101.113281 L 38.058594 100.042969 C 38.269531 99.988281 38.558594 99.957031 38.875 99.941406 C 38.980469 99.9375 39.085938 99.9375 39.195312 99.9375 C 39.414062 99.9375 39.632812 99.9375 39.84375 99.945312 C 40.308594 99.960938 40.714844 99.992188 40.894531 100.007812 C 40.957031 100.011719 40.996094 100.015625 40.996094 100.015625 L 39.523438 101.457031 L 38.734375 102.230469 L 38.046875 102.898438 L 38.050781 101.472656 Z M 36.210938 103.035156 C 36.863281 103.269531 37.355469 103.375 37.59375 103.417969 C 37.691406 103.4375 37.746094 103.445312 37.746094 103.445312 L 36.453125 104.625 L 35.613281 105.390625 C 35.253906 105.28125 34.96875 104.984375 34.746094 104.613281 C 34.125 103.578125 33.96875 101.941406 33.96875 101.941406 C 34.800781 102.46875 35.578125 102.808594 36.210938 103.035156 Z M 69.566406 96.113281 L 70.042969 97.664062 L 71.863281 103.601562 L 72.066406 104.261719 L 71.804688 103.945312 L 69.648438 101.335938 L 66.261719 97.242188 L 65.851562 96.746094 C 67.519531 95.710938 69.410156 95.601562 69.410156 95.601562 Z M 47.867188 91.46875 L 47.871094 90.269531 L 47.871094 90.039062 C 47.90625 90.03125 47.941406 90.023438 47.976562 90.015625 C 48.167969 89.96875 48.394531 89.921875 48.632812 89.882812 C 48.875 89.839844 49.125 89.804688 49.363281 89.773438 C 49.402344 89.765625 49.445312 89.761719 49.484375 89.757812 C 49.492188 89.757812 49.496094 89.753906 49.5 89.753906 C 49.746094 89.722656 49.941406 89.882812 50 90.085938 C 49.953125 90.265625 49.894531 90.453125 49.824219 90.640625 C 49.679688 90.855469 49.535156 91.0625 49.417969 91.21875 C 49.03125 91.714844 48.609375 92.183594 48.152344 92.621094 L 47.863281 92.894531 L 47.863281 92.730469 Z M 30.480469 105.566406 L 30.175781 106.457031 L 30.0625 106.789062 C 30.0625 106.789062 29.582031 106.863281 29.007812 106.722656 C 28.777344 106.664062 28.53125 106.574219 28.296875 106.429688 C 28.160156 106.347656 28.035156 106.207031 27.917969 106.035156 C 27.3125 105.144531 26.925781 103.324219 26.925781 103.324219 C 26.925781 103.324219 28.445312 104.484375 29.609375 105.152344 C 29.941406 105.34375 30.25 105.496094 30.480469 105.566406 Z M 41.261719 98.296875 L 41.261719 97.835938 L 41.265625 96.867188 C 41.476562 96.8125 41.753906 96.773438 42.054688 96.75 C 42.0625 96.75 42.074219 96.75 42.082031 96.746094 C 42.175781 96.738281 42.269531 96.734375 42.363281 96.730469 C 42.574219 96.71875 42.789062 96.710938 42.996094 96.707031 C 43.59375 96.699219 44.085938 96.71875 44.085938 96.71875 C 44.046875 96.785156 43.882812 96.976562 43.683594 97.199219 C 43.347656 97.566406 42.921875 98.015625 42.84375 98.121094 C 42.828125 98.136719 42.730469 98.238281 42.714844 98.253906 C 42.597656 98.402344 41.671875 99.320312 41.535156 99.453125 L 41.257812 99.722656 L 41.257812 99.640625 Z M 41.074219 66.960938 C 42.03125 65.945312 44.820312 65.707031 44.820312 65.707031 C 43.34375 68.515625 41.074219 66.960938 41.074219 66.960938 Z M 44.5 79.8125 C 44.699219 79.898438 44.820312 79.957031 44.820312 79.957031 C 44.683594 80.40625 44.496094 80.777344 44.289062 81.082031 C 43.648438 82.035156 42.835938 82.328125 42.835938 82.328125 C 42.835938 82.328125 42.289062 81.316406 41.808594 80.414062 C 41.46875 79.765625 41.164062 79.175781 41.121094 79.042969 C 41.15625 79.039062 41.195312 79.039062 41.230469 79.035156 C 42.316406 78.941406 43.84375 79.53125 44.5 79.8125 Z M 44.46875 95.121094 L 44.472656 94.652344 L 44.476562 93.691406 C 44.683594 93.636719 44.949219 93.59375 45.238281 93.554688 C 45.246094 93.554688 45.257812 93.554688 45.265625 93.554688 C 45.367188 93.539062 45.472656 93.53125 45.578125 93.519531 C 45.769531 93.5 45.964844 93.484375 46.144531 93.46875 C 46.714844 93.429688 47.179688 93.417969 47.179688 93.417969 C 47.007812 93.730469 46.492188 94.339844 46.183594 94.722656 C 46.125 94.789062 46.074219 94.855469 46.035156 94.90625 C 46.007812 94.941406 45.9375 95.015625 45.910156 95.050781 C 45.675781 95.34375 45.023438 96.011719 44.75 96.273438 L 44.464844 96.546875 L 44.464844 96.421875 Z M 31.539062 105.570312 L 31.699219 103.964844 L 33.785156 105.703125 L 34.601562 106.386719 C 34.601562 106.386719 34.285156 106.78125 33.863281 107.09375 C 33.613281 107.277344 33.328125 107.429688 33.046875 107.460938 C 32.289062 107.546875 31.386719 107.125 31.386719 107.125 L 31.414062 106.847656 Z M 82.320312 91.539062 L 84.808594 99.652344 L 78.230469 93.285156 L 77.722656 92.792969 C 79.511719 91.148438 82.152344 90.992188 82.152344 90.992188 Z M 87.621094 82.125 C 88.074219 81.59375 88.460938 81.257812 88.550781 81.183594 C 88.5625 81.171875 88.570312 81.164062 88.570312 81.164062 L 88.972656 81.472656 L 95.761719 86.660156 L 90.363281 85.179688 L 88.863281 84.769531 L 87.53125 84.402344 L 87.34375 84.351562 L 86.375 84.085938 C 86.507812 83.785156 86.65625 83.503906 86.8125 83.242188 C 87.074219 82.8125 87.355469 82.4375 87.621094 82.125 Z M 67.609375 26.367188 C 67.480469 26.167969 67.34375 25.972656 67.191406 25.789062 C 66.941406 25.480469 66.660156 25.195312 66.355469 24.9375 C 66.277344 24.871094 66.195312 24.8125 66.113281 24.746094 C 69.328125 22.429688 72.066406 20.816406 72.066406 20.816406 C 72.066406 20.816406 71.453125 21.960938 70.566406 23.804688 C 70.566406 23.804688 69.25 24.878906 67.609375 26.367188 Z M 54.398438 46.890625 L 54.148438 46.773438 C 54.15625 46.707031 54.164062 46.640625 54.171875 46.574219 C 54.222656 46.152344 54.273438 45.726562 54.324219 45.304688 C 54.378906 44.878906 54.4375 44.457031 54.496094 44.03125 C 54.628906 43.082031 54.777344 42.140625 54.9375 41.222656 C 55.265625 41.363281 55.601562 41.480469 55.945312 41.566406 C 56.445312 41.695312 56.957031 41.765625 57.464844 41.769531 C 57.679688 41.769531 57.894531 41.757812 58.109375 41.738281 C 57.835938 42.472656 57.558594 43.234375 57.273438 44.023438 C 57.125 44.433594 56.976562 44.855469 56.828125 45.28125 C 56.683594 45.695312 56.535156 46.113281 56.390625 46.539062 C 56.289062 46.835938 56.1875 47.132812 56.085938 47.433594 C 55.964844 47.40625 55.839844 47.382812 55.71875 47.351562 C 55.261719 47.234375 54.820312 47.082031 54.398438 46.890625 Z M 23.578125 78.34375 C 23.546875 79.761719 24.367188 81.570312 24.367188 81.570312 C 22.085938 81.25 21.019531 79.035156 20.585938 77.757812 C 20.40625 77.222656 20.335938 76.847656 20.335938 76.847656 L 23.914062 77.191406 C 23.679688 77.492188 23.585938 77.898438 23.578125 78.34375 Z M 59.28125 36.617188 C 59.554688 36.636719 59.832031 36.640625 60.105469 36.628906 C 59.5625 37.949219 58.945312 39.507812 58.292969 41.246094 C 58.042969 41.195312 57.796875 41.140625 57.554688 41.074219 C 57.109375 40.953125 56.679688 40.800781 56.265625 40.617188 C 55.878906 40.449219 55.511719 40.25 55.160156 40.03125 C 55.476562 38.429688 55.84375 36.921875 56.269531 35.609375 C 56.691406 35.867188 57.132812 36.082031 57.589844 36.246094 C 58.140625 36.441406 58.707031 36.566406 59.28125 36.617188 Z M 29.316406 77.878906 C 29.257812 77.902344 29.191406 77.9375 29.125 77.972656 C 28.746094 78.191406 28.222656 78.636719 27.773438 79.054688 C 27.261719 79.523438 26.84375 79.957031 26.84375 79.957031 L 26.214844 78.796875 L 25.480469 77.453125 L 26.535156 77.570312 Z M 32.058594 102.277344 C 30.734375 103.488281 29.71875 103.855469 28.90625 102.253906 C 28.421875 101.308594 28.039062 100.238281 28.039062 100.238281 C 30.085938 101.523438 32.085938 102.25 32.085938 102.25 Z M 15.835938 77.839844 C 16.597656 77.214844 17.609375 76.972656 18.570312 77.191406 C 18.441406 77.359375 18.355469 77.566406 18.304688 77.789062 C 17.964844 79.230469 19.027344 81.570312 19.027344 81.570312 C 16.21875 81.175781 15.683594 78.820312 15.59375 78.203125 C 15.578125 78.105469 15.574219 78.050781 15.574219 78.050781 Z M 66.996094 26.933594 C 65.78125 28.058594 64.46875 29.351562 63.40625 30.578125 C 63.34375 30.546875 63.28125 30.515625 63.222656 30.484375 C 62.804688 30.25 62.425781 29.964844 62.074219 29.648438 C 61.75 29.355469 61.449219 29.035156 61.15625 28.695312 C 62.402344 27.578125 63.746094 26.503906 65.058594 25.523438 L 65.199219 25.605469 C 65.34375 25.695312 65.492188 25.785156 65.636719 25.882812 C 65.925781 26.074219 66.207031 26.28125 66.484375 26.503906 C 66.65625 26.640625 66.824219 26.785156 66.996094 26.933594 Z M 61.472656 30.445312 C 61.042969 30.167969 60.65625 29.839844 60.292969 29.496094 C 59.472656 30.28125 58.714844 31.082031 58.074219 31.875 C 57.554688 32.515625 57.09375 33.402344 56.679688 34.460938 L 56.726562 34.496094 C 57.113281 34.8125 57.539062 35.089844 57.992188 35.328125 C 58.441406 35.566406 58.917969 35.769531 59.414062 35.925781 C 59.703125 36.019531 60 36.09375 60.300781 36.15625 C 61.171875 34.066406 61.832031 32.65625 62.113281 32.238281 C 62.351562 31.882812 62.632812 31.511719 62.945312 31.128906 C 62.421875 30.980469 61.925781 30.742188 61.472656 30.445312 " fill-opacity="1" fill-rule="nonzero"/><g clip-path="url(#ad58c46aac)"><path fill="#b33920" d="M 18.175781 69.703125 C 17.578125 70.492188 16.292969 69.828125 16.292969 69.828125 C 16.292969 69.828125 17.464844 68.136719 18.488281 68.273438 C 19.511719 68.40625 19.910156 68.707031 19.910156 68.707031 C 19.910156 68.707031 18.773438 68.914062 18.175781 69.703125 Z M 46.363281 126.675781 C 46.222656 126.742188 45.683594 127.085938 45.574219 126.976562 C 45.835938 126.875 46.097656 126.777344 46.363281 126.675781 Z M 45.039062 132.195312 C 45.003906 132.378906 44.96875 132.566406 44.9375 132.753906 C 45.625 131.242188 46.59375 129.878906 47.695312 128.644531 C 47.710938 128.917969 47.71875 129.191406 47.730469 129.464844 C 48.40625 128.660156 49.148438 127.910156 49.917969 127.195312 C 50.007812 127.109375 50.097656 127.027344 50.191406 126.945312 C 50.347656 126.800781 50.335938 126.792969 50.316406 126.582031 C 50.296875 126.320312 50.320312 126.050781 50.328125 125.78125 C 50.34375 125.234375 50.382812 124.6875 50.445312 124.140625 C 49.273438 124.695312 48.105469 125.25 46.929688 125.792969 C 46.667969 125.914062 46.410156 126.03125 46.152344 126.152344 C 46.050781 126.195312 45.808594 126.367188 45.707031 126.355469 C 45.59375 126.339844 45.40625 126.109375 45.324219 126.042969 C 45.117188 125.878906 44.914062 125.710938 44.707031 125.550781 C 43.171875 124.367188 41.519531 123.304688 39.828125 122.359375 C 38.984375 121.886719 38.121094 121.445312 37.238281 121.046875 C 36.375 120.660156 35.488281 120.363281 34.601562 120.027344 C 34.449219 119.96875 34.375 119.902344 34.226562 119.96875 C 34.117188 120.019531 34.015625 120.109375 33.914062 120.175781 C 33.691406 120.324219 33.472656 120.472656 33.25 120.621094 C 32.8125 120.921875 32.375 121.230469 31.945312 121.542969 C 31.0625 122.1875 30.191406 122.851562 29.355469 123.558594 C 29.632812 123.574219 29.910156 123.589844 30.1875 123.609375 C 28.519531 124.949219 26.96875 126.449219 25.589844 128.085938 C 28.671875 129.175781 31.539062 130.824219 34.257812 132.621094 C 34.578125 132.074219 34.964844 131.5625 35.414062 131.117188 C 35.78125 130.75 36.363281 130.101562 36.933594 130.433594 C 37.617188 130.835938 37.03125 131.707031 36.808594 132.21875 C 37.582031 131.171875 38.617188 130.292969 39.828125 129.800781 C 40.089844 129.695312 40.347656 129.617188 40.613281 129.765625 C 40.875 129.910156 41.011719 130.21875 40.949219 130.511719 C 40.878906 130.816406 40.601562 130.980469 40.382812 131.171875 C 40.140625 131.386719 39.90625 131.617188 39.6875 131.859375 C 41.488281 130.457031 43.621094 129.679688 45.695312 128.792969 C 45.476562 129.925781 45.257812 131.0625 45.039062 132.195312 Z M 37.289062 67.605469 C 37.8125 67.128906 38.394531 66.710938 38.988281 66.328125 C 40.097656 65.605469 41.335938 64.933594 42.636719 64.636719 C 44.753906 64.152344 47.042969 64.273438 49.195312 64.421875 C 49.769531 64.460938 50.34375 64.507812 50.914062 64.570312 C 50.507812 64.980469 50.054688 65.34375 49.585938 65.683594 C 49.988281 65.621094 50.394531 65.554688 50.792969 65.480469 C 50.988281 65.445312 51.183594 65.398438 51.378906 65.371094 C 51.457031 65.359375 51.550781 65.320312 51.605469 65.402344 C 51.640625 65.457031 51.621094 65.53125 51.570312 65.566406 C 50.4375 66.285156 49.105469 66.746094 47.804688 67.042969 C 47.628906 67.082031 47.449219 67.109375 47.277344 67.15625 C 47.101562 67.199219 46.957031 67.289062 46.796875 67.371094 C 46.484375 67.527344 46.171875 67.675781 45.851562 67.816406 C 45.273438 68.074219 44.683594 68.304688 44.082031 68.496094 C 43.316406 68.734375 42.246094 69.074219 41.460938 68.734375 C 41.109375 68.585938 40.832031 68.28125 40.476562 68.117188 C 40.050781 67.921875 39.59375 67.804688 39.136719 67.722656 C 38.53125 67.621094 37.902344 67.574219 37.289062 67.605469 Z M 14.875 73.378906 C 14.886719 73.425781 14.957031 73.589844 14.9375 73.636719 C 14.90625 73.710938 14.71875 73.71875 14.636719 73.753906 C 14.828125 74.519531 14.773438 75.34375 15.351562 75.921875 C 15.632812 76.203125 16.03125 76.476562 16.445312 76.371094 C 16.839844 76.269531 17.214844 76.105469 17.617188 76.011719 C 18.628906 75.78125 19.683594 75.753906 20.707031 75.9375 C 21.460938 76.074219 22.203125 76.226562 22.960938 76.320312 C 24.679688 76.53125 26.40625 76.648438 28.132812 76.78125 C 28.902344 76.84375 29.675781 76.902344 30.445312 76.984375 C 31.324219 77.078125 32.191406 77.230469 33.074219 77.257812 C 34.097656 77.289062 35.117188 77.277344 36.140625 77.320312 C 36.621094 77.34375 37.101562 77.371094 37.582031 77.402344 C 37.78125 77.414062 38.554688 77.453125 38.554688 77.453125 C 38.554688 77.453125 39.015625 77.347656 39.257812 77.257812 C 39.441406 77.191406 39.957031 77.046875 40.152344 77.070312 C 40.394531 77.101562 40.640625 77.136719 40.886719 77.167969 C 41.429688 77.246094 41.972656 77.335938 42.511719 77.449219 C 43.742188 77.695312 45.007812 78.027344 46.105469 78.65625 C 46.199219 78.707031 46.320312 78.8125 46.421875 78.816406 C 46.519531 78.824219 46.644531 78.769531 46.742188 78.753906 C 46.941406 78.714844 47.136719 78.683594 47.335938 78.65625 C 47.8125 78.582031 48.292969 78.53125 48.773438 78.496094 C 49.253906 78.460938 49.738281 78.441406 50.21875 78.445312 C 50.285156 78.449219 50.417969 78.425781 50.480469 78.449219 C 50.578125 78.488281 50.699219 78.664062 50.777344 78.738281 C 50.855469 78.820312 50.960938 78.984375 51.0625 79.039062 C 51.136719 79.078125 51.292969 79.050781 51.382812 79.054688 C 51.875 79.09375 52.367188 79.148438 52.855469 79.222656 C 54.878906 79.535156 56.84375 80.277344 58.535156 81.4375 C 58.929688 81.707031 59.308594 82 59.667969 82.316406 C 58.570312 82.222656 57.429688 82.257812 56.347656 82.472656 C 57.128906 82.488281 57.898438 82.714844 58.554688 83.144531 C 58.832031 83.328125 59.089844 83.546875 59.3125 83.796875 C 59.410156 83.90625 59.515625 84.023438 59.589844 84.152344 C 59.714844 84.371094 59.582031 84.441406 59.386719 84.332031 C 58.710938 83.949219 58.042969 83.640625 57.257812 83.5625 C 56.882812 83.523438 56.5 83.539062 56.128906 83.601562 C 55.925781 83.640625 55.722656 83.691406 55.523438 83.753906 C 55.433594 83.785156 55.316406 83.8125 55.234375 83.863281 C 55.085938 83.957031 55.148438 83.859375 55.160156 83.96875 C 55.171875 84.085938 55.289062 84.25 55.339844 84.359375 C 55.40625 84.507812 55.472656 84.660156 55.535156 84.808594 C 55.683594 85.160156 55.824219 85.507812 55.953125 85.863281 C 56.230469 86.621094 56.464844 87.390625 56.652344 88.175781 C 57.015625 89.683594 57.195312 91.269531 56.976562 92.8125 C 56.949219 93.003906 56.914062 93.199219 56.871094 93.386719 C 56.863281 93.433594 56.820312 93.542969 56.839844 93.585938 C 56.855469 93.625 56.933594 93.671875 56.964844 93.703125 C 57.15625 93.875 57.347656 94.050781 57.539062 94.226562 C 58.140625 94.777344 58.742188 95.332031 59.34375 95.882812 C 59.824219 96.324219 60.308594 96.765625 60.789062 97.210938 C 60.878906 97.292969 60.96875 97.371094 61.058594 97.453125 C 61.152344 97.542969 61.21875 97.65625 61.320312 97.625 C 61.488281 97.574219 61.625 97.28125 61.710938 97.144531 C 62.140625 96.449219 62.683594 95.828125 63.3125 95.300781 C 63.609375 95.054688 63.925781 94.824219 64.253906 94.621094 C 64.429688 94.507812 64.609375 94.40625 64.792969 94.304688 C 64.882812 94.257812 64.96875 94.214844 65.054688 94.167969 C 65.199219 94.097656 65.199219 94.121094 65.214844 93.988281 C 65.222656 93.910156 65.171875 93.785156 65.152344 93.703125 C 65.109375 93.496094 65.121094 93.507812 65.316406 93.421875 C 65.507812 93.339844 65.707031 93.257812 65.90625 93.183594 C 66.308594 93.035156 66.71875 92.910156 67.132812 92.804688 C 67.695312 92.664062 68.269531 92.566406 68.847656 92.523438 C 68.050781 91.113281 67.195312 89.730469 66.230469 88.433594 C 65.777344 87.824219 65.300781 87.230469 64.761719 86.695312 C 64.519531 86.457031 64.265625 86.222656 63.988281 86.023438 C 63.941406 85.992188 63.71875 85.882812 63.707031 85.839844 C 63.695312 85.792969 63.792969 85.644531 63.8125 85.605469 C 63.84375 85.53125 63.941406 85.199219 64.011719 85.167969 C 64.042969 85.15625 64.253906 85.261719 64.292969 85.277344 C 64.515625 85.367188 64.734375 85.464844 64.953125 85.5625 C 65.691406 85.902344 66.40625 86.292969 67.089844 86.730469 C 68.320312 87.523438 69.582031 88.230469 70.726562 89.148438 C 72.085938 90.230469 73.320312 91.515625 74.167969 93.046875 C 74.359375 92.671875 74.582031 92.3125 74.832031 91.972656 C 74.949219 91.816406 75.074219 91.664062 75.203125 91.515625 C 75.332031 91.371094 75.539062 91.226562 75.636719 91.066406 C 75.722656 91.027344 75.738281 90.972656 75.679688 90.898438 C 75.660156 90.851562 75.644531 90.804688 75.625 90.757812 C 75.597656 90.679688 75.515625 90.554688 75.519531 90.472656 C 75.519531 90.335938 75.816406 90.152344 75.941406 90.058594 C 76.25 89.816406 76.578125 89.597656 76.914062 89.398438 C 78.148438 88.664062 79.539062 88.183594 80.957031 87.980469 C 80.179688 86.816406 79.402344 85.652344 78.625 84.488281 C 78.582031 84.417969 78.488281 84.328125 78.464844 84.246094 C 78.433594 84.140625 78.425781 84.238281 78.476562 84.128906 C 78.527344 84.027344 78.753906 83.785156 78.847656 83.738281 C 78.953125 83.6875 78.910156 83.683594 79.046875 83.789062 C 79.21875 83.925781 79.390625 84.066406 79.5625 84.203125 C 80.0625 84.613281 80.644531 84.914062 81.195312 85.242188 C 81.839844 85.628906 82.488281 86.015625 83.132812 86.398438 C 83.085938 83.949219 84.292969 81.609375 85.976562 79.890625 C 84.609375 79.011719 83.214844 78.175781 81.789062 77.386719 C 80.257812 76.546875 78.6875 75.738281 77.039062 75.148438 C 79.152344 75.480469 81.371094 75.449219 83.492188 75.191406 C 86.097656 74.871094 88.707031 74.101562 90.867188 72.570312 C 91.886719 71.847656 92.78125 70.957031 93.496094 69.929688 C 91.511719 69.238281 89.535156 68.515625 87.578125 67.757812 C 86.375 67.292969 85.179688 66.816406 84 66.300781 C 83.480469 66.074219 82.96875 65.84375 82.460938 65.589844 C 82.347656 65.53125 82.15625 65.382812 82.03125 65.359375 C 81.917969 65.339844 81.730469 65.414062 81.613281 65.425781 C 81.285156 65.464844 80.957031 65.472656 80.625 65.457031 C 79.242188 65.40625 77.832031 64.976562 76.648438 64.253906 C 76.949219 64.636719 77.269531 65.003906 77.601562 65.359375 C 77.046875 65.132812 76.507812 64.859375 76.015625 64.519531 C 75.648438 64.261719 75.0625 63.910156 75.082031 63.398438 C 75.105469 62.859375 75.679688 62.617188 76.121094 62.851562 C 76.613281 63.113281 77.082031 63.363281 77.617188 63.535156 C 78.765625 63.898438 80.070312 64.101562 81.265625 63.875 C 81.554688 63.820312 81.679688 63.796875 81.867188 63.601562 C 82.0625 63.398438 82.257812 63.195312 82.453125 62.992188 C 82.816406 62.613281 83.183594 62.234375 83.550781 61.855469 C 81.117188 60.941406 78.6875 60.03125 76.257812 59.117188 C 74.933594 58.621094 73.605469 58.125 72.277344 57.625 C 72.125 57.566406 71.972656 57.507812 71.820312 57.453125 C 71.695312 57.410156 71.734375 57.398438 71.636719 57.484375 C 71.359375 57.734375 71.140625 58.136719 70.894531 58.417969 C 69.628906 59.863281 67.996094 61.023438 66.179688 61.652344 C 64.792969 62.132812 63.304688 62.28125 61.851562 62.089844 C 61.023438 61.980469 60.207031 61.765625 59.429688 61.464844 C 58.628906 61.15625 57.910156 60.734375 57.167969 60.3125 C 56.808594 60.109375 56.40625 59.976562 56.042969 59.785156 C 55.652344 59.582031 55.28125 59.351562 54.925781 59.089844 C 54.273438 58.605469 53.6875 58.027344 53.226562 57.351562 C 53.117188 57.195312 52.964844 56.78125 52.804688 56.710938 C 52.679688 56.652344 52.425781 56.675781 52.292969 56.664062 C 51.988281 56.640625 51.679688 56.625 51.371094 56.617188 C 49.773438 56.566406 48.175781 56.667969 46.59375 56.910156 C 44.363281 57.246094 42.066406 57.839844 40.050781 58.871094 C 37.054688 60.410156 34.535156 62.84375 32.40625 65.417969 C 31.902344 66.027344 31.417969 66.65625 30.957031 67.296875 C 32.378906 67.960938 33.800781 68.621094 35.21875 69.285156 C 34.015625 69.503906 32.832031 69.738281 31.601562 69.765625 C 29.835938 69.800781 28.066406 69.613281 26.339844 69.222656 C 25.476562 69.027344 24.625 68.789062 23.785156 68.503906 C 22.613281 68.101562 21.492188 67.597656 20.246094 67.488281 C 18.335938 67.320312 16.410156 67.992188 15.183594 69.507812 C 14.886719 69.875 14.601562 70.308594 14.484375 70.773438 C 14.390625 71.121094 14.480469 71.503906 14.542969 71.855469 C 14.605469 72.199219 14.675781 72.539062 14.753906 72.878906 C 14.792969 73.046875 14.832031 73.214844 14.875 73.378906 Z M 50.886719 85.90625 C 50.734375 84.699219 50.625 83.488281 50.554688 82.277344 C 52.234375 83.734375 53.433594 85.707031 53.898438 87.886719 C 54.019531 87.570312 54.132812 87.257812 54.246094 86.9375 C 55.058594 89.640625 54.765625 92.730469 53.613281 95.296875 C 53.042969 96.570312 52.1875 97.707031 51.089844 98.574219 C 50.570312 98.984375 50.003906 99.335938 49.414062 99.632812 C 48.84375 99.925781 48.222656 100.136719 47.675781 100.46875 C 47.1875 100.761719 46.824219 101.335938 46.453125 101.761719 C 45.984375 102.304688 45.515625 102.84375 45.039062 103.378906 C 44.058594 104.488281 43.058594 105.585938 42.03125 106.648438 C 41.027344 107.6875 40 108.710938 38.886719 109.628906 C 37.90625 110.445312 36.871094 111.132812 35.613281 111.417969 C 34.382812 111.691406 33.113281 111.527344 32.066406 110.792969 C 31.0625 110.085938 30.332031 108.992188 29.902344 107.855469 C 30.046875 107.808594 30.089844 107.785156 30.226562 107.808594 C 30.324219 107.828125 30.417969 107.875 30.511719 107.902344 C 30.804688 107.992188 31.101562 108.074219 31.402344 108.144531 C 32.023438 108.289062 32.660156 108.394531 33.300781 108.394531 C 33.902344 108.398438 34.554688 108.3125 35.070312 107.976562 C 35.371094 107.777344 35.578125 107.488281 35.808594 107.21875 C 36.914062 105.921875 38.113281 104.695312 39.292969 103.46875 C 40.753906 101.945312 42.230469 100.441406 43.71875 98.945312 C 44.289062 98.371094 44.863281 97.800781 45.441406 97.230469 C 45.679688 96.996094 46.09375 96.890625 46.398438 96.75 C 46.558594 96.675781 46.71875 96.601562 46.878906 96.523438 C 47.0625 96.4375 47.171875 96.332031 47.3125 96.1875 C 47.832031 95.652344 48.332031 95.097656 48.800781 94.519531 C 49.734375 93.359375 50.5625 92.085938 51.015625 90.65625 C 51.25 89.925781 51.355469 89.152344 51.273438 88.394531 C 51.1875 87.5625 50.992188 86.738281 50.886719 85.90625 Z M 22.761719 132.078125 C 22.796875 132.019531 22.828125 131.964844 22.863281 131.90625 C 22.699219 131.816406 22.53125 131.722656 22.367188 131.632812 C 22.539062 131.34375 22.722656 131.058594 22.902344 130.777344 C 23 130.625 23.097656 130.46875 23.199219 130.316406 C 23.253906 130.234375 23.46875 129.804688 23.566406 129.777344 C 23.640625 129.757812 23.996094 129.964844 24.070312 129.996094 C 24.238281 130.070312 24.40625 130.140625 24.574219 130.214844 C 24.941406 130.375 25.308594 130.542969 25.671875 130.722656 C 27.019531 131.386719 28.3125 132.167969 29.574219 132.984375 C 32.089844 134.621094 34.53125 136.402344 36.855469 138.300781 C 37.324219 138.679688 37.789062 139.066406 38.257812 139.449219 C 38.476562 138.902344 38.691406 138.351562 38.910156 137.808594 C 39.476562 136.398438 40.378906 135.269531 41.566406 134.332031 C 41.449219 135.101562 41.285156 135.914062 41.332031 136.695312 C 41.367188 137.296875 41.460938 137.886719 41.640625 138.46875 C 41.882812 139.25 42.261719 139.96875 42.703125 140.652344 C 42.929688 141.007812 43.183594 141.34375 43.457031 141.664062 C 43.578125 141.808594 43.855469 141.96875 43.902344 142.132812 C 43.964844 142.328125 43.902344 142.644531 43.902344 142.851562 C 43.914062 143.871094 43.960938 144.890625 44.058594 145.90625 C 43.839844 145.511719 43.621094 145.121094 43.402344 144.726562 C 43.417969 144.988281 43.433594 145.25 43.457031 145.511719 C 40.242188 144.617188 37.121094 143.378906 34.167969 141.824219 C 31.203125 140.261719 28.40625 138.382812 25.835938 136.226562 C 25.113281 135.621094 24.410156 134.996094 23.726562 134.347656 C 23.382812 134.023438 23.042969 133.695312 22.710938 133.359375 C 22.632812 133.285156 22.554688 133.203125 22.476562 133.125 C 22.445312 133.09375 22.371094 133.035156 22.34375 132.992188 C 22.285156 132.890625 22.289062 132.945312 22.328125 132.828125 C 22.417969 132.566406 22.621094 132.3125 22.761719 132.078125 Z M 47.523438 120.707031 C 47.386719 120.796875 47.25 120.894531 47.117188 120.992188 C 47.183594 120.574219 46.855469 120.199219 46.441406 120.195312 C 46.117188 120.191406 45.769531 120.316406 45.476562 120.4375 C 45.0625 120.613281 44.679688 120.855469 44.34375 121.15625 C 44.292969 121.203125 44.144531 121.402344 44.082031 121.410156 C 44.027344 121.417969 43.867188 121.28125 43.808594 121.25 C 43.589844 121.117188 43.367188 120.984375 43.140625 120.859375 C 41.421875 119.882812 39.605469 119.0625 37.71875 118.46875 C 39.941406 117.15625 42.210938 115.925781 44.472656 114.6875 C 44.070312 114.6875 43.671875 114.691406 43.269531 114.699219 C 45.210938 113.640625 47.152344 112.582031 49.058594 111.464844 C 49.167969 111.398438 49.277344 111.335938 49.390625 111.269531 C 49.542969 111.179688 49.566406 111.207031 49.710938 111.304688 C 49.9375 111.453125 50.164062 111.601562 50.394531 111.75 C 50.855469 112.042969 51.3125 112.347656 51.761719 112.664062 C 52.640625 113.28125 53.503906 113.925781 54.34375 114.597656 C 55.167969 115.261719 55.988281 115.933594 56.78125 116.632812 C 56.992188 116.816406 57.199219 117.003906 57.40625 117.191406 C 57.503906 117.277344 57.597656 117.363281 57.691406 117.445312 C 57.734375 117.488281 57.851562 117.636719 57.910156 117.644531 C 58.003906 117.65625 58.238281 117.4375 58.324219 117.378906 C 58.460938 117.285156 58.597656 117.1875 58.734375 117.09375 C 59.09375 116.847656 59.453125 116.601562 59.8125 116.351562 C 60.632812 115.785156 61.449219 115.207031 62.253906 114.621094 C 62.191406 115.238281 62.113281 115.859375 62.078125 116.484375 C 62.0625 116.792969 62.070312 117.097656 62.109375 117.402344 C 62.136719 117.617188 62.105469 117.628906 61.9375 117.773438 C 61.816406 117.882812 61.691406 117.988281 61.566406 118.09375 C 60.570312 118.945312 59.53125 119.753906 58.480469 120.539062 C 58.542969 120.257812 58.601562 119.972656 58.664062 119.6875 C 57.007812 120.953125 55.304688 122.15625 53.636719 123.414062 C 53.980469 121.878906 54.269531 120.332031 54.578125 118.789062 C 53.6875 119.207031 52.792969 119.625 51.898438 120.042969 C 52.113281 119.648438 51.886719 119.144531 51.453125 119.046875 C 51.109375 118.96875 50.699219 119.160156 50.378906 119.269531 C 49.367188 119.617188 48.40625 120.105469 47.523438 120.707031 Z M 57.898438 108.144531 C 57.628906 108.378906 57.347656 108.636719 56.964844 108.523438 C 57.277344 108.402344 57.589844 108.277344 57.898438 108.144531 Z M 60.691406 110.238281 C 61.339844 109.964844 62.003906 109.730469 62.6875 109.566406 C 63.175781 109.449219 63.703125 109.785156 63.597656 110.34375 C 64.375 109.871094 65.152344 109.394531 65.929688 108.921875 C 65.613281 110.542969 65.304688 112.167969 64.976562 113.789062 C 66.335938 112.007812 67.164062 109.953125 67.753906 107.800781 C 67.921875 107.894531 68.089844 107.992188 68.261719 108.089844 C 68.425781 107.515625 68.574219 106.9375 68.714844 106.359375 C 68.785156 106.074219 68.851562 105.789062 68.914062 105.503906 C 68.933594 105.429688 68.980469 105.335938 68.941406 105.277344 C 68.910156 105.226562 68.78125 105.175781 68.734375 105.144531 C 68.597656 105.058594 68.460938 104.972656 68.328125 104.886719 C 67.390625 104.296875 66.457031 103.703125 65.519531 103.113281 C 64.101562 102.214844 62.6875 101.320312 61.269531 100.425781 C 60.789062 100.121094 60.21875 99.875 59.800781 99.5 C 59.421875 99.15625 59.046875 98.808594 58.671875 98.460938 C 58.714844 98.570312 58.746094 98.691406 58.800781 98.800781 C 58.847656 98.902344 58.917969 98.972656 58.976562 99.070312 C 59.113281 99.285156 59.214844 99.535156 59.3125 99.769531 C 59.519531 100.265625 59.671875 100.785156 59.765625 101.316406 C 59.957031 102.40625 59.898438 103.535156 59.570312 104.59375 C 59.265625 105.574219 58.746094 106.488281 58.039062 107.234375 C 57.875 107.40625 57.703125 107.566406 57.523438 107.722656 C 57.441406 107.792969 56.972656 108.183594 57.054688 107.816406 C 57.070312 107.738281 57.203125 107.625 57.253906 107.554688 C 57.335938 107.449219 57.417969 107.339844 57.492188 107.230469 C 57.644531 107.011719 57.785156 106.785156 57.914062 106.550781 C 58.519531 105.449219 58.84375 104.191406 58.808594 102.933594 C 57.6875 106.066406 54.5625 108.023438 51.902344 109.726562 C 52.039062 109.8125 52.222656 109.757812 52.378906 109.738281 C 52.613281 109.707031 52.847656 109.671875 53.078125 109.628906 C 53.035156 109.660156 52.988281 109.691406 52.941406 109.722656 C 53.480469 110.085938 54.011719 110.460938 54.535156 110.847656 C 54.675781 110.949219 54.8125 111.050781 54.949219 111.152344 C 55.019531 111.207031 55.09375 111.261719 55.164062 111.316406 C 55.28125 111.402344 55.253906 111.410156 55.386719 111.367188 C 55.679688 111.269531 55.96875 111.046875 56.253906 110.910156 C 56.828125 110.644531 57.433594 110.425781 58.054688 110.292969 C 58.273438 110.246094 58.476562 110.203125 58.6875 110.296875 C 58.96875 110.425781 59.136719 110.726562 59.089844 111.035156 C 59.609375 110.738281 60.144531 110.46875 60.691406 110.238281 Z M 70.808594 108.347656 C 70.957031 107.808594 71.101562 107.269531 71.230469 106.722656 C 72.761719 107.691406 74.292969 108.660156 75.824219 109.628906 C 76.042969 109.765625 76.261719 109.90625 76.480469 110.042969 C 75.882812 108.09375 75.285156 106.140625 74.683594 104.191406 C 74.171875 102.519531 73.660156 100.851562 73.144531 99.179688 C 72.988281 98.664062 72.832031 98.148438 72.671875 97.632812 C 72.632812 97.507812 72.613281 97.433594 72.613281 97.308594 C 72.621094 96.5625 72.714844 95.808594 72.746094 95.058594 C 73.019531 95.34375 73.359375 95.5625 73.726562 95.691406 C 73.878906 95.746094 73.980469 95.792969 74.113281 95.882812 C 74.464844 96.101562 74.808594 96.320312 75.160156 96.542969 C 75.414062 96.703125 75.664062 96.863281 75.921875 97.023438 C 77.375 97.941406 78.828125 98.863281 80.28125 99.78125 C 81.335938 100.449219 82.390625 101.113281 83.445312 101.78125 C 84.511719 102.457031 85.578125 103.128906 86.644531 103.800781 C 87.335938 104.242188 88.027344 104.679688 88.722656 105.117188 C 88.832031 105.1875 89.113281 105.296875 89.179688 105.40625 C 89.261719 105.539062 89.125 105.96875 89.101562 106.128906 C 89.035156 106.578125 88.960938 107.027344 88.882812 107.472656 C 88.804688 107.925781 88.722656 108.378906 88.632812 108.828125 L 78.015625 103.863281 L 79.859375 116.414062 L 72.066406 111.542969 L 70.515625 109.378906 C 70.492188 109.332031 70.574219 109.15625 70.589844 109.097656 C 70.664062 108.847656 70.738281 108.601562 70.808594 108.347656 Z M 88.957031 104.570312 C 89.039062 104.84375 89.125 105.113281 89.207031 105.386719 C 89.652344 101.984375 89.785156 98.53125 89.578125 95.105469 C 89.480469 93.476562 89.304688 91.851562 89.023438 90.246094 C 89 90.121094 88.976562 89.636719 88.878906 89.59375 C 88.800781 89.558594 88.605469 89.609375 88.523438 89.613281 C 88.109375 89.636719 87.691406 89.660156 87.277344 89.683594 C 86.6875 89.71875 86.101562 89.753906 85.515625 89.789062 C 85.386719 89.796875 85.132812 89.757812 85.015625 89.816406 C 84.941406 89.851562 84.917969 90.007812 84.878906 90.089844 C 84.828125 90.199219 84.652344 90.390625 84.636719 90.5 C 84.628906 90.574219 84.707031 90.714844 84.726562 90.789062 C 85.164062 92.210938 85.601562 93.632812 86.035156 95.054688 C 86.433594 96.339844 86.828125 97.625 87.21875 98.910156 C 87.800781 100.796875 88.378906 102.683594 88.957031 104.570312 " fill-opacity="1" fill-rule="nonzero"/></g><g clip-path="url(#90948e7272)"><path fill="#f36917" d="M 63.554688 105.394531 C 64.972656 106.207031 66.386719 107.015625 67.804688 107.828125 C 67.882812 107.875 68.222656 108 68.261719 108.089844 C 68.367188 108.351562 67.859375 109.378906 67.761719 109.652344 C 67.605469 110.109375 67.4375 110.566406 67.253906 111.011719 C 66.5 112.824219 65.316406 114.417969 63.972656 115.832031 C 64.378906 113.917969 64.753906 111.996094 65.128906 110.074219 C 63.890625 110.828125 62.65625 111.574219 61.433594 112.351562 C 60.695312 112.816406 59.964844 113.285156 59.230469 113.761719 C 59.050781 113.878906 58.867188 113.996094 58.6875 114.113281 C 58.210938 114.429688 58.226562 114.554688 57.761719 114.152344 C 58.699219 113.253906 59.699219 112.433594 60.765625 111.699219 C 61.324219 111.316406 61.898438 110.957031 62.476562 110.609375 C 62.953125 110.328125 63.324219 109.972656 62.46875 110.210938 C 61.261719 110.546875 60.109375 111.074219 59.039062 111.722656 C 58.511719 112.042969 58.003906 112.394531 57.519531 112.777344 C 57.398438 112.871094 57.136719 113.15625 56.992188 113.21875 C 56.878906 113.414062 56.757812 113.40625 56.636719 113.195312 C 56.503906 113.085938 56.371094 112.976562 56.238281 112.871094 C 56.585938 112.585938 56.933594 112.304688 57.285156 112.023438 C 57.59375 111.769531 59.136719 110.714844 58.125 110.859375 C 57.605469 110.933594 57.070312 111.164062 56.59375 111.378906 C 56.304688 111.507812 56.027344 111.65625 55.753906 111.8125 C 55.359375 112.035156 55.421875 112.109375 55.042969 111.9375 C 54.558594 111.714844 54.109375 111.234375 53.671875 110.917969 C 53.121094 110.527344 52.558594 110.140625 51.988281 109.777344 C 56.144531 109.441406 59.890625 107.203125 63.554688 105.394531 Z M 51.683594 82.570312 C 52.257812 83.175781 52.769531 83.839844 53.195312 84.558594 C 53.566406 85.179688 54.113281 86.042969 54.195312 86.777344 C 54.261719 87.324219 53.839844 88.050781 53.636719 88.570312 C 53.328125 89.367188 52.996094 90.15625 52.648438 90.9375 C 52 92.394531 51.242188 93.621094 49.988281 94.636719 C 48.664062 95.710938 47.105469 96.453125 45.550781 97.128906 C 47.664062 95.054688 50.339844 92.574219 50.699219 89.449219 C 50.800781 88.578125 50.582031 87.75 50.453125 86.894531 C 50.316406 85.996094 50.214844 85.09375 50.132812 84.1875 C 50.039062 83.160156 49.964844 82.125 49.929688 81.09375 C 50.574219 81.5 51.160156 82.023438 51.683594 82.570312 Z M 7.019531 79.136719 C 8.292969 76.121094 9.84375 73.226562 11.644531 70.496094 C 11.527344 71.300781 11.695312 72.125 11.851562 72.910156 C 11.933594 73.308594 12.261719 74.027344 12.195312 74.402344 C 12.109375 74.902344 11.535156 75.574219 11.292969 76.03125 C 10.183594 78.113281 9.21875 80.277344 8.410156 82.496094 C 6.738281 87.089844 5.742188 91.925781 5.445312 96.808594 C 4.894531 105.988281 6.835938 115.246094 11.082031 123.402344 C 14.996094 130.921875 20.804688 137.421875 27.832031 142.148438 C 34.90625 146.910156 43.15625 149.84375 51.652344 150.574219 C 60.359375 151.324219 69.199219 149.835938 77.152344 146.203125 C 84.15625 143 90.398438 138.1875 95.296875 132.238281 C 100.214844 126.261719 103.746094 119.164062 105.519531 111.621094 C 107.386719 103.679688 107.316406 95.289062 105.316406 87.382812 C 103.378906 79.726562 99.632812 72.570312 94.464844 66.609375 C 89.339844 60.6875 82.855469 55.980469 75.632812 52.960938 C 74.777344 52.605469 73.914062 52.269531 73.042969 51.960938 C 72.945312 51.925781 72.363281 51.808594 72.304688 51.707031 C 72.25 51.609375 72.445312 51.109375 72.476562 50.992188 C 72.621094 50.410156 72.777344 49.832031 72.941406 49.253906 C 88.460938 54.4375 101.003906 66.808594 106.417969 82.277344 C 112.074219 98.453125 109.484375 116.875 99.558594 130.835938 C 89.917969 144.390625 74.203125 152.828125 57.585938 153.277344 C 40.871094 153.730469 24.664062 146.128906 14.285156 132.996094 C 3.738281 119.644531 0.199219 101.5625 4.882812 85.195312 C 5.46875 83.136719 6.183594 81.109375 7.019531 79.136719 Z M 51.480469 48.007812 C 51.449219 48.3125 51.476562 48.742188 51.378906 49.035156 C 51.277344 49.355469 51.507812 49.179688 51.09375 49.3125 C 50.953125 49.355469 50.710938 49.351562 50.574219 49.367188 C 49.878906 49.441406 49.1875 49.53125 48.5 49.636719 C 47.132812 49.839844 45.777344 50.101562 44.433594 50.417969 C 41.828125 51.035156 39.273438 51.855469 36.796875 52.878906 C 31.898438 54.898438 27.320312 57.699219 23.28125 61.136719 C 22.710938 61.621094 22.152344 62.117188 21.605469 62.625 C 21.074219 63.121094 20.578125 63.757812 19.996094 64.1875 C 19.484375 64.566406 18.449219 64.449219 17.78125 64.605469 C 16.910156 64.808594 16.066406 65.140625 15.296875 65.601562 C 22.25 57.324219 31.636719 51.261719 42.058594 48.410156 C 45.183594 47.554688 48.386719 46.992188 51.617188 46.726562 C 51.570312 47.152344 51.523438 47.582031 51.480469 48.007812 Z M 51.3125 79.039062 C 50.066406 78.976562 48.808594 79.035156 47.570312 79.230469 C 47.296875 79.273438 46.914062 79.429688 46.640625 79.40625 C 46.269531 79.375 45.851562 79.015625 45.484375 78.847656 C 43.324219 77.882812 40.816406 77.632812 38.484375 77.449219 C 40.996094 76.546875 43.59375 75.695312 46.296875 76.164062 C 48.269531 76.503906 49.972656 77.574219 51.3125 79.039062 Z M 21.585938 133.019531 C 21.746094 132.714844 21.910156 132.414062 22.082031 132.113281 C 22.296875 131.738281 22.234375 131.664062 22.589844 131.753906 C 22.914062 131.835938 23.285156 132.144531 23.578125 132.308594 C 24.316406 132.722656 25.054688 133.144531 25.789062 133.566406 C 27.554688 134.589844 29.308594 135.632812 31.035156 136.722656 C 32.628906 137.730469 34.210938 138.761719 35.695312 139.925781 C 36.445312 140.511719 37.691406 141.335938 37.945312 142.324219 C 38.59375 141.019531 39.242188 139.714844 39.890625 138.40625 C 40.613281 139.703125 41.332031 141 42.050781 142.292969 C 42.523438 143.140625 42.992188 143.988281 43.460938 144.832031 C 43.730469 145.3125 44.035156 145.722656 44.09375 146.269531 C 35.542969 144.050781 27.691406 139.410156 21.585938 133.019531 Z M 44.125 138.601562 C 43.65625 136.84375 43.984375 135.175781 44.253906 133.417969 C 44.449219 132.183594 44.699219 130.960938 44.9375 129.734375 C 41.921875 131.023438 38.949219 132.4375 37.253906 135.4375 C 37.035156 135.273438 37.960938 133.375 38 133.308594 C 38.300781 132.722656 38.675781 132.171875 39.101562 131.667969 C 39.28125 131.457031 40.375 130.625 40.375 130.414062 C 40.375 129.992188 39.25 130.722656 39.058594 130.847656 C 38.53125 131.195312 38.054688 131.609375 37.636719 132.085938 C 36.980469 132.839844 36.519531 133.707031 36.183594 134.648438 C 35.894531 134.4375 35.539062 134.300781 35.527344 133.988281 C 35.515625 133.722656 35.78125 133.234375 35.878906 132.988281 C 36.074219 132.480469 36.292969 131.984375 36.511719 131.488281 C 36.769531 130.90625 36.652344 130.769531 36.082031 131.265625 C 35.394531 131.859375 34.855469 132.625 34.464844 133.441406 C 31.476562 131.398438 28.140625 129.34375 24.625 128.371094 C 25.476562 127.304688 26.398438 126.296875 27.378906 125.34375 C 27.847656 124.886719 28.332031 124.445312 28.824219 124.011719 C 29.285156 123.609375 29.402344 123.558594 29.972656 123.59375 C 31.644531 123.710938 33.3125 123.867188 34.976562 124.082031 C 36.84375 124.328125 38.714844 124.632812 40.535156 125.128906 C 41.875 125.492188 43.476562 125.945312 44.484375 126.964844 C 44.695312 127.175781 44.664062 127.230469 44.90625 127.230469 C 45.167969 127.226562 45.570312 126.976562 45.8125 126.886719 C 46.40625 126.660156 47 126.433594 47.597656 126.210938 C 47.621094 126.832031 47.648438 127.453125 47.675781 128.074219 C 47.6875 128.4375 47.746094 128.828125 47.71875 129.191406 C 47.691406 129.605469 47.511719 129.722656 47.234375 130.082031 C 45.273438 132.625 44.488281 135.449219 44.125 138.601562 Z M 54.042969 147.011719 C 54.210938 147.277344 54.402344 147.527344 54.601562 147.769531 C 52.457031 147.703125 50.320312 147.496094 48.203125 147.140625 C 47.828125 147.078125 47.183594 147.097656 46.867188 146.898438 C 46.605469 146.738281 46.648438 146.289062 46.613281 145.941406 C 46.515625 145.015625 46.457031 144.089844 46.441406 143.15625 C 46.367188 139.671875 46.578125 135.691406 48.488281 132.667969 C 50.28125 129.824219 53.070312 127.695312 55.726562 125.710938 C 58.609375 123.554688 61.605469 121.523438 64.265625 119.085938 C 65.667969 117.800781 66.980469 116.398438 68.046875 114.816406 C 69.175781 113.144531 69.914062 111.296875 70.511719 109.378906 C 73.195312 110.914062 75.882812 112.453125 78.566406 113.988281 C 77.792969 109.886719 77.019531 105.785156 76.25 101.683594 C 76.136719 101.101562 76.027344 100.515625 75.917969 99.933594 C 80 102.789062 84.082031 105.644531 88.160156 108.5 C 88.269531 108.574219 88.566406 108.707031 88.628906 108.828125 C 88.710938 108.984375 88.488281 109.507812 88.445312 109.691406 C 88.363281 110.070312 88.269531 110.445312 88.175781 110.820312 C 87.980469 111.585938 87.761719 112.351562 87.515625 113.101562 C 86.710938 115.554688 85.558594 117.839844 84.15625 119.996094 C 81.394531 124.242188 77.90625 127.941406 74.667969 131.8125 C 71.617188 135.460938 68.175781 139.652344 67.589844 144.554688 C 66.980469 136.953125 74.667969 132.121094 78.109375 126.261719 C 78.558594 125.492188 78.964844 124.695312 79.292969 123.863281 C 79.414062 123.550781 80.207031 121.710938 79.90625 121.460938 C 79.800781 121.378906 79.195312 123.101562 79.097656 123.332031 C 78.734375 124.171875 78.292969 124.972656 77.796875 125.738281 C 75.78125 128.847656 72.972656 131.3125 70.601562 134.132812 C 67.921875 137.324219 65.746094 141.339844 66.480469 145.644531 C 64.898438 145.117188 63.429688 144.160156 62.625 142.660156 C 61.644531 140.835938 61.789062 138.585938 62.339844 136.648438 C 63.289062 133.292969 65.582031 130.40625 68.105469 128.078125 C 68.695312 127.53125 69.308594 127.003906 69.957031 126.527344 C 68.113281 127.367188 66.355469 128.453125 64.730469 129.652344 C 61.832031 131.789062 59.019531 134.628906 58.242188 138.273438 C 57.671875 140.933594 58.296875 143.632812 59.785156 145.878906 C 58.15625 144.292969 57.054688 142.234375 56.664062 139.988281 C 56.453125 138.777344 56.445312 137.527344 56.632812 136.308594 C 56.71875 135.746094 57.070312 135.035156 57.066406 134.488281 C 57.0625 133.882812 56.792969 134.453125 56.660156 134.761719 C 54.675781 139.253906 56.171875 144.59375 59.941406 147.644531 C 59.390625 147.6875 58.65625 147.121094 58.21875 146.820312 C 57.082031 146.035156 56.117188 144.996094 55.394531 143.816406 C 55.296875 143.660156 54.824219 142.53125 54.636719 142.628906 C 54.332031 142.785156 54.996094 144.320312 55.097656 144.554688 C 55.644531 145.8125 56.519531 146.917969 57.585938 147.773438 C 57.082031 147.789062 56.558594 147.875 56.125 147.632812 C 55.78125 147.4375 55.457031 147.066406 55.183594 146.78125 C 54.621094 146.199219 54.125 145.550781 53.707031 144.863281 C 53.445312 144.4375 52.726562 143.023438 52.988281 144.429688 C 53.160156 145.347656 53.535156 146.230469 54.042969 147.011719 Z M 19.597656 68.710938 C 18.429688 69.023438 17.917969 70.261719 16.605469 69.789062 C 17.347656 68.792969 18.355469 68.117188 19.597656 68.710938 Z M 71.671875 56.699219 C 71.71875 57.058594 70.816406 57.949219 70.554688 58.234375 C 69.644531 59.226562 68.554688 60.066406 67.351562 60.660156 C 65.558594 61.542969 63.539062 61.816406 61.578125 61.429688 C 60.449219 61.207031 59.371094 60.78125 58.367188 60.21875 C 57.457031 59.710938 56.46875 59.316406 55.617188 58.707031 C 54.871094 58.171875 54.191406 57.496094 53.734375 56.691406 C 53.589844 56.445312 53.578125 56.277344 53.363281 56.171875 C 53.136719 56.0625 52.710938 56.105469 52.464844 56.089844 C 51.925781 56.050781 51.386719 56.035156 50.847656 56.035156 C 47.4375 56.035156 43.859375 56.628906 40.738281 58.035156 C 36.507812 59.941406 32.898438 63.699219 30.363281 67.527344 C 31.449219 68.035156 32.535156 68.539062 33.617188 69.046875 C 30.492188 69.585938 27.078125 68.953125 24.121094 67.929688 C 22.160156 67.253906 20.304688 66.5625 18.207031 67.101562 C 16.675781 67.496094 15.230469 68.511719 14.476562 69.929688 C 13.820312 71.164062 14.339844 72.582031 14.660156 73.851562 C 17.117188 72.8125 19.792969 71.894531 22.488281 71.835938 C 23.855469 71.804688 25.171875 72.179688 26.523438 72.332031 C 27.746094 72.472656 28.976562 72.492188 30.207031 72.433594 C 32.925781 72.300781 35.445312 71.484375 38.070312 70.796875 C 39.070312 70.53125 40.070312 70.269531 41.074219 70.003906 C 39.671875 68.734375 37.183594 68.414062 35.421875 68.132812 C 37.328125 66.375 39.515625 64.75 41.886719 63.683594 C 42.652344 63.339844 43.457031 63.050781 44.289062 62.925781 C 45.3125 62.773438 46.339844 62.988281 47.367188 62.972656 C 49.359375 62.941406 51.425781 62.5625 53.277344 61.8125 C 53.300781 63.9375 52.519531 65.964844 50.914062 67.390625 C 55.398438 67.507812 59.933594 68.542969 64.226562 69.757812 C 67.550781 70.699219 70.839844 71.765625 74.207031 72.554688 C 77.226562 73.257812 80.523438 73.925781 83.59375 73.132812 C 85.453125 72.648438 86.824219 71.488281 88.34375 70.375 C 85.84375 70.1875 83.398438 69.402344 81.25 68.105469 C 80.144531 67.4375 79.117188 66.636719 78.203125 65.722656 C 77.746094 65.265625 77.375 64.6875 76.90625 64.257812 C 76.785156 64.148438 75.703125 63.535156 75.953125 63.34375 C 76.109375 63.226562 77.058594 63.839844 77.269531 63.921875 C 77.949219 64.183594 78.667969 64.359375 79.390625 64.453125 C 80.265625 64.566406 81.640625 64.714844 82.382812 64.144531 C 83.273438 63.464844 84.027344 62.4375 84.808594 61.625 C 80.980469 60.191406 77.152344 58.753906 73.324219 57.316406 C 72.773438 57.109375 72.222656 56.90625 71.671875 56.699219 Z M 65.199219 86.085938 C 67.242188 87.992188 68.710938 90.601562 70.035156 93.035156 C 68.375 93.132812 66.71875 93.359375 65.195312 94.082031 C 64.851562 92.292969 64.484375 90.5 63.777344 88.8125 C 63.078125 87.140625 62.066406 85.582031 60.90625 84.195312 C 63.304688 84.582031 65.714844 85.605469 67.714844 86.976562 C 66.597656 86.359375 65.4375 85.789062 64.234375 85.347656 C 64.589844 85.550781 64.90625 85.8125 65.199219 86.085938 Z M 82.007812 88.46875 C 79.753906 88.601562 77.296875 89.511719 75.636719 91.066406 C 74.171875 86.964844 72.128906 83.34375 68.601562 80.675781 C 72.78125 80.382812 76.894531 81.824219 80.109375 84.445312 C 79.789062 84.253906 79.46875 84.0625 79.148438 83.871094 C 80.167969 85.398438 81.191406 86.929688 82.210938 88.457031 C 82.144531 88.460938 82.074219 88.464844 82.007812 88.46875 Z M 46.527344 120.800781 C 46.679688 120.960938 45.8125 121.710938 45.699219 121.855469 C 45.570312 122.027344 45.316406 122.332031 45.253906 122.546875 C 45.066406 122.738281 45.105469 122.867188 45.378906 122.941406 C 45.484375 123.128906 45.570312 123.175781 45.640625 123.078125 C 45.894531 123.023438 46.527344 122.195312 46.753906 122.003906 C 47.273438 121.5625 47.832031 121.160156 48.417969 120.808594 C 49 120.460938 49.609375 120.160156 50.246094 119.921875 C 50.496094 119.828125 51.476562 119.363281 51.367188 119.8125 C 51.320312 119.984375 50.507812 120.375 50.34375 120.488281 C 50.097656 120.660156 49.851562 120.839844 49.609375 121.019531 C 48.96875 121.507812 48.355469 122.03125 47.777344 122.597656 C 49.785156 121.65625 51.792969 120.71875 53.800781 119.777344 C 53.460938 121.476562 53.179688 123.214844 52.667969 124.871094 C 54.449219 123.472656 56.296875 122.167969 58.113281 120.816406 C 58.789062 120.3125 58.777344 119.179688 58.949219 118.375 C 58.214844 118.921875 57.480469 119.46875 56.742188 120.019531 C 56.40625 118.804688 55.5625 117.710938 54.640625 116.890625 C 53.167969 115.582031 51.453125 115.171875 49.542969 114.941406 C 47.625 114.710938 45.679688 114.667969 43.75 114.691406 C 42.605469 114.707031 41.285156 115.789062 40.296875 116.339844 C 38.953125 117.089844 37.613281 117.859375 36.296875 118.664062 C 38.277344 119.167969 40.175781 119.929688 41.984375 120.875 C 42.417969 121.101562 42.847656 121.335938 43.265625 121.585938 C 43.464844 121.703125 43.664062 121.820312 43.863281 121.941406 C 44.160156 122.125 44.09375 122.132812 44.328125 121.992188 C 44.691406 121.769531 44.949219 121.359375 45.34375 121.136719 C 45.535156 121.027344 46.332031 120.589844 46.527344 120.800781 " fill-opacity="1" fill-rule="nonzero"/></g></svg>