<svg xmlns="http://www.w3.org/2000/svg" xmlns:xlink="http://www.w3.org/1999/xlink" width="130" zoomAndPan="magnify" viewBox="0 0 97.5 131.999998" height="176" preserveAspectRatio="xMidYMid meet" version="1.0"><defs><clipPath id="488ee63683"><path d="M 4.238281 10.035156 L 92.605469 10.035156 L 92.605469 121.964844 L 4.238281 121.964844 Z M 4.238281 10.035156 " clip-rule="nonzero"/></clipPath></defs><g clip-path="url(#488ee63683)"><path fill="#321614" d="M 7.53125 60.640625 C 9.761719 55.386719 12.953125 50.667969 17.019531 46.613281 C 21.085938 42.5625 25.820312 39.378906 31.09375 37.15625 C 35.535156 35.28125 40.207031 34.160156 45.011719 33.808594 C 45.757812 28.269531 46.851562 24.675781 48.328125 22.851562 C 51.957031 18.382812 59.648438 13.847656 59.972656 13.65625 L 66.148438 10.035156 L 62.75 16.320312 C 62.730469 16.359375 61.972656 17.777344 61 19.878906 C 65.648438 17.671875 71.195312 16.28125 71.484375 16.207031 L 78.433594 14.480469 L 73.390625 19.550781 C 73.308594 19.632812 65.085938 27.945312 62.84375 34.222656 C 62.632812 34.820312 62.441406 35.386719 62.265625 35.917969 C 63.378906 36.289062 64.476562 36.699219 65.566406 37.15625 C 70.835938 39.378906 75.574219 42.5625 79.636719 46.613281 C 83.703125 50.667969 86.894531 55.386719 89.125 60.640625 C 91.4375 66.085938 92.605469 71.867188 92.605469 77.824219 C 92.605469 83.78125 91.4375 89.5625 89.125 95.007812 C 86.894531 100.261719 83.703125 104.984375 79.636719 109.035156 C 75.574219 113.085938 70.835938 116.269531 65.566406 118.492188 C 60.101562 120.796875 54.304688 121.964844 48.328125 121.964844 C 42.351562 121.964844 36.554688 120.796875 31.09375 118.492188 C 25.820312 116.269531 21.085938 113.085938 17.019531 109.035156 C 12.953125 104.984375 9.761719 100.261719 7.53125 95.007812 C 5.222656 89.5625 4.050781 83.78125 4.050781 77.824219 C 4.050781 71.867188 5.222656 66.085938 7.53125 60.640625 " fill-opacity="1" fill-rule="nonzero"/></g><path fill="#afb0a8" d="M 47.882812 37.105469 C 47.941406 37.113281 48 37.113281 48.0625 37.117188 C 48.21875 37.128906 48.375 37.128906 48.53125 37.125 C 48.699219 37.121094 48.863281 37.109375 49.023438 37.089844 C 48.949219 37.289062 48.875 37.488281 48.800781 37.683594 C 48.757812 37.800781 48.714844 37.921875 48.671875 38.039062 C 48.648438 38.035156 48.625 38.035156 48.601562 38.03125 C 48.480469 38.015625 48.367188 37.996094 48.25 37.976562 C 48.101562 37.945312 47.957031 37.914062 47.8125 37.871094 C 47.742188 37.851562 47.671875 37.832031 47.605469 37.808594 C 47.5 37.773438 47.398438 37.730469 47.292969 37.691406 C 47.089844 37.605469 46.886719 37.515625 46.699219 37.40625 L 46.613281 37.355469 C 46.632812 37.183594 46.648438 37.015625 46.664062 36.84375 C 47.0625 36.976562 47.472656 37.066406 47.882812 37.105469 Z M 30.605469 82.96875 C 30.542969 83.023438 30.476562 83.078125 30.40625 83.128906 C 30.183594 83.292969 30.042969 83.328125 29.976562 83.335938 C 29.941406 83.339844 29.898438 83.34375 29.863281 83.34375 C 29.628906 83.34375 29.378906 83.28125 29.191406 83.21875 L 29.320312 81.90625 Z M 32.824219 80.851562 L 32 81.601562 C 31.902344 81.515625 31.820312 81.398438 31.761719 81.300781 C 31.578125 81 31.453125 80.621094 31.367188 80.277344 C 31.699219 80.441406 32.042969 80.585938 32.386719 80.710938 C 32.542969 80.765625 32.691406 80.8125 32.824219 80.851562 Z M 34.671875 78.292969 C 34.738281 78.289062 34.808594 78.289062 34.878906 78.289062 L 35.046875 78.289062 C 35.128906 78.289062 35.210938 78.289062 35.292969 78.289062 L 34.449219 79.113281 L 34.449219 78.304688 C 34.515625 78.300781 34.585938 78.296875 34.671875 78.292969 Z M 25.535156 61.023438 C 25.421875 61.132812 25.3125 61.234375 25.214844 61.328125 L 24.832031 60.628906 L 25.851562 60.742188 C 25.75 60.828125 25.648438 60.921875 25.535156 61.023438 Z M 16.652344 60.742188 C 17.003906 60.457031 17.4375 60.292969 17.886719 60.273438 C 17.714844 61.03125 17.945312 61.996094 18.167969 62.679688 C 17.074219 62.214844 16.742188 61.226562 16.644531 60.75 Z M 27.429688 82.535156 L 27.335938 82.816406 C 27.226562 82.8125 27.082031 82.800781 26.929688 82.761719 C 26.765625 82.722656 26.621094 82.664062 26.492188 82.585938 C 26.476562 82.578125 26.421875 82.535156 26.328125 82.402344 C 26.195312 82.207031 26.070312 81.925781 25.964844 81.636719 C 26.320312 81.882812 26.714844 82.140625 27.078125 82.347656 C 27.207031 82.417969 27.324219 82.484375 27.429688 82.535156 Z M 22.066406 60.78125 C 22.050781 61.410156 22.222656 62.105469 22.394531 62.640625 C 21.363281 62.105469 20.820312 60.929688 20.566406 60.1875 C 20.558594 60.164062 20.550781 60.140625 20.542969 60.121094 L 22.125 60.269531 C 22.089844 60.429688 22.070312 60.597656 22.066406 60.78125 Z M 30.0625 61.605469 C 29.78125 61.972656 29.527344 62.230469 29.328125 62.402344 L 28.925781 61.0625 L 30.359375 61.183594 C 30.261719 61.332031 30.160156 61.472656 30.0625 61.605469 Z M 37.234375 75.769531 C 37.28125 75.765625 37.332031 75.761719 37.382812 75.757812 L 37.441406 75.757812 C 37.5625 75.75 37.679688 75.746094 37.796875 75.742188 C 37.613281 75.9375 37.507812 76.050781 37.457031 76.117188 L 37.421875 76.152344 C 37.390625 76.1875 37.359375 76.222656 37.351562 76.230469 C 37.3125 76.273438 37.164062 76.425781 36.996094 76.597656 L 36.996094 75.792969 C 37.0625 75.785156 37.144531 75.777344 37.234375 75.769531 Z M 39.753906 73.25 L 39.777344 73.246094 C 39.847656 73.234375 39.917969 73.230469 39.988281 73.222656 L 40.015625 73.21875 C 40.113281 73.210938 40.210938 73.199219 40.304688 73.191406 C 40.277344 73.230469 40.101562 73.441406 40.101562 73.441406 C 40.054688 73.496094 40.011719 73.550781 39.980469 73.59375 C 39.96875 73.605469 39.898438 73.683594 39.886719 73.703125 C 39.816406 73.789062 39.683594 73.929688 39.539062 74.082031 L 39.542969 73.277344 C 39.609375 73.265625 39.679688 73.257812 39.753906 73.25 Z M 37.535156 51.695312 C 37.503906 51.695312 37.472656 51.695312 37.441406 51.695312 C 37.707031 51.589844 38.007812 51.507812 38.304688 51.4375 C 38.070312 51.609375 37.8125 51.695312 37.535156 51.695312 Z M 33.183594 61.289062 C 33.71875 61.335938 34.234375 61.40625 34.578125 61.453125 C 34.546875 61.625 34.496094 61.796875 34.425781 61.96875 C 34.300781 62.289062 34.128906 62.5625 33.972656 62.773438 Z M 37.972656 63.328125 C 37.8125 63.03125 37.585938 62.613281 37.378906 62.21875 C 37.292969 62.0625 37.226562 61.929688 37.167969 61.816406 C 37.769531 61.910156 38.421875 62.152344 38.800781 62.304688 C 38.734375 62.445312 38.660156 62.578125 38.578125 62.703125 C 38.378906 63 38.152344 63.199219 37.972656 63.328125 Z M 46.808594 40.929688 C 46.808594 40.929688 46.769531 40.917969 46.769531 40.917969 C 46.789062 40.65625 46.808594 40.382812 46.828125 40.105469 C 46.855469 39.726562 46.886719 39.335938 46.921875 38.9375 C 47.070312 38.972656 47.214844 39.003906 47.363281 39.023438 C 47.386719 39.027344 47.414062 39.03125 47.4375 39.03125 C 47.484375 38.886719 47.527344 38.742188 47.574219 38.597656 C 47.730469 38.613281 47.882812 38.621094 48.039062 38.621094 C 48.179688 38.621094 48.324219 38.617188 48.464844 38.601562 C 48.273438 39.113281 48.105469 39.59375 47.953125 40.027344 C 47.722656 40.671875 47.539062 41.21875 47.394531 41.640625 C 47.316406 41.589844 47.230469 41.546875 47.140625 41.503906 C 47.007812 41.445312 46.863281 41.398438 46.714844 41.367188 C 46.757812 41.222656 46.800781 41.082031 46.84375 40.9375 C 46.832031 40.9375 46.820312 40.929688 46.808594 40.929688 Z M 42.472656 70.34375 C 42.628906 70.316406 42.789062 70.292969 42.945312 70.273438 C 42.941406 70.28125 42.9375 70.289062 42.933594 70.296875 C 42.824219 70.460938 42.734375 70.589844 42.660156 70.679688 C 42.527344 70.855469 42.382812 71.023438 42.238281 71.1875 L 42.238281 70.386719 C 42.3125 70.371094 42.386719 70.359375 42.472656 70.34375 Z M 51.675781 42.179688 C 52.273438 42.375 52.890625 42.496094 53.511719 42.550781 C 53.71875 42.566406 53.925781 42.574219 54.128906 42.574219 C 54.476562 42.574219 54.824219 42.550781 55.152344 42.5 L 55.214844 42.492188 C 55.265625 42.484375 55.320312 42.476562 55.371094 42.46875 C 55.457031 42.453125 55.53125 42.414062 55.59375 42.367188 C 55.640625 42.140625 55.691406 41.90625 55.738281 41.671875 C 55.65625 41.523438 55.503906 41.417969 55.328125 41.402344 C 55.277344 41.394531 55.230469 41.390625 55.179688 41.382812 L 55.101562 41.375 C 54.59375 41.3125 54.152344 41.230469 53.75 41.121094 C 53.25 40.992188 52.753906 40.820312 52.285156 40.605469 C 51.808594 40.390625 51.359375 40.140625 50.953125 39.863281 L 50.679688 39.671875 C 50.894531 39.082031 51.113281 38.492188 51.332031 37.917969 C 51.449219 37.601562 51.574219 37.277344 51.703125 36.949219 C 51.761719 36.796875 51.820312 36.648438 51.878906 36.496094 C 52.527344 36.925781 53.28125 37.222656 54.070312 37.363281 C 54.269531 37.398438 54.472656 37.425781 54.679688 37.441406 C 54.886719 37.457031 55.101562 37.464844 55.320312 37.464844 C 55.460938 37.464844 55.601562 37.464844 55.738281 37.457031 C 55.992188 37.445312 56.25 37.421875 56.507812 37.390625 C 56.570312 37.382812 56.628906 37.375 56.691406 37.367188 L 56.753906 37.355469 C 56.792969 37.199219 56.832031 37.042969 56.875 36.886719 C 57.039062 36.859375 57.199219 36.824219 57.363281 36.792969 C 57.484375 36.769531 57.605469 36.75 57.726562 36.722656 C 58.035156 36.65625 58.34375 36.582031 58.652344 36.503906 C 58.699219 36.488281 58.730469 36.441406 58.714844 36.390625 C 58.703125 36.347656 58.664062 36.320312 58.625 36.324219 C 58.238281 36.335938 57.855469 36.355469 57.476562 36.371094 C 57.320312 36.378906 57.160156 36.386719 57.007812 36.390625 C 57.046875 36.238281 57.085938 36.085938 57.128906 35.9375 C 57.085938 35.9375 57.039062 35.941406 56.996094 35.941406 C 56.929688 35.945312 56.863281 35.945312 56.796875 35.945312 L 56.421875 35.945312 C 56.324219 35.945312 56.222656 35.941406 56.125 35.9375 L 56.0625 35.9375 C 55.960938 35.929688 55.855469 35.925781 55.75 35.917969 C 55.410156 35.894531 55.101562 35.855469 54.804688 35.796875 C 54.679688 35.773438 54.550781 35.746094 54.429688 35.714844 C 54.378906 35.703125 54.328125 35.683594 54.277344 35.667969 L 54.191406 35.640625 C 53.660156 35.46875 53.179688 35.214844 52.800781 34.90625 C 52.730469 34.847656 52.664062 34.789062 52.59375 34.722656 C 52.6875 34.5 52.78125 34.277344 52.878906 34.050781 C 53.648438 32.230469 54.402344 30.609375 55.125 29.222656 L 55.214844 29.304688 L 55.238281 29.320312 C 55.527344 29.554688 55.839844 29.769531 56.167969 29.96875 C 56.449219 30.136719 56.714844 30.28125 56.976562 30.402344 C 57.011719 30.417969 57.046875 30.433594 57.085938 30.445312 L 57.136719 30.46875 C 57.625 30.679688 58.132812 30.839844 58.644531 30.949219 C 58.695312 30.8125 58.75 30.671875 58.8125 30.527344 C 58.882812 30.542969 58.953125 30.558594 59.023438 30.570312 C 59.105469 30.585938 59.1875 30.59375 59.269531 30.605469 C 59.828125 30.679688 60.390625 30.695312 60.941406 30.621094 C 60.992188 30.613281 61.027344 30.566406 61.019531 30.515625 C 61.015625 30.476562 60.980469 30.445312 60.941406 30.4375 C 60.453125 30.375 59.976562 30.277344 59.515625 30.144531 C 59.394531 30.109375 59.277344 30.074219 59.160156 30.035156 C 59.132812 30.023438 59.105469 30.011719 59.078125 30.003906 C 59.148438 29.875 59.226562 29.742188 59.308594 29.609375 C 59.304688 29.609375 59.304688 29.609375 59.300781 29.609375 L 59.222656 29.582031 C 58.710938 29.402344 58.21875 29.175781 57.757812 28.90625 L 57.734375 28.890625 C 57.457031 28.726562 57.179688 28.539062 56.90625 28.328125 C 56.71875 28.179688 56.558594 28.046875 56.425781 27.925781 L 56.121094 27.628906 L 56.046875 27.554688 C 56.261719 27.1875 56.472656 26.84375 56.679688 26.527344 C 57.335938 25.519531 57.957031 24.742188 58.53125 24.207031 C 58.640625 24.101562 58.753906 24.003906 58.867188 23.914062 L 59.238281 24.023438 L 59.273438 24.03125 C 59.78125 24.1875 60.292969 24.382812 60.792969 24.613281 C 61.300781 24.851562 61.800781 25.128906 62.277344 25.4375 C 62.402344 25.519531 62.523438 25.601562 62.648438 25.6875 C 62.757812 25.582031 62.867188 25.476562 62.976562 25.371094 C 63.101562 25.460938 63.222656 25.550781 63.34375 25.644531 C 63.550781 25.800781 63.753906 25.960938 63.953125 26.125 C 63.992188 26.160156 64.050781 26.152344 64.085938 26.113281 C 64.109375 26.082031 64.113281 26.039062 64.089844 26.003906 C 63.941406 25.789062 63.777344 25.589844 63.605469 25.394531 C 63.507812 25.28125 63.410156 25.167969 63.308594 25.058594 C 63.417969 24.960938 63.527344 24.859375 63.636719 24.757812 C 63.636719 24.757812 63.632812 24.753906 63.632812 24.75 C 63.464844 24.574219 63.308594 24.425781 63.160156 24.289062 C 62.679688 23.855469 62.148438 23.460938 61.585938 23.125 C 61.339844 22.976562 61.082031 22.839844 60.816406 22.710938 C 61.921875 22.117188 63.234375 21.519531 64.730469 20.9375 C 64.902344 21.074219 65.0625 21.214844 65.207031 21.355469 C 65.472656 21.613281 65.730469 21.90625 65.953125 22.164062 C 66.035156 22.25 66.113281 22.34375 66.191406 22.433594 L 66.246094 22.496094 C 66.359375 22.402344 66.476562 22.300781 66.59375 22.207031 C 66.691406 22.320312 66.789062 22.433594 66.890625 22.542969 C 66.953125 22.609375 67.011719 22.675781 67.074219 22.742188 C 67.113281 22.777344 67.171875 22.78125 67.207031 22.742188 C 67.234375 22.71875 67.242188 22.679688 67.230469 22.644531 C 67.195312 22.550781 67.15625 22.453125 67.117188 22.359375 C 67.058594 22.21875 66.996094 22.074219 66.929688 21.933594 C 67.050781 21.835938 67.171875 21.742188 67.292969 21.644531 C 67.246094 21.550781 67.203125 21.453125 67.152344 21.351562 C 66.945312 20.945312 66.730469 20.59375 66.503906 20.277344 C 67.050781 20.085938 67.617188 19.894531 68.195312 19.707031 C 68.277344 19.777344 68.359375 19.851562 68.433594 19.933594 L 68.453125 19.949219 C 68.539062 20.027344 68.617188 20.117188 68.707031 20.222656 C 68.757812 20.28125 68.808594 20.339844 68.871094 20.410156 C 68.871094 20.410156 68.871094 20.410156 68.875 20.410156 C 68.996094 20.316406 69.121094 20.21875 69.242188 20.128906 C 69.273438 20.140625 69.308594 20.136719 69.335938 20.113281 C 69.359375 20.09375 69.367188 20.066406 69.367188 20.039062 C 69.367188 20.039062 69.367188 20.035156 69.367188 20.035156 C 69.515625 19.925781 69.652344 19.820312 69.789062 19.71875 C 69.765625 19.558594 69.730469 19.402344 69.679688 19.246094 C 69.988281 19.15625 70.273438 19.070312 70.535156 18.996094 C 70.382812 19.160156 70.214844 19.339844 70.039062 19.53125 C 71.203125 18.671875 71.96875 18.144531 71.96875 18.144531 C 71.96875 18.144531 71.324219 18.789062 70.34375 19.867188 C 69.976562 20.265625 69.566406 20.722656 69.125 21.230469 C 68.851562 21.542969 68.566406 21.875 68.273438 22.21875 C 67.832031 22.738281 67.375 23.296875 66.910156 23.878906 C 66.597656 24.265625 66.285156 24.667969 65.972656 25.078125 C 65.503906 25.691406 65.039062 26.324219 64.585938 26.972656 C 64.28125 27.40625 63.988281 27.84375 63.699219 28.285156 C 62.839844 29.605469 62.070312 30.957031 61.480469 32.265625 C 61.292969 32.679688 61.128906 33.09375 60.980469 33.5 L 60.96875 33.5 L 60.542969 33.539062 C 59.96875 33.585938 59.390625 33.574219 58.8125 33.507812 C 58.648438 33.492188 58.480469 33.464844 58.316406 33.441406 C 58.167969 33.414062 58.019531 33.386719 57.875 33.355469 C 57.917969 33.214844 57.964844 33.070312 58.007812 32.925781 C 57.996094 32.921875 57.980469 32.921875 57.964844 32.917969 C 57.707031 32.863281 57.457031 32.800781 57.222656 32.730469 C 57.15625 32.710938 57.089844 32.6875 57.023438 32.667969 L 56.972656 32.652344 C 56.660156 32.550781 56.347656 32.429688 56.042969 32.292969 C 55.90625 32.234375 55.765625 32.167969 55.632812 32.105469 C 55.558594 32.066406 55.476562 32.046875 55.394531 32.046875 C 55.183594 32.046875 55 32.164062 54.90625 32.347656 C 54.800781 32.566406 54.851562 32.828125 55.035156 32.992188 C 55.1875 33.125 55.355469 33.257812 55.570312 33.410156 C 55.886719 33.636719 56.230469 33.84375 56.597656 34.03125 L 56.628906 34.046875 C 56.652344 34.054688 56.671875 34.066406 56.695312 34.082031 C 56.957031 34.203125 57.226562 34.316406 57.527344 34.421875 C 57.535156 34.425781 57.542969 34.429688 57.554688 34.429688 C 57.59375 34.289062 57.636719 34.144531 57.679688 34.003906 C 57.820312 34.050781 57.964844 34.097656 58.105469 34.140625 C 58.296875 34.195312 58.488281 34.246094 58.683594 34.289062 C 59.300781 34.421875 59.941406 34.484375 60.582031 34.476562 L 60.640625 34.472656 C 60.539062 34.765625 60.441406 35.054688 60.351562 35.332031 C 60.289062 35.53125 60.222656 35.726562 60.164062 35.917969 C 60.125 36.042969 60.089844 36.164062 60.050781 36.285156 C 59.949219 36.617188 59.855469 36.933594 59.765625 37.242188 C 59.746094 37.3125 59.722656 37.382812 59.707031 37.453125 C 59.628906 37.71875 59.5625 37.96875 59.5 38.210938 C 59.484375 38.261719 59.46875 38.316406 59.457031 38.367188 C 59.382812 38.652344 59.316406 38.917969 59.257812 39.171875 C 59.253906 39.179688 59.25 39.191406 59.25 39.199219 C 59.21875 39.332031 59.1875 39.457031 59.160156 39.582031 C 59.082031 39.9375 59.011719 40.265625 58.957031 40.566406 C 58.835938 40.625 58.714844 40.683594 58.601562 40.746094 C 58.394531 40.855469 58.191406 40.980469 57.992188 41.105469 C 57.9375 41.144531 57.882812 41.183594 57.828125 41.21875 C 57.683594 41.316406 57.542969 41.414062 57.410156 41.53125 C 57.367188 41.566406 57.363281 41.625 57.398438 41.667969 C 57.417969 41.691406 57.445312 41.703125 57.472656 41.699219 C 57.71875 41.695312 57.957031 41.660156 58.191406 41.625 C 58.394531 41.589844 58.59375 41.554688 58.792969 41.507812 C 58.777344 41.621094 58.761719 41.730469 58.746094 41.832031 C 58.695312 42.207031 58.667969 42.5 58.65625 42.714844 C 58.644531 42.84375 58.640625 42.945312 58.640625 43.019531 C 58.636719 43.078125 58.636719 43.121094 58.636719 43.148438 C 58.636719 43.171875 58.636719 43.179688 58.636719 43.179688 C 58.636719 43.179688 58.632812 43.191406 58.625 43.199219 C 58.625 43.203125 58.625 43.203125 58.621094 43.203125 C 58.613281 43.214844 58.597656 43.234375 58.582031 43.257812 C 58.578125 43.261719 58.574219 43.265625 58.574219 43.269531 C 58.554688 43.292969 58.53125 43.320312 58.503906 43.351562 C 58.5 43.359375 58.496094 43.359375 58.492188 43.367188 C 58.464844 43.402344 58.429688 43.441406 58.394531 43.480469 C 58.394531 43.484375 58.390625 43.484375 58.390625 43.484375 C 58.351562 43.53125 58.308594 43.578125 58.261719 43.628906 C 58.257812 43.628906 58.257812 43.632812 58.257812 43.636719 C 58.210938 43.683594 58.15625 43.738281 58.101562 43.789062 C 58.097656 43.796875 58.09375 43.804688 58.085938 43.808594 C 58.03125 43.863281 57.972656 43.917969 57.910156 43.976562 C 57.902344 43.984375 57.894531 43.988281 57.886719 43.996094 C 57.824219 44.054688 57.757812 44.117188 57.683594 44.175781 C 57.679688 44.179688 57.675781 44.183594 57.671875 44.1875 C 57.523438 44.3125 57.355469 44.441406 57.171875 44.570312 C 57.167969 44.574219 57.160156 44.578125 57.152344 44.582031 C 57.066406 44.644531 56.972656 44.703125 56.878906 44.761719 C 56.867188 44.769531 56.855469 44.773438 56.84375 44.78125 C 56.8125 44.800781 56.78125 44.816406 56.75 44.835938 C 56.683594 44.875 56.617188 44.914062 56.546875 44.949219 C 56.539062 44.957031 56.527344 44.960938 56.519531 44.964844 C 56.304688 45.078125 56.070312 45.183594 55.824219 45.273438 C 55.820312 45.273438 55.816406 45.277344 55.808594 45.277344 C 55.703125 45.316406 55.589844 45.351562 55.472656 45.382812 C 55.464844 45.386719 55.453125 45.390625 55.441406 45.394531 C 55.429688 45.398438 55.414062 45.402344 55.398438 45.40625 C 55.316406 45.429688 55.234375 45.445312 55.148438 45.464844 C 55.105469 45.476562 55.0625 45.484375 55.019531 45.496094 C 55.011719 45.496094 55.003906 45.5 55 45.5 C 55 45.496094 55 45.496094 55 45.496094 C 55.023438 45.34375 55.054688 45.183594 55.082031 45.019531 L 55.050781 45.027344 C 55.050781 45.027344 54.953125 45.050781 54.9375 45.054688 L 54.894531 45.0625 C 54.613281 45.113281 54.347656 45.136719 54.078125 45.136719 C 53.972656 45.136719 53.867188 45.132812 53.757812 45.125 L 53.722656 45.121094 C 52.722656 45.046875 51.691406 44.652344 50.652344 43.945312 C 50.273438 43.6875 49.894531 43.386719 49.511719 43.046875 C 49.613281 42.738281 49.796875 42.183594 50.050781 41.457031 C 50.570312 41.753906 51.117188 42 51.675781 42.179688 Z M 26.972656 79.117188 C 27.519531 79.410156 28.019531 79.636719 28.394531 79.800781 C 28.136719 79.976562 27.925781 80.066406 27.765625 80.066406 C 27.683594 80.066406 27.449219 80.066406 27.140625 79.46875 C 27.082031 79.351562 27.027344 79.234375 26.972656 79.117188 Z M 54.433594 77.132812 C 54.441406 77.113281 54.453125 77.097656 54.460938 77.082031 C 54.492188 77.007812 54.53125 76.933594 54.566406 76.859375 C 54.582031 76.835938 54.597656 76.808594 54.609375 76.785156 C 54.648438 76.71875 54.683594 76.660156 54.722656 76.597656 C 54.738281 76.574219 54.753906 76.550781 54.769531 76.527344 C 54.878906 76.367188 55 76.214844 55.128906 76.078125 C 55.136719 76.066406 55.148438 76.054688 55.160156 76.042969 C 55.21875 75.980469 55.277344 75.925781 55.335938 75.871094 C 55.347656 75.859375 55.355469 75.847656 55.367188 75.839844 C 55.585938 75.640625 55.816406 75.46875 56.058594 75.320312 L 56.347656 75.671875 C 57.175781 75.175781 58.078125 74.980469 58.558594 74.90625 L 60.203125 80.230469 L 60.066406 80.144531 L 60.78125 81.003906 L 60.988281 81.257812 L 60.761719 81.113281 L 58.917969 79.953125 Z M 64.542969 73.492188 C 64.597656 73.375 64.65625 73.261719 64.71875 73.152344 C 64.726562 73.132812 64.738281 73.113281 64.75 73.097656 C 64.808594 72.992188 64.878906 72.890625 64.945312 72.792969 C 64.953125 72.78125 64.964844 72.769531 64.972656 72.757812 C 65.125 72.554688 65.296875 72.367188 65.476562 72.203125 L 65.800781 72.511719 C 66.753906 71.652344 68.058594 71.359375 68.671875 71.265625 L 70.3125 76.59375 L 69.515625 76.089844 L 71.097656 77.617188 L 64.75 73.625 Z M 71.976562 66.78125 C 71.984375 66.695312 71.992188 66.609375 72.003906 66.527344 C 72.007812 66.5 72.007812 66.476562 72.011719 66.453125 C 72.023438 66.371094 72.039062 66.292969 72.054688 66.21875 C 72.058594 66.203125 72.0625 66.1875 72.0625 66.171875 C 72.085938 66.078125 72.109375 65.984375 72.136719 65.894531 C 72.136719 65.886719 72.140625 65.875 72.144531 65.867188 C 72.15625 65.824219 72.171875 65.785156 72.183594 65.746094 C 72.195312 65.707031 72.207031 65.667969 72.222656 65.628906 C 72.230469 65.609375 72.234375 65.59375 72.242188 65.578125 C 72.273438 65.492188 72.308594 65.40625 72.34375 65.324219 L 72.78125 65.445312 C 72.863281 65.261719 72.960938 65.078125 73.074219 64.894531 C 73.246094 64.609375 73.445312 64.332031 73.671875 64.070312 C 73.835938 63.875 73.988281 63.71875 74.109375 63.601562 L 78.550781 66.984375 L 78.433594 66.988281 L 79.789062 67.359375 L 75.921875 67.582031 L 74.894531 67.640625 L 73.875 67.699219 L 72.542969 67.777344 L 72.050781 67.804688 C 72.03125 67.703125 72.015625 67.601562 72 67.5 C 71.996094 67.472656 71.996094 67.441406 71.992188 67.414062 C 71.984375 67.335938 71.976562 67.261719 71.972656 67.183594 C 71.972656 67.160156 71.972656 67.132812 71.972656 67.105469 C 71.96875 67.007812 71.96875 66.910156 71.972656 66.816406 C 71.976562 66.804688 71.976562 66.792969 71.976562 66.78125 Z M 37.378906 71.222656 L 37.382812 70.097656 L 37.386719 68.96875 C 37.554688 68.921875 37.765625 68.882812 37.992188 68.84375 C 38.214844 68.804688 38.449219 68.773438 38.664062 68.742188 C 38.667969 68.742188 38.671875 68.742188 38.679688 68.742188 C 38.984375 68.703125 39.199219 69.042969 39.027344 69.300781 C 38.886719 69.515625 38.730469 69.742188 38.609375 69.894531 C 38.304688 70.289062 37.96875 70.660156 37.605469 71.003906 Z M 48.308594 36.390625 C 48.355469 36.246094 48.40625 36.101562 48.453125 35.960938 C 48.4375 35.957031 48.417969 35.953125 48.402344 35.953125 L 48.304688 35.929688 C 48.246094 35.917969 48.1875 35.90625 48.128906 35.894531 C 47.820312 35.8125 47.527344 35.710938 47.253906 35.597656 C 47.289062 35.320312 47.320312 35.042969 47.355469 34.765625 C 47.398438 34.433594 47.445312 34.097656 47.492188 33.769531 C 47.570312 33.1875 47.660156 32.628906 47.746094 32.09375 C 47.859375 32.132812 47.972656 32.164062 48.085938 32.191406 C 48.515625 32.300781 48.957031 32.359375 49.414062 32.367188 C 49.519531 32.367188 49.628906 32.363281 49.742188 32.355469 C 49.800781 32.203125 49.855469 32.046875 49.914062 31.894531 C 50.085938 31.878906 50.257812 31.847656 50.425781 31.808594 C 50.480469 31.796875 50.535156 31.789062 50.585938 31.773438 C 50.636719 31.757812 50.664062 31.707031 50.652344 31.65625 C 50.640625 31.621094 50.609375 31.597656 50.574219 31.589844 C 50.554688 31.589844 50.535156 31.582031 50.511719 31.582031 C 50.359375 31.554688 50.207031 31.53125 50.058594 31.503906 C 50.113281 31.359375 50.167969 31.21875 50.222656 31.078125 C 50.195312 31.074219 50.171875 31.070312 50.144531 31.0625 C 49.9375 31.023438 49.757812 30.984375 49.59375 30.9375 C 49.265625 30.847656 48.941406 30.734375 48.632812 30.597656 C 48.441406 30.515625 48.257812 30.425781 48.078125 30.324219 C 48.273438 29.355469 48.492188 28.480469 48.71875 27.710938 C 48.929688 27.816406 49.140625 27.90625 49.351562 27.980469 C 49.824219 28.148438 50.3125 28.253906 50.808594 28.296875 C 50.957031 28.308594 51.101562 28.3125 51.246094 28.3125 C 51.265625 28.3125 51.289062 28.3125 51.3125 28.3125 C 51.375 28.15625 51.4375 28.003906 51.5 27.859375 C 51.671875 27.851562 51.839844 27.828125 52.007812 27.796875 C 52.070312 27.789062 52.128906 27.78125 52.1875 27.765625 C 52.238281 27.753906 52.269531 27.707031 52.257812 27.65625 C 52.25 27.617188 52.214844 27.589844 52.179688 27.585938 C 52.152344 27.582031 52.128906 27.574219 52.105469 27.570312 C 51.953125 27.546875 51.800781 27.519531 51.652344 27.488281 C 51.714844 27.34375 51.773438 27.203125 51.832031 27.066406 C 51.800781 27.0625 51.773438 27.058594 51.742188 27.050781 C 51.496094 27 51.28125 26.941406 51.082031 26.878906 C 50.71875 26.765625 50.367188 26.613281 50.03125 26.4375 C 49.777344 26.304688 49.542969 26.15625 49.324219 26 C 49.613281 25.320312 49.917969 24.777344 50.234375 24.386719 C 50.628906 23.902344 51.105469 23.382812 51.65625 22.84375 C 51.886719 23.039062 52.109375 23.210938 52.335938 23.355469 C 52.699219 23.59375 53.078125 23.773438 53.453125 23.894531 C 53.546875 23.769531 53.644531 23.644531 53.75 23.519531 C 53.753906 23.519531 53.757812 23.519531 53.761719 23.523438 C 53.921875 23.566406 54.085938 23.59375 54.25 23.617188 C 54.511719 23.648438 54.78125 23.652344 55.039062 23.605469 C 55.089844 23.597656 55.121094 23.550781 55.113281 23.5 C 55.105469 23.460938 55.078125 23.433594 55.042969 23.425781 C 54.871094 23.386719 54.703125 23.335938 54.542969 23.273438 C 54.394531 23.21875 54.253906 23.15625 54.113281 23.085938 C 54.214844 22.96875 54.316406 22.851562 54.425781 22.734375 C 54.390625 22.71875 54.355469 22.703125 54.324219 22.6875 L 54.273438 22.664062 C 54.246094 22.648438 54.21875 22.636719 54.1875 22.617188 C 53.910156 22.460938 53.628906 22.257812 53.359375 22.015625 C 53.234375 21.902344 53.105469 21.773438 52.96875 21.632812 C 53.714844 20.984375 54.546875 20.316406 55.453125 19.632812 C 55.515625 19.667969 55.578125 19.707031 55.636719 19.75 C 55.847656 19.890625 56.0625 20.046875 56.273438 20.210938 C 56.390625 20.308594 56.511719 20.40625 56.632812 20.511719 C 56.742188 20.410156 56.855469 20.304688 56.964844 20.207031 C 57.042969 20.273438 57.125 20.34375 57.203125 20.417969 C 57.234375 20.445312 57.265625 20.476562 57.296875 20.507812 C 57.476562 20.675781 57.652344 20.851562 57.835938 21.03125 C 57.871094 21.070312 57.929688 21.070312 57.96875 21.03125 C 57.992188 21.007812 58 20.972656 57.992188 20.941406 C 57.921875 20.667969 57.8125 20.40625 57.683594 20.15625 C 57.671875 20.132812 57.65625 20.105469 57.644531 20.082031 C 57.585938 19.972656 57.515625 19.867188 57.449219 19.761719 C 57.566406 19.65625 57.675781 19.558594 57.789062 19.457031 C 57.675781 19.285156 57.570312 19.144531 57.46875 19.019531 C 57.324219 18.84375 57.164062 18.671875 56.996094 18.511719 C 58.09375 17.738281 59.101562 17.078125 59.855469 16.597656 C 59.714844 16.878906 59.558594 17.195312 59.394531 17.542969 C 59.285156 17.761719 59.175781 17.996094 59.050781 18.257812 L 58.976562 18.421875 C 59.480469 17.996094 59.796875 17.734375 59.796875 17.734375 C 59.691406 17.957031 59.582031 18.1875 59.464844 18.433594 C 59.464844 18.4375 59.460938 18.445312 59.460938 18.449219 C 59.421875 18.53125 59.378906 18.617188 59.339844 18.703125 C 59.265625 18.867188 59.1875 19.035156 59.105469 19.210938 C 59.101562 19.214844 59.101562 19.222656 59.097656 19.226562 C 59.042969 19.351562 58.984375 19.476562 58.925781 19.605469 C 58.921875 19.617188 58.917969 19.628906 58.910156 19.640625 C 58.851562 19.777344 58.789062 19.914062 58.726562 20.054688 C 58.667969 20.183594 58.609375 20.320312 58.546875 20.457031 C 58.539062 20.480469 58.527344 20.503906 58.515625 20.527344 C 58.394531 20.804688 58.273438 21.085938 58.152344 21.375 C 58.140625 21.402344 58.128906 21.429688 58.117188 21.457031 C 58.117188 21.460938 58.117188 21.460938 58.117188 21.460938 C 57.976562 21.550781 57.835938 21.640625 57.703125 21.734375 C 55.480469 23.261719 53.085938 27.167969 50.378906 33.675781 C 50.371094 33.695312 50.363281 33.714844 50.355469 33.734375 C 50.21875 34.0625 50.082031 34.390625 49.953125 34.714844 C 49.816406 35.050781 49.6875 35.375 49.5625 35.699219 C 49.449219 35.980469 49.34375 36.257812 49.238281 36.53125 C 49.203125 36.527344 49.167969 36.523438 49.132812 36.523438 C 49.003906 36.507812 48.878906 36.492188 48.753906 36.472656 C 48.601562 36.449219 48.457031 36.421875 48.308594 36.390625 Z M 34.90625 73.890625 L 34.683594 74.105469 L 34.691406 71.851562 C 34.855469 71.808594 35.066406 71.773438 35.292969 71.742188 C 35.300781 71.742188 35.308594 71.742188 35.316406 71.742188 C 35.546875 71.710938 35.792969 71.691406 36.015625 71.675781 C 36.46875 71.644531 36.835938 71.636719 36.835938 71.636719 C 36.671875 71.925781 36.132812 72.546875 35.925781 72.808594 C 35.90625 72.835938 35.851562 72.894531 35.828125 72.921875 C 35.640625 73.15625 35.125 73.683594 34.90625 73.890625 Z M 29.59375 77.992188 L 29.597656 76.867188 C 29.765625 76.820312 29.996094 76.796875 30.246094 76.785156 C 30.496094 76.777344 30.765625 76.777344 31.015625 76.785156 C 31.511719 76.804688 31.929688 76.84375 31.929688 76.84375 L 30.757812 77.980469 L 29.589844 79.121094 Z M 33.292969 75.453125 C 33.304688 75.4375 33.382812 75.359375 33.394531 75.347656 C 33.496094 75.214844 34.300781 74.382812 34.382812 74.238281 C 34.382812 74.238281 33.992188 74.222656 33.515625 74.230469 C 33.28125 74.234375 33.027344 74.242188 32.792969 74.261719 C 32.785156 74.261719 32.777344 74.265625 32.769531 74.265625 C 32.53125 74.285156 32.308594 74.3125 32.144531 74.359375 L 32.140625 75.484375 L 32.136719 76.613281 L 32.359375 76.398438 C 32.464844 76.292969 33.199219 75.566406 33.292969 75.453125 " fill-opacity="1" fill-rule="nonzero"/><path fill="#ffffff" d="M 46.699219 37.40625 L 46.613281 37.355469 C 46.632812 37.183594 46.648438 37.015625 46.664062 36.84375 C 47.0625 36.976562 47.472656 37.066406 47.882812 37.105469 C 47.941406 37.113281 48 37.113281 48.0625 37.117188 C 48 37.304688 47.9375 37.492188 47.875 37.683594 C 47.851562 37.746094 47.832031 37.808594 47.8125 37.871094 C 47.742188 37.851562 47.671875 37.832031 47.605469 37.808594 C 47.5 37.773438 47.398438 37.730469 47.292969 37.691406 C 47.089844 37.605469 46.886719 37.515625 46.699219 37.40625 Z M 55.832031 33.046875 C 56.136719 33.265625 56.460938 33.457031 56.800781 33.628906 C 56.832031 33.644531 56.859375 33.660156 56.894531 33.675781 C 57.148438 33.800781 57.410156 33.90625 57.679688 34.003906 C 57.617188 34.214844 57.554688 34.421875 57.496094 34.632812 C 57.402344 34.957031 57.308594 35.277344 57.222656 35.597656 C 57.148438 35.863281 57.078125 36.128906 57.007812 36.390625 C 56.910156 36.390625 56.816406 36.390625 56.71875 36.390625 C 56.621094 36.394531 56.519531 36.394531 56.421875 36.394531 C 56.292969 36.394531 56.171875 36.386719 56.046875 36.382812 C 55.9375 36.378906 55.828125 36.371094 55.71875 36.363281 C 55.378906 36.339844 55.042969 36.300781 54.71875 36.238281 C 54.582031 36.210938 54.445312 36.183594 54.3125 36.148438 C 54.222656 36.125 54.140625 36.09375 54.050781 36.066406 C 53.492188 35.886719 52.960938 35.613281 52.515625 35.253906 C 52.363281 35.128906 52.21875 34.992188 52.089844 34.847656 C 52.085938 34.839844 52.078125 34.832031 52.070312 34.824219 C 52.199219 34.507812 52.332031 34.195312 52.464844 33.878906 C 53.242188 32.042969 54.101562 30.167969 55 28.503906 L 55.128906 28.628906 L 55.5 28.957031 C 55.507812 28.960938 55.515625 28.964844 55.523438 28.972656 C 55.800781 29.199219 56.097656 29.402344 56.402344 29.585938 C 56.648438 29.738281 56.902344 29.875 57.164062 29.996094 C 57.214844 30.015625 57.265625 30.035156 57.316406 30.058594 C 57.800781 30.269531 58.300781 30.425781 58.8125 30.527344 C 58.746094 30.679688 58.6875 30.828125 58.636719 30.976562 C 58.367188 31.773438 58.113281 32.570312 57.875 33.355469 C 57.613281 33.300781 57.351562 33.238281 57.09375 33.160156 C 57.007812 33.132812 56.921875 33.105469 56.832031 33.078125 C 56.503906 32.96875 56.179688 32.84375 55.859375 32.703125 C 55.71875 32.640625 55.574219 32.574219 55.433594 32.503906 C 55.386719 32.484375 55.332031 32.5 55.308594 32.546875 C 55.292969 32.582031 55.300781 32.628906 55.332031 32.65625 C 55.488281 32.796875 55.660156 32.925781 55.832031 33.046875 Z M 46.523438 38.34375 C 46.816406 38.453125 47.121094 38.535156 47.429688 38.582031 C 47.476562 38.589844 47.527344 38.59375 47.574219 38.597656 C 47.421875 39.074219 47.265625 39.558594 47.117188 40.046875 C 46.980469 40.484375 46.84375 40.921875 46.714844 41.367188 C 46.660156 41.355469 46.605469 41.339844 46.550781 41.332031 C 46.523438 41.328125 46.4375 41.316406 46.292969 41.296875 C 46.320312 40.90625 46.347656 40.496094 46.378906 40.074219 C 46.421875 39.515625 46.46875 38.9375 46.523438 38.34375 Z M 30.421875 61.875 C 29.671875 62.863281 29.078125 63.125 29.078125 63.125 L 28.65625 61.722656 L 28.34375 60.683594 L 28.308594 60.5625 L 31.113281 60.796875 C 31.089844 60.835938 31.066406 60.871094 31.046875 60.910156 C 30.832031 61.292969 30.621094 61.609375 30.421875 61.875 Z M 32.511719 60.980469 L 32.414062 60.796875 C 33.613281 60.828125 35.074219 61.078125 35.074219 61.078125 C 35.070312 61.105469 35.070312 61.128906 35.066406 61.15625 C 35.046875 61.511719 34.960938 61.839844 34.84375 62.136719 C 34.496094 63 33.878906 63.558594 33.878906 63.558594 L 33.054688 62.003906 Z M 49.8125 40.78125 L 50.191406 41.019531 C 50.707031 41.324219 51.25 41.570312 51.816406 41.753906 C 52.378906 41.9375 52.960938 42.054688 53.546875 42.101562 C 54.0625 42.144531 54.578125 42.132812 55.085938 42.058594 C 55.152344 42.046875 55.222656 42.039062 55.289062 42.027344 C 55.339844 42.019531 55.371094 41.96875 55.363281 41.921875 C 55.355469 41.878906 55.320312 41.851562 55.28125 41.847656 C 55.203125 41.839844 55.125 41.828125 55.046875 41.816406 C 54.566406 41.757812 54.09375 41.679688 53.640625 41.554688 C 53.109375 41.417969 52.59375 41.238281 52.097656 41.015625 C 51.605469 40.792969 51.136719 40.53125 50.695312 40.230469 L 50.492188 40.085938 L 50.367188 40 L 50.148438 39.828125 C 50.375 39.195312 50.628906 38.5 50.910156 37.761719 C 51.03125 37.445312 51.15625 37.117188 51.285156 36.785156 C 51.410156 36.464844 51.539062 36.140625 51.667969 35.8125 C 51.671875 35.800781 51.675781 35.792969 51.679688 35.785156 C 51.695312 35.792969 51.707031 35.804688 51.71875 35.816406 C 51.792969 35.878906 51.867188 35.9375 51.941406 35.992188 C 52.601562 36.476562 53.363281 36.785156 54.144531 36.921875 C 54.335938 36.957031 54.527344 36.980469 54.71875 36.996094 C 55.054688 37.023438 55.386719 37.023438 55.71875 37.007812 C 55.964844 36.996094 56.210938 36.976562 56.453125 36.949219 C 56.542969 36.9375 56.628906 36.921875 56.71875 36.90625 C 56.773438 36.898438 56.824219 36.894531 56.875 36.886719 C 56.824219 37.078125 56.773438 37.269531 56.726562 37.460938 C 56.71875 37.484375 56.714844 37.507812 56.707031 37.53125 C 56.625 37.859375 56.542969 38.179688 56.464844 38.496094 C 56.273438 39.285156 56.09375 40.050781 55.933594 40.785156 C 55.929688 40.796875 55.925781 40.808594 55.925781 40.820312 C 55.636719 42.125 55.394531 43.324219 55.199219 44.390625 C 55.128906 44.777344 55.058594 45.148438 55 45.496094 C 55 45.496094 55 45.496094 55 45.5 C 54.988281 45.5 54.980469 45.5 54.972656 45.503906 C 54.6875 45.554688 54.390625 45.585938 54.078125 45.585938 C 53.949219 45.585938 53.820312 45.578125 53.691406 45.570312 C 53.691406 45.570312 53.691406 45.570312 53.691406 45.566406 C 52.710938 45.496094 51.605469 45.136719 50.398438 44.3125 C 49.945312 44.003906 49.476562 43.628906 48.996094 43.183594 C 48.996094 43.183594 49.292969 42.246094 49.808594 40.777344 Z M 69.230469 19.328125 C 69.183594 19.203125 69.128906 19.082031 69.066406 18.964844 C 70.785156 18.4375 71.96875 18.144531 71.96875 18.144531 C 71.96875 18.144531 70.902344 18.878906 69.367188 20.035156 C 69.363281 19.796875 69.316406 19.554688 69.230469 19.328125 Z M 69.203125 20.105469 C 69.210938 20.117188 69.226562 20.125 69.242188 20.128906 C 68.542969 20.65625 67.757812 21.269531 66.929688 21.933594 C 66.871094 21.808594 66.816406 21.683594 66.753906 21.554688 C 66.570312 21.199219 66.367188 20.851562 66.121094 20.515625 C 66.007812 20.363281 65.882812 20.214844 65.75 20.074219 C 66.644531 19.746094 67.503906 19.457031 68.289062 19.207031 C 68.292969 19.210938 68.296875 19.214844 68.300781 19.214844 C 68.457031 19.339844 68.613281 19.472656 68.757812 19.621094 C 68.914062 19.761719 69.039062 19.929688 69.195312 20.101562 Z M 57.53125 29.292969 C 57.523438 29.289062 57.515625 29.28125 57.507812 29.277344 C 57.203125 29.097656 56.910156 28.898438 56.632812 28.679688 C 56.453125 28.542969 56.28125 28.398438 56.113281 28.246094 L 55.796875 27.945312 L 55.5 27.621094 L 55.496094 27.613281 C 55.761719 27.148438 56.03125 26.703125 56.304688 26.285156 C 56.304688 26.285156 56.304688 26.285156 56.304688 26.28125 C 56.945312 25.300781 57.589844 24.46875 58.222656 23.878906 C 58.40625 23.707031 58.585938 23.558594 58.765625 23.429688 L 58.9375 23.472656 L 59.355469 23.589844 C 59.371094 23.59375 59.386719 23.597656 59.402344 23.605469 C 59.941406 23.765625 60.46875 23.96875 60.980469 24.207031 C 61.507812 24.453125 62.023438 24.738281 62.519531 25.058594 C 62.675781 25.160156 62.828125 25.265625 62.976562 25.371094 C 61.320312 26.949219 59.863281 28.574219 59.078125 30.003906 C 58.535156 29.816406 58.019531 29.578125 57.53125 29.292969 Z M 61.355469 23.511719 C 60.863281 23.21875 60.34375 22.96875 59.808594 22.761719 C 61.300781 21.882812 63.074219 21.09375 64.804688 20.425781 C 65.054688 20.617188 65.292969 20.816406 65.519531 21.035156 C 65.785156 21.292969 66.035156 21.574219 66.289062 21.867188 C 66.390625 21.976562 66.492188 22.09375 66.59375 22.207031 C 65.507812 23.09375 64.371094 24.066406 63.308594 25.058594 C 63.164062 24.910156 63.015625 24.761719 62.859375 24.621094 C 62.398438 24.203125 61.894531 23.832031 61.355469 23.511719 Z M 34 78.769531 L 34.003906 77.925781 C 34.171875 77.878906 34.402344 77.855469 34.652344 77.84375 C 34.734375 77.84375 34.820312 77.839844 34.90625 77.839844 C 35.078125 77.839844 35.253906 77.839844 35.421875 77.847656 C 35.789062 77.859375 36.113281 77.882812 36.253906 77.898438 C 36.304688 77.898438 36.335938 77.902344 36.335938 77.902344 L 35.164062 79.042969 L 34.539062 79.648438 L 33.996094 80.179688 L 34 79.050781 Z M 32.539062 80.289062 C 33.054688 80.472656 33.449219 80.554688 33.632812 80.589844 C 33.710938 80.605469 33.757812 80.609375 33.757812 80.609375 L 32.730469 81.542969 L 32.066406 82.148438 C 31.78125 82.058594 31.554688 81.824219 31.375 81.53125 C 30.882812 80.714844 30.757812 79.425781 30.757812 79.425781 C 31.421875 79.835938 32.035156 80.109375 32.539062 80.289062 Z M 59.003906 74.824219 L 59.382812 76.042969 L 60.828125 80.734375 L 60.988281 81.257812 L 60.78125 81.003906 L 59.070312 78.945312 L 56.382812 75.710938 L 56.058594 75.320312 C 57.378906 74.503906 58.878906 74.417969 58.878906 74.417969 Z M 41.789062 71.15625 L 41.789062 70.207031 L 41.792969 70.027344 C 41.816406 70.019531 41.84375 70.015625 41.871094 70.007812 C 42.027344 69.96875 42.207031 69.933594 42.394531 69.902344 C 42.585938 69.871094 42.785156 69.839844 42.972656 69.816406 C 43.007812 69.8125 43.039062 69.808594 43.070312 69.804688 C 43.074219 69.804688 43.078125 69.800781 43.082031 69.800781 C 43.277344 69.777344 43.433594 69.902344 43.480469 70.0625 C 43.441406 70.207031 43.394531 70.351562 43.339844 70.5 C 43.226562 70.671875 43.109375 70.835938 43.015625 70.957031 C 42.710938 71.347656 42.375 71.71875 42.011719 72.0625 L 41.785156 72.28125 L 41.785156 72.152344 Z M 27.992188 82.285156 L 27.75 82.988281 L 27.660156 83.25 C 27.660156 83.25 27.277344 83.308594 26.824219 83.195312 C 26.640625 83.152344 26.445312 83.082031 26.257812 82.964844 C 26.152344 82.902344 26.050781 82.789062 25.957031 82.652344 C 25.476562 81.953125 25.171875 80.515625 25.171875 80.515625 C 25.171875 80.515625 26.378906 81.433594 27.300781 81.957031 C 27.566406 82.109375 27.808594 82.230469 27.992188 82.285156 Z M 36.546875 76.542969 L 36.546875 76.179688 L 36.550781 75.417969 C 36.714844 75.371094 36.9375 75.34375 37.175781 75.324219 C 37.183594 75.324219 37.191406 75.324219 37.199219 75.320312 C 37.269531 75.316406 37.34375 75.3125 37.417969 75.308594 C 37.585938 75.300781 37.757812 75.292969 37.921875 75.289062 C 38.398438 75.285156 38.789062 75.296875 38.789062 75.296875 C 38.757812 75.351562 38.625 75.503906 38.464844 75.679688 C 38.199219 75.96875 37.863281 76.324219 37.800781 76.40625 C 37.789062 76.417969 37.710938 76.5 37.699219 76.511719 C 37.605469 76.628906 36.871094 77.355469 36.765625 77.457031 L 36.542969 77.671875 L 36.542969 77.605469 Z M 36.398438 51.804688 C 37.15625 51.003906 39.371094 50.816406 39.371094 50.816406 C 38.199219 53.03125 36.398438 51.804688 36.398438 51.804688 Z M 39.113281 61.953125 C 39.273438 62.019531 39.371094 62.066406 39.371094 62.066406 C 39.261719 62.421875 39.113281 62.714844 38.949219 62.953125 C 38.441406 63.707031 37.792969 63.9375 37.792969 63.9375 C 37.792969 63.9375 37.359375 63.140625 36.980469 62.425781 C 36.710938 61.917969 36.46875 61.449219 36.433594 61.34375 C 36.460938 61.339844 36.492188 61.339844 36.519531 61.339844 C 37.382812 61.265625 38.59375 61.730469 39.113281 61.953125 Z M 39.089844 74.039062 L 39.09375 73.667969 L 39.09375 72.910156 C 39.257812 72.867188 39.472656 72.832031 39.699219 72.804688 C 39.707031 72.800781 39.714844 72.800781 39.722656 72.800781 C 39.804688 72.789062 39.886719 72.78125 39.972656 72.773438 C 40.125 72.757812 40.277344 72.746094 40.421875 72.734375 C 40.875 72.703125 41.242188 72.695312 41.242188 72.695312 C 41.101562 72.9375 40.695312 73.421875 40.449219 73.722656 C 40.40625 73.777344 40.363281 73.828125 40.332031 73.867188 C 40.3125 73.894531 40.257812 73.953125 40.234375 73.980469 C 40.046875 74.214844 39.53125 74.742188 39.3125 74.949219 L 39.085938 75.164062 L 39.089844 75.0625 Z M 28.832031 82.289062 L 28.960938 81.019531 L 30.613281 82.394531 L 31.261719 82.933594 C 31.261719 82.933594 31.007812 83.242188 30.671875 83.488281 C 30.476562 83.632812 30.25 83.757812 30.027344 83.78125 C 29.425781 83.847656 28.707031 83.515625 28.707031 83.515625 L 28.730469 83.296875 Z M 69.121094 71.210938 L 71.097656 77.617188 L 65.878906 72.589844 L 65.476562 72.203125 C 66.894531 70.902344 68.988281 70.78125 68.988281 70.78125 Z M 73.328125 63.78125 C 73.6875 63.359375 73.996094 63.09375 74.066406 63.035156 C 74.078125 63.027344 74.082031 63.019531 74.082031 63.019531 L 74.402344 63.261719 L 79.789062 67.359375 L 75.507812 66.191406 L 74.316406 65.867188 L 73.257812 65.578125 L 73.109375 65.535156 L 72.34375 65.324219 C 72.445312 65.089844 72.5625 64.867188 72.6875 64.660156 C 72.894531 64.320312 73.121094 64.023438 73.328125 63.78125 Z M 57.449219 19.761719 C 57.347656 19.601562 57.242188 19.449219 57.121094 19.304688 C 56.921875 19.058594 56.699219 18.835938 56.457031 18.628906 C 56.394531 18.578125 56.328125 18.53125 56.265625 18.480469 C 58.816406 16.648438 60.988281 15.375 60.988281 15.375 C 60.988281 15.375 60.5 16.28125 59.796875 17.734375 C 59.796875 17.734375 58.753906 18.585938 57.449219 19.761719 Z M 46.96875 35.960938 L 46.773438 35.867188 C 46.777344 35.816406 46.785156 35.765625 46.789062 35.710938 C 46.828125 35.378906 46.867188 35.042969 46.910156 34.707031 C 46.953125 34.375 47 34.039062 47.046875 33.707031 C 47.152344 32.957031 47.269531 32.210938 47.398438 31.484375 C 47.65625 31.597656 47.925781 31.691406 48.195312 31.757812 C 48.59375 31.859375 49 31.914062 49.402344 31.917969 C 49.574219 31.917969 49.742188 31.910156 49.914062 31.894531 C 49.695312 32.472656 49.476562 33.074219 49.25 33.695312 C 49.132812 34.023438 49.015625 34.355469 48.894531 34.691406 C 48.78125 35.015625 48.664062 35.347656 48.550781 35.683594 C 48.46875 35.917969 48.386719 36.152344 48.308594 36.390625 C 48.210938 36.367188 48.113281 36.351562 48.015625 36.328125 C 47.65625 36.230469 47.304688 36.113281 46.96875 35.960938 Z M 22.515625 60.792969 C 22.488281 61.910156 23.140625 63.339844 23.140625 63.339844 C 21.328125 63.085938 20.484375 61.339844 20.140625 60.332031 C 19.996094 59.90625 19.941406 59.613281 19.941406 59.613281 L 22.78125 59.882812 C 22.597656 60.121094 22.523438 60.441406 22.515625 60.792969 Z M 50.84375 27.851562 C 51.0625 27.867188 51.28125 27.871094 51.5 27.859375 C 51.066406 28.902344 50.578125 30.132812 50.058594 31.503906 C 49.859375 31.464844 49.664062 31.421875 49.472656 31.367188 C 49.121094 31.273438 48.777344 31.152344 48.449219 31.007812 C 48.144531 30.875 47.851562 30.71875 47.574219 30.546875 C 47.824219 29.28125 48.117188 28.09375 48.453125 27.054688 C 48.789062 27.257812 49.136719 27.429688 49.503906 27.558594 C 49.9375 27.714844 50.386719 27.8125 50.84375 27.851562 Z M 27.066406 60.425781 C 27.019531 60.445312 26.96875 60.472656 26.914062 60.5 C 26.613281 60.671875 26.199219 61.023438 25.84375 61.351562 C 25.4375 61.726562 25.105469 62.066406 25.105469 62.066406 L 24.605469 61.152344 L 24.023438 60.089844 L 24.859375 60.183594 Z M 29.242188 79.6875 C 28.191406 80.644531 27.386719 80.933594 26.742188 79.671875 C 26.359375 78.921875 26.054688 78.078125 26.054688 78.078125 C 27.679688 79.09375 29.265625 79.667969 29.265625 79.667969 Z M 16.371094 60.394531 C 16.976562 59.902344 17.777344 59.710938 18.542969 59.882812 C 18.4375 60.015625 18.371094 60.179688 18.328125 60.355469 C 18.0625 61.492188 18.902344 63.339844 18.902344 63.339844 C 16.675781 63.027344 16.25 61.167969 16.179688 60.679688 C 16.167969 60.605469 16.164062 60.5625 16.164062 60.5625 Z M 56.964844 20.207031 C 56 21.09375 54.957031 22.113281 54.113281 23.085938 C 54.066406 23.058594 54.015625 23.035156 53.96875 23.007812 C 53.640625 22.824219 53.339844 22.597656 53.058594 22.351562 C 52.804688 22.117188 52.5625 21.863281 52.332031 21.597656 C 53.316406 20.714844 54.386719 19.867188 55.425781 19.089844 L 55.539062 19.15625 C 55.652344 19.226562 55.769531 19.300781 55.886719 19.375 C 56.113281 19.527344 56.339844 19.691406 56.558594 19.867188 C 56.695312 19.976562 56.828125 20.089844 56.964844 20.207031 Z M 52.582031 22.980469 C 52.242188 22.761719 51.933594 22.5 51.648438 22.230469 C 50.996094 22.851562 50.394531 23.480469 49.886719 24.105469 C 49.472656 24.613281 49.109375 25.3125 48.78125 26.148438 L 48.816406 26.175781 C 49.125 26.425781 49.460938 26.644531 49.820312 26.832031 C 50.175781 27.023438 50.554688 27.179688 50.949219 27.304688 C 51.175781 27.378906 51.414062 27.4375 51.652344 27.488281 C 52.34375 25.835938 52.867188 24.722656 53.089844 24.394531 C 53.277344 24.113281 53.503906 23.820312 53.75 23.519531 C 53.335938 23.402344 52.941406 23.214844 52.582031 22.980469 " fill-opacity="1" fill-rule="nonzero"/><path fill="#b33920" d="M 18.226562 53.972656 C 17.753906 54.59375 16.734375 54.070312 16.734375 54.070312 C 16.734375 54.070312 17.664062 52.734375 18.476562 52.84375 C 19.289062 52.949219 19.605469 53.183594 19.605469 53.183594 C 19.605469 53.183594 18.699219 53.347656 18.226562 53.972656 Z M 40.59375 98.949219 C 40.484375 99 40.050781 99.273438 39.96875 99.1875 C 40.175781 99.109375 40.382812 99.03125 40.59375 98.949219 Z M 39.542969 103.308594 C 39.515625 103.453125 39.488281 103.601562 39.460938 103.746094 C 40.007812 102.554688 40.777344 101.480469 41.652344 100.503906 C 41.660156 100.722656 41.671875 100.9375 41.679688 101.152344 C 42.214844 100.519531 42.800781 99.921875 43.414062 99.359375 C 43.484375 99.292969 43.558594 99.226562 43.628906 99.164062 C 43.753906 99.050781 43.746094 99.042969 43.730469 98.878906 C 43.714844 98.667969 43.734375 98.453125 43.738281 98.246094 C 43.75 97.8125 43.785156 97.378906 43.832031 96.949219 C 42.902344 97.386719 41.972656 97.824219 41.042969 98.253906 C 40.835938 98.347656 40.628906 98.441406 40.425781 98.535156 C 40.347656 98.570312 40.152344 98.707031 40.074219 98.695312 C 39.984375 98.683594 39.832031 98.503906 39.765625 98.449219 C 39.605469 98.320312 39.445312 98.1875 39.28125 98.0625 C 38.0625 97.125 36.75 96.289062 35.40625 95.542969 C 34.738281 95.167969 34.054688 94.820312 33.351562 94.507812 C 32.667969 94.199219 31.964844 93.964844 31.261719 93.699219 C 31.140625 93.65625 31.078125 93.601562 30.964844 93.65625 C 30.878906 93.695312 30.796875 93.765625 30.714844 93.816406 C 30.539062 93.933594 30.363281 94.050781 30.191406 94.171875 C 29.839844 94.410156 29.496094 94.652344 29.152344 94.898438 C 28.453125 95.40625 27.761719 95.933594 27.101562 96.488281 C 27.320312 96.5 27.539062 96.515625 27.757812 96.53125 C 26.433594 97.585938 25.207031 98.773438 24.113281 100.0625 C 26.554688 100.925781 28.832031 102.222656 30.988281 103.644531 C 31.242188 103.210938 31.546875 102.808594 31.90625 102.457031 C 32.199219 102.167969 32.660156 101.652344 33.109375 101.917969 C 33.65625 102.234375 33.191406 102.921875 33.011719 103.324219 C 33.628906 102.5 34.449219 101.808594 35.410156 101.417969 C 35.617188 101.335938 35.820312 101.273438 36.03125 101.386719 C 36.238281 101.503906 36.347656 101.746094 36.296875 101.976562 C 36.242188 102.21875 36.019531 102.347656 35.847656 102.5 C 35.65625 102.671875 35.46875 102.851562 35.296875 103.042969 C 36.722656 101.933594 38.417969 101.320312 40.0625 100.621094 C 39.890625 101.515625 39.714844 102.410156 39.542969 103.308594 Z M 33.394531 52.3125 C 33.808594 51.9375 34.269531 51.609375 34.742188 51.308594 C 35.621094 50.738281 36.605469 50.207031 37.636719 49.972656 C 39.316406 49.589844 41.132812 49.683594 42.839844 49.800781 C 43.292969 49.832031 43.75 49.867188 44.203125 49.917969 C 43.878906 50.242188 43.519531 50.53125 43.152344 50.800781 C 43.472656 50.746094 43.792969 50.695312 44.109375 50.636719 C 44.265625 50.609375 44.417969 50.570312 44.574219 50.550781 C 44.636719 50.542969 44.707031 50.511719 44.753906 50.578125 C 44.78125 50.617188 44.765625 50.679688 44.726562 50.703125 C 43.828125 51.273438 42.769531 51.636719 41.738281 51.871094 C 41.597656 51.902344 41.457031 51.925781 41.320312 51.960938 C 41.179688 51.996094 41.0625 52.066406 40.9375 52.128906 C 40.691406 52.253906 40.441406 52.371094 40.1875 52.484375 C 39.730469 52.6875 39.261719 52.867188 38.78125 53.015625 C 38.175781 53.207031 37.328125 53.476562 36.703125 53.207031 C 36.425781 53.089844 36.207031 52.847656 35.921875 52.71875 C 35.585938 52.566406 35.222656 52.472656 34.859375 52.410156 C 34.378906 52.328125 33.882812 52.289062 33.394531 52.3125 Z M 15.609375 56.875 C 15.617188 56.910156 15.671875 57.039062 15.65625 57.074219 C 15.632812 57.132812 15.484375 57.144531 15.417969 57.171875 C 15.570312 57.773438 15.527344 58.425781 15.988281 58.882812 C 16.207031 59.101562 16.527344 59.320312 16.855469 59.234375 C 17.167969 59.15625 17.46875 59.027344 17.785156 58.953125 C 18.585938 58.769531 19.425781 58.75 20.234375 58.894531 C 20.832031 59.003906 21.421875 59.121094 22.023438 59.195312 C 23.386719 59.363281 24.757812 59.453125 26.128906 59.558594 C 26.742188 59.609375 27.355469 59.65625 27.964844 59.71875 C 28.660156 59.792969 29.347656 59.914062 30.050781 59.933594 C 30.859375 59.960938 31.671875 59.953125 32.484375 59.988281 C 32.863281 60.003906 33.246094 60.023438 33.628906 60.046875 C 33.785156 60.058594 34.398438 60.089844 34.398438 60.089844 C 34.398438 60.089844 34.765625 60.007812 34.957031 59.9375 C 35.101562 59.882812 35.511719 59.769531 35.664062 59.789062 C 35.859375 59.8125 36.050781 59.839844 36.246094 59.867188 C 36.679688 59.925781 37.109375 60 37.535156 60.085938 C 38.511719 60.28125 39.515625 60.542969 40.386719 61.039062 C 40.464844 61.082031 40.558594 61.164062 40.640625 61.167969 C 40.71875 61.171875 40.816406 61.128906 40.894531 61.117188 C 41.050781 61.085938 41.207031 61.0625 41.363281 61.039062 C 41.742188 60.980469 42.125 60.941406 42.507812 60.914062 C 42.886719 60.886719 43.269531 60.871094 43.652344 60.875 C 43.707031 60.875 43.8125 60.859375 43.863281 60.875 C 43.9375 60.90625 44.035156 61.042969 44.09375 61.105469 C 44.160156 61.167969 44.242188 61.296875 44.320312 61.339844 C 44.378906 61.371094 44.507812 61.351562 44.574219 61.355469 C 44.96875 61.382812 45.359375 61.429688 45.746094 61.488281 C 47.351562 61.734375 48.90625 62.320312 50.25 63.234375 C 50.5625 63.449219 50.863281 63.679688 51.148438 63.929688 C 50.28125 63.855469 49.375 63.882812 48.515625 64.050781 C 49.136719 64.066406 49.746094 64.242188 50.265625 64.582031 C 50.488281 64.730469 50.691406 64.902344 50.867188 65.097656 C 50.945312 65.183594 51.027344 65.277344 51.085938 65.378906 C 51.1875 65.550781 51.082031 65.605469 50.925781 65.519531 C 50.390625 65.21875 49.859375 64.972656 49.238281 64.914062 C 48.9375 64.882812 48.636719 64.894531 48.339844 64.945312 C 48.179688 64.972656 48.019531 65.015625 47.863281 65.066406 C 47.792969 65.089844 47.695312 65.109375 47.632812 65.148438 C 47.511719 65.226562 47.5625 65.148438 47.574219 65.234375 C 47.582031 65.328125 47.675781 65.457031 47.714844 65.542969 C 47.769531 65.660156 47.820312 65.777344 47.871094 65.898438 C 47.988281 66.171875 48.097656 66.449219 48.203125 66.730469 C 48.421875 67.328125 48.609375 67.9375 48.757812 68.554688 C 49.042969 69.746094 49.1875 70.996094 49.015625 72.21875 C 48.992188 72.367188 48.964844 72.519531 48.933594 72.671875 C 48.925781 72.707031 48.890625 72.792969 48.90625 72.824219 C 48.917969 72.859375 48.980469 72.894531 49.003906 72.917969 C 49.15625 73.054688 49.308594 73.195312 49.460938 73.332031 C 49.9375 73.769531 50.414062 74.203125 50.890625 74.640625 C 51.273438 74.988281 51.65625 75.339844 52.039062 75.6875 C 52.109375 75.75 52.179688 75.816406 52.253906 75.882812 C 52.328125 75.949219 52.382812 76.039062 52.460938 76.015625 C 52.59375 75.976562 52.703125 75.742188 52.769531 75.636719 C 53.113281 75.085938 53.542969 74.597656 54.042969 74.179688 C 54.277344 73.984375 54.527344 73.804688 54.789062 73.640625 C 54.929688 73.554688 55.070312 73.472656 55.21875 73.394531 C 55.285156 73.355469 55.355469 73.320312 55.425781 73.285156 C 55.539062 73.230469 55.539062 73.25 55.550781 73.144531 C 55.554688 73.082031 55.515625 72.984375 55.503906 72.921875 C 55.46875 72.757812 55.476562 72.765625 55.628906 72.699219 C 55.785156 72.628906 55.941406 72.570312 56.101562 72.507812 C 56.417969 72.390625 56.742188 72.292969 57.074219 72.210938 C 57.519531 72.101562 57.976562 72.019531 58.433594 71.984375 C 57.800781 70.875 57.121094 69.785156 56.355469 68.757812 C 56 68.277344 55.621094 67.808594 55.191406 67.386719 C 55 67.195312 54.800781 67.011719 54.578125 66.855469 C 54.539062 66.832031 54.363281 66.746094 54.355469 66.710938 C 54.34375 66.675781 54.425781 66.558594 54.4375 66.527344 C 54.464844 66.46875 54.542969 66.207031 54.597656 66.183594 C 54.621094 66.171875 54.789062 66.253906 54.820312 66.265625 C 54.996094 66.339844 55.171875 66.414062 55.34375 66.492188 C 55.929688 66.761719 56.496094 67.066406 57.039062 67.414062 C 58.015625 68.039062 59.015625 68.597656 59.925781 69.320312 C 61.003906 70.179688 61.980469 71.191406 62.65625 72.402344 C 62.804688 72.105469 62.984375 71.820312 63.183594 71.554688 C 63.277344 71.429688 63.375 71.308594 63.476562 71.191406 C 63.578125 71.078125 63.742188 70.964844 63.820312 70.835938 C 63.886719 70.808594 63.898438 70.761719 63.851562 70.707031 C 63.839844 70.667969 63.824219 70.632812 63.8125 70.59375 C 63.789062 70.53125 63.726562 70.433594 63.726562 70.367188 C 63.726562 70.257812 63.964844 70.117188 64.0625 70.039062 C 64.308594 69.851562 64.566406 69.675781 64.835938 69.519531 C 65.8125 68.941406 66.917969 68.558594 68.042969 68.402344 C 67.425781 67.480469 66.808594 66.5625 66.191406 65.644531 C 66.15625 65.589844 66.082031 65.515625 66.0625 65.453125 C 66.039062 65.371094 66.03125 65.449219 66.074219 65.359375 C 66.113281 65.28125 66.292969 65.089844 66.367188 65.050781 C 66.453125 65.011719 66.417969 65.007812 66.523438 65.089844 C 66.664062 65.199219 66.800781 65.308594 66.9375 65.421875 C 67.332031 65.742188 67.792969 65.980469 68.230469 66.242188 C 68.742188 66.542969 69.257812 66.847656 69.769531 67.152344 C 69.730469 65.21875 70.6875 63.371094 72.023438 62.015625 C 70.9375 61.320312 69.832031 60.660156 68.703125 60.039062 C 67.488281 59.375 66.238281 58.738281 64.933594 58.273438 C 66.609375 58.53125 68.371094 58.507812 70.054688 58.304688 C 72.121094 58.050781 74.191406 57.445312 75.90625 56.234375 C 76.714844 55.664062 77.421875 54.960938 77.992188 54.152344 C 76.417969 53.605469 74.851562 53.035156 73.292969 52.4375 C 72.34375 52.070312 71.390625 51.695312 70.453125 51.285156 C 70.046875 51.109375 69.636719 50.925781 69.238281 50.722656 C 69.144531 50.675781 68.996094 50.5625 68.894531 50.542969 C 68.804688 50.527344 68.65625 50.585938 68.5625 50.597656 C 68.300781 50.625 68.039062 50.628906 67.78125 50.621094 C 66.679688 50.578125 65.5625 50.242188 64.625 49.667969 C 64.859375 49.972656 65.117188 50.261719 65.378906 50.542969 C 64.9375 50.363281 64.511719 50.148438 64.121094 49.878906 C 63.828125 49.675781 63.363281 49.398438 63.382812 48.996094 C 63.398438 48.570312 63.855469 48.378906 64.207031 48.5625 C 64.597656 48.769531 64.96875 48.964844 65.390625 49.101562 C 66.300781 49.390625 67.339844 49.550781 68.289062 49.371094 C 68.515625 49.328125 68.613281 49.308594 68.761719 49.152344 C 68.917969 48.996094 69.074219 48.835938 69.226562 48.675781 C 69.519531 48.375 69.808594 48.074219 70.097656 47.773438 C 68.171875 47.054688 66.242188 46.335938 64.3125 45.617188 C 63.261719 45.222656 62.207031 44.832031 61.15625 44.4375 C 61.035156 44.390625 60.914062 44.34375 60.792969 44.300781 C 60.691406 44.265625 60.722656 44.257812 60.648438 44.324219 C 60.425781 44.523438 60.253906 44.839844 60.058594 45.0625 C 59.054688 46.203125 57.757812 47.121094 56.316406 47.617188 C 55.214844 47.996094 54.035156 48.113281 52.882812 47.960938 C 52.222656 47.875 51.578125 47.707031 50.960938 47.46875 C 50.324219 47.222656 49.753906 46.890625 49.164062 46.558594 C 48.882812 46.398438 48.5625 46.292969 48.273438 46.140625 C 47.964844 45.980469 47.667969 45.800781 47.386719 45.59375 C 46.871094 45.210938 46.40625 44.753906 46.039062 44.222656 C 45.953125 44.097656 45.832031 43.769531 45.703125 43.714844 C 45.605469 43.667969 45.40625 43.6875 45.300781 43.679688 C 45.054688 43.660156 44.8125 43.644531 44.566406 43.640625 C 43.300781 43.601562 42.03125 43.683594 40.777344 43.871094 C 39.007812 44.136719 37.183594 44.605469 35.585938 45.421875 C 33.207031 46.636719 31.207031 48.554688 29.519531 50.589844 C 29.117188 51.070312 28.734375 51.566406 28.371094 52.070312 C 29.496094 52.59375 30.625 53.117188 31.75 53.640625 C 30.796875 53.8125 29.855469 54 28.882812 54.019531 C 27.480469 54.046875 26.074219 53.898438 24.707031 53.59375 C 24.019531 53.4375 23.34375 53.25 22.679688 53.023438 C 21.75 52.707031 20.859375 52.3125 19.871094 52.222656 C 18.355469 52.089844 16.824219 52.621094 15.855469 53.816406 C 15.617188 54.109375 15.394531 54.449219 15.296875 54.816406 C 15.226562 55.09375 15.296875 55.394531 15.347656 55.671875 C 15.394531 55.941406 15.453125 56.210938 15.515625 56.480469 C 15.542969 56.613281 15.574219 56.742188 15.609375 56.875 Z M 44.183594 66.765625 C 44.058594 65.8125 43.976562 64.855469 43.917969 63.898438 C 45.25 65.046875 46.203125 66.605469 46.574219 68.328125 C 46.667969 68.078125 46.757812 67.828125 46.847656 67.578125 C 47.492188 69.710938 47.257812 72.152344 46.347656 74.175781 C 45.894531 75.183594 45.214844 76.078125 44.34375 76.765625 C 43.929688 77.089844 43.484375 77.363281 43.015625 77.601562 C 42.5625 77.832031 42.070312 78 41.636719 78.257812 C 41.246094 78.492188 40.957031 78.945312 40.664062 79.28125 C 40.292969 79.710938 39.921875 80.136719 39.542969 80.558594 C 38.765625 81.433594 37.972656 82.300781 37.15625 83.140625 C 36.359375 83.957031 35.542969 84.765625 34.664062 85.492188 C 33.882812 86.136719 33.0625 86.679688 32.0625 86.902344 C 31.089844 87.121094 30.078125 86.992188 29.25 86.410156 C 28.453125 85.855469 27.871094 84.992188 27.535156 84.089844 C 27.644531 84.054688 27.683594 84.035156 27.789062 84.054688 C 27.867188 84.070312 27.941406 84.105469 28.015625 84.128906 C 28.25 84.199219 28.484375 84.265625 28.722656 84.320312 C 29.214844 84.433594 29.722656 84.515625 30.230469 84.519531 C 30.707031 84.519531 31.226562 84.453125 31.632812 84.1875 C 31.871094 84.03125 32.035156 83.804688 32.21875 83.589844 C 33.097656 82.566406 34.046875 81.597656 34.984375 80.628906 C 36.144531 79.425781 37.316406 78.238281 38.496094 77.058594 C 38.949219 76.605469 39.402344 76.152344 39.863281 75.707031 C 40.050781 75.519531 40.378906 75.433594 40.621094 75.324219 C 40.75 75.265625 40.875 75.207031 41.003906 75.144531 C 41.148438 75.078125 41.234375 74.996094 41.34375 74.878906 C 41.757812 74.460938 42.15625 74.019531 42.527344 73.5625 C 43.265625 72.648438 43.925781 71.640625 44.285156 70.511719 C 44.46875 69.9375 44.554688 69.328125 44.492188 68.726562 C 44.421875 68.070312 44.265625 67.421875 44.183594 66.765625 Z M 21.867188 103.214844 C 21.894531 103.171875 21.921875 103.125 21.945312 103.078125 C 21.816406 103.007812 21.683594 102.933594 21.554688 102.863281 C 21.691406 102.636719 21.835938 102.410156 21.976562 102.1875 C 22.054688 102.066406 22.132812 101.945312 22.214844 101.824219 C 22.257812 101.761719 22.429688 101.421875 22.507812 101.398438 C 22.5625 101.382812 22.84375 101.546875 22.90625 101.574219 C 23.039062 101.628906 23.171875 101.6875 23.304688 101.742188 C 23.597656 101.871094 23.886719 102.003906 24.175781 102.144531 C 25.242188 102.667969 26.269531 103.285156 27.273438 103.929688 C 29.269531 105.222656 31.207031 106.628906 33.050781 108.125 C 33.421875 108.429688 33.792969 108.730469 34.160156 109.03125 C 34.335938 108.601562 34.507812 108.167969 34.679688 107.738281 C 35.128906 106.625 35.84375 105.734375 36.789062 104.992188 C 36.695312 105.601562 36.566406 106.246094 36.601562 106.859375 C 36.628906 107.335938 36.703125 107.800781 36.847656 108.261719 C 37.039062 108.878906 37.335938 109.445312 37.6875 109.984375 C 37.871094 110.261719 38.070312 110.53125 38.285156 110.78125 C 38.382812 110.898438 38.605469 111.023438 38.640625 111.152344 C 38.691406 111.308594 38.640625 111.554688 38.640625 111.722656 C 38.648438 112.523438 38.6875 113.328125 38.765625 114.128906 C 38.589844 113.820312 38.417969 113.511719 38.246094 113.203125 C 38.257812 113.40625 38.269531 113.613281 38.285156 113.820312 C 35.734375 113.113281 33.261719 112.136719 30.917969 110.910156 C 28.5625 109.675781 26.34375 108.191406 24.304688 106.488281 C 23.730469 106.011719 23.171875 105.519531 22.628906 105.007812 C 22.359375 104.75 22.089844 104.492188 21.824219 104.226562 C 21.761719 104.167969 21.703125 104.105469 21.640625 104.042969 C 21.613281 104.015625 21.554688 103.972656 21.535156 103.9375 C 21.488281 103.855469 21.492188 103.898438 21.523438 103.808594 C 21.59375 103.601562 21.753906 103.402344 21.867188 103.214844 Z M 41.515625 94.238281 C 41.40625 94.308594 41.296875 94.386719 41.191406 94.464844 C 41.246094 94.132812 40.984375 93.839844 40.65625 93.832031 C 40.398438 93.832031 40.121094 93.929688 39.890625 94.027344 C 39.5625 94.164062 39.257812 94.355469 38.992188 94.59375 C 38.949219 94.628906 38.832031 94.785156 38.785156 94.792969 C 38.742188 94.800781 38.613281 94.691406 38.566406 94.664062 C 38.390625 94.558594 38.214844 94.457031 38.035156 94.355469 C 36.671875 93.589844 35.230469 92.941406 33.734375 92.472656 C 35.5 91.4375 37.296875 90.464844 39.09375 89.484375 C 38.777344 89.484375 38.457031 89.488281 38.140625 89.496094 C 39.679688 88.660156 41.21875 87.820312 42.730469 86.941406 C 42.820312 86.890625 42.90625 86.839844 42.996094 86.785156 C 43.113281 86.714844 43.132812 86.738281 43.25 86.816406 C 43.429688 86.933594 43.609375 87.050781 43.792969 87.164062 C 44.160156 87.398438 44.519531 87.636719 44.875 87.886719 C 45.574219 88.375 46.257812 88.886719 46.925781 89.417969 C 47.578125 89.9375 48.230469 90.472656 48.859375 91.023438 C 49.027344 91.167969 49.191406 91.316406 49.355469 91.460938 C 49.429688 91.53125 49.507812 91.597656 49.582031 91.664062 C 49.617188 91.695312 49.707031 91.8125 49.753906 91.820312 C 49.832031 91.832031 50.015625 91.65625 50.082031 91.609375 C 50.191406 91.535156 50.300781 91.460938 50.410156 91.386719 C 50.695312 91.191406 50.980469 90.996094 51.265625 90.800781 C 51.914062 90.355469 52.5625 89.894531 53.199219 89.433594 C 53.152344 89.921875 53.089844 90.414062 53.0625 90.902344 C 53.050781 91.148438 53.054688 91.386719 53.085938 91.628906 C 53.109375 91.796875 53.082031 91.808594 52.949219 91.921875 C 52.851562 92.007812 52.757812 92.089844 52.65625 92.171875 C 51.863281 92.847656 51.042969 93.484375 50.207031 94.105469 C 50.257812 93.882812 50.304688 93.65625 50.355469 93.433594 C 49.039062 94.433594 47.6875 95.382812 46.363281 96.375 C 46.636719 95.160156 46.867188 93.941406 47.113281 92.722656 C 46.402344 93.054688 45.695312 93.382812 44.988281 93.710938 C 45.15625 93.402344 44.976562 93.003906 44.632812 92.925781 C 44.359375 92.863281 44.03125 93.019531 43.777344 93.105469 C 42.976562 93.375 42.214844 93.765625 41.515625 94.238281 Z M 49.746094 84.320312 C 49.53125 84.503906 49.308594 84.707031 49.007812 84.617188 C 49.253906 84.523438 49.5 84.425781 49.746094 84.320312 Z M 51.964844 85.972656 C 52.476562 85.757812 53.003906 85.570312 53.546875 85.441406 C 53.933594 85.351562 54.351562 85.617188 54.265625 86.054688 C 54.882812 85.683594 55.5 85.308594 56.117188 84.933594 C 55.867188 86.214844 55.621094 87.496094 55.359375 88.777344 C 56.4375 87.367188 57.097656 85.746094 57.566406 84.046875 C 57.699219 84.125 57.832031 84.199219 57.96875 84.277344 C 58.101562 83.824219 58.214844 83.367188 58.328125 82.910156 C 58.386719 82.6875 58.4375 82.460938 58.488281 82.234375 C 58.5 82.175781 58.539062 82.105469 58.507812 82.054688 C 58.484375 82.015625 58.382812 81.976562 58.34375 81.953125 C 58.234375 81.882812 58.128906 81.816406 58.019531 81.75 C 57.277344 81.28125 56.535156 80.816406 55.792969 80.347656 C 54.667969 79.640625 53.542969 78.933594 52.421875 78.226562 C 52.039062 77.988281 51.585938 77.792969 51.257812 77.496094 C 50.957031 77.222656 50.65625 76.949219 50.359375 76.675781 C 50.394531 76.761719 50.417969 76.859375 50.460938 76.941406 C 50.5 77.023438 50.554688 77.078125 50.601562 77.15625 C 50.707031 77.328125 50.789062 77.523438 50.867188 77.707031 C 51.03125 78.101562 51.152344 78.511719 51.226562 78.929688 C 51.378906 79.789062 51.332031 80.679688 51.074219 81.515625 C 50.832031 82.292969 50.417969 83.011719 49.855469 83.601562 C 49.726562 83.738281 49.589844 83.863281 49.449219 83.984375 C 49.382812 84.042969 49.011719 84.351562 49.078125 84.0625 C 49.089844 84 49.195312 83.910156 49.234375 83.855469 C 49.300781 83.773438 49.363281 83.6875 49.425781 83.597656 C 49.542969 83.425781 49.65625 83.246094 49.757812 83.0625 C 50.238281 82.195312 50.496094 81.199219 50.46875 80.207031 C 49.578125 82.679688 47.097656 84.226562 44.988281 85.570312 C 45.097656 85.636719 45.242188 85.59375 45.367188 85.578125 C 45.550781 85.554688 45.738281 85.527344 45.921875 85.492188 C 45.886719 85.519531 45.847656 85.542969 45.8125 85.566406 C 46.242188 85.851562 46.664062 86.148438 47.078125 86.453125 C 47.1875 86.53125 47.296875 86.613281 47.40625 86.695312 C 47.464844 86.738281 47.519531 86.78125 47.578125 86.824219 C 47.667969 86.894531 47.644531 86.898438 47.753906 86.863281 C 47.988281 86.785156 48.214844 86.609375 48.441406 86.503906 C 48.894531 86.292969 49.378906 86.121094 49.871094 86.015625 C 50.042969 85.980469 50.203125 85.945312 50.371094 86.019531 C 50.597656 86.121094 50.730469 86.359375 50.691406 86.601562 C 51.101562 86.367188 51.527344 86.15625 51.964844 85.972656 Z M 59.988281 84.480469 C 60.109375 84.054688 60.222656 83.628906 60.324219 83.199219 C 61.539062 83.960938 62.753906 84.726562 63.96875 85.492188 C 64.140625 85.601562 64.316406 85.710938 64.488281 85.820312 C 64.015625 84.277344 63.539062 82.738281 63.066406 81.199219 C 62.660156 79.878906 62.25 78.5625 61.84375 77.242188 C 61.71875 76.835938 61.59375 76.429688 61.46875 76.019531 C 61.4375 75.921875 61.421875 75.863281 61.421875 75.765625 C 61.429688 75.175781 61.5 74.578125 61.527344 73.992188 C 61.742188 74.214844 62.011719 74.386719 62.304688 74.488281 C 62.425781 74.53125 62.503906 74.570312 62.613281 74.636719 C 62.890625 74.8125 63.164062 74.988281 63.441406 75.160156 C 63.644531 75.285156 63.84375 75.414062 64.046875 75.539062 C 65.199219 76.265625 66.351562 76.992188 67.507812 77.71875 C 68.34375 78.242188 69.179688 78.769531 70.015625 79.296875 C 70.863281 79.828125 71.707031 80.359375 72.554688 80.890625 C 73.101562 81.238281 73.652344 81.585938 74.203125 81.929688 C 74.289062 81.984375 74.515625 82.070312 74.566406 82.160156 C 74.632812 82.265625 74.523438 82.601562 74.503906 82.730469 C 74.453125 83.085938 74.394531 83.4375 74.332031 83.789062 C 74.265625 84.148438 74.203125 84.503906 74.132812 84.859375 L 65.710938 80.9375 L 67.171875 90.847656 L 60.988281 87 L 59.757812 85.296875 C 59.738281 85.257812 59.804688 85.117188 59.816406 85.070312 C 59.875 84.875 59.933594 84.679688 59.988281 84.480469 Z M 74.390625 81.5 C 74.457031 81.714844 74.523438 81.925781 74.589844 82.144531 C 74.941406 79.457031 75.046875 76.730469 74.882812 74.023438 C 74.804688 72.738281 74.664062 71.457031 74.441406 70.191406 C 74.421875 70.09375 74.40625 69.710938 74.324219 69.675781 C 74.265625 69.648438 74.109375 69.6875 74.046875 69.691406 C 73.714844 69.710938 73.386719 69.730469 73.054688 69.746094 C 72.589844 69.773438 72.125 69.800781 71.660156 69.828125 C 71.558594 69.835938 71.355469 69.804688 71.261719 69.851562 C 71.203125 69.878906 71.183594 70 71.152344 70.066406 C 71.113281 70.152344 70.972656 70.304688 70.964844 70.390625 C 70.957031 70.449219 71.015625 70.558594 71.035156 70.617188 C 71.378906 71.742188 71.726562 72.863281 72.074219 73.988281 C 72.386719 75 72.699219 76.015625 73.011719 77.03125 C 73.472656 78.519531 73.929688 80.007812 74.390625 81.5 " fill-opacity="1" fill-rule="nonzero"/><path fill="#f36917" d="M 54.234375 82.148438 C 55.359375 82.789062 56.480469 83.429688 57.605469 84.070312 C 57.667969 84.105469 57.9375 84.207031 57.96875 84.277344 C 58.054688 84.484375 57.648438 85.296875 57.574219 85.511719 C 57.449219 85.871094 57.316406 86.230469 57.167969 86.582031 C 56.570312 88.015625 55.632812 89.273438 54.566406 90.390625 C 54.886719 88.878906 55.183594 87.359375 55.484375 85.84375 C 54.5 86.4375 53.519531 87.027344 52.550781 87.640625 C 51.964844 88.007812 51.382812 88.378906 50.804688 88.753906 C 50.660156 88.847656 50.515625 88.9375 50.375 89.03125 C 49.996094 89.28125 50.003906 89.378906 49.636719 89.0625 C 50.378906 88.355469 51.171875 87.707031 52.019531 87.128906 C 52.464844 86.824219 52.917969 86.539062 53.378906 86.265625 C 53.757812 86.042969 54.050781 85.761719 53.371094 85.949219 C 52.414062 86.214844 51.5 86.632812 50.652344 87.144531 C 50.234375 87.398438 49.828125 87.675781 49.445312 87.976562 C 49.347656 88.054688 49.144531 88.277344 49.027344 88.324219 C 48.9375 88.480469 48.84375 88.472656 48.746094 88.304688 C 48.640625 88.222656 48.535156 88.136719 48.429688 88.050781 C 48.703125 87.828125 48.980469 87.605469 49.257812 87.382812 C 49.503906 87.183594 50.726562 86.347656 49.925781 86.460938 C 49.511719 86.523438 49.089844 86.707031 48.710938 86.875 C 48.480469 86.976562 48.261719 87.089844 48.042969 87.214844 C 47.730469 87.390625 47.78125 87.449219 47.480469 87.3125 C 47.097656 87.140625 46.742188 86.757812 46.394531 86.511719 C 45.957031 86.199219 45.511719 85.894531 45.054688 85.609375 C 48.351562 85.34375 51.328125 83.578125 54.234375 82.148438 Z M 44.816406 64.132812 C 45.269531 64.605469 45.675781 65.132812 46.015625 65.699219 C 46.308594 66.1875 46.742188 66.871094 46.808594 67.449219 C 46.859375 67.882812 46.527344 68.457031 46.367188 68.867188 C 46.121094 69.496094 45.855469 70.121094 45.582031 70.734375 C 45.066406 71.886719 44.464844 72.855469 43.46875 73.65625 C 42.417969 74.503906 41.183594 75.089844 39.949219 75.621094 C 41.625 73.988281 43.75 72.027344 44.035156 69.558594 C 44.113281 68.875 43.941406 68.21875 43.839844 67.542969 C 43.730469 66.835938 43.648438 66.121094 43.582031 65.40625 C 43.507812 64.59375 43.453125 63.78125 43.421875 62.964844 C 43.9375 63.285156 44.398438 63.695312 44.816406 64.132812 Z M 9.375 61.417969 C 10.386719 59.039062 11.617188 56.753906 13.046875 54.597656 C 12.953125 55.230469 13.085938 55.882812 13.210938 56.503906 C 13.277344 56.820312 13.535156 57.386719 13.484375 57.683594 C 13.414062 58.078125 12.957031 58.609375 12.765625 58.964844 C 11.886719 60.613281 11.121094 62.320312 10.480469 64.070312 C 9.152344 67.699219 8.363281 71.515625 8.128906 75.371094 C 7.691406 82.617188 9.230469 89.925781 12.597656 96.367188 C 15.707031 102.304688 20.3125 107.433594 25.890625 111.167969 C 31.503906 114.925781 38.050781 117.242188 44.789062 117.816406 C 51.699219 118.410156 58.710938 117.234375 65.023438 114.363281 C 70.582031 111.839844 75.53125 108.039062 79.417969 103.34375 C 83.324219 98.621094 86.125 93.019531 87.53125 87.0625 C 89.011719 80.796875 88.957031 74.171875 87.371094 67.929688 C 85.832031 61.886719 82.859375 56.234375 78.761719 51.527344 C 74.695312 46.855469 69.546875 43.136719 63.816406 40.753906 C 63.140625 40.472656 62.453125 40.207031 61.761719 39.964844 C 61.683594 39.9375 61.222656 39.84375 61.175781 39.765625 C 61.132812 39.6875 61.289062 39.292969 61.3125 39.199219 C 61.425781 38.742188 61.550781 38.285156 61.679688 37.828125 C 73.996094 41.917969 83.949219 51.6875 88.242188 63.898438 C 92.734375 76.667969 90.675781 91.210938 82.800781 102.234375 C 75.152344 112.933594 62.683594 119.597656 49.5 119.953125 C 36.234375 120.308594 23.375 114.308594 15.140625 103.9375 C 6.773438 93.398438 3.964844 79.125 7.679688 66.203125 C 8.144531 64.574219 8.714844 62.976562 9.375 61.417969 Z M 44.652344 36.84375 C 44.628906 37.085938 44.648438 37.425781 44.574219 37.652344 C 44.492188 37.910156 44.675781 37.769531 44.347656 37.875 C 44.234375 37.910156 44.042969 37.902344 43.933594 37.917969 C 43.382812 37.976562 42.835938 38.046875 42.289062 38.128906 C 41.203125 38.292969 40.128906 38.496094 39.0625 38.746094 C 36.996094 39.234375 34.96875 39.882812 33.003906 40.6875 C 29.113281 42.285156 25.484375 44.496094 22.277344 47.207031 C 21.828125 47.589844 21.382812 47.984375 20.949219 48.386719 C 20.527344 48.773438 20.132812 49.277344 19.675781 49.617188 C 19.265625 49.917969 18.445312 49.824219 17.914062 49.945312 C 17.222656 50.105469 16.554688 50.371094 15.945312 50.734375 C 21.460938 44.199219 28.910156 39.414062 37.179688 37.164062 C 39.65625 36.488281 42.199219 36.042969 44.761719 35.832031 C 44.722656 36.167969 44.6875 36.507812 44.652344 36.84375 Z M 44.523438 61.339844 C 43.53125 61.292969 42.535156 61.339844 41.550781 61.492188 C 41.335938 61.527344 41.03125 61.652344 40.8125 61.632812 C 40.519531 61.605469 40.1875 61.324219 39.894531 61.191406 C 38.183594 60.429688 36.191406 60.234375 34.339844 60.085938 C 36.335938 59.375 38.398438 58.703125 40.542969 59.070312 C 42.105469 59.339844 43.457031 60.183594 44.523438 61.339844 Z M 20.933594 103.957031 C 21.0625 103.71875 21.191406 103.480469 21.328125 103.246094 C 21.496094 102.949219 21.449219 102.890625 21.730469 102.960938 C 21.988281 103.023438 22.28125 103.265625 22.515625 103.394531 C 23.101562 103.726562 23.683594 104.054688 24.269531 104.390625 C 25.671875 105.199219 27.0625 106.023438 28.433594 106.882812 C 29.695312 107.675781 30.953125 108.492188 32.128906 109.410156 C 32.722656 109.875 33.714844 110.523438 33.914062 111.304688 C 34.429688 110.273438 34.945312 109.242188 35.457031 108.210938 C 36.03125 109.234375 36.601562 110.257812 37.171875 111.28125 C 37.546875 111.949219 37.917969 112.617188 38.292969 113.285156 C 38.503906 113.664062 38.746094 113.988281 38.792969 114.417969 C 32.007812 112.667969 25.777344 109.003906 20.933594 103.957031 Z M 38.820312 108.363281 C 38.445312 106.976562 38.707031 105.660156 38.921875 104.273438 C 39.074219 103.296875 39.273438 102.332031 39.460938 101.363281 C 37.070312 102.382812 34.710938 103.5 33.363281 105.867188 C 33.191406 105.738281 33.929688 104.238281 33.957031 104.1875 C 34.199219 103.722656 34.492188 103.289062 34.832031 102.894531 C 34.976562 102.722656 35.84375 102.070312 35.84375 101.898438 C 35.84375 101.566406 34.949219 102.144531 34.796875 102.242188 C 34.378906 102.515625 34 102.847656 33.671875 103.222656 C 33.148438 103.816406 32.78125 104.5 32.519531 105.242188 C 32.289062 105.078125 32.007812 104.96875 31.996094 104.722656 C 31.984375 104.515625 32.199219 104.128906 32.273438 103.933594 C 32.429688 103.53125 32.601562 103.140625 32.777344 102.75 C 32.980469 102.292969 32.890625 102.183594 32.433594 102.574219 C 31.890625 103.042969 31.460938 103.648438 31.152344 104.292969 C 28.78125 102.679688 26.132812 101.058594 23.34375 100.289062 C 24.019531 99.445312 24.753906 98.648438 25.527344 97.898438 C 25.902344 97.539062 26.285156 97.1875 26.675781 96.847656 C 27.042969 96.527344 27.136719 96.488281 27.585938 96.519531 C 28.914062 96.609375 30.238281 96.734375 31.558594 96.902344 C 33.042969 97.09375 34.527344 97.335938 35.96875 97.726562 C 37.03125 98.015625 38.300781 98.371094 39.101562 99.179688 C 39.269531 99.347656 39.246094 99.386719 39.4375 99.386719 C 39.644531 99.386719 39.964844 99.1875 40.15625 99.117188 C 40.628906 98.9375 41.101562 98.761719 41.570312 98.582031 C 41.59375 99.074219 41.613281 99.5625 41.632812 100.054688 C 41.644531 100.34375 41.691406 100.648438 41.671875 100.9375 C 41.648438 101.261719 41.503906 101.355469 41.285156 101.640625 C 39.726562 103.644531 39.105469 105.875 38.820312 108.363281 Z M 46.6875 115.003906 C 46.820312 115.214844 46.972656 115.414062 47.128906 115.605469 C 45.429688 115.550781 43.734375 115.386719 42.054688 115.109375 C 41.753906 115.058594 41.246094 115.070312 40.992188 114.917969 C 40.785156 114.789062 40.820312 114.433594 40.789062 114.160156 C 40.714844 113.429688 40.667969 112.695312 40.65625 111.960938 C 40.597656 109.210938 40.761719 106.070312 42.277344 103.679688 C 43.703125 101.4375 45.914062 99.753906 48.023438 98.1875 C 50.308594 96.484375 52.6875 94.882812 54.800781 92.957031 C 55.910156 91.941406 56.953125 90.835938 57.800781 89.589844 C 58.695312 88.269531 59.28125 86.808594 59.753906 85.292969 C 61.882812 86.507812 64.015625 87.71875 66.144531 88.933594 C 65.53125 85.695312 64.917969 82.457031 64.304688 79.21875 C 64.21875 78.757812 64.132812 78.296875 64.042969 77.835938 C 67.28125 80.089844 70.519531 82.34375 73.757812 84.601562 C 73.84375 84.660156 74.082031 84.761719 74.128906 84.859375 C 74.195312 84.984375 74.019531 85.394531 73.984375 85.542969 C 73.917969 85.839844 73.84375 86.136719 73.769531 86.433594 C 73.613281 87.039062 73.441406 87.640625 73.246094 88.234375 C 72.609375 90.167969 71.695312 91.972656 70.582031 93.675781 C 68.390625 97.027344 65.621094 99.949219 63.050781 103.003906 C 60.632812 105.886719 57.902344 109.195312 57.4375 113.066406 C 56.953125 107.066406 63.050781 103.246094 65.78125 98.621094 C 66.140625 98.015625 66.460938 97.386719 66.722656 96.730469 C 66.816406 96.484375 67.445312 95.03125 67.207031 94.835938 C 67.125 94.765625 66.644531 96.128906 66.566406 96.308594 C 66.277344 96.972656 65.929688 97.605469 65.535156 98.210938 C 63.933594 100.664062 61.707031 102.613281 59.824219 104.839844 C 57.699219 107.359375 55.972656 110.527344 56.554688 113.925781 C 55.300781 113.511719 54.136719 112.753906 53.496094 111.570312 C 52.71875 110.128906 52.832031 108.351562 53.269531 106.824219 C 54.023438 104.175781 55.839844 101.894531 57.84375 100.054688 C 58.3125 99.625 58.796875 99.207031 59.3125 98.832031 C 57.851562 99.496094 56.457031 100.351562 55.164062 101.300781 C 52.867188 102.988281 50.636719 105.230469 50.015625 108.105469 C 49.566406 110.207031 50.0625 112.335938 51.242188 114.109375 C 49.949219 112.859375 49.078125 111.234375 48.765625 109.460938 C 48.597656 108.503906 48.59375 107.515625 48.742188 106.554688 C 48.8125 106.109375 49.089844 105.546875 49.085938 105.117188 C 49.082031 104.640625 48.871094 105.089844 48.761719 105.332031 C 47.1875 108.878906 48.378906 113.097656 51.367188 115.503906 C 50.929688 115.539062 50.347656 115.089844 50 114.851562 C 49.097656 114.230469 48.332031 113.414062 47.757812 112.480469 C 47.683594 112.359375 47.308594 111.464844 47.15625 111.542969 C 46.914062 111.667969 47.441406 112.878906 47.523438 113.066406 C 47.957031 114.058594 48.652344 114.929688 49.496094 115.605469 C 49.097656 115.617188 48.679688 115.6875 48.339844 115.492188 C 48.066406 115.339844 47.808594 115.046875 47.59375 114.824219 C 47.144531 114.363281 46.753906 113.851562 46.417969 113.308594 C 46.214844 112.972656 45.644531 111.855469 45.851562 112.964844 C 45.984375 113.691406 46.285156 114.390625 46.6875 115.003906 Z M 19.355469 53.1875 C 18.429688 53.433594 18.023438 54.414062 16.984375 54.039062 C 17.570312 53.253906 18.371094 52.71875 19.355469 53.1875 Z M 60.675781 43.703125 C 60.710938 43.988281 59.996094 44.691406 59.785156 44.917969 C 59.066406 45.699219 58.203125 46.363281 57.246094 46.832031 C 55.824219 47.527344 54.222656 47.746094 52.664062 47.441406 C 51.769531 47.265625 50.914062 46.925781 50.121094 46.484375 C 49.398438 46.082031 48.613281 45.769531 47.9375 45.289062 C 47.34375 44.867188 46.804688 44.332031 46.441406 43.699219 C 46.328125 43.503906 46.316406 43.375 46.148438 43.289062 C 45.964844 43.203125 45.632812 43.238281 45.433594 43.222656 C 45.007812 43.195312 44.578125 43.183594 44.152344 43.183594 C 41.445312 43.179688 38.605469 43.648438 36.128906 44.761719 C 32.773438 46.265625 29.910156 49.234375 27.898438 52.253906 C 28.757812 52.652344 29.621094 53.050781 30.480469 53.453125 C 28 53.878906 25.292969 53.378906 22.945312 52.574219 C 21.390625 52.039062 19.914062 51.492188 18.253906 51.917969 C 17.035156 52.230469 15.890625 53.03125 15.292969 54.152344 C 14.773438 55.125 15.183594 56.242188 15.4375 57.246094 C 17.390625 56.425781 19.511719 55.703125 21.648438 55.65625 C 22.734375 55.628906 23.777344 55.925781 24.851562 56.046875 C 25.824219 56.15625 26.800781 56.175781 27.773438 56.128906 C 29.933594 56.023438 31.929688 55.378906 34.011719 54.832031 C 34.808594 54.625 35.601562 54.417969 36.398438 54.210938 C 35.285156 53.207031 33.308594 52.953125 31.914062 52.730469 C 33.425781 51.34375 35.160156 50.058594 37.042969 49.21875 C 37.648438 48.949219 38.289062 48.71875 38.949219 48.621094 C 39.761719 48.5 40.574219 48.667969 41.390625 48.65625 C 42.972656 48.632812 44.609375 48.335938 46.082031 47.742188 C 46.097656 49.417969 45.476562 51.019531 44.203125 52.144531 C 47.761719 52.238281 51.359375 53.054688 54.765625 54.015625 C 57.40625 54.757812 60.015625 55.597656 62.6875 56.222656 C 65.082031 56.777344 67.699219 57.304688 70.132812 56.679688 C 71.609375 56.296875 72.695312 55.378906 73.902344 54.503906 C 71.917969 54.351562 69.976562 53.734375 68.273438 52.710938 C 67.394531 52.183594 66.582031 51.550781 65.859375 50.828125 C 65.496094 50.46875 65.199219 50.011719 64.828125 49.671875 C 64.730469 49.585938 63.875 49.101562 64.070312 48.953125 C 64.195312 48.859375 64.949219 49.34375 65.113281 49.40625 C 65.652344 49.613281 66.226562 49.75 66.800781 49.828125 C 67.492188 49.917969 68.585938 50.03125 69.171875 49.585938 C 69.882812 49.046875 70.476562 48.234375 71.097656 47.59375 C 68.058594 46.460938 65.023438 45.328125 61.984375 44.195312 C 61.550781 44.03125 61.113281 43.867188 60.675781 43.703125 Z M 55.539062 66.90625 C 57.160156 68.410156 58.324219 70.472656 59.378906 72.390625 C 58.058594 72.46875 56.746094 72.648438 55.535156 73.21875 C 55.261719 71.804688 54.972656 70.390625 54.410156 69.058594 C 53.855469 67.738281 53.050781 66.507812 52.132812 65.414062 C 54.035156 65.714844 55.945312 66.527344 57.535156 67.609375 C 56.648438 67.121094 55.726562 66.671875 54.773438 66.324219 C 55.054688 66.480469 55.304688 66.6875 55.539062 66.90625 Z M 68.875 68.785156 C 67.085938 68.890625 65.136719 69.613281 63.820312 70.835938 C 62.65625 67.597656 61.039062 64.742188 58.238281 62.632812 C 61.554688 62.402344 64.816406 63.539062 67.371094 65.609375 C 67.117188 65.457031 66.859375 65.308594 66.605469 65.15625 C 67.417969 66.363281 68.226562 67.570312 69.039062 68.777344 C 68.984375 68.78125 68.929688 68.785156 68.875 68.785156 Z M 40.722656 94.3125 C 40.84375 94.4375 40.15625 95.027344 40.066406 95.144531 C 39.964844 95.28125 39.761719 95.519531 39.714844 95.691406 C 39.5625 95.839844 39.597656 95.945312 39.8125 96 C 39.894531 96.148438 39.964844 96.1875 40.019531 96.109375 C 40.222656 96.066406 40.722656 95.414062 40.902344 95.261719 C 41.316406 94.910156 41.757812 94.59375 42.222656 94.316406 C 42.683594 94.042969 43.167969 93.804688 43.671875 93.617188 C 43.871094 93.542969 44.652344 93.179688 44.5625 93.53125 C 44.527344 93.667969 43.882812 93.972656 43.75 94.066406 C 43.554688 94.199219 43.363281 94.339844 43.171875 94.484375 C 42.660156 94.871094 42.171875 95.285156 41.714844 95.730469 C 43.308594 94.984375 44.902344 94.246094 46.496094 93.503906 C 46.222656 94.847656 46 96.214844 45.59375 97.527344 C 47.007812 96.421875 48.476562 95.390625 49.917969 94.324219 C 50.453125 93.925781 50.441406 93.03125 50.582031 92.394531 C 49.996094 92.828125 49.414062 93.261719 48.828125 93.695312 C 48.5625 92.738281 47.894531 91.875 47.160156 91.226562 C 45.992188 90.191406 44.632812 89.867188 43.117188 89.6875 C 41.59375 89.503906 40.050781 89.472656 38.519531 89.488281 C 37.613281 89.5 36.5625 90.355469 35.78125 90.789062 C 34.714844 91.382812 33.652344 91.992188 32.605469 92.625 C 34.179688 93.019531 35.683594 93.621094 37.121094 94.371094 C 37.464844 94.546875 37.800781 94.734375 38.136719 94.929688 C 38.292969 95.023438 38.453125 95.117188 38.609375 95.210938 C 38.84375 95.359375 38.792969 95.363281 38.980469 95.25 C 39.265625 95.078125 39.46875 94.753906 39.785156 94.578125 C 39.9375 94.492188 40.570312 94.148438 40.722656 94.3125 " fill-opacity="1" fill-rule="nonzero"/></svg>