<svg xmlns="http://www.w3.org/2000/svg" xmlns:xlink="http://www.w3.org/1999/xlink" width="130" zoomAndPan="magnify" viewBox="0 0 97.5 131.999998" height="176" preserveAspectRatio="xMidYMid meet" version="1.0"><defs><clipPath id="8b1135bf6b"><path d="M 5 14.203125 L 92.09375 14.203125 L 92.09375 117.921875 L 5 117.921875 Z M 5 14.203125 " clip-rule="nonzero"/></clipPath><clipPath id="c67a2e5d2d"><path d="M 7 14.203125 L 90 14.203125 L 90 116 L 7 116 Z M 7 14.203125 " clip-rule="nonzero"/></clipPath></defs><g clip-path="url(#8b1135bf6b)"><path fill="#21224e" d="M 89.824219 38.199219 C 89.179688 37.722656 76.929688 28.773438 61.464844 25.019531 C 59.269531 21.21875 53.054688 15.371094 49.105469 14.277344 C 48.921875 14.230469 48.734375 14.203125 48.546875 14.203125 C 48.359375 14.203125 48.171875 14.230469 47.992188 14.277344 C 44.042969 15.371094 37.828125 21.21875 35.628906 25.019531 C 20.167969 28.773438 7.914062 37.722656 7.269531 38.199219 C 5.847656 39.25 5 40.933594 5 42.699219 C 5 46.664062 5.222656 81.859375 12.882812 96.542969 C 16.425781 103.339844 23.234375 108.960938 33.117188 113.25 C 40.414062 116.417969 46.792969 117.6875 47.496094 117.820312 C 47.839844 117.886719 48.195312 117.921875 48.546875 117.921875 C 48.902344 117.921875 49.253906 117.886719 49.597656 117.820312 C 50.300781 117.6875 56.679688 116.417969 63.976562 113.25 C 73.859375 108.960938 80.667969 103.339844 84.214844 96.542969 C 91.875 81.859375 92.097656 46.664062 92.097656 42.699219 C 92.097656 40.933594 91.246094 39.25 89.824219 38.199219 " fill-opacity="1" fill-rule="nonzero"/></g><path fill="#2e306c" d="M 42.507812 74.210938 L 42.382812 74.652344 C 42.3125 74.898438 42.25 75.160156 42.199219 75.425781 L 42.144531 75.71875 L 42.105469 76.023438 C 42.070312 76.277344 42.042969 76.539062 42.019531 76.824219 L 42.011719 76.949219 L 41.996094 77.253906 C 41.972656 77.699219 41.964844 78.148438 41.972656 78.589844 L 41.980469 79.128906 L 41.457031 79 C 39.566406 78.535156 37.855469 78.4375 36.753906 78.4375 L 36.59375 78.4375 L 36.546875 78.429688 C 36.355469 78.386719 36.171875 78.34375 36 78.296875 L 35.941406 78.28125 C 35.875 78.261719 35.808594 78.242188 35.742188 78.222656 L 35.4375 78.128906 L 35.460938 77.308594 L 35.460938 77.234375 L 35.496094 77.15625 C 35.566406 76.984375 35.652344 76.792969 35.742188 76.59375 L 35.828125 76.402344 L 35.820312 76.398438 L 36.089844 75.847656 C 36.289062 75.445312 36.480469 75.085938 36.664062 74.785156 L 36.808594 74.539062 L 37.234375 73.953125 C 37.449219 73.699219 37.652344 73.527344 37.847656 73.425781 L 37.972656 73.367188 Z M 30.941406 56.023438 C 29.035156 56.335938 27.496094 56.96875 26.355469 57.90625 C 28.042969 58.285156 31.8125 59.390625 32.625 61.847656 L 32.816406 62.433594 L 32.203125 62.390625 C 32.195312 62.390625 31.773438 62.363281 31.113281 62.363281 C 29.558594 62.363281 25.886719 62.535156 23.980469 64.078125 L 30.839844 70.753906 L 30.332031 71.019531 C 30.25 71.066406 21.925781 75.464844 20.605469 80.617188 C 20.222656 82.113281 20.480469 83.550781 21.371094 84.882812 C 26 91.832031 31.496094 92.910156 31.554688 92.921875 L 31.90625 92.988281 L 31.382812 106.445312 L 30.785156 106.09375 C 29.132812 105.125 28.234375 104.414062 28.195312 104.382812 L 28.035156 104.257812 L 28.058594 101.8125 L 28.113281 96.386719 C 27.996094 96.390625 27.882812 96.390625 27.769531 96.390625 C 24.519531 96.390625 21.976562 95.488281 20.214844 93.714844 C 17.738281 91.214844 17.699219 87.863281 17.703125 87.492188 L 18.53125 87.5 C 18.53125 87.707031 18.546875 91.859375 22.046875 94.117188 C 19.832031 91.097656 19.214844 85.660156 19.042969 83.15625 L 16.484375 87.167969 L 16.132812 86.625 C 16.0625 86.511719 14.339844 83.757812 15.5625 78.226562 C 16.570312 73.667969 20.664062 72.152344 22.230469 71.734375 C 20.121094 68.925781 15.503906 68.820312 15.453125 68.820312 L 14.964844 68.808594 L 15.050781 68.332031 C 15.058594 68.292969 15.753906 64.394531 17.125 60.984375 C 17.234375 60.71875 17.34375 60.441406 17.453125 60.15625 L 17.464844 60.132812 C 17.464844 60.132812 17.480469 60.105469 17.480469 60.105469 L 17.871094 59.082031 C 18.753906 56.753906 19.640625 54.238281 20.015625 53.164062 C 18.28125 53.257812 16.484375 54.503906 16.464844 54.519531 L 15.851562 53.996094 C 17.398438 50.828125 22.496094 47.6875 24.203125 46.699219 L 24.164062 46.421875 C 24.695312 46.339844 25.238281 46.300781 25.769531 46.300781 C 33.640625 46.300781 39.679688 54.917969 42.578125 60.054688 C 43.472656 61.640625 44.910156 62.878906 46.621094 63.546875 L 46.886719 63.648438 L 46.886719 64.5625 L 46.324219 64.351562 C 44.59375 63.699219 43.101562 62.480469 42.121094 60.917969 L 39.25 56.355469 C 38.648438 56.226562 36.460938 55.796875 33.929688 55.796875 C 33.128906 55.796875 32.355469 55.839844 31.632812 55.925781 L 31.390625 55.953125 L 31.386719 55.949219 Z M 26.378906 97.472656 L 26.664062 97.566406 L 26.601562 103.835938 L 25.953125 103.375 C 25.84375 103.296875 25.730469 103.214844 25.621094 103.136719 L 25.453125 103.015625 C 25.402344 102.976562 25.207031 102.828125 25.207031 102.828125 C 24.847656 102.558594 24.535156 102.316406 24.253906 102.089844 C 24.210938 102.058594 23.964844 101.851562 23.964844 101.851562 C 23.863281 101.773438 23.765625 101.691406 23.667969 101.609375 C 23.632812 101.578125 23.429688 101.402344 23.429688 101.402344 C 23.316406 101.308594 23.207031 101.210938 23.09375 101.113281 C 23.058594 101.082031 23.019531 101.046875 22.984375 101.015625 L 22.859375 100.902344 C 22.75 100.804688 22.640625 100.707031 22.535156 100.609375 C 22.5 100.574219 22.285156 100.371094 22.285156 100.371094 C 22.1875 100.277344 22.085938 100.183594 21.988281 100.089844 L 21.964844 100.066406 C 21.785156 99.886719 21.621094 99.722656 21.457031 99.554688 C 21.414062 99.511719 21.253906 99.339844 21.253906 99.339844 L 21.171875 99.253906 C 21.09375 99.171875 21.015625 99.089844 20.941406 99.007812 L 20.875 98.9375 C 20.546875 98.578125 20.238281 98.21875 19.957031 97.875 C 19.90625 97.8125 19.859375 97.753906 19.8125 97.695312 L 18.972656 96.632812 L 20.167969 96.941406 C 21.136719 97.191406 22.0625 97.226562 22.84375 97.226562 C 23.097656 97.226562 23.347656 97.222656 23.589844 97.21875 C 23.824219 97.214844 24.054688 97.210938 24.277344 97.210938 C 24.976562 97.210938 25.714844 97.242188 26.378906 97.472656 Z M 84.882812 81.890625 C 84.851562 82.175781 84.8125 82.46875 84.757812 82.824219 L 83.9375 82.8125 C 83.917969 82.640625 83.894531 82.472656 83.867188 82.308594 L 83.679688 81.316406 L 83.617188 81.085938 L 83.675781 81.328125 L 83.851562 82.292969 C 84.046875 83.660156 84.0625 85.003906 83.898438 86.308594 L 83.894531 86.351562 L 83.847656 86.484375 L 83.039062 86.335938 C 83.050781 86.019531 83.050781 85.710938 83.039062 85.410156 L 82.984375 84.523438 L 82.953125 84.304688 L 82.976562 84.515625 L 83.023438 85.398438 C 83.050781 86.617188 82.945312 87.804688 82.707031 88.9375 L 82.617188 89.324219 L 82.589844 89.367188 C 81.703125 91.054688 80.757812 92.320312 80.121094 93.082031 C 79.570312 93.738281 79.199219 94.085938 79.183594 94.101562 L 78.105469 95.117188 L 78.5 93.6875 C 78.507812 93.664062 79.042969 91.703125 78.992188 89.773438 C 78.390625 91.894531 76.886719 94.917969 73.136719 96.023438 L 73.003906 95.75 C 72.683594 95.875 72.34375 95.976562 71.957031 96.0625 C 71.320312 96.199219 70.648438 96.265625 69.957031 96.265625 C 69.886719 96.265625 69.816406 96.265625 69.746094 96.265625 C 68.535156 96.242188 67.210938 96.023438 65.582031 95.585938 L 65.285156 95.507812 L 65.1875 92.988281 L 65.542969 92.921875 C 65.558594 92.917969 66.992188 92.644531 68.988281 91.472656 C 63.6875 90.382812 53.414062 86.214844 48.308594 82.59375 L 48.140625 82.472656 L 48.136719 82.480469 L 47.726562 82.167969 C 47.558594 82.039062 47.394531 81.910156 47.238281 81.78125 C 45.867188 80.65625 44.203125 79.796875 42.285156 79.226562 L 42 79.140625 L 41.988281 78.839844 C 41.972656 78.167969 41.980469 77.570312 42.015625 77.007812 C 42.078125 76.066406 42.207031 75.269531 42.410156 74.574219 L 42.515625 74.214844 L 43.664062 74.429688 C 43.917969 74.042969 44.488281 73.433594 45.597656 73.382812 C 45.65625 73.382812 45.714844 73.378906 45.78125 73.378906 C 46.457031 73.378906 47.496094 73.523438 48.636719 73.769531 C 50 74.066406 52.730469 74.785156 55.703125 76.277344 C 59.433594 78.15625 70.460938 79.65625 72.9375 79.972656 C 72.875 79.359375 72.695312 78.199219 72.160156 76.808594 C 72.078125 76.589844 71.441406 76.511719 70.929688 76.449219 C 70.109375 76.351562 69.179688 76.238281 68.703125 75.550781 C 68.316406 74.992188 68.34375 74.164062 68.375 73.289062 C 68.390625 72.761719 68.40625 72.21875 68.328125 71.769531 C 68.320312 71.71875 68.308594 71.667969 68.296875 71.617188 L 68.210938 71.855469 L 67.78125 71.597656 C 67.550781 71.460938 67.351562 71.347656 67.195312 71.257812 L 66.6875 70.972656 L 67.125 70.585938 C 67.40625 70.339844 67.699219 70.089844 67.988281 69.851562 C 68.152344 69.714844 68.320312 69.574219 68.488281 69.433594 C 68.765625 69.195312 68.996094 68.988281 69.199219 68.792969 L 68.777344 68.300781 L 73.117188 64.078125 C 71.207031 62.535156 67.535156 62.363281 65.984375 62.363281 L 65.164062 62.363281 L 65.5625 61.726562 C 65.660156 61.570312 65.761719 61.417969 65.863281 61.269531 C 66.261719 60.710938 66.652344 60.226562 67.0625 59.785156 L 67.390625 59.445312 L 67.734375 59.109375 L 67.785156 59.066406 C 67.890625 58.976562 67.980469 58.898438 68.050781 58.804688 L 68.121094 58.714844 L 68.226562 58.675781 C 69.179688 58.296875 70.109375 58.050781 70.738281 57.90625 C 69.613281 56.980469 68.097656 56.351562 66.214844 56.03125 L 65.640625 55.9375 L 65.636719 55.945312 L 65.394531 55.917969 C 64.691406 55.835938 63.941406 55.796875 63.164062 55.796875 C 60.632812 55.796875 58.445312 56.226562 57.847656 56.355469 L 54.976562 60.917969 C 54.132812 62.261719 52.933594 63.335938 51.503906 64.035156 L 50.90625 64.328125 L 50.90625 63.367188 L 51.136719 63.253906 C 52.566406 62.542969 53.738281 61.433594 54.519531 60.054688 C 57.417969 54.917969 63.457031 46.300781 71.324219 46.300781 C 71.859375 46.300781 72.398438 46.339844 72.933594 46.421875 C 79.941406 47.457031 82.804688 52.222656 83.972656 56.039062 L 83.210938 56.359375 C 83.210938 56.359375 83.148438 56.242188 83.132812 56.21875 C 82.894531 55.796875 82.636719 55.390625 82.359375 55 C 82.632812 55.402344 82.886719 55.8125 83.117188 56.222656 C 83.851562 57.53125 84.398438 58.925781 84.746094 60.367188 L 84.769531 60.46875 L 84.773438 60.503906 C 84.8125 61.164062 84.796875 61.558594 84.796875 61.578125 L 84.738281 63.171875 L 84.011719 61.75 C 83.453125 60.652344 81.945312 58.117188 80.429688 56.78125 C 81.308594 58.417969 82.746094 61.304688 83.742188 64.367188 L 83.015625 64.65625 L 83.277344 65.253906 L 83.621094 66.175781 L 83.921875 67.117188 C 84.300781 68.425781 84.53125 69.738281 84.613281 71.03125 L 84.65625 72.382812 L 84.058594 72.128906 C 83.585938 71.929688 81.867188 71.277344 79.675781 71.277344 C 79.449219 71.277344 79.222656 71.285156 78.996094 71.296875 C 80.515625 72.210938 83.085938 74.140625 84.292969 77.257812 C 84.855469 78.710938 85.054688 80.269531 84.882812 81.890625 Z M 69.011719 99.214844 L 68.34375 99.304688 L 68.351562 99.363281 L 68.421875 99.921875 C 68.5 100.628906 68.539062 101.359375 68.539062 102.160156 C 68.539062 102.664062 68.511719 103.171875 68.464844 103.671875 L 68.460938 103.6875 L 68.5 103.664062 L 68.3125 104.816406 L 68.058594 104.988281 L 67.328125 105.492188 L 67.441406 104.316406 L 67.449219 104.3125 L 67.476562 103.703125 C 67.484375 103.558594 67.484375 103.410156 67.488281 103.261719 C 67.476562 103.445312 67.46875 103.625 67.457031 103.804688 C 67.449219 103.902344 67.441406 104 67.433594 104.09375 L 67.410156 104.347656 L 67.425781 104.339844 C 67.425781 104.339844 67.304688 105.285156 67.300781 105.316406 L 67.269531 105.507812 L 67.109375 105.609375 C 66.867188 105.761719 66.597656 105.925781 66.308594 106.09375 L 65.714844 106.445312 L 65.398438 98.335938 L 65.644531 98.21875 C 66.867188 97.640625 67.800781 97.125 68.363281 96.789062 L 68.984375 96.425781 Z M 12.492188 54.074219 C 12.074219 55.132812 11.746094 56.273438 11.507812 57.460938 L 10.6875 57.40625 C 10.195312 49.195312 10.183594 42.96875 10.183594 42.707031 L 10.183594 42.5 L 10.351562 42.367188 C 10.351562 42.367188 10.480469 42.273438 10.726562 42.101562 C 10.804688 42.042969 10.898438 41.976562 11.007812 41.902344 L 11.25 41.734375 C 11.429688 41.613281 11.628906 41.476562 11.855469 41.324219 C 11.96875 41.25 12.085938 41.171875 12.210938 41.089844 C 16.050781 38.554688 23.914062 33.875 33.449219 30.988281 L 34.1875 30.765625 L 33.964844 31.503906 C 33.152344 34.242188 32.007812 38.003906 30.742188 42.089844 C 30.527344 42.792969 30.496094 43.539062 30.660156 44.253906 L 31.359375 44.792969 L 30.953125 45.507812 C 29.367188 44.878906 27.742188 44.5625 26.113281 44.5625 C 25.5 44.5625 24.882812 44.605469 24.269531 44.699219 C 18.640625 45.546875 14.566406 48.789062 12.492188 54.074219 Z M 50.484375 43.734375 L 50.441406 43.785156 L 48.960938 44.710938 L 48.960938 53.433594 L 48.363281 53.136719 C 48.074219 52.992188 41.25 49.546875 40.957031 44.390625 L 41.761719 44.226562 C 41.777344 44.261719 42.0625 45.003906 42.769531 45.304688 C 42.644531 44.664062 42.320312 43.613281 41.453125 43.015625 L 41.210938 42.851562 L 41.285156 42.574219 C 41.300781 42.515625 41.664062 41.15625 43.28125 40.769531 L 43.523438 40.710938 L 44.683594 42.027344 C 44.839844 42.207031 45.066406 42.308594 45.300781 42.308594 L 45.324219 42.722656 L 45.328125 42.308594 C 45.710938 42.304688 46.035156 42.039062 46.125 41.667969 C 46.234375 41.199219 46.484375 40.78125 46.84375 40.457031 L 47.492188 39.875 L 48.128906 40.390625 L 47.683594 41.15625 C 47.546875 41.390625 47.542969 41.671875 47.679688 41.910156 C 47.816406 42.144531 48.058594 42.285156 48.332031 42.289062 L 48.746094 42.289062 C 49.023438 42.285156 49.269531 42.144531 49.40625 41.902344 C 49.542969 41.664062 49.542969 41.378906 49.402344 41.140625 L 48.964844 40.390625 L 49.601562 39.875 L 50.253906 40.457031 C 51.207031 41.316406 51.308594 42.753906 50.484375 43.734375 Z M 64.28125 44.539062 C 64.226562 44.378906 64.175781 44.222656 64.128906 44.0625 C 64.097656 43.964844 64.066406 43.863281 64.035156 43.769531 C 64.011719 43.691406 63.984375 43.613281 63.957031 43.535156 L 63.730469 42.84375 L 61.464844 44.578125 L 60.410156 45.382812 C 60.410156 45.382812 60.25 45.527344 60.175781 45.59375 L 60.171875 45.582031 L 59.519531 46.195312 C 56.707031 48.855469 54.378906 51.9375 52.601562 55.359375 C 51.238281 57.984375 49.566406 59.886719 48.929688 60.570312 C 48.898438 60.542969 48.863281 60.511719 48.828125 60.476562 C 48 59.722656 45.910156 57.664062 44.367188 54.855469 C 42.453125 51.375 39.914062 48.230469 36.828125 45.507812 L 36.800781 45.484375 C 36.753906 45.199219 36.769531 44.90625 36.84375 44.625 C 37.558594 41.980469 39.910156 33.210938 40.273438 31.40625 C 40.320312 31.167969 40.480469 30.714844 40.960938 29.914062 C 41.519531 28.984375 42.34375 27.875 43.28125 26.792969 C 44.308594 25.609375 45.371094 24.566406 46.355469 23.773438 C 47.246094 23.058594 48.046875 22.574219 48.671875 22.375 L 48.960938 22.28125 L 48.960938 18.042969 C 51.601562 19.277344 54.316406 22.027344 56.425781 24.34375 C 56.734375 24.683594 57.027344 25.007812 57.292969 25.304688 C 58 26.089844 58.511719 26.660156 58.84375 26.945312 C 58.867188 26.960938 58.992188 27.085938 59.238281 27.628906 C 59.539062 28.285156 59.921875 29.335938 60.371094 30.742188 C 61.617188 34.640625 63.050781 40.199219 63.605469 42.410156 L 63.613281 42.425781 L 63.617188 42.445312 C 63.785156 42.921875 63.925781 43.351562 64.054688 43.757812 C 64.054688 43.757812 64.171875 44.140625 64.199219 44.234375 L 64.34375 44.714844 Z M 31.910156 44.070312 L 31.945312 44.210938 L 32.238281 44.433594 C 32.316406 44.496094 32.394531 44.558594 32.472656 44.617188 L 33.316406 45.277344 L 33.261719 44.359375 C 33.253906 44.234375 33.25 44.109375 33.25 43.984375 C 33.257812 44.175781 33.269531 44.367188 33.285156 44.5625 C 33.308594 44.761719 33.339844 44.972656 33.382812 45.214844 L 33.40625 45.363281 L 33.523438 45.460938 C 33.742188 45.640625 33.957031 45.820312 34.167969 46.003906 L 35.023438 46.734375 L 34.847656 45.621094 C 34.832031 45.515625 34.816406 45.410156 34.804688 45.300781 C 34.828125 45.449219 34.886719 45.78125 34.886719 45.78125 C 34.945312 46.078125 35.011719 46.386719 35.089844 46.71875 L 35.121094 46.839844 L 35.214844 46.925781 C 37.941406 49.417969 40.261719 52.167969 42.113281 55.101562 C 44.253906 58.492188 47.144531 60.976562 48.289062 61.886719 C 48.410156 61.980469 48.511719 62.058594 48.59375 62.121094 C 48.757812 62.246094 48.847656 62.3125 48.847656 62.3125 L 49.113281 62.503906 L 49.359375 62.292969 C 49.367188 62.289062 49.527344 62.148438 49.800781 61.894531 C 50.691406 61.0625 52.960938 58.792969 54.824219 55.667969 C 56.328125 53.148438 58.15625 50.761719 60.257812 48.570312 L 60.382812 48.429688 C 60.382812 48.429688 60.371094 48.207031 60.371094 48.199219 C 60.355469 47.953125 60.328125 47.714844 60.300781 47.480469 C 60.292969 47.398438 60.285156 47.316406 60.277344 47.230469 C 60.292969 47.3125 60.308594 47.394531 60.320312 47.476562 L 60.332031 47.550781 L 60.449219 48.363281 L 61.03125 47.785156 C 61.261719 47.5625 61.492188 47.339844 61.726562 47.117188 L 61.875 46.976562 L 61.851562 46.773438 C 61.839844 46.660156 61.828125 46.546875 61.8125 46.429688 L 61.769531 46.136719 C 61.777344 46.164062 61.785156 46.191406 61.789062 46.21875 L 61.949219 46.902344 L 62.554688 46.355469 C 62.65625 46.265625 62.753906 46.175781 62.855469 46.085938 L 63.027344 45.9375 L 62.992188 45.710938 C 62.957031 45.472656 62.917969 45.234375 62.878906 44.996094 C 62.859375 44.886719 62.839844 44.773438 62.824219 44.664062 C 62.851562 44.773438 62.875 44.882812 62.898438 44.992188 C 62.90625 45.03125 62.910156 45.070312 62.917969 45.109375 L 63.0625 45.898438 L 63.609375 45.441406 C 63.789062 45.292969 63.96875 45.144531 64.152344 44.996094 L 64.378906 44.8125 L 64.378906 44.808594 L 64.851562 44.441406 L 65.035156 44.296875 L 65.148438 44.210938 L 65.1875 44.070312 C 65.324219 43.542969 65.3125 42.984375 65.148438 42.460938 C 64.605469 40.703125 62.734375 34.644531 61.550781 30.597656 C 61.132812 29.179688 60.839844 28.136719 60.675781 27.5 C 60.632812 27.347656 60.601562 27.214844 60.574219 27.105469 C 60.371094 26.226562 59.511719 24.996094 58.824219 24.117188 C 56.578125 21.25 51.9375 16.800781 48.660156 15.894531 L 48.546875 15.863281 L 48.4375 15.894531 C 45.15625 16.800781 40.515625 21.25 38.269531 24.117188 C 37.582031 24.996094 36.722656 26.226562 36.519531 27.101562 C 36.496094 27.214844 36.460938 27.347656 36.421875 27.5 C 36.257812 28.140625 35.960938 29.179688 35.546875 30.597656 C 34.359375 34.640625 32.492188 40.703125 31.945312 42.460938 C 31.785156 42.984375 31.773438 43.542969 31.910156 44.070312 " fill-opacity="1" fill-rule="nonzero"/><path fill="#ffffff" d="M 55.894531 36.886719 L 55.609375 36.796875 C 55.582031 36.785156 55.304688 36.703125 54.902344 36.703125 C 54.144531 36.703125 52.773438 37.007812 52.085938 39.050781 L 51.929688 39.507812 L 52.40625 39.589844 C 52.417969 39.59375 52.714844 39.644531 53.125 39.644531 C 53.78125 39.644531 54.6875 39.515625 55.296875 38.894531 C 55.710938 38.472656 55.914062 37.898438 55.902344 37.183594 Z M 45.558594 39.050781 L 45.710938 39.507812 L 45.234375 39.589844 C 45.222656 39.59375 44.925781 39.644531 44.515625 39.644531 C 43.863281 39.644531 42.953125 39.515625 42.347656 38.894531 C 41.933594 38.472656 41.726562 37.898438 41.742188 37.183594 L 41.746094 36.886719 L 42.03125 36.796875 C 42.0625 36.785156 42.339844 36.703125 42.738281 36.703125 C 43.496094 36.703125 44.871094 37.007812 45.558594 39.050781 " fill-opacity="1" fill-rule="nonzero"/><path fill="#6966a3" d="M 47.128906 18.273438 C 47.128906 18.273438 42.628906 20.714844 41.117188 22.578125 C 40.710938 23.085938 40.34375 23.613281 40.03125 24.117188 C 39.1875 25.46875 38.707031 26.628906 38.707031 26.628906 C 38.707031 26.628906 39.769531 25.457031 41.234375 23.929688 C 42.988281 22.097656 45.332031 19.746094 47.128906 18.273438 Z M 43.847656 34.277344 C 43.597656 34.8125 46.667969 37.035156 46.730469 36.816406 C 46.792969 36.597656 46.417969 34.308594 46.949219 34.496094 C 47.167969 34.574219 47.46875 35.476562 47.753906 36.523438 C 47.863281 36.929688 48.207031 37.132812 48.546875 37.132812 C 48.890625 37.132812 49.230469 36.929688 49.339844 36.523438 C 49.625 35.476562 49.929688 34.574219 50.144531 34.496094 C 50.679688 34.308594 50.300781 36.597656 50.363281 36.816406 C 50.429688 37.035156 53.5 34.8125 53.246094 34.277344 C 53.042969 33.839844 49.988281 30.914062 48.914062 29.894531 C 48.8125 29.796875 48.679688 29.75 48.546875 29.75 C 48.414062 29.75 48.285156 29.796875 48.179688 29.894531 C 47.109375 30.914062 44.054688 33.839844 43.847656 34.277344 Z M 72.546875 76.660156 C 72.191406 75.734375 69.769531 76.359375 69.042969 75.3125 C 68.527344 74.566406 68.949219 72.90625 68.738281 71.699219 C 68.664062 71.273438 68.511719 70.90625 68.210938 70.652344 L 67.992188 71.242188 L 67.53125 72.503906 L 66.035156 76.589844 C 67.28125 76.613281 68.488281 76.886719 69.640625 77.269531 C 70.230469 77.46875 70.808594 77.699219 71.367188 77.960938 C 71.925781 78.226562 72.476562 78.511719 72.996094 78.847656 C 71.84375 78.410156 70.683594 78.015625 69.507812 77.714844 C 68.335938 77.410156 67.136719 77.1875 65.949219 77.1875 C 65.597656 77.183594 65.257812 77.15625 64.925781 77.117188 C 64.910156 77.117188 64.902344 77.121094 64.886719 77.121094 C 64.859375 77.121094 64.832031 77.121094 64.808594 77.113281 C 64.746094 77.101562 64.683594 77.089844 64.621094 77.078125 C 64.4375 77.050781 64.253906 77.023438 64.070312 76.996094 C 63.460938 76.902344 62.851562 76.792969 62.246094 76.675781 C 61.035156 76.445312 59.828125 76.191406 58.628906 75.925781 C 56.226562 75.390625 53.832031 74.824219 51.445312 74.230469 C 50.476562 73.988281 49.511719 73.746094 48.546875 73.5 C 47.179688 73.152344 45.808594 72.796875 44.441406 72.4375 C 43.726562 72.75 43.234375 73.476562 42.941406 74.285156 C 42.890625 74.417969 42.851562 74.554688 42.808594 74.691406 L 43.882812 74.894531 C 43.882812 74.894531 44.269531 73.859375 45.617188 73.796875 C 46.171875 73.773438 47.214844 73.886719 48.546875 74.175781 C 50.460938 74.589844 52.976562 75.375 55.515625 76.648438 C 59.820312 78.816406 73.382812 80.445312 73.382812 80.445312 C 73.382812 80.445312 73.382812 78.832031 72.546875 76.660156 Z M 36.328125 74.820312 C 36.324219 74.824219 36.324219 74.828125 36.324219 74.832031 C 36.265625 75.03125 36.199219 75.230469 36.148438 75.433594 L 36.03125 76.03125 C 36.164062 76.023438 36.296875 76.015625 36.425781 76.027344 C 36.4375 76.027344 36.449219 76.03125 36.464844 76.03125 C 36.636719 75.679688 36.824219 75.320312 37.019531 74.996094 C 36.894531 74.972656 36.765625 74.949219 36.640625 74.917969 C 36.535156 74.894531 36.429688 74.859375 36.328125 74.820312 Z M 35.878906 77.316406 C 35.949219 77.148438 36.03125 76.960938 36.121094 76.761719 C 36.058594 76.738281 36.003906 76.714844 35.941406 76.6875 C 35.921875 76.898438 35.890625 77.105469 35.878906 77.316406 Z M 41.082031 73.921875 C 40.601562 73.839844 40.117188 73.769531 39.632812 73.703125 C 39.148438 73.640625 38.660156 73.589844 38.171875 73.554688 C 37.925781 73.535156 37.679688 73.53125 37.4375 73.492188 C 37.316406 73.476562 37.191406 73.445312 37.070312 73.410156 C 37.050781 73.402344 37.03125 73.398438 37.015625 73.390625 C 36.945312 73.492188 36.878906 73.597656 36.816406 73.707031 C 36.742188 73.84375 36.664062 73.980469 36.597656 74.125 C 36.648438 74.121094 36.699219 74.121094 36.75 74.121094 C 37.023438 74.132812 37.289062 74.179688 37.554688 74.21875 C 37.71875 74.023438 37.882812 73.875 38.035156 73.796875 L 41.984375 74.539062 C 42.023438 74.398438 42.066406 74.257812 42.113281 74.121094 C 42.003906 74.109375 41.902344 74.082031 41.796875 74.0625 C 41.5625 74.007812 41.320312 73.96875 41.082031 73.921875 Z M 39.4375 72.335938 C 39.089844 72.285156 38.742188 72.234375 38.398438 72.183594 C 38.347656 72.203125 38.289062 72.226562 38.238281 72.253906 C 38.15625 72.292969 38.078125 72.347656 37.996094 72.394531 L 37.761719 72.5625 C 37.714844 72.601562 37.671875 72.640625 37.628906 72.683594 C 37.828125 72.675781 38.027344 72.695312 38.226562 72.703125 C 38.738281 72.738281 39.246094 72.785156 39.753906 72.863281 C 40.257812 72.9375 40.761719 73.054688 41.253906 73.203125 C 41.5 73.285156 41.746094 73.363281 41.984375 73.464844 C 42.09375 73.503906 42.207031 73.550781 42.308594 73.621094 C 42.402344 73.40625 42.511719 73.195312 42.640625 72.992188 L 40.148438 72.480469 Z M 13.636719 58.339844 L 14.046875 57.691406 L 14.476562 57.054688 C 14.628906 56.851562 14.777344 56.640625 14.933594 56.441406 L 15.410156 55.84375 L 15.90625 55.261719 C 16.082031 55.074219 16.242188 54.878906 16.4375 54.710938 C 16.640625 54.550781 16.863281 54.410156 17.136719 54.320312 C 17.078125 54.605469 16.960938 54.835938 16.828125 55.050781 C 16.703125 55.269531 16.539062 55.457031 16.390625 55.652344 L 15.949219 56.253906 L 15.53125 56.871094 C 15.398438 57.078125 15.261719 57.285156 15.125 57.492188 L 14.730469 58.121094 L 14.359375 58.761719 L 14.085938 59.253906 C 15.078125 57.757812 16.476562 56.015625 17.804688 55.605469 C 17.804688 55.605469 13.753906 62.328125 12.816406 68.234375 C 13.164062 67.371094 13.535156 66.519531 13.941406 65.679688 L 14.375 64.808594 L 14.839844 63.949219 L 15.320312 63.101562 C 15.488281 62.820312 15.65625 62.542969 15.828125 62.265625 L 16.359375 61.449219 L 16.910156 60.644531 C 17.101562 60.382812 17.28125 60.109375 17.496094 59.867188 C 17.71875 59.628906 17.957031 59.40625 18.257812 59.230469 C 19.433594 56.136719 20.597656 52.765625 20.597656 52.765625 C 18.539062 52.550781 16.226562 54.179688 16.226562 54.179688 C 18.019531 50.503906 24.921875 46.769531 24.957031 46.75 C 24.714844 46.769531 24.46875 46.792969 24.222656 46.832031 C 14.90625 48.210938 13.121094 56.355469 12.785156 59.90625 C 12.9375 59.601562 13.09375 59.300781 13.257812 59.003906 Z M 18.117188 87.476562 C 18.117188 87.476562 18.117188 87.484375 18.117188 87.492188 C 18.117188 87.492188 18.117188 87.496094 18.117188 87.496094 C 18.113281 87.882812 18.164062 94.039062 24.539062 95.609375 C 19.625 93.828125 19.394531 81.832031 19.394531 81.832031 L 16.484375 86.398438 C 16.484375 86.398438 14.769531 83.742188 15.96875 78.316406 C 17.167969 72.886719 22.910156 72.003906 22.910156 72.003906 C 20.851562 68.488281 15.460938 68.402344 15.460938 68.402344 C 15.460938 68.402344 16.140625 64.546875 17.511719 61.140625 C 17.617188 60.871094 17.730469 60.59375 17.839844 60.308594 C 17.710938 60.539062 17.570312 60.761719 17.429688 60.984375 L 16.933594 61.808594 L 16.460938 62.640625 C 16.3125 62.925781 16.15625 63.203125 16 63.480469 L 15.550781 64.328125 C 15.265625 64.898438 14.980469 65.46875 14.703125 66.046875 C 14.160156 67.199219 13.660156 68.375 13.214844 69.570312 L 12.890625 70.472656 C 12.8125 70.703125 12.730469 70.929688 12.644531 71.15625 C 12.660156 71.382812 12.679688 71.601562 12.710938 71.820312 C 12.710938 71.820312 15.765625 70.355469 19.449219 71.046875 C 19.449219 71.046875 16.707031 72.242188 14.683594 74.816406 L 14.519531 75.253906 C 14.1875 76.210938 13.964844 77.203125 13.839844 78.207031 L 13.765625 78.960938 L 13.71875 79.722656 L 13.71875 80.480469 C 13.730469 80.734375 13.742188 80.988281 13.75 81.242188 L 13.816406 82.003906 L 13.921875 82.761719 C 13.96875 83.011719 14.03125 83.257812 14.050781 83.515625 C 14.082031 83.773438 14.089844 84.039062 14.027344 84.332031 C 14.003906 84.3125 13.984375 84.289062 13.960938 84.265625 C 14.101562 84.644531 14.257812 85.019531 14.433594 85.386719 L 14.746094 85.996094 L 15.09375 86.59375 C 15.109375 86.621094 15.128906 86.644531 15.144531 86.667969 C 15.257812 86.835938 15.371094 86.996094 15.460938 87.183594 C 15.578125 87.386719 15.675781 87.605469 15.71875 87.886719 C 15.625 87.855469 15.539062 87.816406 15.457031 87.773438 C 15.3125 87.699219 15.179688 87.605469 15.058594 87.503906 C 14.878906 87.335938 14.734375 87.136719 14.582031 86.949219 L 14.15625 86.351562 L 13.777344 85.726562 C 13.445312 85.136719 13.164062 84.515625 12.945312 83.871094 C 13.871094 88.230469 16.054688 91.335938 17.292969 92.816406 C 17.832031 93.460938 18.195312 93.800781 18.195312 93.800781 C 18.195312 93.800781 17.097656 89.867188 18.117188 87.476562 Z M 70.902344 103.039062 C 71.269531 102.773438 71.632812 102.507812 71.992188 102.230469 C 74.089844 100.617188 75.996094 98.773438 77.535156 96.683594 C 75.503906 97.28125 72.761719 97.890625 70.851562 97.863281 Z M 21.183594 98.65625 C 20.871094 98.316406 20.570312 97.96875 20.277344 97.613281 C 20.570312 97.96875 20.871094 98.316406 21.183594 98.65625 Z M 79.390625 38.242188 C 79.25 38.164062 79.105469 38.082031 78.960938 38.003906 C 78.648438 37.832031 78.332031 37.65625 78.007812 37.484375 C 77.582031 37.253906 77.140625 37.023438 76.691406 36.789062 C 76.289062 36.582031 75.875 36.375 75.453125 36.164062 C 73.730469 35.308594 71.851562 34.449219 69.851562 33.632812 C 69.351562 33.429688 68.84375 33.230469 68.332031 33.035156 C 67.300781 32.640625 66.246094 32.261719 65.164062 31.902344 C 64.625 31.726562 64.078125 31.550781 63.527344 31.382812 C 64.421875 34.398438 65.628906 38.347656 66.75 41.96875 C 67.003906 42.789062 67.023438 43.664062 66.804688 44.496094 L 66.230469 44.933594 C 66.15625 44.996094 66.078125 45.054688 66.003906 45.117188 C 67.566406 44.5 69.226562 44.144531 70.980469 44.144531 C 71.613281 44.144531 72.253906 44.195312 72.886719 44.289062 C 78.671875 45.160156 82.855469 48.488281 84.992188 53.921875 C 85.464844 55.128906 85.78125 56.316406 85.996094 57.378906 C 86.496094 48.996094 86.496094 42.699219 86.496094 42.699219 C 86.496094 42.699219 83.800781 40.707031 79.390625 38.242188 Z M 20.066406 97.34375 C 20.136719 97.433594 20.203125 97.523438 20.277344 97.609375 C 20.203125 97.523438 20.136719 97.433594 20.066406 97.34375 " fill-opacity="1" fill-rule="nonzero"/><g clip-path="url(#c67a2e5d2d)"><path fill="#100f0d" d="M 63.8125 93.914062 C 63.847656 94 63.921875 94.023438 63.792969 94.320312 C 63.542969 94.507812 63.492188 94.433594 63.394531 94.414062 C 63.3125 94.382812 63.226562 94.351562 63.152344 94.304688 C 63.003906 94.210938 62.886719 94.085938 62.761719 93.964844 C 62.523438 93.714844 62.296875 93.457031 62.097656 93.175781 C 61.894531 92.894531 61.726562 92.59375 61.589844 92.277344 L 61.492188 92.039062 L 61.410156 91.796875 C 61.386719 91.714844 61.347656 91.636719 61.355469 91.542969 C 61.363281 91.449219 61.394531 91.34375 61.5 91.214844 C 61.828125 91.265625 61.894531 91.398438 61.972656 91.535156 L 62.234375 91.921875 C 62.410156 92.179688 62.59375 92.425781 62.777344 92.671875 C 62.964844 92.914062 63.160156 93.148438 63.375 93.371094 L 63.535156 93.535156 C 63.59375 93.585938 63.644531 93.640625 63.6875 93.707031 C 63.738281 93.765625 63.777344 93.839844 63.8125 93.914062 Z M 41.6875 42.675781 C 41.6875 42.675781 41.984375 41.507812 43.378906 41.171875 L 44.375 42.300781 C 44.609375 42.574219 44.953125 42.726562 45.316406 42.722656 C 45.320312 42.722656 45.328125 42.722656 45.335938 42.722656 C 45.90625 42.714844 46.394531 42.320312 46.527344 41.761719 C 46.617188 41.390625 46.8125 41.042969 47.121094 40.765625 L 47.769531 40.183594 L 47.324219 40.945312 C 46.871094 41.722656 47.429688 42.699219 48.328125 42.703125 L 48.746094 42.703125 C 49.65625 42.699219 50.21875 41.714844 49.761719 40.929688 L 49.324219 40.183594 L 49.976562 40.765625 C 50.757812 41.46875 50.839844 42.664062 50.164062 43.46875 L 48.546875 44.484375 L 48.546875 44.480469 L 46.984375 43.5 C 46.691406 43.339844 46.445312 43.144531 46.300781 42.925781 C 46.300781 42.925781 46.105469 44.648438 48.546875 45.027344 L 48.546875 52.765625 C 48.546875 52.765625 41.65625 49.347656 41.371094 44.367188 C 41.371094 44.367188 41.875 45.746094 43.253906 45.839844 C 43.253906 45.839844 43.191406 43.710938 41.6875 42.675781 Z M 45.164062 39.183594 C 45.164062 39.183594 42.109375 39.714844 42.15625 37.191406 C 42.15625 37.191406 44.269531 36.527344 45.164062 39.183594 Z M 43.847656 34.277344 C 44.054688 33.839844 47.109375 30.914062 48.179688 29.894531 C 48.285156 29.796875 48.414062 29.75 48.546875 29.75 C 48.679688 29.75 48.8125 29.796875 48.914062 29.894531 C 49.988281 30.914062 53.042969 33.839844 53.246094 34.277344 C 53.5 34.8125 50.429688 37.035156 50.363281 36.816406 C 50.300781 36.597656 50.679688 34.308594 50.144531 34.496094 C 49.929688 34.574219 49.625 35.476562 49.339844 36.523438 C 49.230469 36.929688 48.890625 37.132812 48.546875 37.132812 C 48.207031 37.132812 47.863281 36.929688 47.753906 36.523438 C 47.46875 35.476562 47.167969 34.574219 46.949219 34.496094 C 46.417969 34.308594 46.792969 36.597656 46.730469 36.816406 C 46.667969 37.035156 43.597656 34.8125 43.847656 34.277344 Z M 55.488281 37.191406 C 55.535156 39.714844 52.476562 39.183594 52.476562 39.183594 C 53.371094 36.527344 55.488281 37.191406 55.488281 37.191406 Z M 48.070312 55.632812 C 48.222656 55.691406 48.382812 55.722656 48.546875 55.722656 C 48.710938 55.722656 48.875 55.691406 49.023438 55.632812 C 55.316406 53.109375 60.074219 44.800781 57.507812 37.617188 C 56.941406 36.023438 56.203125 34.652344 55.398438 33.488281 C 54.484375 32.40625 53.507812 31.316406 52.585938 30.324219 C 52.601562 30.332031 52.617188 30.339844 52.632812 30.347656 C 53.632812 30.855469 54.554688 31.394531 55.03125 31.859375 C 56.414062 33.199219 58.695312 37.609375 58.695312 37.609375 C 58.695312 37.609375 58.695312 37.558594 58.65625 37.019531 C 58.632812 36.707031 58.59375 36.238281 58.535156 35.523438 C 58.375 33.5625 56.960938 30.414062 56.960938 30.414062 L 58.21875 31.183594 C 58.21875 31.183594 58.042969 30.632812 57.777344 29.9375 C 57.445312 29.078125 56.972656 28.003906 56.511719 27.488281 C 56.347656 27.304688 56.066406 27.042969 55.722656 26.734375 C 54.320312 25.484375 51.851562 23.535156 51.851562 23.535156 C 51.851562 23.535156 51.851562 23.535156 53.523438 24.082031 C 55.195312 24.628906 57.1875 26.628906 57.1875 26.628906 C 57.1875 26.628906 57.152344 26.429688 55.996094 24.757812 C 55.820312 24.503906 55.527344 24.1875 55.15625 23.832031 C 53.074219 21.851562 48.546875 18.683594 48.546875 18.683594 L 48.546875 27.636719 C 48.546875 27.636719 47.5 28.054688 46.078125 29.058594 C 44.015625 30.515625 41.164062 33.203125 39.585938 37.617188 C 37.023438 44.800781 41.78125 53.109375 48.070312 55.632812 Z M 71.992188 102.230469 C 71.632812 102.507812 71.269531 102.773438 70.902344 103.039062 L 70.851562 97.863281 C 72.761719 97.890625 75.503906 97.28125 77.535156 96.683594 C 75.996094 98.773438 74.089844 100.617188 71.992188 102.230469 Z M 25.699219 102.679688 C 25.617188 102.621094 25.539062 102.558594 25.457031 102.496094 C 25.140625 102.257812 24.824219 102.015625 24.511719 101.765625 C 24.445312 101.710938 24.378906 101.65625 24.3125 101.601562 C 24.1875 101.5 24.058594 101.398438 23.9375 101.292969 C 23.875 101.242188 23.816406 101.1875 23.753906 101.136719 C 23.625 101.023438 23.496094 100.917969 23.371094 100.804688 C 23.308594 100.75 23.25 100.695312 23.191406 100.640625 C 23.066406 100.53125 22.941406 100.417969 22.816406 100.304688 C 22.757812 100.246094 22.699219 100.191406 22.636719 100.132812 C 22.519531 100.019531 22.398438 99.90625 22.277344 99.792969 C 22.265625 99.777344 22.253906 99.765625 22.242188 99.753906 C 22.078125 99.59375 21.914062 99.429688 21.753906 99.265625 C 21.6875 99.195312 21.621094 99.125 21.554688 99.054688 C 21.453125 98.945312 21.347656 98.839844 21.246094 98.726562 C 21.222656 98.703125 21.203125 98.679688 21.183594 98.65625 C 20.871094 98.316406 20.570312 97.96875 20.277344 97.613281 C 20.277344 97.613281 20.277344 97.609375 20.277344 97.609375 C 20.203125 97.523438 20.136719 97.433594 20.066406 97.34375 C 22.484375 97.96875 24.671875 97.320312 26.242188 97.863281 L 26.195312 103.039062 C 26.085938 102.960938 25.976562 102.878906 25.867188 102.800781 C 25.8125 102.761719 25.753906 102.722656 25.699219 102.679688 Z M 12.945312 83.871094 C 13.164062 84.515625 13.445312 85.136719 13.777344 85.726562 L 14.15625 86.351562 L 14.582031 86.949219 C 14.734375 87.136719 14.878906 87.335938 15.058594 87.503906 C 15.179688 87.605469 15.3125 87.699219 15.457031 87.773438 C 15.539062 87.816406 15.625 87.855469 15.71875 87.886719 C 15.675781 87.605469 15.578125 87.386719 15.460938 87.183594 C 15.371094 86.996094 15.257812 86.835938 15.144531 86.667969 C 15.128906 86.644531 15.109375 86.621094 15.09375 86.59375 L 14.746094 85.996094 L 14.433594 85.386719 C 14.257812 85.019531 14.101562 84.644531 13.960938 84.265625 C 13.984375 84.289062 14.003906 84.3125 14.027344 84.332031 C 14.089844 84.039062 14.082031 83.773438 14.050781 83.515625 C 14.03125 83.257812 13.96875 83.011719 13.921875 82.761719 L 13.816406 82.003906 L 13.75 81.242188 C 13.742188 80.988281 13.730469 80.734375 13.71875 80.480469 L 13.71875 79.722656 L 13.765625 78.960938 L 13.839844 78.207031 C 13.964844 77.203125 14.1875 76.210938 14.519531 75.253906 L 14.683594 74.816406 C 16.707031 72.242188 19.449219 71.046875 19.449219 71.046875 C 15.765625 70.355469 12.710938 71.820312 12.710938 71.820312 C 12.679688 71.601562 12.660156 71.382812 12.644531 71.15625 C 12.730469 70.929688 12.8125 70.703125 12.890625 70.472656 L 13.214844 69.570312 C 13.660156 68.375 14.160156 67.199219 14.703125 66.046875 C 14.980469 65.46875 15.265625 64.898438 15.550781 64.328125 L 16 63.480469 C 16.15625 63.203125 16.3125 62.925781 16.460938 62.640625 L 16.933594 61.808594 L 17.429688 60.984375 C 17.570312 60.761719 17.710938 60.539062 17.839844 60.308594 C 18.023438 59.980469 18.183594 59.628906 18.265625 59.222656 C 18.261719 59.226562 18.257812 59.226562 18.257812 59.230469 C 17.957031 59.40625 17.71875 59.628906 17.496094 59.867188 C 17.28125 60.109375 17.101562 60.382812 16.910156 60.644531 L 16.359375 61.449219 L 15.828125 62.265625 C 15.65625 62.542969 15.488281 62.820312 15.320312 63.101562 L 14.839844 63.949219 L 14.375 64.808594 L 13.941406 65.679688 C 13.535156 66.519531 13.164062 67.371094 12.816406 68.234375 C 13.753906 62.328125 17.804688 55.605469 17.804688 55.605469 C 16.476562 56.015625 15.078125 57.757812 14.085938 59.253906 L 14.359375 58.761719 L 14.730469 58.121094 L 15.125 57.492188 C 15.261719 57.285156 15.398438 57.078125 15.53125 56.871094 L 15.949219 56.253906 L 16.390625 55.652344 C 16.539062 55.457031 16.703125 55.269531 16.828125 55.050781 C 16.960938 54.835938 17.078125 54.605469 17.136719 54.320312 C 16.863281 54.410156 16.640625 54.550781 16.4375 54.710938 C 16.242188 54.878906 16.082031 55.074219 15.90625 55.261719 L 15.410156 55.84375 L 14.933594 56.441406 C 14.777344 56.640625 14.628906 56.851562 14.476562 57.054688 L 14.046875 57.691406 L 13.636719 58.339844 L 13.257812 59.003906 C 13.09375 59.300781 12.9375 59.601562 12.785156 59.90625 C 13.121094 56.355469 14.90625 48.210938 24.222656 46.832031 C 32.566406 45.59375 39.050781 54.648438 42.21875 60.257812 C 43.179688 61.957031 44.695312 63.242188 46.472656 63.933594 L 46.472656 72.128906 C 45.820312 71.953125 45.164062 71.78125 44.511719 71.605469 C 44.433594 71.582031 44.347656 71.585938 44.265625 71.613281 L 44.261719 71.617188 C 43.875 71.757812 43.523438 71.988281 43.226562 72.265625 C 42.933594 72.113281 42.621094 72.078125 42.316406 71.992188 C 41.886719 71.894531 41.453125 71.804688 41.023438 71.726562 C 40.15625 71.574219 39.285156 71.453125 38.417969 71.324219 L 38.402344 71.320312 C 38.355469 71.3125 38.300781 71.316406 38.25 71.332031 C 38.078125 71.382812 37.980469 71.429688 37.859375 71.488281 C 37.742188 71.546875 37.640625 71.613281 37.53125 71.675781 L 37.230469 71.894531 C 37.136719 71.972656 37.046875 72.058594 36.953125 72.140625 C 36.886719 72.203125 36.824219 72.273438 36.761719 72.339844 C 36.6875 72.304688 36.617188 72.273438 36.542969 72.25 C 37.242188 70.757812 38.164062 69.648438 38.164062 69.648438 L 35.976562 70.101562 C 35.976562 70.101562 35.976562 70.101562 35.84375 67.527344 C 35.730469 65.390625 34.007812 61.828125 33.433594 60.691406 C 33.425781 60.28125 33.414062 59.867188 33.386719 59.445312 C 33.378906 59.292969 33.359375 59.128906 33.34375 58.96875 C 33.320312 58.808594 33.285156 58.609375 33.230469 58.464844 C 33.183594 58.304688 33.132812 58.144531 33.066406 58 C 33.003906 57.851562 32.941406 57.703125 32.867188 57.566406 C 32.582031 57 32.265625 56.464844 31.910156 55.964844 C 31.804688 55.8125 31.691406 55.664062 31.582031 55.511719 C 31.332031 55.167969 31.074219 54.824219 30.808594 54.492188 C 30.613281 54.253906 30.410156 54.027344 30.183594 53.816406 C 29.964844 53.605469 29.726562 53.40625 29.457031 53.234375 C 29.828125 54.121094 30.371094 54.855469 30.875 55.613281 C 31.03125 55.851562 31.183594 56.09375 31.324219 56.339844 C 31.628906 56.851562 31.921875 57.367188 32.152344 57.898438 C 32.21875 58.03125 32.265625 58.164062 32.316406 58.296875 C 32.371094 58.429688 32.40625 58.558594 32.445312 58.691406 C 32.492188 58.828125 32.503906 58.933594 32.523438 59.070312 C 32.53125 59.152344 32.535156 59.234375 32.542969 59.316406 C 32.367188 58.953125 32.160156 58.609375 31.917969 58.292969 L 31.695312 58.015625 L 31.460938 57.753906 C 31.375 57.671875 31.300781 57.578125 31.195312 57.515625 C 31.082031 57.460938 30.953125 57.417969 30.773438 57.4375 C 30.714844 57.796875 30.84375 57.960938 30.96875 58.140625 C 31.082031 58.324219 31.195312 58.511719 31.300781 58.699219 C 31.511719 59.074219 31.691406 59.460938 31.863281 59.851562 C 32.023438 60.246094 32.164062 60.648438 32.261719 61.0625 L 32.332031 61.375 C 32.351562 61.480469 32.375 61.585938 32.410156 61.6875 C 32.4375 61.789062 32.480469 61.894531 32.527344 61.996094 C 32.546875 62.039062 32.558594 62.082031 32.585938 62.125 C 32.582031 62.449219 32.578125 62.773438 32.574219 63.097656 C 32.570312 63.289062 32.5625 63.484375 32.558594 63.679688 C 29.742188 62.957031 25.953125 64.066406 25.953125 64.066406 C 27.777344 64.835938 32.230469 71.746094 32.230469 71.746094 C 27.90625 71.65625 22.800781 80.191406 22.800781 80.191406 C 22.800781 80.191406 22.800781 80.191406 26.53125 79.46875 C 29.40625 78.914062 31.230469 79.214844 31.917969 79.382812 C 31.902344 79.730469 31.882812 80.078125 31.867188 80.425781 C 31.652344 80.398438 31.441406 80.375 31.226562 80.363281 C 30.523438 80.308594 29.816406 80.335938 29.117188 80.421875 C 28.417969 80.503906 27.726562 80.652344 27.058594 80.867188 C 26.390625 81.078125 25.742188 81.40625 25.257812 81.941406 C 25.964844 81.816406 26.589844 81.621094 27.230469 81.445312 C 27.867188 81.269531 28.523438 81.160156 29.183594 81.113281 C 29.738281 81.070312 30.289062 81.074219 30.839844 81.109375 C 30.625 81.171875 30.410156 81.234375 30.195312 81.304688 C 29.230469 81.621094 28.304688 82.046875 27.433594 82.566406 C 26.5625 83.085938 25.738281 83.6875 25.011719 84.394531 C 24.832031 84.574219 24.65625 84.757812 24.484375 84.941406 C 24.324219 85.140625 24.164062 85.335938 24.007812 85.535156 C 23.863281 85.742188 23.722656 85.953125 23.582031 86.164062 C 23.460938 86.386719 23.367188 86.628906 23.375 86.929688 C 23.664062 86.832031 23.859375 86.675781 24.027344 86.5 C 24.195312 86.328125 24.367188 86.15625 24.53125 85.984375 C 24.707031 85.820312 24.878906 85.652344 25.046875 85.484375 C 25.226562 85.324219 25.402344 85.164062 25.574219 85 C 26.285156 84.363281 27.046875 83.78125 27.867188 83.300781 C 28.117188 83.152344 28.371094 83.015625 28.625 82.886719 C 28.453125 83.046875 28.285156 83.214844 28.128906 83.386719 C 27.828125 83.71875 27.554688 84.074219 27.316406 84.445312 C 27.070312 84.8125 26.84375 85.207031 26.90625 85.71875 C 27.351562 85.472656 27.570312 85.136719 27.824219 84.808594 C 28.082031 84.488281 28.359375 84.1875 28.65625 83.902344 C 29.25 83.339844 29.914062 82.863281 30.625 82.480469 C 31.34375 82.101562 32.117188 81.828125 32.910156 81.671875 C 32.96875 81.660156 33.023438 81.652344 33.078125 81.640625 L 34.824219 81.621094 C 35.667969 81.609375 36.511719 81.671875 37.347656 81.789062 C 38.183594 81.90625 39.011719 82.09375 39.816406 82.34375 L 42.023438 83.058594 C 42.050781 83.101562 42.085938 83.140625 42.128906 83.175781 L 42.132812 83.175781 C 44.234375 84.699219 46.371094 86.179688 48.546875 87.597656 C 48.839844 87.789062 49.125 87.980469 49.417969 88.167969 C 51.585938 89.550781 53.800781 90.878906 56.082031 92.085938 C 56.175781 92.171875 56.273438 92.257812 56.367188 92.34375 C 56.613281 92.558594 56.855469 92.773438 57.128906 92.953125 C 57.261719 93.042969 57.40625 93.121094 57.554688 93.191406 C 57.707031 93.25 57.820312 93.363281 58.109375 93.230469 C 58.179688 93.292969 58.25 93.359375 58.328125 93.414062 C 58.421875 93.484375 58.527344 93.539062 58.632812 93.59375 C 58.3125 93.734375 58.007812 93.902344 57.683594 94.039062 C 57.101562 94.328125 56.488281 94.554688 55.894531 94.816406 C 54.6875 95.296875 53.453125 95.71875 52.199219 96.070312 C 50.996094 96.398438 49.777344 96.65625 48.546875 96.867188 C 48.488281 96.875 48.433594 96.886719 48.371094 96.898438 C 47.082031 97.105469 45.78125 97.25 44.476562 97.347656 C 41.863281 97.527344 39.234375 97.554688 36.609375 97.414062 C 35.300781 97.347656 33.988281 97.246094 32.679688 97.105469 C 32.234375 97.054688 31.335938 96.949219 31.335938 96.949219 C 30.480469 96.855469 29.617188 96.78125 28.730469 96.796875 C 29.566406 97.160156 30.4375 97.371094 31.316406 97.527344 C 31.746094 97.601562 32.175781 97.664062 32.605469 97.722656 C 32.707031 97.734375 32.808594 97.75 32.914062 97.761719 C 32.253906 97.753906 31.707031 97.746094 31.308594 97.738281 C 30.828125 97.730469 30.558594 97.726562 30.558594 97.726562 C 30.558594 97.726562 30.820312 97.835938 31.296875 98.023438 C 32.640625 98.550781 35.710938 99.714844 39.507812 100.863281 C 41.902344 101.589844 44.234375 102.011719 46.472656 102.207031 L 46.472656 108.269531 C 45.539062 108.207031 44.605469 108.113281 43.675781 107.992188 C 41.800781 107.746094 39.949219 107.339844 38.132812 106.820312 C 36.316406 106.296875 34.539062 105.636719 32.828125 104.824219 C 32.230469 104.542969 31.648438 104.238281 31.066406 103.925781 C 30.8125 103.789062 30.5625 103.652344 30.3125 103.515625 C 29.695312 103.175781 29.082031 102.828125 28.46875 102.472656 L 28.53125 95.960938 C 18.167969 96.394531 18.113281 87.933594 18.117188 87.496094 C 18.117188 87.492188 18.117188 87.496094 18.117188 87.492188 C 18.117188 87.484375 18.117188 87.476562 18.117188 87.476562 C 17.097656 89.867188 18.195312 93.800781 18.195312 93.800781 C 18.195312 93.800781 17.832031 93.460938 17.292969 92.816406 C 16.054688 91.335938 13.871094 88.230469 12.945312 83.871094 Z M 10.601562 42.699219 C 10.601562 42.699219 10.820312 42.539062 11.242188 42.246094 C 13.644531 40.578125 22.523438 34.730469 33.566406 31.382812 C 32.671875 34.398438 31.464844 38.347656 30.347656 41.96875 C 30.09375 42.789062 30.074219 43.664062 30.289062 44.496094 L 31.105469 45.121094 C 29.539062 44.5 27.875 44.144531 26.113281 44.144531 C 25.480469 44.144531 24.839844 44.195312 24.207031 44.289062 C 18.425781 45.160156 14.238281 48.488281 12.105469 53.921875 C 11.632812 55.128906 11.3125 56.316406 11.101562 57.378906 C 10.609375 49.15625 10.601562 42.941406 10.601562 42.707031 C 10.601562 42.703125 10.601562 42.699219 10.601562 42.699219 Z M 36.925781 27.195312 C 37.074219 26.539062 37.695312 25.523438 38.597656 24.375 C 41.042969 21.253906 45.570312 17.117188 48.546875 16.292969 C 51.523438 17.117188 56.054688 21.253906 58.5 24.375 C 59.398438 25.523438 60.019531 26.539062 60.171875 27.195312 C 60.199219 27.308594 60.230469 27.449219 60.273438 27.605469 C 60.453125 28.300781 60.765625 29.402344 61.152344 30.714844 C 62.320312 34.703125 64.136719 40.59375 64.753906 42.585938 C 64.890625 43.035156 64.902344 43.511719 64.785156 43.96875 C 64.722656 44.015625 64.660156 44.066406 64.597656 44.113281 C 64.550781 43.953125 64.5 43.796875 64.453125 43.636719 C 64.3125 43.191406 64.164062 42.75 64.011719 42.308594 C 63.929688 42.082031 63.855469 41.855469 63.769531 41.632812 C 63.53125 40.96875 63.261719 40.316406 62.96875 39.675781 C 62.824219 39.351562 62.671875 39.035156 62.511719 38.71875 C 62.429688 38.5625 62.363281 38.398438 62.253906 38.253906 C 62.144531 38.113281 62.011719 37.980469 61.804688 37.878906 C 61.6875 38.316406 61.816406 38.636719 61.9375 38.964844 L 62.285156 39.949219 L 62.976562 41.917969 C 63.160156 42.453125 63.34375 42.988281 63.519531 43.527344 C 63.558594 43.652344 63.601562 43.773438 63.640625 43.894531 C 63.722656 44.15625 63.800781 44.417969 63.890625 44.675781 C 63.707031 44.824219 63.523438 44.972656 63.34375 45.125 C 63.328125 45.054688 63.316406 44.980469 63.304688 44.910156 C 63.234375 44.570312 63.144531 44.230469 63.03125 43.898438 C 63.03125 43.890625 63.027344 43.886719 63.027344 43.875 C 62.96875 43.707031 62.90625 43.539062 62.839844 43.375 C 62.800781 43.292969 62.78125 43.207031 62.714844 43.132812 C 62.648438 43.058594 62.558594 42.992188 62.394531 42.953125 C 62.167969 43.199219 62.203125 43.367188 62.234375 43.539062 L 62.308594 44.050781 C 62.324219 44.171875 62.347656 44.289062 62.363281 44.410156 C 62.398438 44.628906 62.429688 44.847656 62.46875 45.066406 C 62.507812 45.300781 62.546875 45.539062 62.582031 45.773438 C 62.453125 45.890625 62.324219 46.007812 62.195312 46.121094 C 62.144531 45.914062 62.078125 45.703125 62 45.503906 C 61.941406 45.367188 61.878906 45.234375 61.808594 45.101562 C 61.773438 45.042969 61.75 44.976562 61.691406 44.925781 C 61.6875 44.921875 61.6875 44.917969 61.683594 44.917969 C 61.617188 44.867188 61.527344 44.824219 61.363281 44.816406 C 61.164062 45.042969 61.1875 45.164062 61.214844 45.289062 C 61.21875 45.296875 61.21875 45.304688 61.222656 45.308594 L 61.289062 45.707031 L 61.402344 46.488281 C 61.417969 46.597656 61.429688 46.707031 61.441406 46.816406 C 61.203125 47.039062 60.972656 47.265625 60.742188 47.492188 C 60.738281 47.464844 60.734375 47.441406 60.730469 47.414062 C 60.691406 47.164062 60.632812 46.914062 60.550781 46.671875 C 60.507812 46.554688 60.460938 46.433594 60.410156 46.316406 C 60.382812 46.261719 60.367188 46.199219 60.3125 46.148438 C 60.289062 46.128906 60.265625 46.113281 60.234375 46.097656 C 60.179688 46.074219 60.109375 46.050781 60.015625 46.039062 C 59.769531 46.230469 59.789062 46.347656 59.804688 46.464844 C 59.804688 46.476562 59.804688 46.488281 59.804688 46.5 C 59.8125 46.609375 59.816406 46.714844 59.824219 46.824219 C 59.84375 47.058594 59.863281 47.292969 59.890625 47.527344 C 59.914062 47.757812 59.941406 47.992188 59.957031 48.222656 C 59.957031 48.246094 59.957031 48.265625 59.960938 48.285156 C 57.871094 50.457031 56.019531 52.855469 54.46875 55.457031 C 52.640625 58.519531 50.433594 60.738281 49.519531 61.589844 C 49.25 61.84375 49.089844 61.976562 49.089844 61.976562 C 49.089844 61.976562 49.003906 61.914062 48.84375 61.792969 C 48.761719 61.730469 48.664062 61.652344 48.546875 61.5625 C 47.378906 60.632812 44.5625 58.203125 42.464844 54.878906 C 40.53125 51.816406 38.164062 49.058594 35.496094 46.621094 C 35.421875 46.316406 35.355469 46.007812 35.292969 45.703125 C 35.210938 45.226562 35.125 44.753906 35.054688 44.273438 L 34.957031 43.554688 C 34.933594 43.3125 34.917969 43.074219 34.632812 42.824219 C 34.488281 42.945312 34.417969 43.070312 34.375 43.199219 C 34.335938 43.324219 34.34375 43.449219 34.332031 43.578125 L 34.320312 43.957031 L 34.320312 44.335938 C 34.328125 44.789062 34.367188 45.238281 34.4375 45.6875 C 34.222656 45.503906 34.007812 45.320312 33.789062 45.140625 C 33.753906 44.933594 33.722656 44.726562 33.699219 44.519531 C 33.644531 43.914062 33.640625 43.300781 33.707031 42.6875 L 33.769531 42.230469 L 33.851562 41.777344 C 33.890625 41.625 33.941406 41.480469 33.949219 41.320312 C 33.964844 41.160156 33.960938 40.992188 33.886719 40.78125 C 33.691406 40.871094 33.566406 41 33.460938 41.140625 C 33.371094 41.285156 33.320312 41.445312 33.253906 41.601562 L 33.097656 42.082031 L 32.976562 42.574219 C 32.855469 43.167969 32.8125 43.777344 32.847656 44.382812 C 32.726562 44.289062 32.609375 44.195312 32.488281 44.105469 L 32.3125 43.96875 C 32.191406 43.511719 32.203125 43.035156 32.34375 42.585938 C 32.957031 40.59375 34.773438 34.703125 35.945312 30.714844 C 36.328125 29.402344 36.644531 28.300781 36.824219 27.605469 C 36.863281 27.449219 36.898438 27.308594 36.925781 27.195312 Z M 37.460938 81.046875 C 36.980469 80.96875 36.5 80.917969 36.011719 80.882812 L 35.945312 80.207031 C 35.972656 80.222656 35.992188 80.238281 36.019531 80.25 C 36.296875 80.410156 36.597656 80.519531 36.898438 80.628906 C 37.503906 80.835938 38.125 80.992188 38.761719 81.078125 C 39.078125 81.125 39.398438 81.15625 39.710938 81.164062 L 40.617188 81.1875 C 40.910156 81.203125 41.191406 81.230469 41.460938 81.292969 C 41.558594 81.316406 41.652344 81.347656 41.746094 81.371094 C 41.78125 81.6875 41.824219 82.003906 41.871094 82.316406 L 40.03125 81.679688 C 39.191406 81.402344 38.332031 81.191406 37.460938 81.046875 Z M 41.792969 75.347656 C 41.53125 75.242188 41.265625 75.144531 41 75.050781 C 40.453125 74.863281 39.894531 74.699219 39.324219 74.570312 C 38.761719 74.433594 38.191406 74.324219 37.617188 74.230469 C 37.597656 74.226562 37.574219 74.222656 37.554688 74.21875 C 37.289062 74.179688 37.023438 74.132812 36.75 74.121094 C 36.699219 74.121094 36.648438 74.121094 36.597656 74.125 C 36.664062 73.980469 36.742188 73.84375 36.816406 73.707031 C 36.878906 73.597656 36.945312 73.492188 37.015625 73.390625 C 37.03125 73.398438 37.050781 73.402344 37.070312 73.410156 C 37.191406 73.445312 37.316406 73.476562 37.4375 73.492188 C 37.679688 73.53125 37.925781 73.535156 38.171875 73.554688 C 38.660156 73.589844 39.148438 73.640625 39.632812 73.703125 C 40.117188 73.769531 40.601562 73.839844 41.082031 73.921875 C 41.320312 73.96875 41.5625 74.007812 41.796875 74.0625 C 41.902344 74.082031 42.003906 74.109375 42.113281 74.121094 C 42.066406 74.257812 42.023438 74.398438 41.984375 74.539062 C 41.90625 74.804688 41.84375 75.074219 41.792969 75.347656 Z M 41.570312 79.019531 C 41.53125 79.007812 41.496094 79 41.457031 78.992188 C 41.160156 78.917969 40.859375 78.84375 40.558594 78.777344 C 39.957031 78.640625 39.351562 78.511719 38.746094 78.40625 C 38.140625 78.292969 37.53125 78.1875 36.925781 78.082031 C 36.824219 78.066406 36.730469 78.042969 36.636719 78.023438 C 36.449219 77.984375 36.273438 77.941406 36.109375 77.894531 C 36.023438 77.871094 35.941406 77.851562 35.863281 77.824219 L 35.878906 77.320312 C 35.878906 77.320312 35.878906 77.320312 35.878906 77.316406 C 35.890625 77.105469 35.921875 76.898438 35.941406 76.6875 C 36.003906 76.714844 36.058594 76.738281 36.121094 76.761719 C 36.175781 76.78125 36.230469 76.800781 36.285156 76.820312 C 36.542969 76.898438 36.808594 76.933594 37.074219 76.976562 C 37.601562 77.0625 38.132812 77.140625 38.667969 77.195312 C 39.199219 77.261719 39.738281 77.289062 40.273438 77.300781 C 40.542969 77.304688 40.808594 77.304688 41.078125 77.300781 C 41.214844 77.292969 41.347656 77.300781 41.480469 77.265625 C 41.515625 77.257812 41.546875 77.246094 41.582031 77.234375 C 41.558594 77.6875 41.550781 78.144531 41.558594 78.597656 C 41.558594 78.738281 41.5625 78.878906 41.570312 79.019531 Z M 35.917969 79.394531 C 35.90625 79.394531 35.894531 79.390625 35.886719 79.390625 C 35.875 79.148438 35.867188 78.90625 35.855469 78.664062 C 36.164062 78.808594 36.480469 78.863281 36.773438 78.921875 C 37.386719 79.03125 37.992188 79.140625 38.601562 79.238281 C 39.207031 79.34375 39.816406 79.429688 40.429688 79.503906 C 40.738281 79.542969 41.042969 79.574219 41.351562 79.609375 C 41.433594 79.617188 41.515625 79.628906 41.597656 79.632812 C 41.605469 79.742188 41.609375 79.851562 41.613281 79.960938 C 41.632812 80.210938 41.652344 80.460938 41.675781 80.710938 C 41.667969 80.707031 41.660156 80.703125 41.652344 80.699219 C 41.339844 80.574219 41.011719 80.5 40.695312 80.453125 C 40.375 80.402344 40.0625 80.378906 39.765625 80.351562 C 39.464844 80.324219 39.175781 80.289062 38.886719 80.242188 C 38.304688 80.148438 37.734375 80.011719 37.179688 79.820312 C 36.898438 79.730469 36.628906 79.609375 36.347656 79.519531 C 36.207031 79.472656 36.0625 79.433594 35.917969 79.394531 Z M 37.476562 75.070312 C 38.03125 75.164062 38.585938 75.277344 39.140625 75.394531 L 40.800781 75.761719 L 41.628906 75.953125 C 41.652344 75.957031 41.671875 75.960938 41.691406 75.96875 C 41.65625 76.242188 41.628906 76.519531 41.605469 76.792969 C 41.445312 76.710938 41.28125 76.695312 41.113281 76.675781 L 40.332031 76.566406 C 39.808594 76.492188 39.289062 76.421875 38.765625 76.359375 C 38.246094 76.289062 37.726562 76.21875 37.207031 76.136719 C 36.960938 76.101562 36.714844 76.050781 36.464844 76.03125 C 36.449219 76.03125 36.4375 76.027344 36.425781 76.027344 C 36.296875 76.015625 36.164062 76.023438 36.03125 76.03125 L 36.148438 75.433594 C 36.199219 75.230469 36.265625 75.03125 36.324219 74.832031 C 36.324219 74.828125 36.324219 74.824219 36.328125 74.820312 C 36.429688 74.859375 36.535156 74.894531 36.640625 74.917969 C 36.765625 74.949219 36.894531 74.972656 37.019531 74.996094 C 37.171875 75.019531 37.324219 75.042969 37.476562 75.070312 Z M 42.640625 72.992188 C 42.511719 73.195312 42.402344 73.40625 42.308594 73.621094 C 42.207031 73.550781 42.09375 73.503906 41.984375 73.464844 C 41.746094 73.363281 41.5 73.285156 41.253906 73.203125 C 40.761719 73.054688 40.257812 72.9375 39.753906 72.863281 C 39.246094 72.785156 38.738281 72.738281 38.226562 72.703125 C 38.027344 72.695312 37.828125 72.675781 37.628906 72.683594 C 37.671875 72.640625 37.714844 72.601562 37.761719 72.5625 L 37.996094 72.394531 C 38.078125 72.347656 38.15625 72.292969 38.238281 72.253906 C 38.289062 72.226562 38.347656 72.203125 38.398438 72.183594 C 38.742188 72.234375 39.089844 72.285156 39.4375 72.335938 C 39.925781 72.40625 40.414062 72.476562 40.902344 72.535156 C 41.339844 72.585938 41.777344 72.625 42.21875 72.652344 C 42.429688 72.660156 42.640625 72.6875 42.855469 72.6875 C 42.78125 72.785156 42.707031 72.886719 42.640625 72.992188 Z M 36.222656 73.035156 C 36.21875 73.046875 36.210938 73.058594 36.203125 73.070312 C 36.207031 73.058594 36.210938 73.046875 36.214844 73.035156 C 36.21875 73.035156 36.222656 73.035156 36.222656 73.035156 Z M 48.546875 109.199219 C 48.808594 109.207031 49.070312 109.207031 49.332031 109.207031 C 53.183594 109.203125 57.050781 108.707031 60.757812 107.617188 C 62.589844 107.074219 64.386719 106.398438 66.09375 105.535156 C 66.113281 105.523438 66.132812 105.515625 66.152344 105.503906 C 66.40625 105.375 66.65625 105.238281 66.910156 105.101562 C 66.902344 105.152344 66.894531 105.207031 66.886719 105.257812 C 66.648438 105.410156 66.386719 105.570312 66.101562 105.738281 C 66.101562 105.738281 57.957031 110.976562 48.546875 110.976562 C 39.140625 110.976562 30.996094 105.738281 30.996094 105.738281 C 29.351562 104.769531 28.453125 104.058594 28.453125 104.058594 L 28.464844 102.738281 C 28.601562 102.859375 28.738281 102.980469 28.878906 103.097656 C 29.253906 103.402344 29.644531 103.6875 30.046875 103.953125 C 30.371094 104.171875 30.703125 104.375 31.039062 104.570312 C 31.535156 104.855469 32.042969 105.128906 32.558594 105.382812 C 34.28125 106.242188 36.082031 106.957031 37.921875 107.527344 C 41.359375 108.582031 44.953125 109.132812 48.546875 109.199219 Z M 67.835938 104.5625 C 67.871094 104.539062 67.90625 104.515625 67.945312 104.496094 L 67.929688 104.574219 C 67.894531 104.597656 67.863281 104.621094 67.828125 104.648438 C 67.828125 104.617188 67.832031 104.589844 67.835938 104.5625 Z M 51.320312 102.289062 C 57.507812 101.964844 62.628906 100.097656 65.824219 98.59375 C 67.035156 98.023438 67.96875 97.503906 68.578125 97.148438 L 68.597656 99.21875 L 68.46875 98.742188 C 68.410156 98.558594 68.363281 98.371094 68.277344 98.199219 C 68.179688 98.027344 68.0625 97.863281 67.871094 97.726562 C 67.707031 98.167969 67.789062 98.519531 67.859375 98.882812 L 67.941406 99.425781 L 68.011719 99.972656 C 68.089844 100.699219 68.125 101.429688 68.125 102.160156 C 68.121094 102.652344 68.097656 103.144531 68.050781 103.632812 C 67.996094 103.664062 67.945312 103.695312 67.890625 103.722656 C 67.914062 103.1875 67.898438 102.652344 67.847656 102.121094 L 67.800781 101.699219 L 67.738281 101.277344 C 67.710938 101.136719 67.699219 100.996094 67.644531 100.859375 C 67.582031 100.726562 67.496094 100.59375 67.335938 100.476562 C 67.085938 100.789062 67.105469 101.058594 67.117188 101.332031 L 67.109375 102.152344 C 67.101562 102.695312 67.074219 103.238281 67.042969 103.78125 C 67.035156 103.917969 67.019531 104.054688 67.007812 104.191406 C 66.695312 104.355469 66.375 104.511719 66.058594 104.664062 C 65.972656 104.703125 65.886719 104.746094 65.796875 104.785156 C 64.09375 105.589844 62.328125 106.261719 60.519531 106.800781 C 57.53125 107.683594 54.4375 108.167969 51.320312 108.320312 Z M 84.347656 82.761719 C 84.328125 82.589844 84.304688 82.414062 84.277344 82.242188 L 84.082031 81.222656 L 83.808594 80.21875 L 83.550781 79.480469 L 83.464844 79.238281 C 83.328125 78.921875 83.191406 78.605469 83.050781 78.289062 L 82.558594 77.375 L 82.003906 76.503906 C 81.796875 76.226562 81.597656 75.945312 81.367188 75.6875 C 81.113281 75.453125 80.839844 75.230469 80.515625 75.066406 C 80.621094 75.425781 80.78125 75.722656 80.957031 76.003906 C 81.113281 76.296875 81.304688 76.566406 81.484375 76.839844 L 81.964844 77.703125 L 82.378906 78.59375 C 82.496094 78.902344 82.617188 79.207031 82.738281 79.511719 L 83.035156 80.449219 L 83.21875 81.214844 L 83.265625 81.402344 L 83.441406 82.367188 C 83.628906 83.65625 83.652344 84.96875 83.488281 86.257812 C 83.476562 86.285156 83.464844 86.316406 83.457031 86.347656 C 83.464844 86.03125 83.464844 85.710938 83.453125 85.394531 L 83.398438 84.484375 L 83.273438 83.578125 L 83.101562 82.683594 C 83.066406 82.554688 83.03125 82.425781 83 82.296875 C 82.957031 82.132812 82.914062 81.964844 82.867188 81.800781 L 82.574219 80.9375 L 82.230469 80.097656 C 82.097656 79.828125 81.976562 79.546875 81.8125 79.289062 C 81.632812 79.042969 81.433594 78.808594 81.167969 78.617188 C 81.179688 78.953125 81.253906 79.238281 81.347656 79.515625 C 81.425781 79.800781 81.546875 80.0625 81.65625 80.332031 L 81.933594 81.15625 L 82.15625 81.996094 C 82.214844 82.277344 82.277344 82.558594 82.339844 82.839844 L 82.476562 83.695312 L 82.542969 84.347656 L 82.5625 84.554688 L 82.609375 85.417969 C 82.636719 86.570312 82.539062 87.726562 82.300781 88.851562 L 82.222656 89.175781 C 81.371094 90.804688 80.457031 92.035156 79.800781 92.816406 C 79.261719 93.460938 78.902344 93.800781 78.902344 93.800781 C 78.902344 93.800781 79.964844 89.972656 79.019531 87.574219 C 79 87.613281 78.984375 87.65625 78.964844 87.695312 C 78.871094 88.835938 78.152344 94.109375 73.019531 95.625 C 73.023438 95.621094 73.023438 95.621094 73.027344 95.617188 C 73.34375 95.402344 73.636719 95.136719 73.808594 94.800781 C 73.53125 95.046875 73.207031 95.210938 72.882812 95.347656 C 72.554688 95.484375 72.214844 95.582031 71.867188 95.65625 C 71.179688 95.804688 70.46875 95.863281 69.753906 95.851562 C 68.386719 95.824219 67.023438 95.546875 65.691406 95.1875 C 65.628906 95.171875 65.570312 95.15625 65.511719 95.140625 C 63.082031 94.4375 60.71875 93.464844 58.429688 92.335938 C 58.136719 92.007812 57.871094 91.65625 57.628906 91.289062 C 57.390625 90.914062 57.164062 90.535156 56.960938 90.140625 C 56.859375 89.941406 56.761719 89.738281 56.667969 89.535156 C 56.582031 89.328125 56.511719 89.121094 56.179688 88.964844 C 56.066406 89.113281 56.03125 89.246094 56.019531 89.375 C 56.015625 89.5 56.054688 89.613281 56.074219 89.734375 L 56.167969 90.085938 L 56.28125 90.433594 C 56.410156 90.792969 56.570312 91.144531 56.761719 91.480469 C 56.703125 91.453125 56.644531 91.421875 56.585938 91.390625 C 56.246094 91.074219 55.917969 90.746094 55.613281 90.40625 C 55.210938 89.949219 54.835938 89.476562 54.542969 88.957031 C 54.398438 88.695312 54.269531 88.429688 54.164062 88.148438 C 54.066406 87.863281 54.003906 87.59375 53.699219 87.300781 C 53.5625 87.46875 53.515625 87.644531 53.5 87.816406 C 53.488281 87.992188 53.53125 88.15625 53.566406 88.324219 C 53.636719 88.652344 53.746094 88.976562 53.882812 89.285156 C 54.023438 89.597656 54.1875 89.894531 54.371094 90.171875 C 53.007812 89.398438 51.664062 88.582031 50.335938 87.742188 C 50.328125 87.730469 50.320312 87.714844 50.316406 87.699219 C 50.25 87.5625 50.183594 87.425781 50.105469 87.296875 C 50.03125 87.167969 49.957031 87.042969 49.875 86.921875 C 49.792969 86.800781 49.71875 86.671875 49.640625 86.546875 C 49.34375 86.046875 49.101562 85.515625 48.914062 84.96875 C 48.738281 84.425781 48.613281 83.867188 48.546875 83.296875 C 48.546875 83.289062 48.546875 83.28125 48.542969 83.273438 C 48.511719 82.980469 48.492188 82.6875 48.488281 82.394531 C 48.488281 82.332031 48.488281 82.273438 48.488281 82.210938 C 48.488281 81.976562 48.464844 81.738281 48.273438 81.460938 C 48.128906 81.574219 48.042969 81.703125 47.980469 81.839844 C 47.972656 81.855469 47.960938 81.871094 47.957031 81.890625 C 47.898438 82.042969 47.890625 82.199219 47.863281 82.359375 C 47.84375 82.515625 47.832031 82.675781 47.820312 82.835938 C 47.808594 82.996094 47.8125 83.15625 47.808594 83.316406 C 47.8125 83.960938 47.910156 84.609375 48.109375 85.226562 C 48.226562 85.601562 48.375 85.960938 48.546875 86.3125 C 48.617188 86.453125 48.6875 86.59375 48.765625 86.730469 C 48.691406 86.679688 48.621094 86.636719 48.546875 86.585938 C 46.589844 85.304688 44.667969 83.96875 42.769531 82.59375 C 42.621094 81.710938 42.519531 80.804688 42.453125 79.902344 C 42.429688 79.542969 42.414062 79.1875 42.402344 78.828125 C 42.386719 78.230469 42.390625 77.628906 42.429688 77.035156 C 42.480469 76.234375 42.589844 75.4375 42.808594 74.691406 C 42.851562 74.554688 42.890625 74.417969 42.941406 74.285156 C 43.234375 73.476562 43.726562 72.75 44.441406 72.4375 C 45.808594 72.796875 47.179688 73.152344 48.546875 73.5 C 49.511719 73.746094 50.476562 73.988281 51.445312 74.230469 C 53.832031 74.824219 56.226562 75.390625 58.628906 75.925781 C 59.828125 76.191406 61.035156 76.445312 62.246094 76.675781 C 62.851562 76.792969 63.460938 76.902344 64.070312 76.996094 C 64.253906 77.023438 64.4375 77.050781 64.621094 77.078125 C 64.683594 77.089844 64.746094 77.101562 64.808594 77.113281 C 64.832031 77.121094 64.859375 77.121094 64.886719 77.121094 C 64.902344 77.121094 64.910156 77.117188 64.925781 77.117188 C 65.257812 77.15625 65.597656 77.183594 65.949219 77.1875 C 67.136719 77.1875 68.335938 77.410156 69.507812 77.714844 C 70.683594 78.015625 71.84375 78.410156 72.996094 78.847656 C 72.476562 78.511719 71.925781 78.226562 71.367188 77.960938 C 70.808594 77.699219 70.230469 77.46875 69.640625 77.269531 C 68.488281 76.886719 67.28125 76.613281 66.035156 76.589844 C 66.007812 76.589844 65.980469 76.585938 65.953125 76.585938 C 65.695312 76.582031 65.433594 76.558594 65.171875 76.527344 L 65.144531 75.972656 L 66.425781 72.699219 L 65.609375 73.140625 C 65.628906 73.105469 65.640625 73.070312 65.660156 73.035156 C 65.976562 72.382812 66.449219 71.789062 66.988281 71.269531 C 67.121094 71.144531 67.257812 71.019531 67.398438 70.898438 C 67.835938 70.511719 68.296875 70.136719 68.753906 69.746094 C 69.058594 69.488281 69.359375 69.222656 69.648438 68.9375 C 69.792969 68.792969 69.941406 68.65625 70.058594 68.484375 C 70.171875 68.308594 70.261719 68.113281 70.28125 67.867188 C 69.808594 67.972656 69.535156 68.222656 69.234375 68.46875 C 69.179688 68.515625 69.121094 68.554688 69.066406 68.597656 C 68.8125 68.792969 68.558594 68.980469 68.296875 69.167969 C 67.988281 69.390625 67.671875 69.621094 67.359375 69.855469 C 69.050781 67.515625 71.242188 64.792969 72.78125 64.066406 C 72.78125 64.066406 66.378906 63.019531 64.640625 65.015625 L 64.597656 64.902344 C 64.59375 64.78125 64.585938 64.660156 64.582031 64.539062 C 64.628906 64.480469 64.652344 64.417969 64.691406 64.355469 C 64.773438 64.21875 64.847656 64.082031 64.910156 63.941406 C 64.980469 63.800781 65.039062 63.660156 65.097656 63.519531 L 65.28125 63.097656 C 65.46875 62.699219 65.679688 62.316406 65.914062 61.945312 C 66.007812 61.796875 66.105469 61.648438 66.207031 61.503906 C 66.5625 61.003906 66.945312 60.519531 67.367188 60.066406 L 67.6875 59.734375 L 68.023438 59.410156 C 68.148438 59.300781 68.273438 59.195312 68.378906 59.0625 C 68.417969 59.011719 68.453125 58.957031 68.484375 58.898438 C 69.851562 58.355469 71.199219 58.230469 71.199219 58.230469 C 71.199219 58.230469 67.609375 56.566406 65.769531 56.453125 C 65.878906 56.269531 65.992188 56.089844 66.105469 55.90625 C 66.164062 55.8125 66.226562 55.71875 66.285156 55.625 C 66.496094 55.289062 66.710938 54.957031 66.929688 54.628906 C 67.21875 54.207031 67.511719 53.792969 67.640625 53.234375 C 67.109375 53.464844 66.769531 53.859375 66.4375 54.253906 C 66.097656 54.644531 65.773438 55.054688 65.464844 55.472656 C 65.457031 55.484375 65.449219 55.492188 65.441406 55.503906 C 64.839844 56.339844 64.289062 57.21875 63.914062 58.246094 C 63.875 58.382812 63.828125 58.511719 63.792969 58.652344 L 63.75 58.878906 L 63.726562 59.085938 C 63.695312 59.359375 63.683594 59.621094 63.675781 59.882812 C 63.65625 60.40625 63.65625 60.925781 63.660156 61.441406 C 63.667969 62.472656 63.699219 63.5 63.738281 64.527344 C 63.757812 64.96875 63.773438 65.410156 63.792969 65.847656 L 63.792969 71.507812 L 60.136719 75.019531 C 60.035156 75.089844 59.933594 75.164062 59.84375 75.25 C 59.78125 75.308594 59.722656 75.378906 59.667969 75.449219 C 59.371094 75.382812 59.078125 75.316406 58.78125 75.246094 C 56.394531 74.6875 54.015625 74.082031 51.632812 73.476562 C 51.53125 73.449219 51.425781 73.421875 51.320312 73.398438 L 51.320312 63.625 C 52.796875 62.890625 54.046875 61.730469 54.878906 60.257812 C 58.046875 54.648438 64.527344 45.59375 72.871094 46.832031 C 79.621094 47.832031 82.417969 52.378906 83.574219 56.160156 C 83.546875 56.109375 83.519531 56.058594 83.492188 56.007812 C 83.113281 55.34375 82.683594 54.707031 82.207031 54.113281 C 81.730469 53.515625 81.21875 52.945312 80.660156 52.429688 C 80.101562 51.910156 79.507812 51.429688 78.882812 50.992188 C 78.265625 50.554688 77.609375 50.152344 76.8125 50.050781 C 77.332031 50.652344 77.933594 51.046875 78.515625 51.492188 C 79.09375 51.941406 79.636719 52.429688 80.144531 52.953125 C 80.652344 53.476562 81.132812 54.023438 81.566406 54.605469 C 82.003906 55.1875 82.402344 55.796875 82.757812 56.425781 C 83.46875 57.691406 84.003906 59.054688 84.34375 60.464844 C 84.347656 60.484375 84.351562 60.507812 84.359375 60.527344 C 84.394531 61.175781 84.382812 61.5625 84.382812 61.5625 C 84.382812 61.5625 81.71875 56.355469 79.292969 55.605469 C 79.292969 55.605469 81.828125 59.8125 83.347656 64.496094 L 83.199219 64.175781 C 83.035156 63.878906 82.875 63.582031 82.703125 63.289062 L 82.15625 62.4375 L 81.554688 61.617188 C 81.339844 61.359375 81.132812 61.089844 80.894531 60.851562 C 80.636719 60.628906 80.363281 60.421875 80.035156 60.273438 C 80.148438 60.621094 80.3125 60.910156 80.496094 61.183594 C 80.664062 61.46875 80.863281 61.722656 81.054688 61.984375 L 81.585938 62.804688 L 82.0625 63.652344 C 82.207031 63.945312 82.355469 64.230469 82.5 64.519531 L 82.890625 65.410156 L 83.230469 66.320312 L 83.527344 67.242188 C 83.886719 68.488281 84.117188 69.765625 84.199219 71.058594 L 84.222656 71.746094 C 83.542969 71.460938 80.828125 70.449219 77.648438 71.046875 C 77.648438 71.046875 82.210938 73.035156 83.90625 77.40625 C 84.398438 78.679688 84.648438 80.15625 84.472656 81.847656 C 84.4375 82.15625 84.394531 82.460938 84.347656 82.761719 Z M 75.453125 36.164062 C 75.875 36.375 76.289062 36.582031 76.691406 36.789062 C 77.140625 37.023438 77.582031 37.253906 78.007812 37.484375 C 78.332031 37.65625 78.648438 37.832031 78.960938 38.003906 C 83.625 40.578125 86.496094 42.699219 86.496094 42.699219 C 86.496094 42.699219 86.496094 48.996094 85.996094 57.378906 C 85.78125 56.316406 85.464844 55.128906 84.992188 53.921875 C 82.855469 48.488281 78.671875 45.160156 72.886719 44.289062 C 72.253906 44.195312 71.613281 44.144531 70.980469 44.144531 C 69.226562 44.144531 67.566406 44.5 66.003906 45.117188 C 66.078125 45.054688 66.15625 44.996094 66.230469 44.933594 L 66.804688 44.496094 C 67.023438 43.664062 67.003906 42.789062 66.75 41.96875 C 65.628906 38.347656 64.421875 34.398438 63.527344 31.382812 C 67.941406 32.71875 72.003906 34.457031 75.453125 36.164062 Z M 88.160156 40.449219 C 87.5625 40.007812 76.621094 32.015625 62.597656 28.195312 C 62.410156 27.53125 62.277344 27.027344 62.207031 26.726562 C 62.09375 26.238281 61.835938 25.65625 61.464844 25.019531 C 59.269531 21.21875 53.054688 15.371094 49.105469 14.277344 C 48.921875 14.230469 48.734375 14.203125 48.546875 14.203125 C 48.359375 14.203125 48.171875 14.230469 47.992188 14.277344 C 44.042969 15.371094 37.828125 21.21875 35.628906 25.019531 C 35.261719 25.65625 35.003906 26.238281 34.890625 26.726562 C 34.820312 27.027344 34.683594 27.53125 34.5 28.195312 C 20.472656 32.019531 9.53125 40.007812 8.933594 40.449219 C 8.222656 40.976562 7.800781 41.8125 7.800781 42.699219 C 7.800781 43.796875 7.84375 62.332031 10.488281 78.195312 C 10.496094 79.957031 10.535156 81.375 10.609375 82.113281 C 11.023438 86.066406 12.40625 89.277344 13.769531 91.578125 C 14.261719 92.917969 14.789062 94.148438 15.363281 95.246094 C 23.148438 110.164062 47.011719 114.878906 48.023438 115.070312 C 48.195312 115.105469 48.371094 115.121094 48.546875 115.121094 C 48.722656 115.121094 48.898438 115.105469 49.074219 115.070312 C 50.085938 114.878906 73.949219 110.164062 81.730469 95.246094 C 82.308594 94.140625 82.84375 92.898438 83.335938 91.550781 C 84.695312 89.25 86.074219 86.054688 86.484375 82.113281 C 86.5625 81.375 86.597656 79.957031 86.609375 78.195312 C 89.253906 62.332031 89.296875 43.796875 89.296875 42.699219 C 89.296875 41.8125 88.875 40.976562 88.160156 40.449219 " fill-opacity="1" fill-rule="nonzero"/></g></svg>