<svg xmlns="http://www.w3.org/2000/svg" xmlns:xlink="http://www.w3.org/1999/xlink" width="130" zoomAndPan="magnify" viewBox="0 0 97.5 131.999998" height="176" preserveAspectRatio="xMidYMid meet" version="1.0"><defs><clipPath id="3ba5947bdd"><path d="M 13 10.035156 L 97.003906 10.035156 L 97.003906 131.664062 L 13 131.664062 Z M 13 10.035156 " clip-rule="nonzero"/></clipPath><clipPath id="c6e9da80ba"><path d="M 16 26 L 97.003906 26 L 97.003906 131.664062 L 16 131.664062 Z M 16 26 " clip-rule="nonzero"/></clipPath><clipPath id="69deda3f1f"><path d="M 21 13 L 97.003906 13 L 97.003906 116 L 21 116 Z M 21 13 " clip-rule="nonzero"/></clipPath><clipPath id="f5c9ead0db"><path d="M 18 32 L 97.003906 32 L 97.003906 131.664062 L 18 131.664062 Z M 18 32 " clip-rule="nonzero"/></clipPath><clipPath id="a259132ab3"><path d="M 15 12 L 97.003906 12 L 97.003906 131.664062 L 15 131.664062 Z M 15 12 " clip-rule="nonzero"/></clipPath></defs><g clip-path="url(#3ba5947bdd)"><path fill="#1f7dd5" d="M 73.421875 139.832031 C 73.046875 139.835938 72.660156 139.835938 72.261719 139.835938 C 66.246094 139.835938 60.191406 139.488281 54.253906 138.800781 C 35.675781 136.640625 23.257812 131.761719 23.144531 131.710938 L 21.304688 130.980469 L 21.335938 128.953125 C 21.5 117.855469 18.234375 100.382812 14.980469 89.898438 C 11.828125 79.75 13 69.257812 18.375 59.554688 C 22.726562 51.6875 24.722656 42.898438 25.726562 27.132812 C 26.125 20.878906 27.402344 16.242188 29.519531 13.339844 C 31.015625 11.296875 33.429688 10.078125 35.980469 10.078125 C 37.28125 10.078125 38.570312 10.402344 39.714844 11.003906 C 51.851562 17.441406 81.421875 44.332031 85.148438 47.746094 C 87.078125 48.921875 93.058594 52.652344 95.449219 55.039062 C 98.019531 57.605469 98.71875 63.59375 98.898438 67.191406 C 118.179688 89.679688 127.519531 126.15625 127.609375 126.523438 L 128.242188 129.046875 L 125.828125 129.984375 C 110.078125 136.117188 93.203125 139.417969 75.683594 139.800781 Z M 73.421875 139.832031 " fill-opacity="1" fill-rule="nonzero"/></g><g clip-path="url(#c6e9da80ba)"><path fill="#eaeaea" d="M 85.292969 73.203125 C 82.386719 68.09375 77.496094 61.734375 71.085938 54.714844 C 71.085938 54.714844 71.082031 54.714844 71.082031 54.710938 C 71.082031 54.710938 71.082031 54.707031 71.082031 54.707031 C 71.675781 57.042969 72.460938 60.464844 72.460938 62.195312 C 72.460938 64.945312 69.054688 72.847656 68.910156 73.183594 L 67.25 77.023438 L 67.734375 72.867188 C 67.738281 72.816406 68.320312 67.714844 67.734375 64.101562 C 67.179688 60.664062 65.71875 50.378906 65.496094 48.828125 C 60 43.246094 54.054688 37.785156 48.992188 33.65625 C 48.933594 35.199219 48.875 37.839844 49.03125 39.433594 C 49.28125 41.929688 46.203125 49.5 45.851562 50.355469 L 44.417969 53.839844 L 44.664062 50.082031 C 44.671875 49.992188 45.25 41 44.199219 38.136719 C 43.214844 35.449219 43.859375 31.210938 44.097656 29.894531 C 42.410156 28.695312 41.023438 27.835938 39.980469 27.347656 C 37.667969 26.265625 35.53125 26.078125 33.628906 26.785156 C 30.757812 27.855469 29.269531 30.65625 29.007812 31.179688 C 29.007812 31.183594 29.007812 31.183594 29.007812 31.183594 L 29.007812 31.1875 C 27.882812 45.1875 25.753906 53.570312 21.492188 61.273438 C 16.605469 70.105469 15.53125 79.640625 18.386719 88.84375 C 21.679688 99.449219 24.988281 117.097656 24.90625 128.570312 C 27.101562 129.390625 38.359375 133.375 54.710938 135.269531 C 60.578125 135.949219 67.542969 136.402344 75.285156 136.25 C 75.285156 136.25 75.289062 136.25 75.289062 136.25 C 87.488281 133.988281 96.386719 128.53125 101.734375 120.042969 C 102.386719 119.011719 102.96875 117.957031 103.492188 116.886719 C 98.492188 102.964844 91 83.234375 85.292969 73.203125 Z M 56.464844 47.023438 C 57.335938 47.375 58.128906 47.925781 58.796875 48.59375 L 59.261719 49.121094 C 59.421875 49.296875 59.539062 49.496094 59.675781 49.6875 C 59.949219 50.066406 60.148438 50.488281 60.34375 50.90625 C 60.453125 51.109375 60.515625 51.332031 60.59375 51.550781 C 60.664062 51.765625 60.730469 51.988281 60.789062 52.207031 C 60.878906 52.65625 60.953125 53.109375 60.980469 53.5625 C 60.695312 53.191406 60.46875 52.8125 60.234375 52.445312 C 60.109375 52.265625 59.980469 52.089844 59.863281 51.910156 C 55.851562 52.523438 55.238281 47.503906 55.226562 47.394531 C 54.761719 47.132812 54.269531 46.890625 53.734375 46.679688 C 54.640625 46.503906 55.597656 46.679688 56.464844 47.023438 Z M 85.988281 117.492188 C 74.503906 120.519531 64.6875 121.53125 56.699219 121.53125 C 50.753906 121.53125 45.816406 120.96875 41.964844 120.265625 C 32.144531 118.46875 27.144531 115.449219 26.933594 115.320312 L 26.714844 115.183594 L 26.65625 114.933594 C 24.089844 104.003906 23.175781 100.34375 22.632812 98.15625 C 21.933594 95.359375 21.789062 94.777344 19.53125 84.480469 C 17.078125 73.28125 21.785156 68.164062 26.164062 65.847656 C 28.578125 64.566406 31.386719 63.957031 34.277344 64.089844 C 43.660156 64.503906 52.242188 67.546875 59.796875 73.125 C 65.820312 77.578125 71.199219 83.644531 75.785156 91.15625 C 83.570312 103.917969 86.40625 116.632812 86.433594 116.761719 L 86.558594 117.34375 Z M 84.824219 116.523438 C 65.476562 121.492188 51.027344 120.660156 42.269531 119.066406 C 34.265625 117.617188 29.449219 115.28125 28.027344 114.515625 L 30.023438 109.296875 L 33.519531 116.050781 L 37.144531 110.089844 L 41.183594 117.851562 L 45.027344 111.125 L 48.8125 118.992188 L 53.59375 111.746094 L 58.246094 119.152344 L 63.210938 111.890625 L 68.054688 118.902344 L 72.652344 111.324219 L 77.128906 117.582031 L 80.742188 110.523438 Z M 77.253906 103.816406 L 77.253906 97.425781 L 71.417969 96.699219 L 71.0625 89.007812 L 64.0625 89.65625 L 63.078125 80.558594 L 54.882812 83.34375 L 51.5625 73.546875 L 44.734375 79.640625 L 40.363281 69.738281 L 34.34375 78.59375 L 28.945312 68.722656 L 26.183594 78.839844 L 21.835938 73.976562 L 21.835938 81.125 L 20.128906 79.71875 C 19.792969 72.363281 23.375 68.726562 26.746094 66.9375 C 28.964844 65.761719 31.550781 65.203125 34.222656 65.320312 C 54.90625 66.242188 67.660156 80.214844 74.71875 91.773438 C 77.429688 96.210938 79.535156 100.648438 81.121094 104.535156 Z M 77.253906 103.816406 " fill-opacity="1" fill-rule="nonzero"/></g><g clip-path="url(#69deda3f1f)"><path fill="#1b3067" d="M 94.671875 59.589844 L 96.484375 69.140625 C 106.65625 81.023438 108.921875 89.238281 108.921875 89.238281 L 108.921875 111.574219 L 104.222656 115.273438 C 105.800781 100.019531 96.722656 80.789062 96.722656 80.789062 L 101.917969 84.796875 C 96.300781 74.980469 89.066406 70.40625 89.066406 70.40625 C 94.933594 67.027344 92.933594 57.554688 92.933594 57.554688 C 94.699219 57.988281 94.671875 59.589844 94.671875 59.589844 Z M 49.5 95.210938 C 48.574219 97.308594 46.871094 101.421875 45.800781 105.535156 C 45.800781 105.535156 43.207031 98.324219 45.046875 90.730469 C 44.769531 90.492188 44.488281 90.257812 44.210938 90.03125 C 43.578125 91.40625 41.339844 96.40625 40.039062 101.417969 C 40.039062 101.417969 37.484375 94.320312 39.238281 86.792969 C 38.921875 86.632812 38.605469 86.488281 38.285156 86.351562 C 37.328125 88.570312 35.820312 92.335938 34.835938 96.105469 C 34.835938 96.105469 33.023438 91.058594 33.503906 84.960938 C 33.277344 84.929688 33.054688 84.898438 32.828125 84.875 C 26.835938 84.253906 22.644531 87.242188 21.589844 88.09375 C 23.046875 94.71875 23.242188 95.480469 23.832031 97.867188 C 24.34375 99.921875 25.179688 103.273438 27.402344 112.703125 L 29.855469 106.285156 L 33.609375 113.542969 L 37.226562 107.585938 L 41.234375 115.273438 L 45.125 108.476562 L 47.726562 113.882812 C 50.183594 106.941406 52.484375 101.097656 53.035156 99.703125 C 51.863281 98.074219 50.683594 96.578125 49.5 95.210938 Z M 79.664062 46.609375 L 74.503906 46.609375 L 84.828125 51.734375 Z M 29.191406 28.628906 C 29.191406 28.628906 31.507812 21.417969 35.375 21.21875 C 39.238281 21.019531 44.308594 24.921875 44.308594 24.921875 C 44.308594 24.921875 41.511719 20.453125 36.75 18.246094 C 36.75 18.246094 40.839844 19.082031 43.585938 21.222656 C 43.585938 21.222656 42.320312 16.824219 38.90625 14.625 L 37.308594 13.054688 C 37.308594 13.054688 32.355469 12.933594 30.902344 16.859375 C 29.453125 20.785156 28.730469 24.042969 28.730469 24.042969 Z M 69.226562 52.710938 L 69.222656 52.554688 L 69.222656 52.550781 L 69.195312 52.457031 L 69.25 52.285156 C 69.265625 52.21875 69.769531 50.550781 71.15625 48.285156 C 71.496094 47.730469 71.621094 47.074219 71.511719 46.441406 L 70.257812 39.246094 L 70.253906 39.246094 C 68.832031 38.007812 67.347656 36.722656 65.8125 35.402344 C 66.9375 38.722656 68.695312 44.371094 68.203125 45.847656 C 67.722656 47.28125 67.046875 48.285156 66.722656 48.710938 C 66.976562 50.46875 68.40625 60.523438 68.953125 63.910156 C 69.21875 65.574219 69.257812 67.496094 69.214844 69.144531 C 70.199219 66.554688 71.226562 63.523438 71.226562 62.195312 C 71.226562 59.855469 69.566406 53.792969 69.285156 52.777344 Z M 49.890625 22.3125 C 48.902344 21.546875 47.9375 20.8125 46.996094 20.109375 L 46.992188 20.109375 C 48.355469 26.851562 47.910156 27.273438 47.660156 27.507812 C 47.242188 27.90625 45.78125 29.457031 45.347656 29.917969 C 45.175781 30.820312 44.429688 35.1875 45.355469 37.714844 C 46.027344 39.550781 46.101562 43.445312 46.042969 46.394531 C 46.976562 43.796875 47.917969 40.761719 47.800781 39.558594 C 47.558594 37.125 47.800781 32.570312 47.808594 32.378906 L 47.816406 32.21875 L 47.902344 32.085938 C 47.917969 32.058594 49.523438 29.425781 50.230469 27.230469 C 50.390625 26.734375 50.453125 26.183594 50.453125 25.628906 C 50.453125 24.207031 50.042969 22.785156 49.890625 22.3125 Z M 49.890625 22.3125 " fill-opacity="1" fill-rule="nonzero"/></g><g clip-path="url(#f5c9ead0db)"><path fill="#979797" d="M 104.332031 116.644531 C 104.332031 116.644531 100.304688 131.292969 86.558594 135.074219 C 72.8125 138.855469 61.75 135.914062 61.75 135.914062 C 75.691406 137.078125 85.410156 129.28125 85.410156 129.28125 C 83.476562 129.84375 79.292969 129.921875 79.292969 129.921875 C 82.996094 129.039062 86.941406 124.613281 86.941406 124.613281 C 79.292969 129.921875 69.789062 129.761719 69.789062 129.761719 C 84.28125 125.738281 86.558594 117.347656 86.558594 117.347656 L 86.347656 116.769531 L 69.390625 120.300781 L 72.652344 111.324219 L 80.582031 108.511719 L 84.949219 113.007812 L 82.835938 107.304688 L 82.109375 105.644531 L 78.191406 106.179688 L 64.0625 89.652344 L 69.070312 87.585938 C 67.539062 81.953125 65.460938 79.761719 65.460938 79.761719 C 69.644531 82.566406 74.292969 89.632812 77.742188 95.65625 L 77.523438 95.152344 L 73.578125 87.742188 C 82.519531 99.8125 89.066406 111.089844 89.066406 111.089844 C 84.832031 97.566406 79.664062 91.933594 79.664062 91.933594 C 82.074219 84.207031 81.121094 79.214844 81.121094 79.214844 C 84.394531 85.011719 89.066406 95.957031 89.066406 95.957031 C 85.152344 77.605469 74.503906 58.558594 74.503906 58.558594 L 80.179688 64.566406 L 86.140625 73.257812 L 95.640625 94.75 Z M 56.425781 129.777344 C 64.15625 128.972656 71.550781 124.625 71.550781 124.625 C 43.679688 129.453125 28.730469 121.222656 28.730469 121.222656 C 43.867188 138.589844 64.636719 129.777344 64.636719 129.777344 C 60.9375 130.101562 56.425781 129.777344 56.425781 129.777344 Z M 57.355469 66.335938 C 57.355469 66.335938 48.214844 57.460938 40.96875 53.847656 C 40.96875 53.847656 44.289062 54.425781 49.230469 56.03125 C 49.230469 56.03125 42.578125 46.882812 31.789062 46.386719 C 31.789062 46.386719 31.46875 37.359375 34.6875 36.394531 C 37.90625 35.429688 40.96875 37.199219 40.96875 37.199219 C 40.96875 37.199219 36.878906 29.648438 28.78125 33.746094 L 27.644531 39.066406 L 24.621094 52.710938 L 20.578125 61.644531 L 18.023438 66.65625 L 18.023438 69.722656 C 18.023438 69.722656 22.445312 58.261719 32.59375 57.546875 C 42.738281 56.839844 57.355469 66.335938 57.355469 66.335938 Z M 57.355469 66.335938 " fill-opacity="1" fill-rule="nonzero"/></g><g clip-path="url(#a259132ab3)"><path fill="#0d1016" d="M 125.625 127.023438 C 125.53125 126.65625 116.132812 90.027344 96.882812 67.992188 C 96.824219 66.285156 96.421875 58.910156 94 56.492188 C 91.617188 54.109375 84.796875 49.929688 83.914062 49.390625 C 80.460938 46.230469 50.785156 19.199219 38.753906 12.816406 C 36.164062 11.445312 32.90625 12.1875 31.179688 14.546875 C 29.292969 17.125 28.148438 21.402344 27.773438 27.257812 C 26.746094 43.359375 24.683594 52.378906 20.167969 60.546875 C 15.074219 69.75 13.957031 79.6875 16.941406 89.289062 C 20.238281 99.925781 23.554688 117.679688 23.386719 128.984375 L 23.378906 129.597656 L 23.945312 129.820312 C 24.054688 129.867188 36.171875 134.628906 54.492188 136.761719 C 60.34375 137.441406 66.324219 137.789062 72.261719 137.789062 C 73.28125 137.789062 74.21875 137.777344 75.117188 137.757812 L 75.132812 137.820312 L 75.449219 137.753906 C 92.800781 137.394531 109.5 134.140625 125.082031 128.074219 L 125.8125 127.792969 Z M 54.738281 135 C 38.800781 133.148438 27.671875 129.300781 25.175781 128.382812 C 25.21875 116.890625 21.898438 99.253906 18.640625 88.761719 C 15.808594 79.632812 16.875 70.175781 21.726562 61.40625 C 26.03125 53.621094 28.148438 45.164062 29.273438 31.257812 C 29.589844 30.628906 31.035156 28.042969 33.71875 27.039062 C 35.546875 26.355469 37.613281 26.546875 39.863281 27.59375 C 40.847656 28.054688 42.171875 28.871094 43.796875 30.019531 C 43.542969 31.472656 42.96875 35.585938 43.941406 38.230469 C 44.972656 41.046875 44.394531 49.972656 44.390625 50.0625 L 44.03125 55.480469 L 46.101562 50.460938 C 46.457031 49.597656 49.558594 41.96875 49.300781 39.40625 C 49.15625 37.949219 49.203125 35.578125 49.246094 34.214844 C 54.171875 38.261719 59.964844 43.601562 65.238281 48.953125 C 65.578125 51.351562 66.941406 60.90625 67.460938 64.144531 C 68.039062 67.734375 67.464844 72.785156 67.457031 72.835938 L 66.761719 78.828125 L 69.15625 73.292969 C 69.519531 72.445312 72.730469 64.929688 72.730469 62.195312 C 72.730469 60.699219 72.164062 58.003906 71.601562 55.695312 C 77.632812 62.371094 82.269531 68.457031 85.046875 73.339844 C 90.660156 83.207031 98.003906 102.433594 103.1875 116.871094 C 102.675781 117.914062 102.105469 118.933594 101.496094 119.902344 C 96.195312 128.320312 87.367188 133.730469 75.253906 135.984375 C 68.410156 136.113281 61.507812 135.78125 54.738281 135 Z M 37.917969 14.386719 C 39.796875 15.386719 42.269531 16.996094 45.257812 19.167969 C 45.976562 22.582031 46.480469 25.75 46.449219 26.582031 C 45.980469 27.050781 45.09375 27.980469 44.65625 28.445312 C 43.015625 27.292969 41.65625 26.464844 40.613281 25.980469 C 39.003906 25.230469 37.457031 24.851562 35.980469 24.851562 C 34.984375 24.851562 34.019531 25.023438 33.09375 25.371094 C 31.777344 25.863281 30.574219 26.6875 29.519531 27.824219 C 29.53125 27.671875 29.539062 27.523438 29.546875 27.371094 C 29.898438 21.855469 30.929688 17.890625 32.613281 15.59375 C 33.824219 13.945312 36.101562 13.425781 37.917969 14.386719 Z M 51.855469 24.191406 C 55.339844 26.949219 59.328125 30.234375 63.71875 33.972656 C 65.476562 38.886719 66.804688 43.65625 66.804688 45.085938 C 66.804688 45.25 66.785156 45.332031 66.773438 45.367188 C 66.523438 46.113281 66.214844 46.71875 65.957031 47.152344 C 60.488281 41.636719 54.550781 36.210938 49.582031 32.199219 C 50.097656 31.296875 51.113281 29.410156 51.664062 27.691406 C 51.976562 26.726562 52.042969 25.554688 51.855469 24.191406 Z M 70.925781 48.140625 C 69.496094 50.476562 68.992188 52.195312 68.988281 52.207031 L 68.914062 52.457031 L 68.953125 52.59375 L 68.960938 52.820312 L 69.046875 52.914062 C 69.402344 54.214844 70.957031 59.972656 70.957031 62.195312 C 70.957031 63.085938 70.445312 64.976562 69.503906 67.59375 C 69.488281 66.171875 69.394531 64.925781 69.226562 63.867188 C 68.683594 60.503906 67.246094 50.410156 67.015625 48.789062 C 67.335938 48.351562 67.996094 47.347656 68.472656 45.9375 C 68.925781 44.570312 67.660156 40.101562 66.390625 36.253906 C 67.695312 37.375 68.886719 38.40625 70.011719 39.394531 L 71.246094 46.488281 C 71.339844 47.054688 71.226562 47.644531 70.925781 48.140625 Z M 49.972656 27.148438 C 49.339844 29.117188 47.953125 31.476562 47.675781 31.941406 L 47.554688 32.132812 L 47.539062 32.398438 C 47.480469 33.53125 47.3125 37.386719 47.53125 39.582031 C 47.613281 40.371094 47.1875 42.175781 46.332031 44.730469 C 46.332031 42.09375 46.175781 39.164062 45.613281 37.621094 C 44.734375 35.222656 45.417969 31.050781 45.601562 30.042969 L 45.738281 29.898438 C 46.304688 29.300781 47.484375 28.050781 47.851562 27.707031 C 48.179688 27.402344 48.628906 26.980469 47.40625 20.753906 C 48.21875 21.367188 49.015625 21.980469 49.660156 22.480469 C 49.835938 23.046875 50.183594 24.335938 50.183594 25.632812 C 50.179688 26.207031 50.113281 26.714844 49.972656 27.148438 Z M 104.238281 114.519531 C 99.167969 100.507812 92.078125 82.085938 86.601562 72.457031 C 82.621094 65.460938 75.867188 57.628906 70.855469 52.25 C 70.953125 52 71.109375 51.605469 71.34375 51.105469 C 71.65625 50.4375 72.023438 49.753906 72.441406 49.070312 C 72.96875 48.207031 73.167969 47.179688 72.992188 46.179688 L 72.136719 41.257812 C 75.222656 43.96875 77.839844 46.308594 79.527344 47.828125 C 81.210938 49.34375 82.328125 50.363281 82.667969 50.671875 L 82.792969 50.785156 L 82.910156 50.871094 C 82.980469 50.914062 90.378906 55.390625 92.734375 57.75 C 94.335938 59.351562 95.039062 65.109375 95.109375 68.355469 L 95.113281 68.6875 L 95.332031 68.929688 C 98.933594 73.019531 102.441406 77.929688 105.761719 83.53125 C 106.242188 85.410156 109.824219 100.707031 104.238281 114.519531 Z M 78.371094 55.234375 C 78.710938 56.238281 81.816406 65.082031 86.238281 65.574219 C 86.429688 65.59375 86.625 65.605469 86.816406 65.605469 C 90.234375 65.605469 91.8125 62.058594 92.167969 60.183594 L 92.300781 59.476562 L 77.738281 53.367188 Z M 54.976562 47.566406 C 55.066406 48.152344 55.496094 50.351562 57.019531 51.515625 C 57.78125 52.097656 58.691406 52.324219 59.730469 52.203125 C 59.820312 52.335938 59.914062 52.46875 60.003906 52.597656 C 60.0625 52.6875 60.117188 52.777344 60.175781 52.867188 C 60.351562 53.152344 60.539062 53.445312 60.761719 53.730469 L 61.304688 54.429688 L 61.25 53.550781 C 61.226562 53.144531 61.164062 52.714844 61.046875 52.136719 C 60.984375 51.910156 60.921875 51.6875 60.847656 51.46875 L 60.808594 51.355469 C 60.746094 51.167969 60.679688 50.972656 60.585938 50.792969 C 60.382812 50.351562 60.175781 49.921875 59.894531 49.535156 C 59.863281 49.488281 59.832031 49.441406 59.800781 49.394531 C 59.699219 49.242188 59.59375 49.089844 59.460938 48.945312 L 58.988281 48.40625 C 58.269531 47.6875 57.429688 47.125 56.5625 46.773438 C 55.523438 46.363281 54.554688 46.242188 53.675781 46.414062 L 52.757812 46.59375 L 53.628906 46.933594 C 54.085938 47.113281 54.527344 47.320312 54.976562 47.566406 Z M 76.019531 91.015625 C 71.417969 83.476562 66.019531 77.382812 59.964844 72.90625 C 52.363281 67.292969 43.726562 64.234375 34.292969 63.816406 C 31.351562 63.683594 28.496094 64.304688 26.039062 65.605469 C 21.574219 67.972656 16.78125 73.175781 19.269531 84.542969 C 21.527344 94.859375 21.671875 95.441406 22.367188 98.21875 L 22.421875 98.425781 C 22.976562 100.660156 23.902344 104.402344 26.390625 114.996094 L 26.476562 115.355469 L 26.796875 115.554688 C 27.335938 115.878906 32.339844 118.78125 41.917969 120.535156 C 46.527344 121.375 51.5 121.804688 56.699219 121.804688 C 65.992188 121.804688 75.867188 120.441406 86.054688 117.757812 L 86.882812 117.542969 L 86.699219 116.707031 C 86.671875 116.578125 83.820312 103.808594 76.019531 91.015625 Z M 84.378906 116.355469 C 81.921875 116.976562 79.542969 117.507812 77.246094 117.957031 L 80.773438 111.0625 Z M 33.539062 116.542969 L 37.128906 110.648438 L 41.175781 118.425781 L 45.007812 111.71875 L 48.777344 119.546875 L 53.589844 112.253906 L 58.238281 119.652344 L 63.210938 112.378906 L 68.046875 119.375 C 56.949219 120.621094 48.285156 119.886719 42.316406 118.800781 C 38.75 118.152344 35.816406 117.324219 33.539062 116.542969 Z M 33.449219 116.511719 C 30.898438 115.632812 29.1875 114.8125 28.371094 114.390625 L 30.0625 109.964844 Z M 34.210938 65.59375 C 54.769531 66.515625 67.457031 80.414062 74.480469 91.917969 C 75.511719 93.601562 76.496094 95.355469 77.433594 97.171875 L 71.679688 96.457031 L 71.320312 88.707031 L 64.304688 89.355469 L 63.3125 80.1875 L 55.054688 82.992188 L 51.6875 73.066406 L 44.832031 79.183594 L 40.410156 69.175781 L 34.367188 78.074219 L 28.855469 68 L 26.046875 78.285156 L 21.5625 73.261719 L 21.5625 80.550781 L 20.394531 79.585938 C 20.105469 72.328125 23.75 68.832031 26.871094 67.179688 C 29.046875 66.027344 31.585938 65.476562 34.210938 65.59375 Z M 77.527344 103.589844 L 77.527344 97.359375 C 78.652344 99.550781 79.703125 101.828125 80.675781 104.179688 Z M 32.800781 85.148438 C 32.9375 85.160156 33.074219 85.175781 33.210938 85.195312 C 32.800781 91.167969 34.5625 96.144531 34.582031 96.199219 L 34.878906 97.027344 L 35.097656 96.171875 C 36.019531 92.644531 37.394531 89.121094 38.425781 86.710938 C 38.601562 86.789062 38.765625 86.867188 38.921875 86.941406 C 37.265625 94.382812 39.753906 101.4375 39.78125 101.507812 L 40.078125 102.335938 L 40.300781 101.480469 C 41.5 96.867188 43.519531 92.207031 44.308594 90.464844 C 44.445312 90.582031 44.59375 90.699219 44.738281 90.824219 C 42.976562 98.355469 45.515625 105.554688 45.542969 105.625 L 45.839844 106.453125 L 46.058594 105.601562 C 47.0625 101.75 48.625 97.894531 49.570312 95.710938 C 50.617188 96.9375 51.675781 98.289062 52.71875 99.738281 C 52.035156 101.472656 49.929688 106.84375 47.683594 113.171875 L 45.140625 107.886719 L 41.242188 114.703125 L 37.238281 107.019531 L 33.617188 112.972656 L 29.8125 105.609375 L 27.457031 111.765625 C 25.480469 103.402344 24.660156 100.085938 24.160156 98.082031 L 24.082031 97.753906 C 23.5 95.421875 23.304688 94.625 21.886719 88.191406 C 23.167969 87.207031 27.167969 84.5625 32.800781 85.148438 Z M 77.082031 117.988281 C 73.929688 118.597656 70.933594 119.046875 68.09375 119.367188 L 72.671875 111.820312 Z M 77.082031 117.988281 " fill-opacity="1" fill-rule="nonzero"/></g></svg>