<svg xmlns="http://www.w3.org/2000/svg" xmlns:xlink="http://www.w3.org/1999/xlink" width="130" zoomAndPan="magnify" viewBox="0 0 97.5 131.999998" height="176" preserveAspectRatio="xMidYMid meet" version="1.0"><defs><clipPath id="c9f12bd0fb"><path d="M 9 6.230469 L 87 6.230469 L 87 125.621094 L 9 125.621094 Z M 9 6.230469 " clip-rule="nonzero"/></clipPath></defs><g clip-path="url(#c9f12bd0fb)"><path fill="#a6bae8" d="M 64.195312 6.230469 C 63.457031 9.074219 62.527344 12.320312 61.003906 14.441406 C 59.476562 16.566406 57.597656 17.832031 55.40625 18.761719 C 53.046875 19.765625 50.378906 20.265625 47.613281 20.625 C 42.277344 21.316406 36.558594 21.414062 31.960938 23.296875 C 31.960938 23.296875 32.175781 22.199219 32.507812 21.148438 C 32.820312 20.101562 33.367188 19.027344 33.367188 19.027344 C 27.339844 21.125 22.121094 25.113281 19.261719 30.21875 C 16.617188 35.015625 15.617188 41.007812 17.214844 47 C 9.6875 51.820312 7.78125 64.253906 12.28125 73.921875 C 13.355469 76.191406 14.402344 77.882812 13.925781 79.625 C 12.066406 86.285156 12.117188 92.132812 13.878906 97.910156 C 15.355469 102.707031 17.621094 106.476562 22.121094 110.488281 C 26.625 114.496094 31.269531 117.554688 37.65625 120.824219 C 37.65625 120.824219 42.777344 123.234375 49.378906 124.640625 C 53.308594 125.40625 56.359375 125.621094 60.050781 125.574219 C 60.90625 123.042969 62.003906 120.371094 63.148438 118.269531 C 64.503906 115.761719 65.933594 113.734375 67.171875 112.183594 C 68.316406 114.308594 69.9375 116.023438 71.914062 117.503906 C 72.25 115 73.035156 112.421875 74.082031 110.390625 C 77.632812 103.542969 86.78125 99.460938 82.921875 79.839844 C 82.539062 77.90625 83.492188 76.117188 84.519531 73.945312 C 88.972656 64.421875 87.1875 52.226562 79.945312 47.261719 C 83.160156 40.363281 83.539062 33.273438 82.085938 27.476562 C 80.632812 21.652344 77.273438 16.496094 73.726562 13.035156 C 70.175781 9.527344 67.914062 8.164062 64.195312 6.230469 Z M 64.195312 6.230469 " fill-opacity="1" fill-rule="nonzero"/></g><path fill="#000000" d="M 65.839844 10.289062 C 60.359375 29.933594 34.796875 18.8125 27.886719 29.933594 C 27.769531 27.449219 28.769531 24.394531 28.769531 24.394531 C 21.359375 28.167969 16.640625 38.382812 20.429688 48.359375 C 12.902344 51.246094 10.234375 63.207031 14.710938 72.777344 C 15.714844 74.902344 17.261719 77.597656 16.5 80.34375 C 12.808594 93.566406 17.761719 104.710938 26.027344 110.058594 C 26.027344 110.058594 24.957031 106.957031 25.027344 104.519531 C 34.652344 123.1875 58.167969 122.898438 58.167969 122.898438 C 58.167969 122.898438 61.859375 112.539062 68.4375 106.835938 C 68.4375 106.835938 68.292969 109.890625 70.558594 112.207031 C 73.226562 101.941406 84.46875 101.371094 80.324219 80.34375 C 79.777344 77.550781 81.109375 74.902344 82.113281 72.777344 C 86.589844 63.207031 83.921875 51.222656 76.394531 48.359375 C 85.207031 32.652344 77.847656 17.308594 65.839844 10.289062 Z M 65.839844 10.289062 " fill-opacity="1" fill-rule="nonzero"/><path fill="#ffffff" d="M 31.53125 64.996094 C 29.722656 63.753906 30.152344 62.679688 28.578125 61.917969 C 29.960938 61.128906 31.628906 61.605469 33.222656 62.726562 C 34.820312 63.851562 36.488281 65.28125 38.296875 65.664062 C 36.203125 66.285156 33.34375 66.261719 31.53125 64.996094 Z M 31.53125 64.996094 " fill-opacity="1" fill-rule="nonzero"/><path fill="#a9bbe3" d="M 45.804688 63.394531 C 43.824219 67.191406 38.25 64.660156 34.726562 61.941406 C 31.175781 59.21875 27.339844 58.71875 24.363281 60.554688 C 28.363281 62.058594 26.695312 65.808594 31.222656 66.691406 C 31.222656 66.691406 29.960938 67.191406 29.007812 68.789062 C 29.007812 68.789062 33.820312 67.335938 39.226562 68.480469 C 38.585938 69.101562 38.058594 69.863281 37.703125 70.722656 C 37.511719 71.226562 37.371094 71.75 37.320312 72.300781 C 35.941406 72.417969 34.226562 72.730469 32.507812 73.347656 C 30.414062 74.113281 25.003906 75.6875 21.527344 73.183594 C 21.527344 73.183594 23.195312 72.824219 23.695312 72.25 C 20.765625 70.796875 17.261719 65.496094 19.476562 60.007812 C 21.667969 54.515625 27.101562 54.921875 27.101562 54.921875 C 26.71875 54.207031 25.21875 53.707031 25.21875 53.707031 C 35.773438 50.867188 48.089844 57.738281 45.804688 63.394531 Z M 45.804688 63.394531 " fill-opacity="1" fill-rule="nonzero"/><path fill="#8094b4" d="M 24.363281 60.53125 C 24.363281 60.53125 19.550781 64.972656 23.71875 72.226562 C 23.21875 72.800781 21.550781 73.160156 21.550781 73.160156 C 25.027344 75.640625 30.4375 74.089844 32.535156 73.324219 C 34.25 72.703125 35.964844 72.417969 37.347656 72.273438 C 37.394531 71.726562 37.511719 71.199219 37.726562 70.699219 C 38.058594 69.863281 38.585938 69.101562 39.25 68.457031 C 38.132812 68.21875 37.011719 68.097656 35.988281 68.050781 C 35.988281 68.050781 35.964844 68.050781 35.964844 68.050781 C 35.890625 68.050781 35.84375 68.050781 35.773438 68.050781 C 35.75 68.050781 35.703125 68.050781 35.679688 68.050781 C 35.628906 68.050781 35.582031 68.050781 35.511719 68.050781 C 35.464844 68.050781 35.414062 68.050781 35.390625 68.050781 C 35.34375 68.050781 35.296875 68.050781 35.25 68.050781 C 35.203125 68.050781 35.152344 68.050781 35.105469 68.050781 C 35.058594 68.050781 35.035156 68.050781 34.988281 68.050781 C 34.964844 68.050781 34.941406 68.050781 34.914062 68.050781 C 34.890625 68.050781 34.867188 68.050781 34.84375 68.050781 C 34.796875 68.050781 34.75 68.050781 34.703125 68.050781 C 34.652344 68.050781 34.605469 68.050781 34.558594 68.050781 C 34.535156 68.050781 34.535156 68.050781 34.511719 68.050781 C 34.082031 68.050781 33.652344 68.074219 33.273438 68.097656 C 33.246094 68.097656 33.222656 68.097656 33.199219 68.097656 C 33.175781 68.097656 33.152344 68.097656 33.128906 68.097656 C 33.058594 68.097656 32.984375 68.097656 32.914062 68.121094 C 32.890625 68.121094 32.890625 68.121094 32.867188 68.121094 C 32.769531 68.121094 32.699219 68.144531 32.605469 68.144531 C 30.460938 68.359375 29.054688 68.789062 29.054688 68.789062 C 30.007812 67.167969 31.269531 66.691406 31.269531 66.691406 C 26.671875 65.78125 28.363281 62.035156 24.363281 60.53125 Z M 24.363281 60.53125 " fill-opacity="1" fill-rule="nonzero"/><path fill="#8094b4" d="M 30.222656 53.039062 C 28.554688 53.039062 26.863281 53.253906 25.21875 53.683594 C 38.824219 52.609375 46.042969 60.53125 43.945312 63.085938 C 41.824219 65.640625 37.75 61.679688 36.796875 58.648438 C 36.796875 58.648438 36.871094 60.390625 37.394531 61.84375 C 34.941406 60.414062 32.246094 58.648438 29.675781 58.621094 C 26.21875 58.621094 24.363281 60.53125 24.363281 60.53125 C 27.339844 58.695312 31.175781 59.195312 34.726562 61.917969 C 38.226562 64.613281 43.730469 67.121094 45.753906 63.492188 C 45.828125 63.324219 45.898438 63.132812 45.96875 62.917969 C 47.183594 58.265625 38.964844 52.988281 30.222656 53.039062 Z M 30.222656 53.039062 " fill-opacity="1" fill-rule="nonzero"/><path fill="#8094b4" d="M 26.886719 54.898438 C 27.03125 54.898438 27.125 54.898438 27.125 54.898438 C 27.125 54.898438 21.027344 55.710938 20.144531 62.371094 C 19.285156 69.003906 23.71875 72.226562 23.71875 72.226562 C 20.789062 70.773438 17.285156 65.472656 19.5 59.984375 C 21.40625 55.1875 25.816406 54.898438 26.886719 54.898438 Z M 26.886719 54.898438 " fill-opacity="1" fill-rule="nonzero"/><path fill="#ffffff" d="M 65.410156 64.996094 C 67.222656 63.753906 66.792969 62.679688 68.363281 61.917969 C 66.984375 61.128906 65.316406 61.605469 63.71875 62.726562 C 62.121094 63.851562 60.457031 65.28125 58.644531 65.664062 C 60.71875 66.285156 63.578125 66.261719 65.410156 64.996094 Z M 65.410156 64.996094 " fill-opacity="1" fill-rule="nonzero"/><path fill="#a9bbe3" d="M 66.695312 53.039062 C 57.667969 52.988281 49.210938 58.648438 51.140625 63.394531 C 52.949219 66.855469 57.738281 65.042969 61.265625 62.632812 C 59.90625 59.242188 57.953125 56.929688 57.953125 56.929688 C 57.953125 56.929688 61.074219 58.503906 62.863281 61.488281 C 66.222656 59.171875 69.792969 58.8125 72.582031 60.554688 C 68.578125 62.058594 70.246094 65.808594 65.71875 66.691406 C 65.71875 66.691406 66.984375 67.191406 67.9375 68.789062 C 67.9375 68.789062 66.246094 68.265625 63.71875 68.097656 C 63.433594 69.101562 62.933594 70.175781 62.21875 71.296875 C 62.457031 70.199219 62.527344 69.101562 62.480469 68.050781 C 61.050781 68.027344 59.40625 68.121094 57.738281 68.480469 C 58.382812 69.101562 58.90625 69.863281 59.265625 70.722656 C 59.453125 71.226562 59.597656 71.75 59.644531 72.300781 C 61.027344 72.417969 62.742188 72.730469 64.457031 73.347656 C 66.554688 74.113281 71.960938 75.6875 75.441406 73.207031 C 75.441406 73.207031 73.773438 72.847656 73.273438 72.273438 C 76.203125 70.820312 79.707031 65.519531 77.488281 60.03125 C 75.296875 54.542969 69.867188 54.945312 69.867188 54.945312 C 70.246094 54.230469 71.746094 53.730469 71.746094 53.730469 C 70.054688 53.226562 68.363281 53.039062 66.695312 53.039062 Z M 66.695312 53.039062 " fill-opacity="1" fill-rule="nonzero"/><path fill="#8094b4" d="M 72.582031 60.53125 C 68.578125 62.035156 70.246094 65.78125 65.71875 66.667969 C 65.71875 66.667969 66.984375 67.167969 67.9375 68.765625 C 67.9375 68.765625 66.246094 68.242188 63.71875 68.074219 C 63.433594 69.078125 62.933594 70.152344 62.21875 71.273438 C 62.457031 70.175781 62.527344 69.078125 62.480469 68.027344 C 61.050781 68.003906 59.40625 68.097656 57.738281 68.457031 C 58.382812 69.078125 58.90625 69.839844 59.265625 70.699219 C 59.453125 71.199219 59.597656 71.726562 59.644531 72.273438 C 61.027344 72.394531 62.742188 72.703125 64.457031 73.324219 C 66.554688 74.089844 71.960938 75.664062 75.441406 73.183594 C 75.441406 73.183594 73.773438 72.824219 73.273438 72.25 C 77.371094 64.972656 72.582031 60.53125 72.582031 60.53125 Z M 72.582031 60.53125 " fill-opacity="1" fill-rule="nonzero"/><path fill="#8094b4" d="M 66.695312 53.039062 C 57.667969 52.988281 49.210938 58.648438 51.140625 63.394531 C 52.949219 66.855469 57.738281 65.042969 61.265625 62.632812 C 61.003906 61.988281 60.742188 61.390625 60.457031 60.84375 C 58.5 62.75 54.214844 64.636719 52.949219 62.679688 C 51.734375 60.578125 58.738281 51.699219 71.699219 53.683594 C 70.054688 53.226562 68.363281 53.039062 66.695312 53.039062 Z M 66.695312 53.039062 " fill-opacity="1" fill-rule="nonzero"/><path fill="#8094b4" d="M 67.269531 58.621094 C 65.746094 58.621094 63.933594 59.003906 61.835938 60.054688 C 62.195312 60.484375 62.550781 60.960938 62.863281 61.464844 C 66.222656 59.148438 69.792969 58.789062 72.582031 60.53125 C 72.582031 60.53125 70.722656 58.621094 67.269531 58.621094 Z M 67.269531 58.621094 " fill-opacity="1" fill-rule="nonzero"/><path fill="#8094b4" d="M 70.054688 54.898438 C 69.914062 54.898438 69.816406 54.898438 69.816406 54.898438 C 69.816406 54.898438 75.917969 55.710938 76.796875 62.371094 C 77.65625 69.003906 73.226562 72.226562 73.226562 72.226562 C 76.15625 70.773438 79.65625 65.472656 77.441406 59.984375 C 75.511719 55.1875 71.128906 54.898438 70.054688 54.898438 Z M 70.054688 54.898438 " fill-opacity="1" fill-rule="nonzero"/><path fill="#8094b4" d="M 48.472656 89.222656 C 47.589844 89.222656 46.707031 89.246094 45.898438 89.269531 C 53.285156 89.601562 58.214844 91.25 60.457031 92.203125 C 58.574219 95.210938 54.285156 99.582031 45.898438 100.34375 C 46.707031 100.414062 47.589844 100.464844 48.472656 100.464844 C 58.574219 100.464844 63.527344 95.523438 65.601562 92.230469 C 63.101562 91.15625 57.308594 89.222656 48.472656 89.222656 Z M 48.472656 89.222656 " fill-opacity="1" fill-rule="nonzero"/><path fill="#a9bbe3" d="M 43.613281 68.910156 C 40.085938 68.910156 37.65625 73.46875 41.179688 76.378906 C 41.179688 76.378906 39.585938 76.214844 38.347656 74.636719 C 38.347656 74.636719 34.058594 76 31.175781 82.894531 C 30.101562 85.472656 29.839844 87.910156 30.816406 90.105469 C 33.390625 89.007812 39.394531 87 48.449219 87 C 50.996094 87 53.308594 87.167969 55.378906 87.429688 C 55.570312 84.566406 55.453125 82.109375 55.453125 82.109375 C 55.453125 82.109375 56.882812 84.542969 56.90625 87.644531 C 61.3125 88.339844 64.410156 89.4375 66.078125 90.128906 C 67.078125 87.910156 66.816406 85.5 65.71875 82.921875 C 62.835938 76.023438 58.550781 74.660156 58.550781 74.660156 C 57.308594 76.238281 55.714844 76.40625 55.714844 76.40625 C 59.238281 73.492188 56.808594 68.933594 53.285156 68.933594 C 49.757812 68.933594 48.449219 71.535156 48.449219 71.535156 C 48.449219 71.535156 47.160156 68.910156 43.613281 68.910156 Z M 53.117188 70.558594 C 54.308594 70.558594 55.285156 71.199219 55.523438 72.15625 C 55.855469 73.375 54.902344 74.6875 53.402344 75.066406 C 52.070312 75.425781 50.710938 74.925781 50.234375 73.898438 C 50.1875 73.804688 50.164062 73.707031 50.140625 73.613281 C 50.140625 73.589844 50.140625 73.589844 50.140625 73.5625 C 50.140625 73.539062 50.140625 73.539062 50.140625 73.515625 C 50.140625 73.492188 50.140625 73.492188 50.140625 73.46875 C 50.117188 73.300781 50.089844 73.132812 50.117188 72.992188 C 50.117188 72.96875 50.117188 72.96875 50.117188 72.945312 C 50.117188 72.871094 50.140625 72.800781 50.140625 72.703125 C 50.140625 72.703125 50.140625 72.679688 50.140625 72.679688 C 50.1875 72.464844 50.257812 72.273438 50.378906 72.085938 C 50.378906 72.085938 50.378906 72.058594 50.402344 72.058594 C 50.402344 72.035156 50.425781 72.035156 50.425781 72.011719 C 50.425781 71.988281 50.449219 71.964844 50.472656 71.964844 C 50.496094 71.941406 50.496094 71.917969 50.519531 71.917969 C 50.925781 71.34375 51.570312 70.914062 52.308594 70.699219 C 52.570312 70.628906 52.855469 70.582031 53.140625 70.582031 C 53.09375 70.558594 53.117188 70.558594 53.117188 70.558594 Z M 43.800781 70.558594 C 43.824219 70.558594 43.851562 70.558594 43.851562 70.558594 C 44.136719 70.558594 44.398438 70.605469 44.683594 70.675781 C 45.683594 70.9375 46.496094 71.65625 46.757812 72.488281 C 46.757812 72.488281 46.757812 72.464844 46.757812 72.464844 C 46.757812 72.441406 46.757812 72.441406 46.734375 72.417969 C 46.734375 72.441406 46.734375 72.441406 46.757812 72.464844 C 46.757812 72.488281 46.78125 72.539062 46.78125 72.5625 C 46.78125 72.585938 46.804688 72.632812 46.804688 72.65625 C 46.804688 72.679688 46.804688 72.679688 46.804688 72.703125 C 46.804688 72.703125 46.804688 72.703125 46.804688 72.679688 C 46.804688 72.730469 46.828125 72.777344 46.828125 72.824219 C 46.851562 73.0625 46.851562 73.324219 46.78125 73.539062 C 46.445312 74.757812 44.992188 75.402344 43.492188 75.019531 C 41.992188 74.613281 41.0625 73.300781 41.371094 72.109375 C 41.632812 71.199219 42.609375 70.558594 43.800781 70.558594 Z M 44.566406 70.628906 C 44.589844 70.628906 44.589844 70.628906 44.613281 70.628906 C 44.589844 70.652344 44.589844 70.628906 44.566406 70.628906 Z M 46.207031 71.582031 C 46.230469 71.605469 46.28125 71.65625 46.304688 71.679688 C 46.28125 71.628906 46.257812 71.605469 46.207031 71.582031 Z M 46.351562 71.726562 C 46.351562 71.75 46.375 71.75 46.375 71.773438 C 46.375 71.796875 46.398438 71.796875 46.398438 71.820312 C 46.398438 71.796875 46.375 71.796875 46.375 71.773438 C 46.375 71.75 46.351562 71.75 46.351562 71.726562 Z M 46.46875 71.871094 C 46.46875 71.894531 46.496094 71.894531 46.496094 71.917969 C 46.46875 71.894531 46.46875 71.894531 46.46875 71.871094 Z M 46.496094 71.941406 C 46.519531 71.964844 46.519531 71.988281 46.542969 71.988281 C 46.519531 71.964844 46.519531 71.941406 46.496094 71.941406 Z M 46.542969 72.011719 C 46.542969 72.011719 46.542969 72.035156 46.566406 72.035156 C 46.566406 72.035156 46.542969 72.035156 46.542969 72.011719 Z M 46.566406 72.058594 C 46.566406 72.085938 46.589844 72.085938 46.589844 72.109375 C 46.589844 72.085938 46.589844 72.058594 46.566406 72.058594 Z M 46.613281 72.132812 C 46.636719 72.15625 46.636719 72.179688 46.660156 72.203125 C 46.636719 72.179688 46.613281 72.15625 46.613281 72.132812 Z M 46.660156 72.226562 C 46.660156 72.25 46.683594 72.25 46.683594 72.273438 C 46.660156 72.25 46.660156 72.226562 46.660156 72.226562 Z M 46.683594 72.300781 C 46.683594 72.300781 46.683594 72.324219 46.707031 72.324219 C 46.707031 72.324219 46.683594 72.300781 46.683594 72.300781 Z M 46.707031 72.371094 C 46.707031 72.394531 46.707031 72.394531 46.734375 72.417969 C 46.734375 72.394531 46.734375 72.371094 46.707031 72.371094 Z M 46.707031 72.371094 " fill-opacity="1" fill-rule="nonzero"/><path fill="#8094b4" d="M 43.851562 70.558594 C 44.136719 70.558594 44.398438 70.605469 44.683594 70.675781 C 46.183594 71.082031 47.113281 72.394531 46.804688 73.589844 C 46.46875 74.804688 45.015625 75.449219 43.515625 75.066406 C 42.015625 74.660156 41.085938 73.347656 41.394531 72.15625 C 41.632812 71.273438 42.46875 70.675781 43.539062 70.582031 C 40.300781 70.796875 39.65625 74.636719 41.179688 76.40625 C 41.179688 76.40625 40.324219 76.308594 39.394531 75.664062 C 39.371094 75.640625 39.324219 75.617188 39.300781 75.59375 C 39.277344 75.570312 39.226562 75.546875 39.203125 75.519531 C 39.203125 75.519531 39.179688 75.519531 39.179688 75.496094 C 39.132812 75.472656 39.109375 75.449219 39.0625 75.402344 C 39.011719 75.378906 38.988281 75.332031 38.941406 75.304688 C 38.894531 75.257812 38.871094 75.234375 38.824219 75.1875 C 38.800781 75.164062 38.773438 75.140625 38.75 75.140625 C 38.726562 75.117188 38.703125 75.089844 38.679688 75.066406 C 38.632812 75.019531 38.609375 74.972656 38.5625 74.949219 C 38.488281 74.851562 38.394531 74.757812 38.324219 74.660156 C 38.324219 74.660156 38.324219 74.660156 38.296875 74.660156 C 38.296875 74.660156 38.296875 74.660156 38.273438 74.660156 C 38.226562 74.6875 38.132812 74.710938 37.964844 74.78125 C 37.917969 74.804688 37.847656 74.828125 37.796875 74.851562 C 37.773438 74.875 37.75 74.875 37.703125 74.902344 C 37.703125 74.902344 37.679688 74.902344 37.679688 74.925781 C 37.632812 74.949219 37.558594 74.996094 37.488281 75.019531 C 37.488281 75.019531 37.464844 75.019531 37.464844 75.042969 C 37.441406 75.066406 37.394531 75.089844 37.371094 75.089844 C 37.347656 75.089844 37.347656 75.117188 37.320312 75.117188 C 35.890625 75.949219 33.175781 78.074219 31.152344 82.894531 C 30.078125 85.472656 29.816406 87.910156 30.792969 90.105469 C 31.4375 89.84375 32.269531 89.507812 33.320312 89.171875 C 32.746094 87.214844 33.082031 85.117188 34.011719 82.894531 C 35.367188 79.652344 37.035156 77.621094 38.417969 76.378906 C 39.539062 77.167969 41.132812 77.882812 43.085938 77.882812 C 47.234375 77.882812 48.398438 75.785156 48.398438 75.785156 C 48.398438 75.785156 49.566406 77.882812 53.714844 77.882812 C 54.832031 77.882812 55.832031 77.644531 56.691406 77.289062 C 57.953125 78.527344 59.429688 80.292969 60.503906 82.871094 C 61.335938 84.855469 61.671875 86.761719 61.335938 88.53125 C 63.433594 89.078125 64.980469 89.652344 66.007812 90.082031 C 67.007812 87.859375 66.746094 85.449219 65.648438 82.871094 C 63.648438 78.074219 60.957031 75.949219 59.527344 75.089844 C 59.503906 75.066406 59.453125 75.042969 59.429688 75.042969 C 59.40625 75.019531 59.382812 75.019531 59.359375 74.996094 C 59.3125 74.972656 59.289062 74.949219 59.238281 74.925781 C 59.214844 74.902344 59.191406 74.902344 59.167969 74.875 C 59.144531 74.851562 59.121094 74.851562 59.097656 74.828125 C 59.074219 74.828125 59.050781 74.804688 59.027344 74.804688 C 59.003906 74.78125 58.976562 74.78125 58.953125 74.78125 C 58.929688 74.757812 58.90625 74.757812 58.882812 74.734375 C 58.859375 74.734375 58.859375 74.710938 58.835938 74.710938 C 58.738281 74.660156 58.667969 74.636719 58.597656 74.613281 C 58.597656 74.613281 58.597656 74.613281 58.574219 74.613281 C 58.550781 74.613281 58.550781 74.613281 58.527344 74.589844 C 58.5 74.589844 58.5 74.589844 58.5 74.589844 C 58.476562 74.613281 58.453125 74.636719 58.453125 74.660156 C 58.429688 74.6875 58.40625 74.710938 58.40625 74.734375 C 58.382812 74.757812 58.359375 74.78125 58.359375 74.804688 C 58.335938 74.828125 58.3125 74.851562 58.3125 74.875 C 58.3125 74.875 58.289062 74.902344 58.289062 74.902344 C 58.261719 74.925781 58.261719 74.925781 58.238281 74.949219 C 58.214844 74.972656 58.191406 74.996094 58.167969 75.019531 C 58.144531 75.042969 58.121094 75.066406 58.097656 75.089844 C 58.074219 75.117188 58.050781 75.140625 58.023438 75.140625 C 57.976562 75.1875 57.953125 75.210938 57.90625 75.257812 C 57.859375 75.304688 57.835938 75.332031 57.785156 75.355469 C 57.738281 75.378906 57.714844 75.425781 57.667969 75.449219 C 57.621094 75.472656 57.597656 75.519531 57.546875 75.546875 C 57.523438 75.546875 57.523438 75.570312 57.5 75.570312 C 57.238281 75.761719 56.976562 75.902344 56.714844 76.023438 C 56.644531 76.046875 56.570312 76.09375 56.523438 76.117188 C 56.5 76.140625 56.453125 76.140625 56.429688 76.164062 C 56.40625 76.164062 56.359375 76.191406 56.332031 76.191406 C 56.332031 76.191406 56.332031 76.191406 56.308594 76.191406 C 56.191406 76.238281 56.09375 76.261719 56 76.285156 C 55.976562 76.285156 55.976562 76.285156 55.953125 76.285156 C 55.929688 76.285156 55.929688 76.285156 55.90625 76.285156 C 55.855469 76.285156 55.832031 76.308594 55.785156 76.308594 C 55.785156 76.308594 55.761719 76.308594 55.761719 76.308594 C 55.691406 76.332031 55.644531 76.332031 55.644531 76.332031 C 57.167969 74.710938 56.523438 70.722656 53.285156 70.507812 C 54.355469 70.605469 55.214844 71.226562 55.429688 72.085938 C 55.761719 73.300781 54.808594 74.613281 53.308594 74.996094 C 51.808594 75.402344 50.328125 74.734375 50.019531 73.515625 C 49.6875 72.300781 50.640625 70.984375 52.140625 70.605469 C 52.402344 70.53125 52.6875 70.484375 52.972656 70.484375 C 50.472656 70.484375 49.042969 72.371094 48.375 73.5625 C 47.78125 72.441406 46.351562 70.558594 43.851562 70.558594 Z M 43.851562 70.558594 " fill-opacity="1" fill-rule="nonzero"/><path fill="#8094b4" d="M 34.25 91.179688 C 33.007812 91.558594 32.058594 91.917969 31.34375 92.230469 C 32.605469 94.257812 34.941406 96.882812 38.871094 98.625 C 36.179688 96.046875 34.84375 93.253906 34.25 91.179688 Z M 34.25 91.179688 " fill-opacity="1" fill-rule="nonzero"/><path fill="#a9bbe3" d="M 48.472656 89.222656 C 45.566406 89.222656 42.992188 89.4375 40.753906 89.746094 C 40.609375 91.15625 40.609375 92.539062 40.941406 93.613281 C 40.0625 92.347656 39.679688 91.082031 39.609375 89.9375 C 35.652344 90.605469 32.890625 91.585938 31.367188 92.230469 C 33.4375 95.546875 38.394531 100.464844 48.496094 100.464844 C 58.597656 100.464844 63.550781 95.523438 65.625 92.230469 C 63.101562 91.15625 57.308594 89.222656 48.472656 89.222656 Z M 48.472656 89.222656 " fill-opacity="1" fill-rule="nonzero"/><path fill="#355782" d="M 80.300781 80.34375 C 81.753906 95.808594 74.867188 98.578125 71.773438 104.542969 C 70.53125 101.25 71.320312 98.53125 71.320312 98.53125 C 67.746094 100.558594 64.601562 103.636719 62.171875 106.714844 C 59.621094 109.960938 57.859375 113.207031 57.214844 115.261719 C 55.117188 113.375 53.640625 109.390625 53.640625 109.390625 C 52.855469 113.542969 54.140625 117.769531 54.140625 117.769531 C 47.804688 113.613281 45.851562 103.421875 45.851562 103.421875 C 44.707031 108.625 47.28125 116.289062 48.636719 117.816406 C 43.085938 115.761719 35.128906 111.515625 28.9375 103.042969 C 27.148438 100.605469 25.503906 97.8125 24.097656 94.617188 C 22.3125 97.382812 22.3125 100.867188 22.3125 100.867188 C 18.738281 97.574219 15.355469 91.964844 16.476562 80.292969 C 12.808594 93.566406 17.761719 104.710938 26.027344 110.058594 C 26.027344 110.058594 24.957031 106.957031 25.027344 104.519531 C 25.21875 104.902344 25.433594 105.285156 25.648438 105.667969 C 35.628906 123.160156 58.167969 122.898438 58.167969 122.898438 C 58.167969 122.898438 60.457031 116.429688 64.671875 110.917969 C 65.792969 109.4375 67.054688 108.03125 68.4375 106.835938 C 68.4375 106.835938 68.292969 109.890625 70.558594 112.207031 C 73.203125 101.96875 84.445312 101.394531 80.300781 80.34375 Z M 80.300781 80.34375 " fill-opacity="1" fill-rule="nonzero"/><path fill="#355782" d="M 70.582031 24.992188 C 70.960938 28.476562 69.792969 33.058594 68.125 36.832031 C 71.867188 32.917969 73.605469 29.3125 73.773438 24.730469 C 79.015625 31.605469 78.371094 42.105469 76.394531 48.359375 C 85.207031 32.652344 77.847656 17.308594 65.863281 10.289062 C 60.382812 29.933594 34.820312 18.8125 27.910156 29.933594 C 27.792969 27.449219 28.792969 24.394531 28.792969 24.394531 C 21.382812 28.167969 16.667969 38.382812 20.453125 48.359375 C 20.453125 48.359375 18.976562 37.429688 26.101562 29.242188 C 25.839844 30.53125 25.886719 33.371094 26.363281 35.136719 C 34.25 21.792969 53.714844 33.464844 65.671875 21.4375 C 64.050781 27.90625 59.097656 34.371094 54.070312 38.765625 C 60.550781 36.402344 68.246094 30.53125 70.582031 24.992188 " fill-opacity="1" fill-rule="nonzero"/><path fill="#241c1c" d="M 52.785156 75.355469 C 52.761719 75.378906 52.734375 75.378906 52.6875 75.402344 C 52.710938 75.378906 52.734375 75.378906 52.785156 75.355469 Z M 52.785156 75.355469 " fill-opacity="1" fill-rule="nonzero"/><path fill="#241c1c" d="M 52.949219 75.257812 C 52.925781 75.28125 52.878906 75.28125 52.855469 75.304688 C 52.878906 75.304688 52.902344 75.28125 52.949219 75.257812 Z M 52.949219 75.257812 " fill-opacity="1" fill-rule="nonzero"/><path fill="#241c1c" d="M 53.070312 75.210938 C 53.046875 75.210938 53.023438 75.234375 53 75.234375 C 53.023438 75.234375 53.046875 75.210938 53.070312 75.210938 Z M 53.070312 75.210938 " fill-opacity="1" fill-rule="nonzero"/><path fill="#241c1c" d="M 53.1875 75.140625 C 53.164062 75.140625 53.140625 75.164062 53.09375 75.1875 C 53.140625 75.164062 53.164062 75.164062 53.1875 75.140625 Z M 53.1875 75.140625 " fill-opacity="1" fill-rule="nonzero"/><path fill="#241c1c" d="M 53.425781 75.066406 C 53.425781 75.066406 53.402344 75.066406 53.378906 75.089844 C 53.402344 75.066406 53.425781 75.066406 53.425781 75.066406 Z M 53.425781 75.066406 " fill-opacity="1" fill-rule="nonzero"/><path fill="#241c1c" d="M 52.785156 75.355469 C 52.761719 75.378906 52.734375 75.378906 52.6875 75.402344 C 52.710938 75.378906 52.734375 75.378906 52.785156 75.355469 Z M 52.785156 75.355469 " fill-opacity="1" fill-rule="nonzero"/><path fill="#241c1c" d="M 52.949219 75.257812 C 52.925781 75.28125 52.878906 75.28125 52.855469 75.304688 C 52.878906 75.304688 52.902344 75.28125 52.949219 75.257812 Z M 52.949219 75.257812 " fill-opacity="1" fill-rule="nonzero"/><path fill="#241c1c" d="M 53.070312 75.210938 C 53.046875 75.210938 53.023438 75.234375 53 75.234375 C 53.023438 75.234375 53.046875 75.210938 53.070312 75.210938 Z M 53.070312 75.210938 " fill-opacity="1" fill-rule="nonzero"/><path fill="#241c1c" d="M 53.1875 75.140625 C 53.164062 75.140625 53.140625 75.164062 53.09375 75.1875 C 53.140625 75.164062 53.164062 75.164062 53.1875 75.140625 Z M 53.1875 75.140625 " fill-opacity="1" fill-rule="nonzero"/><path fill="#241c1c" d="M 53.425781 75.066406 C 53.425781 75.066406 53.402344 75.066406 53.378906 75.089844 C 53.402344 75.066406 53.425781 75.066406 53.425781 75.066406 Z M 53.425781 75.066406 " fill-opacity="1" fill-rule="nonzero"/></svg>