<svg xmlns="http://www.w3.org/2000/svg" xmlns:xlink="http://www.w3.org/1999/xlink" width="130" zoomAndPan="magnify" viewBox="0 0 97.5 131.999998" height="176" preserveAspectRatio="xMidYMid meet" version="1.0"><defs><clipPath id="9df4bdb9c6"><path d="M 6.34375 19.332031 L 90 19.332031 L 90 112.605469 L 6.34375 112.605469 Z M 6.34375 19.332031 " clip-rule="nonzero"/></clipPath></defs><g clip-path="url(#9df4bdb9c6)"><path fill="#1f7dd5" d="M 48 112.65625 C 70.96875 112.65625 89.648438 93.976562 89.648438 71.011719 C 89.648438 57.148438 82.800781 44.285156 71.300781 36.507812 C 71.507812 35.109375 71.886719 34.085938 72.1875 33.445312 L 73.085938 32.839844 C 73.195312 32.757812 73.300781 32.664062 73.394531 32.566406 C 73.734375 32.214844 74.03125 31.828125 74.285156 31.40625 C 74.808594 30.566406 74.828125 29.527344 74.332031 28.640625 C 73.851562 27.769531 72.921875 27.226562 71.910156 27.226562 C 66.964844 27.226562 61.964844 28.339844 57.429688 30.445312 C 56.769531 30.292969 56.109375 30.15625 55.457031 30.035156 C 55.09375 27.96875 55.238281 26.417969 55.410156 25.515625 C 55.835938 25.238281 56.1875 24.855469 56.417969 24.402344 C 56.648438 23.957031 56.835938 23.453125 56.972656 22.914062 C 57.238281 21.898438 56.9375 20.855469 56.175781 20.128906 C 55.636719 19.617188 54.9375 19.335938 54.203125 19.335938 C 53.914062 19.335938 53.625 19.378906 53.347656 19.46875 C 48.949219 20.820312 44.6875 23.027344 40.96875 25.875 C 40.863281 25.6875 40.777344 25.515625 40.710938 25.363281 C 40.78125 25.1875 40.832031 25.011719 40.867188 24.84375 C 40.910156 24.644531 40.929688 24.421875 40.925781 24.203125 C 40.921875 24.066406 40.910156 23.964844 40.898438 23.863281 L 40.882812 23.753906 C 40.828125 23.425781 40.753906 23.113281 40.652344 22.777344 C 40.609375 22.625 40.558594 22.476562 40.5 22.332031 C 40.328125 21.882812 40.078125 21.515625 39.757812 21.21875 C 39.238281 20.722656 38.53125 20.445312 37.78125 20.445312 C 37.640625 20.445312 37.503906 20.457031 37.367188 20.476562 C 36.925781 20.539062 36.496094 20.707031 36.132812 20.957031 C 35.992188 21.058594 35.792969 21.207031 35.613281 21.421875 L 35.609375 21.429688 C 35.566406 21.476562 35.503906 21.546875 35.4375 21.636719 L 34.980469 22.253906 C 33.824219 23.820312 32.769531 25.515625 31.835938 27.300781 C 31.824219 27.320312 31.8125 27.34375 31.800781 27.367188 C 30.554688 26.945312 29.417969 26.410156 28.421875 25.765625 C 27.703125 25.296875 27.179688 24.855469 26.820312 24.511719 C 26.828125 24.003906 26.699219 23.492188 26.4375 23.042969 C 26.183594 22.597656 25.863281 22.164062 25.488281 21.757812 C 24.945312 21.164062 24.203125 20.835938 23.394531 20.835938 C 23.171875 20.835938 22.949219 20.863281 22.726562 20.914062 C 21.699219 21.164062 20.914062 21.910156 20.628906 22.921875 C 19.097656 28.285156 18.742188 34.066406 19.585938 39.65625 C 19.257812 40.171875 18.976562 40.746094 18.730469 41.398438 C 10.75 49.277344 6.359375 59.785156 6.359375 71.015625 C 6.355469 93.976562 25.039062 112.65625 48 112.65625 Z M 48 112.65625 " fill-opacity="1" fill-rule="nonzero"/></g><path fill="#36e9fd" d="M 8.878906 71.011719 C 8.878906 89.910156 22.351562 105.722656 40.195312 109.355469 C 40.253906 108.746094 40.34375 108.148438 40.464844 107.570312 C 23.589844 103.976562 10.933594 88.984375 10.933594 71.039062 C 10.933594 62.335938 13.910156 54.328125 18.898438 47.980469 L 18.902344 47.976562 C 19.089844 46.710938 19.332031 45.453125 19.625 44.210938 C 19.640625 44.152344 19.652344 44.09375 19.667969 44.039062 C 12.699219 51.332031 8.878906 60.847656 8.878906 71.011719 Z M 19.003906 71.011719 L 16.921875 74.882812 C 16.453125 73.875 15.375 72.476562 13.015625 72.476562 L 12.375 72.476562 L 12.28125 71.011719 Z M 19.003906 71.011719 " fill-opacity="1" fill-rule="nonzero"/><path fill="#617f84" d="M 19.273438 54.199219 C 19.277344 53.835938 19.289062 53.46875 19.300781 53.101562 C 19.367188 51.636719 19.492188 50.179688 19.695312 48.726562 C 19.894531 47.28125 20.160156 45.835938 20.5 44.410156 C 20.632812 43.84375 20.777344 43.285156 20.953125 42.742188 L 20.988281 42.714844 L 20.988281 42.648438 C 21.023438 42.546875 21.058594 42.4375 21.09375 42.335938 C 21.34375 41.675781 21.65625 41.046875 22.085938 40.527344 C 22.507812 40.003906 23.050781 39.59375 23.671875 39.3125 C 24.292969 39.03125 24.972656 38.863281 25.671875 38.796875 C 26.953125 38.664062 28.269531 38.855469 29.601562 39.082031 C 29.539062 39.449219 29.476562 39.816406 29.425781 40.1875 C 29.367188 40.660156 29.300781 41.128906 29.269531 41.601562 C 29.25 42.074219 29.246094 42.550781 29.269531 43.023438 C 29.316406 43.5 29.378906 43.972656 29.503906 44.445312 C 29.667969 43.984375 29.777344 43.523438 29.871094 43.066406 C 29.972656 42.605469 30.054688 42.148438 30.117188 41.691406 C 30.191406 41.234375 30.25 40.777344 30.3125 40.320312 C 30.378906 39.859375 30.46875 39.40625 30.546875 38.953125 C 30.890625 37.136719 31.371094 35.347656 31.980469 33.601562 C 32.597656 31.863281 33.324219 30.160156 34.175781 28.519531 C 35.023438 26.878906 36 25.308594 37.085938 23.8125 L 37.488281 23.253906 L 37.539062 23.183594 C 37.558594 23.15625 37.558594 23.160156 37.566406 23.148438 C 37.582031 23.125 37.601562 23.113281 37.617188 23.101562 C 37.652344 23.074219 37.695312 23.058594 37.742188 23.050781 C 37.832031 23.035156 37.941406 23.0625 38.003906 23.121094 C 38.039062 23.152344 38.0625 23.1875 38.082031 23.234375 C 38.125 23.335938 38.160156 23.433594 38.191406 23.535156 C 38.257812 23.738281 38.308594 23.949219 38.347656 24.152344 L 38.359375 24.230469 C 38.359375 24.246094 38.363281 24.253906 38.363281 24.269531 C 38.363281 24.292969 38.363281 24.316406 38.359375 24.339844 C 38.355469 24.363281 38.347656 24.386719 38.335938 24.410156 C 38.320312 24.4375 38.320312 24.4375 38.285156 24.5 C 38.039062 24.902344 37.78125 25.300781 37.546875 25.710938 C 36.585938 27.339844 35.726562 29.027344 34.996094 30.765625 C 34.261719 32.507812 33.632812 34.289062 33.117188 36.101562 C 32.597656 37.910156 32.179688 39.761719 32.171875 41.660156 C 32.792969 39.871094 33.21875 38.070312 33.753906 36.289062 C 34.300781 34.511719 34.957031 32.773438 35.710938 31.078125 C 36.464844 29.390625 37.335938 27.761719 38.289062 26.183594 C 38.894531 27.597656 40.496094 30.425781 44.300781 33.054688 C 43.894531 33.367188 43.488281 33.679688 43.085938 33.996094 C 42.019531 34.832031 40.972656 35.691406 39.941406 36.582031 C 38.914062 37.464844 37.898438 38.363281 36.902344 39.285156 C 35.917969 40.222656 34.855469 41.078125 34.164062 42.308594 C 35.410156 41.652344 36.320312 40.660156 37.339844 39.777344 C 38.351562 38.878906 39.375 38 40.410156 37.140625 C 41.453125 36.285156 42.503906 35.4375 43.566406 34.609375 C 44.101562 34.199219 44.632812 33.789062 45.175781 33.386719 L 45.578125 33.085938 C 45.617188 33.054688 45.632812 33.046875 45.65625 33.035156 C 45.675781 33.015625 45.699219 33.007812 45.722656 32.996094 C 45.769531 32.976562 45.8125 32.960938 45.867188 32.953125 C 46.066406 32.917969 46.28125 32.996094 46.414062 33.144531 C 46.558594 33.304688 46.609375 33.515625 46.558594 33.714844 C 46.53125 33.8125 46.480469 33.902344 46.410156 33.976562 C 46.394531 34 46.375 34.015625 46.355469 34.03125 L 46.257812 34.109375 L 46.0625 34.269531 C 45.535156 34.699219 45.011719 35.132812 44.492188 35.570312 C 43.453125 36.4375 42.425781 37.328125 41.421875 38.242188 C 40.417969 39.152344 39.421875 40.074219 38.441406 41.011719 C 37.957031 41.480469 37.457031 41.9375 37 42.441406 C 36.542969 42.945312 36.109375 43.472656 35.75 44.070312 C 36.355469 43.71875 36.890625 43.300781 37.40625 42.867188 C 37.921875 42.425781 38.402344 41.949219 38.898438 41.496094 C 39.890625 40.578125 40.894531 39.679688 41.910156 38.792969 C 42.929688 37.910156 43.957031 37.035156 44.996094 36.171875 C 45.296875 35.921875 45.605469 35.671875 45.914062 35.421875 C 46.082031 36.925781 46.738281 40.265625 49.332031 43.917969 C 48.894531 44.003906 48.457031 44.097656 48.019531 44.183594 C 46.695312 44.4375 45.367188 44.679688 44.039062 44.90625 C 42.707031 45.132812 41.371094 45.335938 40.035156 45.523438 C 39.367188 45.621094 38.699219 45.691406 38.03125 45.8125 C 37.363281 45.9375 36.703125 46.085938 36.046875 46.328125 C 36.738281 46.429688 37.421875 46.433594 38.101562 46.398438 C 38.777344 46.359375 39.449219 46.265625 40.121094 46.1875 C 41.464844 46.023438 42.8125 45.835938 44.152344 45.636719 C 45.492188 45.433594 46.832031 45.210938 48.164062 44.953125 C 48.832031 44.828125 49.496094 44.699219 50.160156 44.5625 L 50.410156 44.511719 L 50.535156 44.488281 C 50.558594 44.488281 50.585938 44.480469 50.613281 44.480469 C 50.714844 44.472656 50.816406 44.492188 50.90625 44.53125 C 51.09375 44.617188 51.222656 44.789062 51.257812 45.003906 C 51.289062 45.199219 51.214844 45.421875 51.058594 45.550781 C 51.019531 45.585938 50.976562 45.609375 50.933594 45.632812 C 50.910156 45.640625 50.886719 45.65625 50.863281 45.660156 C 50.835938 45.667969 50.824219 45.675781 50.777344 45.6875 L 50.285156 45.808594 C 49.632812 45.972656 48.976562 46.125 48.320312 46.277344 C 47.003906 46.574219 45.6875 46.851562 44.363281 47.113281 C 43.042969 47.371094 41.710938 47.609375 40.378906 47.820312 C 39.050781 48.050781 37.703125 48.125 36.40625 48.671875 C 37.796875 48.917969 39.132812 48.636719 40.476562 48.46875 C 41.820312 48.28125 43.160156 48.070312 44.496094 47.832031 C 45.835938 47.601562 47.164062 47.332031 48.492188 47.039062 C 48.992188 46.929688 49.492188 46.8125 49.988281 46.695312 C 49.886719 48.113281 49.808594 51.890625 51.375 55.679688 C 49.589844 55.421875 47.816406 55.066406 46.070312 54.589844 C 44.28125 54.101562 42.519531 53.507812 40.800781 52.800781 C 39.085938 52.089844 37.421875 51.277344 35.640625 50.625 C 37.121094 51.820312 38.816406 52.671875 40.542969 53.417969 C 42.273438 54.167969 44.050781 54.808594 45.859375 55.34375 C 47.671875 55.882812 49.523438 56.285156 51.390625 56.574219 C 51.855469 56.652344 52.328125 56.703125 52.796875 56.769531 C 52.871094 56.777344 52.871094 56.777344 52.902344 56.785156 C 52.925781 56.792969 52.945312 56.800781 52.96875 56.8125 C 52.988281 56.824219 53.007812 56.839844 53.027344 56.855469 C 53.035156 56.863281 53.046875 56.871094 53.050781 56.878906 L 53.101562 56.9375 C 53.242188 57.097656 53.367188 57.269531 53.480469 57.449219 C 53.542969 57.539062 53.59375 57.628906 53.648438 57.726562 C 53.667969 57.769531 53.683594 57.8125 53.683594 57.855469 C 53.691406 57.941406 53.644531 58.042969 53.574219 58.105469 C 53.539062 58.132812 53.5 58.160156 53.457031 58.167969 C 53.433594 58.171875 53.414062 58.179688 53.390625 58.175781 C 53.371094 58.175781 53.375 58.179688 53.34375 58.175781 L 53.257812 58.171875 L 52.566406 58.128906 C 50.722656 58.023438 48.886719 57.78125 47.078125 57.398438 C 45.269531 57.019531 43.496094 56.5 41.757812 55.875 C 40.023438 55.242188 38.332031 54.480469 36.707031 53.597656 C 36.308594 53.367188 35.902344 53.148438 35.503906 52.910156 C 35.109375 52.667969 34.714844 52.425781 34.316406 52.191406 C 33.925781 51.949219 33.515625 51.726562 33.097656 51.511719 C 32.6875 51.289062 32.261719 51.085938 31.796875 50.921875 C 32.085938 51.316406 32.410156 51.664062 32.753906 52 C 33.101562 52.324219 33.472656 52.621094 33.851562 52.90625 C 34.238281 53.179688 34.644531 53.421875 35.042969 53.679688 C 35.445312 53.925781 35.863281 54.152344 36.273438 54.394531 C 37.433594 55.039062 38.632812 55.625 39.855469 56.148438 C 39.140625 57.109375 37.664062 59.367188 37.398438 62.003906 C 37.3125 62.835938 37.246094 63.957031 37.175781 65.144531 C 36.972656 68.4375 36.707031 72.886719 35.855469 74.410156 C 34.609375 74.121094 32.824219 73.652344 31.820312 73.121094 C 31.824219 73.082031 31.828125 73.042969 31.832031 73.003906 C 31.914062 72.273438 31.992188 71.535156 32.0625 70.792969 C 32.125 70.046875 32.171875 69.304688 32.199219 68.558594 C 32.230469 67.8125 32.238281 67.082031 32.285156 66.359375 C 32.335938 65.636719 32.417969 64.917969 32.574219 64.222656 C 32.882812 62.832031 33.425781 61.492188 34.40625 60.359375 C 33.757812 60.738281 33.214844 61.308594 32.800781 61.949219 C 32.585938 62.269531 32.417969 62.617188 32.257812 62.964844 C 32.109375 63.320312 31.984375 63.683594 31.882812 64.054688 C 31.496094 65.535156 31.410156 67.054688 31.34375 68.523438 C 31.308594 69.253906 31.25 69.984375 31.179688 70.714844 C 31.117188 71.445312 31.035156 72.179688 30.960938 72.914062 C 30.882812 73.648438 30.808594 74.386719 30.738281 75.128906 C 30.707031 75.5 30.679688 75.871094 30.65625 76.242188 L 30.621094 76.800781 L 30.605469 77.082031 L 30.601562 77.121094 C 30.601562 77.128906 30.601562 77.140625 30.597656 77.148438 C 30.597656 77.164062 30.589844 77.179688 30.582031 77.195312 C 30.570312 77.226562 30.550781 77.25 30.53125 77.269531 C 30.527344 77.273438 30.519531 77.277344 30.515625 77.285156 L 30.507812 77.289062 L 30.480469 77.304688 L 30.378906 77.367188 C 30.3125 77.40625 30.238281 77.441406 30.167969 77.46875 C 30.097656 77.507812 30.019531 77.53125 29.945312 77.554688 C 29.644531 77.660156 29.316406 77.710938 28.988281 77.714844 C 28.335938 77.722656 27.667969 77.542969 27.089844 77.214844 C 26.519531 76.890625 26.027344 76.394531 25.640625 75.832031 C 25.25 75.269531 24.964844 74.621094 24.757812 73.953125 C 24.335938 72.609375 24.261719 71.148438 24.191406 69.675781 C 24.15625 68.941406 24.117188 68.1875 24.042969 67.441406 C 23.964844 66.695312 23.863281 65.9375 23.667969 65.1875 C 23.480469 64.441406 23.191406 63.699219 22.757812 63.023438 C 22.648438 62.855469 22.535156 62.691406 22.402344 62.539062 L 22.054688 62.109375 C 21.832031 61.832031 21.617188 61.542969 21.417969 61.246094 C 20.609375 60.0625 19.996094 58.753906 19.636719 57.375 C 19.457031 56.6875 19.34375 55.980469 19.296875 55.273438 C 19.285156 55.09375 19.273438 54.917969 19.273438 54.742188 C 19.265625 54.5625 19.265625 54.382812 19.273438 54.199219 Z M 26.445312 73.867188 C 26.589844 74.28125 26.863281 74.660156 27.195312 74.949219 C 27.523438 75.25 27.953125 75.414062 28.375 75.457031 C 28.207031 75.214844 28.046875 75.011719 27.902344 74.8125 C 28.207031 74.253906 28.84375 72.695312 26.824219 72.152344 C 26.761719 71.90625 26.691406 71.652344 26.609375 71.382812 C 26.378906 71.75 26.277344 72.171875 26.25 72.59375 C 26.230469 73.019531 26.292969 73.457031 26.445312 73.867188 Z M 23.546875 55.292969 C 23.578125 56.183594 23.714844 57.070312 23.957031 57.9375 C 24.203125 58.800781 24.5625 59.640625 25.058594 60.398438 C 25.304688 60.777344 25.597656 61.125 25.910156 61.449219 C 26.230469 61.761719 26.582031 62.046875 26.96875 62.269531 C 26.761719 61.976562 26.558594 61.691406 26.375 61.394531 C 26.585938 60.878906 27.152344 59.34375 27.246094 57.460938 C 27.34375 55.542969 24.929688 54.710938 24.09375 54.484375 C 23.992188 53.878906 23.890625 53.269531 23.796875 52.648438 C 23.566406 53.511719 23.519531 54.40625 23.546875 55.292969 Z M 16.378906 85.554688 C 18.347656 89.847656 21.164062 93.675781 24.636719 96.816406 C 24.761719 92.160156 25.585938 87.953125 26.984375 84.890625 C 28.871094 80.75 31.847656 78.558594 35.589844 78.558594 C 44.574219 78.558594 50.574219 89.832031 51.828125 92.410156 C 52.828125 91.621094 53.828125 90.863281 54.789062 90.132812 C 56.273438 89.003906 57.675781 87.941406 58.90625 86.898438 C 59.617188 86.296875 60.324219 85.621094 61.015625 84.871094 C 60.597656 83.851562 58.828125 79.835938 55.535156 75.886719 C 50.574219 69.941406 44.65625 66.90625 37.929688 66.859375 C 37.730469 69.9375 37.449219 73.035156 36.722656 74.601562 C 37.035156 74.667969 37.230469 74.703125 37.238281 74.707031 L 38.234375 74.894531 L 37.414062 75.484375 C 35.804688 76.648438 33.550781 76.847656 32.195312 76.847656 C 31.914062 76.847656 31.675781 76.839844 31.484375 76.828125 L 31.484375 76.847656 L 31.46875 77.121094 L 31.460938 77.21875 C 31.457031 77.257812 31.449219 77.292969 31.445312 77.328125 C 31.425781 77.402344 31.40625 77.472656 31.375 77.542969 C 31.3125 77.683594 31.222656 77.8125 31.109375 77.914062 C 31.082031 77.941406 31.046875 77.964844 31.015625 77.992188 L 30.96875 78.023438 L 30.933594 78.042969 L 30.796875 78.125 C 30.703125 78.179688 30.609375 78.222656 30.511719 78.265625 C 30.414062 78.3125 30.316406 78.347656 30.21875 78.382812 C 29.820312 78.519531 29.402344 78.582031 28.992188 78.585938 C 28.167969 78.59375 27.363281 78.375 26.652344 77.976562 C 25.933594 77.566406 25.363281 76.980469 24.914062 76.328125 C 24.460938 75.675781 24.144531 74.953125 23.914062 74.214844 C 23.515625 72.9375 23.410156 71.625 23.339844 70.347656 C 21.761719 72.289062 17.925781 77.660156 16.378906 85.554688 Z M 58.925781 32.535156 C 59.636719 32.738281 60.335938 32.957031 61.027344 33.199219 C 64.21875 32.007812 67.488281 31.25 70.742188 30.9375 L 70.769531 30.902344 L 70.988281 30.902344 L 70.988281 30.910156 C 71.125 30.898438 71.261719 30.886719 71.402344 30.875 L 71.4375 30.871094 C 71.496094 30.867188 71.550781 30.84375 71.589844 30.800781 C 71.785156 30.601562 71.964844 30.367188 72.125 30.097656 C 72.1875 29.996094 72.148438 29.902344 72.128906 29.867188 C 72.109375 29.828125 72.039062 29.742188 71.90625 29.742188 C 67.476562 29.746094 63.011719 30.707031 58.925781 32.535156 Z M 41.109375 28.996094 C 41.460938 29.414062 41.859375 29.847656 42.316406 30.292969 C 45.921875 27.367188 49.84375 25.050781 53.988281 23.417969 C 54.066406 23.390625 54.128906 23.332031 54.167969 23.257812 C 54.320312 22.960938 54.441406 22.632812 54.53125 22.28125 C 54.574219 22.109375 54.476562 21.996094 54.433594 21.949219 C 54.390625 21.910156 54.269531 21.816406 54.09375 21.871094 C 49.386719 23.320312 44.910156 25.78125 41.109375 28.996094 Z M 44.417969 32.046875 C 44.617188 32.195312 44.828125 32.339844 45.042969 32.484375 L 45.097656 32.441406 C 45.125 32.417969 45.183594 32.378906 45.230469 32.347656 C 45.277344 32.316406 45.335938 32.289062 45.386719 32.265625 C 45.496094 32.21875 45.609375 32.179688 45.726562 32.160156 C 46.191406 32.070312 46.699219 32.242188 47.015625 32.601562 C 47.328125 32.941406 47.460938 33.464844 47.332031 33.917969 C 47.273438 34.148438 47.148438 34.363281 46.984375 34.53125 C 46.945312 34.574219 46.898438 34.609375 46.855469 34.652344 L 46.757812 34.730469 L 46.75 34.734375 C 46.785156 35.40625 47.039062 38.269531 48.960938 41.675781 C 49.984375 41.726562 53.871094 42.03125 58.5 43.808594 C 63.402344 45.6875 70.050781 49.640625 73.929688 57.8125 C 77.21875 64.746094 77.621094 72.398438 75.117188 80.554688 C 72.558594 88.902344 67.921875 94.554688 66.5625 96.089844 C 60.164062 103.3125 57.804688 107.492188 57.039062 109.082031 C 74.269531 104.992188 87.128906 89.476562 87.128906 71.011719 C 87.128906 49.4375 69.574219 31.886719 48.003906 31.886719 C 46.804688 31.886719 45.605469 31.941406 44.417969 32.046875 Z M 44.417969 32.046875 " fill-opacity="1" fill-rule="nonzero"/><path fill="#bcc7ce" d="M 31.699219 101.761719 C 31.675781 101.023438 31.671875 100.234375 31.6875 99.414062 C 29.675781 99.289062 27.871094 98.832031 26.433594 98.335938 C 28.070312 99.625 29.832031 100.773438 31.699219 101.761719 Z M 26.074219 91.039062 C 27.605469 91.84375 29.789062 92.757812 32.359375 93.152344 C 31.96875 94.84375 31.78125 96.734375 31.714844 98.546875 C 29.183594 98.382812 26.992188 97.675781 25.496094 97.054688 C 25.535156 95.570312 25.667969 93.378906 26.074219 91.039062 Z M 29.023438 83 C 29.984375 84.832031 31.5625 87.183594 33.96875 89.132812 C 33.5 89.867188 33.070312 90.757812 32.71875 91.847656 C 32.671875 92 32.625 92.152344 32.578125 92.308594 C 29.953125 91.917969 27.734375 90.957031 26.242188 90.144531 C 26.757812 87.621094 27.609375 85.011719 29.023438 83 Z M 35.589844 79.429688 C 35.792969 79.429688 35.992188 79.4375 36.191406 79.449219 C 36.058594 80.78125 36.050781 82.597656 36.554688 84.546875 C 36.539062 84.542969 36.527344 84.535156 36.511719 84.53125 C 36.320312 84.464844 36.132812 84.390625 35.9375 84.324219 L 35.351562 84.160156 C 35.15625 84.101562 34.957031 84.058594 34.757812 84.019531 C 34.558594 83.984375 34.359375 83.949219 34.160156 83.914062 C 34.894531 84.261719 35.625 84.566406 36.320312 84.953125 C 36.460938 85.019531 36.59375 85.09375 36.726562 85.167969 C 36.734375 85.1875 36.738281 85.203125 36.746094 85.222656 L 36.800781 85.207031 C 36.984375 85.316406 37.171875 85.421875 37.359375 85.523438 C 37.589844 85.671875 37.832031 85.8125 38.0625 85.960938 C 37.136719 86.199219 35.71875 86.816406 34.464844 88.421875 C 32.042969 86.4375 30.503906 84.023438 29.609375 82.238281 C 31.042969 80.542969 32.984375 79.429688 35.589844 79.429688 Z M 37.054688 79.539062 C 39.410156 79.902344 41.546875 81.09375 43.402344 82.636719 C 42.511719 83.667969 41.441406 85.175781 40.75 87.085938 C 40.214844 86.644531 39.65625 86.230469 39.074219 85.855469 L 39.074219 85.8125 L 39.007812 85.8125 C 38.90625 85.746094 38.804688 85.679688 38.699219 85.617188 C 38.359375 85.390625 37.988281 85.214844 37.632812 85.019531 C 37.601562 85.003906 37.570312 84.988281 37.539062 84.972656 L 37.574219 84.960938 C 36.921875 82.898438 36.914062 80.941406 37.054688 79.539062 Z M 44.058594 83.210938 C 45.761719 84.757812 47.210938 86.566406 48.347656 88.222656 C 47.238281 88.90625 45.835938 89.957031 44.632812 91.460938 C 44.441406 91.171875 44.242188 90.890625 44.039062 90.609375 C 43.796875 90.277344 43.542969 89.957031 43.285156 89.640625 C 43.019531 89.328125 42.757812 89.015625 42.476562 88.722656 C 42.148438 88.371094 41.804688 88.03125 41.449219 87.707031 C 42.097656 85.765625 43.167969 84.234375 44.058594 83.210938 Z M 48.832031 88.941406 C 50.035156 90.785156 50.828125 92.339844 51.132812 92.96875 C 49.78125 94.058594 48.4375 95.214844 47.175781 96.453125 C 46.980469 95.894531 46.753906 95.359375 46.511719 94.824219 C 46.171875 94.078125 45.800781 93.355469 45.382812 92.652344 C 45.300781 92.511719 45.214844 92.375 45.132812 92.238281 C 46.304688 90.6875 47.722656 89.617188 48.832031 88.941406 Z M 43.382812 102.464844 C 47.203125 106.199219 50.609375 108.460938 53.097656 109.800781 C 51.429688 110.019531 49.726562 110.136719 48 110.136719 C 45.628906 110.136719 43.304688 109.921875 41.050781 109.515625 C 41.277344 106.902344 42.128906 104.578125 43.382812 102.464844 Z M 48.972656 95.933594 C 53.242188 100.003906 56.96875 102.25 59.492188 103.453125 C 57.105469 106.792969 56.234375 108.679688 55.976562 109.316406 C 55.511719 109.414062 55.039062 109.5 54.566406 109.582031 C 52.070312 108.367188 48.238281 106.027344 43.855469 101.710938 C 45.238281 99.589844 47.023438 97.691406 48.972656 95.933594 Z M 55.316406 90.824219 C 55.394531 90.761719 55.472656 90.703125 55.550781 90.644531 C 58.511719 93.390625 61.519531 95.574219 64.496094 97.132812 C 62.636719 99.304688 61.167969 101.164062 60.011719 102.738281 C 57.558594 101.585938 53.875 99.394531 49.621094 95.351562 C 51.464844 93.746094 53.425781 92.257812 55.316406 90.824219 Z M 59.472656 87.558594 C 60.183594 86.957031 60.875 86.292969 61.539062 85.585938 C 64.351562 87.53125 67.132812 89.054688 69.832031 90.109375 C 68.507812 92.296875 67.136719 94.132812 65.914062 95.515625 C 65.625 95.835938 65.351562 96.148438 65.082031 96.460938 C 62.148438 94.949219 59.179688 92.8125 56.25 90.113281 C 57.398438 89.234375 58.484375 88.394531 59.472656 87.558594 Z M 65.292969 80.632812 C 68.5625 82.453125 71.234375 83.289062 73.054688 83.671875 C 72.226562 85.726562 71.273438 87.636719 70.277344 89.351562 C 67.632812 88.328125 64.894531 86.847656 62.128906 84.941406 C 63.292969 83.621094 64.363281 82.164062 65.292969 80.632812 Z M 67.703125 75.648438 C 67.730469 75.570312 67.757812 75.484375 67.789062 75.402344 C 70.933594 76.539062 73.417969 76.921875 75.097656 77.023438 C 74.667969 79.050781 74.074219 81.007812 73.375 82.851562 C 71.625 82.5 68.988281 81.695312 65.730469 79.886719 C 66.515625 78.503906 67.183594 77.078125 67.703125 75.648438 Z M 68.988281 69.800781 C 69.242188 69.804688 69.488281 69.808594 69.730469 69.808594 C 72.367188 69.808594 74.402344 69.488281 75.800781 69.15625 C 75.886719 71.550781 75.683594 73.898438 75.261719 76.164062 C 73.644531 76.078125 71.195312 75.714844 68.058594 74.578125 C 68.503906 73.152344 68.863281 71.53125 68.988281 69.800781 Z M 68.234375 63.3125 C 70.5 62.746094 72.542969 61.996094 74.324219 61.082031 C 75.148438 63.488281 75.597656 65.898438 75.757812 68.273438 C 74.292969 68.632812 72.039062 68.996094 69.035156 68.929688 C 69.085938 67.132812 68.867188 65.230469 68.234375 63.3125 Z M 70.25 53.441406 C 71.320312 54.832031 72.300781 56.402344 73.144531 58.183594 C 73.476562 58.871094 73.765625 59.5625 74.027344 60.257812 C 72.261719 61.175781 70.21875 61.929688 67.9375 62.492188 C 67.667969 61.808594 67.339844 61.121094 66.953125 60.441406 C 66.371094 59.421875 65.726562 58.5 65.046875 57.65625 C 67.53125 56.082031 69.207031 54.5625 70.25 53.441406 Z M 63.285156 47.152344 C 65.484375 48.527344 67.71875 50.347656 69.703125 52.753906 C 68.6875 53.855469 67.015625 55.390625 64.476562 56.988281 C 63.046875 55.375 61.46875 54.09375 59.902344 53.085938 C 61.671875 50.671875 62.703125 48.605469 63.285156 47.152344 Z M 55.402344 43.691406 C 56.296875 43.945312 57.242188 44.253906 58.21875 44.628906 C 59.558594 45.144531 61.027344 45.816406 62.539062 46.699219 C 61.976562 48.113281 60.964844 50.1875 59.164062 52.628906 C 57.550781 51.667969 55.976562 50.988281 54.625 50.511719 C 55.179688 48.085938 55.441406 45.796875 55.402344 43.691406 Z M 54.527344 43.453125 C 54.59375 45.535156 54.347656 47.8125 53.796875 50.234375 C 52.453125 49.8125 51.410156 49.601562 50.886719 49.507812 C 50.789062 48.0625 50.859375 46.949219 50.898438 46.476562 L 50.96875 46.457031 C 51.003906 46.453125 51.070312 46.433594 51.125 46.414062 C 51.179688 46.398438 51.234375 46.371094 51.289062 46.347656 C 51.394531 46.292969 51.496094 46.230469 51.585938 46.152344 C 51.945312 45.847656 52.136719 45.347656 52.058594 44.875 C 51.996094 44.417969 51.675781 43.980469 51.242188 43.792969 C 51.027344 43.695312 50.785156 43.652344 50.550781 43.671875 C 50.488281 43.675781 50.433594 43.6875 50.375 43.699219 L 50.289062 43.714844 C 50.007812 43.335938 49.75 42.960938 49.511719 42.585938 C 50.496094 42.671875 52.304688 42.890625 54.527344 43.453125 Z M 52.960938 24.785156 C 52.703125 25.976562 52.4375 28.265625 53.128906 31.34375 C 51.449219 31.128906 49.738281 31.015625 48.003906 31.015625 C 46.472656 31.015625 44.933594 31.105469 43.425781 31.28125 C 43.265625 31.148438 43.113281 31.015625 42.960938 30.886719 C 46.074219 28.371094 49.429688 26.324219 52.960938 24.785156 Z M 70.140625 31.875 C 69.652344 32.777344 68.949219 34.433594 68.699219 36.800781 C 66.675781 35.574219 64.539062 34.523438 62.300781 33.664062 C 64.886719 32.777344 67.515625 32.179688 70.140625 31.875 Z M 38.476562 25.3125 C 40.5625 30.238281 44.789062 33.035156 44.789062 33.035156 L 34.160156 42.308594 C 33.347656 41.867188 32.167969 41.660156 32.167969 41.660156 C 33.488281 31.804688 38.476562 25.3125 38.476562 25.3125 Z M 35.75 44.066406 L 46.121094 34.59375 C 46.121094 34.59375 47.199219 40.464844 49.859375 44.066406 L 36.050781 46.320312 Z M 50.484375 46.203125 C 49.351562 50.847656 52.023438 56.214844 52.023438 56.214844 C 44.167969 55.648438 35.640625 50.621094 35.640625 50.621094 L 36.402344 48.667969 Z M 87.128906 77.714844 C 81.835938 101.367188 64.496094 106.484375 64.496094 106.484375 C 81.964844 96.195312 81.664062 65.996094 81.664062 65.996094 C 83.363281 71.382812 83.589844 77.714844 83.589844 77.714844 C 88.230469 55.976562 75.097656 42.808594 75.097656 42.808594 C 90.65625 54.292969 87.128906 77.714844 87.128906 77.714844 Z M 42.445312 75.457031 C 43.039062 72.992188 42.960938 71.890625 42.960938 71.890625 C 47.039062 72.910156 49.507812 74.644531 49.507812 74.644531 C 47.144531 71.800781 42.445312 69.15625 42.445312 69.15625 C 53.457031 71.457031 58.925781 84.183594 58.925781 84.183594 C 52.144531 75.769531 42.445312 75.457031 42.445312 75.457031 Z M 25.667969 38.796875 C 25.667969 38.796875 22.300781 40.011719 21.902344 44.066406 C 21.503906 48.121094 21.222656 53.441406 21.222656 53.441406 C 21.222656 53.441406 21.730469 50.859375 22.863281 48.160156 C 22.863281 48.160156 20.953125 59.007812 23.179688 63.808594 L 20.316406 60.457031 L 18.84375 55.589844 L 19.265625 48.515625 L 20.996094 41.101562 L 22.863281 38.792969 L 25.667969 38.792969 Z M 25.230469 79.371094 C 23.832031 81.421875 22.800781 83.777344 22.394531 86.226562 C 23.160156 84.933594 24.035156 83.863281 25.375 83.175781 C 23.996094 85.929688 23.074219 89.113281 23.167969 92.183594 C 21.578125 89.875 20.050781 87.308594 19.003906 84.707031 C 19.515625 81.332031 20.710938 78.058594 22.492188 75.148438 C 23.132812 76.863281 23.910156 78.101562 25.230469 79.371094 Z M 31.605469 75.203125 C 31.640625 74.816406 31.679688 74.425781 31.722656 74.035156 C 32.933594 74.59375 34.761719 75.054688 35.941406 75.316406 C 34.328125 76.003906 32.386719 76 31.546875 75.957031 C 31.5625 75.707031 31.582031 75.457031 31.605469 75.203125 Z M 31.605469 75.203125 " fill-opacity="1" fill-rule="nonzero"/><path fill="#1f7dd5" d="M 10.933594 71.039062 C 10.933594 88.980469 23.589844 103.972656 40.460938 107.570312 C 40.578125 107.015625 40.71875 106.476562 40.886719 105.949219 C 33.34375 104.410156 26.386719 100.378906 21.253906 94.5625 C 15.96875 88.566406 12.824219 80.882812 12.398438 72.933594 L 12.375 72.476562 L 12.28125 71.011719 L 19.003906 71.011719 L 16.921875 67.136719 C 16.453125 68.144531 15.375 69.542969 13.019531 69.542969 L 12.375 69.542969 L 12.402344 69.082031 C 12.75 62.585938 14.871094 56.316406 18.546875 50.941406 C 18.613281 50.160156 18.699219 49.378906 18.804688 48.605469 C 18.832031 48.394531 18.863281 48.183594 18.894531 47.976562 C 13.910156 54.328125 10.933594 62.332031 10.933594 71.039062 Z M 10.933594 71.039062 " fill-opacity="1" fill-rule="nonzero"/><path fill="#071e52" d="M 19.988281 42.195312 L 20.003906 42.15625 C 20.027344 42.089844 20.046875 42.023438 20.074219 41.953125 C 20.363281 41.179688 20.707031 40.539062 21.117188 40.003906 C 20.1875 34.441406 20.5 28.671875 22.027344 23.316406 C 22.167969 22.820312 22.554688 22.449219 23.058594 22.328125 C 23.171875 22.304688 23.28125 22.289062 23.390625 22.289062 C 23.785156 22.289062 24.148438 22.449219 24.414062 22.742188 C 24.714844 23.066406 24.972656 23.414062 25.171875 23.761719 C 25.34375 24.0625 25.402344 24.414062 25.332031 24.746094 L 25.28125 25.007812 C 25.59375 25.367188 26.347656 26.152344 27.628906 26.980469 C 29.050781 27.898438 30.703125 28.617188 32.550781 29.109375 C 32.734375 28.734375 32.921875 28.351562 33.125 27.972656 C 34.023438 26.253906 35.039062 24.621094 36.144531 23.121094 L 36.621094 22.480469 C 36.636719 22.457031 36.664062 22.425781 36.691406 22.398438 L 36.710938 22.371094 C 36.792969 22.277344 36.890625 22.203125 36.960938 22.152344 C 37.140625 22.03125 37.347656 21.945312 37.566406 21.914062 C 37.636719 21.90625 37.707031 21.902344 37.777344 21.902344 C 38.152344 21.902344 38.503906 22.039062 38.765625 22.289062 C 38.917969 22.429688 39.046875 22.617188 39.128906 22.828125 C 39.171875 22.949219 39.214844 23.074219 39.253906 23.195312 C 39.335938 23.46875 39.394531 23.71875 39.4375 23.972656 L 39.449219 24.070312 C 39.457031 24.121094 39.460938 24.175781 39.464844 24.230469 C 39.464844 24.339844 39.457031 24.449219 39.433594 24.546875 C 39.414062 24.644531 39.382812 24.746094 39.335938 24.855469 C 39.300781 24.9375 39.238281 25.03125 39.191406 25.105469 C 39.15625 25.160156 39.121094 25.214844 39.085938 25.265625 C 39.253906 25.730469 39.6875 26.753906 40.601562 28.023438 C 44.476562 24.796875 49.027344 22.320312 53.78125 20.855469 C 53.917969 20.8125 54.058594 20.789062 54.203125 20.789062 C 54.558594 20.789062 54.902344 20.929688 55.167969 21.183594 C 55.542969 21.539062 55.6875 22.050781 55.5625 22.542969 C 55.449219 22.980469 55.300781 23.382812 55.117188 23.738281 C 54.960938 24.042969 54.699219 24.285156 54.375 24.410156 C 54.300781 24.441406 54.226562 24.46875 54.144531 24.503906 C 53.921875 25.300781 53.394531 27.769531 54.230469 31.304688 C 55.324219 31.476562 56.453125 31.699219 57.589844 31.980469 C 62.054688 29.820312 67.003906 28.679688 71.910156 28.679688 C 72.390625 28.679688 72.832031 28.9375 73.058594 29.347656 C 73.292969 29.765625 73.28125 30.253906 73.035156 30.652344 C 72.839844 30.976562 72.609375 31.277344 72.351562 31.542969 C 72.15625 31.742188 71.902344 31.875 71.625 31.917969 L 71.320312 31.984375 C 70.949219 32.574219 69.992188 34.347656 69.75 37.226562 C 81.300781 44.6875 88.191406 57.308594 88.191406 71.011719 C 88.191406 93.171875 70.160156 111.203125 48 111.203125 C 25.839844 111.203125 7.8125 93.171875 7.8125 71.011719 C 7.8125 60.058594 12.136719 49.828125 19.988281 42.195312 Z M 38.339844 26.773438 C 37.484375 29.332031 36.730469 31.941406 36.089844 34.546875 C 36.785156 33.476562 37.652344 32.417969 38.578125 31.515625 L 39.117188 30.996094 L 38.90625 31.714844 C 38.550781 32.917969 38.417969 34.242188 38.519531 35.539062 L 38.527344 35.636719 L 38.457031 35.703125 C 37.792969 36.308594 37.164062 36.863281 36.550781 37.402344 C 35.199219 38.597656 32.167969 41.664062 32.167969 41.664062 C 32.179688 39.621094 32.460938 37.675781 32.925781 36.046875 C 33.433594 34.261719 34.066406 32.460938 34.8125 30.691406 C 35.523438 28.996094 36.386719 27.285156 37.375 25.613281 C 37.527344 25.34375 37.691406 25.082031 37.851562 24.828125 C 37.941406 24.683594 38.03125 24.542969 38.117188 24.394531 C 38.148438 24.347656 38.148438 24.347656 38.160156 24.324219 C 38.160156 24.320312 38.164062 24.3125 38.167969 24.300781 L 38.167969 24.265625 L 38.164062 24.25 L 38.15625 24.1875 C 38.121094 23.988281 38.070312 23.789062 38.007812 23.597656 C 37.972656 23.496094 37.941406 23.402344 37.902344 23.308594 C 37.894531 23.289062 37.882812 23.273438 37.867188 23.257812 C 37.859375 23.25 37.832031 23.238281 37.796875 23.238281 C 37.789062 23.238281 37.78125 23.238281 37.769531 23.242188 C 37.761719 23.242188 37.75 23.246094 37.75 23.246094 C 37.75 23.246094 37.75 23.246094 37.75 23.242188 L 37.734375 23.253906 L 37.714844 23.277344 L 37.699219 23.292969 L 37.242188 23.921875 C 36.152344 25.425781 35.179688 27 34.351562 28.605469 C 33.527344 30.191406 32.792969 31.890625 32.167969 33.660156 C 31.5625 35.398438 31.082031 37.191406 30.738281 38.980469 C 30.714844 39.132812 30.6875 39.285156 30.660156 39.4375 C 30.605469 39.738281 30.550781 40.039062 30.507812 40.339844 C 30.449219 40.785156 30.382812 41.25 30.3125 41.710938 C 30.25 42.167969 30.171875 42.621094 30.0625 43.097656 C 29.953125 43.660156 29.835938 44.09375 29.6875 44.507812 L 29.46875 45.105469 L 29.3125 44.488281 C 29.203125 44.070312 29.128906 43.621094 29.074219 43.027344 C 29.050781 42.585938 29.050781 42.113281 29.074219 41.582031 C 29.097656 41.222656 29.140625 40.859375 29.1875 40.511719 C 29.203125 40.394531 29.21875 40.277344 29.234375 40.15625 C 29.277344 39.847656 29.328125 39.542969 29.378906 39.234375 C 28.460938 39.085938 27.492188 38.945312 26.546875 38.945312 C 26.25 38.945312 25.964844 38.957031 25.695312 38.984375 C 24.984375 39.058594 24.332031 39.226562 23.757812 39.488281 C 23.152344 39.761719 22.644531 40.148438 22.242188 40.648438 C 21.867188 41.097656 21.550781 41.671875 21.285156 42.394531 C 21.265625 42.445312 21.199219 42.632812 21.1875 42.675781 L 21.128906 42.847656 C 20.980469 43.320312 20.835938 43.847656 20.699219 44.453125 C 20.367188 45.84375 20.097656 47.289062 19.894531 48.75 C 19.699219 50.15625 19.570312 51.621094 19.503906 53.101562 L 19.503906 53.125 C 19.492188 53.484375 19.480469 53.839844 19.476562 54.199219 C 19.46875 54.382812 19.472656 54.554688 19.472656 54.730469 C 19.472656 54.90625 19.484375 55.082031 19.496094 55.25 C 19.542969 55.941406 19.652344 56.636719 19.832031 57.316406 C 20.175781 58.644531 20.765625 59.925781 21.582031 61.128906 C 21.769531 61.40625 21.972656 61.683594 22.210938 61.980469 L 22.554688 62.402344 C 22.6875 62.5625 22.796875 62.722656 22.925781 62.910156 C 23.332031 63.546875 23.644531 64.296875 23.859375 65.132812 C 24.070312 65.96875 24.171875 66.789062 24.234375 67.414062 C 24.3125 68.167969 24.351562 68.9375 24.386719 69.660156 C 24.457031 71.085938 24.527344 72.554688 24.941406 73.886719 C 25.167969 74.597656 25.457031 75.214844 25.800781 75.714844 C 26.195312 76.289062 26.675781 76.746094 27.183594 77.039062 C 27.726562 77.34375 28.355469 77.511719 28.953125 77.511719 L 28.984375 77.511719 C 29.304688 77.507812 29.605469 77.457031 29.882812 77.363281 C 29.957031 77.339844 30.019531 77.316406 30.085938 77.28125 C 30.144531 77.257812 30.210938 77.230469 30.277344 77.191406 L 30.375 77.132812 L 30.402344 77.117188 L 30.410156 77.070312 L 30.421875 76.785156 L 30.460938 76.226562 C 30.484375 75.847656 30.511719 75.472656 30.542969 75.105469 C 30.605469 74.382812 30.679688 73.675781 30.765625 72.890625 L 30.800781 72.550781 C 30.863281 71.941406 30.929688 71.308594 30.984375 70.691406 C 31.066406 69.847656 31.117188 69.15625 31.148438 68.511719 C 31.214844 66.972656 31.308594 65.464844 31.691406 63.996094 C 31.796875 63.621094 31.921875 63.246094 32.078125 62.878906 C 32.210938 62.582031 32.394531 62.199219 32.632812 61.839844 C 33.09375 61.125 34.03125 60.523438 34.667969 60.152344 C 34.667969 60.152344 33.109375 62.710938 32.765625 64.257812 C 32.664062 64.722656 32.582031 65.226562 32.527344 65.800781 C 32.617188 66.214844 33.449219 70.152344 33.425781 72.535156 C 33.738281 72.699219 34.75 73.191406 36.027344 73.425781 C 36.59375 71.472656 36.816406 67.820312 36.980469 65.125 L 36.984375 65.09375 C 37.054688 63.914062 37.121094 62.804688 37.207031 61.972656 C 37.457031 59.5 38.726562 57.375 39.554688 56.21875 C 38.386719 55.710938 37.25 55.152344 36.179688 54.554688 C 36.023438 54.460938 35.871094 54.375 35.71875 54.289062 C 35.464844 54.140625 35.203125 53.992188 34.945312 53.832031 C 34.828125 53.757812 34.710938 53.683594 34.59375 53.613281 C 34.3125 53.433594 34.019531 53.253906 33.742188 53.054688 C 33.300781 52.722656 32.941406 52.429688 32.621094 52.132812 C 32.203125 51.722656 31.902344 51.378906 31.644531 51.027344 L 31.269531 50.519531 L 31.871094 50.726562 C 32.28125 50.875 32.695312 51.058594 33.195312 51.328125 C 33.632812 51.546875 34.046875 51.777344 34.425781 52.011719 C 34.828125 52.246094 35.238281 52.496094 35.613281 52.730469 C 35.871094 52.882812 36.132812 53.03125 36.386719 53.175781 C 36.53125 53.253906 36.671875 53.335938 36.8125 53.414062 C 38.417969 54.289062 40.109375 55.050781 41.832031 55.675781 C 43.617188 56.320312 45.398438 56.832031 47.128906 57.195312 C 48.910156 57.570312 50.746094 57.816406 52.585938 57.921875 L 53.28125 57.960938 L 53.351562 57.96875 C 53.359375 57.96875 53.371094 57.964844 53.386719 57.964844 C 53.390625 57.964844 53.394531 57.964844 53.398438 57.964844 L 53.425781 57.960938 C 53.425781 57.960938 53.4375 57.957031 53.457031 57.941406 C 53.484375 57.914062 53.5 57.875 53.496094 57.851562 C 53.496094 57.84375 53.492188 57.828125 53.484375 57.804688 C 53.433594 57.714844 53.382812 57.625 53.328125 57.539062 C 53.207031 57.359375 53.085938 57.195312 52.964844 57.050781 L 52.902344 56.980469 C 52.898438 56.976562 52.890625 56.972656 52.886719 56.972656 L 52.855469 56.957031 C 52.835938 56.949219 52.835938 56.949219 52.78125 56.945312 C 52.617188 56.921875 52.453125 56.902344 52.292969 56.878906 C 51.988281 56.839844 51.675781 56.800781 51.371094 56.75 C 49.453125 56.453125 47.585938 56.035156 45.816406 55.511719 C 43.976562 54.96875 42.183594 54.316406 40.476562 53.578125 C 38.925781 52.90625 37.246094 51.894531 35.652344 50.605469 C 35.652344 50.605469 37.949219 51.320312 39.011719 51.789062 C 39.625 52.0625 40.261719 52.339844 40.890625 52.601562 C 42.550781 53.28125 44.316406 53.882812 46.136719 54.382812 C 47.699219 54.808594 49.359375 55.15625 51.078125 55.414062 C 50.003906 52.664062 49.761719 49.957031 49.757812 48.066406 C 48.746094 48.386719 44.652344 49.683594 44.652344 49.683594 C 44.730469 49.6875 44.808594 49.691406 44.886719 49.691406 C 45.359375 49.707031 45.847656 49.722656 46.304688 49.722656 L 46.9375 49.722656 L 46.414062 50.082031 C 45.511719 50.703125 44.65625 51.453125 43.730469 52.429688 L 43.640625 52.519531 L 43.523438 52.480469 C 42.308594 52.078125 41.078125 51.453125 39.894531 50.648438 C 40.207031 51.195312 40.730469 51.917969 40.730469 51.917969 C 40.007812 51.613281 37.546875 50.484375 36.257812 48.769531 L 36.105469 48.566406 L 36.335938 48.46875 C 37.332031 48.050781 38.363281 47.898438 39.359375 47.757812 C 39.6875 47.710938 40.023438 47.660156 40.359375 47.601562 C 41.65625 47.398438 42.992188 47.160156 44.332031 46.898438 C 45.792969 46.609375 47.085938 46.335938 48.285156 46.0625 C 48.824219 45.9375 49.53125 45.773438 50.25 45.59375 L 50.742188 45.472656 C 50.765625 45.46875 50.777344 45.464844 50.789062 45.460938 L 50.832031 45.445312 C 50.839844 45.441406 50.859375 45.433594 50.859375 45.433594 C 50.890625 45.414062 50.917969 45.398438 50.941406 45.375 C 51.042969 45.292969 51.097656 45.144531 51.074219 45.011719 C 51.054688 44.867188 50.964844 44.746094 50.839844 44.6875 C 50.785156 44.664062 50.726562 44.648438 50.671875 44.648438 C 50.660156 44.648438 50.652344 44.648438 50.640625 44.652344 L 50.617188 44.652344 C 50.601562 44.65625 50.585938 44.65625 50.574219 44.660156 L 50.464844 44.683594 L 50.214844 44.730469 C 49.59375 44.859375 48.9375 44.988281 48.21875 45.125 C 46.929688 45.371094 45.578125 45.601562 44.199219 45.808594 C 42.839844 46.011719 41.480469 46.195312 40.160156 46.359375 C 40.007812 46.378906 39.855469 46.394531 39.703125 46.414062 C 39.1875 46.476562 37.960938 46.492188 37.347656 46.5 C 36.863281 46.507812 36.308594 46.367188 35.890625 46.304688 C 35.890625 46.304688 38.871094 45.464844 39.289062 45.410156 C 39.53125 45.375 39.777344 45.34375 40.023438 45.304688 C 41.328125 45.125 42.671875 44.917969 44.019531 44.691406 C 45.359375 44.460938 46.695312 44.21875 47.996094 43.96875 C 48.308594 43.90625 48.625 43.84375 48.9375 43.777344 L 49.011719 43.761719 C 46.871094 40.660156 46.101562 37.804688 45.824219 36.089844 C 44.859375 37.792969 44.054688 39.585938 43.4375 41.433594 L 43.40625 41.519531 L 43.320312 41.550781 C 42.289062 41.96875 41.429688 42.363281 40.589844 42.949219 L 40.316406 43.136719 L 40.28125 42.804688 C 40.242188 42.414062 40.300781 42.027344 40.390625 41.648438 C 40.082031 42.082031 39.824219 42.578125 39.632812 43.128906 L 39.582031 43.269531 L 39.4375 43.261719 C 39.355469 43.257812 39.273438 43.257812 39.191406 43.257812 C 38.027344 43.257812 35.648438 44.15625 35.648438 44.15625 C 35.96875 43.625 36.3125 42.894531 36.863281 42.292969 C 37.21875 41.898438 37.605469 41.53125 37.976562 41.175781 C 38.089844 41.066406 38.203125 40.960938 38.3125 40.851562 C 39.277344 39.929688 40.28125 38.996094 41.300781 38.078125 C 42.304688 37.167969 43.339844 36.269531 44.375 35.402344 C 44.945312 34.921875 45.460938 34.496094 45.945312 34.105469 L 46.140625 33.941406 L 46.234375 33.867188 C 46.242188 33.859375 46.25 33.855469 46.265625 33.84375 L 46.277344 33.824219 C 46.324219 33.777344 46.359375 33.71875 46.375 33.652344 C 46.410156 33.511719 46.375 33.371094 46.273438 33.257812 C 46.199219 33.175781 46.085938 33.125 45.976562 33.125 C 45.953125 33.125 45.933594 33.128906 45.898438 33.132812 C 45.875 33.136719 45.847656 33.144531 45.808594 33.160156 C 45.800781 33.164062 45.789062 33.167969 45.773438 33.175781 L 45.746094 33.195312 C 45.734375 33.203125 45.726562 33.210938 45.703125 33.226562 L 45.300781 33.527344 C 44.828125 33.878906 44.316406 34.265625 43.695312 34.75 C 42.695312 35.527344 41.664062 36.355469 40.542969 37.277344 C 39.480469 38.160156 38.453125 39.042969 37.480469 39.910156 C 37.226562 40.128906 36.976562 40.355469 36.734375 40.578125 C 35.992188 41.257812 35.222656 41.964844 34.265625 42.46875 L 33.671875 42.78125 L 34 42.199219 C 34.589844 41.15625 35.4375 40.371094 36.257812 39.613281 C 36.429688 39.453125 36.605469 39.292969 36.777344 39.128906 C 37.785156 38.203125 38.808594 37.289062 39.820312 36.417969 C 40.808594 35.566406 41.839844 34.71875 42.972656 33.828125 C 43.304688 33.566406 43.640625 33.304688 43.976562 33.046875 C 40.675781 30.730469 39.074219 28.273438 38.339844 26.773438 Z M 31.488281 99.597656 C 30.152344 99.5 28.796875 99.253906 27.453125 98.867188 C 28.734375 99.808594 30.085938 100.667969 31.492188 101.429688 C 31.480469 100.824219 31.480469 100.210938 31.488281 99.597656 Z M 31.527344 98.335938 C 31.609375 96.433594 31.808594 94.746094 32.125 93.3125 C 29.683594 92.910156 27.613281 92.042969 26.226562 91.335938 C 25.863281 93.515625 25.738281 95.546875 25.703125 96.921875 C 27.066406 97.480469 29.132812 98.152344 31.527344 98.335938 Z M 36.277344 84.234375 C 35.945312 82.777344 35.839844 81.199219 35.976562 79.632812 C 35.855469 79.628906 35.722656 79.625 35.59375 79.625 C 33.308594 79.625 31.371094 80.511719 29.84375 82.265625 C 30.683594 83.914062 32.144531 86.21875 34.4375 88.144531 C 35.507812 86.839844 36.675781 86.207031 37.589844 85.898438 C 37.476562 85.828125 37.367188 85.761719 37.269531 85.699219 C 37.101562 85.609375 36.9375 85.515625 36.78125 85.421875 L 36.566406 85.300781 C 36.46875 85.246094 36.355469 85.183594 36.226562 85.125 C 35.742188 84.855469 34.183594 83.988281 33.96875 83.882812 C 33.964844 83.882812 36.183594 84.203125 36.277344 84.234375 Z M 29 83.378906 C 27.886719 85.0625 27.035156 87.300781 26.464844 90.039062 C 27.835938 90.773438 29.945312 91.691406 32.4375 92.085938 C 32.46875 91.984375 32.496094 91.882812 32.527344 91.785156 C 32.84375 90.816406 33.238281 89.9375 33.707031 89.171875 C 31.417969 87.28125 29.90625 85.035156 29 83.378906 Z M 26.804688 84.8125 C 28.726562 80.59375 31.765625 78.363281 35.589844 78.363281 C 44.488281 78.363281 50.523438 89.347656 51.898438 92.105469 C 52.773438 91.417969 53.648438 90.753906 54.492188 90.113281 L 54.671875 89.972656 C 56.003906 88.964844 57.511719 87.820312 58.78125 86.746094 C 59.453125 86.175781 60.128906 85.53125 60.785156 84.828125 C 60.261719 83.574219 58.511719 79.761719 55.382812 76.011719 C 50.511719 70.167969 44.703125 67.15625 38.117188 67.054688 C 37.921875 69.96875 37.648438 72.84375 37 74.453125 C 37.113281 74.476562 37.277344 74.511719 37.277344 74.511719 L 38.71875 74.78125 L 37.527344 75.640625 C 35.84375 76.859375 33.460938 77.042969 32.191406 77.042969 C 32.015625 77.042969 31.839844 77.039062 31.667969 77.03125 L 31.660156 77.132812 L 31.652344 77.238281 C 31.648438 77.28125 31.640625 77.320312 31.632812 77.375 C 31.609375 77.46875 31.582031 77.546875 31.550781 77.621094 C 31.480469 77.789062 31.367188 77.941406 31.238281 78.058594 C 31.210938 78.082031 31.183594 78.105469 31.15625 78.128906 L 31.121094 78.152344 L 31.066406 78.191406 L 30.894531 78.289062 C 30.789062 78.355469 30.683594 78.402344 30.59375 78.4375 C 30.484375 78.492188 30.375 78.53125 30.277344 78.5625 C 29.878906 78.703125 29.445312 78.773438 28.992188 78.777344 L 28.945312 78.777344 C 28.117188 78.777344 27.292969 78.558594 26.550781 78.144531 C 25.875 77.757812 25.265625 77.183594 24.75 76.4375 C 24.324219 75.824219 23.988281 75.113281 23.722656 74.269531 C 23.367188 73.121094 23.242188 71.96875 23.171875 70.867188 C 21.460938 73.066406 18.03125 78.195312 16.582031 85.53125 C 18.480469 89.652344 21.125 93.304688 24.449219 96.382812 C 24.617188 91.878906 25.449219 87.78125 26.804688 84.8125 Z M 60.183594 53.035156 C 61.808594 54.101562 63.261719 55.34375 64.511719 56.734375 C 66.921875 55.203125 68.507812 53.746094 69.441406 52.746094 C 67.730469 50.699219 65.695312 48.917969 63.378906 47.445312 C 62.832031 48.761719 61.851562 50.730469 60.183594 53.035156 Z M 62.289062 46.785156 C 60.976562 46.027344 59.585938 45.363281 58.148438 44.8125 C 57.320312 44.496094 56.46875 44.207031 55.601562 43.953125 C 55.617188 45.949219 55.363281 48.109375 54.855469 50.386719 C 56.34375 50.921875 57.773438 51.589844 59.109375 52.371094 C 60.796875 50.054688 61.765625 48.082031 62.289062 46.785156 Z M 65.335938 57.707031 C 65.992188 58.535156 66.589844 59.414062 67.109375 60.328125 C 67.203125 60.433594 67.667969 61.011719 68.214844 62.222656 C 70.28125 61.6875 72.152344 61 73.777344 60.164062 C 73.53125 59.519531 73.257812 58.882812 72.964844 58.269531 C 72.207031 56.667969 71.289062 55.144531 70.230469 53.746094 C 69.273438 54.75 67.683594 56.199219 65.335938 57.707031 Z M 66 79.808594 C 66.691406 80.1875 67.394531 80.542969 68.097656 80.867188 C 67.910156 79.515625 67.664062 78.230469 67.367188 77.027344 C 66.96875 77.96875 66.507812 78.898438 66 79.808594 Z M 68.6875 63.398438 C 69.238281 64.941406 69.636719 66.738281 69.878906 68.738281 C 72.410156 68.726562 74.332031 68.40625 75.546875 68.121094 C 75.378906 65.796875 74.929688 63.523438 74.207031 61.359375 C 72.578125 62.179688 70.722656 62.863281 68.6875 63.398438 Z M 70.007812 70 C 70.136719 71.566406 70.175781 73.261719 70.117188 75.039062 C 71.878906 75.550781 73.558594 75.859375 75.101562 75.957031 C 75.5 73.738281 75.671875 71.535156 75.609375 69.398438 C 73.914062 69.78125 72.027344 69.984375 70.007812 70 Z M 70.0625 76.332031 C 69.964844 77.972656 69.796875 79.703125 69.550781 81.488281 C 70.832031 81.992188 72.074219 82.375 73.25 82.625 C 73.925781 80.824219 74.464844 79.003906 74.855469 77.203125 C 73.359375 77.09375 71.746094 76.804688 70.0625 76.332031 Z M 69.363281 82.769531 C 69.210938 83.746094 69.050781 84.683594 68.871094 85.625 C 68.871094 85.625 68.617188 84.066406 68.273438 82.320312 C 67.3125 81.910156 66.335938 81.429688 65.363281 80.898438 C 64.488281 82.316406 63.5 83.664062 62.421875 84.902344 C 65.054688 86.703125 67.664062 88.117188 70.191406 89.113281 C 71.175781 87.398438 72.046875 85.621094 72.785156 83.816406 C 71.695312 83.574219 70.546875 83.222656 69.363281 82.769531 Z M 61.566406 85.84375 C 60.910156 86.53125 60.25 87.160156 59.597656 87.710938 C 58.644531 88.519531 57.578125 89.347656 56.558594 90.128906 C 59.367188 92.699219 62.21875 94.746094 65.035156 96.214844 C 65.273438 95.941406 65.511719 95.667969 65.765625 95.386719 C 67.046875 93.933594 68.351562 92.148438 69.539062 90.207031 C 66.949219 89.171875 64.265625 87.703125 61.566406 85.84375 Z M 55.539062 90.898438 C 55.503906 90.925781 55.46875 90.953125 55.433594 90.980469 C 53.699219 92.296875 51.742188 93.78125 49.914062 95.363281 C 54.054688 99.265625 57.625 101.386719 59.949219 102.492188 C 61.160156 100.855469 62.585938 99.074219 64.1875 97.195312 C 61.3125 95.660156 58.40625 93.542969 55.539062 90.898438 Z M 50.886719 92.914062 C 50.566406 92.269531 49.84375 90.871094 48.769531 89.210938 C 47.796875 89.820312 46.480469 90.816406 45.371094 92.246094 C 45.429688 92.347656 45.492188 92.445312 45.550781 92.550781 C 45.953125 93.222656 46.335938 93.960938 46.691406 94.742188 C 46.910156 95.222656 47.09375 95.671875 47.257812 96.097656 C 48.3125 95.078125 49.503906 94.03125 50.886719 92.914062 Z M 48.066406 88.164062 C 46.800781 86.339844 45.457031 84.769531 44.074219 83.492188 C 43.296875 84.417969 42.300781 85.84375 41.679688 87.648438 C 42.007812 87.957031 42.324219 88.269531 42.617188 88.585938 C 42.886719 88.867188 43.144531 89.167969 43.390625 89.457031 L 43.441406 89.515625 C 43.699219 89.839844 43.953125 90.15625 44.195312 90.492188 C 44.355469 90.707031 44.503906 90.921875 44.648438 91.128906 C 45.804688 89.75 47.105469 88.773438 48.066406 88.164062 Z M 51.714844 46.296875 C 51.621094 46.378906 51.511719 46.453125 51.367188 46.527344 L 51.339844 46.539062 C 51.285156 46.5625 51.234375 46.585938 51.183594 46.601562 C 51.152344 46.609375 51.117188 46.621094 51.085938 46.628906 C 51.050781 47.109375 51 48.089844 51.074219 49.339844 C 51.597656 49.4375 52.515625 49.632812 53.65625 49.984375 C 54.152344 47.710938 54.382812 45.570312 54.335938 43.609375 C 52.4375 43.136719 50.855469 42.917969 49.898438 42.820312 C 50.050781 43.042969 50.207031 43.273438 50.375 43.5 C 50.425781 43.492188 50.480469 43.480469 50.535156 43.480469 C 50.578125 43.472656 50.621094 43.472656 50.664062 43.472656 C 50.890625 43.472656 51.121094 43.523438 51.320312 43.613281 C 51.8125 43.828125 52.175781 44.308594 52.253906 44.84375 C 52.34375 45.375 52.132812 45.949219 51.714844 46.296875 Z M 35.253906 75.363281 C 34.164062 75.097656 32.875 74.742188 31.886719 74.328125 C 31.859375 74.609375 31.832031 74.890625 31.804688 75.167969 L 31.800781 75.222656 C 31.785156 75.402344 31.769531 75.589844 31.757812 75.773438 C 31.898438 75.777344 32.042969 75.78125 32.1875 75.78125 C 33.023438 75.78125 34.171875 75.699219 35.253906 75.363281 Z M 52.691406 25.117188 C 49.378906 26.597656 46.210938 28.539062 43.265625 30.890625 C 43.335938 30.953125 43.410156 31.011719 43.484375 31.074219 C 44.976562 30.90625 46.496094 30.824219 48 30.824219 C 49.632812 30.824219 51.273438 30.921875 52.875 31.117188 C 52.308594 28.394531 52.480469 26.304688 52.691406 25.117188 Z M 53.917969 23.234375 C 53.949219 23.222656 53.976562 23.195312 53.992188 23.164062 C 54.136719 22.882812 54.253906 22.570312 54.34375 22.230469 C 54.347656 22.210938 54.363281 22.15625 54.300781 22.09375 C 54.285156 22.078125 54.25 22.050781 54.199219 22.050781 C 54.183594 22.050781 54.167969 22.050781 54.152344 22.058594 C 52.617188 22.53125 51.074219 23.125 49.574219 23.820312 C 49.351562 23.945312 44.4375 26.660156 42.824219 29.632812 C 46.273438 26.929688 50 24.777344 53.917969 23.234375 Z M 70.988281 30.707031 L 71.046875 30.707031 C 71.15625 30.699219 71.273438 30.6875 71.378906 30.679688 L 71.421875 30.675781 C 71.433594 30.675781 71.441406 30.667969 71.449219 30.660156 C 71.636719 30.46875 71.804688 30.246094 71.957031 29.996094 C 71.960938 29.992188 71.96875 29.980469 71.957031 29.960938 C 71.953125 29.953125 71.9375 29.9375 71.90625 29.9375 C 71.191406 29.9375 70.445312 29.964844 69.675781 30.019531 C 68.367188 30.261719 64.417969 31.085938 62.082031 32.609375 C 64.902344 31.652344 67.777344 31.023438 70.632812 30.746094 Z M 69.796875 32.117188 C 67.476562 32.410156 65.152344 32.933594 62.878906 33.679688 C 64.832031 34.460938 66.734375 35.398438 68.542969 36.476562 C 68.78125 34.523438 69.320312 33.074219 69.796875 32.117188 Z M 86.929688 71.011719 C 86.929688 70.789062 86.929688 70.566406 86.925781 70.339844 C 86.925781 70.265625 86.921875 70.1875 86.921875 70.089844 C 86.910156 69.664062 86.898438 69.3125 86.878906 68.976562 C 86.871094 68.84375 86.863281 68.707031 86.855469 68.574219 C 86.828125 68.140625 86.792969 67.683594 86.746094 67.214844 C 86.726562 67 86.703125 66.785156 86.679688 66.566406 C 86.675781 66.519531 86.667969 66.472656 86.660156 66.421875 C 86.640625 66.246094 86.621094 66.078125 86.597656 65.910156 L 86.566406 65.691406 C 86.539062 65.488281 86.511719 65.285156 86.480469 65.089844 C 86.40625 64.59375 86.316406 64.085938 86.207031 63.523438 C 86.175781 63.351562 86.136719 63.179688 86.097656 63 C 86.046875 62.742188 85.988281 62.488281 85.929688 62.226562 C 85.914062 62.164062 85.898438 62.097656 85.882812 62.027344 C 85.839844 61.84375 85.792969 61.664062 85.746094 61.476562 C 85.695312 61.261719 85.636719 61.050781 85.582031 60.835938 L 85.570312 60.789062 C 85.5625 60.761719 85.554688 60.730469 85.542969 60.691406 C 85.496094 60.511719 85.441406 60.339844 85.390625 60.15625 C 85.242188 59.644531 85.082031 59.136719 84.917969 58.648438 L 84.796875 58.289062 L 84.722656 58.085938 C 84.691406 57.992188 84.660156 57.902344 84.625 57.808594 C 84.589844 57.710938 84.554688 57.613281 84.515625 57.511719 C 84.476562 57.40625 84.4375 57.304688 84.394531 57.195312 C 84.261719 56.839844 84.136719 56.527344 84.011719 56.226562 C 83.964844 56.109375 83.917969 55.992188 83.863281 55.871094 C 83.695312 55.472656 83.519531 55.074219 83.335938 54.679688 C 83.25 54.5 83.167969 54.324219 83.085938 54.148438 C 82.882812 53.726562 82.660156 53.289062 82.402344 52.804688 C 82.304688 52.617188 82.203125 52.433594 82.101562 52.246094 C 82.066406 52.183594 82.035156 52.125 81.996094 52.058594 C 81.902344 51.890625 81.8125 51.730469 81.714844 51.5625 C 81.609375 51.378906 81.5 51.199219 81.390625 51.015625 C 81.125 50.566406 80.835938 50.105469 80.53125 49.648438 C 80.429688 49.496094 80.324219 49.34375 80.222656 49.191406 L 80.207031 49.167969 C 80.074219 48.972656 79.941406 48.777344 79.804688 48.585938 C 79.667969 48.394531 79.53125 48.203125 79.390625 48.015625 C 79.253906 47.824219 79.109375 47.636719 78.96875 47.449219 C 78.824219 47.257812 78.679688 47.074219 78.539062 46.890625 C 78.390625 46.707031 78.242188 46.523438 78.09375 46.34375 C 77.945312 46.164062 77.792969 45.980469 77.640625 45.800781 C 77.488281 45.621094 77.339844 45.445312 77.179688 45.269531 C 77.023438 45.09375 76.867188 44.917969 76.710938 44.746094 C 76.550781 44.574219 76.394531 44.398438 76.230469 44.230469 C 76.070312 44.058594 75.902344 43.894531 75.738281 43.726562 C 75.574219 43.558594 75.410156 43.390625 75.242188 43.230469 C 75.074219 43.066406 74.90625 42.902344 74.734375 42.738281 C 74.585938 42.601562 74.4375 42.457031 74.28125 42.316406 C 74.234375 42.269531 74.183594 42.226562 74.128906 42.175781 C 73.984375 42.046875 73.839844 41.917969 73.695312 41.789062 C 73.519531 41.632812 73.339844 41.480469 73.164062 41.328125 C 72.816406 41.03125 72.449219 40.730469 72.070312 40.433594 L 71.988281 40.371094 C 71.875 40.28125 71.765625 40.195312 71.648438 40.105469 C 71.578125 40.050781 71.503906 39.992188 71.425781 39.9375 L 71.285156 39.832031 C 71.203125 39.773438 71.128906 39.714844 71.046875 39.65625 C 68.339844 38.121094 63.136719 35.617188 57.285156 35.148438 C 59.652344 35.917969 64.257812 37.503906 66.328125 38.84375 C 66.328125 38.84375 62.527344 38.59375 57.835938 38.59375 C 55.621094 38.59375 51.425781 38.628906 51.425781 38.628906 C 51.488281 38.589844 52.574219 37.886719 53.855469 37.355469 C 52.433594 37.484375 50.378906 37.738281 48.820312 38.214844 C 48.777344 38.550781 48.699219 39.644531 49.121094 41.488281 C 50.375 41.558594 54.121094 41.917969 58.570312 43.621094 C 63.503906 45.515625 70.203125 49.5 74.105469 57.726562 C 77.417969 64.707031 77.820312 72.402344 75.304688 80.609375 C 72.730469 89 68.074219 94.675781 66.707031 96.21875 C 60.742188 102.949219 58.296875 107.046875 57.402344 108.789062 C 74.8125 104.464844 86.929688 88.988281 86.929688 71.011719 Z M 55.835938 109.144531 C 56.140625 108.417969 57.019531 106.597656 59.195312 103.53125 C 56.796875 102.363281 53.144531 100.160156 48.96875 96.203125 C 46.898438 98.082031 45.308594 99.878906 44.105469 101.679688 C 48.410156 105.898438 52.171875 108.1875 54.59375 109.378906 C 55.046875 109.300781 55.453125 109.222656 55.835938 109.144531 Z M 48 109.941406 C 49.484375 109.941406 50.984375 109.851562 52.472656 109.683594 C 49.429688 107.96875 46.386719 105.652344 43.425781 102.78125 C 42.195312 104.914062 41.484375 107.066406 41.265625 109.359375 C 43.476562 109.742188 45.742188 109.941406 48 109.941406 Z M 43.125 82.664062 C 41.1875 81.085938 39.207031 80.113281 37.230469 79.769531 C 37.121094 81.046875 37.136719 82.90625 37.746094 84.855469 C 37.839844 84.90625 37.933594 84.957031 38.027344 85.007812 C 38.285156 85.144531 38.554688 85.285156 38.800781 85.449219 C 38.878906 85.496094 38.957031 85.542969 39.03125 85.59375 L 39.066406 85.617188 L 39.269531 85.75 C 39.746094 86.058594 40.210938 86.398438 40.664062 86.761719 C 41.222656 85.3125 42.050781 83.933594 43.125 82.664062 Z M 40.019531 109.117188 C 40.128906 108.101562 40.335938 107.089844 40.632812 106.097656 C 33.132812 104.519531 26.207031 100.476562 21.105469 94.691406 C 15.792969 88.660156 12.628906 80.9375 12.203125 72.941406 L 12.167969 72.28125 L 13.015625 72.28125 C 15.265625 72.28125 16.390625 73.519531 16.921875 74.457031 L 18.78125 71.007812 L 16.921875 67.558594 C 16.390625 68.496094 15.265625 69.734375 13.019531 69.734375 L 12.167969 69.734375 L 12.203125 69.070312 C 12.550781 62.558594 14.679688 56.265625 18.355469 50.871094 C 18.425781 50.078125 18.511719 49.308594 18.613281 48.574219 C 18.796875 47.242188 19.027344 45.941406 19.308594 44.699219 C 12.703125 51.882812 9.074219 61.195312 9.074219 71.007812 C 9.074219 89.371094 22.074219 105.363281 40.019531 109.117188 Z M 26.59375 61.375 C 26.738281 61.605469 27.246094 62.824219 27.246094 62.824219 C 26.875 62.609375 26.140625 61.945312 25.769531 61.585938 C 25.414062 61.214844 25.128906 60.859375 24.894531 60.503906 C 24.414062 59.773438 24.035156 58.925781 23.765625 57.988281 C 23.523438 57.113281 23.382812 56.210938 23.351562 55.300781 C 23.316406 54.265625 23.644531 52.378906 23.847656 51.597656 C 23.847656 51.597656 24.175781 53.78125 24.265625 54.328125 C 25.175781 54.597656 27.539062 55.480469 27.441406 57.46875 C 27.351562 59.25 26.84375 60.734375 26.59375 61.375 Z M 27.066406 75.097656 C 26.699219 74.773438 26.410156 74.359375 26.261719 73.9375 C 26.105469 73.507812 26.03125 73.042969 26.054688 72.578125 C 26.089844 72.0625 26.21875 71.632812 26.445312 71.273438 L 26.679688 70.910156 L 26.800781 71.324219 C 26.867188 71.558594 26.929688 71.777344 26.988281 71.992188 C 27.667969 72.195312 28.113281 72.542969 28.320312 73.015625 C 28.59375 73.660156 28.347656 74.367188 28.132812 74.792969 C 28.171875 74.847656 28.214844 74.90625 28.257812 74.960938 C 28.347656 75.078125 28.441406 75.207031 28.535156 75.339844 L 28.777344 75.6875 L 28.355469 75.648438 C 27.859375 75.605469 27.402344 75.40625 27.066406 75.097656 Z M 68.890625 43.078125 C 68.890625 43.078125 65.964844 42.839844 63.867188 42.777344 C 65.035156 43.445312 67.523438 45.011719 69.847656 47.417969 C 69.847656 47.417969 60.117188 41.839844 53.527344 40.21875 C 53.53125 40.21875 62.632812 39.867188 68.890625 43.078125 Z M 68.890625 43.078125 " fill-opacity="1" fill-rule="nonzero"/></svg>