<svg xmlns="http://www.w3.org/2000/svg" xmlns:xlink="http://www.w3.org/1999/xlink" width="130" zoomAndPan="magnify" viewBox="0 0 97.5 131.999998" height="176" preserveAspectRatio="xMidYMid meet" version="1.0"><defs><clipPath id="f2e68c69ae"><path d="M 4.898438 7.871094 L 97.003906 7.871094 L 97.003906 131.664062 L 4.898438 131.664062 Z M 4.898438 7.871094 " clip-rule="nonzero"/></clipPath><clipPath id="4784138d9a"><path d="M 42 48 L 97.003906 48 L 97.003906 124 L 42 124 Z M 42 48 " clip-rule="nonzero"/></clipPath><clipPath id="f11cbe0901"><path d="M 10 29 L 97.003906 29 L 97.003906 131.664062 L 10 131.664062 Z M 10 29 " clip-rule="nonzero"/></clipPath><clipPath id="1a5e95e174"><path d="M 14 29 L 97.003906 29 L 97.003906 128 L 14 128 Z M 14 29 " clip-rule="nonzero"/></clipPath><clipPath id="390d61a4f7"><path d="M 8 12 L 97.003906 12 L 97.003906 131.664062 L 8 131.664062 Z M 8 12 " clip-rule="nonzero"/></clipPath></defs><g clip-path="url(#f2e68c69ae)"><path fill="#3e5eb4" d="M 123.789062 81.617188 C 125.636719 78.800781 124.5 75.535156 123.902344 73.816406 C 121.171875 65.988281 116.6875 58.734375 110.566406 52.253906 C 109.007812 50.605469 108.375 49.007812 108.3125 46.5625 C 108.011719 34.785156 104.238281 24.042969 97.09375 14.636719 C 95.761719 12.878906 92.855469 10.609375 92.285156 10.171875 L 90.054688 8.457031 L 88.128906 10.515625 C 87.820312 10.84375 85.0625 13.804688 83.847656 15.722656 C 83.007812 17.046875 82.253906 18.40625 81.527344 19.71875 C 80.765625 21.105469 80.042969 22.410156 79.238281 23.652344 C 76.394531 28.03125 71.265625 30.753906 65.851562 30.753906 C 64.003906 30.753906 62.199219 30.445312 60.480469 29.835938 C 56.160156 28.304688 53.160156 25.761719 51.039062 21.832031 C 48.925781 17.917969 43.855469 10.90625 43.640625 10.609375 L 41.65625 7.871094 L 39.101562 10.078125 C 37.96875 11.054688 35.242188 13.449219 34.359375 14.601562 C 27.320312 23.785156 23.574219 34.199219 23.226562 45.550781 C 23.132812 48.683594 22.292969 50.769531 20.230469 52.988281 C 12.921875 60.859375 8.152344 69.691406 6.058594 79.246094 L 5.882812 80.066406 L 6.136719 80.863281 C 6.304688 81.386719 6.65625 82.121094 7.382812 82.683594 C 6.984375 84.039062 6.566406 85.421875 6.042969 86.734375 C 4.386719 90.882812 4.523438 95.046875 6.476562 99.839844 C 12.316406 114.175781 20.785156 126.375 31.644531 136.101562 C 35.28125 139.359375 39.28125 142.671875 43.871094 144.820312 L 44.570312 145.148438 L 45.339844 145.109375 C 46.679688 145.042969 47.613281 144.480469 48.246094 143.9375 C 48.695312 144.257812 49.140625 144.582031 49.582031 144.898438 C 54.179688 148.203125 58.929688 151.617188 64.445312 154.238281 L 65.769531 154.867188 L 67.09375 154.246094 C 71.699219 152.085938 75.777344 149.203125 79.71875 146.414062 C 80.769531 145.671875 81.84375 144.910156 82.925781 144.167969 C 83.554688 144.75 84.449219 145.261719 85.707031 145.328125 L 86.335938 145.359375 L 86.929688 145.148438 C 89.382812 144.257812 91.351562 142.773438 93.253906 141.339844 C 93.550781 141.113281 93.847656 140.890625 94.144531 140.667969 C 105.378906 132.339844 114.515625 121.167969 122.074219 106.507812 C 125.441406 99.980469 128.648438 91.28125 123.789062 81.617188 " fill-opacity="1" fill-rule="nonzero"/></g><g clip-path="url(#4784138d9a)"><path fill="#ffffff" d="M 106.742188 66.789062 C 106.742188 66.789062 107.011719 69.914062 108.097656 71.191406 C 109.1875 72.46875 110.738281 74.222656 110.738281 74.222656 C 110.738281 74.222656 108.863281 68.179688 106.742188 66.789062 Z M 69.972656 116.238281 C 69.972656 116.238281 74.398438 115.226562 74.863281 114.488281 C 75.328125 113.75 74.863281 112.738281 74.863281 112.738281 Z M 108.019531 88.148438 C 108.027344 88.234375 108.03125 88.324219 108.03125 88.414062 L 108.128906 88.371094 C 108.0625 88.226562 108.019531 88.148438 108.019531 88.148438 Z M 88.917969 116.238281 C 88.140625 117.613281 83.40625 123.113281 83.40625 123.113281 C 83.40625 123.113281 93.320312 116.300781 96.734375 108.691406 C 96.734375 108.691406 89.695312 114.867188 88.917969 116.238281 Z M 92.90625 50.101562 C 91.21875 48.238281 89.230469 48.414062 89.230469 48.414062 C 90.78125 49.449219 92.28125 53.339844 92.28125 53.339844 C 94.714844 53.339844 97.820312 55.46875 97.820312 55.46875 L 98.652344 53.027344 L 96.367188 52.351562 C 95.023438 51.949219 93.851562 51.144531 92.90625 50.101562 Z M 88.917969 68.519531 C 88.917969 68.519531 87.675781 67.898438 85.191406 67.511719 C 82.707031 67.121094 77.890625 71.191406 77.890625 71.191406 C 77.890625 71.191406 82.628906 72.566406 84.570312 71.867188 C 86.511719 71.167969 88.917969 68.519531 88.917969 68.519531 Z M 108.011719 90.417969 C 107.972656 90.257812 107.9375 90.101562 107.910156 89.9375 C 107.40625 93.039062 105.535156 96.785156 105.535156 96.785156 C 105.535156 96.785156 107.542969 94.84375 108.386719 92.804688 C 108.375 92.617188 108.363281 92.429688 108.34375 92.246094 C 108.277344 91.632812 108.171875 91.019531 108.011719 90.417969 Z M 46.363281 67.511719 C 43.878906 67.898438 42.636719 68.519531 42.636719 68.519531 C 42.636719 68.519531 45.042969 71.167969 46.984375 71.867188 C 48.925781 72.566406 53.664062 71.191406 53.664062 71.191406 C 53.664062 71.191406 48.847656 67.121094 46.363281 67.511719 Z M 65.585938 95.828125 C 61.429688 95.828125 60.601562 97.746094 60.601562 97.746094 C 63.09375 96.785156 65.585938 96.785156 65.585938 96.785156 C 65.585938 96.785156 68.078125 96.785156 70.574219 97.746094 C 70.574219 97.746094 69.742188 95.828125 65.585938 95.828125 Z M 120.839844 104.9375 C 120.21875 106.496094 114.78125 115.125 114.78125 115.125 C 114.78125 115.125 114.792969 115.070312 114.816406 114.96875 C 114.84375 114.832031 114.894531 114.609375 114.960938 114.320312 C 115.105469 113.691406 115.335938 112.753906 115.625 111.730469 C 115.816406 111.054688 116.035156 110.34375 116.273438 109.664062 C 116.355469 109.4375 116.4375 109.210938 116.519531 108.996094 C 116.714844 108.496094 116.914062 108.027344 117.125 107.617188 C 117.230469 107.414062 117.339844 107.222656 117.449219 107.050781 C 117.613281 106.796875 117.777344 106.578125 117.949219 106.417969 C 119.65625 104.785156 120.839844 99.414062 120.839844 99.414062 C 120.839844 99.414062 120.972656 100.269531 121.054688 101.34375 C 121.148438 102.582031 121.171875 104.105469 120.839844 104.9375 " fill-opacity="1" fill-rule="nonzero"/></g><g clip-path="url(#f11cbe0901)"><path fill="#6cc0ed" d="M 35.414062 102.46875 L 35.855469 106.722656 C 35.855469 106.722656 35.546875 109.210938 36.890625 112.113281 C 38.238281 115.019531 47.660156 122.59375 47.660156 122.59375 C 47.660156 122.59375 40.972656 114.398438 39.863281 111.492188 C 38.753906 108.589844 35.414062 102.46875 35.414062 102.46875 Z M 82.25 140.867188 C 82.699219 140.566406 83.148438 140.265625 83.605469 139.972656 C 83.714844 140.058594 83.808594 140.152344 83.894531 140.246094 C 84.15625 140.539062 84.332031 140.867188 84.507812 141.175781 L 84.890625 140.921875 L 85.660156 140.375 L 86.410156 139.804688 C 86.867188 139.453125 87.3125 139.085938 87.75 138.707031 C 89.996094 136.179688 92.414062 132.804688 93.109375 129.390625 C 93.109375 129.390625 85.042969 138.78125 82.25 140.867188 Z M 33.351562 55.46875 C 33.351562 55.46875 36.457031 53.339844 38.890625 53.339844 C 38.890625 53.339844 40.390625 49.449219 41.945312 48.414062 C 41.945312 48.414062 39.953125 48.238281 38.265625 50.101562 C 37.324219 51.144531 36.152344 51.949219 34.804688 52.351562 L 32.523438 53.027344 Z M 36.296875 55.824219 C 35.046875 56.382812 33.921875 57.046875 32.921875 57.796875 C 32.644531 58.003906 32.375 58.214844 32.113281 58.433594 C 31.925781 58.46875 31.828125 58.488281 31.828125 58.488281 L 30.171875 51.863281 C 32.648438 49.148438 38.378906 46.292969 38.378906 46.292969 L 33.257812 47.257812 C 34.355469 45.917969 38.226562 43.566406 38.226562 43.566406 C 38.277344 42.289062 37.585938 37.757812 37.585938 37.757812 C 39.105469 38.230469 40.957031 40.808594 40.957031 40.808594 C 40.40625 37.652344 37.386719 33.90625 37.386719 33.90625 L 33.925781 38.335938 C 34.105469 35.566406 37.007812 29.582031 37.007812 29.582031 C 42.246094 31.632812 47.4375 44.578125 47.4375 44.578125 C 43.457031 47.90625 40.046875 54.597656 40.046875 54.597656 C 38.707031 54.886719 37.484375 55.296875 36.363281 55.792969 C 36.339844 55.800781 36.320312 55.8125 36.296875 55.824219 Z M 83.390625 118.542969 C 83.8125 117.9375 84.207031 116.957031 84.5625 115.757812 C 84.207031 116.664062 83.808594 117.605469 83.390625 118.542969 Z M 85.878906 109.683594 C 85.878906 109.683594 85.878906 109.6875 85.878906 109.6875 C 85.878906 109.683594 85.878906 109.683594 85.878906 109.683594 Z M 108.097656 71.191406 C 109.1875 72.46875 110.738281 74.222656 110.738281 74.222656 C 110.738281 74.222656 108.863281 68.179688 106.742188 66.789062 C 106.742188 66.789062 107.011719 69.914062 108.097656 71.191406 Z M 105.535156 96.785156 C 105.535156 96.785156 107.542969 94.84375 108.386719 92.804688 C 108.375 92.617188 108.363281 92.429688 108.34375 92.246094 C 108.277344 91.632812 108.171875 91.019531 108.011719 90.417969 C 107.972656 90.257812 107.9375 90.101562 107.910156 89.9375 C 107.40625 93.039062 105.535156 96.785156 105.535156 96.785156 Z M 108.019531 88.148438 C 108.027344 88.234375 108.03125 88.324219 108.03125 88.414062 L 108.128906 88.371094 C 108.0625 88.226562 108.019531 88.148438 108.019531 88.148438 Z M 96.734375 108.691406 C 96.734375 108.691406 89.695312 114.867188 88.917969 116.238281 C 88.140625 117.613281 83.40625 123.113281 83.40625 123.113281 C 83.40625 123.113281 93.320312 116.300781 96.734375 108.691406 Z M 111.238281 82.425781 C 111.628906 83.820312 111.941406 85.234375 112.136719 86.664062 L 111.859375 86.726562 C 111.417969 85.363281 110.953125 84.019531 110.421875 82.707031 C 109.894531 81.390625 109.316406 80.097656 108.683594 78.839844 C 108.058594 77.589844 107.382812 76.371094 106.652344 75.191406 C 107.410156 77.472656 110.972656 88.519531 110.277344 92.972656 C 110.199219 93.488281 110.042969 93.976562 109.835938 94.453125 C 109.765625 95.074219 109.644531 95.691406 109.449219 96.292969 C 109.40625 96.46875 109.339844 96.636719 109.269531 96.800781 L 109.058594 97.296875 C 108.921875 97.628906 108.710938 97.925781 108.535156 98.238281 C 108.453125 98.402344 108.332031 98.539062 108.222656 98.679688 L 107.890625 99.101562 C 107.78125 99.25 107.671875 99.375 107.5625 99.492188 L 107.242188 99.855469 C 106.386719 100.832031 105.566406 101.832031 104.855469 102.882812 C 104.140625 103.9375 103.566406 105.054688 103.195312 106.261719 C 103.007812 106.867188 102.859375 107.488281 102.730469 108.121094 C 102.625 108.726562 102.480469 109.472656 102.21875 110.105469 C 101.679688 111.386719 100.894531 112.496094 100.046875 113.523438 C 99.191406 114.546875 98.261719 115.492188 97.242188 116.34375 L 97.054688 116.132812 C 97.964844 115.207031 98.8125 114.199219 99.578125 113.15625 C 100.332031 112.105469 101 110.984375 101.40625 109.804688 C 101.613281 109.207031 101.6875 108.648438 101.777344 107.957031 C 101.875 107.292969 101.996094 106.625 102.167969 105.964844 C 102.511719 104.636719 103.101562 103.363281 103.820312 102.214844 C 104.53125 101.054688 105.363281 100 106.207031 98.972656 L 106.425781 98.714844 C 104.011719 101.007812 101.164062 103.347656 100.027344 106.667969 C 98.011719 112.582031 89.625 121.140625 85.585938 123.632812 C 81.546875 126.121094 78.90625 127.523438 78.90625 127.523438 C 78.90625 127.523438 81.351562 123.101562 83.367188 118.59375 C 84.488281 117.296875 89.875 110.90625 91.261719 105.964844 C 92.789062 100.523438 97.242188 93.199219 100.882812 92.222656 C 100.882812 92.222656 98.019531 99.195312 98.085938 104.199219 C 98.085938 104.199219 100.707031 100.144531 103.269531 96.601562 C 105.378906 93.691406 106.042969 89.972656 105.0625 86.507812 C 104.640625 85.023438 104.269531 83.269531 104.0625 81.289062 C 103.40625 74.953125 102.738281 69.296875 98.941406 67.070312 C 98.941406 67.070312 104.5 68.265625 106.511719 71.652344 C 106.511719 71.652344 105.253906 63.625 99.058594 58.433594 C 99.246094 58.46875 99.347656 58.488281 99.347656 58.488281 C 103.347656 61.066406 108.734375 65.082031 109.96875 68.695312 C 111.988281 74.609375 112.609375 76.945312 112.609375 76.945312 L 108.453125 75.460938 C 108.945312 76.394531 109.394531 77.351562 109.800781 78.324219 C 110.363281 79.660156 110.84375 81.03125 111.238281 82.425781 Z M 15.324219 110.964844 C 15.972656 113.097656 16.390625 115.125 16.390625 115.125 C 16.390625 115.125 13.230469 110.105469 11.453125 107.035156 C 10.902344 106.078125 10.480469 105.308594 10.335938 104.9375 C 10.277344 104.792969 10.230469 104.628906 10.191406 104.445312 C 9.96875 103.371094 10.070312 101.742188 10.183594 100.632812 C 10.253906 99.917969 10.335938 99.414062 10.335938 99.414062 C 10.335938 99.414062 11.515625 104.785156 13.226562 106.417969 C 14.019531 107.175781 14.757812 109.109375 15.324219 110.964844 " fill-opacity="1" fill-rule="nonzero"/></g><g clip-path="url(#1a5e95e174)"><path fill="#5897d7" d="M 98.652344 53.027344 L 96.367188 52.351562 C 95.023438 51.949219 93.851562 51.144531 92.90625 50.101562 C 91.21875 48.238281 89.230469 48.414062 89.230469 48.414062 C 90.78125 49.449219 92.28125 53.339844 92.28125 53.339844 C 94.714844 53.339844 97.820312 55.46875 97.820312 55.46875 Z M 101.003906 51.863281 L 99.347656 58.488281 C 99.347656 58.488281 99.246094 58.46875 99.058594 58.433594 C 97.003906 56.710938 94.40625 55.300781 91.125 54.597656 C 91.125 54.597656 87.71875 47.90625 83.734375 44.578125 C 83.734375 44.578125 88.925781 31.632812 94.164062 29.582031 C 94.164062 29.582031 97.070312 35.566406 97.246094 38.335938 L 93.785156 33.90625 C 93.785156 33.90625 90.769531 37.652344 90.214844 40.808594 C 90.214844 40.808594 92.070312 38.230469 93.585938 37.757812 C 93.585938 37.757812 92.894531 42.289062 92.945312 43.566406 C 92.945312 43.566406 96.820312 45.917969 97.917969 47.257812 L 92.796875 46.292969 C 92.796875 46.292969 98.523438 49.148438 101.003906 51.863281 Z M 38.890625 53.339844 C 38.890625 53.339844 40.390625 49.449219 41.945312 48.414062 C 41.945312 48.414062 39.953125 48.238281 38.265625 50.101562 C 37.324219 51.144531 36.152344 51.949219 34.804688 52.351562 L 32.523438 53.027344 L 33.351562 55.46875 C 33.351562 55.46875 36.457031 53.339844 38.890625 53.339844 Z M 35.414062 102.46875 L 35.855469 106.722656 C 35.855469 106.722656 35.546875 109.210938 36.890625 112.113281 C 38.238281 115.019531 47.660156 122.59375 47.660156 122.59375 C 47.660156 122.59375 40.972656 114.398438 39.863281 111.492188 C 38.753906 108.589844 35.414062 102.46875 35.414062 102.46875 Z M 47.804688 118.59375 C 49.824219 123.101562 52.265625 127.523438 52.265625 127.523438 C 52.265625 127.523438 38.339844 122.941406 33.566406 119.804688 C 28.792969 116.667969 27.230469 112.4375 25.351562 107.269531 C 23.472656 102.101562 22.457031 101.066406 20.734375 97.460938 C 19.015625 93.855469 14.632812 84.917969 14.398438 80.214844 C 14.21875 76.609375 17.214844 70.820312 18.625 68.308594 C 18.785156 67.898438 19.023438 67.488281 19.335938 67.078125 C 19.335938 67.078125 19.339844 67.078125 19.339844 67.078125 C 21.765625 63.90625 28.332031 60.738281 31.828125 58.488281 C 31.828125 58.488281 31.925781 58.46875 32.113281 58.433594 C 25.921875 63.625 24.664062 71.652344 24.664062 71.652344 C 26.671875 68.265625 32.234375 67.070312 32.234375 67.070312 C 28.4375 69.296875 27.765625 74.953125 27.109375 81.289062 C 26.90625 83.269531 26.53125 85.023438 26.109375 86.507812 C 25.132812 89.972656 25.792969 93.691406 27.90625 96.601562 C 30.46875 100.144531 33.089844 104.199219 33.089844 104.199219 C 33.15625 99.195312 30.289062 92.222656 30.289062 92.222656 C 33.929688 93.199219 38.382812 100.523438 39.910156 105.964844 C 41.296875 110.90625 46.683594 117.296875 47.804688 118.59375 Z M 91.765625 71.808594 C 91.765625 71.808594 89.28125 75.59375 86.898438 75.957031 C 84.515625 76.320312 80.222656 75.957031 80.222656 75.957031 C 80.222656 75.957031 84.464844 78.242188 85.992188 78.5 L 85.292969 77.152344 C 85.292969 77.152344 88.089844 78.5 89.746094 78.242188 L 88.503906 76.375 C 88.503906 76.375 90.367188 76.632812 92.335938 76.269531 C 93.910156 75.980469 96.046875 74.726562 96.835938 74.234375 C 97.03125 74.113281 97.148438 74.039062 97.148438 74.039062 C 97.148438 74.039062 96.847656 73.761719 96.347656 73.40625 C 95.359375 72.699219 93.585938 71.671875 91.765625 71.808594 Z M 74.863281 112.738281 L 69.972656 116.238281 C 69.972656 116.238281 74.398438 115.226562 74.863281 114.488281 C 75.328125 113.75 74.863281 112.738281 74.863281 112.738281 Z M 76.5 109.683594 C 76.5 109.683594 76.964844 113.964844 75.023438 115.519531 C 73.949219 116.382812 71.171875 117.304688 68.90625 117.957031 C 66.738281 118.582031 64.4375 118.582031 62.265625 117.957031 C 60 117.304688 57.222656 116.382812 56.148438 115.519531 C 54.207031 113.964844 54.671875 109.683594 54.671875 109.683594 C 54.671875 109.683594 58.011719 112.175781 60.03125 112.328125 C 62.050781 112.484375 65.585938 110.929688 65.585938 110.929688 C 65.585938 110.929688 69.121094 112.484375 71.140625 112.328125 C 73.160156 112.175781 76.5 109.683594 76.5 109.683594 Z M 65.585938 58.34375 C 67.707031 58.34375 69.566406 57.230469 70.621094 55.558594 C 69.824219 56.328125 68.742188 56.804688 67.550781 56.804688 C 65.109375 56.804688 63.132812 54.820312 63.132812 52.378906 C 63.132812 49.933594 65.109375 47.953125 67.550781 47.953125 C 68.742188 47.953125 69.824219 48.429688 70.621094 49.199219 C 69.566406 47.527344 67.707031 46.414062 65.585938 46.414062 C 62.296875 46.414062 59.632812 49.082031 59.632812 52.378906 C 59.632812 55.675781 62.296875 58.34375 65.585938 58.34375 Z M 45.292969 109.683594 C 45.292969 109.683594 45.292969 109.683594 45.292969 109.6875 C 45.292969 109.6875 45.292969 109.683594 45.292969 109.683594 Z M 46.609375 115.761719 C 46.96875 116.957031 47.359375 117.9375 47.785156 118.542969 C 47.367188 117.605469 46.964844 116.664062 46.609375 115.761719 Z M 44.273438 75.957031 C 46.65625 76.320312 50.953125 75.957031 50.953125 75.957031 C 50.953125 75.957031 46.707031 78.242188 45.179688 78.5 L 45.878906 77.152344 C 45.878906 77.152344 43.082031 78.5 41.429688 78.242188 L 42.671875 76.375 C 42.671875 76.375 40.808594 76.632812 38.839844 76.269531 C 37.261719 75.980469 35.125 74.726562 34.335938 74.234375 C 34.140625 74.113281 34.023438 74.039062 34.023438 74.039062 C 34.023438 74.039062 34.328125 73.761719 34.828125 73.40625 C 35.816406 72.699219 37.585938 71.671875 39.410156 71.808594 C 39.410156 71.808594 41.894531 75.59375 44.273438 75.957031 " fill-opacity="1" fill-rule="nonzero"/></g><g clip-path="url(#390d61a4f7)"><path fill="#100f0d" d="M 84.507812 141.175781 C 84.390625 140.972656 84.273438 140.753906 84.132812 140.550781 C 84.273438 140.753906 84.390625 140.972656 84.507812 141.175781 Z M 83.605469 139.972656 C 83.714844 140.058594 83.808594 140.152344 83.894531 140.246094 C 83.808594 140.152344 83.714844 140.058594 83.605469 139.972656 Z M 70.574219 97.746094 C 70.574219 97.746094 69.742188 95.828125 65.585938 95.828125 C 61.429688 95.828125 60.601562 97.746094 60.601562 97.746094 C 63.09375 96.785156 65.585938 96.785156 65.585938 96.785156 C 65.585938 96.785156 68.078125 96.785156 70.574219 97.746094 Z M 72.785156 99.550781 L 72.097656 101.871094 C 69.613281 103.382812 65.585938 104.210938 65.585938 104.210938 C 65.585938 104.210938 61.5625 103.382812 59.074219 101.871094 L 58.390625 99.550781 C 57.972656 98.148438 58.535156 96.625 59.789062 95.871094 C 60.964844 95.167969 62.796875 94.554688 65.585938 94.621094 C 68.375 94.554688 70.207031 95.167969 71.382812 95.871094 C 72.636719 96.625 73.199219 98.148438 72.785156 99.550781 Z M 84.570312 71.867188 C 86.511719 71.167969 88.917969 68.519531 88.917969 68.519531 C 88.917969 68.519531 87.675781 67.898438 85.191406 67.511719 C 82.707031 67.121094 77.890625 71.191406 77.890625 71.191406 C 77.890625 71.191406 82.628906 72.566406 84.570312 71.867188 Z M 46.363281 67.511719 C 43.878906 67.898438 42.636719 68.519531 42.636719 68.519531 C 42.636719 68.519531 45.042969 71.167969 46.984375 71.867188 C 48.925781 72.566406 53.664062 71.191406 53.664062 71.191406 C 53.664062 71.191406 48.847656 67.121094 46.363281 67.511719 Z M 108.453125 75.460938 L 112.609375 76.945312 C 112.609375 76.945312 111.988281 74.609375 109.96875 68.695312 C 108.734375 65.082031 103.347656 61.066406 99.347656 58.488281 L 101.003906 51.863281 C 101.003906 51.863281 103.761719 45.058594 101.664062 38.597656 C 99.605469 32.253906 95.914062 23.554688 95.914062 23.554688 C 95.914062 23.554688 80.148438 33.851562 78.144531 41.175781 C 78.144531 41.175781 73.492188 39.121094 70.214844 39.386719 C 70.214844 39.386719 83.589844 45.78125 85.449219 56.058594 C 85.214844 55.28125 84.886719 54.539062 84.488281 53.851562 C 83.972656 52.953125 83.347656 52.144531 82.679688 51.394531 C 82.007812 50.652344 81.300781 49.953125 80.558594 49.292969 L 80.347656 49.476562 C 80.890625 50.308594 81.472656 51.105469 81.996094 51.921875 C 82.523438 52.738281 83.007812 53.5625 83.394531 54.417969 C 83.78125 55.269531 84.066406 56.15625 84.203125 57.046875 C 84.246094 57.296875 84.269531 57.546875 84.285156 57.796875 C 83.976562 57.804688 83.628906 57.824219 83.253906 57.863281 C 83.207031 57.308594 83.109375 56.765625 82.953125 56.238281 C 82.714844 55.433594 82.355469 54.675781 81.886719 53.996094 C 81.414062 53.324219 80.84375 52.722656 80.171875 52.273438 L 79.980469 52.484375 C 80.449219 53.097656 80.84375 53.738281 81.132812 54.421875 C 81.429688 55.101562 81.636719 55.808594 81.753906 56.523438 C 81.839844 57.03125 81.875 57.542969 81.867188 58.050781 C 81.59375 58.101562 81.320312 58.160156 81.042969 58.230469 C 81.007812 57.941406 80.957031 57.652344 80.890625 57.371094 C 80.75 56.804688 80.5625 56.257812 80.28125 55.753906 L 80.007812 55.835938 C 80.039062 56.390625 80.058594 56.929688 80.03125 57.457031 C 80.015625 57.835938 79.976562 58.207031 79.929688 58.570312 C 78.25 59.191406 76.742188 60.285156 76.300781 62.207031 C 76.300781 62.207031 74.582031 60.417969 76.113281 56.695312 C 76.113281 56.695312 68.988281 61.589844 74.496094 70.5 C 74.496094 70.5 83.585938 63.671875 85.851562 64.6875 C 88.121094 65.707031 92.1875 69.066406 92.1875 69.066406 C 92.1875 69.066406 88.546875 74.140625 86.402344 74.488281 C 84.257812 74.835938 77.664062 74.023438 75.574219 74.894531 C 73.480469 75.769531 74.28125 83.960938 74.28125 83.960938 C 74.28125 83.960938 65.953125 74.429688 65.585938 69.179688 C 65.21875 74.429688 56.894531 83.960938 56.894531 83.960938 C 56.894531 83.960938 57.691406 75.769531 55.597656 74.894531 C 53.507812 74.023438 46.917969 74.835938 44.769531 74.488281 C 42.625 74.140625 38.988281 69.066406 38.988281 69.066406 C 38.988281 69.066406 43.050781 65.707031 45.324219 64.6875 C 47.585938 63.671875 56.675781 70.5 56.675781 70.5 C 62.1875 61.589844 55.058594 56.695312 55.058594 56.695312 C 56.589844 60.417969 54.871094 62.207031 54.871094 62.207031 C 54.433594 60.285156 52.921875 59.191406 51.246094 58.570312 C 51.195312 58.207031 51.15625 57.835938 51.144531 57.457031 C 51.113281 56.929688 51.136719 56.390625 51.164062 55.835938 L 50.894531 55.753906 C 50.613281 56.257812 50.421875 56.804688 50.28125 57.371094 C 50.214844 57.652344 50.167969 57.941406 50.132812 58.230469 C 49.855469 58.160156 49.578125 58.101562 49.308594 58.050781 C 49.296875 57.542969 49.335938 57.03125 49.421875 56.523438 C 49.539062 55.808594 49.746094 55.101562 50.039062 54.421875 C 50.332031 53.738281 50.722656 53.097656 51.191406 52.484375 L 51 52.273438 C 50.332031 52.722656 49.761719 53.324219 49.289062 53.996094 C 48.820312 54.675781 48.460938 55.433594 48.222656 56.238281 C 48.066406 56.765625 47.96875 57.308594 47.917969 57.863281 C 47.542969 57.824219 47.195312 57.804688 46.890625 57.796875 C 46.90625 57.546875 46.929688 57.296875 46.96875 57.046875 C 47.109375 56.15625 47.394531 55.269531 47.777344 54.417969 C 48.164062 53.5625 48.648438 52.738281 49.179688 51.921875 C 49.703125 51.105469 50.28125 50.308594 50.828125 49.476562 L 50.613281 49.292969 C 49.871094 49.953125 49.167969 50.652344 48.492188 51.394531 C 47.824219 52.144531 47.203125 52.953125 46.683594 53.851562 C 46.285156 54.539062 45.960938 55.28125 45.722656 56.058594 C 47.582031 45.78125 60.960938 39.386719 60.960938 39.386719 C 57.679688 39.121094 53.027344 41.175781 53.027344 41.175781 C 51.023438 33.851562 35.257812 23.554688 35.257812 23.554688 C 35.257812 23.554688 31.566406 32.253906 29.507812 38.597656 C 27.414062 45.058594 30.171875 51.859375 30.171875 51.863281 L 31.828125 58.488281 C 27.824219 61.066406 22.4375 65.082031 21.207031 68.695312 C 19.1875 74.609375 18.566406 76.945312 18.566406 76.945312 L 22.71875 75.460938 C 22.230469 76.394531 21.777344 77.351562 21.371094 78.324219 C 20.808594 79.660156 20.328125 81.03125 19.933594 82.425781 C 19.546875 83.820312 19.230469 85.234375 19.035156 86.664062 L 19.3125 86.726562 C 19.753906 85.363281 20.21875 84.019531 20.753906 82.707031 C 21.28125 81.390625 21.859375 80.097656 22.492188 78.839844 C 23.117188 77.589844 23.792969 76.371094 24.523438 75.191406 C 23.761719 77.472656 20.199219 88.519531 20.894531 92.972656 C 20.976562 93.488281 21.128906 93.976562 21.339844 94.453125 C 21.410156 95.074219 21.53125 95.691406 21.722656 96.292969 C 21.765625 96.46875 21.832031 96.636719 21.90625 96.800781 L 22.113281 97.296875 C 22.253906 97.628906 22.464844 97.925781 22.636719 98.238281 C 22.722656 98.402344 22.839844 98.539062 22.949219 98.679688 L 23.28125 99.101562 C 23.394531 99.25 23.503906 99.375 23.609375 99.492188 L 23.933594 99.855469 C 24.789062 100.832031 25.609375 101.832031 26.320312 102.882812 C 27.035156 103.9375 27.609375 105.054688 27.976562 106.261719 C 28.164062 106.867188 28.316406 107.488281 28.441406 108.121094 C 28.550781 108.726562 28.691406 109.472656 28.957031 110.105469 C 29.492188 111.386719 30.277344 112.496094 31.125 113.523438 C 31.980469 114.546875 32.910156 115.492188 33.929688 116.34375 L 34.121094 116.132812 C 33.207031 115.207031 32.363281 114.199219 31.597656 113.15625 C 30.839844 112.105469 30.175781 110.984375 29.765625 109.804688 C 29.5625 109.207031 29.484375 108.648438 29.398438 107.957031 C 29.300781 107.292969 29.179688 106.625 29.007812 105.964844 C 28.664062 104.636719 28.070312 103.363281 27.351562 102.214844 C 26.644531 101.054688 25.808594 100 24.964844 98.972656 L 24.746094 98.714844 C 27.164062 101.007812 30.011719 103.347656 31.144531 106.667969 C 33.164062 112.582031 41.550781 121.140625 45.589844 123.632812 C 49.625 126.121094 52.265625 127.523438 52.265625 127.523438 C 52.265625 127.523438 49.824219 123.101562 47.804688 118.59375 C 47.9375 118.742188 48.015625 118.828125 48.015625 118.828125 C 47.9375 118.746094 47.859375 118.652344 47.785156 118.542969 C 47.367188 117.605469 46.964844 116.664062 46.609375 115.761719 C 46.097656 114.039062 45.65625 111.867188 45.292969 109.6875 C 45.292969 109.6875 45.292969 109.683594 45.292969 109.683594 C 44.488281 104.863281 44.054688 100.027344 44.054688 100.027344 C 41.898438 93.035156 33.429688 84.417969 33.429688 84.417969 C 34.367188 84.398438 35.289062 84.511719 36.1875 84.722656 C 36.445312 84.859375 36.707031 85 36.960938 85.148438 C 38.125 85.824219 39.230469 86.617188 40.28125 87.484375 L 41.058594 88.148438 L 41.804688 88.847656 C 42.296875 89.324219 42.773438 89.8125 43.21875 90.332031 C 44.125 91.355469 44.9375 92.46875 45.578125 93.691406 L 45.839844 93.589844 C 45.421875 92.226562 44.710938 90.964844 43.898438 89.796875 C 43.296875 88.9375 42.625 88.125 41.898438 87.363281 C 45.152344 89.574219 47.324219 92.222656 47.324219 92.222656 L 52.726562 86.503906 C 52.726562 86.503906 52.148438 87.847656 51.523438 90.019531 L 51.253906 90.363281 L 50.714844 91.113281 L 50.207031 91.890625 C 49.5625 92.941406 49.011719 94.046875 48.566406 95.191406 C 48.125 96.335938 47.792969 97.519531 47.574219 98.722656 C 47.363281 99.921875 47.257812 101.136719 47.304688 102.34375 L 47.585938 102.363281 C 47.796875 101.191406 48.058594 100.042969 48.414062 98.925781 C 48.765625 97.808594 49.195312 96.726562 49.699219 95.683594 C 49.796875 95.480469 49.898438 95.277344 50.003906 95.078125 C 49.640625 96.191406 49.394531 97.335938 49.273438 98.488281 C 49.105469 100.054688 49.164062 101.636719 49.453125 103.167969 C 49.746094 104.699219 50.253906 106.1875 51.011719 107.523438 L 51.269531 107.40625 C 50.757812 105.988281 50.429688 104.523438 50.308594 103.050781 C 50.234375 102.179688 50.234375 101.308594 50.289062 100.441406 C 51.410156 105.175781 56.207031 108.328125 59.308594 109.023438 C 63.003906 109.855469 65.585938 107.65625 65.585938 107.65625 C 65.585938 107.65625 68.171875 109.855469 71.867188 109.023438 C 74.96875 108.328125 79.765625 105.175781 80.882812 100.441406 C 80.941406 101.308594 80.941406 102.179688 80.867188 103.050781 C 80.746094 104.523438 80.414062 105.988281 79.90625 107.40625 L 80.160156 107.523438 C 80.921875 106.1875 81.429688 104.699219 81.722656 103.167969 C 82.007812 101.636719 82.066406 100.054688 81.902344 98.488281 C 81.78125 97.335938 81.535156 96.191406 81.171875 95.078125 C 81.277344 95.277344 81.378906 95.480469 81.476562 95.683594 C 81.980469 96.726562 82.410156 97.808594 82.757812 98.925781 C 83.117188 100.042969 83.378906 101.191406 83.585938 102.363281 L 83.871094 102.34375 C 83.917969 101.136719 83.808594 99.921875 83.597656 98.722656 C 83.382812 97.519531 83.046875 96.335938 82.605469 95.191406 C 82.164062 94.046875 81.613281 92.941406 80.964844 91.890625 L 80.460938 91.113281 L 79.917969 90.363281 L 79.648438 90.019531 C 79.023438 87.847656 78.445312 86.503906 78.445312 86.503906 L 83.847656 92.222656 C 83.847656 92.222656 86.023438 89.574219 89.273438 87.363281 C 88.550781 88.125 87.878906 88.9375 87.273438 89.796875 C 86.464844 90.964844 85.753906 92.226562 85.332031 93.589844 L 85.597656 93.691406 C 86.238281 92.46875 87.050781 91.355469 87.953125 90.332031 C 88.402344 89.8125 88.878906 89.324219 89.371094 88.847656 L 90.117188 88.148438 L 90.890625 87.484375 C 91.941406 86.617188 93.050781 85.824219 94.214844 85.148438 C 94.46875 85 94.726562 84.859375 94.988281 84.722656 C 95.886719 84.511719 96.808594 84.398438 97.742188 84.417969 C 97.742188 84.417969 89.277344 93.035156 87.117188 100.027344 C 87.117188 100.027344 86.6875 104.863281 85.878906 109.683594 C 85.878906 109.683594 85.878906 109.6875 85.878906 109.6875 C 85.515625 111.867188 85.074219 114.039062 84.5625 115.757812 C 84.207031 116.664062 83.808594 117.605469 83.390625 118.542969 C 83.3125 118.652344 83.234375 118.746094 83.160156 118.828125 C 83.160156 118.828125 83.234375 118.746094 83.367188 118.59375 C 81.351562 123.101562 78.90625 127.523438 78.90625 127.523438 C 78.90625 127.523438 81.546875 126.121094 85.585938 123.632812 C 89.625 121.140625 98.011719 112.582031 100.027344 106.667969 C 101.164062 103.347656 104.011719 101.007812 106.425781 98.714844 L 106.207031 98.972656 C 105.363281 100 104.53125 101.054688 103.820312 102.214844 C 103.101562 103.363281 102.511719 104.636719 102.167969 105.964844 C 101.996094 106.625 101.875 107.292969 101.777344 107.957031 C 101.6875 108.648438 101.613281 109.207031 101.40625 109.804688 C 101 110.984375 100.332031 112.105469 99.578125 113.15625 C 98.8125 114.199219 97.964844 115.207031 97.054688 116.132812 L 97.242188 116.34375 C 98.261719 115.492188 99.191406 114.546875 100.046875 113.523438 C 100.894531 112.496094 101.679688 111.386719 102.21875 110.105469 C 102.480469 109.472656 102.625 108.726562 102.730469 108.121094 C 102.859375 107.488281 103.007812 106.867188 103.195312 106.261719 C 103.566406 105.054688 104.140625 103.9375 104.855469 102.882812 C 105.566406 101.832031 106.386719 100.832031 107.242188 99.855469 L 107.5625 99.492188 C 107.671875 99.375 107.78125 99.25 107.890625 99.101562 L 108.222656 98.679688 C 108.332031 98.539062 108.453125 98.402344 108.535156 98.238281 C 108.710938 97.925781 108.921875 97.628906 109.058594 97.296875 L 109.269531 96.800781 C 109.339844 96.636719 109.40625 96.46875 109.449219 96.292969 C 109.644531 95.691406 109.765625 95.074219 109.835938 94.453125 C 110.042969 93.976562 110.199219 93.488281 110.277344 92.972656 C 110.972656 88.519531 107.410156 77.472656 106.652344 75.191406 C 107.382812 76.371094 108.058594 77.589844 108.683594 78.839844 C 109.316406 80.097656 109.894531 81.390625 110.421875 82.707031 C 110.953125 84.019531 111.417969 85.363281 111.859375 86.726562 L 112.136719 86.664062 C 111.941406 85.234375 111.628906 83.820312 111.238281 82.425781 C 110.84375 81.03125 110.363281 79.660156 109.800781 78.324219 C 109.394531 77.351562 108.945312 76.394531 108.453125 75.460938 Z M 80.945312 133.707031 C 80.945312 133.707031 78.320312 134.074219 75.816406 134.71875 C 75.484375 136.421875 74.957031 138.136719 74.121094 139.480469 C 71.933594 143.003906 67.734375 146.480469 67.558594 146.625 L 66.546875 147.457031 C 78.300781 143.632812 80.945312 133.707031 80.945312 133.707031 Z M 68.53125 141.472656 C 69.582031 140.386719 70.699219 139.101562 71.484375 137.835938 C 71.8125 137.304688 72.078125 136.675781 72.296875 135.988281 C 73.375 132.617188 73.261719 127.945312 73.261719 127.945312 C 72.222656 129.042969 70.828125 129.597656 69.425781 129.597656 C 68.109375 129.597656 66.789062 129.105469 65.761719 128.113281 L 65.585938 127.945312 L 65.410156 128.113281 C 64.386719 129.105469 63.066406 129.597656 61.746094 129.597656 C 60.347656 129.597656 58.949219 129.042969 57.910156 127.945312 C 57.910156 127.945312 57.796875 132.617188 58.875 135.988281 C 59.09375 136.675781 59.359375 137.304688 59.6875 137.835938 C 60.476562 139.101562 61.589844 140.386719 62.640625 141.472656 C 64.1875 143.066406 65.585938 144.21875 65.585938 144.21875 C 65.585938 144.21875 66.988281 143.066406 68.53125 141.472656 Z M 56.148438 115.519531 C 57.222656 116.382812 60 117.304688 62.265625 117.957031 C 64.4375 118.582031 66.738281 118.582031 68.90625 117.957031 C 71.171875 117.304688 73.949219 116.382812 75.023438 115.519531 C 76.964844 113.964844 76.5 109.683594 76.5 109.683594 C 76.5 109.683594 73.160156 112.175781 71.140625 112.328125 C 69.121094 112.484375 65.585938 110.929688 65.585938 110.929688 C 65.585938 110.929688 62.050781 112.484375 60.03125 112.328125 C 58.011719 112.175781 54.671875 109.683594 54.671875 109.683594 C 54.671875 109.683594 54.207031 113.964844 56.148438 115.519531 Z M 64.628906 147.457031 L 63.613281 146.625 C 63.4375 146.476562 59.242188 143.003906 57.050781 139.480469 C 56.21875 138.136719 55.691406 136.421875 55.355469 134.71875 C 52.851562 134.074219 50.226562 133.707031 50.226562 133.707031 C 50.226562 133.707031 52.875 143.632812 64.628906 147.457031 Z M 59.632812 52.378906 C 59.632812 55.675781 62.296875 58.34375 65.585938 58.34375 C 67.707031 58.34375 69.566406 57.230469 70.621094 55.558594 C 69.824219 56.328125 68.742188 56.804688 67.550781 56.804688 C 65.109375 56.804688 63.132812 54.820312 63.132812 52.378906 C 63.132812 49.933594 65.109375 47.953125 67.550781 47.953125 C 68.742188 47.953125 69.824219 48.429688 70.621094 49.199219 C 69.566406 47.527344 67.707031 46.414062 65.585938 46.414062 C 62.296875 46.414062 59.632812 49.082031 59.632812 52.378906 Z M 123.164062 91.867188 C 123.164062 92.332031 123.144531 92.800781 123.109375 93.265625 C 123.074219 93.730469 123.023438 94.195312 122.957031 94.660156 C 122.925781 94.890625 122.890625 95.125 122.847656 95.355469 C 122.765625 95.820312 122.671875 96.28125 122.5625 96.746094 C 122.507812 96.976562 122.449219 97.207031 122.386719 97.4375 C 122.308594 97.746094 122.21875 98.050781 122.125 98.355469 C 122.078125 98.511719 122.03125 98.667969 121.980469 98.828125 C 122.03125 98.664062 122.074219 98.503906 122.125 98.339844 C 121.265625 93.335938 117.75 87.292969 117.75 87.292969 C 120.546875 97.226562 119.097656 101.117188 119.097656 101.117188 L 114.023438 95.828125 C 114.023438 95.828125 116.40625 102.46875 116.148438 104.210938 C 115.890625 105.957031 114.957031 107.34375 114.957031 107.34375 C 114.644531 104.851562 109.984375 102.15625 109.984375 102.15625 C 109.984375 102.15625 111.953125 107.964844 112.265625 110.871094 C 112.449219 112.605469 111.859375 115.925781 111.355469 118.324219 L 111.351562 118.347656 C 110.992188 118.859375 110.632812 119.363281 110.265625 119.863281 C 109.4375 121 108.59375 122.121094 107.71875 123.214844 C 103.273438 128.769531 98.195312 133.796875 92.300781 138.164062 C 91.78125 138.546875 91.269531 138.9375 90.757812 139.324219 C 90.242188 139.707031 89.726562 140.085938 89.199219 140.445312 C 88.933594 140.625 88.667969 140.796875 88.402344 140.964844 C 87.597656 141.464844 86.761719 141.898438 85.875 142.21875 C 85.816406 142.21875 85.769531 142.207031 85.71875 142.199219 L 85.769531 142.164062 L 86.5625 141.5625 L 87.332031 140.9375 C 88.335938 140.082031 89.285156 139.160156 90.160156 138.171875 C 91.03125 137.183594 91.832031 136.136719 92.546875 135.035156 C 93.257812 133.933594 93.894531 132.785156 94.410156 131.585938 L 94.164062 131.449219 C 93.429688 132.511719 92.671875 133.546875 91.851562 134.523438 C 91.039062 135.503906 90.175781 136.4375 89.269531 137.320312 C 88.777344 137.796875 88.269531 138.257812 87.75 138.707031 C 89.996094 136.179688 92.414062 132.804688 93.109375 129.390625 C 93.109375 129.390625 85.042969 138.78125 82.25 140.867188 C 82.085938 140.980469 81.921875 141.089844 81.757812 141.203125 C 81.523438 141.359375 81.292969 141.515625 81.0625 141.675781 C 80.082031 142.351562 79.113281 143.035156 78.140625 143.71875 C 74.171875 146.527344 70.214844 149.347656 65.777344 151.429688 C 64.175781 150.667969 62.636719 149.832031 61.140625 148.941406 C 60.59375 148.621094 60.058594 148.289062 59.523438 147.957031 C 59.347656 147.84375 59.171875 147.730469 58.996094 147.617188 C 58.644531 147.390625 58.289062 147.164062 57.941406 146.9375 C 57.734375 146.800781 57.53125 146.664062 57.324219 146.527344 C 57.007812 146.3125 56.691406 146.101562 56.375 145.886719 C 56.167969 145.742188 55.957031 145.601562 55.75 145.457031 C 55.441406 145.242188 55.132812 145.027344 54.824219 144.8125 C 54.621094 144.667969 54.417969 144.527344 54.214844 144.382812 C 53.894531 144.15625 53.574219 143.929688 53.257812 143.703125 C 53.078125 143.574219 52.898438 143.449219 52.722656 143.320312 C 52.164062 142.921875 51.609375 142.523438 51.058594 142.128906 C 50.945312 142.046875 50.835938 141.96875 50.726562 141.886719 C 50.386719 141.644531 50.046875 141.402344 49.710938 141.160156 C 49.3125 140.875 48.914062 140.59375 48.515625 140.3125 C 48.804688 140.515625 49.09375 140.722656 49.382812 140.925781 C 46.664062 138.960938 38.445312 129.390625 38.445312 129.390625 C 39.265625 133.40625 42.460938 137.367188 44.964844 139.957031 L 44.761719 139.804688 C 43.765625 139.035156 42.8125 138.203125 41.90625 137.320312 C 41 136.4375 40.136719 135.503906 39.324219 134.523438 C 38.503906 133.546875 37.746094 132.511719 37.011719 131.449219 L 36.761719 131.585938 C 37.277344 132.785156 37.917969 133.933594 38.625 135.035156 C 39.34375 136.136719 40.140625 137.183594 41.015625 138.171875 C 41.886719 139.160156 42.835938 140.082031 43.84375 140.9375 L 44.613281 141.5625 L 45.1875 142 C 44.667969 141.757812 44.15625 141.5 43.652344 141.222656 C 43.398438 141.085938 43.148438 140.941406 42.898438 140.796875 C 41.898438 140.214844 40.921875 139.574219 39.960938 138.890625 C 39.480469 138.550781 39.003906 138.195312 38.53125 137.832031 C 38.0625 137.46875 37.59375 137.097656 37.132812 136.722656 C 36.667969 136.34375 36.207031 135.957031 35.75 135.566406 C 35.066406 134.980469 34.386719 134.382812 33.710938 133.78125 C 33.03125 133.171875 32.363281 132.554688 31.703125 131.925781 C 31.046875 131.300781 30.398438 130.667969 29.765625 130.027344 C 26.269531 126.496094 23.121094 122.71875 20.285156 118.722656 C 19.761719 116.308594 19.09375 112.703125 19.289062 110.871094 C 19.601562 107.964844 21.566406 102.15625 21.566406 102.15625 C 21.566406 102.15625 16.910156 104.851562 16.597656 107.34375 C 16.597656 107.34375 15.660156 105.957031 15.40625 104.210938 C 15.148438 102.46875 17.53125 95.828125 17.53125 95.828125 L 12.457031 101.117188 C 12.457031 101.117188 11.007812 97.226562 13.800781 87.292969 C 13.800781 87.292969 10.164062 93.554688 9.390625 98.605469 C 9.382812 98.640625 9.375 98.714844 9.375 98.714844 C 9.375 98.714844 9.328125 98.605469 9.316406 98.578125 C 8.984375 97.753906 8.707031 96.941406 8.496094 96.128906 C 8.421875 95.851562 8.355469 95.574219 8.300781 95.296875 C 8.207031 94.851562 8.136719 94.40625 8.085938 93.964844 C 8.0625 93.742188 8.042969 93.519531 8.03125 93.296875 C 8.003906 92.851562 8 92.40625 8.023438 91.960938 C 8.042969 91.515625 8.089844 91.070312 8.164062 90.617188 C 8.234375 90.167969 8.332031 89.71875 8.460938 89.261719 C 8.589844 88.808594 8.742188 88.351562 8.925781 87.886719 C 9.039062 87.609375 9.144531 87.328125 9.25 87.046875 C 9.96875 85.070312 10.484375 83.054688 11.027344 81.335938 C 11 81.140625 10.953125 80.988281 10.894531 80.867188 C 10.867188 80.808594 10.832031 80.753906 10.796875 80.710938 C 10.722656 80.621094 10.636719 80.558594 10.546875 80.515625 C 10.457031 80.472656 10.355469 80.445312 10.253906 80.429688 C 10.152344 80.414062 10.046875 80.410156 9.941406 80.402344 C 9.890625 80.398438 9.839844 80.394531 9.789062 80.390625 C 9.6875 80.382812 9.589844 80.367188 9.5 80.339844 C 9.320312 80.28125 9.175781 80.164062 9.09375 79.914062 C 9.617188 77.53125 10.304688 75.234375 11.144531 73.015625 C 11.984375 70.796875 12.980469 68.65625 14.113281 66.59375 C 14.683594 65.5625 15.285156 64.550781 15.921875 63.558594 C 16.554688 62.5625 17.226562 61.589844 17.925781 60.632812 C 18.628906 59.675781 19.363281 58.738281 20.125 57.816406 C 20.507812 57.355469 20.898438 56.902344 21.292969 56.449219 C 21.691406 55.996094 22.09375 55.550781 22.503906 55.105469 C 22.664062 54.9375 22.8125 54.765625 22.960938 54.597656 C 23.964844 53.429688 24.722656 52.242188 25.257812 50.972656 C 25.347656 50.765625 25.429688 50.554688 25.507812 50.339844 C 25.546875 50.226562 25.585938 50.109375 25.625 49.992188 C 25.988281 48.882812 26.203125 47.707031 26.292969 46.410156 C 26.3125 46.160156 26.324219 45.90625 26.332031 45.648438 C 26.496094 40.253906 27.472656 35.113281 29.230469 30.25 C 29.667969 29.035156 30.15625 27.835938 30.695312 26.652344 C 31.230469 25.472656 31.816406 24.304688 32.449219 23.160156 C 33.082031 22.015625 33.765625 20.886719 34.492188 19.773438 C 35.222656 18.664062 35.996094 17.570312 36.820312 16.496094 C 36.917969 16.367188 37.058594 16.210938 37.230469 16.027344 C 37.402344 15.847656 37.605469 15.644531 37.824219 15.429688 C 37.992188 15.269531 38.171875 15.097656 38.355469 14.925781 C 38.589844 14.703125 38.832031 14.480469 39.074219 14.261719 C 39.386719 13.976562 39.695312 13.699219 39.972656 13.453125 C 40.082031 13.355469 40.1875 13.261719 40.285156 13.171875 C 40.785156 12.734375 41.128906 12.4375 41.128906 12.4375 C 41.128906 12.4375 41.5625 13.035156 42.226562 13.976562 L 42.242188 14.074219 C 42.410156 15.050781 42.601562 16.015625 42.824219 16.980469 C 43.050781 17.941406 43.308594 18.894531 43.597656 19.835938 C 43.890625 20.777344 44.203125 21.714844 44.582031 22.628906 L 44.855469 22.554688 L 44.4375 19.648438 C 44.296875 18.683594 44.164062 17.71875 44.039062 16.757812 C 44.027344 16.6875 44.019531 16.613281 44.011719 16.542969 C 44.378906 17.078125 44.757812 17.640625 45.140625 18.210938 C 45.410156 18.617188 45.679688 19.023438 45.945312 19.429688 C 46 20.070312 46.074219 20.707031 46.179688 21.335938 C 46.304688 22.109375 46.472656 22.875 46.679688 23.632812 C 46.894531 24.382812 47.128906 25.128906 47.441406 25.847656 L 47.714844 25.78125 C 47.65625 25.007812 47.582031 24.246094 47.53125 23.484375 C 47.492188 22.921875 47.464844 22.359375 47.4375 21.796875 C 47.765625 22.339844 48.058594 22.851562 48.308594 23.3125 C 48.527344 23.71875 48.761719 24.109375 48.996094 24.488281 L 49.046875 24.738281 L 49.261719 25.738281 C 49.425781 26.402344 49.609375 27.058594 49.820312 27.707031 C 50.035156 28.355469 50.273438 28.992188 50.542969 29.617188 C 50.816406 30.242188 51.101562 30.859375 51.449219 31.449219 L 51.71875 31.351562 C 51.613281 30.679688 51.480469 30.027344 51.367188 29.367188 L 51.015625 27.40625 C 51.003906 27.332031 50.992188 27.261719 50.980469 27.1875 C 51.191406 27.425781 51.40625 27.660156 51.625 27.886719 C 53.746094 30.066406 56.332031 31.667969 59.441406 32.769531 C 59.460938 32.777344 59.476562 32.78125 59.492188 32.785156 C 59.734375 32.871094 59.976562 32.953125 60.21875 33.027344 C 60.316406 33.054688 60.414062 33.082031 60.511719 33.109375 C 60.675781 33.15625 60.839844 33.207031 61.003906 33.246094 C 61.117188 33.277344 61.230469 33.300781 61.34375 33.328125 C 61.492188 33.367188 61.644531 33.402344 61.792969 33.4375 C 61.914062 33.460938 62.035156 33.484375 62.15625 33.507812 C 62.300781 33.535156 62.445312 33.566406 62.585938 33.589844 C 62.710938 33.609375 62.835938 33.625 62.960938 33.644531 C 63.101562 33.667969 63.242188 33.691406 63.382812 33.707031 C 63.511719 33.722656 63.636719 33.734375 63.761719 33.75 C 63.902344 33.765625 64.042969 33.78125 64.183594 33.792969 C 64.3125 33.804688 64.4375 33.8125 64.5625 33.820312 C 64.703125 33.828125 64.84375 33.839844 64.984375 33.847656 C 65.113281 33.851562 65.238281 33.851562 65.363281 33.855469 C 65.503906 33.859375 65.644531 33.863281 65.785156 33.867188 C 65.808594 33.867188 65.828125 33.867188 65.851562 33.867188 C 65.894531 33.867188 65.9375 33.863281 65.984375 33.863281 C 66.28125 33.859375 66.578125 33.851562 66.875 33.835938 C 66.960938 33.832031 67.042969 33.828125 67.125 33.820312 C 67.46875 33.800781 67.8125 33.769531 68.152344 33.730469 C 68.207031 33.722656 68.265625 33.714844 68.320312 33.707031 C 68.617188 33.667969 68.914062 33.625 69.210938 33.570312 C 69.292969 33.558594 69.375 33.542969 69.457031 33.527344 C 69.796875 33.464844 70.132812 33.394531 70.464844 33.3125 C 70.515625 33.300781 70.5625 33.285156 70.609375 33.277344 C 70.90625 33.199219 71.199219 33.121094 71.492188 33.03125 C 71.570312 33.007812 71.652344 32.984375 71.730469 32.957031 C 72.058594 32.855469 72.386719 32.746094 72.710938 32.625 C 72.75 32.609375 72.789062 32.59375 72.828125 32.578125 C 73.117188 32.464844 73.402344 32.347656 73.6875 32.222656 C 73.765625 32.1875 73.84375 32.15625 73.917969 32.121094 C 74.234375 31.976562 74.546875 31.828125 74.851562 31.667969 C 74.882812 31.652344 74.914062 31.636719 74.945312 31.617188 C 75.222656 31.472656 75.5 31.316406 75.773438 31.152344 C 75.84375 31.109375 75.917969 31.066406 75.988281 31.023438 C 76.285156 30.84375 76.578125 30.65625 76.867188 30.457031 C 76.886719 30.441406 76.910156 30.425781 76.933594 30.40625 C 77.199219 30.222656 77.460938 30.027344 77.714844 29.832031 C 77.785156 29.777344 77.851562 29.726562 77.917969 29.671875 C 78.191406 29.453125 78.460938 29.230469 78.722656 28.996094 C 78.734375 28.980469 78.75 28.964844 78.765625 28.953125 C 79.011719 28.730469 79.25 28.5 79.488281 28.261719 C 79.546875 28.199219 79.609375 28.136719 79.671875 28.070312 C 79.828125 27.910156 79.976562 27.742188 80.128906 27.574219 L 80.125 27.582031 L 79.804688 29.367188 C 79.691406 30.027344 79.558594 30.679688 79.457031 31.351562 L 79.722656 31.449219 C 80.070312 30.859375 80.359375 30.242188 80.632812 29.617188 C 80.902344 28.992188 81.140625 28.355469 81.351562 27.707031 C 81.5625 27.058594 81.746094 26.402344 81.910156 25.738281 L 82.078125 24.96875 C 82.203125 24.773438 82.328125 24.574219 82.453125 24.375 C 82.886719 23.652344 83.304688 22.921875 83.714844 22.183594 C 83.691406 22.617188 83.675781 23.050781 83.640625 23.484375 C 83.59375 24.246094 83.515625 25.007812 83.457031 25.78125 L 83.734375 25.847656 C 84.042969 25.128906 84.28125 24.382812 84.492188 23.632812 C 84.699219 22.875 84.867188 22.109375 84.996094 21.335938 C 85.097656 20.722656 85.167969 20.101562 85.222656 19.480469 C 85.625 18.773438 86.035156 18.078125 86.46875 17.394531 C 86.660156 17.089844 86.90625 16.75 87.179688 16.390625 C 87.164062 16.511719 87.152344 16.636719 87.136719 16.757812 C 87.007812 17.71875 86.875 18.683594 86.734375 19.648438 L 86.320312 22.554688 L 86.59375 22.628906 C 86.96875 21.714844 87.28125 20.777344 87.578125 19.835938 C 87.867188 18.894531 88.121094 17.941406 88.347656 16.980469 C 88.554688 16.097656 88.730469 15.210938 88.886719 14.320312 C 89.082031 14.097656 89.269531 13.882812 89.441406 13.691406 C 89.996094 13.066406 90.394531 12.644531 90.394531 12.644531 C 90.394531 12.644531 90.40625 12.652344 90.429688 12.667969 C 90.476562 12.707031 90.5625 12.773438 90.6875 12.871094 C 90.746094 12.917969 90.816406 12.976562 90.894531 13.035156 C 91.125 13.21875 91.417969 13.457031 91.742188 13.730469 C 92.175781 14.09375 92.667969 14.519531 93.132812 14.953125 C 93.714844 15.492188 94.265625 16.050781 94.625 16.523438 C 95.890625 18.191406 97.042969 19.898438 98.082031 21.648438 C 99.367188 23.808594 100.472656 26.035156 101.410156 28.320312 C 101.554688 28.671875 101.695312 29.023438 101.832031 29.375 C 102.664062 31.542969 103.347656 33.761719 103.871094 36.035156 C 104.664062 39.457031 105.113281 42.988281 105.207031 46.644531 C 105.21875 47.03125 105.238281 47.40625 105.273438 47.773438 C 105.328125 48.324219 105.410156 48.851562 105.527344 49.359375 C 105.605469 49.695312 105.699219 50.027344 105.804688 50.347656 C 105.914062 50.671875 106.039062 50.988281 106.179688 51.296875 C 106.320312 51.609375 106.476562 51.914062 106.652344 52.210938 C 106.828125 52.511719 107.019531 52.808594 107.230469 53.097656 C 107.441406 53.390625 107.671875 53.679688 107.921875 53.964844 C 108.046875 54.109375 108.175781 54.253906 108.308594 54.394531 C 108.929688 55.054688 109.535156 55.722656 110.125 56.402344 C 110.71875 57.082031 111.289062 57.769531 111.847656 58.472656 C 112.300781 59.039062 112.75 59.613281 113.179688 60.199219 C 113.777344 61.003906 114.355469 61.828125 114.910156 62.664062 C 115.183594 63.082031 115.457031 63.503906 115.722656 63.925781 C 116.085938 64.507812 116.433594 65.097656 116.773438 65.6875 C 117.355469 66.699219 117.90625 67.726562 118.421875 68.773438 C 118.941406 69.820312 119.425781 70.886719 119.878906 71.976562 C 120.265625 72.917969 120.628906 73.871094 120.96875 74.839844 C 121.179688 75.445312 121.378906 76.046875 121.515625 76.632812 C 121.597656 76.984375 121.660156 77.328125 121.6875 77.667969 C 121.703125 77.859375 121.707031 78.054688 121.695312 78.242188 C 121.6875 78.429688 121.667969 78.617188 121.628906 78.800781 C 121.484375 79.53125 121.097656 80.210938 120.339844 80.820312 C 120.464844 81.332031 120.523438 81.726562 120.601562 82.050781 C 120.621094 82.132812 120.644531 82.210938 120.667969 82.28125 C 120.699219 82.386719 120.738281 82.480469 120.785156 82.570312 C 120.980469 82.9375 121.160156 83.300781 121.328125 83.667969 C 121.496094 84.03125 121.65625 84.394531 121.796875 84.753906 C 121.894531 84.996094 121.984375 85.238281 122.070312 85.476562 C 122.582031 86.917969 122.902344 88.34375 123.054688 89.753906 C 123.132812 90.460938 123.167969 91.164062 123.164062 91.867188 Z M 121.054688 101.34375 C 121.113281 101.199219 121.175781 101.050781 121.234375 100.90625 C 121.175781 101.050781 121.113281 101.199219 121.054688 101.34375 " fill-opacity="1" fill-rule="nonzero"/></g></svg>