<svg xmlns="http://www.w3.org/2000/svg" xmlns:xlink="http://www.w3.org/1999/xlink" width="130" zoomAndPan="magnify" viewBox="0 0 97.5 131.999998" height="176" preserveAspectRatio="xMidYMid meet" version="1.0"><defs><clipPath id="62be8d3509"><path d="M 7.320312 16.226562 L 89.976562 16.226562 L 89.976562 115.46875 L 7.320312 115.46875 Z M 7.320312 16.226562 " clip-rule="nonzero"/></clipPath></defs><g clip-path="url(#62be8d3509)"><path fill="#3e5eb4" d="M 88.285156 66.015625 C 89.542969 64.113281 88.769531 61.910156 88.363281 60.746094 C 86.503906 55.464844 83.449219 50.566406 79.28125 46.191406 C 78.21875 45.078125 77.789062 44 77.746094 42.347656 C 77.542969 34.398438 74.972656 27.144531 70.105469 20.796875 C 69.199219 19.609375 67.21875 18.078125 66.832031 17.78125 L 65.3125 16.625 L 64 18.011719 C 63.789062 18.234375 61.914062 20.234375 61.085938 21.527344 C 60.511719 22.421875 60 23.339844 59.507812 24.226562 C 58.984375 25.160156 58.492188 26.042969 57.945312 26.882812 C 56.011719 29.839844 52.519531 31.675781 48.828125 31.675781 C 47.574219 31.675781 46.339844 31.46875 45.171875 31.054688 C 42.230469 30.019531 40.1875 28.304688 38.742188 25.652344 C 37.304688 23.011719 33.851562 18.277344 33.703125 18.074219 L 32.355469 16.226562 L 30.613281 17.714844 C 29.84375 18.375 27.984375 19.992188 27.382812 20.769531 C 22.589844 26.96875 20.039062 34 19.804688 41.667969 C 19.738281 43.78125 19.167969 45.1875 17.761719 46.6875 C 12.785156 52 9.535156 57.964844 8.113281 64.414062 L 7.988281 64.96875 L 8.164062 65.507812 C 8.277344 65.859375 8.515625 66.355469 9.011719 66.734375 C 8.742188 67.648438 8.457031 68.585938 8.101562 69.46875 C 6.972656 72.269531 7.066406 75.082031 8.394531 78.316406 C 12.375 87.996094 18.140625 96.234375 25.535156 102.800781 C 28.011719 105 30.734375 107.234375 33.863281 108.6875 L 34.335938 108.90625 L 34.863281 108.878906 C 35.773438 108.835938 36.410156 108.457031 36.839844 108.089844 C 37.144531 108.304688 37.449219 108.523438 37.75 108.738281 C 40.882812 110.96875 44.117188 113.273438 47.871094 115.042969 L 48.773438 115.46875 L 49.675781 115.050781 C 52.8125 113.589844 55.589844 111.644531 58.273438 109.761719 C 58.988281 109.257812 59.722656 108.746094 60.457031 108.246094 C 60.886719 108.636719 61.496094 108.984375 62.351562 109.027344 L 62.78125 109.050781 L 63.183594 108.90625 C 64.855469 108.304688 66.195312 107.304688 67.492188 106.335938 C 67.691406 106.183594 67.894531 106.03125 68.097656 105.882812 C 75.75 100.261719 81.972656 92.714844 87.117188 82.820312 C 89.410156 78.410156 91.597656 72.539062 88.285156 66.015625 " fill-opacity="1" fill-rule="nonzero"/></g><path fill="#ffffff" d="M 76.679688 56.003906 C 76.679688 56.003906 76.859375 58.113281 77.601562 58.976562 C 78.339844 59.839844 79.398438 61.019531 79.398438 61.019531 C 79.398438 61.019531 78.121094 56.941406 76.679688 56.003906 Z M 51.636719 89.390625 C 51.636719 89.390625 54.648438 88.707031 54.96875 88.207031 C 55.285156 87.707031 54.96875 87.027344 54.96875 87.027344 Z M 77.546875 70.425781 C 77.550781 70.484375 77.554688 70.542969 77.554688 70.601562 L 77.621094 70.574219 C 77.578125 70.476562 77.546875 70.425781 77.546875 70.425781 Z M 64.539062 89.390625 C 64.007812 90.316406 60.785156 94.03125 60.785156 94.03125 C 60.785156 94.03125 67.535156 89.429688 69.863281 84.292969 C 69.863281 84.292969 65.066406 88.460938 64.539062 89.390625 Z M 67.253906 44.738281 C 66.105469 43.480469 64.75 43.597656 64.75 43.597656 C 65.808594 44.296875 66.832031 46.925781 66.832031 46.925781 C 68.488281 46.925781 70.601562 48.359375 70.601562 48.359375 L 71.167969 46.714844 L 69.613281 46.257812 C 68.695312 45.988281 67.898438 45.441406 67.253906 44.738281 Z M 64.539062 57.171875 C 64.539062 57.171875 63.691406 56.753906 62 56.492188 C 60.308594 56.226562 57.03125 58.976562 57.03125 58.976562 C 57.03125 58.976562 60.253906 59.90625 61.578125 59.433594 C 62.898438 58.960938 64.539062 57.171875 64.539062 57.171875 Z M 77.542969 71.957031 C 77.515625 71.847656 77.492188 71.742188 77.472656 71.632812 C 77.128906 73.726562 75.855469 76.253906 75.855469 76.253906 C 75.855469 76.253906 77.222656 74.945312 77.796875 73.566406 C 77.789062 73.441406 77.78125 73.316406 77.769531 73.191406 C 77.722656 72.777344 77.648438 72.363281 77.542969 71.957031 Z M 35.558594 56.492188 C 33.867188 56.753906 33.019531 57.171875 33.019531 57.171875 C 33.019531 57.171875 34.660156 58.960938 35.980469 59.433594 C 37.304688 59.90625 40.53125 58.976562 40.53125 58.976562 C 40.53125 58.976562 37.25 56.226562 35.558594 56.492188 Z M 48.648438 75.609375 C 45.820312 75.609375 45.253906 76.902344 45.253906 76.902344 C 46.953125 76.253906 48.648438 76.253906 48.648438 76.253906 C 48.648438 76.253906 50.347656 76.253906 52.046875 76.902344 C 52.046875 76.902344 51.480469 75.609375 48.648438 75.609375 Z M 86.277344 81.757812 C 85.855469 82.808594 82.152344 88.636719 82.152344 88.636719 C 82.152344 88.636719 82.160156 88.601562 82.175781 88.53125 C 82.195312 88.4375 82.230469 88.289062 82.273438 88.09375 C 82.371094 87.667969 82.527344 87.035156 82.726562 86.347656 C 82.855469 85.890625 83.007812 85.410156 83.167969 84.949219 C 83.222656 84.796875 83.277344 84.644531 83.335938 84.5 C 83.46875 84.160156 83.605469 83.84375 83.75 83.570312 C 83.820312 83.429688 83.894531 83.300781 83.96875 83.1875 C 84.078125 83.011719 84.191406 82.867188 84.308594 82.757812 C 85.472656 81.65625 86.277344 78.03125 86.277344 78.03125 C 86.277344 78.03125 86.367188 78.609375 86.421875 79.332031 C 86.488281 80.167969 86.503906 81.195312 86.277344 81.757812 " fill-opacity="1" fill-rule="nonzero"/><path fill="#6cc0ed" d="M 28.101562 80.089844 L 28.402344 82.964844 C 28.402344 82.964844 28.191406 84.644531 29.109375 86.605469 C 30.023438 88.566406 36.441406 93.679688 36.441406 93.679688 C 36.441406 93.679688 31.886719 88.144531 31.132812 86.183594 C 30.378906 84.222656 28.101562 80.089844 28.101562 80.089844 Z M 60 106.015625 C 60.304688 105.8125 60.609375 105.609375 60.917969 105.414062 L 60.921875 105.414062 C 60.992188 105.46875 61.058594 105.53125 61.117188 105.597656 C 61.296875 105.792969 61.417969 106.015625 61.535156 106.222656 L 61.796875 106.050781 L 62.320312 105.683594 L 62.832031 105.296875 C 63.144531 105.058594 63.445312 104.8125 63.742188 104.558594 C 65.273438 102.851562 66.917969 100.574219 67.394531 98.269531 C 67.394531 98.269531 61.902344 104.609375 60 106.015625 Z M 26.699219 48.359375 C 26.699219 48.359375 28.8125 46.925781 30.46875 46.925781 C 30.46875 46.925781 31.492188 44.296875 32.550781 43.597656 C 32.550781 43.597656 31.195312 43.480469 30.046875 44.738281 C 29.402344 45.441406 28.605469 45.988281 27.6875 46.257812 L 26.132812 46.714844 Z M 28.703125 48.601562 C 27.851562 48.976562 27.085938 49.429688 26.402344 49.933594 C 26.214844 50.074219 26.03125 50.214844 25.855469 50.363281 C 25.726562 50.386719 25.660156 50.398438 25.660156 50.398438 L 24.53125 45.925781 C 26.21875 44.09375 30.121094 42.164062 30.121094 42.164062 L 26.632812 42.820312 C 27.378906 41.914062 30.019531 40.324219 30.019531 40.324219 C 30.050781 39.464844 29.582031 36.402344 29.582031 36.402344 C 30.613281 36.722656 31.875 38.464844 31.875 38.464844 C 31.5 36.332031 29.445312 33.804688 29.445312 33.804688 L 27.089844 36.792969 C 27.210938 34.925781 29.1875 30.886719 29.1875 30.886719 C 32.753906 32.269531 36.289062 41.007812 36.289062 41.007812 C 33.578125 43.253906 31.257812 47.773438 31.257812 47.773438 C 30.34375 47.96875 29.511719 48.246094 28.746094 48.582031 C 28.734375 48.585938 28.71875 48.59375 28.703125 48.601562 Z M 60.773438 90.945312 C 61.0625 90.535156 61.328125 89.875 61.574219 89.066406 C 61.332031 89.675781 61.058594 90.3125 60.773438 90.945312 Z M 62.46875 84.960938 C 62.46875 84.960938 62.46875 84.964844 62.46875 84.964844 C 62.46875 84.964844 62.46875 84.964844 62.46875 84.960938 Z M 77.601562 58.976562 C 78.339844 59.839844 79.398438 61.019531 79.398438 61.019531 C 79.398438 61.019531 78.121094 56.941406 76.679688 56.003906 C 76.679688 56.003906 76.859375 58.113281 77.601562 58.976562 Z M 75.855469 76.253906 C 75.855469 76.253906 77.222656 74.945312 77.796875 73.566406 C 77.789062 73.441406 77.78125 73.316406 77.769531 73.191406 C 77.722656 72.777344 77.648438 72.363281 77.542969 71.957031 C 77.515625 71.847656 77.492188 71.742188 77.472656 71.632812 C 77.128906 73.726562 75.855469 76.253906 75.855469 76.253906 Z M 77.546875 70.425781 C 77.550781 70.484375 77.554688 70.542969 77.554688 70.601562 L 77.621094 70.574219 C 77.578125 70.476562 77.546875 70.425781 77.546875 70.425781 Z M 69.863281 84.292969 C 69.863281 84.292969 65.066406 88.460938 64.539062 89.390625 C 64.007812 90.316406 60.785156 94.03125 60.785156 94.03125 C 60.785156 94.03125 67.535156 89.429688 69.863281 84.292969 Z M 79.738281 66.5625 C 80.003906 67.503906 80.21875 68.457031 80.351562 69.421875 L 80.164062 69.464844 C 79.863281 68.546875 79.542969 67.636719 79.183594 66.75 C 78.824219 65.859375 78.429688 64.992188 78 64.140625 C 77.574219 63.296875 77.113281 62.472656 76.617188 61.675781 C 77.132812 63.21875 79.558594 70.675781 79.085938 73.683594 C 79.03125 74.027344 78.925781 74.359375 78.78125 74.679688 C 78.734375 75.097656 78.652344 75.515625 78.519531 75.925781 C 78.492188 76.039062 78.449219 76.152344 78.398438 76.265625 L 78.253906 76.601562 C 78.160156 76.824219 78.015625 77.027344 77.898438 77.238281 C 77.839844 77.347656 77.761719 77.4375 77.6875 77.535156 L 77.460938 77.820312 C 77.382812 77.917969 77.308594 78.003906 77.238281 78.082031 L 77.015625 78.328125 C 76.433594 78.988281 75.875 79.664062 75.390625 80.371094 C 74.90625 81.082031 74.511719 81.839844 74.261719 82.652344 C 74.132812 83.0625 74.03125 83.480469 73.945312 83.90625 C 73.871094 84.316406 73.773438 84.820312 73.59375 85.25 C 73.230469 86.113281 72.695312 86.863281 72.117188 87.554688 C 71.535156 88.246094 70.902344 88.882812 70.207031 89.460938 L 70.078125 89.316406 C 70.699219 88.691406 71.277344 88.011719 71.796875 87.308594 C 72.3125 86.597656 72.765625 85.839844 73.042969 85.046875 C 73.183594 84.640625 73.234375 84.265625 73.296875 83.796875 C 73.359375 83.351562 73.445312 82.898438 73.5625 82.453125 C 73.796875 81.554688 74.199219 80.699219 74.6875 79.921875 C 75.171875 79.136719 75.738281 78.425781 76.3125 77.734375 L 76.460938 77.558594 C 74.816406 79.105469 72.878906 80.6875 72.105469 82.929688 C 70.730469 86.921875 65.019531 92.699219 62.269531 94.378906 C 59.519531 96.0625 57.722656 97.007812 57.722656 97.007812 C 57.722656 97.007812 59.382812 94.019531 60.757812 90.976562 C 61.523438 90.101562 65.191406 85.789062 66.136719 82.453125 C 67.175781 78.78125 70.207031 73.832031 72.6875 73.175781 C 72.6875 73.175781 70.738281 77.882812 70.78125 81.261719 C 70.78125 81.261719 72.566406 78.523438 74.3125 76.132812 C 75.75 74.167969 76.199219 71.65625 75.53125 69.316406 C 75.246094 68.316406 74.992188 67.128906 74.851562 65.792969 C 74.40625 61.515625 73.949219 57.695312 71.363281 56.195312 C 71.363281 56.195312 75.152344 57.003906 76.519531 59.285156 C 76.519531 59.285156 75.664062 53.867188 71.445312 50.363281 C 71.574219 50.386719 71.640625 50.398438 71.640625 50.398438 C 74.367188 52.140625 78.035156 54.851562 78.875 57.292969 C 80.25 61.285156 80.671875 62.859375 80.671875 62.859375 L 77.84375 61.859375 C 78.175781 62.488281 78.484375 63.132812 78.761719 63.789062 C 79.144531 64.695312 79.46875 65.621094 79.738281 66.5625 Z M 14.417969 85.828125 C 14.863281 87.269531 15.148438 88.636719 15.148438 88.636719 C 15.148438 88.636719 12.996094 85.25 11.785156 83.175781 C 11.410156 82.527344 11.121094 82.007812 11.023438 81.757812 C 10.984375 81.660156 10.953125 81.550781 10.925781 81.425781 C 10.773438 80.703125 10.84375 79.601562 10.917969 78.851562 C 10.96875 78.371094 11.023438 78.03125 11.023438 78.03125 C 11.023438 78.03125 11.828125 81.65625 12.992188 82.757812 C 13.53125 83.269531 14.035156 84.574219 14.417969 85.828125 " fill-opacity="1" fill-rule="nonzero"/><path fill="#5897d7" d="M 71.167969 46.714844 L 69.613281 46.257812 C 68.695312 45.988281 67.898438 45.441406 67.253906 44.738281 C 66.105469 43.480469 64.75 43.597656 64.75 43.597656 C 65.808594 44.296875 66.832031 46.925781 66.832031 46.925781 C 68.488281 46.925781 70.601562 48.359375 70.601562 48.359375 Z M 72.769531 45.925781 L 71.640625 50.398438 C 71.640625 50.398438 71.574219 50.386719 71.445312 50.363281 C 70.046875 49.199219 68.277344 48.25 66.042969 47.773438 C 66.042969 47.773438 63.722656 43.253906 61.007812 41.007812 C 61.007812 41.007812 64.542969 32.269531 68.113281 30.886719 C 68.113281 30.886719 70.089844 34.925781 70.210938 36.792969 L 67.855469 33.804688 C 67.855469 33.804688 65.800781 36.332031 65.421875 38.464844 C 65.421875 38.464844 66.6875 36.722656 67.71875 36.402344 C 67.71875 36.402344 67.246094 39.464844 67.28125 40.324219 C 67.28125 40.324219 69.917969 41.914062 70.667969 42.820312 L 67.179688 42.164062 C 67.179688 42.164062 71.082031 44.09375 72.769531 45.925781 Z M 30.46875 46.925781 C 30.46875 46.925781 31.492188 44.296875 32.550781 43.597656 C 32.550781 43.597656 31.195312 43.480469 30.046875 44.738281 C 29.402344 45.441406 28.605469 45.988281 27.6875 46.257812 L 26.132812 46.714844 L 26.699219 48.359375 C 26.699219 48.359375 28.8125 46.925781 30.46875 46.925781 Z M 28.101562 80.089844 L 28.402344 82.964844 C 28.402344 82.964844 28.191406 84.644531 29.109375 86.605469 C 30.023438 88.566406 36.441406 93.679688 36.441406 93.679688 C 36.441406 93.679688 31.886719 88.144531 31.132812 86.183594 C 30.378906 84.222656 28.101562 80.089844 28.101562 80.089844 Z M 36.542969 90.976562 C 37.914062 94.019531 39.578125 97.007812 39.578125 97.007812 C 39.578125 97.007812 30.09375 93.914062 26.84375 91.796875 C 23.59375 89.679688 22.527344 86.820312 21.25 83.332031 C 19.972656 79.84375 19.277344 79.148438 18.105469 76.710938 C 16.933594 74.277344 13.949219 68.242188 13.789062 65.066406 C 13.667969 62.632812 15.707031 58.726562 16.667969 57.03125 C 16.777344 56.753906 16.941406 56.476562 17.152344 56.199219 C 17.152344 56.199219 17.15625 56.199219 17.15625 56.199219 C 18.808594 54.058594 23.277344 51.921875 25.660156 50.398438 C 25.660156 50.398438 25.726562 50.386719 25.855469 50.363281 C 21.636719 53.867188 20.78125 59.285156 20.78125 59.285156 C 22.148438 57.003906 25.9375 56.195312 25.9375 56.195312 C 23.351562 57.695312 22.894531 61.515625 22.449219 65.792969 C 22.308594 67.128906 22.054688 68.316406 21.765625 69.316406 C 21.097656 71.65625 21.550781 74.167969 22.988281 76.132812 C 24.734375 78.523438 26.519531 81.261719 26.519531 81.261719 C 26.5625 77.882812 24.613281 73.175781 24.613281 73.175781 C 27.09375 73.832031 30.125 78.78125 31.164062 82.453125 C 32.109375 85.789062 35.777344 90.101562 36.542969 90.976562 Z M 66.476562 59.390625 C 66.476562 59.390625 64.785156 61.949219 63.164062 62.195312 C 61.542969 62.441406 58.617188 62.195312 58.617188 62.195312 C 58.617188 62.195312 61.507812 63.734375 62.546875 63.910156 L 62.070312 63 C 62.070312 63 63.972656 63.910156 65.101562 63.734375 L 64.257812 62.476562 C 64.257812 62.476562 65.523438 62.648438 66.867188 62.40625 C 67.9375 62.207031 69.394531 61.363281 69.929688 61.03125 C 70.066406 60.949219 70.144531 60.898438 70.144531 60.898438 C 70.144531 60.898438 69.9375 60.710938 69.597656 60.472656 C 68.925781 59.992188 67.71875 59.300781 66.476562 59.390625 Z M 54.96875 87.027344 L 51.636719 89.390625 C 51.636719 89.390625 54.648438 88.707031 54.96875 88.207031 C 55.285156 87.707031 54.96875 87.027344 54.96875 87.027344 Z M 56.082031 84.964844 C 56.082031 84.964844 56.398438 87.851562 55.078125 88.902344 C 54.34375 89.484375 52.453125 90.109375 50.910156 90.546875 C 49.433594 90.96875 47.867188 90.96875 46.390625 90.546875 C 44.847656 90.109375 42.953125 89.484375 42.222656 88.902344 C 40.902344 87.851562 41.21875 84.964844 41.21875 84.964844 C 41.21875 84.964844 43.492188 86.644531 44.867188 86.75 C 46.242188 86.855469 48.648438 85.804688 48.648438 85.804688 C 48.648438 85.804688 51.058594 86.855469 52.433594 86.75 C 53.808594 86.644531 56.082031 84.964844 56.082031 84.964844 Z M 48.648438 50.304688 C 50.09375 50.304688 51.359375 49.550781 52.078125 48.421875 C 51.535156 48.941406 50.800781 49.261719 49.988281 49.261719 C 48.324219 49.261719 46.980469 47.925781 46.980469 46.273438 C 46.980469 44.625 48.324219 43.285156 49.988281 43.285156 C 50.800781 43.285156 51.535156 43.609375 52.078125 44.128906 C 51.359375 43 50.09375 42.246094 48.648438 42.246094 C 46.410156 42.246094 44.59375 44.050781 44.59375 46.273438 C 44.59375 48.5 46.410156 50.304688 48.648438 50.304688 Z M 34.832031 84.964844 L 34.828125 84.960938 C 34.828125 84.964844 34.828125 84.964844 34.828125 84.964844 C 34.832031 84.964844 34.832031 84.964844 34.832031 84.964844 Z M 35.726562 89.066406 C 35.972656 89.875 36.238281 90.535156 36.527344 90.945312 C 36.242188 90.3125 35.96875 89.675781 35.726562 89.066406 Z M 34.136719 62.195312 C 35.757812 62.441406 38.683594 62.195312 38.683594 62.195312 C 38.683594 62.195312 35.792969 63.734375 34.753906 63.910156 L 35.230469 63 C 35.230469 63 33.324219 63.910156 32.199219 63.734375 L 33.042969 62.476562 C 33.042969 62.476562 31.773438 62.648438 30.433594 62.40625 C 29.363281 62.207031 27.90625 61.363281 27.367188 61.03125 C 27.234375 60.949219 27.15625 60.898438 27.15625 60.898438 C 27.15625 60.898438 27.363281 60.710938 27.703125 60.472656 C 28.375 59.992188 29.582031 59.300781 30.824219 59.390625 C 30.824219 59.390625 32.515625 61.949219 34.136719 62.195312 " fill-opacity="1" fill-rule="nonzero"/><path fill="#100f0d" d="M 61.535156 106.222656 C 61.457031 106.085938 61.375 105.941406 61.277344 105.800781 C 61.375 105.941406 61.457031 106.085938 61.535156 106.222656 Z M 60.921875 105.414062 L 60.917969 105.414062 C 60.992188 105.46875 61.058594 105.53125 61.117188 105.597656 C 61.058594 105.53125 60.992188 105.46875 60.921875 105.414062 Z M 52.046875 76.902344 C 52.046875 76.902344 51.480469 75.609375 48.648438 75.609375 C 45.820312 75.609375 45.253906 76.902344 45.253906 76.902344 C 46.953125 76.253906 48.648438 76.253906 48.648438 76.253906 C 48.648438 76.253906 50.347656 76.253906 52.046875 76.902344 Z M 53.550781 78.125 L 53.085938 79.6875 C 51.390625 80.707031 48.648438 81.269531 48.648438 81.269531 C 48.648438 81.269531 45.910156 80.707031 44.214844 79.6875 L 43.75 78.125 C 43.464844 77.175781 43.847656 76.144531 44.703125 75.640625 C 45.503906 75.164062 46.75 74.75 48.648438 74.792969 C 50.550781 74.75 51.796875 75.164062 52.597656 75.640625 C 53.449219 76.144531 53.835938 77.175781 53.550781 78.125 Z M 61.578125 59.433594 C 62.898438 58.960938 64.539062 57.171875 64.539062 57.171875 C 64.539062 57.171875 63.691406 56.753906 62 56.492188 C 60.308594 56.226562 57.03125 58.976562 57.03125 58.976562 C 57.03125 58.976562 60.253906 59.90625 61.578125 59.433594 Z M 35.558594 56.492188 C 33.867188 56.753906 33.019531 57.171875 33.019531 57.171875 C 33.019531 57.171875 34.660156 58.960938 35.980469 59.433594 C 37.304688 59.90625 40.53125 58.976562 40.53125 58.976562 C 40.53125 58.976562 37.25 56.226562 35.558594 56.492188 Z M 77.84375 61.859375 L 80.671875 62.859375 C 80.671875 62.859375 80.25 61.285156 78.875 57.292969 C 78.035156 54.851562 74.367188 52.140625 71.640625 50.398438 L 72.769531 45.925781 C 72.769531 45.925781 74.648438 41.332031 73.21875 36.96875 C 71.816406 32.6875 69.304688 26.816406 69.304688 26.816406 C 69.304688 26.816406 58.566406 33.769531 57.203125 38.714844 C 57.203125 38.714844 54.035156 37.324219 51.800781 37.503906 C 51.800781 37.503906 60.910156 41.820312 62.175781 48.761719 C 62.015625 48.234375 61.792969 47.734375 61.523438 47.269531 C 61.167969 46.664062 60.746094 46.117188 60.289062 45.609375 C 59.832031 45.109375 59.351562 44.636719 58.847656 44.191406 L 58.699219 44.316406 C 59.074219 44.878906 59.46875 45.414062 59.824219 45.96875 C 60.183594 46.515625 60.515625 47.074219 60.777344 47.652344 C 61.039062 48.226562 61.234375 48.824219 61.328125 49.425781 C 61.355469 49.59375 61.371094 49.765625 61.382812 49.933594 C 61.171875 49.9375 60.9375 49.953125 60.683594 49.976562 C 60.648438 49.605469 60.582031 49.238281 60.476562 48.882812 C 60.3125 48.339844 60.070312 47.828125 59.75 47.367188 C 59.425781 46.914062 59.039062 46.507812 58.582031 46.207031 L 58.453125 46.34375 C 58.769531 46.757812 59.039062 47.195312 59.238281 47.65625 C 59.4375 48.113281 59.578125 48.589844 59.660156 49.070312 C 59.71875 49.414062 59.742188 49.761719 59.738281 50.105469 C 59.550781 50.140625 59.363281 50.179688 59.175781 50.226562 C 59.152344 50.03125 59.117188 49.835938 59.074219 49.644531 C 58.976562 49.265625 58.847656 48.894531 58.65625 48.554688 L 58.472656 48.609375 C 58.492188 48.984375 58.507812 49.347656 58.488281 49.703125 C 58.476562 49.960938 58.449219 50.207031 58.417969 50.457031 C 57.273438 50.875 56.246094 51.613281 55.945312 52.910156 C 55.945312 52.910156 54.777344 51.703125 55.820312 49.1875 C 55.820312 49.1875 50.964844 52.496094 54.71875 58.511719 C 54.71875 58.511719 60.90625 53.898438 62.449219 54.585938 C 63.996094 55.273438 66.765625 57.542969 66.765625 57.542969 C 66.765625 57.542969 64.285156 60.964844 62.828125 61.203125 C 61.363281 61.4375 56.875 60.886719 55.453125 61.476562 C 54.027344 62.066406 54.570312 67.597656 54.570312 67.597656 C 54.570312 67.597656 48.898438 61.160156 48.648438 57.621094 C 48.402344 61.160156 42.730469 67.597656 42.730469 67.597656 C 42.730469 67.597656 43.273438 62.066406 41.847656 61.476562 C 40.425781 60.886719 35.9375 61.4375 34.472656 61.203125 C 33.011719 60.964844 30.535156 57.542969 30.535156 57.542969 C 30.535156 57.542969 33.304688 55.273438 34.851562 54.585938 C 36.390625 53.898438 42.582031 58.511719 42.582031 58.511719 C 46.335938 52.496094 41.480469 49.1875 41.480469 49.1875 C 42.523438 51.703125 41.351562 52.910156 41.351562 52.910156 C 41.054688 51.613281 40.027344 50.875 38.882812 50.457031 C 38.847656 50.207031 38.824219 49.960938 38.8125 49.703125 C 38.792969 49.347656 38.808594 48.984375 38.828125 48.609375 L 38.644531 48.554688 C 38.453125 48.894531 38.324219 49.265625 38.226562 49.644531 C 38.183594 49.835938 38.148438 50.03125 38.125 50.226562 C 37.9375 50.179688 37.75 50.140625 37.5625 50.105469 C 37.558594 49.761719 37.582031 49.414062 37.640625 49.070312 C 37.722656 48.589844 37.863281 48.113281 38.0625 47.65625 C 38.261719 47.195312 38.527344 46.757812 38.847656 46.34375 L 38.714844 46.207031 C 38.261719 46.507812 37.871094 46.914062 37.550781 47.367188 C 37.230469 47.828125 36.988281 48.339844 36.824219 48.882812 C 36.71875 49.238281 36.652344 49.605469 36.617188 49.976562 C 36.363281 49.953125 36.125 49.9375 35.917969 49.933594 C 35.925781 49.765625 35.945312 49.59375 35.972656 49.425781 C 36.066406 48.824219 36.261719 48.226562 36.523438 47.652344 C 36.785156 47.074219 37.117188 46.515625 37.476562 45.96875 C 37.832031 45.414062 38.226562 44.878906 38.597656 44.316406 L 38.453125 44.191406 C 37.949219 44.636719 37.46875 45.109375 37.007812 45.609375 C 36.554688 46.117188 36.128906 46.664062 35.777344 47.269531 C 35.507812 47.734375 35.285156 48.234375 35.125 48.761719 C 36.390625 41.820312 45.5 37.503906 45.5 37.503906 C 43.265625 37.324219 40.097656 38.714844 40.097656 38.714844 C 38.734375 33.769531 27.996094 26.816406 27.996094 26.816406 C 27.996094 26.816406 25.480469 32.6875 24.082031 36.96875 C 22.652344 41.332031 24.53125 45.925781 24.53125 45.925781 L 25.660156 50.398438 C 22.933594 52.140625 19.265625 54.851562 18.425781 57.292969 C 17.050781 61.285156 16.628906 62.859375 16.628906 62.859375 L 19.457031 61.859375 C 19.125 62.488281 18.816406 63.132812 18.539062 63.789062 C 18.15625 64.695312 17.828125 65.621094 17.5625 66.5625 C 17.296875 67.503906 17.082031 68.457031 16.949219 69.421875 L 17.136719 69.464844 C 17.4375 68.546875 17.753906 67.636719 18.117188 66.75 C 18.476562 65.859375 18.871094 64.992188 19.300781 64.140625 C 19.726562 63.296875 20.1875 62.472656 20.683594 61.675781 C 20.167969 63.21875 17.742188 70.675781 18.214844 73.683594 C 18.269531 74.027344 18.375 74.359375 18.515625 74.679688 C 18.566406 75.097656 18.648438 75.515625 18.777344 75.925781 C 18.808594 76.039062 18.851562 76.152344 18.902344 76.265625 L 19.046875 76.601562 C 19.140625 76.824219 19.285156 77.027344 19.402344 77.238281 C 19.460938 77.347656 19.539062 77.4375 19.613281 77.535156 L 19.839844 77.820312 C 19.917969 77.917969 19.992188 78.003906 20.0625 78.082031 L 20.28125 78.328125 C 20.867188 78.988281 21.425781 79.664062 21.90625 80.371094 C 22.394531 81.082031 22.785156 81.839844 23.039062 82.652344 C 23.167969 83.0625 23.269531 83.480469 23.355469 83.90625 C 23.425781 84.316406 23.523438 84.820312 23.707031 85.25 C 24.070312 86.113281 24.605469 86.863281 25.183594 87.554688 C 25.765625 88.246094 26.398438 88.882812 27.09375 89.460938 L 27.21875 89.316406 C 26.597656 88.691406 26.023438 88.011719 25.503906 87.308594 C 24.988281 86.597656 24.535156 85.839844 24.257812 85.046875 C 24.117188 84.640625 24.066406 84.265625 24.003906 83.796875 C 23.9375 83.351562 23.855469 82.898438 23.738281 82.453125 C 23.503906 81.554688 23.101562 80.699219 22.613281 79.921875 C 22.128906 79.136719 21.5625 78.425781 20.988281 77.734375 L 20.835938 77.558594 C 22.484375 79.105469 24.421875 80.6875 25.195312 82.929688 C 26.570312 86.921875 32.28125 92.699219 35.03125 94.378906 C 37.78125 96.0625 39.578125 97.007812 39.578125 97.007812 C 39.578125 97.007812 37.914062 94.019531 36.542969 90.976562 C 36.632812 91.078125 36.683594 91.136719 36.683594 91.136719 C 36.628906 91.082031 36.578125 91.015625 36.527344 90.945312 C 36.242188 90.3125 35.96875 89.675781 35.726562 89.066406 C 35.378906 87.902344 35.078125 86.4375 34.828125 84.964844 C 34.832031 84.964844 34.832031 84.964844 34.832031 84.964844 L 34.828125 84.960938 C 34.28125 81.710938 33.988281 78.441406 33.988281 78.441406 C 32.515625 73.722656 26.75 67.90625 26.75 67.90625 C 27.386719 67.894531 28.015625 67.96875 28.628906 68.109375 C 28.804688 68.203125 28.980469 68.296875 29.15625 68.398438 C 29.949219 68.855469 30.703125 69.390625 31.417969 69.976562 L 31.945312 70.425781 L 32.453125 70.898438 C 32.789062 71.21875 33.113281 71.546875 33.417969 71.898438 C 34.035156 72.589844 34.585938 73.339844 35.023438 74.167969 L 35.203125 74.097656 C 34.917969 73.175781 34.433594 72.328125 33.882812 71.535156 C 33.46875 70.957031 33.011719 70.410156 32.519531 69.894531 C 34.734375 71.386719 36.214844 73.175781 36.214844 73.175781 L 39.890625 69.316406 C 39.890625 69.316406 39.5 70.222656 39.074219 71.6875 L 38.890625 71.917969 L 38.523438 72.425781 L 38.175781 72.949219 C 37.738281 73.660156 37.359375 74.40625 37.058594 75.179688 C 36.757812 75.953125 36.53125 76.75 36.382812 77.5625 C 36.242188 78.375 36.167969 79.195312 36.199219 80.007812 L 36.390625 80.023438 C 36.535156 79.230469 36.710938 78.453125 36.957031 77.703125 C 37.195312 76.949219 37.488281 76.214844 37.828125 75.511719 C 37.894531 75.375 37.964844 75.238281 38.035156 75.105469 C 37.789062 75.851562 37.621094 76.625 37.539062 77.40625 C 37.425781 78.460938 37.46875 79.53125 37.664062 80.566406 C 37.863281 81.597656 38.207031 82.601562 38.722656 83.503906 L 38.898438 83.425781 C 38.550781 82.46875 38.328125 81.480469 38.246094 80.484375 C 38.195312 79.898438 38.195312 79.308594 38.234375 78.722656 C 38.996094 81.917969 42.261719 84.046875 44.375 84.519531 C 46.890625 85.078125 48.648438 83.59375 48.648438 83.59375 C 48.648438 83.59375 50.410156 85.078125 52.925781 84.519531 C 55.039062 84.046875 58.304688 81.917969 59.066406 78.722656 C 59.105469 79.308594 59.105469 79.898438 59.054688 80.484375 C 58.972656 81.480469 58.75 82.46875 58.402344 83.425781 L 58.574219 83.503906 C 59.09375 82.601562 59.4375 81.597656 59.636719 80.566406 C 59.832031 79.53125 59.871094 78.460938 59.761719 77.40625 C 59.675781 76.625 59.507812 75.851562 59.261719 75.105469 C 59.335938 75.238281 59.402344 75.375 59.46875 75.511719 C 59.8125 76.214844 60.105469 76.949219 60.34375 77.703125 C 60.589844 78.453125 60.765625 79.230469 60.90625 80.023438 L 61.101562 80.007812 C 61.132812 79.195312 61.058594 78.375 60.917969 77.5625 C 60.769531 76.75 60.542969 75.953125 60.238281 75.179688 C 59.941406 74.40625 59.5625 73.660156 59.125 72.949219 L 58.777344 72.425781 L 58.410156 71.917969 L 58.226562 71.6875 C 57.800781 70.222656 57.40625 69.316406 57.40625 69.316406 L 61.085938 73.175781 C 61.085938 73.175781 62.566406 71.386719 64.78125 69.894531 C 64.289062 70.410156 63.832031 70.957031 63.417969 71.535156 C 62.867188 72.328125 62.382812 73.175781 62.097656 74.097656 L 62.277344 74.167969 C 62.714844 73.339844 63.265625 72.589844 63.882812 71.898438 C 64.1875 71.546875 64.511719 71.21875 64.847656 70.898438 L 65.355469 70.425781 L 65.882812 69.976562 C 66.597656 69.390625 67.351562 68.855469 68.144531 68.398438 C 68.320312 68.296875 68.496094 68.203125 68.671875 68.109375 C 69.285156 67.96875 69.910156 67.894531 70.550781 67.90625 C 70.550781 67.90625 64.78125 73.722656 63.3125 78.441406 C 63.3125 78.441406 63.019531 81.710938 62.46875 84.960938 C 62.46875 84.960938 62.46875 84.964844 62.46875 84.964844 C 62.222656 86.4375 61.921875 87.902344 61.574219 89.066406 C 61.332031 89.675781 61.058594 90.3125 60.773438 90.945312 C 60.722656 91.015625 60.667969 91.082031 60.617188 91.136719 C 60.617188 91.136719 60.667969 91.082031 60.757812 90.976562 C 59.382812 94.019531 57.722656 97.007812 57.722656 97.007812 C 57.722656 97.007812 59.519531 96.0625 62.269531 94.378906 C 65.019531 92.699219 70.730469 86.921875 72.105469 82.929688 C 72.878906 80.6875 74.816406 79.105469 76.460938 77.558594 L 76.3125 77.734375 C 75.738281 78.425781 75.171875 79.136719 74.6875 79.921875 C 74.199219 80.699219 73.796875 81.554688 73.5625 82.453125 C 73.445312 82.898438 73.359375 83.351562 73.296875 83.796875 C 73.234375 84.265625 73.183594 84.640625 73.042969 85.046875 C 72.765625 85.839844 72.3125 86.597656 71.796875 87.308594 C 71.277344 88.011719 70.699219 88.691406 70.078125 89.316406 L 70.207031 89.460938 C 70.902344 88.882812 71.535156 88.246094 72.117188 87.554688 C 72.695312 86.863281 73.230469 86.113281 73.59375 85.25 C 73.773438 84.820312 73.871094 84.316406 73.945312 83.90625 C 74.03125 83.480469 74.132812 83.0625 74.261719 82.652344 C 74.511719 81.839844 74.90625 81.082031 75.390625 80.371094 C 75.875 79.664062 76.433594 78.988281 77.015625 78.328125 L 77.238281 78.082031 C 77.308594 78.003906 77.382812 77.917969 77.460938 77.820312 L 77.6875 77.535156 C 77.761719 77.4375 77.839844 77.347656 77.898438 77.238281 C 78.015625 77.027344 78.160156 76.824219 78.253906 76.601562 L 78.398438 76.265625 C 78.449219 76.152344 78.492188 76.039062 78.519531 75.925781 C 78.652344 75.515625 78.734375 75.097656 78.78125 74.679688 C 78.925781 74.359375 79.03125 74.027344 79.085938 73.683594 C 79.558594 70.675781 77.132812 63.21875 76.617188 61.675781 C 77.113281 62.472656 77.574219 63.296875 78 64.140625 C 78.429688 64.992188 78.824219 65.859375 79.183594 66.75 C 79.542969 67.636719 79.863281 68.546875 80.164062 69.464844 L 80.351562 69.421875 C 80.21875 68.457031 80.003906 67.503906 79.738281 66.5625 C 79.46875 65.621094 79.144531 64.695312 78.761719 63.789062 C 78.484375 63.132812 78.175781 62.488281 77.84375 61.859375 Z M 59.109375 101.183594 C 59.109375 101.183594 57.324219 101.429688 55.617188 101.863281 C 55.390625 103.015625 55.03125 104.171875 54.460938 105.078125 C 52.972656 107.457031 50.113281 109.804688 49.992188 109.902344 L 49.304688 110.464844 C 57.308594 107.882812 59.109375 101.183594 59.109375 101.183594 Z M 50.65625 106.425781 C 51.371094 105.691406 52.132812 104.824219 52.667969 103.96875 C 52.890625 103.613281 53.070312 103.1875 53.21875 102.722656 C 53.953125 100.445312 53.878906 97.292969 53.878906 97.292969 C 53.171875 98.035156 52.21875 98.410156 51.265625 98.410156 C 50.367188 98.410156 49.46875 98.074219 48.769531 97.40625 L 48.648438 97.292969 L 48.53125 97.40625 C 47.832031 98.074219 46.933594 98.410156 46.035156 98.410156 C 45.082031 98.410156 44.128906 98.035156 43.421875 97.292969 C 43.421875 97.292969 43.34375 100.445312 44.078125 102.722656 C 44.226562 103.1875 44.410156 103.613281 44.632812 103.96875 C 45.167969 104.824219 45.929688 105.691406 46.644531 106.425781 C 47.695312 107.5 48.648438 108.277344 48.648438 108.277344 C 48.648438 108.277344 49.605469 107.5 50.65625 106.425781 Z M 42.222656 88.902344 C 42.953125 89.484375 44.847656 90.109375 46.390625 90.546875 C 47.867188 90.96875 49.433594 90.96875 50.910156 90.546875 C 52.453125 90.109375 54.34375 89.484375 55.078125 88.902344 C 56.398438 87.851562 56.082031 84.964844 56.082031 84.964844 C 56.082031 84.964844 53.808594 86.644531 52.433594 86.75 C 51.058594 86.855469 48.648438 85.804688 48.648438 85.804688 C 48.648438 85.804688 46.242188 86.855469 44.867188 86.75 C 43.492188 86.644531 41.21875 84.964844 41.21875 84.964844 C 41.21875 84.964844 40.902344 87.851562 42.222656 88.902344 Z M 47.996094 110.464844 L 47.308594 109.902344 C 47.1875 109.804688 44.328125 107.457031 42.835938 105.078125 C 42.269531 104.171875 41.910156 103.015625 41.683594 101.863281 C 39.976562 101.429688 38.191406 101.183594 38.191406 101.183594 C 38.191406 101.183594 39.992188 107.882812 47.996094 110.464844 Z M 44.59375 46.273438 C 44.59375 48.5 46.410156 50.304688 48.648438 50.304688 C 50.09375 50.304688 51.359375 49.550781 52.078125 48.421875 C 51.535156 48.941406 50.800781 49.261719 49.988281 49.261719 C 48.324219 49.261719 46.980469 47.925781 46.980469 46.273438 C 46.980469 44.625 48.324219 43.285156 49.988281 43.285156 C 50.800781 43.285156 51.535156 43.609375 52.078125 44.128906 C 51.359375 43 50.09375 42.246094 48.648438 42.246094 C 46.410156 42.246094 44.59375 44.050781 44.59375 46.273438 Z M 87.859375 72.933594 C 87.859375 73.25 87.847656 73.566406 87.824219 73.878906 C 87.800781 74.195312 87.765625 74.507812 87.71875 74.820312 C 87.699219 74.976562 87.671875 75.132812 87.644531 75.289062 C 87.589844 75.605469 87.523438 75.917969 87.449219 76.230469 C 87.414062 76.386719 87.375 76.542969 87.332031 76.695312 C 87.277344 76.902344 87.214844 77.109375 87.152344 77.316406 C 87.121094 77.421875 87.089844 77.527344 87.054688 77.632812 C 87.089844 77.523438 87.117188 77.414062 87.152344 77.304688 C 86.566406 73.925781 84.175781 69.847656 84.175781 69.847656 C 86.078125 76.554688 85.089844 79.179688 85.089844 79.179688 L 81.636719 75.609375 C 81.636719 75.609375 83.257812 80.089844 83.082031 81.269531 C 82.910156 82.449219 82.269531 83.382812 82.269531 83.382812 C 82.058594 81.703125 78.886719 79.878906 78.886719 79.878906 C 78.886719 79.878906 80.226562 83.804688 80.4375 85.765625 C 80.5625 86.933594 80.164062 89.179688 79.820312 90.796875 L 79.816406 90.8125 C 79.570312 91.15625 79.324219 91.496094 79.078125 91.835938 C 78.511719 92.601562 77.9375 93.359375 77.339844 94.101562 C 74.316406 97.851562 70.855469 101.242188 66.839844 104.191406 C 66.488281 104.449219 66.140625 104.714844 65.789062 104.972656 C 65.441406 105.234375 65.089844 105.488281 64.730469 105.730469 C 64.550781 105.851562 64.371094 105.96875 64.1875 106.082031 C 63.636719 106.417969 63.070312 106.710938 62.464844 106.929688 C 62.425781 106.925781 62.394531 106.921875 62.359375 106.917969 L 62.394531 106.890625 L 62.933594 106.484375 L 63.457031 106.066406 C 64.144531 105.488281 64.789062 104.863281 65.382812 104.195312 C 65.980469 103.53125 66.523438 102.820312 67.011719 102.078125 C 67.492188 101.335938 67.929688 100.558594 68.277344 99.75 L 68.109375 99.660156 C 67.609375 100.375 67.09375 101.074219 66.535156 101.734375 C 65.984375 102.394531 65.394531 103.023438 64.777344 103.621094 C 64.441406 103.945312 64.097656 104.253906 63.742188 104.558594 C 65.273438 102.851562 66.917969 100.574219 67.394531 98.269531 C 67.394531 98.269531 61.902344 104.609375 60 106.015625 C 59.886719 106.089844 59.773438 106.167969 59.664062 106.242188 C 59.503906 106.347656 59.34375 106.457031 59.1875 106.5625 C 58.523438 107.015625 57.859375 107.480469 57.199219 107.941406 C 54.496094 109.835938 51.800781 111.742188 48.78125 113.144531 C 47.691406 112.632812 46.640625 112.066406 45.621094 111.46875 C 45.25 111.25 44.882812 111.027344 44.523438 110.800781 C 44.402344 110.726562 44.28125 110.648438 44.160156 110.574219 C 43.921875 110.421875 43.679688 110.269531 43.441406 110.113281 C 43.300781 110.023438 43.164062 109.929688 43.023438 109.835938 C 42.808594 109.691406 42.589844 109.550781 42.378906 109.40625 C 42.234375 109.308594 42.09375 109.210938 41.949219 109.113281 C 41.738281 108.96875 41.53125 108.824219 41.320312 108.679688 C 41.179688 108.582031 41.042969 108.488281 40.90625 108.390625 C 40.6875 108.238281 40.46875 108.085938 40.253906 107.929688 C 40.132812 107.84375 40.011719 107.757812 39.886719 107.671875 C 39.507812 107.402344 39.132812 107.132812 38.753906 106.867188 C 38.679688 106.8125 38.605469 106.757812 38.53125 106.707031 C 38.296875 106.542969 38.066406 106.378906 37.839844 106.214844 C 37.566406 106.023438 37.296875 105.832031 37.027344 105.640625 C 37.222656 105.777344 37.417969 105.917969 37.613281 106.058594 C 35.761719 104.730469 30.167969 98.269531 30.167969 98.269531 C 30.722656 100.980469 32.902344 103.652344 34.605469 105.402344 L 34.46875 105.296875 C 33.789062 104.777344 33.140625 104.21875 32.523438 103.621094 C 31.90625 103.023438 31.316406 102.394531 30.765625 101.734375 C 30.207031 101.074219 29.691406 100.375 29.191406 99.660156 L 29.019531 99.75 C 29.371094 100.558594 29.808594 101.335938 30.289062 102.078125 C 30.777344 102.820312 31.320312 103.53125 31.917969 104.195312 C 32.511719 104.863281 33.15625 105.488281 33.84375 106.066406 L 34.367188 106.484375 L 34.757812 106.78125 C 34.40625 106.617188 34.054688 106.441406 33.710938 106.257812 C 33.539062 106.164062 33.367188 106.066406 33.199219 105.96875 C 32.515625 105.578125 31.851562 105.144531 31.199219 104.683594 C 30.871094 104.449219 30.546875 104.210938 30.226562 103.96875 C 29.90625 103.722656 29.585938 103.472656 29.273438 103.21875 C 28.957031 102.960938 28.644531 102.703125 28.332031 102.4375 C 27.863281 102.042969 27.402344 101.640625 26.945312 101.230469 C 26.480469 100.820312 26.023438 100.402344 25.578125 99.980469 C 25.128906 99.558594 24.6875 99.128906 24.253906 98.695312 C 21.875 96.3125 19.730469 93.765625 17.800781 91.066406 C 17.445312 89.4375 16.988281 87 17.121094 85.765625 C 17.332031 83.804688 18.671875 79.878906 18.671875 79.878906 C 18.671875 79.878906 15.5 81.703125 15.289062 83.382812 C 15.289062 83.382812 14.652344 82.449219 14.476562 81.269531 C 14.300781 80.089844 15.921875 75.609375 15.921875 75.609375 L 12.46875 79.179688 C 12.46875 79.179688 11.480469 76.554688 13.382812 69.847656 C 13.382812 69.847656 10.90625 74.074219 10.378906 77.484375 C 10.375 77.507812 10.367188 77.558594 10.367188 77.558594 C 10.367188 77.558594 10.335938 77.484375 10.328125 77.464844 C 10.105469 76.910156 9.914062 76.359375 9.769531 75.8125 C 9.71875 75.625 9.675781 75.4375 9.636719 75.25 C 9.574219 74.949219 9.523438 74.648438 9.492188 74.351562 C 9.476562 74.199219 9.460938 74.050781 9.453125 73.898438 C 9.4375 73.601562 9.433594 73.300781 9.449219 73 C 9.464844 72.699219 9.496094 72.394531 9.542969 72.09375 C 9.59375 71.789062 9.660156 71.484375 9.746094 71.175781 C 9.832031 70.871094 9.9375 70.558594 10.066406 70.246094 C 10.140625 70.058594 10.214844 69.871094 10.285156 69.679688 C 10.773438 68.347656 11.125 66.984375 11.496094 65.824219 C 11.476562 65.695312 11.445312 65.589844 11.40625 65.507812 C 11.382812 65.46875 11.359375 65.433594 11.335938 65.402344 C 11.285156 65.339844 11.230469 65.300781 11.167969 65.269531 C 11.105469 65.242188 11.039062 65.222656 10.96875 65.214844 C 10.898438 65.203125 10.828125 65.199219 10.757812 65.195312 C 10.722656 65.191406 10.6875 65.191406 10.652344 65.1875 C 10.582031 65.179688 10.515625 65.171875 10.453125 65.152344 C 10.332031 65.113281 10.234375 65.035156 10.179688 64.863281 C 10.535156 63.257812 11.003906 61.703125 11.574219 60.207031 C 12.148438 58.707031 12.824219 57.265625 13.597656 55.871094 C 13.984375 55.175781 14.394531 54.492188 14.828125 53.820312 C 15.261719 53.152344 15.714844 52.492188 16.195312 51.847656 C 16.671875 51.203125 17.171875 50.566406 17.691406 49.945312 C 17.949219 49.636719 18.214844 49.328125 18.484375 49.023438 C 18.753906 48.71875 19.03125 48.417969 19.3125 48.117188 C 19.417969 48.003906 19.519531 47.886719 19.621094 47.773438 C 20.304688 46.984375 20.820312 46.183594 21.1875 45.324219 C 21.246094 45.183594 21.300781 45.042969 21.355469 44.898438 C 21.382812 44.820312 21.410156 44.742188 21.4375 44.664062 C 21.683594 43.917969 21.832031 43.121094 21.890625 42.246094 C 21.902344 42.078125 21.910156 41.90625 21.917969 41.730469 C 22.03125 38.089844 22.695312 34.617188 23.890625 31.335938 C 24.191406 30.515625 24.523438 29.703125 24.886719 28.90625 C 25.253906 28.109375 25.652344 27.324219 26.082031 26.550781 C 26.515625 25.773438 26.980469 25.011719 27.476562 24.261719 C 27.972656 23.511719 28.5 22.777344 29.0625 22.050781 C 29.128906 21.964844 29.222656 21.855469 29.339844 21.734375 C 29.457031 21.613281 29.59375 21.476562 29.742188 21.332031 C 29.859375 21.222656 29.980469 21.105469 30.105469 20.992188 C 30.265625 20.839844 30.429688 20.6875 30.59375 20.539062 C 30.808594 20.347656 31.015625 20.160156 31.207031 19.996094 C 31.28125 19.929688 31.351562 19.867188 31.421875 19.804688 C 31.757812 19.511719 31.992188 19.308594 31.992188 19.308594 C 31.992188 19.308594 32.289062 19.714844 32.742188 20.347656 L 32.75 20.414062 C 32.867188 21.074219 32.996094 21.726562 33.148438 22.375 C 33.304688 23.023438 33.476562 23.667969 33.675781 24.304688 C 33.875 24.941406 34.085938 25.570312 34.34375 26.1875 L 34.53125 26.140625 L 34.246094 24.175781 C 34.152344 23.527344 34.0625 22.875 33.976562 22.226562 C 33.96875 22.179688 33.964844 22.128906 33.957031 22.082031 C 34.207031 22.445312 34.464844 22.824219 34.726562 23.207031 C 34.910156 23.480469 35.09375 23.757812 35.273438 24.03125 C 35.3125 24.460938 35.363281 24.890625 35.433594 25.316406 C 35.519531 25.839844 35.632812 26.359375 35.773438 26.867188 C 35.917969 27.375 36.082031 27.878906 36.292969 28.363281 L 36.480469 28.320312 C 36.441406 27.796875 36.386719 27.28125 36.355469 26.769531 C 36.328125 26.386719 36.308594 26.007812 36.289062 25.628906 C 36.511719 25.996094 36.714844 26.339844 36.882812 26.652344 C 37.035156 26.925781 37.191406 27.191406 37.351562 27.445312 L 37.386719 27.613281 L 37.535156 28.289062 C 37.644531 28.738281 37.769531 29.179688 37.914062 29.617188 C 38.058594 30.054688 38.222656 30.488281 38.402344 30.910156 C 38.589844 31.332031 38.785156 31.746094 39.023438 32.144531 L 39.207031 32.082031 C 39.132812 31.625 39.042969 31.183594 38.964844 30.738281 L 38.726562 29.414062 C 38.71875 29.367188 38.710938 29.316406 38.703125 29.265625 C 38.84375 29.429688 38.992188 29.585938 39.140625 29.742188 C 40.585938 31.210938 42.347656 32.292969 44.464844 33.035156 C 44.476562 33.039062 44.488281 33.042969 44.5 33.046875 C 44.664062 33.105469 44.828125 33.160156 44.996094 33.210938 C 45.0625 33.230469 45.128906 33.246094 45.195312 33.265625 C 45.304688 33.296875 45.417969 33.332031 45.53125 33.359375 C 45.605469 33.378906 45.683594 33.394531 45.761719 33.414062 C 45.863281 33.4375 45.964844 33.464844 46.066406 33.488281 C 46.148438 33.503906 46.230469 33.519531 46.3125 33.535156 C 46.410156 33.554688 46.507812 33.574219 46.605469 33.589844 C 46.691406 33.605469 46.777344 33.617188 46.859375 33.628906 C 46.957031 33.640625 47.054688 33.65625 47.148438 33.671875 C 47.234375 33.679688 47.320312 33.6875 47.40625 33.699219 C 47.503906 33.707031 47.597656 33.71875 47.695312 33.730469 C 47.78125 33.734375 47.867188 33.742188 47.953125 33.746094 C 48.046875 33.75 48.144531 33.757812 48.242188 33.761719 C 48.328125 33.765625 48.414062 33.769531 48.5 33.769531 C 48.59375 33.773438 48.6875 33.777344 48.785156 33.777344 C 48.800781 33.777344 48.8125 33.777344 48.828125 33.777344 C 48.859375 33.777344 48.890625 33.773438 48.921875 33.773438 C 49.125 33.773438 49.324219 33.765625 49.527344 33.757812 C 49.585938 33.753906 49.640625 33.75 49.699219 33.746094 C 49.933594 33.730469 50.164062 33.710938 50.398438 33.683594 C 50.433594 33.679688 50.472656 33.671875 50.511719 33.667969 C 50.714844 33.644531 50.914062 33.613281 51.117188 33.578125 C 51.171875 33.566406 51.230469 33.558594 51.285156 33.546875 C 51.515625 33.507812 51.746094 33.457031 51.972656 33.402344 C 52.003906 33.394531 52.039062 33.386719 52.070312 33.378906 C 52.273438 33.328125 52.472656 33.273438 52.671875 33.214844 C 52.726562 33.195312 52.78125 33.179688 52.835938 33.164062 C 53.058594 33.09375 53.28125 33.019531 53.5 32.9375 C 53.527344 32.925781 53.554688 32.917969 53.582031 32.90625 C 53.777344 32.832031 53.972656 32.75 54.167969 32.667969 C 54.21875 32.644531 54.273438 32.621094 54.324219 32.597656 C 54.539062 32.503906 54.75 32.402344 54.960938 32.292969 C 54.980469 32.28125 55 32.269531 55.023438 32.257812 C 55.214844 32.160156 55.402344 32.054688 55.585938 31.945312 C 55.636719 31.914062 55.683594 31.886719 55.734375 31.855469 C 55.9375 31.734375 56.136719 31.609375 56.332031 31.476562 C 56.347656 31.464844 56.359375 31.453125 56.375 31.441406 C 56.558594 31.316406 56.734375 31.1875 56.910156 31.050781 C 56.957031 31.015625 57.003906 30.980469 57.046875 30.945312 C 57.234375 30.796875 57.417969 30.644531 57.59375 30.488281 C 57.605469 30.476562 57.613281 30.46875 57.625 30.460938 C 57.792969 30.308594 57.957031 30.152344 58.117188 29.992188 C 58.15625 29.949219 58.199219 29.90625 58.242188 29.863281 C 58.347656 29.757812 58.449219 29.644531 58.550781 29.53125 L 58.550781 29.535156 L 58.332031 30.738281 C 58.253906 31.183594 58.164062 31.625 58.09375 32.082031 L 58.277344 32.144531 C 58.515625 31.746094 58.710938 31.332031 58.894531 30.910156 C 59.078125 30.488281 59.242188 30.054688 59.386719 29.617188 C 59.53125 29.179688 59.65625 28.738281 59.765625 28.289062 L 59.878906 27.769531 C 59.964844 27.636719 60.050781 27.503906 60.132812 27.367188 C 60.433594 26.882812 60.714844 26.386719 60.996094 25.890625 C 60.980469 26.183594 60.96875 26.472656 60.945312 26.769531 C 60.910156 27.28125 60.859375 27.796875 60.820312 28.320312 L 61.007812 28.363281 C 61.21875 27.878906 61.378906 27.375 61.527344 26.867188 C 61.664062 26.359375 61.78125 25.839844 61.867188 25.316406 C 61.9375 24.902344 61.984375 24.484375 62.023438 24.0625 C 62.296875 23.589844 62.574219 23.117188 62.871094 22.65625 C 63 22.453125 63.167969 22.21875 63.355469 21.980469 C 63.34375 22.0625 63.335938 22.144531 63.324219 22.226562 C 63.238281 22.875 63.148438 23.527344 63.050781 24.175781 L 62.769531 26.140625 L 62.953125 26.1875 C 63.210938 25.570312 63.425781 24.941406 63.625 24.304688 C 63.824219 23.667969 63.996094 23.023438 64.148438 22.375 C 64.289062 21.78125 64.410156 21.183594 64.519531 20.582031 C 64.652344 20.429688 64.777344 20.285156 64.894531 20.15625 C 65.273438 19.734375 65.542969 19.449219 65.542969 19.449219 C 65.542969 19.449219 65.550781 19.453125 65.566406 19.464844 C 65.597656 19.492188 65.660156 19.539062 65.742188 19.601562 C 65.785156 19.636719 65.832031 19.671875 65.882812 19.714844 C 66.042969 19.839844 66.242188 20 66.460938 20.183594 C 66.757812 20.429688 67.089844 20.714844 67.410156 21.007812 C 67.804688 21.371094 68.179688 21.75 68.425781 22.066406 C 69.285156 23.195312 70.070312 24.347656 70.78125 25.527344 C 71.65625 26.988281 72.40625 28.492188 73.046875 30.03125 C 73.144531 30.269531 73.238281 30.507812 73.332031 30.746094 C 73.902344 32.210938 74.363281 33.707031 74.722656 35.242188 C 75.261719 37.550781 75.566406 39.9375 75.632812 42.402344 C 75.636719 42.664062 75.652344 42.917969 75.675781 43.167969 C 75.714844 43.539062 75.769531 43.894531 75.851562 44.234375 C 75.902344 44.464844 75.964844 44.6875 76.039062 44.90625 C 76.113281 45.121094 76.199219 45.335938 76.292969 45.546875 C 76.390625 45.753906 76.496094 45.960938 76.617188 46.164062 C 76.734375 46.363281 76.867188 46.566406 77.007812 46.761719 C 77.152344 46.957031 77.308594 47.152344 77.480469 47.347656 C 77.566406 47.441406 77.652344 47.539062 77.746094 47.636719 C 78.167969 48.082031 78.578125 48.53125 78.980469 48.992188 C 79.382812 49.449219 79.773438 49.914062 80.152344 50.390625 C 80.464844 50.773438 80.769531 51.160156 81.0625 51.554688 C 81.46875 52.097656 81.859375 52.652344 82.238281 53.21875 C 82.425781 53.5 82.613281 53.785156 82.792969 54.070312 C 83.039062 54.464844 83.277344 54.863281 83.507812 55.261719 C 83.90625 55.941406 84.28125 56.636719 84.632812 57.34375 C 84.984375 58.050781 85.316406 58.769531 85.621094 59.507812 C 85.886719 60.140625 86.136719 60.785156 86.363281 61.441406 C 86.507812 61.847656 86.644531 62.253906 86.738281 62.648438 C 86.792969 62.886719 86.835938 63.121094 86.855469 63.347656 C 86.863281 63.480469 86.867188 63.609375 86.863281 63.734375 C 86.855469 63.863281 86.839844 63.988281 86.816406 64.113281 C 86.71875 64.605469 86.453125 65.066406 85.9375 65.476562 C 86.023438 65.824219 86.0625 66.089844 86.113281 66.308594 C 86.128906 66.363281 86.144531 66.414062 86.160156 66.464844 C 86.183594 66.535156 86.207031 66.597656 86.238281 66.660156 C 86.371094 66.90625 86.496094 67.152344 86.609375 67.398438 C 86.726562 67.644531 86.832031 67.890625 86.929688 68.132812 C 86.996094 68.296875 87.058594 68.460938 87.113281 68.621094 C 87.464844 69.59375 87.683594 70.554688 87.785156 71.507812 C 87.839844 71.984375 87.863281 72.460938 87.859375 72.933594 Z M 86.421875 79.332031 C 86.464844 79.234375 86.503906 79.136719 86.546875 79.039062 C 86.503906 79.136719 86.464844 79.234375 86.421875 79.332031 " fill-opacity="1" fill-rule="nonzero"/></svg>