<svg xmlns="http://www.w3.org/2000/svg" xmlns:xlink="http://www.w3.org/1999/xlink" width="130" zoomAndPan="magnify" viewBox="0 0 97.5 131.999998" height="176" preserveAspectRatio="xMidYMid meet" version="1.0"><defs><clipPath id="27a9553c3f"><path d="M 0 10.035156 L 97.003906 10.035156 L 97.003906 131.664062 L 0 131.664062 Z M 0 10.035156 " clip-rule="nonzero"/></clipPath><clipPath id="2c9070da69"><path d="M 4 15 L 97.003906 15 L 97.003906 131.664062 L 4 131.664062 Z M 4 15 " clip-rule="nonzero"/></clipPath><clipPath id="c8dc8e423d"><path d="M 7 18 L 97.003906 18 L 97.003906 131.664062 L 7 131.664062 Z M 7 18 " clip-rule="nonzero"/></clipPath><clipPath id="b3fb1ce8dd"><path d="M 11 23 L 97.003906 23 L 97.003906 126 L 11 126 Z M 11 23 " clip-rule="nonzero"/></clipPath><clipPath id="c2297a6678"><path d="M 16 31 L 97.003906 31 L 97.003906 125 L 16 125 Z M 16 31 " clip-rule="nonzero"/></clipPath><clipPath id="4ee96a9a99"><path d="M 2 12 L 97.003906 12 L 97.003906 131.664062 L 2 131.664062 Z M 2 12 " clip-rule="nonzero"/></clipPath></defs><g clip-path="url(#27a9553c3f)"><path fill="#c3642c" d="M 59.992188 154.21875 C 59.378906 153.96875 49.8125 149.996094 38.257812 142.132812 C 27.171875 134.589844 11.671875 121.707031 0.761719 103.175781 L 0 101.871094 L 0.503906 100.453125 C 0.878906 99.4375 9.722656 75.585938 25.121094 51.289062 C 25.113281 49.699219 25.34375 48.386719 25.585938 47.453125 C 21.230469 36.066406 25.019531 29.058594 25.46875 28.289062 L 28.277344 23.582031 L 35.5625 36.25 C 43.222656 26.21875 51.175781 17.953125 59.21875 11.660156 L 61.1875 10.117188 L 63.152344 11.660156 C 71.207031 17.964844 79.167969 26.238281 86.835938 36.277344 L 94.136719 23.582031 L 96.933594 28.277344 C 97.390625 29.050781 101.183594 36.066406 96.828125 47.453125 C 97.074219 48.398438 97.304688 49.730469 97.292969 51.351562 C 112.699219 75.671875 121.496094 99.433594 121.863281 100.4375 L 122.378906 101.871094 L 121.621094 103.167969 C 110.707031 121.707031 95.203125 134.589844 84.121094 142.132812 C 72.191406 150.25 62.429688 154.207031 62.335938 154.242188 L 61.1875 154.710938 Z M 59.992188 154.21875 " fill-opacity="1" fill-rule="nonzero"/></g><g clip-path="url(#2c9070da69)"><path fill="#f2b10c" d="M 92.066406 121.578125 L 92.070312 121.585938 C 92.070312 121.585938 72.390625 136.855469 50.683594 135.015625 C 50.683594 135.015625 59.414062 133.339844 63.859375 131.667969 L 72.625 126.058594 C 72.625 126.058594 86.316406 123.058594 91.125 120.554688 C 89.851562 119.101562 88.839844 117.609375 88.101562 116.078125 C 85.796875 116.769531 76.421875 119.367188 65.976562 119.367188 C 64.378906 119.367188 62.761719 119.308594 61.136719 119.171875 C 56.058594 118.742188 51.488281 117.535156 47.773438 115.792969 C 38.191406 111.59375 36.070312 103.179688 36.070312 103.179688 L 33.148438 105.867188 C 33.148438 105.867188 34.320312 116.460938 47.777344 128.738281 C 47.777344 128.738281 31.90625 120.535156 27.6875 104.179688 L 18.546875 111.175781 C 18.546875 111.175781 23.800781 122.128906 37.078125 130.328125 C 37.078125 130.328125 20.214844 124.640625 14.296875 110.464844 L 11.785156 112.511719 C 21.171875 124.496094 32.0625 133.261719 40.386719 138.929688 C 51.011719 146.164062 59.667969 149.917969 61.1875 150.554688 C 62.710938 149.917969 71.367188 146.164062 81.992188 138.929688 C 86.703125 135.722656 92.234375 131.527344 97.847656 126.3125 C 95.585938 124.796875 93.65625 123.214844 92.066406 121.578125 Z M 53.230469 140.328125 C 53.230469 140.328125 66.996094 141.332031 81.523438 133.804688 C 81.042969 134.234375 60.65625 152.113281 53.230469 140.328125 Z M 44.832031 103.453125 L 39.617188 106.480469 C 39.617188 106.480469 39.019531 100.875 41.890625 101.828125 L 44.757812 102.777344 Z M 64.015625 45.222656 L 64.015625 58.871094 C 64.015625 58.871094 61.40625 47.40625 62.746094 44.453125 C 62.851562 44.238281 63.285156 43.492188 63.894531 44.617188 C 63.96875 44.800781 64.015625 45.007812 64.015625 45.222656 Z M 61.207031 63.867188 L 59.9375 63.867188 C 59.070312 63.867188 58.363281 63.15625 58.363281 62.289062 L 58.363281 45.851562 C 58.363281 44.453125 58.878906 44.410156 59.144531 44.480469 C 59.191406 44.496094 59.246094 44.515625 59.296875 44.542969 C 59.539062 44.65625 59.808594 44.867188 60.058594 45.257812 C 60.316406 45.644531 60.558594 46.210938 60.746094 47.03125 C 61.433594 50.085938 64.816406 63.867188 61.207031 63.867188 Z M 118.15625 101.480469 C 116.617188 104.078125 114.976562 106.558594 113.277344 108.929688 L 108.195312 107.199219 C 109.640625 105.246094 111.023438 103.25 112.292969 101.242188 L 112.464844 100.96875 L 112.347656 100.664062 C 109.839844 94.363281 102.875 77.835938 92.28125 60.304688 C 92.203125 60.023438 92.132812 59.792969 92.070312 59.621094 C 93.390625 57.632812 94.097656 55.734375 94.449219 54.039062 C 108.695312 76.695312 117.128906 98.742188 118.15625 101.480469 Z M 86.417969 42.148438 L 83.609375 47.03125 C 76.480469 36.960938 69.082031 28.546875 61.609375 22.023438 L 61.1875 21.65625 L 60.769531 22.023438 C 53.3125 28.535156 45.925781 36.941406 38.796875 47.011719 L 35.980469 42.117188 C 44.125 30.917969 52.601562 21.800781 61.1875 15.003906 C 69.785156 21.808594 78.273438 30.933594 86.417969 42.148438 Z M 10.035156 100.667969 L 9.914062 100.972656 L 10.089844 101.246094 C 11.84375 104.015625 13.789062 106.761719 15.882812 109.429688 L 13.941406 109.105469 L 11.003906 111.496094 C 8.613281 108.371094 6.328125 105.035156 4.222656 101.480469 C 5.25 98.742188 13.691406 76.667969 27.960938 53.992188 C 28.304688 55.699219 29.019531 57.617188 30.347656 59.621094 C 30.292969 59.777344 30.226562 59.984375 30.15625 60.234375 C 19.539062 77.789062 12.550781 94.351562 10.035156 100.667969 Z M 10.035156 100.667969 " fill-opacity="1" fill-rule="nonzero"/></g><g clip-path="url(#c8dc8e423d)"><path fill="#c3642c" d="M 59.203125 61.128906 L 60.914062 62.289062 L 59.539062 60.042969 L 61.453125 61.171875 L 59.746094 58.328125 C 59.746094 58.328125 61.375 54.3125 60.570312 50.503906 C 59.773438 46.695312 57.984375 46.109375 57.984375 46.109375 L 57.984375 44.011719 L 63.191406 43.222656 L 64.25 44.011719 C 64.25 44.011719 63.417969 44.058594 62.847656 46.53125 C 62.273438 49.003906 64.421875 55.890625 64.421875 55.890625 L 64.417969 60.878906 C 64.417969 60.878906 64.585938 63.808594 62.125 64.480469 C 59.660156 65.148438 57.984375 63.140625 57.984375 63.140625 C 58.65625 62.875 59.203125 61.128906 59.203125 61.128906 Z M 51.019531 129.742188 C 37.078125 119.117188 35.742188 106.480469 35.742188 106.480469 C 36.464844 108.816406 42.5 112.5625 42.5 112.5625 L 40.25 108.929688 L 39.554688 107.65625 L 43.527344 106.480469 C 40.085938 104.390625 41.898438 101.296875 41.898438 101.296875 L 38.238281 101.296875 L 39.054688 106.746094 L 36.578125 102.214844 L 32.570312 105.300781 L 27.96875 103.640625 L 26.308594 104.527344 C 27.058594 109.265625 31.566406 115.855469 31.566406 115.855469 C 28.8125 113.179688 25.972656 108.324219 25.972656 108.324219 C 28.394531 115.691406 33.238281 120.460938 33.238281 120.460938 C 30.148438 118.703125 27.058594 114.917969 27.058594 114.917969 C 33.152344 125.355469 41.585938 128.496094 41.585938 128.496094 C 38.414062 125.566406 36.742188 122.386719 36.742188 122.386719 C 46.09375 131.246094 51.019531 129.742188 51.019531 129.742188 Z M 114.722656 99.714844 C 109.761719 87.238281 91.390625 44.625 63.292969 20.085938 L 61.1875 18.253906 L 59.085938 20.085938 C 31.035156 44.59375 12.628906 87.230469 7.65625 99.714844 L 7.050781 101.238281 L 7.925781 102.625 C 9.683594 105.394531 11.546875 108.023438 13.480469 110.515625 L 14.152344 110.03125 L 10.949219 112.339844 L 18.542969 121.207031 C 18.542969 121.207031 27.730469 130.074219 30.347656 132 C 32.964844 133.925781 37.496094 134.34375 37.496094 134.34375 C 33.738281 132.835938 31.570312 129.835938 31.570312 129.835938 C 35.742188 132.359375 43.171875 131.476562 43.171875 131.476562 C 26.226562 124.511719 19.378906 109.8125 19.378906 109.8125 L 17.285156 110.742188 L 14.453125 109.8125 L 17.285156 110.742188 L 17.632812 110.585938 C 15.179688 107.582031 12.820312 104.351562 10.628906 100.898438 C 15.160156 89.523438 33.464844 46.71875 61.1875 22.5 C 88.957031 46.75 107.226562 89.519531 111.75 100.894531 C 106.417969 109.3125 100.0625 116.398438 93.824219 122.171875 L 94.535156 122.777344 L 92.070312 120.679688 L 87.851562 114.90625 L 86.730469 115.785156 C 86.730469 115.785156 87.78125 118.871094 88.671875 120.070312 C 88.671875 120.070312 76.128906 124.632812 68.5 124.882812 C 60.871094 125.132812 56.675781 124.882812 56.675781 124.882812 C 56.675781 124.882812 63.8125 126.957031 66.128906 127.207031 C 66.128906 127.207031 63.9375 129.84375 61.5625 130.78125 C 59.183594 131.722656 42.203125 135.113281 42.203125 135.113281 C 42.203125 135.113281 50.542969 137.75 58.933594 137.058594 C 58.933594 137.058594 54.691406 138.503906 49.800781 138.4375 C 49.800781 138.4375 50.429688 141.472656 53.140625 143.726562 C 53.136719 143.726562 53.136719 143.722656 53.132812 143.722656 C 53.171875 143.757812 53.214844 143.785156 53.253906 143.816406 C 53.398438 143.933594 53.542969 144.042969 53.699219 144.152344 C 53.769531 144.203125 53.835938 144.253906 53.90625 144.300781 C 53.984375 144.351562 54.0625 144.402344 54.140625 144.453125 C 54.222656 144.503906 54.304688 144.554688 54.390625 144.605469 C 54.464844 144.652344 54.542969 144.695312 54.621094 144.742188 C 54.726562 144.796875 54.832031 144.851562 54.9375 144.90625 C 55.003906 144.941406 55.070312 144.976562 55.140625 145.011719 C 55.316406 145.09375 55.496094 145.175781 55.683594 145.25 C 55.730469 145.269531 55.78125 145.289062 55.832031 145.308594 C 55.980469 145.367188 56.128906 145.421875 56.285156 145.476562 C 56.355469 145.5 56.433594 145.523438 56.507812 145.550781 C 56.574219 145.570312 56.640625 145.59375 56.710938 145.617188 C 56.703125 145.613281 56.691406 145.605469 56.683594 145.605469 C 58.464844 146.132812 60.675781 146.308594 63.441406 145.847656 C 63.441406 145.847656 61.9375 147.3125 59.625 148.042969 C 59.625 148.042969 64.632812 148.292969 73.085938 142.710938 C 81.539062 137.125 88.363281 128.402344 88.363281 128.402344 C 88.363281 128.402344 81.230469 133.046875 75.527344 134.804688 L 81.226562 131.101562 L 74.589844 133.050781 C 74.589844 133.050781 85.671875 127.90625 91.742188 123.574219 L 94.316406 125.832031 L 86.800781 133.238281 L 94.628906 127.589844 L 90.34375 132.777344 L 95.816406 129.160156 L 98.628906 126.273438 L 96.28125 124.269531 C 102.59375 118.394531 109.035156 111.183594 114.457031 102.621094 L 115.335938 101.238281 Z M 114.722656 99.714844 " fill-opacity="1" fill-rule="nonzero"/></g><path fill="#617f84" d="M 69.507812 50.460938 C 71.617188 52.109375 73.015625 53.992188 73.015625 53.992188 C 70.199219 52.570312 67.03125 52.683594 67.03125 52.683594 L 65.277344 62.613281 C 65.117188 64.035156 63.90625 65.148438 62.441406 65.148438 L 59.9375 65.148438 C 58.363281 65.148438 57.082031 63.867188 57.082031 62.289062 L 57.082031 50.335938 C 53.964844 50.253906 50.101562 52.109375 50.101562 52.109375 C 52.105469 51.878906 54.859375 52.59375 54.859375 52.59375 C 50.019531 53.683594 47.84375 55.859375 47.84375 55.859375 C 49.851562 55.441406 52.1875 55.441406 52.1875 55.441406 C 49.433594 56.359375 47.261719 58.535156 47.261719 58.535156 C 49.015625 65.148438 48.828125 69.59375 48.828125 69.59375 C 50.828125 70.242188 58.003906 73.46875 59.84375 86.761719 L 62.570312 86.761719 C 63.082031 83.097656 63.992188 80.195312 65.09375 77.90625 C 66.191406 75.617188 67.472656 73.933594 68.722656 72.703125 L 67.945312 68.097656 L 70.167969 71.445312 C 71.632812 70.335938 72.910156 69.816406 73.585938 69.59375 C 73.652344 66.117188 74.574219 62.734375 76.304688 59.734375 L 79.175781 54.742188 C 75.441406 51.367188 69.507812 50.460938 69.507812 50.460938 Z M 60.554688 78.136719 C 58.203125 70.402344 52.792969 67.65625 52.792969 67.65625 C 61.242188 68.722656 60.554688 78.136719 60.554688 78.136719 Z M 76.75 99.519531 L 76.085938 105.277344 C 72.75 105.386719 69.738281 105.074219 68.5 104.921875 L 69.253906 96.15625 L 73.152344 93.855469 Z M 53.917969 104.921875 C 53.332031 104.992188 52.34375 105.101562 51.117188 105.183594 L 49.804688 100.375 L 49.195312 105.277344 C 48.292969 105.300781 47.328125 105.308594 46.332031 105.277344 L 45.667969 99.519531 L 49.265625 93.855469 L 53.164062 96.15625 Z M 53.917969 104.921875 " fill-opacity="1" fill-rule="nonzero"/><g clip-path="url(#b3fb1ce8dd)"><path fill="#bcc7ce" d="M 57.980469 79.402344 L 49.097656 70.667969 L 48.429688 70.667969 L 46.261719 57.699219 L 49.792969 50.671875 L 57.53125 48.664062 L 57.53125 53.695312 L 57.699219 53.597656 L 57.082031 62.289062 L 55.921875 54.617188 C 54.699219 54.445312 53.523438 54.605469 53.523438 54.605469 C 54.480469 54.960938 55.441406 55.859375 55.441406 55.859375 C 52.519531 56.191406 49.097656 59.375 49.097656 59.375 C 49.699219 62.714844 49.863281 65.628906 49.882812 67.65625 C 49.886719 67.65625 56.117188 72.050781 57.980469 79.402344 Z M 57.027344 66.816406 C 58.949219 67.988281 59.367188 70.078125 59.367188 70.078125 C 56.691406 67.234375 52.792969 67.65625 52.792969 67.65625 C 61.410156 71.253906 60.554688 78.132812 60.554688 78.132812 C 63.832031 68.789062 57.027344 66.816406 57.027344 66.816406 Z M 78.023438 57.675781 L 80.027344 54.160156 C 80.027344 54.160156 75.457031 49.707031 68.695312 49.390625 L 65.878906 52.109375 L 65.03125 63.480469 L 68.570312 54.160156 C 68.570312 54.160156 72.890625 54.285156 74.769531 56.109375 C 74.769531 56.109375 74.457031 54.226562 73.703125 53.03125 C 73.703125 53.035156 77.148438 54.855469 78.023438 57.675781 Z M 74.332031 69.726562 L 74.332031 67.089844 L 70.515625 69.664062 L 66.695312 65.023438 L 67.632812 72.476562 C 67.632812 72.476562 63.566406 76.160156 62.726562 84.214844 L 62.710938 84.222656 L 59.847656 86.757812 L 63.222656 87.671875 L 63.644531 85.210938 Z M 74.332031 102.210938 L 72.277344 103.320312 L 73.324219 99.574219 L 70.222656 103.320312 L 70.890625 96.9375 L 74.335938 94.34375 L 73.328125 93.257812 L 68.457031 95.347656 L 66.882812 106.0625 C 66.882812 106.0625 76.234375 106.0625 76.75 106.0625 C 77.269531 106.0625 76.75 103.320312 76.75 103.320312 C 74.765625 103.089844 74.332031 102.210938 74.332031 102.210938 Z M 52.417969 96.460938 L 53.046875 103.804688 L 51.894531 103.867188 L 49.472656 96.902344 L 48.410156 104.097656 L 47.261719 104.097656 L 46.261719 98.15625 L 45.09375 98.714844 L 45.667969 106.066406 L 54.355469 106.066406 L 54.355469 95.332031 L 49.265625 93.855469 Z M 74.894531 71.09375 C 75.394531 79.902344 74.226562 86.042969 73.484375 88.921875 C 73.125 90.308594 73.367188 91.804688 74.140625 93.027344 L 77.753906 98.714844 C 78.734375 98.648438 79.511719 98.289062 80.128906 97.621094 C 81.921875 95.65625 81.617188 91.765625 81.613281 91.726562 L 81.582031 91.367188 L 81.871094 91.152344 C 87.296875 87.171875 85.886719 83.183594 85.828125 83.015625 L 85.671875 82.601562 L 86.003906 82.308594 C 90.433594 78.398438 90.117188 73.898438 89.660156 71.851562 C 89.402344 72.183594 89.140625 72.511719 88.878906 72.839844 C 88.386719 73.464844 87.894531 74.085938 87.390625 74.703125 C 86.390625 75.941406 85.378906 77.164062 84.359375 78.382812 C 83.339844 79.609375 82.308594 80.820312 81.277344 82.027344 C 80.246094 83.242188 79.183594 84.429688 77.917969 85.449219 C 78.636719 83.988281 79.566406 82.691406 80.523438 81.425781 C 81.480469 80.15625 82.441406 78.882812 83.410156 77.625 C 84.378906 76.363281 85.355469 75.105469 86.347656 73.863281 C 86.839844 73.238281 87.339844 72.621094 87.84375 72.003906 C 88.34375 71.386719 88.839844 70.765625 89.355469 70.160156 L 89.378906 70.179688 L 89.386719 70.164062 C 91.878906 66.132812 91.527344 62.601562 91.113281 60.890625 C 90.867188 61.203125 90.625 61.507812 90.378906 61.820312 C 89.882812 62.441406 89.390625 63.066406 88.886719 63.679688 C 87.886719 64.917969 86.875 66.144531 85.851562 67.367188 C 84.835938 68.589844 83.804688 69.796875 82.769531 71.011719 C 81.742188 72.222656 80.679688 73.410156 79.410156 74.429688 C 80.132812 72.964844 81.0625 71.675781 82.023438 70.402344 C 82.980469 69.132812 83.9375 67.863281 84.910156 66.601562 C 85.878906 65.34375 86.855469 64.089844 87.847656 62.84375 C 88.335938 62.21875 88.839844 61.601562 89.335938 60.984375 C 89.832031 60.371094 90.328125 59.761719 90.835938 59.15625 C 93.917969 54.683594 93.597656 50.628906 93.179688 48.722656 C 92.859375 49.152344 92.539062 49.578125 92.210938 50.003906 C 91.628906 50.761719 91.054688 51.523438 90.460938 52.273438 C 89.289062 53.785156 88.101562 55.285156 86.910156 56.777344 L 85.117188 59.015625 L 83.308594 61.246094 C 82.113281 62.734375 80.898438 64.214844 79.410156 65.480469 C 80.261719 63.722656 81.386719 62.175781 82.527344 60.640625 L 84.226562 58.328125 L 85.9375 56.023438 C 87.085938 54.496094 88.234375 52.96875 89.398438 51.449219 C 89.976562 50.691406 90.570312 49.941406 91.15625 49.183594 C 91.726562 48.453125 92.296875 47.71875 92.878906 47 C 96.195312 39.023438 94.929688 33.53125 94.117188 31.328125 L 77.410156 60.375 C 75.550781 63.609375 74.679688 67.316406 74.894531 71.09375 Z M 48.933594 88.921875 C 48.191406 86.042969 47.023438 79.902344 47.523438 71.09375 C 47.734375 67.316406 46.867188 63.609375 45.007812 60.375 L 28.300781 31.332031 C 27.492188 33.550781 26.238281 39.058594 29.535156 47 C 30.121094 47.71875 30.6875 48.453125 31.257812 49.183594 C 31.847656 49.941406 32.441406 50.691406 33.015625 51.449219 C 34.179688 52.96875 35.332031 54.496094 36.476562 56.023438 L 38.191406 58.328125 L 39.890625 60.640625 C 41.027344 62.175781 42.15625 63.722656 43.003906 65.480469 C 41.519531 64.214844 40.304688 62.734375 39.109375 61.246094 L 37.300781 59.015625 L 35.503906 56.777344 C 34.316406 55.285156 33.128906 53.785156 31.953125 52.273438 C 31.363281 51.523438 30.785156 50.761719 30.207031 50.003906 C 29.875 49.574219 29.554688 49.144531 29.230469 48.714844 C 28.800781 50.605469 28.46875 54.640625 31.582031 59.15625 C 32.085938 59.757812 32.582031 60.371094 33.078125 60.984375 C 33.578125 61.601562 34.082031 62.21875 34.570312 62.84375 C 35.5625 64.089844 36.539062 65.34375 37.507812 66.601562 C 38.480469 67.863281 39.4375 69.132812 40.394531 70.402344 C 41.355469 71.675781 42.28125 72.964844 43.003906 74.429688 C 41.734375 73.410156 40.671875 72.222656 39.644531 71.011719 C 38.613281 69.796875 37.578125 68.589844 36.566406 67.367188 C 35.542969 66.144531 34.527344 64.917969 33.53125 63.679688 C 33.023438 63.066406 32.53125 62.441406 32.039062 61.820312 C 31.792969 61.507812 31.550781 61.203125 31.304688 60.890625 C 30.890625 62.601562 30.539062 66.132812 33.027344 70.164062 L 33.039062 70.179688 L 33.0625 70.160156 C 33.574219 70.765625 34.074219 71.386719 34.574219 72.003906 C 35.078125 72.621094 35.578125 73.238281 36.070312 73.863281 C 37.058594 75.105469 38.035156 76.363281 39.003906 77.625 C 39.976562 78.882812 40.9375 80.15625 41.894531 81.425781 C 42.851562 82.691406 43.78125 83.988281 44.5 85.449219 C 43.234375 84.429688 42.171875 83.242188 41.140625 82.027344 C 40.105469 80.820312 39.078125 79.609375 38.058594 78.382812 C 37.039062 77.164062 36.027344 75.941406 35.023438 74.703125 C 34.523438 74.085938 34.03125 73.464844 33.539062 72.839844 C 33.273438 72.511719 33.015625 72.179688 32.757812 71.851562 C 32.300781 73.898438 31.980469 78.398438 36.414062 82.308594 L 36.75 82.601562 L 36.589844 83.019531 C 36.527344 83.183594 35.121094 87.171875 40.546875 91.152344 L 40.832031 91.367188 L 40.804688 91.726562 C 40.800781 91.765625 40.492188 95.65625 42.289062 97.621094 C 42.902344 98.289062 43.679688 98.648438 44.664062 98.714844 L 48.277344 93.027344 C 49.050781 91.804688 49.292969 90.308594 48.933594 88.921875 Z M 100.878906 122.253906 C 97.238281 121.160156 95.628906 119.535156 95.53125 119.4375 C 96.628906 121.253906 98.1875 123.132812 98.1875 123.132812 C 90.546875 118.363281 90.339844 112.421875 90.339844 112.421875 C 91.921875 116.1875 95.527344 117.695312 95.527344 117.695312 C 88.78125 110.332031 89.523438 103.324219 89.523438 103.324219 C 88.789062 104.65625 87.828125 106.941406 87.851562 109.777344 C 87.867188 111.480469 88.238281 113.1875 88.945312 114.851562 L 89.03125 115.042969 C 90.648438 118.707031 93.941406 122.195312 98.808594 125.414062 C 100.277344 124.023438 101.746094 122.5625 103.203125 121.035156 C 101.15625 119.847656 99.40625 118.542969 97.90625 117.183594 C 98.328125 120.070312 100.878906 122.253906 100.878906 122.253906 Z M 100.878906 106.0625 L 90.683594 102.585938 C 91.347656 105.578125 94.105469 114.402344 104.109375 120.074219 C 106.375 117.636719 107.203125 115.503906 107.203125 113.6875 C 107.203125 108.671875 100.878906 106.0625 100.878906 106.0625 Z M 89.636719 100.878906 L 106.921875 106.765625 C 108.375 104.824219 109.757812 102.832031 111.035156 100.832031 C 108.566406 94.664062 102.222656 79.703125 92.683594 63.480469 C 92.675781 65.433594 92.21875 67.90625 90.632812 70.578125 C 91.089844 72.007812 92.539062 77.984375 87.152344 82.992188 C 87.460938 84.285156 87.859375 88.191406 82.910156 91.976562 C 82.949219 93.09375 82.910156 96.472656 81.070312 98.480469 C 80.265625 99.363281 79.226562 99.867188 77.984375 99.984375 L 77.582031 103.453125 L 86.609375 108.691406 C 86.921875 104.253906 89.25 101.351562 89.355469 101.222656 Z M 57.082031 46.167969 L 57.082031 45.222656 C 57.082031 43.644531 58.363281 42.359375 59.9375 42.359375 L 62.441406 42.359375 C 64.015625 42.359375 65.296875 43.644531 65.296875 45.222656 L 65.296875 46.164062 C 73.625 47.125 78.960938 50.765625 80.683594 52.109375 L 82.90625 48.253906 C 75.863281 38.242188 68.5625 29.871094 61.1875 23.359375 C 53.832031 29.859375 46.539062 38.226562 39.5 48.234375 L 41.730469 52.109375 C 43.453125 50.765625 48.777344 47.136719 57.082031 46.167969 Z M 41.34375 98.480469 C 39.503906 96.472656 39.46875 93.09375 39.507812 91.976562 C 34.558594 88.191406 34.957031 84.285156 35.265625 82.992188 C 29.878906 77.984375 31.328125 72.007812 31.785156 70.578125 C 30.1875 67.886719 29.734375 65.398438 29.734375 63.441406 C 20.179688 79.675781 13.816406 94.65625 11.34375 100.835938 C 13.277344 103.859375 15.4375 106.855469 17.769531 109.746094 L 18.207031 109.816406 L 27.429688 102.761719 L 32.824219 104.421875 L 38.375 99.308594 L 44.59375 101.371094 L 44.433594 99.984375 C 43.1875 99.867188 42.152344 99.363281 41.34375 98.480469 Z M 41.34375 98.480469 " fill-opacity="1" fill-rule="nonzero"/></g><g clip-path="url(#c2297a6678)"><path fill="#617f84" d="M 45.667969 88.65625 C 38.386719 90.332031 39.175781 82.65625 39.175781 82.65625 C 36.503906 80.753906 36.421875 78.136719 36.421875 78.136719 L 42.777344 83.855469 L 38.191406 77.359375 L 32.503906 71.082031 C 32.503906 71.082031 32.257812 70.617188 31.925781 69.867188 C 32.25 70.402344 32.503906 70.667969 32.503906 70.667969 L 39.84375 78.71875 C 35.089844 72.792969 33.246094 65.957031 33.246094 65.957031 L 41.644531 73.210938 L 32.503906 61.308594 L 37.011719 65.957031 C 31.890625 59.042969 30.910156 53.597656 30.910156 53.597656 L 41.332031 63.867188 L 28.988281 47.492188 C 26.902344 53.265625 30.910156 59.667969 30.910156 59.667969 L 32.503906 61.308594 L 30.828125 60.042969 C 30.285156 62.472656 30.304688 64.472656 30.5625 66.0625 C 30.140625 64.425781 29.933594 62.695312 30.386719 61.382812 L 28.386719 64.617188 C 28.386719 64.617188 28.019531 68.589844 29.648438 71.089844 C 29.648438 71.089844 27.226562 78.304688 33.238281 83.859375 C 33.238281 83.859375 32.738281 90.25 37.496094 93.261719 C 37.496094 93.261719 37.328125 95.4375 38.496094 96.777344 L 37.039062 96.191406 L 32.503906 102.214844 L 26.816406 99.960938 L 16.289062 108.691406 L 17.960938 110.832031 L 27.394531 103.324219 L 32.566406 105.296875 L 38.496094 100.457031 L 45.363281 102.214844 L 44.832031 99.578125 L 45.664062 97.78125 C 42.238281 95.988281 44.832031 92.425781 44.832031 92.425781 L 42.386719 92.425781 L 44.832031 91.089844 Z M 36 82.789062 C 35.203125 85.664062 36.589844 88.167969 37.972656 89.820312 C 36.535156 88.125 35.082031 85.570312 36 82.789062 Z M 93.425781 47.488281 C 93.425781 47.488281 97.816406 39.09375 94.117188 31.324219 C 94.117188 31.324219 92.640625 46.902344 84.226562 58.324219 Z M 91.507812 53.597656 C 91.507812 53.597656 90.523438 59.042969 85.40625 65.957031 L 89.914062 61.308594 L 80.769531 73.210938 L 89.171875 65.957031 C 89.171875 65.957031 87.332031 72.796875 82.574219 78.71875 L 89.914062 70.667969 C 89.914062 70.667969 93.1875 67.210938 91.589844 60.039062 L 89.914062 61.308594 L 91.507812 59.664062 C 91.507812 59.664062 95.515625 53.261719 93.425781 47.488281 L 81.085938 63.863281 Z M 77.015625 65.558594 C 76.980469 65.828125 76.980469 65.957031 76.980469 65.957031 C 87.078125 53.296875 87.558594 45.816406 87.558594 45.816406 C 87.558594 45.816406 84.578125 50.171875 80.769531 56.726562 C 77.796875 61.839844 77.15625 64.589844 77.015625 65.558594 Z M 82.90625 67.15625 C 86.074219 64.144531 87.851562 59.664062 87.851562 59.664062 C 82.863281 63.140625 82.90625 67.15625 82.90625 67.15625 Z M 28.296875 31.328125 C 24.601562 39.09375 28.988281 47.492188 28.988281 47.492188 L 38.191406 58.328125 C 29.777344 46.90625 28.296875 31.328125 28.296875 31.328125 Z M 45.398438 65.558594 C 45.261719 64.589844 44.621094 61.839844 41.644531 56.722656 C 37.839844 50.167969 34.859375 45.816406 34.859375 45.816406 C 34.859375 45.816406 35.339844 53.292969 45.4375 65.953125 C 45.4375 65.957031 45.4375 65.828125 45.398438 65.558594 Z M 39.511719 67.15625 C 39.511719 67.15625 39.554688 63.140625 34.566406 59.664062 C 34.566406 59.664062 36.34375 64.144531 39.511719 67.15625 Z M 105.113281 106.878906 L 89.921875 101.71875 L 90.683594 104.097656 C 90.683594 104.097656 98.753906 105.746094 101.570312 110.265625 C 101.570312 110.265625 98.878906 108.449219 97.183594 108.070312 C 97.183594 108.070312 104.824219 113.90625 101.570312 119.113281 L 104.136719 120.929688 L 108.828125 114.363281 Z M 99.816406 118.070312 L 94.3125 113.507812 L 90.683594 105.097656 L 89.523438 103.320312 C 88.789062 107.398438 90.492188 111.835938 90.492188 111.835938 C 89.726562 110.539062 89.085938 108.234375 89.085938 108.234375 C 89.085938 108.234375 88.492188 113.652344 92.46875 118.988281 C 96.441406 124.324219 100.742188 124.636719 100.742188 124.636719 C 99.25 123.589844 98.625 122.253906 98.625 122.253906 C 99.519531 123.089844 101.734375 123.675781 101.734375 123.675781 L 102.863281 122.503906 C 100.523438 121.207031 99.816406 118.070312 99.816406 118.070312 Z M 85.332031 92.953125 C 90.089844 89.941406 89.585938 83.546875 89.585938 83.546875 C 95.597656 77.992188 93.179688 70.777344 93.179688 70.777344 C 94.804688 68.28125 94.4375 64.304688 94.4375 64.304688 L 92.4375 61.074219 C 93.621094 64.503906 90.324219 70.777344 90.324219 70.777344 C 92.476562 77.304688 86.828125 82.480469 86.828125 82.480469 C 88.453125 87.410156 82.648438 91.613281 82.648438 91.613281 C 82.730469 95.234375 81.519531 97.152344 80.3125 98.160156 C 81.390625 97.085938 82.355469 95.207031 82.238281 91.917969 C 82.238281 91.917969 87.84375 87.953125 86.417969 82.785156 C 86.417969 82.785156 92.328125 77.445312 89.914062 71.082031 L 84.226562 77.359375 L 79.640625 83.855469 L 85.996094 78.136719 C 85.996094 78.136719 85.914062 80.753906 83.242188 82.65625 C 83.242188 82.65625 84.027344 90.332031 76.75 88.65625 L 77.582031 91.085938 L 80.027344 92.421875 L 77.582031 92.421875 C 77.582031 92.421875 80.175781 95.980469 76.75 97.78125 L 77.582031 99.574219 C 77.582031 99.574219 77.722656 99.5625 77.941406 99.507812 L 77.707031 100.660156 L 76.980469 100.703125 L 76.75 103.320312 L 86.832031 109.8125 L 87.558594 106.8125 L 82.398438 100.527344 C 84.761719 98.464844 85.332031 92.953125 85.332031 92.953125 Z M 83.621094 48.664062 L 82.269531 45.816406 L 79.175781 48.664062 C 75.023438 45.902344 67.296875 44.011719 67.296875 44.011719 L 67.296875 43.808594 C 67.296875 42.054688 65.878906 40.632812 64.128906 40.632812 L 58.449219 40.632812 C 56.699219 40.632812 55.277344 42.054688 55.277344 43.808594 L 55.277344 44.460938 C 49.601562 45.195312 42.757812 48.664062 42.757812 48.664062 L 40.917969 45.402344 L 38.796875 47.996094 L 41.648438 53.265625 L 57.53125 47.492188 C 57.199219 43.394531 59.367188 43.476562 61.863281 43.226562 C 64.355469 42.976562 64.421875 44.464844 64.421875 44.464844 L 65.03125 47.996094 C 72.535156 47.324219 80.769531 53.265625 80.769531 53.265625 Z M 83.621094 48.664062 " fill-opacity="1" fill-rule="nonzero"/></g><g clip-path="url(#4ee96a9a99)"><path fill="#071e52" d="M 119.765625 101.214844 L 119.761719 101.207031 C 119.390625 100.203125 110.511719 76.253906 95.035156 51.972656 C 95.15625 49.726562 94.707031 48.058594 94.464844 47.34375 C 98.941406 36.332031 95.175781 29.707031 95.011719 29.429688 L 94.171875 28.019531 L 87.082031 40.347656 C 78.910156 29.230469 70.394531 20.175781 61.777344 13.433594 L 61.1875 12.96875 L 60.59375 13.433594 C 51.984375 20.167969 43.480469 29.214844 35.3125 40.320312 L 28.246094 28.015625 L 27.402344 29.429688 C 27.238281 29.707031 23.472656 36.332031 27.949219 47.34375 C 27.710938 48.058594 27.269531 49.707031 27.378906 51.917969 C 11.878906 76.214844 2.988281 100.199219 2.613281 101.214844 L 2.460938 101.640625 L 2.691406 102.03125 C 13.390625 120.207031 28.621094 132.859375 39.515625 140.273438 C 51.359375 148.332031 60.753906 152.109375 60.835938 152.136719 L 61.191406 152.28125 L 61.542969 152.140625 C 61.628906 152.109375 71.023438 148.332031 82.867188 140.273438 C 93.761719 132.859375 108.992188 120.207031 119.691406 102.03125 L 119.921875 101.640625 Z M 48.621094 89 C 48.957031 90.304688 48.734375 91.707031 48.003906 92.851562 L 44.496094 98.378906 C 43.6875 98.285156 43.042969 97.964844 42.523438 97.402344 C 40.832031 95.558594 41.117188 91.792969 41.121094 91.753906 L 41.167969 91.21875 L 40.734375 90.894531 C 35.449219 87.019531 36.871094 83.175781 36.886719 83.136719 L 37.128906 82.511719 L 36.625 82.070312 C 32.800781 78.695312 32.585938 74.917969 32.941406 72.605469 C 33.058594 72.75 33.171875 72.894531 33.289062 73.039062 C 33.78125 73.664062 34.277344 74.292969 34.777344 74.90625 C 35.742188 76.101562 36.738281 77.304688 37.816406 78.59375 C 38.855469 79.84375 39.910156 81.082031 40.902344 82.238281 C 42.0625 83.609375 43.085938 84.722656 44.304688 85.703125 L 45.433594 86.609375 L 44.792969 85.3125 C 44.101562 83.90625 43.238281 82.667969 42.152344 81.234375 C 41.289062 80.085938 40.28125 78.753906 39.257812 77.429688 C 38.257812 76.121094 37.269531 74.855469 36.320312 73.664062 C 35.832031 73.042969 35.324219 72.421875 34.824219 71.804688 C 34.332031 71.195312 33.820312 70.5625 33.308594 69.953125 L 33.195312 69.816406 C 31.167969 66.433594 31.175781 63.433594 31.484375 61.632812 L 31.945312 62.214844 C 32.378906 62.765625 32.828125 63.335938 33.285156 63.886719 C 34.15625 64.964844 35.089844 66.101562 36.320312 67.574219 C 37.164062 68.589844 38.035156 69.613281 38.875 70.597656 L 39.402344 71.222656 C 40.34375 72.328125 41.457031 73.597656 42.808594 74.683594 L 43.933594 75.589844 L 43.292969 74.292969 C 42.53125 72.746094 41.53125 71.375 40.636719 70.1875 C 39.699219 68.949219 38.734375 67.664062 37.765625 66.410156 C 36.65625 64.96875 35.722656 63.773438 34.824219 62.648438 C 34.386719 62.089844 33.9375 61.539062 33.488281 60.984375 L 33.324219 60.785156 C 32.878906 60.230469 32.355469 59.582031 31.84375 58.980469 C 29.152344 55.074219 29.082031 51.566406 29.410156 49.488281 C 29.589844 49.726562 29.769531 49.964844 29.953125 50.203125 L 30.285156 50.640625 C 30.757812 51.253906 31.226562 51.871094 31.699219 52.476562 C 32.9375 54.070312 34.191406 55.648438 35.253906 56.984375 L 38.859375 61.453125 C 40.152344 63.058594 41.339844 64.488281 42.796875 65.726562 L 43.949219 66.707031 L 43.292969 65.34375 C 42.460938 63.621094 41.375 62.109375 40.144531 60.449219 L 38.445312 58.136719 L 36.734375 55.835938 C 35.414062 54.070312 34.3125 52.617188 33.273438 51.261719 C 32.84375 50.695312 32.40625 50.140625 31.96875 49.578125 L 31.507812 48.988281 C 30.957031 48.28125 30.386719 47.550781 29.816406 46.839844 C 26.851562 39.683594 27.660156 34.515625 28.382812 32.117188 L 44.730469 60.539062 C 46.558594 63.722656 47.417969 67.371094 47.203125 71.082031 C 46.703125 79.933594 47.875 86.109375 48.621094 89 Z M 75.214844 71.074219 C 75.003906 67.359375 75.859375 63.714844 77.6875 60.535156 L 94.042969 32.101562 C 94.765625 34.492188 95.578125 39.648438 92.601562 46.832031 C 92.015625 47.558594 91.441406 48.292969 90.902344 48.984375 C 90.691406 49.257812 90.480469 49.527344 90.269531 49.796875 C 89.890625 50.28125 89.511719 50.765625 89.140625 51.253906 C 87.917969 52.851562 86.703125 54.464844 85.679688 55.832031 L 83.96875 58.136719 L 82.269531 60.449219 C 81.039062 62.109375 79.953125 63.621094 79.121094 65.34375 L 78.457031 66.707031 L 79.617188 65.726562 C 81.074219 64.484375 82.265625 63.054688 83.554688 61.453125 L 87.160156 56.980469 C 88.292969 55.5625 89.5 54.039062 90.710938 52.476562 C 91.125 51.953125 91.527344 51.425781 91.929688 50.898438 L 92.464844 50.203125 C 92.644531 49.96875 92.820312 49.734375 93 49.5 C 93.3125 51.59375 93.234375 55.113281 90.59375 58.953125 C 90.085938 59.554688 89.585938 60.167969 89.089844 60.78125 L 88.769531 61.183594 C 88.375 61.667969 87.980469 62.152344 87.601562 62.640625 C 86.707031 63.761719 85.773438 64.957031 84.660156 66.402344 C 83.699219 67.648438 82.734375 68.925781 81.808594 70.15625 L 81.769531 70.203125 C 80.890625 71.367188 79.890625 72.734375 79.125 74.28125 L 78.484375 75.582031 L 79.613281 74.671875 C 80.835938 73.691406 81.855469 72.578125 83.015625 71.210938 C 83.972656 70.089844 85.058594 68.8125 86.097656 67.566406 C 87.328125 66.09375 88.265625 64.953125 89.136719 63.875 C 89.523438 63.40625 89.902344 62.925781 90.28125 62.449219 L 90.9375 61.621094 C 91.246094 63.429688 91.25 66.4375 89.214844 69.820312 L 89.109375 69.945312 C 88.601562 70.542969 88.097656 71.167969 87.597656 71.792969 C 87.09375 72.410156 86.589844 73.03125 86.097656 73.652344 C 85.238281 74.734375 84.328125 75.894531 83.160156 77.417969 C 82.164062 78.714844 81.179688 80.011719 80.273438 81.222656 C 79.1875 82.652344 78.324219 83.894531 77.632812 85.300781 L 76.992188 86.597656 L 78.117188 85.691406 C 79.335938 84.710938 80.359375 83.597656 81.519531 82.226562 L 81.835938 81.855469 C 82.75 80.785156 83.6875 79.683594 84.601562 78.582031 C 85.710938 77.257812 86.703125 76.050781 87.636719 74.898438 C 88.160156 74.257812 88.679688 73.597656 89.128906 73.03125 C 89.246094 72.886719 89.359375 72.742188 89.476562 72.59375 C 89.832031 74.902344 89.613281 78.683594 85.789062 82.054688 L 85.296875 82.5 L 85.523438 83.113281 C 85.582031 83.277344 86.886719 87.058594 81.675781 90.882812 L 81.246094 91.203125 L 81.289062 91.738281 C 81.292969 91.777344 81.578125 95.542969 79.886719 97.386719 C 79.371094 97.953125 78.722656 98.273438 77.914062 98.367188 L 74.40625 92.839844 C 73.679688 91.691406 73.457031 90.285156 73.789062 88.988281 C 74.539062 86.109375 75.71875 79.933594 75.214844 71.074219 Z M 61.1875 23.785156 C 68.421875 30.207031 75.597656 38.445312 82.523438 48.269531 L 80.589844 51.632812 C 78.492188 50.058594 73.378906 46.839844 65.613281 45.878906 L 65.613281 45.222656 C 65.613281 43.46875 64.191406 42.039062 62.441406 42.039062 L 59.9375 42.039062 C 58.1875 42.039062 56.761719 43.46875 56.761719 45.222656 L 56.761719 45.882812 C 49.015625 46.847656 43.914062 50.0625 41.824219 51.632812 L 39.878906 48.25 C 46.800781 38.429688 53.96875 30.203125 61.1875 23.785156 Z M 68.84375 104.640625 L 69.558594 96.347656 L 73.046875 94.289062 L 76.414062 99.597656 L 75.796875 104.964844 C 72.925781 105.039062 70.324219 104.8125 68.84375 104.640625 Z M 46 99.59375 L 49.371094 94.285156 L 52.859375 96.347656 L 53.574219 104.636719 C 52.84375 104.722656 52.097656 104.789062 51.355469 104.84375 L 49.691406 98.722656 L 48.914062 104.957031 C 48.105469 104.976562 47.351562 104.976562 46.621094 104.957031 Z M 40.695312 102.238281 C 40.863281 102.101562 41.054688 102.039062 41.28125 102.039062 C 41.433594 102.039062 41.605469 102.070312 41.789062 102.132812 L 44.460938 103.019531 L 44.492188 103.28125 L 39.898438 105.945312 C 39.84375 104.816406 39.917969 102.867188 40.695312 102.238281 Z M 29.464844 64.539062 C 29.636719 66.617188 30.296875 68.660156 31.4375 70.617188 C 30.996094 72.101562 29.660156 78.09375 34.917969 83.097656 C 34.582031 84.722656 34.488281 88.46875 39.183594 92.128906 C 39.148438 93.5625 39.300781 96.722656 41.113281 98.695312 C 41.914062 99.574219 42.9375 100.105469 44.148438 100.273438 L 44.222656 100.910156 L 38.300781 98.949219 L 32.746094 104.0625 L 27.375 102.410156 L 18.128906 109.480469 L 17.945312 109.453125 C 15.6875 106.644531 13.589844 103.734375 11.707031 100.804688 C 14.019531 95.035156 20.203125 80.429688 29.464844 64.539062 Z M 73.273438 69.363281 C 72.609375 69.601562 71.507812 70.082031 70.25 70.988281 L 67.378906 66.667969 L 68.378906 72.59375 C 66.976562 74.011719 65.773438 75.75 64.804688 77.769531 C 63.617188 80.238281 62.773438 83.15625 62.292969 86.441406 L 60.121094 86.441406 C 58.265625 73.703125 51.535156 70.210938 49.152344 69.367188 C 49.160156 68.355469 49.089844 64.265625 47.617188 58.636719 C 48.121094 58.171875 50.015625 56.503906 52.285156 55.746094 L 54.160156 55.121094 L 52.1875 55.121094 C 52.109375 55.121094 50.644531 55.125 49.035156 55.335938 C 50.089844 54.621094 52.019531 53.5625 54.929688 52.910156 L 56.21875 52.621094 L 54.941406 52.289062 C 54.855469 52.265625 53.355469 51.878906 51.757812 51.773438 C 53.070312 51.285156 55.019531 50.6875 56.761719 50.660156 L 56.761719 62.296875 C 56.761719 64.050781 58.1875 65.476562 59.9375 65.476562 L 62.441406 65.476562 C 64.058594 65.476562 65.414062 64.265625 65.589844 62.671875 L 67.296875 53.007812 C 68.09375 53.019531 70.609375 53.144531 72.871094 54.285156 L 74.082031 54.898438 L 73.269531 53.808594 C 73.222656 53.742188 72.238281 52.433594 70.683594 51.035156 C 72.554688 51.480469 76.164062 52.574219 78.765625 54.8125 L 76.023438 59.578125 C 74.324219 62.527344 73.371094 65.910156 73.273438 69.363281 Z M 63.695312 45.222656 L 63.695312 55.679688 C 63.03125 52.09375 62.1875 46.472656 63.035156 44.585938 C 63.125 44.40625 63.222656 44.328125 63.246094 44.328125 C 63.273438 44.328125 63.410156 44.402344 63.601562 44.75 C 63.667969 44.902344 63.695312 45.0625 63.695312 45.222656 Z M 58.683594 45.851562 C 58.683594 45.046875 58.863281 44.847656 58.917969 44.808594 C 58.929688 44.796875 58.957031 44.777344 59 44.777344 C 59.011719 44.777344 59.03125 44.78125 59.046875 44.785156 C 59.082031 44.796875 59.117188 44.8125 59.160156 44.832031 C 59.394531 44.941406 59.605469 45.144531 59.792969 45.433594 C 60.058594 45.835938 60.273438 46.394531 60.433594 47.101562 L 60.574219 47.722656 C 61.332031 51.015625 63.632812 61.03125 61.914062 63.195312 C 61.722656 63.4375 61.5 63.546875 61.210938 63.546875 L 59.941406 63.546875 C 59.25 63.546875 58.6875 62.980469 58.6875 62.289062 L 58.6875 45.851562 Z M 83.582031 46.4375 C 76.519531 36.515625 69.199219 28.222656 61.820312 21.777344 L 61.1875 21.230469 L 60.558594 21.777344 C 53.199219 28.207031 45.886719 36.492188 38.824219 46.414062 L 36.363281 42.132812 C 44.386719 31.121094 52.738281 22.132812 61.1875 15.40625 C 69.652344 22.144531 78.011719 31.144531 86.039062 42.164062 Z M 27.820312 54.820312 C 28.25 56.484375 28.980469 58.109375 29.996094 59.664062 C 29.953125 59.789062 29.910156 59.9375 29.859375 60.109375 C 19.242188 77.667969 12.253906 94.234375 9.738281 100.546875 L 9.554688 101.007812 L 9.816406 101.421875 C 11.425781 103.957031 13.207031 106.496094 15.125 108.980469 L 13.851562 108.769531 L 11.058594 111.039062 C 8.683594 107.914062 6.503906 104.691406 4.578125 101.453125 C 5.726562 98.402344 14.003906 76.941406 27.820312 54.820312 Z M 14.171875 110.980469 C 20.226562 124.839844 36.808594 130.578125 36.976562 130.632812 L 39.628906 131.527344 L 37.246094 130.058594 C 25.269531 122.65625 19.804688 112.886719 18.957031 111.265625 L 27.503906 104.722656 C 31.890625 120.722656 47.476562 128.941406 47.632812 129.023438 L 49.789062 130.136719 L 48 128.5 C 35.679688 117.261719 33.714844 107.34375 33.496094 105.988281 L 35.921875 103.753906 C 36.566406 105.652344 39.382812 112.464844 47.644531 116.082031 C 51.503906 117.890625 56.160156 119.066406 61.113281 119.488281 C 62.652344 119.621094 64.289062 119.683594 65.980469 119.683594 C 76.070312 119.683594 85.042969 117.308594 87.9375 116.460938 C 88.617188 117.8125 89.515625 119.152344 90.617188 120.449219 C 85.609375 122.867188 72.695312 125.714844 72.558594 125.742188 L 72.503906 125.753906 L 63.722656 131.375 C 59.34375 133.015625 50.714844 134.679688 50.628906 134.699219 L 48.34375 135.136719 L 50.660156 135.332031 C 71.003906 137.0625 89.792969 123.675781 92.046875 122.007812 C 93.53125 123.503906 95.3125 124.964844 97.339844 126.351562 C 92.539062 130.78125 87.320312 134.917969 81.816406 138.664062 C 71.480469 145.699219 63.078125 149.410156 61.191406 150.203125 C 59.308594 149.40625 50.902344 145.695312 40.566406 138.664062 C 32.90625 133.445312 21.796875 124.695312 12.234375 112.558594 Z M 88.171875 109.773438 C 88.152344 107.769531 88.636719 106.046875 89.195312 104.730469 C 89.320312 106.964844 90.105469 111.511719 94.039062 116.445312 C 92.914062 115.636719 91.476562 114.289062 90.636719 112.296875 L 89.960938 110.691406 L 90.023438 112.433594 C 90.03125 112.683594 90.324219 118.597656 98.019531 123.402344 L 99.488281 124.320312 C 99.25 124.550781 99.011719 124.777344 98.773438 125 C 94.070312 121.855469 90.894531 118.457031 89.324219 114.90625 L 89.242188 114.722656 C 88.546875 113.097656 88.1875 111.433594 88.171875 109.773438 Z M 98.433594 122.925781 C 98.421875 122.914062 97.660156 121.988281 96.835938 120.824219 C 97.726562 121.378906 99.023438 122.027344 100.789062 122.558594 L 101.160156 122.671875 C 100.625 123.210938 100.082031 123.746094 99.546875 124.265625 Z M 101.085938 122.007812 C 101.0625 121.988281 99.164062 120.339844 98.445312 118.082031 C 99.75 119.1875 101.175781 120.199219 102.695312 121.105469 C 102.292969 121.523438 101.886719 121.9375 101.480469 122.347656 Z M 100.753906 106.355469 C 100.816406 106.382812 106.882812 108.941406 106.882812 113.683594 C 106.882812 115.570312 105.929688 117.585938 104.046875 119.667969 C 94.832031 114.339844 91.933594 106.214844 91.125 103.078125 Z M 89.53125 100.503906 L 89.105469 101.019531 C 88.859375 101.324219 86.769531 104.027344 86.332031 108.160156 L 77.925781 103.28125 L 78.273438 100.273438 C 79.484375 100.105469 80.503906 99.574219 81.304688 98.695312 C 83.117188 96.722656 83.265625 93.5625 83.230469 92.128906 C 87.929688 88.464844 87.835938 84.722656 87.5 83.097656 C 92.753906 78.089844 91.417969 72.101562 90.980469 70.617188 C 92.113281 68.667969 92.773438 66.640625 92.949219 64.574219 C 102.179688 80.425781 108.359375 95.027344 110.671875 100.792969 C 109.472656 102.664062 108.171875 104.542969 106.800781 106.382812 Z M 112.5625 101.414062 L 112.824219 101 L 112.644531 100.542969 C 110.140625 94.246094 103.175781 77.71875 92.578125 60.175781 C 92.527344 59.996094 92.476562 59.820312 92.425781 59.660156 C 93.429688 58.117188 94.15625 56.507812 94.585938 54.855469 C 108.386719 76.964844 116.652344 98.398438 117.800781 101.445312 C 116.402344 103.796875 114.84375 106.183594 113.15625 108.542969 L 108.714844 107.035156 C 110.101562 105.152344 111.394531 103.261719 112.5625 101.414062 Z M 59.09375 144.554688 C 59.582031 144.625 60.082031 144.65625 60.59375 144.65625 C 69.6875 144.65625 81.613281 134.15625 81.738281 134.042969 L 83.652344 132.339844 L 81.375 133.519531 C 67.101562 140.914062 53.390625 140.015625 53.253906 140.007812 L 52.621094 139.960938 L 52.957031 140.496094 C 54.425781 142.820312 56.484375 144.1875 59.09375 144.554688 Z M 52.832031 67.339844 L 51.011719 67.109375 L 52.648438 67.945312 C 52.703125 67.96875 57.96875 70.726562 60.25 78.230469 L 60.75 79.875 L 60.875 78.160156 C 60.882812 78.0625 61.488281 68.429688 52.832031 67.339844 Z M 52.832031 67.339844 " fill-opacity="1" fill-rule="nonzero"/></g></svg>