<svg xmlns="http://www.w3.org/2000/svg" xmlns:xlink="http://www.w3.org/1999/xlink" width="130" zoomAndPan="magnify" viewBox="0 0 97.5 131.999998" height="176" preserveAspectRatio="xMidYMid meet" version="1.0"><defs><clipPath id="c889c87d16"><path d="M 4.777344 14.394531 L 92.082031 14.394531 L 92.082031 117.367188 L 4.777344 117.367188 Z M 4.777344 14.394531 " clip-rule="nonzero"/></clipPath></defs><g clip-path="url(#c889c87d16)"><path fill="#c3642c" d="M 47.578125 116.957031 C 47.140625 116.777344 40.316406 113.953125 32.070312 108.359375 C 24.164062 102.992188 13.105469 93.832031 5.320312 80.648438 L 4.777344 79.71875 L 5.140625 78.714844 C 5.40625 77.988281 11.714844 61.023438 22.699219 43.742188 C 22.695312 42.609375 22.859375 41.679688 23.03125 41.015625 C 19.925781 32.914062 22.628906 27.929688 22.949219 27.382812 L 24.953125 24.03125 L 30.148438 33.042969 C 35.617188 25.910156 41.289062 20.027344 47.027344 15.550781 L 48.429688 14.457031 L 49.835938 15.550781 C 55.582031 20.039062 61.257812 25.925781 66.726562 33.066406 L 71.9375 24.03125 L 73.933594 27.371094 C 74.261719 27.925781 76.964844 32.914062 73.859375 41.015625 C 74.03125 41.683594 74.199219 42.632812 74.1875 43.785156 C 85.179688 61.085938 91.457031 77.988281 91.71875 78.703125 L 92.085938 79.71875 L 91.542969 80.644531 C 83.757812 93.832031 72.699219 102.992188 64.792969 108.359375 C 56.28125 114.132812 49.316406 116.945312 49.25 116.972656 L 48.429688 117.304688 Z M 47.578125 116.957031 " fill-opacity="1" fill-rule="nonzero"/></g><path fill="#f2b10c" d="M 70.460938 93.738281 L 70.464844 93.742188 C 70.464844 93.742188 56.421875 104.605469 40.9375 103.296875 C 40.9375 103.296875 47.164062 102.105469 50.335938 100.914062 L 56.589844 96.925781 C 56.589844 96.925781 66.359375 94.792969 69.789062 93.011719 C 68.882812 91.976562 68.160156 90.914062 67.632812 89.828125 C 65.984375 90.320312 59.300781 92.164062 51.847656 92.164062 C 50.707031 92.164062 49.554688 92.125 48.394531 92.027344 C 44.773438 91.71875 41.511719 90.863281 38.863281 89.625 C 32.023438 86.636719 30.511719 80.648438 30.511719 80.648438 L 28.429688 82.5625 C 28.429688 82.5625 29.265625 90.097656 38.863281 98.832031 C 38.863281 98.832031 27.539062 92.996094 24.53125 81.363281 L 18.011719 86.339844 C 18.011719 86.339844 21.761719 94.128906 31.230469 99.964844 C 31.230469 99.964844 19.199219 95.914062 14.980469 85.832031 L 13.1875 87.289062 C 19.882812 95.8125 27.652344 102.046875 33.589844 106.078125 C 41.171875 111.226562 47.347656 113.894531 48.433594 114.347656 C 49.515625 113.894531 55.691406 111.226562 63.273438 106.078125 C 66.632812 103.800781 70.578125 100.8125 74.585938 97.105469 C 72.96875 96.027344 71.59375 94.902344 70.460938 93.738281 Z M 42.753906 107.074219 C 42.753906 107.074219 52.574219 107.789062 62.9375 102.4375 C 62.597656 102.738281 48.050781 115.457031 42.753906 107.074219 Z M 36.765625 80.847656 L 33.042969 83 C 33.042969 83 32.617188 79.011719 34.664062 79.691406 L 36.710938 80.363281 Z M 50.449219 39.425781 L 50.449219 49.132812 C 50.449219 49.132812 48.585938 40.980469 49.542969 38.878906 C 49.617188 38.726562 49.925781 38.195312 50.363281 38.996094 C 50.417969 39.128906 50.449219 39.273438 50.449219 39.425781 Z M 48.445312 52.6875 L 47.539062 52.6875 C 46.921875 52.6875 46.417969 52.183594 46.417969 51.566406 L 46.417969 39.875 C 46.417969 38.878906 46.785156 38.847656 46.972656 38.898438 C 47.007812 38.910156 47.046875 38.925781 47.082031 38.941406 C 47.253906 39.023438 47.445312 39.175781 47.625 39.449219 C 47.808594 39.726562 47.984375 40.128906 48.113281 40.710938 C 48.605469 42.882812 51.019531 52.6875 48.445312 52.6875 Z M 89.070312 79.445312 C 87.972656 81.292969 86.804688 83.054688 85.59375 84.742188 L 81.96875 83.511719 C 83 82.121094 83.984375 80.699219 84.890625 79.273438 L 85.011719 79.078125 L 84.929688 78.863281 C 83.140625 74.378906 78.171875 62.625 70.613281 50.15625 C 70.558594 49.953125 70.507812 49.789062 70.464844 49.667969 C 71.402344 48.253906 71.910156 46.90625 72.160156 45.699219 C 82.324219 61.8125 88.339844 77.496094 89.070312 79.445312 Z M 66.429688 37.242188 L 64.425781 40.710938 C 59.339844 33.550781 54.0625 27.5625 48.730469 22.921875 L 48.433594 22.664062 L 48.132812 22.921875 C 42.8125 27.558594 37.542969 33.539062 32.457031 40.699219 L 30.449219 37.21875 C 36.257812 29.253906 42.304688 22.765625 48.433594 17.933594 C 54.5625 22.769531 60.617188 29.265625 66.429688 37.242188 Z M 11.9375 78.863281 L 11.851562 79.082031 L 11.976562 79.277344 C 13.226562 81.246094 14.617188 83.199219 16.109375 85.097656 L 14.722656 84.867188 L 12.628906 86.566406 C 10.925781 84.34375 9.292969 81.972656 7.792969 79.445312 C 8.523438 77.496094 14.546875 61.792969 24.726562 45.664062 C 24.972656 46.878906 25.480469 48.242188 26.429688 49.667969 C 26.390625 49.78125 26.34375 49.925781 26.292969 50.105469 C 18.71875 62.589844 13.734375 74.371094 11.9375 78.863281 Z M 11.9375 78.863281 " fill-opacity="1" fill-rule="nonzero"/><path fill="#c3642c" d="M 47.015625 50.742188 L 48.234375 51.566406 L 47.253906 49.96875 L 48.621094 50.773438 L 47.402344 48.75 C 47.402344 48.75 48.566406 45.890625 47.992188 43.183594 C 47.421875 40.476562 46.144531 40.058594 46.144531 40.058594 L 46.144531 38.566406 L 49.863281 38.003906 L 50.617188 38.566406 C 50.617188 38.566406 50.023438 38.597656 49.613281 40.355469 C 49.207031 42.117188 50.738281 47.015625 50.738281 47.015625 L 50.734375 50.5625 C 50.734375 50.5625 50.855469 52.648438 49.097656 53.125 C 47.339844 53.601562 46.144531 52.171875 46.144531 52.171875 C 46.625 51.984375 47.015625 50.742188 47.015625 50.742188 Z M 41.175781 99.546875 C 31.230469 91.988281 30.277344 83 30.277344 83 C 30.792969 84.660156 35.097656 87.324219 35.097656 87.324219 L 33.496094 84.742188 L 32.996094 83.835938 L 35.832031 83 C 33.375 81.511719 34.671875 79.3125 34.671875 79.3125 L 32.058594 79.3125 L 32.640625 83.1875 L 30.875 79.964844 L 28.015625 82.160156 L 24.730469 80.980469 L 23.546875 81.609375 C 24.082031 84.980469 27.296875 89.667969 27.296875 89.667969 C 25.332031 87.765625 23.308594 84.3125 23.308594 84.3125 C 25.035156 89.550781 28.488281 92.941406 28.488281 92.941406 C 26.285156 91.691406 24.082031 89 24.082031 89 C 28.429688 96.425781 34.445312 98.660156 34.445312 98.660156 C 32.183594 96.574219 30.992188 94.3125 30.992188 94.3125 C 37.664062 100.617188 41.175781 99.546875 41.175781 99.546875 Z M 86.625 78.1875 C 83.082031 69.3125 69.976562 39 49.933594 21.546875 L 48.433594 20.242188 L 46.933594 21.546875 C 26.917969 38.980469 13.789062 69.308594 10.242188 78.1875 L 9.808594 79.269531 L 10.433594 80.253906 C 11.6875 82.226562 13.015625 84.097656 14.394531 85.871094 L 14.875 85.527344 L 12.589844 87.167969 L 18.007812 93.476562 C 18.007812 93.476562 24.5625 99.78125 26.429688 101.152344 C 28.296875 102.519531 31.527344 102.816406 31.527344 102.816406 C 28.847656 101.746094 27.300781 99.613281 27.300781 99.613281 C 30.277344 101.40625 35.578125 100.777344 35.578125 100.777344 C 23.488281 95.824219 18.605469 85.367188 18.605469 85.367188 L 17.113281 86.03125 L 15.089844 85.367188 L 17.109375 86.03125 L 17.359375 85.921875 C 15.605469 83.78125 13.925781 81.484375 12.363281 79.027344 C 15.59375 70.9375 28.652344 40.492188 48.433594 23.265625 C 68.242188 40.511719 81.277344 70.9375 84.503906 79.027344 C 80.699219 85.015625 76.164062 90.054688 71.714844 94.160156 L 72.222656 94.59375 L 70.464844 93.097656 L 67.453125 88.992188 L 66.652344 89.617188 C 66.652344 89.617188 67.402344 91.8125 68.039062 92.664062 C 68.039062 92.664062 59.089844 95.910156 53.648438 96.089844 C 48.207031 96.265625 45.214844 96.089844 45.214844 96.089844 C 45.214844 96.089844 50.304688 97.5625 51.957031 97.742188 C 51.957031 97.742188 50.394531 99.617188 48.695312 100.285156 C 47 100.953125 34.886719 103.363281 34.886719 103.363281 C 34.886719 103.363281 40.835938 105.242188 46.824219 104.75 C 46.824219 104.75 43.796875 105.777344 40.308594 105.730469 C 40.308594 105.730469 40.757812 107.890625 42.691406 109.492188 C 42.6875 109.492188 42.6875 109.492188 42.6875 109.492188 C 42.714844 109.511719 42.742188 109.535156 42.769531 109.558594 C 42.875 109.640625 42.976562 109.71875 43.085938 109.796875 C 43.136719 109.832031 43.1875 109.867188 43.234375 109.902344 C 43.289062 109.9375 43.347656 109.972656 43.402344 110.007812 C 43.460938 110.046875 43.519531 110.082031 43.582031 110.117188 C 43.636719 110.148438 43.691406 110.183594 43.746094 110.214844 C 43.820312 110.253906 43.894531 110.292969 43.972656 110.332031 C 44.019531 110.359375 44.066406 110.382812 44.117188 110.40625 C 44.242188 110.464844 44.371094 110.523438 44.503906 110.578125 C 44.539062 110.589844 44.574219 110.605469 44.609375 110.617188 C 44.714844 110.660156 44.824219 110.699219 44.933594 110.738281 C 44.984375 110.753906 45.039062 110.769531 45.09375 110.789062 C 45.140625 110.804688 45.1875 110.820312 45.238281 110.835938 C 45.230469 110.835938 45.226562 110.828125 45.21875 110.828125 C 46.488281 111.203125 48.066406 111.328125 50.039062 111 C 50.039062 111 48.964844 112.042969 47.316406 112.5625 C 47.316406 112.5625 50.890625 112.742188 56.921875 108.769531 C 62.949219 104.796875 67.820312 98.59375 67.820312 98.59375 C 67.820312 98.59375 62.726562 101.894531 58.664062 103.144531 L 62.726562 100.511719 L 57.992188 101.898438 C 57.992188 101.898438 65.898438 98.238281 70.230469 95.160156 L 72.066406 96.765625 L 66.703125 102.03125 L 72.289062 98.015625 L 69.234375 101.703125 L 73.132812 99.128906 L 75.144531 97.078125 L 73.46875 95.652344 C 77.96875 91.472656 82.566406 86.34375 86.433594 80.253906 L 87.0625 79.269531 Z M 86.625 78.1875 " fill-opacity="1" fill-rule="nonzero"/><path fill="#617f84" d="M 54.367188 43.152344 C 55.871094 44.328125 56.871094 45.664062 56.871094 45.664062 C 54.859375 44.652344 52.597656 44.734375 52.597656 44.734375 L 51.347656 51.796875 C 51.234375 52.808594 50.371094 53.601562 49.324219 53.601562 L 47.539062 53.601562 C 46.417969 53.601562 45.503906 52.6875 45.503906 51.566406 L 45.503906 43.066406 C 43.28125 43.003906 40.523438 44.328125 40.523438 44.328125 C 41.949219 44.160156 43.917969 44.671875 43.917969 44.671875 C 40.460938 45.445312 38.910156 46.992188 38.910156 46.992188 C 40.34375 46.695312 42.011719 46.695312 42.011719 46.695312 C 40.042969 47.347656 38.496094 48.894531 38.496094 48.894531 C 39.746094 53.597656 39.613281 56.761719 39.613281 56.761719 C 41.039062 57.222656 46.160156 59.519531 47.472656 68.972656 L 49.417969 68.972656 C 49.78125 66.367188 50.433594 64.304688 51.21875 62.675781 C 52 61.046875 52.917969 59.851562 53.804688 58.972656 L 53.25 55.699219 L 54.839844 58.078125 C 55.882812 57.289062 56.792969 56.921875 57.277344 56.761719 C 57.324219 54.289062 57.980469 51.882812 59.214844 49.75 L 61.261719 46.199219 C 58.597656 43.796875 54.367188 43.152344 54.367188 43.152344 Z M 47.980469 62.839844 C 46.300781 57.335938 42.441406 55.386719 42.441406 55.386719 C 48.472656 56.140625 47.980469 62.839844 47.980469 62.839844 Z M 59.53125 78.050781 L 59.058594 82.140625 C 56.679688 82.21875 54.53125 82 53.648438 81.890625 L 54.183594 75.65625 L 56.964844 74.019531 Z M 43.246094 81.890625 C 42.828125 81.941406 42.121094 82.019531 41.246094 82.078125 L 40.3125 78.65625 L 39.875 82.140625 C 39.230469 82.160156 38.542969 82.164062 37.832031 82.140625 L 37.359375 78.050781 L 39.925781 74.019531 L 42.707031 75.65625 Z M 43.246094 81.890625 " fill-opacity="1" fill-rule="nonzero"/><path fill="#bcc7ce" d="M 46.140625 63.738281 L 39.804688 57.523438 L 39.328125 57.523438 L 37.78125 48.300781 L 40.300781 43.300781 L 45.824219 41.875 L 45.824219 45.453125 L 45.941406 45.386719 L 45.503906 51.566406 L 44.675781 46.109375 C 43.800781 45.988281 42.960938 46.097656 42.960938 46.097656 C 43.648438 46.351562 44.332031 46.992188 44.332031 46.992188 C 42.246094 47.230469 39.804688 49.492188 39.804688 49.492188 C 40.234375 51.871094 40.351562 53.941406 40.367188 55.386719 C 40.367188 55.386719 44.8125 58.507812 46.140625 63.738281 Z M 45.464844 54.789062 C 46.835938 55.621094 47.132812 57.109375 47.132812 57.109375 C 45.226562 55.082031 42.441406 55.382812 42.441406 55.382812 C 48.589844 57.941406 47.980469 62.835938 47.980469 62.835938 C 50.316406 56.1875 45.464844 54.789062 45.464844 54.789062 Z M 60.441406 48.285156 L 61.871094 45.785156 C 61.871094 45.785156 58.613281 42.617188 53.789062 42.390625 L 51.777344 44.324219 L 51.175781 52.414062 L 53.699219 45.785156 C 53.699219 45.785156 56.78125 45.875 58.121094 47.167969 C 58.121094 47.167969 57.898438 45.832031 57.359375 44.980469 C 57.359375 44.984375 59.816406 46.277344 60.441406 48.285156 Z M 57.808594 56.855469 L 57.808594 54.980469 L 55.085938 56.8125 L 52.359375 53.507812 L 53.03125 58.8125 C 53.03125 58.8125 50.128906 61.433594 49.527344 67.164062 L 49.515625 67.167969 L 47.476562 68.972656 L 49.882812 69.621094 L 50.183594 67.871094 Z M 57.808594 79.964844 L 56.34375 80.75 L 57.089844 78.085938 L 54.878906 80.75 L 55.355469 76.210938 L 57.8125 74.367188 L 57.089844 73.59375 L 53.617188 75.082031 L 52.492188 82.703125 C 52.492188 82.703125 59.164062 82.703125 59.535156 82.703125 C 59.90625 82.703125 59.535156 80.75 59.535156 80.75 C 58.117188 80.589844 57.808594 79.964844 57.808594 79.964844 Z M 42.175781 75.871094 L 42.621094 81.09375 L 41.800781 81.140625 L 40.074219 76.183594 L 39.316406 81.304688 L 38.496094 81.304688 L 37.78125 77.078125 L 36.949219 77.476562 L 37.359375 82.703125 L 43.558594 82.703125 L 43.558594 75.070312 L 39.925781 74.019531 Z M 58.210938 57.828125 C 58.566406 64.09375 57.734375 68.460938 57.203125 70.507812 C 56.949219 71.496094 57.117188 72.558594 57.671875 73.429688 L 60.25 77.476562 C 60.949219 77.429688 61.503906 77.171875 61.941406 76.695312 C 63.222656 75.300781 63.003906 72.53125 63.003906 72.503906 L 62.980469 72.25 L 63.1875 72.097656 C 67.058594 69.265625 66.050781 66.425781 66.007812 66.308594 L 65.898438 66.015625 L 66.132812 65.804688 C 69.296875 63.023438 69.070312 59.824219 68.746094 58.371094 C 68.558594 58.605469 68.375 58.835938 68.1875 59.070312 C 67.835938 59.515625 67.484375 59.957031 67.125 60.394531 C 66.410156 61.277344 65.691406 62.148438 64.960938 63.015625 C 64.234375 63.886719 63.496094 64.746094 62.761719 65.605469 C 62.027344 66.472656 61.269531 67.316406 60.367188 68.039062 C 60.878906 67 61.542969 66.078125 62.226562 65.175781 C 62.910156 64.273438 63.59375 63.371094 64.285156 62.472656 C 64.976562 61.578125 65.671875 60.683594 66.382812 59.796875 C 66.730469 59.355469 67.089844 58.914062 67.449219 58.476562 C 67.804688 58.035156 68.160156 57.597656 68.523438 57.164062 L 68.542969 57.179688 L 68.546875 57.167969 C 70.328125 54.300781 70.074219 51.789062 69.78125 50.570312 C 69.605469 50.792969 69.429688 51.011719 69.253906 51.234375 C 68.902344 51.675781 68.550781 52.121094 68.191406 52.554688 C 67.480469 53.4375 66.753906 54.308594 66.027344 55.175781 C 65.300781 56.046875 64.566406 56.90625 63.828125 57.769531 C 63.097656 58.632812 62.339844 59.476562 61.433594 60.203125 C 61.949219 59.160156 62.609375 58.242188 63.292969 57.339844 C 63.976562 56.433594 64.660156 55.53125 65.355469 54.632812 C 66.046875 53.738281 66.742188 52.847656 67.449219 51.960938 C 67.800781 51.515625 68.15625 51.078125 68.511719 50.636719 C 68.867188 50.203125 69.222656 49.769531 69.582031 49.339844 C 71.78125 46.15625 71.550781 43.273438 71.253906 41.917969 C 71.023438 42.222656 70.796875 42.523438 70.5625 42.828125 C 70.148438 43.367188 69.738281 43.910156 69.316406 44.441406 C 68.480469 45.515625 67.632812 46.582031 66.78125 47.644531 L 65.503906 49.238281 L 64.210938 50.824219 C 63.359375 51.882812 62.492188 52.9375 61.433594 53.835938 C 62.039062 52.585938 62.84375 51.484375 63.65625 50.394531 L 64.867188 48.75 L 66.089844 47.109375 C 66.90625 46.023438 67.726562 44.9375 68.558594 43.855469 C 68.96875 43.316406 69.390625 42.78125 69.808594 42.242188 C 70.214844 41.722656 70.625 41.203125 71.039062 40.691406 C 73.40625 35.019531 72.503906 31.109375 71.925781 29.542969 L 60.003906 50.203125 C 58.679688 52.503906 58.058594 55.140625 58.210938 57.828125 Z M 39.6875 70.507812 C 39.160156 68.460938 38.324219 64.09375 38.679688 57.828125 C 38.835938 55.140625 38.214844 52.503906 36.886719 50.203125 L 24.96875 29.546875 C 24.390625 31.125 23.496094 35.042969 25.851562 40.691406 C 26.265625 41.203125 26.671875 41.722656 27.078125 42.242188 C 27.5 42.78125 27.921875 43.316406 28.332031 43.855469 C 29.164062 44.9375 29.984375 46.023438 30.804688 47.109375 L 32.023438 48.75 L 33.238281 50.394531 C 34.050781 51.484375 34.851562 52.585938 35.457031 53.835938 C 34.398438 52.9375 33.535156 51.882812 32.679688 50.824219 L 31.390625 49.238281 L 30.109375 47.644531 C 29.257812 46.582031 28.414062 45.515625 27.574219 44.441406 C 27.15625 43.910156 26.742188 43.367188 26.328125 42.828125 C 26.09375 42.523438 25.863281 42.214844 25.632812 41.910156 C 25.324219 43.257812 25.089844 46.125 27.308594 49.339844 C 27.671875 49.765625 28.023438 50.203125 28.375 50.636719 C 28.734375 51.078125 29.09375 51.515625 29.441406 51.960938 C 30.148438 52.847656 30.847656 53.738281 31.539062 54.632812 C 32.230469 55.53125 32.914062 56.433594 33.597656 57.339844 C 34.28125 58.242188 34.945312 59.160156 35.457031 60.203125 C 34.554688 59.476562 33.796875 58.632812 33.0625 57.769531 C 32.324219 56.90625 31.589844 56.046875 30.863281 55.175781 C 30.136719 54.308594 29.414062 53.4375 28.699219 52.554688 C 28.339844 52.121094 27.988281 51.675781 27.636719 51.234375 C 27.460938 51.011719 27.285156 50.792969 27.109375 50.570312 C 26.816406 51.785156 26.566406 54.300781 28.339844 57.167969 L 28.347656 57.179688 L 28.367188 57.164062 C 28.730469 57.597656 29.089844 58.035156 29.445312 58.476562 C 29.804688 58.914062 30.160156 59.355469 30.511719 59.796875 C 31.214844 60.683594 31.914062 61.578125 32.605469 62.472656 C 33.296875 63.371094 33.984375 64.273438 34.664062 65.175781 C 35.351562 66.078125 36.011719 67 36.527344 68.039062 C 35.621094 67.316406 34.863281 66.472656 34.128906 65.605469 C 33.390625 64.746094 32.65625 63.886719 31.929688 63.015625 C 31.203125 62.148438 30.480469 61.277344 29.765625 60.394531 C 29.40625 59.957031 29.054688 59.515625 28.703125 59.070312 C 28.515625 58.835938 28.332031 58.601562 28.148438 58.371094 C 27.824219 59.824219 27.59375 63.023438 30.757812 65.804688 L 30.996094 66.015625 L 30.882812 66.3125 C 30.835938 66.425781 29.835938 69.265625 33.703125 72.097656 L 33.910156 72.25 L 33.890625 72.503906 C 33.886719 72.53125 33.664062 75.300781 34.949219 76.695312 C 35.386719 77.171875 35.941406 77.429688 36.644531 77.476562 L 39.21875 73.429688 C 39.773438 72.558594 39.945312 71.496094 39.6875 70.507812 Z M 76.746094 94.21875 C 74.148438 93.441406 73.003906 92.285156 72.929688 92.214844 C 73.714844 93.507812 74.824219 94.84375 74.824219 94.84375 C 69.375 91.449219 69.226562 87.226562 69.226562 87.226562 C 70.359375 89.902344 72.929688 90.976562 72.929688 90.976562 C 68.117188 85.738281 68.644531 80.753906 68.644531 80.753906 C 68.121094 81.703125 67.4375 83.328125 67.453125 85.34375 C 67.464844 86.558594 67.726562 87.769531 68.234375 88.953125 L 68.292969 89.089844 C 69.449219 91.699219 71.800781 94.175781 75.269531 96.464844 C 76.316406 95.476562 77.363281 94.4375 78.40625 93.351562 C 76.945312 92.507812 75.695312 91.578125 74.628906 90.613281 C 74.925781 92.667969 76.746094 94.21875 76.746094 94.21875 Z M 76.746094 82.703125 L 69.472656 80.230469 C 69.949219 82.355469 71.914062 88.632812 79.050781 92.667969 C 80.667969 90.933594 81.257812 89.417969 81.257812 88.125 C 81.257812 84.558594 76.746094 82.703125 76.746094 82.703125 Z M 68.726562 79.015625 L 81.058594 83.199219 C 82.09375 81.820312 83.082031 80.402344 83.992188 78.984375 C 82.230469 74.59375 77.703125 63.953125 70.898438 52.414062 C 70.894531 53.800781 70.566406 55.5625 69.4375 57.460938 C 69.761719 58.480469 70.796875 62.730469 66.953125 66.292969 C 67.171875 67.210938 67.457031 69.992188 63.925781 72.683594 C 63.957031 73.476562 63.929688 75.882812 62.617188 77.308594 C 62.042969 77.9375 61.300781 78.296875 60.414062 78.378906 L 60.128906 80.847656 L 66.566406 84.574219 C 66.789062 81.417969 68.453125 79.351562 68.527344 79.257812 Z M 45.503906 40.097656 L 45.503906 39.425781 C 45.503906 38.304688 46.417969 37.390625 47.539062 37.390625 L 49.324219 37.390625 C 50.449219 37.390625 51.363281 38.304688 51.363281 39.425781 L 51.363281 40.097656 C 57.304688 40.78125 61.109375 43.367188 62.339844 44.328125 L 63.925781 41.582031 C 58.898438 34.460938 53.691406 28.507812 48.433594 23.875 C 43.183594 28.5 37.980469 34.449219 32.957031 41.566406 L 34.550781 44.328125 C 35.78125 43.367188 39.578125 40.789062 45.503906 40.097656 Z M 34.273438 77.308594 C 32.960938 75.882812 32.933594 73.476562 32.964844 72.683594 C 29.433594 69.992188 29.71875 67.210938 29.9375 66.292969 C 26.09375 62.730469 27.128906 58.480469 27.453125 57.460938 C 26.316406 55.546875 25.992188 53.777344 25.992188 52.386719 C 19.175781 63.933594 14.636719 74.589844 12.871094 78.984375 C 14.25 81.132812 15.792969 83.265625 17.457031 85.324219 L 17.769531 85.375 L 24.347656 80.355469 L 28.195312 81.535156 L 32.15625 77.898438 L 36.59375 79.367188 L 36.476562 78.378906 C 35.589844 78.296875 34.851562 77.9375 34.273438 77.308594 Z M 34.273438 77.308594 " fill-opacity="1" fill-rule="nonzero"/><path fill="#617f84" d="M 37.359375 70.320312 C 32.164062 71.511719 32.726562 66.054688 32.726562 66.054688 C 30.820312 64.699219 30.761719 62.839844 30.761719 62.839844 L 35.296875 66.90625 L 32.023438 62.285156 L 27.96875 57.820312 C 27.96875 57.820312 27.792969 57.488281 27.554688 56.957031 C 27.785156 57.335938 27.96875 57.523438 27.96875 57.523438 L 33.203125 63.25 C 29.8125 59.039062 28.496094 54.175781 28.496094 54.175781 L 34.488281 59.335938 L 27.96875 50.871094 L 31.183594 54.175781 C 27.53125 49.257812 26.832031 45.386719 26.832031 45.386719 L 34.265625 52.6875 L 25.460938 41.042969 C 23.972656 45.148438 26.832031 49.703125 26.832031 49.703125 L 27.96875 50.871094 L 26.769531 49.96875 C 26.386719 51.695312 26.398438 53.121094 26.582031 54.25 C 26.28125 53.085938 26.132812 51.855469 26.457031 50.921875 L 25.03125 53.222656 C 25.03125 53.222656 24.769531 56.050781 25.929688 57.828125 C 25.929688 57.828125 24.203125 62.957031 28.492188 66.910156 C 28.492188 66.910156 28.132812 71.457031 31.527344 73.597656 C 31.527344 73.597656 31.410156 75.144531 32.242188 76.097656 L 31.203125 75.679688 L 27.96875 79.964844 L 23.910156 78.363281 L 16.398438 84.574219 L 17.589844 86.09375 L 24.320312 80.753906 L 28.011719 82.160156 L 32.242188 78.714844 L 37.144531 79.964844 L 36.761719 78.089844 L 37.355469 76.8125 C 34.914062 75.535156 36.761719 73.003906 36.761719 73.003906 L 35.015625 73.003906 L 36.761719 72.050781 Z M 30.460938 66.148438 C 29.894531 68.195312 30.882812 69.972656 31.867188 71.148438 C 30.84375 69.941406 29.808594 68.128906 30.460938 66.148438 Z M 71.429688 41.039062 C 71.429688 41.039062 74.5625 35.066406 71.925781 29.539062 C 71.925781 29.539062 70.871094 40.621094 64.867188 48.746094 Z M 70.0625 45.386719 C 70.0625 45.386719 69.359375 49.257812 65.707031 54.175781 L 68.925781 50.871094 L 62.402344 59.335938 L 68.394531 54.175781 C 68.394531 54.175781 67.082031 59.039062 63.6875 63.25 L 68.925781 57.523438 C 68.925781 57.523438 71.261719 55.066406 70.121094 49.964844 L 68.925781 50.867188 L 70.0625 49.699219 C 70.0625 49.699219 72.917969 45.144531 71.429688 41.039062 L 62.625 52.6875 Z M 59.722656 53.890625 C 59.695312 54.085938 59.695312 54.175781 59.695312 54.175781 C 66.902344 45.171875 67.246094 39.851562 67.246094 39.851562 C 67.246094 39.851562 65.117188 42.945312 62.402344 47.609375 C 60.28125 51.246094 59.824219 53.203125 59.722656 53.890625 Z M 63.925781 55.027344 C 66.183594 52.882812 67.453125 49.699219 67.453125 49.699219 C 63.894531 52.171875 63.925781 55.027344 63.925781 55.027344 Z M 24.96875 29.542969 C 22.332031 35.066406 25.460938 41.042969 25.460938 41.042969 L 32.023438 48.75 C 26.023438 40.625 24.96875 29.542969 24.96875 29.542969 Z M 37.167969 53.890625 C 37.070312 53.203125 36.609375 51.246094 34.488281 47.605469 C 31.773438 42.945312 29.648438 39.847656 29.648438 39.847656 C 29.648438 39.847656 29.988281 45.167969 37.195312 54.171875 C 37.195312 54.175781 37.195312 54.085938 37.167969 53.890625 Z M 32.96875 55.027344 C 32.96875 55.027344 33 52.171875 29.4375 49.699219 C 29.4375 49.699219 30.707031 52.882812 32.96875 55.027344 Z M 79.769531 83.285156 L 68.929688 79.613281 L 69.476562 81.304688 C 69.476562 81.304688 75.230469 82.476562 77.238281 85.691406 C 77.238281 85.691406 75.320312 84.398438 74.113281 84.128906 C 74.113281 84.128906 79.5625 88.28125 77.238281 91.984375 L 79.070312 93.277344 L 82.417969 88.605469 Z M 75.988281 91.242188 L 72.0625 88 L 69.472656 82.015625 L 68.644531 80.75 C 68.125 83.652344 69.335938 86.808594 69.335938 86.808594 C 68.792969 85.886719 68.332031 84.25 68.332031 84.25 C 68.332031 84.25 67.910156 88.097656 70.746094 91.894531 C 73.582031 95.691406 76.648438 95.914062 76.648438 95.914062 C 75.585938 95.167969 75.140625 94.21875 75.140625 94.21875 C 75.777344 94.8125 77.359375 95.230469 77.359375 95.230469 L 78.160156 94.394531 C 76.496094 93.476562 75.988281 91.242188 75.988281 91.242188 Z M 65.65625 73.375 C 69.050781 71.234375 68.691406 66.6875 68.691406 66.6875 C 72.980469 62.734375 71.253906 57.605469 71.253906 57.605469 C 72.414062 55.828125 72.152344 53 72.152344 53 L 70.726562 50.699219 C 71.566406 53.140625 69.214844 57.605469 69.214844 57.605469 C 70.753906 62.246094 66.722656 65.929688 66.722656 65.929688 C 67.882812 69.433594 63.742188 72.425781 63.742188 72.425781 C 63.800781 75 62.9375 76.363281 62.074219 77.082031 C 62.84375 76.316406 63.53125 74.980469 63.449219 72.640625 C 63.449219 72.640625 67.449219 69.820312 66.429688 66.144531 C 66.429688 66.144531 70.644531 62.347656 68.925781 57.820312 L 64.867188 62.285156 L 61.597656 66.90625 L 66.128906 62.839844 C 66.128906 62.839844 66.070312 64.699219 64.164062 66.054688 C 64.164062 66.054688 64.726562 71.511719 59.53125 70.320312 L 60.128906 72.050781 L 61.871094 73 L 60.128906 73 C 60.128906 73 61.976562 75.53125 59.53125 76.8125 L 60.128906 78.089844 C 60.128906 78.089844 60.226562 78.078125 60.382812 78.039062 L 60.21875 78.859375 L 59.695312 78.890625 L 59.53125 80.75 L 66.726562 85.371094 L 67.246094 83.234375 L 63.5625 78.765625 C 65.25 77.296875 65.65625 73.375 65.65625 73.375 Z M 64.4375 41.875 L 63.46875 39.851562 L 61.261719 41.875 C 58.300781 39.910156 52.789062 38.566406 52.789062 38.566406 L 52.789062 38.421875 C 52.789062 37.175781 51.777344 36.160156 50.527344 36.160156 L 46.476562 36.160156 C 45.230469 36.160156 44.214844 37.175781 44.214844 38.421875 L 44.214844 38.886719 C 40.164062 39.40625 35.28125 41.875 35.28125 41.875 L 33.972656 39.554688 L 32.457031 41.398438 L 34.492188 45.148438 L 45.824219 41.042969 C 45.585938 38.125 47.132812 38.183594 48.910156 38.007812 C 50.691406 37.828125 50.738281 38.886719 50.738281 38.886719 L 51.175781 41.398438 C 56.527344 40.921875 62.402344 45.148438 62.402344 45.148438 Z M 64.4375 41.875 " fill-opacity="1" fill-rule="nonzero"/><path fill="#071e52" d="M 90.21875 79.253906 L 90.21875 79.25 C 89.953125 78.53125 83.621094 61.5 72.578125 44.226562 C 72.664062 42.632812 72.34375 41.445312 72.171875 40.9375 C 75.363281 33.105469 72.679688 28.390625 72.5625 28.191406 L 71.964844 27.191406 L 66.902344 35.960938 C 61.074219 28.050781 55 21.613281 48.851562 16.8125 L 48.429688 16.484375 L 48.007812 16.8125 C 41.867188 21.605469 35.796875 28.039062 29.972656 35.941406 L 24.929688 27.1875 L 24.328125 28.191406 C 24.210938 28.390625 21.523438 33.105469 24.71875 40.9375 C 24.546875 41.441406 24.230469 42.617188 24.308594 44.191406 C 13.253906 61.472656 6.910156 78.53125 6.644531 79.253906 L 6.535156 79.558594 L 6.699219 79.835938 C 14.332031 92.761719 25.199219 101.761719 32.96875 107.035156 C 41.417969 112.769531 48.121094 115.453125 48.179688 115.476562 L 48.433594 115.578125 L 48.683594 115.476562 C 48.746094 115.453125 55.449219 112.769531 63.898438 107.035156 C 71.667969 101.761719 82.535156 92.761719 90.167969 79.835938 L 90.332031 79.558594 Z M 39.46875 70.566406 C 39.707031 71.492188 39.546875 72.492188 39.027344 73.304688 L 36.523438 77.238281 C 35.945312 77.171875 35.484375 76.941406 35.117188 76.542969 C 33.910156 75.230469 34.113281 72.550781 34.117188 72.523438 L 34.148438 72.144531 L 33.839844 71.914062 C 30.070312 69.15625 31.082031 66.421875 31.09375 66.394531 L 31.265625 65.949219 L 30.90625 65.636719 C 28.179688 63.234375 28.027344 60.546875 28.28125 58.90625 C 28.363281 59.007812 28.445312 59.109375 28.527344 59.214844 C 28.878906 59.660156 29.230469 60.101562 29.589844 60.542969 C 30.277344 61.390625 30.988281 62.246094 31.757812 63.164062 C 32.5 64.050781 33.25 64.933594 33.957031 65.757812 C 34.785156 66.730469 35.515625 67.523438 36.386719 68.222656 L 37.191406 68.867188 L 36.734375 67.941406 C 36.242188 66.941406 35.625 66.058594 34.851562 65.042969 C 34.234375 64.226562 33.515625 63.277344 32.785156 62.335938 C 32.070312 61.40625 31.367188 60.503906 30.691406 59.660156 C 30.339844 59.214844 29.980469 58.773438 29.621094 58.335938 C 29.269531 57.902344 28.90625 57.453125 28.542969 57.019531 L 28.460938 56.921875 C 27.015625 54.511719 27.019531 52.378906 27.238281 51.097656 L 27.566406 51.511719 C 27.878906 51.90625 28.199219 52.3125 28.523438 52.703125 C 29.144531 53.46875 29.8125 54.277344 30.691406 55.324219 C 31.292969 56.046875 31.914062 56.773438 32.511719 57.476562 L 32.890625 57.917969 C 33.5625 58.707031 34.355469 59.609375 35.320312 60.382812 L 36.121094 61.027344 L 35.664062 60.101562 C 35.121094 59.003906 34.40625 58.027344 33.769531 57.183594 C 33.101562 56.300781 32.414062 55.390625 31.71875 54.496094 C 30.929688 53.472656 30.265625 52.621094 29.621094 51.820312 C 29.308594 51.425781 28.988281 51.03125 28.671875 50.636719 L 28.554688 50.496094 C 28.234375 50.101562 27.863281 49.640625 27.496094 49.210938 C 25.578125 46.433594 25.527344 43.9375 25.757812 42.460938 C 25.886719 42.628906 26.019531 42.800781 26.148438 42.96875 L 26.386719 43.28125 C 26.722656 43.71875 27.054688 44.15625 27.394531 44.585938 C 28.277344 45.71875 29.171875 46.84375 29.929688 47.792969 L 32.5 50.96875 C 33.421875 52.113281 34.269531 53.132812 35.308594 54.011719 L 36.132812 54.710938 L 35.664062 53.738281 C 35.070312 52.511719 34.296875 51.4375 33.417969 50.257812 L 32.207031 48.613281 L 30.984375 46.976562 C 30.042969 45.71875 29.257812 44.6875 28.515625 43.722656 C 28.210938 43.320312 27.898438 42.921875 27.585938 42.523438 L 27.257812 42.105469 C 26.863281 41.601562 26.457031 41.082031 26.050781 40.574219 C 23.9375 35.484375 24.511719 31.808594 25.027344 30.105469 L 36.691406 50.324219 C 37.996094 52.585938 38.605469 55.179688 38.457031 57.820312 C 38.097656 64.117188 38.933594 68.507812 39.46875 70.566406 Z M 58.4375 57.816406 C 58.289062 55.171875 58.898438 52.582031 60.203125 50.316406 L 71.871094 30.09375 C 72.386719 31.792969 72.964844 35.460938 70.84375 40.570312 C 70.425781 41.089844 70.011719 41.613281 69.628906 42.101562 C 69.480469 42.296875 69.328125 42.488281 69.179688 42.679688 C 68.910156 43.027344 68.640625 43.371094 68.375 43.71875 C 67.5 44.855469 66.632812 46 65.902344 46.972656 L 64.683594 48.613281 L 63.46875 50.257812 C 62.59375 51.4375 61.820312 52.511719 61.222656 53.738281 L 60.75 54.710938 L 61.578125 54.011719 C 62.617188 53.128906 63.46875 52.109375 64.386719 50.96875 L 66.960938 47.789062 C 67.765625 46.78125 68.628906 45.699219 69.492188 44.585938 C 69.789062 44.214844 70.074219 43.839844 70.363281 43.464844 L 70.742188 42.96875 C 70.871094 42.800781 70.996094 42.636719 71.125 42.46875 C 71.347656 43.960938 71.292969 46.460938 69.410156 49.191406 C 69.046875 49.621094 68.691406 50.058594 68.335938 50.492188 L 68.105469 50.777344 C 67.828125 51.125 67.546875 51.46875 67.273438 51.816406 C 66.636719 52.613281 65.96875 53.464844 65.175781 54.492188 C 64.492188 55.378906 63.804688 56.285156 63.140625 57.164062 L 63.113281 57.195312 C 62.488281 58.023438 61.773438 58.996094 61.230469 60.097656 L 60.769531 61.019531 L 61.574219 60.375 C 62.449219 59.675781 63.175781 58.886719 64.003906 57.914062 C 64.6875 57.113281 65.460938 56.207031 66.203125 55.320312 C 67.078125 54.273438 67.75 53.460938 68.371094 52.695312 C 68.644531 52.359375 68.917969 52.019531 69.1875 51.679688 L 69.65625 51.089844 C 69.875 52.378906 69.878906 54.515625 68.425781 56.921875 L 68.351562 57.011719 C 67.988281 57.4375 67.628906 57.882812 67.273438 58.324219 C 66.914062 58.765625 66.550781 59.207031 66.203125 59.648438 C 65.589844 60.417969 64.941406 61.242188 64.105469 62.328125 C 63.394531 63.25 62.695312 64.171875 62.046875 65.035156 C 61.273438 66.050781 60.65625 66.933594 60.164062 67.933594 L 59.707031 68.855469 L 60.507812 68.210938 C 61.378906 67.511719 62.109375 66.722656 62.9375 65.746094 L 63.164062 65.484375 C 63.8125 64.722656 64.484375 63.9375 65.132812 63.15625 C 65.925781 62.214844 66.632812 61.355469 67.300781 60.535156 C 67.671875 60.082031 68.046875 59.609375 68.363281 59.207031 C 68.449219 59.105469 68.53125 59 68.613281 58.894531 C 68.863281 60.539062 68.710938 63.226562 65.980469 65.625 L 65.628906 65.941406 L 65.792969 66.378906 C 65.832031 66.492188 66.765625 69.1875 63.046875 71.90625 L 62.742188 72.132812 L 62.773438 72.515625 C 62.773438 72.542969 62.976562 75.21875 61.773438 76.53125 C 61.402344 76.933594 60.941406 77.160156 60.363281 77.226562 L 57.859375 73.296875 C 57.34375 72.480469 57.183594 71.480469 57.421875 70.558594 C 57.957031 68.507812 58.796875 64.117188 58.4375 57.816406 Z M 48.433594 24.179688 C 53.59375 28.746094 58.710938 34.605469 63.652344 41.59375 L 62.273438 43.988281 C 60.777344 42.867188 57.128906 40.574219 51.589844 39.894531 L 51.589844 39.425781 C 51.589844 38.179688 50.574219 37.164062 49.324219 37.164062 L 47.539062 37.164062 C 46.289062 37.164062 45.273438 38.179688 45.273438 39.425781 L 45.273438 39.894531 C 39.746094 40.582031 36.109375 42.867188 34.617188 43.988281 L 33.230469 41.578125 C 38.167969 34.597656 43.28125 28.742188 48.433594 24.179688 Z M 53.894531 81.691406 L 54.402344 75.792969 L 56.890625 74.328125 L 59.292969 78.105469 L 58.855469 81.921875 C 56.804688 81.972656 54.949219 81.8125 53.894531 81.691406 Z M 37.597656 78.101562 L 40 74.324219 L 42.488281 75.789062 L 43 81.6875 C 42.476562 81.746094 41.945312 81.796875 41.417969 81.835938 L 40.230469 77.480469 L 39.675781 81.917969 C 39.097656 81.929688 38.558594 81.929688 38.039062 81.917969 Z M 33.8125 79.980469 C 33.929688 79.886719 34.066406 79.839844 34.230469 79.839844 C 34.339844 79.839844 34.460938 79.863281 34.59375 79.90625 L 36.5 80.535156 L 36.519531 80.722656 L 33.242188 82.621094 C 33.203125 81.816406 33.257812 80.429688 33.8125 79.980469 Z M 25.796875 53.167969 C 25.921875 54.644531 26.394531 56.097656 27.207031 57.488281 C 26.890625 58.542969 25.941406 62.808594 29.6875 66.367188 C 29.453125 67.523438 29.382812 70.1875 32.734375 72.789062 C 32.710938 73.808594 32.816406 76.058594 34.109375 77.464844 C 34.683594 78.089844 35.410156 78.464844 36.273438 78.582031 L 36.328125 79.039062 L 32.105469 77.640625 L 28.140625 81.28125 L 24.308594 80.101562 L 17.710938 85.132812 L 17.582031 85.113281 C 15.96875 83.117188 14.476562 81.046875 13.128906 78.960938 C 14.78125 74.859375 19.191406 64.46875 25.796875 53.167969 Z M 57.054688 56.597656 C 56.582031 56.769531 55.792969 57.109375 54.894531 57.753906 L 52.847656 54.679688 L 53.5625 58.894531 C 52.558594 59.90625 51.703125 61.140625 51.011719 62.578125 C 50.164062 64.332031 49.5625 66.410156 49.21875 68.746094 L 47.667969 68.746094 C 46.34375 59.6875 41.542969 57.199219 39.84375 56.601562 C 39.851562 55.882812 39.800781 52.972656 38.75 48.96875 C 39.109375 48.636719 40.460938 47.453125 42.082031 46.910156 L 43.417969 46.464844 L 42.011719 46.464844 C 41.957031 46.464844 40.910156 46.46875 39.761719 46.621094 C 40.511719 46.109375 41.890625 45.359375 43.964844 44.894531 L 44.886719 44.6875 L 43.972656 44.453125 C 43.914062 44.4375 42.84375 44.164062 41.703125 44.085938 C 42.640625 43.742188 44.03125 43.3125 45.273438 43.296875 L 45.273438 51.570312 C 45.273438 52.816406 46.289062 53.832031 47.539062 53.832031 L 49.324219 53.832031 C 50.476562 53.832031 51.445312 52.972656 51.570312 51.839844 L 52.789062 44.964844 C 53.359375 44.972656 55.152344 45.0625 56.765625 45.875 L 57.628906 46.308594 L 57.050781 45.535156 C 57.015625 45.488281 56.316406 44.554688 55.207031 43.5625 C 56.539062 43.878906 59.117188 44.65625 60.96875 46.246094 L 59.015625 49.636719 C 57.800781 51.738281 57.125 54.140625 57.054688 56.597656 Z M 50.21875 39.425781 L 50.21875 46.863281 C 49.746094 44.316406 49.144531 40.316406 49.75 38.972656 C 49.8125 38.847656 49.882812 38.792969 49.898438 38.792969 C 49.917969 38.792969 50.015625 38.84375 50.152344 39.089844 C 50.199219 39.199219 50.21875 39.3125 50.21875 39.425781 Z M 46.644531 39.875 C 46.644531 39.300781 46.773438 39.160156 46.8125 39.132812 C 46.820312 39.125 46.839844 39.109375 46.871094 39.109375 C 46.878906 39.109375 46.890625 39.113281 46.902344 39.117188 C 46.929688 39.125 46.957031 39.132812 46.984375 39.148438 C 47.152344 39.226562 47.300781 39.371094 47.4375 39.578125 C 47.625 39.863281 47.78125 40.261719 47.894531 40.761719 L 47.992188 41.207031 C 48.53125 43.546875 50.175781 50.671875 48.949219 52.210938 C 48.8125 52.382812 48.652344 52.460938 48.449219 52.460938 L 47.542969 52.460938 C 47.046875 52.460938 46.648438 52.058594 46.648438 51.566406 L 46.648438 39.875 Z M 64.410156 40.289062 C 59.367188 33.234375 54.148438 27.332031 48.882812 22.75 L 48.433594 22.359375 L 47.984375 22.75 C 42.730469 27.324219 37.515625 33.21875 32.476562 40.273438 L 30.71875 37.230469 C 36.445312 29.394531 42.402344 23.003906 48.433594 18.21875 C 54.472656 23.011719 60.433594 29.414062 66.160156 37.25 Z M 24.628906 46.253906 C 24.933594 47.4375 25.453125 48.59375 26.175781 49.699219 C 26.148438 49.789062 26.117188 49.894531 26.082031 50.015625 C 18.507812 62.503906 13.519531 74.289062 11.726562 78.78125 L 11.597656 79.105469 L 11.78125 79.398438 C 12.929688 81.203125 14.199219 83.011719 15.566406 84.777344 L 14.660156 84.628906 L 12.667969 86.242188 C 10.976562 84.019531 9.421875 81.726562 8.046875 79.421875 C 8.863281 77.253906 14.769531 61.988281 24.628906 46.253906 Z M 14.890625 86.203125 C 19.207031 96.058594 31.039062 100.140625 31.160156 100.179688 L 33.050781 100.816406 L 31.351562 99.769531 C 22.808594 94.507812 18.910156 87.554688 18.304688 86.40625 L 24.402344 81.75 C 27.527344 93.128906 38.648438 98.976562 38.761719 99.035156 L 40.300781 99.828125 L 39.023438 98.664062 C 30.234375 90.667969 28.832031 83.613281 28.675781 82.648438 L 30.40625 81.0625 C 30.863281 82.410156 32.875 87.253906 38.769531 89.828125 C 41.523438 91.117188 44.84375 91.953125 48.378906 92.25 C 49.476562 92.34375 50.644531 92.390625 51.851562 92.390625 C 59.046875 92.390625 65.449219 90.703125 67.515625 90.097656 C 68 91.058594 68.640625 92.011719 69.425781 92.9375 C 65.855469 94.65625 56.640625 96.679688 56.542969 96.699219 L 56.503906 96.710938 L 50.238281 100.707031 C 47.113281 101.875 40.960938 103.058594 40.898438 103.070312 L 39.269531 103.382812 L 40.921875 103.523438 C 55.433594 104.753906 68.835938 95.230469 70.449219 94.042969 C 71.507812 95.109375 72.777344 96.144531 74.222656 97.132812 C 70.796875 100.285156 67.074219 103.226562 63.148438 105.890625 C 55.773438 110.894531 49.777344 113.535156 48.433594 114.097656 C 47.089844 113.535156 41.09375 110.894531 33.71875 105.890625 C 28.253906 102.179688 20.328125 95.957031 13.507812 87.324219 Z M 67.683594 85.339844 C 67.667969 83.917969 68.011719 82.691406 68.414062 81.753906 C 68.503906 83.34375 69.0625 86.578125 71.867188 90.085938 C 71.066406 89.511719 70.039062 88.554688 69.441406 87.136719 L 68.957031 85.992188 L 69.003906 87.234375 C 69.007812 87.410156 69.214844 91.617188 74.707031 95.035156 L 75.753906 95.6875 C 75.585938 95.851562 75.414062 96.015625 75.246094 96.171875 C 71.890625 93.9375 69.625 91.519531 68.503906 88.992188 L 68.445312 88.863281 C 67.949219 87.707031 67.695312 86.523438 67.683594 85.339844 Z M 75 94.699219 C 74.996094 94.6875 74.453125 94.03125 73.863281 93.203125 C 74.5 93.597656 75.425781 94.058594 76.683594 94.433594 L 76.949219 94.515625 C 76.566406 94.902344 76.179688 95.28125 75.796875 95.648438 Z M 76.894531 94.046875 C 76.878906 94.03125 75.523438 92.859375 75.011719 91.25 C 75.941406 92.039062 76.957031 92.757812 78.042969 93.402344 C 77.753906 93.699219 77.46875 93.996094 77.175781 94.285156 Z M 76.660156 82.910156 C 76.703125 82.929688 81.03125 84.75 81.03125 88.121094 C 81.03125 89.464844 80.351562 90.898438 79.007812 92.378906 C 72.433594 88.589844 70.363281 82.8125 69.789062 80.578125 Z M 68.652344 78.746094 L 68.347656 79.113281 C 68.171875 79.332031 66.683594 81.253906 66.371094 84.195312 L 60.371094 80.722656 L 60.617188 78.582031 C 61.484375 78.464844 62.210938 78.089844 62.785156 77.464844 C 64.074219 76.058594 64.183594 73.808594 64.15625 72.789062 C 67.507812 70.183594 67.441406 67.523438 67.203125 66.367188 C 70.953125 62.804688 69.996094 58.542969 69.683594 57.488281 C 70.492188 56.105469 70.964844 54.660156 71.089844 53.191406 C 77.675781 64.464844 82.082031 74.851562 83.734375 78.957031 C 82.878906 80.285156 81.953125 81.621094 80.972656 82.929688 Z M 85.082031 79.394531 L 85.269531 79.101562 L 85.140625 78.773438 C 83.355469 74.296875 78.386719 62.539062 70.828125 50.0625 C 70.789062 49.933594 70.753906 49.8125 70.714844 49.695312 C 71.433594 48.601562 71.953125 47.453125 72.257812 46.28125 C 82.105469 62.003906 88 77.25 88.820312 79.417969 C 87.824219 81.089844 86.710938 82.789062 85.507812 84.46875 L 82.335938 83.394531 C 83.324219 82.054688 84.25 80.710938 85.082031 79.394531 Z M 46.9375 110.082031 C 47.285156 110.132812 47.640625 110.15625 48.007812 110.15625 C 54.492188 110.15625 63.003906 102.683594 63.089844 102.605469 L 64.457031 101.394531 L 62.832031 102.234375 C 52.652344 107.492188 42.867188 106.851562 42.769531 106.847656 L 42.316406 106.816406 L 42.558594 107.195312 C 43.605469 108.847656 45.078125 109.820312 46.9375 110.082031 Z M 42.472656 55.160156 L 41.171875 54.996094 L 42.339844 55.589844 C 42.378906 55.605469 46.136719 57.570312 47.761719 62.90625 L 48.121094 64.074219 L 48.207031 62.855469 C 48.214844 62.785156 48.644531 55.933594 42.472656 55.160156 Z M 42.472656 55.160156 " fill-opacity="1" fill-rule="nonzero"/></svg>