<svg width="32" height="33" viewBox="0 0 32 33" fill="none" xmlns="http://www.w3.org/2000/svg">
<g clip-path="url(#clip0_1578_1245)">
<path d="M32.001 19.1605V13.1605H28.9981V10.0225C29.7595 9.82518 30.446 9.40855 30.9722 8.82449C31.4985 8.24042 31.8413 7.51469 31.9579 6.73755L29.982 6.45555C29.9317 6.81153 29.7862 7.14736 29.5609 7.42771C29.3356 7.70806 29.0388 7.92256 28.7018 8.04863C28.3648 8.17471 28 8.2077 27.6458 8.14413C27.2916 8.08056 26.9611 7.92279 26.6891 7.68741C26.4171 7.45203 26.2136 7.14776 26.1001 6.8066C25.9866 6.46544 25.9672 6.10002 26.044 5.74879C26.1208 5.39755 26.2909 5.0735 26.5365 4.81072C26.7821 4.54794 27.0941 4.35616 27.4396 4.25555L26.874 2.34055C26.0367 2.58703 25.3034 3.10098 24.7864 3.80364C24.2694 4.5063 23.9973 5.35892 24.0117 6.23086C24.0261 7.1028 24.3263 7.94597 24.8663 8.63118C25.4062 9.31638 26.1561 9.80584 27.0011 10.0245V13.1605H17.0015V11.0205C17.945 10.7772 18.7674 10.1983 19.3143 9.39254C19.8612 8.58676 20.0952 7.60936 19.9725 6.64355C19.8497 5.67773 19.3785 4.78981 18.6473 4.14623C17.9161 3.50264 16.975 3.14756 16.0005 3.14756C15.026 3.14756 14.0849 3.50264 13.3537 4.14623C12.6225 4.78981 12.1513 5.67773 12.0285 6.64355C11.9057 7.60936 12.1397 8.58676 12.6867 9.39254C13.2336 10.1983 14.0559 10.7772 14.9995 11.0205V13.1605H5.00083V8.02655C5.9444 7.78315 6.76673 7.20432 7.31367 6.39854C7.86061 5.59276 8.09462 4.61536 7.97183 3.64955C7.84903 2.68373 7.37787 1.79581 6.64666 1.15223C5.91544 0.508637 4.97438 0.153564 3.99986 0.153564C3.02534 0.153564 2.08428 0.508637 1.35306 1.15223C0.621849 1.79581 0.150687 2.68373 0.0278936 3.64955C-0.0948998 4.61536 0.139106 5.59276 0.686048 6.39854C1.23299 7.20432 2.05532 7.78315 2.99889 8.02655V13.1605H-0.00401857V19.1605H9.0007V21.3005C8.05713 21.5439 7.2348 22.1228 6.68786 22.9286C6.14092 23.7343 5.90691 24.7117 6.02971 25.6775C6.1525 26.6434 6.62366 27.5313 7.35488 28.1749C8.08609 28.8185 9.02716 29.1735 10.0017 29.1735C10.9762 29.1735 11.9173 28.8185 12.6485 28.1749C13.3797 27.5313 13.8508 26.6434 13.9736 25.6775C14.0964 24.7117 13.8624 23.7343 13.3155 22.9286C12.7685 22.1228 11.9462 21.5439 11.0026 21.3005V19.1605H21.0023V24.2975C20.0588 24.5409 19.2364 25.1198 18.6895 25.9256C18.1425 26.7313 17.9085 27.7087 18.0313 28.6745C18.1541 29.6404 18.6253 30.5283 19.3565 31.1719C20.0877 31.8155 21.0288 32.1705 22.0033 32.1705C22.9778 32.1705 23.9189 31.8155 24.6501 31.1719C25.3813 30.5283 25.8525 29.6404 25.9753 28.6745C26.0981 27.7087 25.8641 26.7313 25.3171 25.9256C24.7702 25.1198 23.9478 24.5409 23.0043 24.2975V19.1605H32.001ZM26.0012 15.1605H30.0051V17.1605H26.0012V15.1605ZM14.0005 7.16955C14.0005 6.77398 14.118 6.38731 14.3379 6.05841C14.5579 5.72951 14.8706 5.47316 15.2364 5.32179C15.6022 5.17041 16.0047 5.13081 16.393 5.20798C16.7814 5.28515 17.1381 5.47563 17.4181 5.75533C17.698 6.03504 17.8887 6.39141 17.966 6.77937C18.0432 7.16733 18.0036 7.56946 17.852 7.93491C17.7005 8.30037 17.4439 8.61272 17.1147 8.83249C16.7855 9.05225 16.3984 9.16955 16.0025 9.16955C15.4715 9.16955 14.9623 8.95883 14.5869 8.58376C14.2115 8.20869 14.0005 7.69998 14.0005 7.16955ZM2.00092 4.16955C2.00092 3.77398 2.11834 3.38731 2.33831 3.05841C2.55829 2.72951 2.87095 2.47316 3.23675 2.32179C3.60256 2.17041 4.00508 2.13081 4.39342 2.20798C4.78176 2.28515 5.13847 2.47563 5.41845 2.75533C5.69842 3.03504 5.88909 3.39141 5.96634 3.77937C6.04358 4.16733 6.00394 4.56946 5.85241 4.93491C5.70089 5.30037 5.4443 5.61272 5.11508 5.83249C4.78586 6.05225 4.39881 6.16955 4.00286 6.16955C3.47244 6.16955 2.96369 5.95925 2.58834 5.58482C2.21299 5.2104 2.00172 4.70246 2.00092 4.17255V4.16955ZM6.0008 17.1605H1.99692V15.1605H6.0008V17.1605ZM12.0006 25.1525C12.0006 25.5481 11.8832 25.9348 11.6632 26.2637C11.4432 26.5926 11.1306 26.8489 10.7648 27.0003C10.399 27.1517 9.99645 27.1913 9.60811 27.1141C9.21978 27.0369 8.86306 26.8465 8.58309 26.5668C8.30311 26.2871 8.11244 25.9307 8.0352 25.5427C7.95795 25.1548 7.9976 24.7526 8.14912 24.3872C8.30064 24.0217 8.55724 23.7094 8.88645 23.4896C9.21567 23.2698 9.60273 23.1525 9.99867 23.1525C10.5294 23.1525 11.0385 23.3631 11.4139 23.738C11.7893 24.1128 12.0003 24.6213 12.0006 25.1515V25.1525ZM12.0006 17.1605H7.99673V15.1605H12.0006V17.1605ZM18.0004 17.1605H13.9965V15.1605H18.0004V17.1605ZM24.0002 28.1495C24.0002 28.5451 23.8828 28.9318 23.6628 29.2607C23.4429 29.5896 23.1302 29.8459 22.7644 29.9973C22.3986 30.1487 21.9961 30.1883 21.6077 30.1111C21.2194 30.0339 20.8627 29.8435 20.5827 29.5638C20.3027 29.2841 20.1121 28.9277 20.0348 28.5397C19.9576 28.1518 19.9972 27.7496 20.1487 27.3842C20.3003 27.0187 20.5569 26.7064 20.8861 26.4866C21.2153 26.2668 21.6023 26.1495 21.9983 26.1495C22.5291 26.1495 23.0381 26.3601 23.4135 26.735C23.7889 27.1098 24 27.6193 24.0002 28.1495ZM20.0004 17.1605V15.1605H24.0042V17.1605H20.0004Z" fill="white"/>
<path d="M29.7328 5.17155L31.4635 4.17155C31.0132 3.39813 30.318 2.79649 29.4875 2.46155L28.7418 4.31455C29.1582 4.48237 29.5069 4.78388 29.7328 5.17155Z" fill="white"/>
</g>
<defs>
<clipPath id="clip0_1578_1245">
<rect width="32" height="32" fill="white" transform="translate(0 0.160522)"/>
</clipPath>
</defs>
</svg>
